<?xml version="1.0" encoding="UTF-8"?>
<svg id="_圖層_2" data-name="圖層 2" xmlns="http://www.w3.org/2000/svg" width="470.81" height="246.53" viewBox="0 0 470.81 246.53">
  <g id="_圖層_1-2" data-name="圖層 1">
    <g>
      <g>
        <path d="M121.42,89.88h212.01c16.43,0,29.74-13.32,29.74-29.74v-29.4c0-16.43-13.32-29.74-29.74-29.74H30.74c-16.43,0-29.74,13.32-29.74,29.74v29.4c0,16.43,13.32,29.74,29.74,29.74h35.15s44.75,19.07,44.75,19.07c2.45,1.04,4.96-1.35,4.04-3.85l-5.64-15.22h12.38Z" style="fill: #fff; stroke: #1d7068; stroke-linecap: round; stroke-linejoin: round; stroke-width: 2px;"/>
        <g>
          <path d="M62.34,42.3c.2-.57.57-1.01,1.12-1.31.35-.22.72-.34,1.12-.34.17,0,.36.03.56.08l.26.07c.6.15,1.03.49,1.31,1.01.17.3.26.61.26.93,0,.22-.04.45-.11.67-1.47,4.01-3.38,7.61-5.72,10.8-.1.15-.12.31-.07.49,1.15,2.74,2.3,4.11,3.47,4.11.72,0,1.21-1.49,1.46-4.48.03-.45.24-.76.63-.93.17-.07.34-.11.49-.11.25,0,.47.07.67.22.08.05.15.1.22.15.57.37,1.02.85,1.35,1.42.25.42.37.87.37,1.34,0,.15-.01.3-.04.45-.4,2.54-1.02,4.27-1.85,5.19-.83.92-2.06,1.38-3.68,1.38-2.47,0-4.58-1.61-6.35-4.82-.1-.15-.21-.16-.34-.04-1.37,1.4-2.84,2.65-4.41,3.77-.4.27-.82.41-1.27.41-.15,0-.29-.01-.41-.04-.62-.1-1.13-.39-1.53-.86-.12-.15-.26-.3-.41-.45-.3-.35-.45-.74-.45-1.16v-.26c.08-.55.35-.98.82-1.31,2.12-1.37,4.02-2.99,5.72-4.86.12-.12.16-.27.11-.45-1.14-3.96-1.99-8.92-2.54-14.87,0-.2-.1-.3-.3-.3h-10.54c-.17,0-.26.1-.26.3v3.51c0,.2.09.3.26.3h6.99c.6,0,1.11.21,1.53.63.4.42.6.93.6,1.53,0,3.36-.11,6.25-.34,8.67-.15,1.74-.44,2.89-.86,3.44-.6.82-1.48,1.33-2.65,1.53-.5.08-1.23.11-2.2.11-.6,0-1.13-.2-1.61-.6-.47-.42-.8-.95-.97-1.57,0-.02-.01-.05-.04-.07-.03-.15-.04-.3-.04-.45,0-.3.09-.58.26-.86.27-.4.64-.6,1.08-.6h.04c.45.03.82.04,1.12.04.52,0,.9-.15,1.12-.45.32-.47.55-2.78.67-6.91,0-.2-.1-.3-.3-.3h-4.41c-.17,0-.27.1-.3.3-.2,6.65-1.2,11.82-2.99,15.5-.22.5-.62.78-1.2.86-.1.02-.2.04-.3.04-.45,0-.85-.16-1.2-.49-.15-.1-.3-.21-.45-.34-.47-.37-.79-.86-.93-1.46-.05-.22-.08-.45-.08-.67,0-.35.08-.71.22-1.08,1.45-3.21,2.17-7.97,2.17-14.27v-8.97c0-.6.21-1.12.63-1.55.42-.44.95-.65,1.57-.65h13.12c.17,0,.26-.09.26-.26-.08-1.84-.11-2.93-.11-3.25,0-.57.21-1.07.63-1.49s.93-.64,1.53-.64h.37c.62,0,1.14.21,1.57.64s.64.95.64,1.57c0,.97.02,2.03.08,3.18,0,.17.1.26.3.26h5.3s.05-.02.08-.06c.02-.04.01-.07-.04-.09-.8-.65-1.81-1.36-3.03-2.13-.42-.27-.66-.66-.71-1.16v-.19c0-.4.15-.75.45-1.05.4-.42.88-.67,1.46-.75.12-.02.25-.04.37-.04.45,0,.86.11,1.23.34,1.02.6,1.97,1.2,2.84,1.79.52.37.79.9.79,1.57,0,.55-.2,1.02-.6,1.42l-.11.15s-.06.06-.04.11c.02.05.06.07.11.07h1.49c.6,0,1.11.22,1.55.65.44.44.65.95.65,1.55v.11c0,.62-.22,1.15-.65,1.57-.44.42-.95.64-1.55.64h-9.34c-.17,0-.26.1-.26.3.35,3.56.83,6.86,1.46,9.9,0,.05.02.08.07.09s.09,0,.11-.06c1.15-1.97,2.1-4.02,2.88-6.16Z" style="fill: #1d7068;"/>
          <path d="M78.42,52.84c.15-.57.47-1.01.97-1.31.35-.25.72-.37,1.12-.37.12,0,.27.03.45.07.57.12,1.01.42,1.31.9.2.32.3.67.3,1.05,0,.17-.03.35-.07.52-.62,2.27-1.37,4.25-2.24,5.94-.27.5-.69.78-1.23.86-.1.02-.21.04-.34.04-.42,0-.81-.14-1.16-.41-.45-.35-.74-.81-.86-1.38-.05-.17-.08-.35-.08-.52,0-.37.09-.73.26-1.08.62-1.25,1.15-2.68,1.57-4.3ZM93.32,32.33c.57,0,1.06.21,1.48.62.41.41.62.9.62,1.48s-.21,1.06-.62,1.46c-.41.4-.9.6-1.48.6h-14.46c-.57,0-1.06-.2-1.46-.6-.4-.4-.6-.88-.6-1.46s.2-1.06.6-1.48.88-.62,1.46-.62h4.67c.17,0,.26-.09.26-.26v-1.83c0-.62.22-1.14.65-1.57s.95-.64,1.55-.64h.22c.62,0,1.15.21,1.57.64s.63.95.63,1.57v1.83c0,.17.1.26.3.26h4.6ZM93.81,47.16c0,.62-.22,1.15-.65,1.57-.44.42-.95.64-1.55.64h-2.8c-.2,0-.3.1-.3.3v9.49c0,1.02-.12,1.82-.35,2.39-.24.57-.67,1.03-1.29,1.38-.7.37-1.67.6-2.91.67h-.15c-.55,0-1.05-.17-1.49-.52-.5-.4-.85-.91-1.05-1.53-.05-.17-.08-.35-.08-.52,0-.27.09-.55.26-.82.27-.42.66-.63,1.16-.63h.93c.25,0,.42-.04.5-.11.09-.07.13-.21.13-.41v-9.38c0-.2-.1-.3-.3-.3h-3.1c-.6,0-1.12-.21-1.55-.64-.44-.42-.65-.95-.65-1.57v-6.35c0-.6.22-1.11.65-1.55.44-.44.95-.65,1.55-.65h10.83c.6,0,1.12.22,1.55.65s.65.95.65,1.55v6.35ZM82.97,42.34c-.17,0-.26.09-.26.26v2.73c0,.2.09.3.26.3h6.13c.2,0,.3-.1.3-.3v-2.73c0-.17-.1-.26-.3-.26h-6.13ZM107.33,59.04h.75c.32,0,.54-.07.63-.22.2-.2.31-.5.34-.9.08-.57.11-1.38.11-2.43.02-.37.21-.65.54-.82.34-.17.68-.17,1.03,0,.5.27.9.65,1.2,1.12.27.42.41.87.41,1.34,0,1.4-.14,2.57-.41,3.51-.2.87-.64,1.56-1.31,2.05-.57.45-1.35.67-2.32.67h-2.24c-1.2,0-2.11-.34-2.73-1.01-.35-.35-.59-.78-.71-1.29-.12-.51-.19-1.36-.19-2.56v-7.29s0-.04-.02-.04h-.06c-1.1,4.43-2.89,8.11-5.38,11.02-.4.47-.91.72-1.53.75h-.15c-.57,0-1.08-.16-1.53-.49-.1-.07-.19-.14-.26-.19-.45-.3-.71-.72-.79-1.27-.03-.1-.04-.19-.04-.26,0-.45.16-.85.49-1.2.65-.72,1.23-1.49,1.76-2.32.02-.02.02-.06-.02-.09-.04-.04-.07-.04-.09-.02l-1.23.45c-.25.08-.49.11-.71.11-.3,0-.6-.07-.9-.22-.52-.27-.86-.69-1.01-1.23-.3-.92-.63-1.87-1.01-2.84-.08-.22-.11-.45-.11-.67,0-.25.05-.5.15-.75.2-.45.55-.76,1.04-.93.22-.07.45-.11.67-.11.27,0,.55.05.82.15.5.22.85.57,1.05,1.05.67,1.54,1.2,3,1.57,4.37,0,.05.02.08.08.09.05.01.1,0,.15-.06,2.24-3.76,3.55-8.58,3.92-14.46,0-.2-.09-.3-.26-.3h-1.79c-.6,0-1.1-.21-1.51-.63-.41-.42-.62-.93-.62-1.53s.21-1.1.62-1.51c.41-.41.92-.62,1.51-.62h1.9c.17,0,.26-.1.26-.3v-6.99c0-.6.21-1.11.63-1.53s.94-.64,1.55-.64,1.13.21,1.55.64.63.93.63,1.53v6.99c0,.2.1.3.3.3h5.64c.6,0,1.11.21,1.53.62s.63.92.63,1.51-.21,1.11-.63,1.53-.93.63-1.53.63h-5.75c-.17,0-.27.1-.3.3l-.07,1.05c0,.17.09.26.26.26h.52c.6,0,1.12.22,1.55.65s.65.95.65,1.55v12.63c0,.27.05.46.15.56.15.17.35.26.6.26ZM111,33c.17.3.26.61.26.93,0,.22-.05.45-.15.67-.2.55-.57.96-1.12,1.23-.28.12-.55.19-.82.19-.22,0-.46-.05-.71-.15-.52-.2-.91-.56-1.16-1.08-.5-.97-1.06-1.92-1.68-2.84-.2-.27-.3-.57-.3-.9,0-.12.01-.26.04-.41.12-.47.41-.81.86-1.01.35-.17.71-.26,1.08-.26.17,0,.35.03.52.08.57.1,1.03.37,1.38.82.7.9,1.29,1.81,1.79,2.73Z" style="fill: #1d7068;"/>
          <path d="M153.14,51.4c.39.39.58.85.58,1.4s-.19,1.02-.58,1.4-.85.58-1.4.58h-10.39c-.08,0-.12.03-.13.08-.01.05,0,.1.02.15,2.22,2.32,5.92,3.77,11.1,4.37.45.05.76.29.93.71.1.2.15.37.15.52,0,.25-.07.49-.22.71-.12.17-.24.35-.34.52-.35.57-.82,1.02-1.42,1.34-.42.22-.87.34-1.34.34-.15,0-.31-.01-.49-.04-3.21-.55-5.87-1.45-7.98-2.71-2.11-1.26-3.83-2.98-5.17-5.17-.03-.05-.07-.08-.13-.08s-.11.04-.13.11c-1,1.87-2.55,3.43-4.65,4.69-2.1,1.26-5.04,2.26-8.8,3.01-.17.02-.34.04-.48.04-.42,0-.84-.11-1.23-.34-.57-.32-1.01-.77-1.31-1.34-.05-.08-.1-.16-.15-.26-.15-.3-.21-.6-.19-.9.02-.3.14-.57.34-.8.2-.24.46-.38.78-.43,2.76-.45,4.97-1.02,6.61-1.72,1.64-.7,2.91-1.56,3.81-2.58.02-.05.02-.1,0-.15-.03-.05-.06-.08-.11-.08h-9.83c-.55,0-1.01-.19-1.4-.58-.39-.39-.58-.85-.58-1.4s.19-1.01.58-1.4c.39-.39.85-.58,1.4-.58h11.58c.2,0,.31-.09.34-.26.1-.47.2-1.07.3-1.79.02-.17-.05-.26-.22-.26h-11.7c-.57,0-1.06-.2-1.46-.6s-.6-.88-.6-1.44.2-1.04.6-1.44.88-.6,1.46-.6h12.29c.17,0,.26-.1.26-.3v-1.38c0-.17-.09-.26-.26-.26h-9.12c-.55,0-1.01-.19-1.38-.56-.37-.37-.56-.83-.56-1.36s.19-.99.56-1.36c.37-.37.83-.56,1.38-.56h9.12c.17,0,.26-.09.26-.26v-1.38c0-.2-.09-.3-.26-.3h-10.8c-.55,0-1.02-.19-1.42-.58-.4-.39-.6-.86-.6-1.42s.2-1.03.6-1.42c.4-.39.87-.58,1.42-.58h4.33c.08,0,.12-.03.15-.09.02-.06.02-.12,0-.17-.17-.4-.39-.79-.63-1.16-.17-.3-.26-.61-.26-.93,0-.17.02-.36.07-.56.15-.52.47-.87.97-1.05.35-.15.71-.22,1.08-.22.25,0,.51.02.79.07.62.17,1.12.52,1.49,1.05.45.65.82,1.27,1.12,1.87.1.22.11.45.02.67-.09.22-.23.37-.43.45-.02.03-.02.05,0,.07h9.27v-.04c-.25-.07-.41-.22-.49-.45-.07-.22-.05-.44.07-.63.37-.55.72-1.12,1.05-1.72.32-.55.77-.96,1.34-1.23.37-.17.76-.26,1.16-.26.2,0,.41.03.64.08l.63.15c.5.12.85.44,1.05.93.08.2.11.39.11.56,0,.3-.1.57-.3.82-.37.5-.76,1.02-1.16,1.57-.05.05-.06.1-.04.15.02.05.07.07.15.07h4.78c.55,0,1.02.19,1.42.58.4.39.6.86.6,1.42s-.2,1.03-.6,1.42c-.4.39-.87.58-1.42.58h-10.95c-.2,0-.3.1-.3.3v1.38c0,.17.1.26.3.26h9.53c.52,0,.97.19,1.34.56.37.37.56.83.56,1.36s-.19.99-.56,1.36c-.37.37-.82.56-1.34.56h-9.53c-.2,0-.3.09-.3.26v1.38c0,.2.1.3.3.3h12.44c.57,0,1.06.2,1.46.6s.6.88.6,1.44-.2,1.04-.6,1.44-.88.6-1.46.6h-12.89c-.2,0-.31.09-.34.26-.05.6-.14,1.2-.26,1.79-.02.17.05.26.22.26h13.75c.55,0,1.01.19,1.4.58Z" style="fill: #1d7068;"/>
          <path d="M171.63,35.62c1.42,0,2.34.04,2.76.11.37.05.68.23.93.54.25.31.36.67.34,1.06-.47,6.18-1.48,11.26-3.03,15.24-.07.17-.04.32.11.45.95.77,1.76,1.49,2.43,2.17.5.47.75,1.06.75,1.76,0,.62-.19,1.17-.56,1.64l-.11.15c-.32.42-.76.65-1.31.67h-.08c-.52,0-.97-.2-1.34-.6-.5-.52-1.08-1.11-1.76-1.76-.15-.12-.27-.11-.37.04-1.4,2.17-3.06,4.01-5.01,5.53-.35.25-.72.37-1.12.37-.15,0-.3-.01-.45-.04-.6-.12-1.07-.44-1.42-.93-.03-.05-.05-.09-.07-.11-.28-.35-.41-.73-.41-1.16,0-.12.01-.24.04-.34.08-.55.34-1,.78-1.34,1.62-1.22,3.03-2.84,4.22-4.86.1-.15.07-.29-.08-.41-.4-.32-.97-.76-1.72-1.31-.08-.05-.12-.02-.15.08-.07.25-.24.43-.49.54-.25.11-.5.11-.75-.02l-.9-.45c-.55-.3-.95-.72-1.2-1.27-.15-.35-.22-.71-.22-1.08,0-.22.02-.45.07-.67.65-2.56,1.36-5.75,2.13-9.56.05-.17-.02-.26-.22-.26h-.6c-.57,0-1.07-.21-1.48-.62-.41-.41-.62-.9-.62-1.48s.21-1.06.62-1.48c.41-.41.9-.62,1.48-.62h1.42c.17,0,.29-.09.34-.26.35-1.94.65-3.67.9-5.19.1-.57.38-1.05.86-1.42.42-.32.9-.49,1.42-.49h.19c.6.05,1.07.3,1.42.75.27.37.41.77.41,1.2,0,.1-.01.22-.04.37-.27,1.49-.59,3.09-.93,4.78-.03.17.06.26.26.26h2.54ZM171.18,40.1c.03-.2-.06-.3-.26-.3h-2.73c-.2,0-.31.09-.34.26-.42,2.12-1,4.73-1.72,7.85-.05.17.01.31.19.41,1.22.82,2,1.36,2.35,1.61.15.12.26.09.34-.11.97-2.67,1.69-5.9,2.17-9.71ZM194.12,43.16c.6,0,1.1.21,1.51.63.41.42.62.93.62,1.51s-.21,1.09-.62,1.51c-.41.42-.91.63-1.51.63h-6.01c-.17,0-.26.09-.26.26v10.95c0,1.2-.14,2.11-.41,2.75-.27.63-.77,1.13-1.5,1.48-1,.45-2.39.71-4.18.78-.05.03-.09.04-.11.04-.6,0-1.13-.19-1.61-.56-.52-.4-.9-.92-1.12-1.57-.05-.1-.09-.21-.11-.34-.08-.17-.11-.36-.11-.56,0-.25.08-.51.22-.79.27-.4.66-.6,1.16-.6h.04c.65.03,1.18.04,1.61.04.35,0,.61-.01.78-.04.32,0,.54-.04.65-.13.11-.09.17-.27.17-.54v-10.91c0-.17-.09-.26-.26-.26h-5.68c-.57,0-1.07-.21-1.5-.63-.42-.42-.63-.93-.63-1.51s.21-1.09.63-1.51.92-.63,1.5-.63h5.68c.17,0,.26-.09.26-.26v-2.91c0-.35.12-.65.37-.9s.55-.37.9-.37c.1,0,.19-.04.26-.11,1.2-1.25,2.33-2.65,3.4-4.22.03-.05.03-.1,0-.15-.02-.05-.06-.08-.11-.08h-9.53c-.57,0-1.06-.21-1.48-.62s-.62-.91-.62-1.49.21-1.08.62-1.49c.41-.41.9-.62,1.48-.62h12.74c.07,0,.15-.01.22-.04.17-.05.34-.07.49-.07.37,0,.71.11,1.01.34l.82.63c.42.32.67.74.75,1.23.02.12.04.24.04.34,0,.4-.12.76-.37,1.08-2.12,2.94-4.21,5.39-6.28,7.36-.12.12-.19.27-.19.45v1.64c0,.17.09.26.26.26h6.01Z" style="fill: #1d7068;"/>
          <path d="M222.9,57.06c0,.2.1.3.3.3h12.33c.6,0,1.12.22,1.55.65.44.44.65.95.65,1.55v.04c0,.6-.22,1.11-.65,1.55-.44.44-.95.65-1.55.65h-30c-.6,0-1.11-.22-1.55-.65s-.65-.95-.65-1.55v-.04c0-.6.22-1.11.65-1.55s.95-.65,1.55-.65h12.29c.2,0,.3-.1.3-.3v-7.1c0-.2-.1-.3-.3-.3h-7.88c-.6,0-1.12-.22-1.55-.65-.44-.44-.65-.95-.65-1.55s.22-1.11.65-1.55.95-.65,1.55-.65h7.88c.2,0,.3-.1.3-.3v-6.13c0-.2-.1-.3-.3-.3h-7.32c-.2,0-.35.09-.45.26-.72,1.34-1.42,2.52-2.09,3.51-.35.5-.83.78-1.46.86-.12.02-.24.04-.34.04-.5,0-.95-.14-1.35-.41-.12-.1-.25-.2-.37-.3-.47-.3-.76-.73-.86-1.31-.03-.12-.04-.25-.04-.37,0-.4.12-.78.37-1.16.92-1.25,1.78-2.69,2.58-4.33.87-1.79,1.61-3.64,2.2-5.53.17-.6.54-1.06,1.08-1.38.35-.22.73-.34,1.16-.34.17,0,.35.03.52.08l.37.07c.6.12,1.05.45,1.34.97.2.32.3.65.3.97,0,.22-.04.44-.11.63-.3.9-.65,1.91-1.05,3.03-.03.08-.02.14.02.19.04.05.09.08.17.08h5.34c.17,0,.26-.09.26-.26v-4.41c0-.6.22-1.11.65-1.55s.95-.65,1.55-.65h.37c.6,0,1.11.22,1.55.65.44.44.65.95.65,1.55v4.41c0,.17.1.26.3.26h10.39c.6,0,1.11.22,1.55.65.43.44.65.95.65,1.55v.04c0,.6-.22,1.12-.65,1.55-.44.44-.95.65-1.55.65h-10.39c-.2,0-.3.1-.3.3v6.13c0,.2.1.3.3.3h8.93c.6,0,1.11.22,1.55.65s.65.95.65,1.55-.22,1.12-.65,1.55c-.44.44-.95.65-1.55.65h-8.93c-.2,0-.3.1-.3.3v7.1Z" style="fill: #1d7068;"/>
          <path d="M252.54,41.59c.55.27.88.71,1.01,1.31.05.15.07.31.07.49,0,.4-.12.77-.37,1.12l-.07.11c-.32.5-.79.81-1.38.93-.17.05-.35.08-.52.08-.4,0-.78-.11-1.16-.34-.9-.55-2.04-1.21-3.44-1.98-.5-.25-.8-.65-.9-1.2-.05-.15-.07-.29-.07-.41,0-.37.12-.72.37-1.05.35-.5.81-.82,1.38-.97.22-.05.44-.08.63-.08.37,0,.73.09,1.08.26,1.39.7,2.52,1.27,3.36,1.72ZM250.38,61.47c-.32.5-.77.8-1.34.9h-.34c-.45,0-.85-.14-1.2-.41l-.41-.34c-.47-.4-.76-.9-.86-1.49-.03-.12-.04-.25-.04-.37,0-.47.14-.92.41-1.34,1.77-2.64,3.44-5.4,5.01-8.29.27-.47.68-.76,1.23-.86.1-.02.2-.04.3-.04.42,0,.8.15,1.12.45l.08.07c.5.45.8,1,.9,1.64.05.17.07.35.07.52,0,.45-.11.88-.34,1.31-1.54,2.94-3.08,5.69-4.6,8.26ZM254.41,31.21c.52.3.85.74.97,1.31.02.15.04.3.04.45,0,.4-.14.79-.41,1.16l-.11.11c-.35.5-.82.8-1.42.9-.15.03-.3.04-.45.04-.45,0-.87-.12-1.27-.37-.8-.5-1.89-1.15-3.29-1.94-.5-.27-.8-.68-.9-1.23-.03-.12-.04-.25-.04-.37,0-.4.12-.76.37-1.08.37-.47.86-.79,1.46-.93.2-.02.38-.04.56-.04.4,0,.78.09,1.16.26,1.32.7,2.43,1.28,3.33,1.76ZM279.63,39.76c.42.42.64.93.64,1.53s-.21,1.11-.64,1.53c-.42.42-.93.64-1.53.64h-7.25c-.2,0-.3.1-.3.3v4.26c0,.17.1.26.3.26h5.3c.6,0,1.12.22,1.55.65s.65.95.65,1.55v10.91c0,.6-.21,1.11-.63,1.53-.42.42-.93.64-1.53.64h-.93c-.35,0-.64-.12-.88-.36s-.35-.53-.35-.88c0-.1-.05-.15-.15-.15h-11.17c-.12,0-.19.06-.19.19,0,.37-.14.7-.41.97-.28.27-.6.41-.97.41h-.67c-.55,0-1.03-.2-1.44-.6s-.62-.88-.62-1.46v-11.21c0-.6.22-1.11.65-1.55.44-.44.95-.65,1.55-.65h5.34c.17,0,.26-.09.26-.26v-4.26c0-.2-.09-.3-.26-.3h-7.73c-.6,0-1.11-.21-1.53-.64-.42-.42-.63-.93-.63-1.53s.21-1.11.63-1.53c.42-.42.93-.63,1.53-.63h7.73c.17,0,.26-.1.26-.3v-3.92c0-.17-.09-.25-.26-.22-1.52.22-3.24.44-5.16.63h-.22c-.47,0-.91-.14-1.31-.41-.47-.35-.81-.81-1.01-1.38-.05-.17-.08-.36-.08-.56,0-.27.08-.55.22-.82.25-.45.63-.7,1.16-.75,5.58-.65,10.15-1.53,13.71-2.65.37-.12.75-.19,1.12-.19.27,0,.55.04.82.11.67.15,1.23.46,1.68.93l.45.45c.27.27.41.59.41.93,0,.12-.01.25-.04.37-.12.5-.42.82-.9.97-1.77.57-3.77,1.07-6.01,1.49-.17.03-.26.14-.26.34v4.67c0,.2.1.3.3.3h7.25c.6,0,1.11.21,1.53.63ZM273.77,58.07c.17,0,.26-.1.26-.3v-5.08c0-.17-.09-.26-.26-.26h-10.95c-.2,0-.3.09-.3.26v5.08c0,.2.1.3.3.3h10.95Z" style="fill: #1d7068;"/>
          <path d="M291.68,60.95c-1,0-1.83-.35-2.49-1.05-.66-.7-.99-1.57-.99-2.62s.33-1.92.99-2.62c.66-.7,1.49-1.05,2.49-1.05s1.83.35,2.5,1.05c.67.7,1.01,1.57,1.01,2.62s-.34,1.92-1.01,2.62c-.67.7-1.51,1.05-2.5,1.05Z" style="fill: #1d7068;"/>
          <path d="M307.91,60.95c-1,0-1.82-.35-2.48-1.05-.66-.7-.99-1.57-.99-2.62s.33-1.92.99-2.62c.66-.7,1.49-1.05,2.48-1.05s1.83.35,2.5,1.05c.67.7,1.01,1.57,1.01,2.62s-.34,1.92-1.01,2.62c-.67.7-1.51,1.05-2.5,1.05Z" style="fill: #1d7068;"/>
          <path d="M324.14,60.95c-1,0-1.83-.35-2.48-1.05-.66-.7-.99-1.57-.99-2.62s.33-1.92.99-2.62c.66-.7,1.49-1.05,2.48-1.05s1.83.35,2.5,1.05c.67.7,1.01,1.57,1.01,2.62s-.34,1.92-1.01,2.62c-.67.7-1.51,1.05-2.5,1.05Z" style="fill: #1d7068;"/>
        </g>
      </g>
      <g>
        <path d="M161.69,157.53c.18.18.27.4.27.66s-.09.48-.27.66-.4.27-.66.27h-4.89s-.06.01-.06.04,0,.05,0,.07c1.04,1.09,2.78,1.78,5.22,2.06.21.02.36.13.44.33.05.09.07.18.07.25,0,.12-.04.23-.11.33-.06.08-.11.16-.16.25-.16.27-.39.48-.67.63-.2.11-.41.16-.63.16-.07,0-.15,0-.23-.02-1.51-.26-2.76-.68-3.75-1.27s-1.8-1.4-2.43-2.43c-.01-.02-.03-.04-.06-.04s-.05.02-.06.05c-.47.88-1.2,1.61-2.19,2.21s-2.37,1.06-4.14,1.42c-.08.01-.16.02-.23.02-.2,0-.39-.05-.58-.16-.27-.15-.47-.36-.62-.63-.02-.04-.05-.08-.07-.12-.07-.14-.1-.28-.09-.42s.06-.27.16-.38.22-.18.37-.2c1.3-.21,2.34-.48,3.11-.81s1.37-.73,1.79-1.21c.01-.02.01-.05,0-.07s-.03-.04-.05-.04h-4.62c-.26,0-.48-.09-.66-.27s-.27-.4-.27-.66.09-.48.27-.66.4-.27.66-.27h5.45c.09,0,.15-.04.16-.12.05-.22.09-.5.14-.84.01-.08-.02-.12-.11-.12h-5.5c-.27,0-.5-.09-.69-.28s-.28-.41-.28-.68.09-.49.28-.68.42-.28.69-.28h5.78c.08,0,.12-.05.12-.14v-.65c0-.08-.04-.12-.12-.12h-4.29c-.26,0-.47-.09-.65-.26s-.26-.39-.26-.64.09-.47.26-.64.39-.26.65-.26h4.29c.08,0,.12-.04.12-.12v-.65c0-.09-.04-.14-.12-.14h-5.08c-.26,0-.48-.09-.67-.27s-.28-.4-.28-.67.09-.49.28-.67.41-.27.67-.27h2.04s.06-.01.07-.04.01-.06,0-.08c-.08-.19-.18-.37-.3-.54-.08-.14-.12-.29-.12-.44,0-.08.01-.17.04-.26.07-.25.22-.41.46-.49.16-.07.33-.11.51-.11.12,0,.24.01.37.04.29.08.53.25.7.49.21.3.39.6.53.88.05.11.05.21,0,.32s-.11.18-.2.21c-.01.01-.01.02,0,.04h4.36v-.02c-.12-.04-.19-.11-.23-.21s-.02-.21.04-.3c.18-.26.34-.53.49-.81.15-.26.36-.45.63-.58.18-.08.36-.12.54-.12.09,0,.19.01.3.04l.3.07c.23.06.4.21.49.44.04.09.05.18.05.26,0,.14-.05.27-.14.39-.18.23-.36.48-.54.74-.02.02-.03.05-.02.07s.04.04.07.04h2.25c.26,0,.48.09.67.27s.28.4.28.67-.09.49-.28.67-.41.27-.67.27h-5.15c-.09,0-.14.05-.14.14v.65c0,.08.05.12.14.12h4.48c.25,0,.46.09.63.26s.26.39.26.64-.09.47-.26.64-.39.26-.63.26h-4.48c-.09,0-.14.04-.14.12v.65c0,.09.05.14.14.14h5.85c.27,0,.5.09.69.28s.28.41.28.68-.09.49-.28.68-.42.28-.69.28h-6.06c-.09,0-.15.04-.16.12-.02.28-.06.56-.12.84-.01.08.02.12.11.12h6.47c.26,0,.48.09.66.27Z" style="fill: #4b4c4e;"/>
        <path d="M169.49,150.1c.67,0,1.1.02,1.3.05.18.02.32.11.44.25s.17.31.16.5c-.22,2.91-.7,5.3-1.42,7.17-.04.08-.02.15.05.21.45.36.83.7,1.14,1.02.23.22.35.5.35.83,0,.29-.09.55-.26.77l-.05.07c-.15.2-.36.3-.62.32h-.04c-.25,0-.46-.09-.63-.28-.23-.25-.51-.52-.83-.83-.07-.06-.13-.05-.18.02-.66,1.02-1.44,1.89-2.36,2.6-.16.12-.34.18-.53.18-.07,0-.14,0-.21-.02-.28-.06-.5-.21-.67-.44-.01-.02-.02-.04-.04-.05-.13-.16-.19-.35-.19-.54,0-.06,0-.11.02-.16.04-.26.16-.47.37-.63.76-.57,1.42-1.34,1.99-2.29.05-.07.04-.13-.04-.19-.19-.15-.46-.36-.81-.62-.04-.02-.06-.01-.07.04-.04.12-.11.2-.23.25s-.23.05-.35,0l-.42-.21c-.26-.14-.45-.34-.56-.6-.07-.16-.11-.33-.11-.51,0-.11.01-.21.04-.32.3-1.21.64-2.71,1-4.5.02-.08-.01-.12-.11-.12h-.28c-.27,0-.5-.1-.7-.29s-.29-.42-.29-.69.1-.5.29-.69.43-.29.7-.29h.67c.08,0,.13-.04.16-.12.16-.91.3-1.73.42-2.44.05-.27.18-.49.4-.67.2-.15.42-.23.67-.23h.09c.28.02.5.14.67.35.13.18.19.36.19.56,0,.05,0,.11-.02.18-.13.7-.28,1.45-.44,2.25-.01.08.03.12.12.12h1.2ZM169.28,152.21c.01-.09-.03-.14-.12-.14h-1.28c-.09,0-.15.04-.16.12-.2,1-.47,2.23-.81,3.69-.02.08,0,.15.09.19.57.39.94.64,1.11.76.07.06.12.04.16-.05.46-1.25.8-2.78,1.02-4.57ZM180.07,153.65c.28,0,.52.1.71.3s.29.44.29.71-.1.51-.29.71-.43.3-.71.3h-2.83c-.08,0-.12.04-.12.12v5.15c0,.56-.06.99-.19,1.29s-.36.53-.7.69c-.47.21-1.12.33-1.97.37-.02.01-.04.02-.05.02-.28,0-.53-.09-.76-.26-.25-.19-.42-.43-.53-.74-.02-.05-.04-.1-.05-.16-.04-.08-.05-.17-.05-.26,0-.12.04-.24.11-.37.13-.19.31-.28.54-.28h.02c.3.01.56.02.76.02.16,0,.29,0,.37-.02.15,0,.25-.02.31-.06s.08-.13.08-.25v-5.13c0-.08-.04-.12-.12-.12h-2.67c-.27,0-.5-.1-.7-.3s-.3-.44-.3-.71.1-.51.3-.71.43-.3.7-.3h2.67c.08,0,.12-.04.12-.12v-1.37c0-.16.06-.3.18-.42s.26-.18.42-.18c.05,0,.09-.02.12-.05.56-.59,1.1-1.25,1.6-1.99.01-.02.01-.05,0-.07s-.03-.04-.05-.04h-4.48c-.27,0-.5-.1-.7-.29s-.29-.43-.29-.7.1-.51.29-.7.43-.29.7-.29h5.99s.07,0,.11-.02c.08-.02.16-.04.23-.04.18,0,.33.05.47.16l.39.3c.2.15.32.35.35.58.01.06.02.11.02.16,0,.19-.06.36-.18.51-1,1.38-1.98,2.54-2.95,3.46-.06.06-.09.13-.09.21v.77c0,.08.04.12.12.12h2.83Z" style="fill: #4b4c4e;"/>
        <path d="M192.96,159.28c-.08,0-.12.04-.12.12v1.48c0,.09.04.15.12.16.43.02.87.04,1.32.04,2.09,0,3.65,0,4.69-.02h.02c.22,0,.4.09.53.28.08.12.12.25.12.39,0,.08-.02.16-.05.25l-.04.11c-.09.29-.26.53-.49.72s-.5.28-.81.28h-4.1c-1.75,0-3.16-.17-4.25-.52s-1.99-.99-2.69-1.94c-.02-.02-.05-.03-.08-.03s-.06.02-.08.04c-.46.82-1,1.52-1.63,2.09-.2.18-.42.26-.67.26-.04,0-.07,0-.11-.02-.28-.02-.53-.14-.76-.35-.04-.02-.06-.05-.09-.09-.19-.16-.28-.37-.28-.62s.1-.47.3-.65c1.09-.94,1.85-2.21,2.29-3.83.08-.28.24-.5.47-.67.19-.13.39-.19.62-.19.05,0,.1,0,.16.02h.11c.27.05.49.19.65.42.11.15.16.32.16.51,0,.07-.01.15-.04.25-.04.14-.08.3-.14.49-.02.09-.01.18.04.25.49,1.02,1.29,1.72,2.41,2.09.02.01.05,0,.08,0s.04-.04.04-.08v-4.31c0-.09-.05-.14-.14-.14h-5.94c-.26,0-.48-.09-.67-.27s-.28-.4-.28-.67.09-.49.28-.67.41-.27.67-.27h13.99c.26,0,.48.09.67.27s.28.4.28.67-.09.49-.28.67-.41.27-.67.27h-5.61c-.08,0-.12.05-.12.14v1.09c0,.08.04.12.12.12h4.48c.26,0,.48.09.66.27s.27.4.27.66-.09.48-.27.66-.4.27-.66.27h-4.48ZM196.76,147.13c.29,0,.54.1.74.31s.3.45.3.73v4.18c0,.28-.1.52-.3.73s-.45.31-.74.31h-10.42c-.29,0-.54-.1-.74-.31s-.3-.45-.3-.73v-4.18c0-.28.1-.52.3-.73s.45-.31.74-.31h10.42ZM195.49,149.56c.08,0,.12-.05.12-.14v-.65c0-.09-.04-.14-.12-.14h-7.98c-.09,0-.14.05-.14.14v.65c0,.09.05.14.14.14h7.98ZM195.49,151.9c.08,0,.12-.05.12-.14v-.67c0-.08-.04-.12-.12-.12h-7.98c-.09,0-.14.04-.14.12v.67c0,.09.05.14.14.14h7.98Z" style="fill: #4b4c4e;"/>
        <path d="M217.7,154.95c.22.19.33.43.33.74,0,.26-.09.49-.28.69l-.04.02c-.2.2-.44.3-.72.3s-.53-.1-.74-.3c-.4-.35-.9-.77-1.49-1.27-.06-.06-.11-.05-.16.02-.15.25-.3.47-.46.67-.18.22-.42.35-.72.39h-.12c-.25,0-.47-.07-.69-.21-.15-.09-.3-.18-.44-.26-.01,0-.02,0-.04.02s-.01.02,0,.04c.7.91,1.56,1.77,2.58,2.56s2.1,1.44,3.25,1.96c.22.11.36.28.4.51.01.06.02.12.02.18,0,.16-.06.32-.18.46-.09.12-.19.24-.28.37-.19.23-.42.39-.7.47-.11.02-.21.04-.3.04-.18,0-.35-.05-.51-.14-1.79-.98-3.4-2.31-4.83-3.97-.01-.02-.03-.03-.05-.02s-.04.03-.04.05v4.06c0,.29-.1.54-.3.74s-.45.3-.74.3h-.18c-.28,0-.52-.1-.73-.3s-.31-.45-.31-.74v-3.96s0-.04-.03-.05-.03,0-.04.02c-1.41,1.61-3,2.9-4.78,3.88-.18.08-.35.12-.53.12-.09,0-.19-.01-.3-.04-.28-.07-.52-.22-.7-.46l-.21-.25c-.12-.14-.18-.3-.18-.47,0-.06,0-.12.02-.18.06-.25.2-.42.42-.53,1.27-.6,2.45-1.36,3.56-2.29s2.01-1.92,2.7-2.99c.05-.07.07-.15.07-.25v-3.88c0-.09-.04-.14-.12-.14h-5.38c-.29,0-.54-.1-.74-.3s-.3-.45-.3-.74v-.02c0-.29.1-.54.3-.74s.45-.3.74-.3h5.38c.08,0,.12-.05.12-.14v-1.04c0-.29.1-.54.31-.74s.45-.3.73-.3h.18c.29,0,.54.1.74.3s.3.45.3.74v1.04c0,.09.05.14.14.14h5.61c.29,0,.54.1.74.3s.3.45.3.74v.02c0,.29-.1.54-.3.74s-.45.3-.74.3h-5.61c-.09,0-.14.05-.14.14v3.76c0,.09.02.18.07.25.02.02.05.06.08.1s.05.07.06.1c.05.07.1.08.16.02.84-.79,1.48-1.86,1.92-3.23.08-.28.25-.5.49-.67.19-.12.38-.18.58-.18.07,0,.14,0,.21.02l.05.02c.27.05.48.19.63.42.09.15.14.31.14.47,0,.09-.01.19-.04.28-.08.27-.18.54-.28.81-.02.08,0,.15.07.19.95.74,1.63,1.27,2.04,1.6ZM205.36,151.97c.09-.27.26-.49.51-.65.18-.12.36-.18.56-.18.07,0,.15.01.23.04h.04c.28.06.49.21.63.44.09.15.14.3.14.46,0,.09-.02.19-.05.3-.09.28-.19.56-.3.83-.02.08,0,.15.05.21.38.32.67.57.9.77s.33.45.33.74-.1.52-.3.72c-.19.2-.42.3-.69.3h-.02c-.28-.01-.52-.12-.72-.32l-.4-.4c-.07-.06-.13-.05-.18.04-.39.62-.8,1.17-1.25,1.63-.2.2-.43.3-.7.3h-.04c-.28,0-.54-.1-.77-.3-.02-.01-.05-.03-.07-.05-.2-.18-.3-.39-.3-.65s.09-.47.26-.65c.94-.93,1.65-2.12,2.13-3.57Z" style="fill: #4b4c4e;"/>
        <path d="M229.86,148.33s0,.06,0,.09.04.04.08.04h4.99c.28,0,.53.1.73.31s.31.45.31.73v12.38c0,.28-.1.52-.31.73s-.45.31-.73.31h-.47c-.21,0-.39-.08-.54-.23s-.23-.33-.23-.54c0-.07-.04-.11-.11-.11h-8.35c-.07,0-.11.04-.11.11,0,.21-.08.4-.24.55s-.34.24-.55.24h-.35c-.28,0-.52-.1-.73-.31s-.31-.45-.31-.73v-12.39c0-.28.1-.52.31-.73s.45-.31.73-.31h3.46c.08,0,.13-.04.16-.12.11-.45.19-.85.26-1.21.06-.28.21-.51.44-.69.19-.15.4-.23.65-.23h.12l.53.07c.27.02.47.15.6.37.08.13.12.26.12.4,0,.09-.02.19-.07.3-.12.3-.25.63-.4.98ZM233.69,150.63c0-.08-.04-.12-.12-.12h-8.3c-.09,0-.14.04-.14.12v1.58c0,.09.05.14.14.14h8.3c.08,0,.12-.05.12-.14v-1.58ZM233.69,154.46c0-.08-.04-.12-.12-.12h-8.3c-.09,0-.14.04-.14.12v1.58c0,.09.05.14.14.14h8.3c.08,0,.12-.05.12-.14v-1.58ZM225.13,159.91c0,.08.05.12.14.12h8.3c.08,0,.12-.04.12-.12v-1.62c0-.08-.04-.12-.12-.12h-8.3c-.09,0-.14.04-.14.12v1.62Z" style="fill: #4b4c4e;"/>
        <path d="M243.75,153.04c0,.09.05.14.14.14h2.25c.28,0,.52.1.72.3.19.2.28.43.28.7,0,1.17-.04,2.7-.11,4.57-.04,1.01-.09,1.83-.18,2.46s-.2,1.06-.35,1.28c-.32.41-.72.66-1.21.76-.22.05-.53.07-.91.07h-.02c-.27,0-.51-.09-.72-.28-.22-.19-.38-.43-.46-.72-.02-.07-.04-.14-.04-.21,0-.14.05-.28.14-.4.13-.19.3-.28.53-.28h.02c.08.01.2.02.35.02h.05c.2,0,.35-.09.46-.28.22-.33.37-2.3.44-5.91,0-.09-.05-.14-.14-.14h-1.21c-.08,0-.13.05-.14.14-.21,3.26-.84,5.72-1.9,7.38-.14.21-.33.32-.58.32s-.48-.1-.67-.3c-.02-.04-.05-.07-.09-.11-.2-.21-.32-.46-.35-.74-.01-.06-.02-.12-.02-.18,0-.22.06-.43.18-.62.61-1.07,1.01-2.34,1.2-3.83s.3-3.43.31-5.82c0-.08-.04-.12-.12-.12h-.63c-.27,0-.5-.1-.69-.29s-.29-.43-.29-.7.1-.51.29-.7.42-.29.69-.29h1.69c.09,0,.14-.04.14-.12v-1.55c0-.29.1-.54.3-.74s.45-.3.74-.3h.05c.28,0,.52.1.73.3s.31.45.31.74v1.55c0,.08.04.12.12.12h1.74c.27,0,.5.1.69.29s.29.43.29.7-.1.51-.29.7-.42.29-.69.29h-2.85c-.09,0-.14.04-.14.12-.02.7-.04,1.26-.05,1.67ZM250.38,147.47c.11-.29.28-.53.53-.71s.52-.27.83-.27h.02c.3,0,.59.09.84.26s.45.41.56.7c.81,1.98,1.75,3.47,2.83,4.46.22.2.36.44.42.72.02.09.04.19.04.28,0,.19-.04.36-.12.53l-.14.32c-.11.25-.29.4-.54.46-.06.02-.12.04-.19.04-.16,0-.32-.06-.46-.19-.67-.64-1.27-1.41-1.81-2.29s-.98-1.78-1.32-2.7c0-.02-.01-.04-.04-.04s-.04.01-.05.04c-.32.89-.74,1.79-1.28,2.69s-1.14,1.68-1.79,2.32c-.13.13-.28.19-.44.19-.07,0-.13,0-.19-.02-.25-.07-.42-.22-.53-.46-.04-.06-.06-.12-.09-.18-.09-.19-.14-.38-.14-.58,0-.09,0-.18.02-.26.06-.28.19-.53.4-.76,1.08-1.1,1.96-2.62,2.65-4.55ZM249.15,160.02c-.23-.12-.39-.3-.46-.56-.01-.07-.02-.14-.02-.21,0-.19.06-.36.18-.51h.02c.19-.25.43-.4.72-.47.11-.04.21-.05.32-.05.18,0,.35.04.53.12,1.78.84,3.23,1.68,4.36,2.5.23.16.37.39.4.69v.14c0,.23-.08.45-.23.65l-.16.21c-.18.22-.4.35-.67.37h-.12c-.23,0-.45-.07-.63-.21-1.14-.89-2.55-1.78-4.24-2.65ZM253.61,155.22c.21.19.32.42.32.7s-.11.55-.33.77l-.05.05c-.19.18-.4.26-.65.26h-.05c-.27-.01-.5-.12-.7-.33-.46-.47-.99-.94-1.6-1.42-.22-.16-.33-.39-.33-.67,0-.22.08-.42.25-.58.21-.2.46-.31.74-.33h.11c.25,0,.47.07.67.21.62.45,1.17.89,1.65,1.34Z" style="fill: #4b4c4e;"/>
        <path d="M260.95,148.24c0-.28.1-.52.31-.73s.45-.31.73-.31h10.42c.28,0,.52.1.73.31s.31.45.31.73v13.41c0,.28-.1.52-.31.73s-.45.31-.73.31h-.25c-.28,0-.52-.1-.72-.3s-.3-.44-.3-.72c0-.08-.04-.12-.12-.12h-7.73c-.08,0-.12.04-.12.12,0,.29-.1.54-.31.75s-.45.31-.73.31h-.14c-.28,0-.53-.1-.73-.31s-.31-.45-.31-.73v-13.45ZM271.14,149.5c0-.09-.04-.14-.12-.14h-7.73c-.08,0-.12.05-.12.14v3.59c0,.09.04.14.12.14h7.73c.08,0,.12-.05.12-.14v-3.59ZM263.16,159.24c0,.09.04.14.12.14h7.73c.08,0,.12-.05.12-.14v-3.76c0-.08-.04-.12-.12-.12h-7.73c-.08,0-.12.04-.12.12v3.76Z" style="fill: #4b4c4e;"/>
        <path d="M291.19,148.89s-.01.03,0,.05.02.04.04.04h1.56c.29,0,.54.1.74.3s.3.45.3.74v2.27c0,.28-.1.52-.3.73s-.45.31-.74.31h-.05c-.29,0-.54-.1-.74-.31s-.3-.45-.3-.73v-1.32c0-.09-.05-.14-.14-.14h-11c-.09,0-.14.05-.14.14v1.32c0,.29-.1.54-.3.74s-.44.3-.72.3-.52-.1-.72-.3-.3-.45-.3-.74v-2.27c0-.29.1-.54.3-.74s.45-.3.74-.3h1.25s.06-.01.08-.04.01-.05,0-.09c-.11-.2-.22-.4-.33-.6-.09-.14-.14-.29-.14-.46,0-.08.01-.16.04-.25.07-.26.22-.43.46-.53l.04-.02c.16-.07.34-.11.53-.11.12,0,.23.01.35.04.3.08.54.25.72.49.07.11.14.21.21.3.08.13.12.27.12.42,0,.08-.02.17-.05.26-.08.23-.24.4-.47.51-.01,0-.01,0,0,.03s.01.03.03.03h2.6c.09,0,.14-.05.14-.14v-1.28c0-.29.1-.54.3-.74s.45-.3.74-.3h.12c.29,0,.54.1.74.3s.3.45.3.74v1.28c0,.09.05.14.14.14h2.57s.02,0,.03-.02,0-.02,0-.02c-.22-.08-.37-.23-.44-.46-.01-.08-.02-.16-.02-.23,0-.14.04-.28.12-.4.07-.09.14-.19.21-.3.16-.26.39-.45.67-.56.16-.06.32-.09.47-.09.13,0,.25.02.37.05l.32.09c.23.07.39.22.46.46.02.07.04.14.04.21,0,.15-.06.29-.18.42-.25.27-.48.52-.7.76ZM291.75,156.92c.28,0,.52.1.73.3s.31.45.31.74v2.64c0,.52-.06.91-.19,1.19s-.37.5-.72.66c-.41.18-1.05.28-1.93.3h-.04c-.28,0-.54-.09-.77-.26-.23-.19-.4-.43-.51-.72-.02-.09-.04-.18-.04-.25,0-.14.04-.27.12-.39.13-.2.3-.3.53-.3h.02c.29.01.62.02.98.02.13,0,.22-.02.27-.06s.08-.11.08-.22v-1.6c0-.09-.04-.14-.12-.14h-2.99c-.08,0-.12.05-.12.14v3.36c0,.29-.1.54-.31.74s-.45.3-.73.3h-.14c-.29,0-.54-.1-.74-.3s-.3-.45-.3-.74v-3.36c0-.09-.05-.14-.14-.14h-3.11c-.09,0-.14.05-.14.14v2.55c0,.28-.1.52-.3.73s-.45.31-.74.31h-.11c-.28,0-.52-.1-.73-.31s-.31-.45-.31-.73v-3.55c0-.29.1-.54.31-.74s.45-.3.73-.3h4.39c.09,0,.14-.05.14-.14v-.81c0-.09-.05-.14-.14-.14h-2.67c-.29,0-.54-.1-.74-.3s-.3-.45-.3-.74v-2.06c0-.29.1-.54.3-.74s.45-.3.74-.3h7.49c.29,0,.54.1.74.3s.3.45.3.74v2.06c0,.29-.1.54-.3.74s-.45.3-.74.3h-2.34c-.08,0-.12.05-.12.14v.81c0,.09.04.14.12.14h4.27ZM283.47,153.21c-.09,0-.14.04-.14.12v.86c0,.08.05.12.14.12h5.08c.09,0,.14-.04.14-.12v-.86c0-.08-.05-.12-.14-.12h-5.08Z" style="fill: #4b4c4e;"/>
        <path d="M307.87,149.17s0,.06.02.09.05.04.07.04h3.92c.28,0,.52.11.72.32.2.19.3.42.3.69,0,2.89-.14,5.8-.42,8.72-.15,1.62-.4,2.65-.76,3.11-.23.32-.48.54-.75.69s-.59.25-.98.32c-.34.05-.81.07-1.41.07-.12,0-.25,0-.39-.02-.29,0-.55-.1-.77-.3s-.38-.45-.47-.74c-.01-.05-.03-.09-.05-.14-.02-.08-.04-.16-.04-.23,0-.13.04-.25.11-.37.12-.18.28-.26.49-.26h.04c.48.02,1.03.04,1.65.04.32,0,.58-.1.79-.3.25-.28.44-1.14.58-2.57s.26-3.74.37-6.94c0-.08-.05-.12-.14-.12h-3.59c-.08,0-.14.04-.18.12-.29.66-.62,1.28-.97,1.86-.14.23-.35.37-.63.4-.06.01-.12.02-.18.02-.21,0-.4-.06-.58-.19-.13-.09-.28-.19-.46-.3-.02-.02-.05-.03-.07,0s-.04.04-.04.06v7.24c0,.28-.1.52-.31.73s-.45.31-.73.31h-3.64c-.09,0-.14.04-.14.12v.21c0,.27-.09.5-.28.69s-.42.28-.69.28-.5-.09-.69-.28-.28-.42-.28-.69v-11.36c0-.29.1-.54.3-.74s.45-.3.74-.3h.86c.09,0,.15-.05.16-.14.15-.56.28-1.14.37-1.74.05-.28.18-.51.4-.69.18-.14.38-.21.6-.21.05,0,.1,0,.16.02l.28.04c.27.04.47.17.62.4.08.14.12.28.12.42,0,.09-.02.19-.05.3-.19.54-.37,1.03-.54,1.48-.01.02,0,.05,0,.08s.04.04.08.04h1.62c.28,0,.52.1.73.3s.31.45.31.74v1.74s0,.04.03.04.03,0,.04-.03c.83-1.23,1.53-2.79,2.09-4.68.08-.28.25-.5.49-.65.16-.11.34-.16.53-.16.08,0,.17.01.26.04.28.07.5.22.65.46.09.16.14.33.14.49,0,.09-.02.19-.05.28-.09.34-.22.73-.39,1.16ZM302,154.22c.08,0,.12-.05.12-.14v-2.64c0-.09-.04-.14-.12-.14h-2.6c-.09,0-.14.05-.14.14v2.64c0,.09.05.14.14.14h2.6ZM299.26,159.47c0,.08.05.12.14.12h2.6c.08,0,.12-.04.12-.12v-3.27c0-.09-.04-.14-.12-.14h-2.6c-.09,0-.14.05-.14.14v3.27ZM309.4,156.61c.11.18.16.35.16.53,0,.09-.01.18-.04.26-.07.28-.23.5-.49.65l-.05.04c-.15.09-.31.14-.47.14-.09,0-.19-.01-.28-.04-.26-.08-.46-.25-.6-.49-.39-.68-.88-1.49-1.49-2.43-.09-.15-.14-.32-.14-.49,0-.07,0-.14.02-.21.06-.26.2-.45.42-.58.18-.09.35-.14.53-.14.08,0,.16,0,.25.02.26.06.47.2.63.42.64.91,1.17,1.69,1.56,2.32Z" style="fill: #4b4c4e;"/>
        <path d="M331.27,158.36c.18.15.26.33.26.54,0,.29-.12.52-.37.69-.2.12-.41.18-.63.18h-.16c-.28-.04-.53-.15-.74-.35h-.02c-.06-.06-.13-.09-.23-.09-.49.01-1.23.03-2.21.06s-1.71.05-2.18.06c-.09,0-.14.04-.14.12v2.72c0,.29-.1.54-.3.74s-.45.3-.74.3h-.02c-.29,0-.54-.1-.74-.3s-.3-.45-.3-.74v-2.67c0-.08-.05-.12-.14-.12-.35.01-2.25.05-5.7.11h-.02c-.23,0-.43-.08-.6-.23-.18-.18-.26-.39-.26-.63,0-.21.08-.4.23-.56.16-.16.36-.25.6-.25.45-.01,1.28-.02,2.5-.04.08,0,.16-.02.25-.05.18-.08.4-.19.69-.33.02-.02.04-.05.04-.08s0-.05-.04-.06c-.64-.49-1.39-.98-2.23-1.46-.21-.13-.32-.32-.32-.56,0-.2.08-.36.25-.47.22-.18.48-.28.77-.3h.12c.23,0,.46.05.69.16.04.02.08.05.12.07.08.05.16.04.23-.02.4-.28.82-.62,1.27-1.02.01-.01.02-.03,0-.05s-.02-.04-.04-.04h-2.94c-.28,0-.52-.1-.73-.3s-.31-.45-.31-.74v-4.55c0-.28.1-.52.31-.73s.45-.31.73-.31h11.34c.28,0,.53.1.73.31s.31.45.31.73v4.55c0,.29-.1.54-.31.74s-.45.3-.73.3h-5.68v.02s.07.04.08.09,0,.08-.04.11c-.8.62-1.65,1.21-2.55,1.78-.02.01-.04.04-.04.07s.01.06.04.07c.35.23.62.42.81.54.07.05.14.05.21,0,1.1-.64,2.1-1.29,3.01-1.93.26-.19.54-.29.86-.32h.11c.27,0,.53.06.77.19l.02.02c.22.12.33.3.33.56,0,.22-.09.4-.28.53-1.27.82-2.67,1.62-4.2,2.39-.01.01-.01.03,0,.04s.01.03.03.03l4.43-.05s.04-.01.04-.04,0-.04,0-.05c-.15-.11-.3-.21-.46-.3-.18-.12-.26-.28-.26-.49s.09-.37.26-.47c.25-.15.51-.23.79-.23h.02c.27,0,.52.07.76.21,1.04.64,1.93,1.28,2.67,1.92ZM318.88,160.33c.38-.26.75-.39,1.12-.39.22,0,.44.05.65.14.22.08.36.24.4.47.01.05.02.09.02.12,0,.18-.08.33-.23.46-.77.6-1.66,1.15-2.67,1.67-.2.09-.4.14-.62.14-.08,0-.17,0-.26-.02-.29-.05-.56-.18-.79-.4-.01,0-.02,0-.04-.02-.13-.13-.19-.28-.19-.44v-.12c.04-.22.16-.38.37-.47.86-.35,1.6-.73,2.23-1.14ZM319.32,148.7c-.08,0-.12.04-.12.12v.67c0,.09.04.14.12.14h3.3c.09,0,.14-.05.14-.14v-.67c0-.08-.05-.12-.14-.12h-3.3ZM319.32,151.14c-.08,0-.12.04-.12.12v.69c0,.08.04.12.12.12h3.3c.09,0,.14-.04.14-.12v-.69c0-.08-.05-.12-.14-.12h-3.3ZM328.37,149.63c.08,0,.12-.05.12-.14v-.67c0-.08-.04-.12-.12-.12h-3.43c-.09,0-.14.04-.14.12v.67c0,.09.05.14.14.14h3.43ZM328.37,152.07c.08,0,.12-.04.12-.12v-.69c0-.08-.04-.12-.12-.12h-3.43c-.09,0-.14.04-.14.12v.69c0,.08.05.12.14.12h3.43ZM326.81,161.11c-.2-.12-.3-.29-.3-.53,0-.19.08-.34.25-.46.23-.16.5-.26.79-.28.05-.01.09-.02.12-.02.25,0,.48.06.7.18.96.5,1.81.98,2.55,1.44.21.14.32.34.32.6s-.1.44-.3.58c-.25.18-.52.26-.81.26h-.02c-.3-.01-.59-.1-.84-.26-.75-.52-1.57-1.02-2.46-1.51Z" style="fill: #4b4c4e;"/>
        <path d="M340.56,155.48c.22.23.33.52.33.86,0,.27-.08.52-.25.74-.13.18-.3.26-.51.26h-.05c-.25-.01-.43-.12-.54-.33-.12-.16-.25-.36-.39-.6-.01-.01-.03-.01-.04,0s-.03.01-.03.03v5.85c0,.29-.1.54-.3.74s-.45.3-.74.3h-.02c-.28,0-.52-.1-.73-.3s-.31-.45-.31-.74v-5.08s0-.02-.02-.03-.02,0-.04.03c-.39.89-.8,1.68-1.23,2.37-.11.16-.25.25-.42.25-.02,0-.05,0-.09-.02-.21-.02-.37-.13-.47-.33-.02-.06-.05-.12-.09-.18-.12-.23-.18-.49-.18-.76v-.12c.02-.32.12-.6.3-.84.77-1.12,1.45-2.47,2.04-4.03.01-.04,0-.06,0-.09s-.04-.04-.06-.04h-1.12c-.28,0-.52-.1-.71-.29s-.29-.43-.29-.71.1-.52.29-.71.43-.29.71-.29h1.27c.08,0,.12-.04.12-.12v-1.76c0-.08-.04-.12-.12-.11-.35.05-.7.09-1.04.14h-.14c-.19,0-.37-.05-.54-.16-.2-.14-.34-.33-.42-.58-.04-.08-.05-.16-.05-.25,0-.12.03-.23.09-.33.11-.2.27-.32.49-.35,1.35-.22,2.54-.5,3.57-.84.16-.05.33-.07.49-.07.13,0,.26.01.4.04.3.08.56.23.76.46l.05.09c.12.13.18.28.18.44,0,.07,0,.13-.02.19-.06.25-.21.4-.46.47-.32.11-.66.2-1.02.28-.08.02-.12.08-.12.16v2.18c0,.08.05.12.14.12h1.49s.04-.01.04-.04c0-.07.03-.13.08-.18s.12-.08.2-.08h3.66c.09,0,.14-.05.14-.14v-.35c0-.08-.05-.12-.14-.12h-2.43c-.18,0-.32-.06-.44-.18s-.18-.27-.18-.44.06-.32.18-.44.26-.18.44-.18h2.43c.09,0,.14-.04.14-.12v-.35c0-.08-.05-.12-.14-.12h-2.72c-.18,0-.33-.06-.46-.19s-.19-.28-.19-.47.06-.33.19-.46.28-.18.46-.18h2.78c.06,0,.09-.03.09-.09,0-.2.07-.37.21-.51s.31-.21.51-.21h.7c.2,0,.37.07.51.21s.21.31.21.51c0,.06.03.09.09.09h2.99c.18,0,.33.06.46.18s.19.28.19.46-.06.34-.19.47-.28.19-.46.19h-2.95c-.08,0-.12.04-.12.12v.35c0,.08.04.12.12.12h2.57c.16,0,.31.06.43.18s.18.27.18.44-.06.32-.18.44-.27.18-.43.18h-2.57c-.08,0-.12.04-.12.12v.35c0,.09.04.14.12.14h3.29c.19,0,.35.06.47.19s.19.28.19.47-.06.34-.19.47-.29.2-.47.2h-9.4c-.08,0-.12.04-.12.11,0,.23-.08.44-.25.61s-.37.25-.62.25h-.77c-.09,0-.14.04-.14.12v.32c0,.09.04.17.11.23.39.38.84.84,1.37,1.39ZM350.19,159.4c0,.29-.1.54-.31.74s-.45.3-.73.3h-.76s-.04,0-.04.03,0,.03.03.04c.82.49,1.51.91,2.07,1.27.19.12.28.29.28.51,0,.26-.11.45-.33.56l-.04.02c-.23.13-.48.19-.74.19-.05,0-.09,0-.14-.02-.32-.02-.6-.13-.86-.32-.4-.29-.83-.6-1.28-.91-.21-.14-.32-.34-.32-.6,0-.23.1-.42.3-.56l.16-.12s.03-.03.03-.05-.02-.04-.04-.04h-3.01s-.04,0-.04.03,0,.03,0,.04l.23.16c.22.14.33.34.33.6,0,.23-.11.42-.32.54-.79.48-1.65.91-2.58,1.28-.16.06-.32.09-.47.09-.12,0-.23-.01-.33-.04-.27-.07-.51-.21-.72-.42-.11-.11-.16-.23-.16-.39,0-.05,0-.09.02-.14.05-.2.17-.34.37-.42.97-.36,1.82-.79,2.55-1.27.01-.01.01-.03,0-.04s-.02-.03-.04-.03h-.39c-.29,0-.54-.1-.74-.3s-.3-.45-.3-.74v-5.31c0-.28.1-.52.3-.73s.45-.31.74-.31h6.24c.28,0,.52.1.73.31s.31.45.31.73v5.31ZM343.91,154.37c-.09,0-.14.05-.14.14v.49c0,.08.05.12.14.12h4.11c.08,0,.12-.04.12-.12v-.49c0-.09-.04-.14-.12-.14h-4.11ZM343.91,156.36c-.09,0-.14.04-.14.12v.51c0,.09.05.14.14.14h4.11c.08,0,.12-.05.12-.14v-.51c0-.08-.04-.12-.12-.12h-4.11ZM343.91,158.35c-.09,0-.14.05-.14.14v.49c0,.08.05.12.14.12h4.11c.08,0,.12-.04.12-.12v-.49c0-.09-.04-.14-.12-.14h-4.11Z" style="fill: #4b4c4e;"/>
        <path d="M368.95,157.36c.28,0,.52.1.71.29s.29.43.29.7-.1.51-.29.71-.43.3-.71.3h-3.76s-.02,0-.03.02,0,.02,0,.04c1.54.74,2.82,1.39,3.85,1.97.22.12.33.3.33.56,0,.23-.09.42-.28.54l-.4.28c-.26.18-.54.26-.86.26h-.02c-.3,0-.59-.08-.84-.25-1.04-.64-2.1-1.24-3.16-1.79-.22-.12-.35-.3-.37-.54-.01-.04-.02-.07-.02-.11,0-.2.08-.37.25-.51l.44-.39s.01-.04,0-.06-.02-.03-.04-.03h-5.13s-.04,0-.04.03,0,.03,0,.04l.65.47c.2.14.3.33.3.58s-.11.46-.33.6c-1.05.64-2.19,1.25-3.41,1.83-.2.09-.4.14-.6.14-.09,0-.19-.01-.28-.04-.3-.06-.57-.19-.81-.4-.04-.02-.08-.05-.12-.09-.14-.13-.21-.28-.21-.46,0-.04,0-.08.02-.12.04-.22.16-.38.37-.47,1.39-.62,2.61-1.3,3.64-2.04.02-.01.03-.03.03-.04s-.02-.03-.04-.03h-3.66c-.28,0-.52-.1-.71-.3s-.29-.44-.29-.71.1-.51.29-.7.43-.29.71-.29h.54c.08,0,.12-.04.12-.12l-.25-8.49c-.01-.26.08-.46.28-.62.14-.12.3-.18.47-.18.07,0,.14.01.21.04l.07.02c.08.02.16.01.25-.04.4-.22.79-.45,1.16-.69.22-.15.46-.23.72-.23h.11c.3.02.56.14.77.35l.53.49s.03.03.05.02.04-.03.04-.05v-.21c0-.26.09-.47.26-.65s.39-.26.64-.26.47.09.65.26.27.39.27.65v.54c0,.08.04.12.12.12h1.74c.25,0,.45.09.62.26s.26.39.26.63-.09.45-.26.62-.38.25-.62.25h-1.74c-.08,0-.12.05-.12.14v.95c0,.08.04.12.12.12h1.51c.29,0,.54.1.74.31s.3.45.3.73v4.89c0,.08.05.12.14.12h1.97c.08,0,.12-.04.12-.12.01-.28.04-.68.09-1.2,0-.09-.04-.14-.12-.14h-.7c-.25,0-.46-.08-.62-.25s-.25-.38-.25-.62.08-.45.25-.62.38-.25.62-.25h.77c.08,0,.13-.05.14-.14.01-.53.02-.95.04-1.27,0-.08-.04-.12-.12-.12h-.81c-.25,0-.46-.09-.62-.26s-.25-.38-.25-.62.08-.45.25-.62.38-.26.62-.26h.84c.08,0,.13-.04.14-.12v-1.16c0-.08-.04-.12-.12-.12h-1.04c-.25,0-.46-.09-.64-.27s-.27-.4-.27-.66.09-.48.27-.66.4-.27.64-.27h2.11c.29,0,.54.1.74.3s.3.44.3.72c0,3.05-.08,5.93-.25,8.65,0,.08.04.12.12.12h.6ZM357.08,155.89c-.08,0-.12.05-.12.14l.05,1.21c0,.08.04.12.12.12h2.2c.08,0,.12-.04.12-.12v-2.79c0-.23.08-.43.25-.6s.36-.25.6-.25.43.08.6.25.25.36.25.6v2.79c0,.08.05.12.14.12h.76c.09,0,.14-.04.14-.12v-4.11c0-.09-.05-.14-.14-.14h-1.51c-.28,0-.53-.1-.73-.3s-.31-.45-.31-.74v-3.45s-.01-.06-.04-.08-.05-.02-.09,0c-.88.42-1.7.79-2.46,1.09-.09.04-.13.09-.12.18l.02,1.04c.01.08.06.12.14.12h1.02c.25,0,.45.09.62.26s.26.38.26.62-.09.45-.26.62-.38.26-.62.26h-.97c-.08,0-.12.04-.12.12l.02,1.25c.01.09.06.14.14.14h.93c.25,0,.45.08.62.25s.26.38.26.62-.09.45-.26.62-.38.25-.62.25h-.88Z" style="fill: #4b4c4e;"/>
        <path d="M375.72,149.89c-.09,0-.14.05-.14.14v.91c0,2.75-.49,4.94-1.46,6.56-.13.22-.33.34-.62.35h-.07c-.23,0-.45-.08-.63-.25-.2-.18-.32-.4-.37-.67-.01-.06-.02-.12-.02-.19,0-.2.05-.39.14-.56.71-1.25,1.07-3.01,1.07-5.27v-1.67c0-.29.1-.54.3-.74s.45-.3.74-.3h6.47c.09,0,.13-.05.12-.14-.02-.33-.04-.53-.04-.6,0-.25.08-.46.25-.63.2-.2.43-.3.7-.3s.52.1.73.29.31.43.33.71c.02.19.04.36.05.53.01.09.06.14.14.14h1.65s.02,0,.03-.03,0-.03,0-.04c-.2-.09-.4-.19-.62-.3-.18-.07-.28-.2-.33-.39s0-.35.11-.49c.16-.19.36-.31.6-.37.09-.02.19-.04.3-.04.13,0,.26.02.39.07.42.16.8.34,1.12.53.18.09.28.24.32.44v.11c0,.16-.05.31-.16.44-.01.01-.01.03,0,.04s.02.03.04.03h.7c.23,0,.43.08.6.25s.25.36.25.6-.08.43-.25.6-.36.25-.6.25h-3.92c-.08,0-.12.04-.11.12.15.84.38,1.7.69,2.57,0,.02.01.04.04.04s.05,0,.06-.02c.26-.42.48-.86.67-1.3.12-.27.3-.47.56-.62.16-.09.34-.14.53-.14.08,0,.17.01.26.04.26.06.45.21.58.46.07.13.11.26.11.39,0,.12-.02.23-.07.33-.43,1.02-.98,1.98-1.63,2.88-.06.07-.06.14-.02.21.49.69.97,1.04,1.42,1.04.15,0,.27-.1.36-.29s.16-.5.2-.92c.02-.2.13-.34.31-.43s.36-.08.54.03c.25.15.44.35.58.58.09.18.14.36.14.54,0,.06,0,.12-.02.19-.16.87-.41,1.46-.75,1.77s-.82.47-1.47.47c-.95,0-1.83-.49-2.64-1.46-.06-.06-.12-.06-.18,0-.26.25-.51.47-.76.67-.2.15-.42.23-.65.23h-.12c-.29-.04-.54-.16-.76-.39-.12-.12-.23-.23-.35-.33-.01,0-.02,0-.02.02,0,.08-.03.15-.09.2s-.13.08-.21.08h-.72s-.04,0-.04.03,0,.03.03.04c.62.35,1.2.76,1.74,1.23.19.16.28.36.28.6,0,.28-.11.52-.32.7-.19.15-.4.23-.63.23h-.07c-.27-.02-.5-.12-.7-.3-.34-.32-.73-.63-1.16-.93-.22-.16-.33-.39-.33-.67,0-.22.09-.41.26-.56l.33-.28s.01-.03,0-.05-.02-.04-.04-.04h-2.39c-.28,0-.52-.1-.73-.3s-.31-.45-.31-.74v-1.81c0-.28.1-.52.31-.73s.45-.31.73-.31h3.02c.28,0,.52.1.73.31s.31.45.31.73v1.79s.01.04.04.05.05.01.07,0c.5-.34,1-.74,1.49-1.21.06-.07.07-.15.04-.23-.57-1.27-1-2.72-1.27-4.38-.02-.08-.08-.12-.16-.12h-5.66ZM374.66,162.25c-.2.22-.46.35-.77.37h-.09c-.28,0-.53-.08-.76-.23l-.04-.04c-.23-.15-.35-.38-.35-.69,0-.23.08-.43.25-.6.45-.52.81-1.11,1.11-1.78.11-.26.28-.45.53-.58.14-.06.29-.09.44-.09.11,0,.21.02.32.05.27.09.47.27.6.53.07.14.11.29.11.44,0,.11-.02.22-.05.33-.34.9-.77,1.66-1.28,2.27ZM380.61,150.72c.19,0,.35.07.48.2s.2.3.2.48-.07.35-.2.48-.3.2-.48.2h-3.92c-.19,0-.35-.07-.48-.2s-.2-.3-.2-.48.07-.35.2-.48.3-.2.48-.2h3.92ZM379.85,161.19h2.44c.26,0,.44-.04.55-.11s.19-.23.24-.47.18-.4.39-.51c.12-.07.23-.11.35-.11.09,0,.19.02.28.05.28.11.5.28.67.53.12.18.18.36.18.54,0,.08-.01.16-.04.23-.15.68-.41,1.14-.76,1.39s-.91.37-1.64.37h-2.88c-1.15,0-1.91-.17-2.29-.51s-.57-.98-.57-1.92v-1.3c0-.28.1-.52.3-.73s.45-.31.74-.31h.05c.28,0,.52.1.73.31s.31.45.31.73v1.28c0,.23.06.38.17.44s.38.09.8.09ZM379.29,155.46c.08,0,.12-.05.12-.14v-.86c0-.09-.04-.14-.12-.14h-1.37c-.09,0-.14.05-.14.14v.86c0,.09.05.14.14.14h1.37ZM385,159.7c-.14-.15-.21-.32-.21-.51,0-.05,0-.09.02-.14.04-.25.16-.42.39-.53.2-.11.41-.16.63-.16.08,0,.16,0,.23.02.3.05.56.18.76.39.69.73,1.25,1.44,1.69,2.13.09.15.14.31.14.47,0,.09-.02.19-.05.3-.09.27-.28.47-.54.6l-.09.05c-.14.07-.28.11-.42.11-.12,0-.23-.02-.33-.07-.27-.09-.47-.26-.62-.51-.41-.7-.94-1.42-1.58-2.14Z" style="fill: #4b4c4e;"/>
        <path d="M393.76,153.53c-.09,0-.14.05-.14.14v.91c0,.27-.1.5-.29.7s-.43.3-.7.3-.51-.1-.7-.3-.29-.43-.29-.7v-1.86c0-.29.1-.54.3-.74s.45-.3.74-.3h1.39s.06-.01.09-.04.03-.06.02-.08c-.09-.25-.21-.52-.33-.81-.06-.13-.09-.26-.09-.39,0-.12.02-.23.07-.35.11-.25.29-.4.54-.47l.47-.14s0-.02-.02-.02c-.53.04-1.06.06-1.6.07h-.04c-.25,0-.47-.08-.67-.25s-.34-.38-.42-.65c-.02-.07-.04-.14-.04-.21,0-.15.05-.29.14-.42.13-.19.3-.29.53-.3,4.65-.19,8.47-.52,11.46-1,.11-.02.21-.04.32-.04.21,0,.42.04.62.12.3.11.56.28.76.53l.12.14c.09.11.14.23.14.37,0,.07-.01.14-.04.21-.08.22-.24.35-.47.39-1.61.26-3.44.48-5.5.67-.04.01-.06.03-.07.05s-.01.05,0,.09c.19.38.35.77.49,1.2.04.11.05.21.05.3,0,.16-.05.32-.14.47-.15.25-.38.4-.67.47l-.19.05s0,.04.02.04h2.87c.08,0,.15-.04.19-.12.26-.53.5-1.07.74-1.62.12-.27.3-.47.56-.62.18-.09.36-.14.54-.14.08,0,.17.01.26.04l.26.05c.26.06.44.21.54.44.05.11.07.21.07.32,0,.13-.04.26-.12.39-.13.22-.36.6-.7,1.14-.01.02-.01.05,0,.08s.04.04.07.04h1.37c.29,0,.54.1.74.3s.3.45.3.74v1.83c0,.28-.1.52-.3.73s-.45.31-.74.31-.54-.1-.74-.31-.3-.45-.3-.73v-.88c0-.09-.05-.14-.14-.14h-11.34ZM403.36,154.9c.07-.01.13-.02.19-.02.16,0,.32.04.46.12l.42.26c.2.13.33.3.4.53.02.08.04.16.04.25,0,.14-.04.28-.11.42-.73,1.31-1.72,2.43-2.97,3.36-.02.02-.03.05-.03.07s.02.04.04.05c1.43.49,3.03.85,4.8,1.07.22.02.38.14.47.35.04.08.05.16.05.25,0,.12-.04.23-.12.33-.06.09-.12.18-.18.26-.16.27-.39.48-.67.63-.21.11-.42.16-.63.16-.08,0-.16,0-.23-.02-2.2-.35-4.11-.91-5.73-1.69-.08-.05-.16-.05-.25-.02-1.64.77-3.59,1.35-5.85,1.72-.07.01-.15.02-.23.02-.21,0-.42-.05-.63-.16-.27-.14-.49-.35-.67-.62l-.11-.18c-.07-.12-.11-.24-.11-.37,0-.14.05-.26.14-.37s.21-.17.35-.19c1.9-.25,3.55-.63,4.96-1.14.02-.01.04-.03.04-.05s0-.05-.03-.07c-.89-.64-1.69-1.41-2.39-2.29-.09-.12-.12-.25-.08-.39s.13-.24.25-.3c.01,0,.01-.01,0-.04h-.02c-.21,0-.39-.07-.54-.22s-.22-.32-.22-.52v-.23c0-.27.1-.5.29-.69s.42-.29.69-.29h8.07s.05,0,.09-.02ZM398.45,150.42c-.04-.11-.05-.21-.05-.32,0-.15.04-.3.11-.44.13-.25.33-.4.6-.46l.63-.14s.02,0,.02,0,0,0-.02,0c-1.39.13-2.84.23-4.34.3-.04,0-.06.01-.07.04s-.01.06,0,.08c.23.39.44.77.62,1.14.05.09.07.19.07.3s-.02.21-.07.32c-.11.21-.27.35-.49.42-.01,0-.02,0-.02.02s0,.02.02.02h3.2c.08,0,.12-.05.11-.14-.07-.34-.17-.71-.3-1.12ZM401.84,156.98s.01-.03,0-.06-.03-.04-.05-.04h-4.92s-.04.01-.05.04-.01.05,0,.07c.68.71,1.52,1.36,2.53,1.93.08.04.16.03.23-.02.94-.57,1.69-1.21,2.27-1.92Z" style="fill: #4b4c4e;"/>
        <path d="M411.77,156.89c1.4-.45,2.21-1.22,2.32-2.18-.05.02-.13.02-.2.02-.9,0-1.71-.58-1.71-1.6s.81-1.62,1.77-1.62c1.28,0,1.94.95,1.94,2.47,0,2.04-1.31,3.71-3.55,4.36l-.58-1.44Z" style="fill: #4b4c4e;"/>
      </g>
      <g>
        <path d="M155.99,209.33c-1.1,1.25-2.53,1.88-4.32,1.88s-3.22-.63-4.32-1.88-1.64-2.95-1.64-5.08.54-3.81,1.63-5.03,2.53-1.83,4.32-1.83,3.23.61,4.32,1.83,1.63,2.89,1.63,5.03-.55,3.83-1.64,5.08ZM149.32,207.65c.59.84,1.37,1.27,2.36,1.27s1.78-.42,2.36-1.27.88-1.97.88-3.39-.29-2.53-.88-3.35-1.38-1.22-2.37-1.22-1.78.41-2.36,1.22-.87,1.93-.87,3.35.29,2.55.88,3.39Z" style="fill: #4b4c4e;"/>
        <path d="M166.97,210.86c-.58.24-1.19.36-1.83.36s-1.25-.12-1.83-.36-1.09-.58-1.54-1.02-.8-1-1.07-1.67-.4-1.42-.4-2.22.13-1.55.4-2.23.63-1.24,1.07-1.69.96-.79,1.54-1.03,1.19-.36,1.83-.36,1.25.12,1.83.36,1.09.58,1.54,1.03.8,1.01,1.07,1.69.4,1.42.4,2.23-.13,1.55-.4,2.22-.63,1.23-1.07,1.67-.96.78-1.54,1.02ZM163.57,208.22c.38.56.9.83,1.57.83s1.2-.28,1.57-.83.56-1.32.56-2.28-.19-1.73-.56-2.29-.9-.85-1.57-.85-1.2.28-1.57.85-.56,1.33-.56,2.29.19,1.72.56,2.28Z" style="fill: #4b4c4e;"/>
        <path d="M175.57,211.22c-.88,0-1.51-.26-1.9-.79s-.58-1.29-.58-2.29v-10.49c0-.29.1-.54.3-.74s.45-.3.74-.3h.54c.29,0,.54.1.74.3s.3.45.3.74v10.62c0,.38.11.62.32.74.01.01.06.04.16.09s.16.08.19.11.08.06.15.11.11.1.13.15.04.11.05.17l.07.39c.01.07.02.14.02.21,0,.21-.06.41-.18.6-.15.23-.37.36-.65.39-.13.01-.26.02-.4.02Z" style="fill: #4b4c4e;"/>
        <path d="M182.14,211.22c-.89,0-1.61-.28-2.16-.84s-.83-1.28-.83-2.14c0-1.07.45-1.9,1.35-2.49s2.34-1,4.32-1.22c.08-.01.12-.06.12-.14-.08-1.08-.65-1.62-1.71-1.62-.57,0-1.21.16-1.9.49-.15.07-.3.11-.46.11-.11,0-.21-.02-.32-.05-.26-.07-.45-.22-.58-.46-.09-.16-.14-.33-.14-.49,0-.09.02-.19.05-.28.07-.27.23-.47.47-.6,1.14-.56,2.25-.84,3.34-.84,1.28,0,2.24.38,2.89,1.13s.98,1.86.98,3.31v4.85c0,.28-.1.52-.3.73s-.45.31-.74.31h-.14c-.28,0-.53-.09-.75-.27s-.35-.41-.4-.69l-.02-.09s-.03-.02-.04-.02-.03,0-.04.02c-1.03.87-2.04,1.3-3.02,1.3ZM183,209.16c.62,0,1.24-.3,1.86-.91.06-.06.09-.13.09-.21v-1.78c0-.08-.04-.12-.11-.12-.01,0-.02,0-.04.02-1.11.15-1.91.38-2.4.69s-.73.7-.73,1.17c0,.39.12.67.36.86s.56.28.96.28Z" style="fill: #4b4c4e;"/>
        <path d="M196.25,211.22c-.94,0-1.83-.43-2.69-1.28-.01-.01-.03-.02-.04-.02s-.03,0-.03.02l-.04.09c-.06.28-.2.51-.41.69s-.47.26-.75.26h-.07c-.29,0-.54-.1-.74-.3s-.3-.45-.3-.74v-12.29c0-.29.1-.54.3-.74s.45-.3.74-.3h.54c.29,0,.54.1.74.3s.3.45.3.74v2.58l-.04,1.48s0,.04.03.05.04.01.06,0c.86-.75,1.75-1.12,2.69-1.12,1.23,0,2.2.47,2.91,1.4s1.06,2.17,1.06,3.72c0,.84-.12,1.61-.35,2.31s-.55,1.27-.95,1.73-.86.81-1.37,1.05-1.05.37-1.6.37ZM195.66,209.04c.64,0,1.17-.28,1.56-.83s.6-1.35.6-2.41c0-1.99-.67-2.99-2-2.99-.61,0-1.24.32-1.9.95-.07.06-.11.13-.11.23v4.17c0,.09.04.16.11.21.55.45,1.13.67,1.74.67Z" style="fill: #4b4c4e;"/>
        <path d="M210.71,203.87c.28,0,.52.1.73.3s.31.45.31.74v3.52c0,.09.02.18.07.25.36.54.88.94,1.55,1.2s1.48.41,2.44.45c.93.04,1.89.05,2.88.05,1.61,0,3.3-.05,5.1-.14h.04c.21,0,.39.09.53.26.08.13.12.26.12.4,0,.07-.01.15-.04.23-.09.3-.26.55-.48.75s-.49.3-.78.31c-1.44.06-2.79.09-4.04.09s-2.3-.02-3.32-.07c-1.12-.05-2.07-.21-2.85-.5s-1.43-.74-1.97-1.36c-.06-.07-.12-.08-.18-.02-.52.53-.97.98-1.37,1.35-.14.14-.3.21-.49.21-.06,0-.11,0-.16-.02-.26-.05-.44-.19-.54-.42l-.09-.18c-.08-.16-.12-.33-.12-.51,0-.11.02-.21.05-.32.07-.29.22-.53.46-.72.41-.3.78-.6,1.11-.88.06-.06.09-.13.09-.21v-2.69c0-.09-.04-.14-.12-.14h-.72c-.27,0-.5-.09-.69-.28s-.28-.42-.28-.69.09-.5.28-.69.42-.28.69-.28h1.81ZM211.34,200.9c.21.18.32.4.32.68s-.1.51-.3.69-.43.28-.7.28h-.02c-.27,0-.52-.09-.74-.28-.36-.32-.76-.62-1.18-.91-.22-.16-.33-.38-.33-.65,0-.2.08-.37.23-.51.2-.2.44-.32.72-.35h.14c.22,0,.43.06.63.18.46.29.87.59,1.23.88ZM211.94,197.28c.2.18.3.39.3.65,0,.29-.11.54-.33.74-.19.16-.4.25-.65.25h-.07c-.27-.01-.5-.12-.7-.32-.34-.33-.71-.65-1.11-.97-.21-.15-.32-.36-.32-.62,0-.21.08-.39.25-.54.21-.19.46-.29.74-.3h.09c.25,0,.47.07.67.21.43.32.81.62,1.14.9ZM214.56,203.13c.09,0,.14-.05.14-.14v-.6c0-.09-.05-.14-.14-.14h-.77c-.28,0-.53-.1-.73-.3s-.31-.45-.31-.74v-3.18c0-.28.1-.52.31-.73s.45-.31.73-.31h.77c.09,0,.15-.04.16-.12.01-.05.02-.09.04-.12.06-.29.2-.53.42-.7.2-.16.43-.25.69-.25h.09l.11.02c.26.01.45.13.58.35.08.12.12.24.12.37,0,.09-.02.19-.07.3-.01.02-.02.04-.02.05-.02.02-.03.05,0,.07s.04.04.08.04h.65c.28,0,.52.1.73.31s.31.45.31.73v2.87s0,.04.03.04.03,0,.03-.02c.5-1.11.9-2.51,1.18-4.18.04-.26.16-.46.37-.62.18-.13.36-.19.54-.19.06,0,.11,0,.16.02.26.04.46.16.62.37.12.16.18.34.18.53,0,.06,0,.12-.02.18-.08.45-.16.84-.25,1.18-.01.08.02.12.11.12h2.16c.25,0,.46.09.63.26s.26.39.26.63v.39c0,.14-.05.26-.16.37s-.23.16-.37.16c-.05,0-.07.02-.07.05-.28,2.13-.71,3.92-1.28,5.36-.04.08-.03.16.02.25.42.81.88,1.48,1.39,2.02.19.2.28.43.28.7,0,.25-.08.46-.25.65-.16.2-.37.31-.62.33h-.09c-.21,0-.39-.08-.54-.25-.42-.48-.8-1.02-1.12-1.62-.02-.02-.05-.04-.08-.04s-.05,0-.06.04c-.41.62-.87,1.17-1.37,1.63-.18.16-.38.25-.62.25h-.12c-.27-.04-.5-.16-.7-.37-.13-.15-.25-.29-.37-.4-.02-.02-.05-.03-.08-.02s-.04.03-.04.05c-.07.2-.15.35-.23.46-.23.26-.54.42-.93.47-.22.02-.46.04-.72.04-.2,0-.38-.07-.53-.21s-.25-.32-.3-.53c-.05-.15-.02-.3.08-.43s.23-.2.4-.2c.04.01.09.02.16.02.18.01.3-.04.39-.16.12-.13.2-.61.25-1.44.01-.09-.03-.14-.12-.14h-1.18c-.08,0-.13.05-.16.14-.29,1.04-.77,1.87-1.42,2.48-.14.12-.29.18-.46.18-.05,0-.09,0-.14-.02-.21-.04-.39-.15-.54-.33-.13-.15-.19-.33-.19-.53,0-.23.08-.43.23-.6.63-.68,1.01-1.76,1.12-3.25.01-.09-.03-.14-.12-.14h-.86c-.2,0-.37-.07-.51-.21s-.21-.31-.21-.51.07-.37.21-.51.31-.21.51-.21h1.69ZM214.56,198.3c-.08,0-.12.05-.12.14v.46c0,.08.04.12.12.12h1.97c.09,0,.14-.04.14-.12v-.46c0-.09-.05-.14-.14-.14h-1.97ZM214.56,200.25c-.08,0-.12.04-.12.12v.46c0,.09.04.14.12.14h1.97c.09,0,.14-.05.14-.14v-.46c0-.08-.05-.12-.14-.12h-1.97ZM215.56,205.08c-.01.08.03.12.12.12h1.79c.28,0,.52.11.72.32.18.19.26.41.26.67,0,.68-.06,1.39-.19,2.13,0,.02,0,.04.03.05s.04.01.06,0c.9-.69,1.64-1.58,2.21-2.67.05-.07.05-.15.02-.23-.32-.84-.6-1.75-.84-2.72,0-.02-.01-.04-.04-.04s-.04.01-.04.04c-.11.18-.26.41-.46.7-.01.02-.03.02-.05,0v.12c0,.28-.1.52-.3.71s-.43.29-.7.29h-2.43c-.09,0-.14.05-.14.14-.02.15-.04.28-.04.37ZM216.49,202.99c0,.09.05.14.14.14h2s.04-.01.04-.04,0-.04-.03-.05c-.33-.25-.63-.46-.91-.63-.06-.05-.06-.09-.02-.14l-.02-.02h-1.07c-.09,0-.14.05-.14.14v.6ZM222.03,200.25c.01-.08-.03-.12-.12-.12h-1.02c-.09,0-.13.04-.12.12.18,1.01.41,1.95.7,2.83,0,.02,0,.04.03.04s.03-.01.04-.04c.21-.88.38-1.82.49-2.83Z" style="fill: #4b4c4e;"/>
        <path d="M232.72,198.7c.23,0,.43.08.6.25s.25.36.25.6-.08.43-.25.6-.36.25-.6.25h-5.15c-.23,0-.43-.08-.6-.25s-.25-.36-.25-.6.08-.43.25-.6.36-.25.6-.25h5.15ZM231.95,206.15c.29,0,.54.1.74.3s.3.45.3.74v3.36c0,.28-.1.52-.3.73s-.45.31-.74.31h-2.55c-.06,0-.09.02-.09.07,0,.18-.06.33-.18.45s-.27.18-.43.18h-.28c-.25,0-.46-.09-.63-.26s-.26-.39-.26-.63v-4.2c0-.29.1-.54.3-.74s.45-.3.74-.3h3.39ZM232.16,201.2c.22,0,.41.08.57.24s.24.35.24.58-.08.42-.24.58-.35.24-.57.24h-3.76c-.23,0-.43-.08-.59-.24s-.24-.35-.24-.58.08-.42.24-.58.35-.24.59-.24h3.76ZM228.36,205.26c-.21,0-.4-.08-.55-.23s-.24-.34-.24-.56.08-.41.24-.57.34-.24.55-.24h3.81c.21,0,.4.08.55.24s.24.35.24.57-.08.41-.24.56-.34.23-.55.23h-3.81ZM232.11,196.27c.22,0,.41.08.57.24s.24.35.24.58-.08.42-.24.58-.35.24-.57.24h-3.67c-.22,0-.41-.08-.57-.24s-.24-.35-.24-.58.08-.42.24-.58.35-.24.57-.24h3.67ZM231.17,207.96c0-.08-.05-.12-.14-.12h-1.58c-.09,0-.14.04-.14.12v1.81c0,.09.05.14.14.14h1.58c.09,0,.14-.05.14-.14v-1.81ZM239.51,200.9c0,.09.04.14.12.14h3.06c.21,0,.39.07.54.22s.22.33.22.54-.07.39-.22.54-.33.23-.54.23h-8.37c-.21,0-.39-.08-.54-.23s-.22-.33-.22-.54.07-.39.22-.54.33-.22.54-.22h3.02c.08,0,.12-.05.12-.14v-.46c0-.08-.04-.12-.12-.12h-2.18c-.2,0-.37-.07-.51-.21s-.21-.31-.21-.51.07-.37.21-.51.31-.21.51-.21h2.18c.08,0,.12-.05.12-.14v-.37c0-.09-.04-.14-.12-.14h-2.58c-.21,0-.39-.07-.54-.22s-.23-.33-.23-.54.08-.4.23-.54.33-.22.54-.22h2.6c.07,0,.11-.04.11-.11,0-.25.08-.45.25-.62s.37-.25.61-.25h.32c.23,0,.44.08.61.25s.25.37.25.62c0,.07.04.11.11.11h2.74c.21,0,.39.07.54.22s.23.33.23.54-.08.4-.23.54-.33.22-.54.22h-2.72c-.08,0-.12.05-.12.14v.37c0,.09.04.14.12.14h2.5c.2,0,.37.07.51.21s.21.31.21.51-.07.37-.21.51-.31.21-.51.21h-2.5c-.08,0-.12.04-.12.12v.46ZM241.44,203.25c.28,0,.52.1.73.3s.31.45.31.74v6.24c0,.47-.06.83-.17,1.07s-.31.44-.61.58c-.36.16-.93.26-1.69.28h-.04c-.25,0-.46-.08-.65-.23-.21-.16-.36-.38-.44-.63-.02-.07-.04-.14-.04-.21,0-.12.04-.23.11-.35.12-.18.28-.26.49-.26l.09.02c.32,0,.53,0,.65-.02.11,0,.18-.02.22-.06s.06-.11.06-.22v-1.18c0-.08-.04-.12-.12-.12h-3.46c-.09,0-.14.04-.14.12v2.2c0,.27-.1.5-.29.69s-.42.29-.69.29-.5-.1-.69-.29-.28-.42-.28-.69v-7.22c0-.29.1-.54.3-.74s.45-.3.74-.3h5.61ZM240.47,204.89c0-.08-.04-.12-.12-.12h-3.46c-.09,0-.14.04-.14.12v.54c0,.09.05.14.14.14h3.46c.08,0,.12-.05.12-.14v-.54ZM236.75,207.66c0,.09.05.14.14.14h3.46c.08,0,.12-.05.12-.14v-.58c0-.08-.04-.12-.12-.12h-3.46c-.09,0-.14.04-.14.12v.58Z" style="fill: #4b4c4e;"/>
        <path d="M248.97,196.77c.11-.27.29-.47.54-.6.16-.08.33-.12.49-.12.11,0,.21.02.32.05l.05.02c.27.08.46.25.58.51.07.13.11.26.11.4,0,.12-.02.23-.07.35-.39.91-.81,1.79-1.27,2.62-.05.08-.07.16-.07.25v11.23c0,.28-.1.52-.3.72s-.44.3-.72.3-.52-.1-.73-.3-.31-.44-.31-.72v-8.05s0-.04-.03-.04-.03,0-.04.03c-.14.19-.29.38-.44.56-.13.15-.29.23-.47.23h-.12c-.23-.04-.4-.16-.51-.39l-.21-.39c-.12-.22-.18-.46-.18-.7,0-.05,0-.1.02-.16.02-.3.13-.57.33-.81,1.22-1.43,2.23-3.09,3.02-4.99ZM260.13,201.06c.01-.08-.02-.12-.11-.12h-2.16c-.08,0-.12.04-.12.12v9.09c0,.54-.06.96-.18,1.27s-.33.54-.65.72c-.39.21-.93.34-1.62.39h-.09c-.26,0-.49-.08-.69-.25-.25-.19-.42-.43-.51-.72l-.07-.21c-.04-.08-.05-.16-.05-.25,0-.14.04-.27.12-.39.13-.2.31-.3.54-.3h.74c.12,0,.2-.02.25-.06s.07-.12.07-.24v-9.05c0-.08-.04-.12-.12-.12h-1.83c-.09,0-.16.04-.19.11-.32.64-.66,1.24-1.02,1.79-.15.23-.37.36-.65.39-.04.01-.07.02-.11.02-.23,0-.45-.08-.63-.25-.05-.04-.09-.06-.12-.09-.21-.18-.33-.4-.37-.69-.01-.05-.02-.09-.02-.14,0-.22.06-.43.19-.62.87-1.24,1.58-2.79,2.14-4.66.08-.28.25-.5.49-.65.18-.11.36-.16.56-.16.07,0,.15.01.23.04h.07c.28.07.49.22.63.46.09.16.14.33.14.49,0,.09-.01.19-.04.28-.15.49-.33,1.01-.53,1.56-.01.02,0,.05,0,.08s.04.04.08.04h6.1c.11-.02.21-.04.32-.04.09,0,.19,0,.3.02l.44.09c.21.05.38.16.51.33.09.13.14.28.14.44v.14c-.15.9-.3,1.74-.46,2.51-.06.25-.19.44-.4.58-.16.12-.35.18-.54.18-.05,0-.11,0-.18-.02-.25-.04-.45-.16-.6-.37-.12-.16-.18-.35-.18-.54,0-.05,0-.09.02-.14.05-.36.09-.72.12-1.07ZM252.43,204.75c.07-.28.23-.5.47-.65.18-.12.36-.18.54-.18.08,0,.16,0,.23.02l.05.02c.28.06.5.21.65.44.11.16.16.33.16.51,0,.08-.02.17-.05.26-.43,1.56-.98,2.94-1.63,4.13-.14.23-.35.38-.63.44-.07.01-.14.02-.21.02-.2,0-.39-.06-.56-.18-.02-.01-.05-.02-.09-.04-.22-.14-.36-.35-.42-.62-.02-.08-.04-.16-.04-.25,0-.18.05-.35.16-.51.55-.94,1.01-2.08,1.37-3.43ZM258.79,205.12c-.06-.12-.09-.23-.09-.35,0-.13.03-.26.09-.39.11-.25.29-.41.54-.49.13-.05.25-.07.37-.07.15,0,.3.03.44.09.27.12.46.3.58.56.57,1.31,1.01,2.62,1.32,3.94.02.09.04.18.04.26,0,.19-.05.38-.16.56-.15.26-.37.43-.65.53l-.09.04c-.09.04-.19.05-.28.05-.15,0-.3-.05-.44-.14-.23-.14-.38-.34-.44-.6-.27-1.29-.68-2.62-1.23-3.99Z" style="fill: #4b4c4e;"/>
        <path d="M266.34,206.09c1.4-.45,2.21-1.22,2.32-2.18-.05.02-.13.02-.2.02-.9,0-1.71-.58-1.71-1.6s.81-1.62,1.77-1.62c1.28,0,1.94.95,1.94,2.47,0,2.03-1.31,3.71-3.55,4.36l-.58-1.44Z" style="fill: #4b4c4e;"/>
        <path d="M283.57,198.08s0,.06,0,.09.04.04.06.04h7.61c.28,0,.53.1.73.3s.31.44.31.73-.1.53-.31.73-.45.3-.73.3h-8.47c-.08,0-.14.04-.18.12-.62,1.27-1.28,2.37-1.97,3.3-.06.08-.09.16-.09.25v7.54c0,.29-.1.54-.31.74s-.45.3-.73.3h-.11c-.28,0-.52-.1-.73-.3s-.31-.45-.31-.74v-5.1s-.01-.04-.04-.05-.04,0-.05.02c-.21.19-.43.37-.67.54-.14.12-.3.18-.47.18-.07,0-.14-.01-.21-.04-.26-.06-.45-.21-.58-.46-.04-.08-.07-.16-.11-.23-.09-.18-.14-.36-.14-.54,0-.09.01-.18.04-.26.06-.28.2-.52.42-.7,1.41-1.11,2.6-2.6,3.59-4.46.01-.02.01-.05,0-.07s-.04-.04-.07-.04h-2.74c-.28,0-.52-.1-.73-.3s-.31-.44-.31-.73.1-.53.31-.73.45-.3.73-.3h3.69c.09,0,.15-.04.18-.12.18-.49.33-.96.47-1.39.08-.27.25-.48.49-.63.18-.09.36-.14.54-.14.08,0,.16,0,.25.02l.25.07c.27.06.47.21.62.46.08.15.12.3.12.46,0,.09-.02.2-.05.32-.09.26-.2.54-.32.84ZM288.08,205.99c-.08,0-.12.05-.12.14v3.83c0,.09.04.14.12.14h3.15c.28,0,.52.1.71.29s.29.42.29.69-.1.5-.29.69-.43.29-.71.29h-8.79c-.28,0-.52-.1-.71-.29s-.29-.42-.29-.69.1-.5.29-.69.43-.29.71-.29h3.23c.08,0,.12-.05.12-.14v-3.83c0-.09-.04-.14-.12-.14h-2.55c-.27,0-.5-.1-.69-.29s-.29-.42-.29-.69.1-.5.29-.69.42-.29.69-.29h2.55c.08,0,.12-.05.12-.14v-1.81c0-.29.1-.54.31-.74s.45-.3.73-.3h.09c.28,0,.53.1.73.3s.31.45.31.74v1.81c0,.09.04.14.12.14h2.44c.28,0,.52.1.71.29s.29.42.29.69-.1.5-.29.69-.43.29-.71.29h-2.44Z" style="fill: #4b4c4e;"/>
        <path d="M304.33,209.39c0,.09.05.14.14.14h5.8c.28,0,.52.1.73.31s.31.45.31.73v.02c0,.28-.1.52-.31.73s-.45.31-.73.31h-14.12c-.28,0-.52-.1-.73-.31s-.31-.45-.31-.73v-.02c0-.28.1-.52.31-.73s.45-.31.73-.31h5.78c.09,0,.14-.05.14-.14v-3.34c0-.09-.05-.14-.14-.14h-3.71c-.28,0-.52-.1-.73-.31s-.31-.45-.31-.73.1-.52.31-.73.45-.31.73-.31h3.71c.09,0,.14-.05.14-.14v-2.88c0-.09-.05-.14-.14-.14h-3.45c-.09,0-.16.04-.21.12-.34.63-.67,1.18-.98,1.65-.16.23-.39.37-.69.4-.06.01-.11.02-.16.02-.23,0-.45-.06-.63-.19l-.18-.14c-.22-.14-.36-.35-.4-.62-.01-.06-.02-.12-.02-.18,0-.19.06-.37.18-.54.43-.59.84-1.27,1.21-2.04.41-.84.76-1.71,1.04-2.6.08-.28.25-.5.51-.65.16-.11.35-.16.54-.16.08,0,.16.01.25.04l.18.04c.28.06.49.21.63.46.09.15.14.3.14.46,0,.11-.02.21-.05.3-.14.42-.3.9-.49,1.42-.01.04,0,.06,0,.09s.04.04.08.04h2.51c.08,0,.12-.04.12-.12v-2.07c0-.28.1-.52.31-.73s.45-.31.73-.31h.18c.28,0,.52.1.73.31s.31.45.31.73v2.07c0,.08.05.12.14.12h4.89c.28,0,.52.1.73.31s.31.45.31.73v.02c0,.28-.1.52-.31.73s-.45.31-.73.31h-4.89c-.09,0-.14.05-.14.14v2.88c0,.09.05.14.14.14h4.2c.28,0,.52.1.73.31s.31.45.31.73-.1.52-.31.73-.45.31-.73.31h-4.2c-.09,0-.14.05-.14.14v3.34Z" style="fill: #4b4c4e;"/>
        <path d="M317.38,202.11c.26.13.42.33.47.62.02.07.04.15.04.23,0,.19-.06.36-.18.53l-.04.05c-.15.23-.37.38-.65.44-.08.02-.16.04-.25.04-.19,0-.37-.05-.54-.16-.42-.26-.96-.57-1.62-.93-.23-.12-.38-.3-.42-.56-.02-.07-.04-.13-.04-.19,0-.18.06-.34.18-.49.16-.23.38-.39.65-.46.11-.02.21-.04.3-.04.18,0,.35.04.51.12.66.33,1.18.6,1.58.81ZM316.36,211.46c-.15.23-.36.38-.63.42h-.16c-.21,0-.4-.06-.56-.19l-.19-.16c-.22-.19-.36-.42-.4-.7-.01-.06-.02-.12-.02-.18,0-.22.06-.43.19-.63.83-1.24,1.62-2.54,2.36-3.9.13-.22.32-.36.58-.4.05-.01.09-.02.14-.02.2,0,.38.07.53.21l.04.04c.23.21.38.47.42.77.02.08.04.16.04.25,0,.21-.05.42-.16.62-.73,1.38-1.45,2.68-2.16,3.88ZM318.26,197.22c.25.14.4.35.46.62.01.07.02.14.02.21,0,.19-.06.37-.19.54l-.05.05c-.16.23-.39.38-.67.42-.07.01-.14.02-.21.02-.21,0-.41-.06-.6-.18-.38-.23-.89-.54-1.55-.91-.23-.13-.38-.32-.42-.58-.01-.06-.02-.12-.02-.18,0-.19.06-.36.18-.51.18-.22.4-.37.69-.44.09-.01.18-.02.26-.02.19,0,.37.04.54.12.62.33,1.14.6,1.56.83ZM330.12,201.25c.2.2.3.44.3.72s-.1.52-.3.72-.44.3-.72.3h-3.41c-.09,0-.14.05-.14.14v2c0,.08.05.12.14.12h2.5c.28,0,.52.1.73.31s.31.45.31.73v5.13c0,.28-.1.52-.3.72s-.44.3-.72.3h-.44c-.16,0-.3-.06-.41-.17s-.17-.25-.17-.41c0-.05-.02-.07-.07-.07h-5.26c-.06,0-.09.03-.09.09,0,.18-.06.33-.19.46s-.28.19-.46.19h-.32c-.26,0-.48-.09-.68-.28s-.29-.42-.29-.69v-5.27c0-.28.1-.52.31-.73s.45-.31.73-.31h2.51c.08,0,.12-.04.12-.12v-2c0-.09-.04-.14-.12-.14h-3.64c-.28,0-.52-.1-.72-.3s-.3-.44-.3-.72.1-.52.3-.72.44-.3.72-.3h3.64c.08,0,.12-.05.12-.14v-1.85c0-.08-.04-.12-.12-.11-.71.11-1.52.21-2.43.3h-.11c-.22,0-.43-.06-.62-.19-.22-.16-.38-.38-.47-.65-.02-.08-.04-.17-.04-.26,0-.13.04-.26.11-.39.12-.21.3-.33.54-.35,2.62-.3,4.78-.72,6.45-1.25.18-.06.35-.09.53-.09.13,0,.26.02.39.05.32.07.58.22.79.44l.21.21c.13.13.19.28.19.44,0,.06,0,.12-.02.18-.06.23-.2.39-.42.46-.83.27-1.78.5-2.83.7-.08.01-.12.06-.12.16v2.2c0,.09.05.14.14.14h3.41c.28,0,.52.1.72.3ZM327.36,209.86c.08,0,.12-.05.12-.14v-2.39c0-.08-.04-.12-.12-.12h-5.15c-.09,0-.14.04-.14.12v2.39c0,.09.05.14.14.14h5.15Z" style="fill: #4b4c4e;"/>
        <path d="M342.06,198.7c0,.09.05.14.14.14h5.15c.28,0,.52.1.73.3s.31.45.31.74v6.91c0,.28-.1.52-.31.73s-.45.31-.73.31h-.42c-.22,0-.41-.08-.56-.24s-.23-.35-.23-.57c0-.06-.04-.09-.11-.09h-3.83c-.09,0-.14.04-.14.12v4.45c0,.29-.1.54-.3.74s-.45.3-.74.3h-.19c-.28,0-.53-.1-.73-.3s-.31-.45-.31-.74v-4.45c0-.08-.04-.12-.12-.12h-3.81c-.07,0-.11.04-.11.11,0,.25-.09.45-.26.62s-.38.25-.62.25h-.25c-.28,0-.53-.1-.73-.31s-.31-.45-.31-.73v-7c0-.29.1-.54.31-.74s.45-.3.73-.3h5.04c.08,0,.12-.05.12-.14v-1.93c0-.29.1-.54.31-.74s.45-.3.73-.3h.19c.29,0,.54.1.74.3s.3.45.3.74v1.93ZM335.75,204.68c0,.09.05.14.14.14h3.78c.08,0,.12-.05.12-.14v-3.6c0-.08-.04-.12-.12-.12h-3.78c-.09,0-.14.04-.14.12v3.6ZM342.06,204.68c0,.09.05.14.14.14h3.8c.09,0,.14-.05.14-.14v-3.6c0-.08-.05-.12-.14-.12h-3.8c-.09,0-.14.04-.14.12v3.6Z" style="fill: #4b4c4e;"/>
        <path d="M365.02,200.39c-.01.08.02.12.11.12h1.99c.2,0,.38.07.53.22s.23.33.23.54-.08.39-.23.54-.33.22-.53.22h-2.13c-.08,0-.13.05-.14.14l-.02.25c-.04.29-.16.54-.37.74s-.47.3-.77.3h-8.28c-.28,0-.51-.11-.69-.32-.15-.16-.23-.36-.23-.58v-.14l.04-.25c.01-.09-.03-.14-.12-.14h-1.74c-.2,0-.38-.07-.53-.22s-.23-.33-.23-.54.08-.39.23-.54.33-.22.53-.22h1.95c.08,0,.13-.04.14-.12l.04-.28c.04-.29.16-.54.39-.74s.48-.3.77-.3h8.16c.28,0,.52.11.7.32.15.18.23.38.23.62v.11l-.02.28ZM354.28,198.49c-.09,0-.14.05-.14.14v.39c0,.26-.09.48-.28.67s-.41.28-.68.28-.49-.09-.68-.28-.28-.41-.28-.67v-1.16c0-.28.1-.52.3-.73s.45-.31.74-.31h5.41c.08,0,.12-.04.12-.12,0-.27.09-.5.28-.69s.42-.28.69-.28h.19c.27,0,.5.09.69.28s.28.42.28.69c0,.08.04.12.12.12h5.45c.29,0,.54.1.74.31s.3.45.3.73v1.12c0,.27-.1.5-.29.69s-.43.29-.7.29-.51-.1-.7-.29-.29-.42-.29-.69v-.35c0-.09-.05-.14-.14-.14h-11.13ZM365.9,208.95c0,.28-.1.52-.31.73s-.45.31-.73.31h-1.34s-.02,0-.02,0,0,.01.02.03c1.1.3,2.21.64,3.32,1,.19.06.3.19.33.4s-.04.37-.22.47l-.11.07c-.35.22-.71.33-1.09.33-.25,0-.5-.05-.76-.14-1.01-.36-2.13-.73-3.38-1.11-.21-.07-.34-.21-.39-.42-.01-.05-.02-.09-.02-.14,0-.15.06-.29.19-.4l.04-.04s.03-.03.03-.04-.02-.03-.04-.03h-3.25s-.04,0-.04.03,0,.03.03.04l.09.07c.19.12.28.28.28.49,0,.26-.12.43-.35.53-1.18.5-2.59.91-4.22,1.23-.11.02-.21.04-.32.04-.46,0-.87-.2-1.23-.6-.13-.14-.16-.3-.11-.48s.18-.29.37-.33c1.46-.27,2.72-.6,3.76-.98.01,0,.01,0,0-.02s-.01-.02-.03-.02h-1.42c-.28,0-.52-.1-.73-.31s-.31-.45-.31-.73v-3.92c0-.29.1-.54.31-.74s.45-.3.73-.3h9.86c.28,0,.52.1.73.3s.31.45.31.74v3.92ZM356.16,205.1c-.08,0-.12.05-.12.14v.25c0,.09.04.14.12.14h7.44c.08,0,.12-.05.12-.14v-.25c0-.09-.04-.14-.12-.14h-7.44ZM356.16,206.68c-.08,0-.12.05-.12.14v.28c0,.08.04.12.12.12h7.44c.08,0,.12-.04.12-.12v-.28c0-.09-.04-.14-.12-.14h-7.44ZM356.16,208.28c-.08,0-.12.05-.12.14v.3c0,.08.04.12.12.12h7.44c.08,0,.12-.04.12-.12v-.3c0-.09-.04-.14-.12-.14h-7.44ZM356.58,201.83c-.09,0-.15.04-.16.12l-.04.3c-.01.09.03.14.12.14h2c.08,0,.13-.05.14-.14l.05-.3c0-.08-.04-.12-.12-.12h-2ZM358.9,200.28c.01-.08-.03-.12-.12-.12h-1.99c-.08,0-.13.04-.14.12l-.04.3c-.01.08.02.12.11.12h2c.09,0,.14-.04.14-.12l.04-.3ZM360.45,202.25c-.01.09.02.14.11.14h2.2c.08,0,.13-.05.14-.14l.02-.3c.01-.08-.02-.12-.11-.12h-2.18c-.08,0-.13.04-.14.12l-.04.3ZM362.89,200.7c.08,0,.13-.04.14-.12l.04-.3c0-.08-.04-.12-.12-.12h-2.13c-.09,0-.15.04-.16.12l-.02.3c-.01.08.03.12.12.12h2.13Z" style="fill: #4b4c4e;"/>
        <path d="M376.01,206.47c.08-.02.16-.04.25-.04.15,0,.3.05.44.14.21.14.34.33.39.58.01.06.02.12.02.18,0,.21-.06.4-.18.58-.15.23-.36.39-.62.46-1.18.35-2.72.8-4.62,1.35-.11.04-.21.05-.3.05-.16,0-.33-.05-.49-.14-.25-.14-.4-.35-.47-.62v-.02c-.02-.09-.04-.18-.04-.26,0-.18.05-.35.14-.51.14-.25.35-.4.63-.47.19-.05.67-.17,1.44-.37.08-.02.12-.08.12-.16v-3.36c0-.09-.05-.14-.14-.14h-.88c-.27,0-.5-.09-.69-.28s-.29-.42-.29-.69.1-.51.29-.69.42-.28.69-.28h.88c.09,0,.14-.05.14-.14v-2.87c0-.08-.05-.12-.14-.12h-1.04c-.27,0-.5-.1-.69-.29s-.29-.43-.29-.7.1-.51.29-.7.42-.29.69-.29h4.32c.27,0,.5.1.7.29s.29.43.29.7-.1.51-.29.7-.43.29-.7.29h-.95c-.08,0-.12.04-.12.12v2.87c0,.09.04.14.12.14h.76c.28,0,.52.09.7.28s.28.42.28.69-.09.51-.28.69-.42.28-.7.28h-.76c-.08,0-.12.05-.12.14v2.81s.01.06.04.08.05.02.09,0c.19-.05.55-.15,1.09-.3ZM384.48,210.62h.74c.13,0,.22-.07.27-.22s.09-.44.11-.89c.01-.22.11-.39.3-.49.11-.06.21-.09.32-.09.09,0,.19.02.28.07.27.12.49.29.65.53.12.19.18.39.18.6v.16c-.12.82-.32,1.39-.6,1.7s-.71.47-1.28.47h-1.35c-.81,0-1.35-.17-1.62-.52s-.4-.98-.4-1.91v-3.39c0-.09-.04-.14-.12-.14h-.84c-.08,0-.13.05-.14.14-.08.7-.2,1.31-.34,1.83s-.36,1.03-.65,1.53-.68.95-1.18,1.33-1.11.71-1.82.99c-.13.05-.26.07-.39.07-.14,0-.28-.03-.42-.09-.28-.11-.5-.29-.67-.54-.01-.02-.02-.04-.04-.05-.09-.13-.14-.27-.14-.42,0-.07.01-.15.04-.23.07-.22.22-.38.44-.46.57-.2,1.05-.43,1.43-.7s.68-.58.9-.93.38-.7.48-1.05.19-.78.25-1.28c.01-.08-.02-.12-.11-.12h-.16c-.28,0-.52-.1-.73-.31s-.31-.45-.31-.73v-8c0-.29.1-.54.31-.74s.45-.3.73-.3h6.71c.29,0,.54.1.74.3s.3.45.3.74v8c0,.28-.1.52-.3.73s-.45.31-.74.31h-1.04c-.09,0-.14.05-.14.14v3.39c0,.26.02.42.06.49s.14.11.29.11ZM379.7,198.16c-.09,0-.14.04-.14.12v.86c0,.08.05.12.14.12h4.43c.08,0,.12-.04.12-.12v-.86c0-.08-.04-.12-.12-.12h-4.43ZM379.7,200.9c-.09,0-.14.04-.14.12v.86c0,.08.05.12.14.12h4.43c.08,0,.12-.04.12-.12v-.86c0-.08-.04-.12-.12-.12h-4.43ZM379.7,203.62c-.09,0-.14.05-.14.14v.84c0,.09.05.14.14.14h4.43c.08,0,.12-.05.12-.14v-.84c0-.09-.04-.14-.12-.14h-4.43Z" style="fill: #4b4c4e;"/>
        <path d="M389.8,198.28c-.19-.19-.29-.42-.29-.69s.1-.5.29-.69.42-.28.68-.28h6.29c.28,0,.52.1.72.3s.3.45.3.74v1.46c-.02,4.61-.06,7.66-.11,9.16s-.2,2.45-.45,2.85c-.2.33-.4.57-.59.71s-.44.26-.75.34c-.28.07-.66.11-1.12.11h-.02c-.28,0-.53-.09-.76-.28-.21-.2-.36-.45-.44-.74-.02-.11-.05-.21-.09-.32-.02-.07-.04-.15-.04-.23,0-.14.05-.27.14-.39.13-.19.3-.28.53-.28h.58c.23,0,.42-.13.56-.39.16-.27.27-1.24.32-2.92,0-.09-.04-.14-.12-.14h-1.95c-.09,0-.15.04-.16.12-.41,2.03-1.03,3.68-1.85,4.96-.14.22-.35.34-.62.35-.02.01-.04.02-.05.02-.26,0-.47-.09-.65-.26-.07-.07-.14-.13-.21-.19-.21-.19-.33-.42-.37-.7v-.14c0-.22.06-.43.19-.63.61-.9,1.07-2.03,1.39-3.38.01-.09-.02-.14-.11-.14h-.6c-.26,0-.48-.09-.67-.27s-.28-.4-.28-.67.09-.49.28-.67.41-.27.67-.27h.93c.09,0,.15-.05.16-.14.06-.46.12-1.07.18-1.85,0-.08-.04-.12-.12-.12h-.93c-.26,0-.48-.09-.67-.28s-.28-.41-.28-.67.09-.48.28-.67.41-.28.67-.28h1.02c.08,0,.12-.04.12-.12.02-.8.04-1.43.04-1.9,0-.09-.04-.14-.12-.14h-1.25c-.26,0-.48-.09-.68-.28ZM393.64,204.59c0,.09.04.14.12.14h1.71c.08,0,.12-.05.12-.14.01-.39.02-1,.02-1.85,0-.08-.04-.12-.12-.12h-1.53c-.08,0-.13.04-.14.12-.04.46-.09,1.07-.18,1.85ZM395.65,198.7c0-.09-.04-.14-.12-.14h-1.41c-.09,0-.14.05-.14.14,0,.64-.02,1.28-.05,1.9,0,.08.05.12.14.12h1.44c.08,0,.12-.04.12-.12l.02-1.9ZM404.31,196.56s.1-.02.16-.02c.12,0,.23.04.35.11l.53.33c.22.14.37.34.44.6.04.11.05.21.05.32,0,.14-.03.28-.09.42-.77,1.85-1.42,3.29-1.93,4.32-.04.08-.02.15.04.21,1.3,1.25,1.95,2.61,1.95,4.08,0,1.27-.36,2.14-1.07,2.62-.34.22-.77.38-1.3.46-.19.02-.42.04-.69.04h-.02c-.28,0-.53-.09-.74-.28-.22-.2-.38-.45-.46-.74,0-.01,0-.03-.02-.05-.02-.07-.04-.14-.04-.21,0-.14.05-.28.14-.4.13-.19.31-.28.54-.28.08,0,.17,0,.26-.02.32,0,.59-.05.83-.16.34-.18.51-.57.51-1.2,0-.98-.45-1.97-1.35-2.95-.21-.22-.35-.49-.42-.79-.02-.11-.04-.21-.04-.32,0-.19.04-.38.12-.56.34-.84.76-1.96,1.27-3.36.01-.04,0-.07,0-.1s-.04-.04-.08-.04h-2.16c-.09,0-.14.05-.14.14v12.78c0,.28-.1.52-.29.72s-.43.3-.71.3-.52-.1-.72-.3-.3-.44-.3-.72v-13.89c0-.29.1-.54.3-.74s.45-.3.74-.3h4.27s.05,0,.07-.02Z" style="fill: #4b4c4e;"/>
        <path d="M411.49,196.75c.12-.27.3-.47.56-.6.15-.07.31-.11.47-.11.11,0,.22.02.33.05l.05.02c.27.08.47.25.6.51.06.13.09.26.09.4,0,.12-.03.23-.09.35-.36.88-.79,1.76-1.27,2.64-.05.08-.07.16-.07.25v11.21c0,.28-.1.52-.3.72s-.44.3-.72.3-.52-.1-.72-.3-.3-.44-.3-.72v-8.05s0-.04-.03-.04-.03,0-.04.03l-.46.56c-.13.15-.29.23-.47.23-.04,0-.08,0-.12-.02-.23-.04-.4-.16-.51-.39-.07-.13-.13-.25-.19-.37-.12-.22-.18-.46-.18-.7,0-.05,0-.1.02-.16.04-.3.15-.57.33-.81,1.21-1.42,2.21-3.09,3.01-5.01ZM416.75,197.83c-.18-.18-.27-.4-.27-.66s.09-.48.27-.67.4-.28.66-.28h3.32c.29,0,.56.1.79.29s.39.44.47.73c.5,1.97,1.32,3.5,2.46,4.61.21.2.32.45.32.74,0,.25-.08.46-.25.65-.09.12-.19.23-.3.35-.15.2-.35.31-.58.33h-.11c-.2,0-.38-.07-.53-.21-.01-.01-.03-.01-.05,0s-.04.02-.04.04v.07c-.06,2.66-.14,4.54-.24,5.64s-.27,1.82-.52,2.14c-.3.41-.73.67-1.28.79-.25.05-.6.07-1.05.07h-.02c-.28,0-.53-.09-.74-.28-.22-.2-.38-.45-.46-.74-.01-.05-.02-.09-.04-.12-.02-.08-.04-.16-.04-.23,0-.14.05-.28.14-.4.13-.19.3-.28.53-.28h.51c.26,0,.45-.08.58-.25s.23-.64.3-1.41.13-2.02.18-3.77c.01-.08-.03-.12-.12-.12h-1.97c-.08,0-.13.04-.14.12-.18,1.56-.52,2.91-1.04,4.04s-1.3,2.11-2.36,2.92c-.18.12-.36.18-.54.18-.07,0-.14,0-.21-.02-.27-.06-.49-.21-.67-.44-.13-.16-.19-.35-.19-.56v-.12c.04-.26.16-.46.37-.62.82-.62,1.42-1.37,1.79-2.24s.63-1.92.76-3.14c.01-.08-.03-.12-.12-.12h-.74c-.28,0-.53-.1-.73-.31s-.31-.45-.31-.73v-.25s0-.02-.03-.04-.03,0-.04.02c-.04.04-.06.08-.09.12-.18.2-.4.3-.67.3s-.5-.1-.7-.29-.3-.44-.3-.73c0-.27.08-.5.25-.7.75-.93,1.37-2.04,1.86-3.34.11-.28.29-.49.54-.63.16-.09.33-.14.51-.14.09,0,.19.02.28.05h.05c.27.07.47.23.6.47.06.14.09.28.09.4,0,.12-.02.23-.07.35-.54,1.29-1.14,2.42-1.81,3.39-.01.02-.01.05,0,.07s.03.04.05.04h7.12s.06-.01.07-.04,0-.05-.02-.07c-.95-1.28-1.66-2.81-2.13-4.59-.02-.08-.08-.12-.18-.12h-2.55c-.26,0-.48-.09-.66-.27Z" style="fill: #4b4c4e;"/>
        <path d="M431.95,207.24c.09-.04.19-.05.28-.05.16,0,.32.05.46.14.23.13.38.33.42.6.01.07.02.15.02.23,0,.2-.05.4-.16.6-.15.25-.37.42-.65.51-.93.33-2.23.76-3.92,1.3-.09.04-.19.05-.3.05-.15,0-.3-.05-.46-.14-.23-.14-.39-.35-.46-.62l-.04-.14c-.01-.09-.02-.18-.02-.25,0-.2.05-.39.16-.56.15-.25.37-.4.65-.47.35-.09.7-.19,1.05-.3.09-.02.14-.08.14-.16v-3.97c0-.08-.05-.12-.14-.12h-.7c-.27,0-.5-.1-.7-.29s-.29-.42-.29-.69.1-.5.29-.69.43-.29.7-.29h.7c.09,0,.14-.05.14-.14v-2.9c0-.08-.05-.12-.14-.12h-.84c-.28,0-.52-.1-.71-.3s-.29-.44-.29-.71.1-.51.29-.7.43-.29.71-.29h3.94c.28,0,.52.1.71.29s.29.43.29.7-.1.51-.29.71-.43.3-.71.3h-.79c-.09,0-.14.04-.14.12v2.9c0,.09.05.14.14.14h.51c.27,0,.5.1.69.29s.28.42.28.69-.09.5-.28.69-.42.29-.69.29h-.51c-.09,0-.14.04-.14.12v3.34s.01.06.04.08.06.02.08,0c.28-.08.5-.15.67-.19ZM439.55,209.9c0,.09.05.14.14.14h3.32c.27,0,.5.09.69.28s.28.42.28.69-.09.5-.28.69-.42.28-.69.28h-9.63c-.27,0-.5-.09-.69-.28s-.28-.42-.28-.69.09-.5.28-.69.42-.28.69-.28h3.87c.09,0,.14-.05.14-.14v-1.44c0-.09-.05-.14-.14-.14h-2.64c-.26,0-.48-.09-.67-.28s-.28-.41-.28-.68.09-.49.28-.68.41-.28.67-.28h2.64c.09,0,.14-.05.14-.14v-1.28c0-.08-.05-.12-.14-.12h-2.43c-.29,0-.54-.1-.74-.31s-.3-.45-.3-.73v-6.29c0-.29.1-.54.3-.74s.45-.3.74-.3h7.31c.29,0,.54.1.74.3s.3.45.3.74v6.29c0,.28-.1.52-.3.73s-.45.31-.74.31h-2.44c-.09,0-.14.04-.14.12v1.28c0,.09.05.14.14.14h2.72c.26,0,.48.09.68.28s.29.41.29.68-.1.49-.29.68-.42.28-.68.28h-2.72c-.09,0-.14.05-.14.14v1.44ZM435.84,198.3c-.09,0-.14.05-.14.14v1.23c0,.08.05.12.14.12h1.58c.09,0,.14-.04.14-.12v-1.23c0-.09-.05-.14-.14-.14h-1.58ZM435.84,201.48c-.09,0-.14.05-.14.14v1.28c0,.08.05.12.14.12h1.58c.09,0,.14-.04.14-.12v-1.28c0-.09-.05-.14-.14-.14h-1.58ZM441.01,199.79c.09,0,.14-.04.14-.12v-1.23c0-.09-.05-.14-.14-.14h-1.51c-.09,0-.14.05-.14.14v1.23c0,.08.05.12.14.12h1.51ZM441.01,203.02c.09,0,.14-.04.14-.12v-1.28c0-.09-.05-.14-.14-.14h-1.51c-.09,0-.14.05-.14.14v1.28c0,.08.05.12.14.12h1.51Z" style="fill: #4b4c4e;"/>
        <path d="M450.98,206.22c-.2.2-.44.3-.72.3s-.52-.1-.72-.3-.3-.44-.3-.72v-2.39s0-.04-.03-.04-.03,0-.04.02c-.4.68-.81,1.27-1.25,1.78-.16.18-.36.26-.6.26h-.07c-.27-.01-.5-.12-.69-.33-.16-.19-.25-.4-.25-.65,0-.27.09-.5.28-.7.91-.9,1.66-1.98,2.25-3.23.01-.02,0-.05,0-.07s-.04-.04-.08-.04h-1.56c-.25,0-.46-.09-.64-.27s-.27-.4-.27-.65.09-.47.27-.64.4-.26.64-.26h1.92c.08,0,.12-.04.12-.12v-1.39c0-.28.1-.52.3-.72s.44-.3.72-.3.52.1.72.3.3.44.3.72v1.39c0,.08.04.12.12.12h1.51c.25,0,.46.09.63.26s.26.39.26.64-.09.47-.26.65-.39.27-.63.27h-1.51c-.08,0-.12.04-.12.12v.4c0,.08.04.15.11.19.47.28,1.11.71,1.92,1.3.23.16.38.39.42.69.01.07.02.13.02.19,0,.21-.06.41-.18.6-.14.21-.34.33-.6.35-.04.01-.07.02-.11.02-.21,0-.4-.08-.56-.25-.29-.28-.6-.57-.93-.88-.01-.01-.03-.01-.05,0s-.04.03-.04.06v2.6c0,.28-.1.52-.3.72ZM448.39,210.62c-.12.27-.32.45-.6.53-.11.04-.21.05-.32.05-.16,0-.32-.04-.47-.11l-.11-.05c-.25-.13-.41-.33-.49-.6-.02-.09-.04-.19-.04-.28,0-.16.04-.32.12-.47.28-.57.53-1.18.76-1.83.08-.27.25-.46.49-.58.13-.07.26-.11.4-.11.12,0,.23.02.33.07.27.11.47.29.6.56.08.15.12.31.12.47,0,.11-.02.22-.05.33-.25.77-.5,1.44-.76,2ZM453.37,210.28h2.87c.34,0,.58-.06.71-.19s.23-.41.29-.84c.04-.23.15-.4.35-.51.13-.07.25-.11.37-.11.09,0,.19.02.28.05h.02c.28.11.51.28.69.53.12.19.18.38.18.58,0,.07,0,.14-.02.21-.16.84-.44,1.42-.83,1.72s-1.01.46-1.86.46h-3.25c-1.21,0-2.02-.18-2.43-.53s-.62-1-.62-1.95v-1.42c0-.28.1-.52.31-.73s.45-.31.73-.31h.04c.29,0,.54.1.74.31s.3.45.3.73v1.39c0,.27.07.44.21.51s.46.11.95.11ZM453.35,207.66c-.16-.16-.25-.36-.25-.6,0-.27.11-.49.32-.65l.4-.33c.09-.07.2-.11.33-.11s.23.04.33.12c0,.01,0,.01.02,0s.02-.01.02-.03v-8.42c0-.29.1-.54.31-.74s.45-.3.73-.3h5.24c.28,0,.52.1.73.3s.31.45.31.74v7.61c0,.28-.1.52-.31.73s-.45.31-.73.31h-5.96s-.04.01-.05.04,0,.04.02.05c.42.39.8.74,1.12,1.07.18.19.26.4.26.65,0,.3-.12.55-.35.74-.19.15-.4.23-.63.23h-.11c-.27-.02-.5-.13-.69-.33-.32-.35-.67-.71-1.05-1.09ZM456.58,198.31c-.08,0-.12.05-.12.14v.77c0,.09.04.14.12.14h3.06c.08,0,.12-.05.12-.14v-.77c0-.09-.04-.14-.12-.14h-3.06ZM456.58,200.95c-.08,0-.12.04-.12.12v.79c0,.08.04.12.12.12h3.06c.08,0,.12-.04.12-.12v-.79c0-.08-.04-.12-.12-.12h-3.06ZM456.58,203.55c-.08,0-.12.05-.12.14v.81c0,.09.04.14.12.14h3.06c.08,0,.12-.05.12-.14v-.81c0-.09-.04-.14-.12-.14h-3.06ZM459.27,208.39c-.09-.15-.14-.31-.14-.47,0-.09.02-.19.05-.28.08-.26.25-.45.49-.56.16-.08.33-.12.49-.12.12,0,.23.02.33.05.29.08.52.25.67.49.55.83.94,1.44,1.18,1.83.09.15.14.32.14.49,0,.08-.02.18-.05.28-.07.27-.23.47-.49.6l-.16.07c-.15.08-.3.12-.46.12-.11,0-.21-.02-.32-.05-.27-.09-.47-.26-.62-.51-.21-.38-.59-1.02-1.12-1.93Z" style="fill: #4b4c4e;"/>
        <path d="M466.68,206.09c1.4-.45,2.21-1.22,2.32-2.18-.05.02-.13.02-.2.02-.9,0-1.71-.58-1.71-1.6s.81-1.62,1.76-1.62c1.28,0,1.94.95,1.94,2.47,0,2.03-1.31,3.71-3.55,4.36l-.58-1.44Z" style="fill: #4b4c4e;"/>
        <path d="M149.06,236.11c.26.13.42.33.47.62.02.07.04.15.04.23,0,.19-.06.36-.18.53l-.04.05c-.15.23-.37.38-.65.44-.08.02-.16.04-.25.04-.19,0-.37-.05-.54-.16-.42-.26-.96-.57-1.62-.93-.23-.12-.38-.3-.42-.56-.02-.07-.04-.13-.04-.19,0-.18.06-.34.18-.49.16-.23.38-.39.65-.46.11-.02.21-.04.3-.04.18,0,.35.04.51.12.66.33,1.18.6,1.58.81ZM148.04,245.46c-.15.23-.36.38-.63.42h-.16c-.21,0-.4-.06-.56-.19l-.19-.16c-.22-.19-.36-.42-.4-.7-.01-.06-.02-.12-.02-.18,0-.22.06-.43.19-.63.83-1.24,1.62-2.54,2.36-3.9.13-.22.32-.36.58-.4.05-.01.09-.02.14-.02.2,0,.38.07.53.21l.04.04c.23.21.38.47.42.77.02.08.04.16.04.25,0,.21-.05.42-.16.62-.73,1.38-1.45,2.68-2.16,3.88ZM149.94,231.22c.25.14.4.35.46.62.01.07.02.14.02.21,0,.19-.06.37-.19.54l-.05.05c-.16.23-.39.38-.67.42-.07.01-.14.02-.21.02-.21,0-.41-.06-.6-.18-.38-.23-.89-.54-1.55-.91-.23-.13-.38-.32-.42-.58-.01-.06-.02-.12-.02-.18,0-.19.06-.36.18-.51.18-.22.4-.37.69-.44.09-.01.18-.02.26-.02.19,0,.37.04.54.12.62.33,1.14.6,1.56.83ZM161.8,235.25c.2.2.3.44.3.72s-.1.52-.3.72-.44.3-.72.3h-3.41c-.09,0-.14.05-.14.14v2c0,.08.05.12.14.12h2.5c.28,0,.52.1.73.31s.31.45.31.73v5.13c0,.28-.1.52-.3.72s-.44.3-.72.3h-.44c-.16,0-.3-.06-.41-.17s-.17-.25-.17-.41c0-.05-.02-.07-.07-.07h-5.26c-.06,0-.09.03-.09.09,0,.18-.06.33-.19.46s-.28.19-.46.19h-.32c-.26,0-.48-.09-.68-.28s-.29-.42-.29-.69v-5.27c0-.28.1-.52.31-.73s.45-.31.73-.31h2.51c.08,0,.12-.04.12-.12v-2c0-.09-.04-.14-.12-.14h-3.64c-.28,0-.52-.1-.72-.3s-.3-.44-.3-.72.1-.52.3-.72.44-.3.72-.3h3.64c.08,0,.12-.05.12-.14v-1.85c0-.08-.04-.12-.12-.11-.71.11-1.52.21-2.43.3h-.11c-.22,0-.43-.06-.62-.19-.22-.16-.38-.38-.47-.65-.02-.08-.04-.17-.04-.26,0-.13.04-.26.11-.39.12-.21.3-.33.54-.35,2.62-.3,4.78-.72,6.45-1.25.18-.06.35-.09.53-.09.13,0,.26.02.39.05.32.07.58.22.79.44l.21.21c.13.13.19.28.19.44,0,.06,0,.12-.02.18-.06.23-.2.39-.42.46-.83.27-1.78.5-2.83.7-.08.01-.12.06-.12.16v2.2c0,.09.05.14.14.14h3.41c.28,0,.52.1.72.3ZM159.04,243.86c.08,0,.12-.05.12-.14v-2.39c0-.08-.04-.12-.12-.12h-5.15c-.09,0-.14.04-.14.12v2.39c0,.09.05.14.14.14h5.15Z" style="fill: #4b4c4e;"/>
        <path d="M177.66,239.94c0-.29.1-.54.3-.74s.45-.3.74-.3h.16c.28,0,.52.1.73.3s.31.45.31.74v5.54c0,.29-.1.54-.31.74s-.45.3-.73.3h-.3c-.25,0-.46-.09-.63-.26s-.26-.39-.26-.65c0-.07-.04-.11-.12-.11h-9.74c-.08,0-.12.04-.12.11,0,.26-.09.48-.26.66s-.39.27-.65.27h-.23c-.28,0-.53-.1-.73-.3s-.31-.45-.31-.74v-5.55c0-.29.1-.54.31-.74s.45-.3.73-.3h.11c.29,0,.54.1.74.3s.3.45.3.74v3.3c0,.09.05.14.14.14h3.5c.08,0,.12-.05.12-.14v-5.17c0-.08-.04-.12-.12-.12h-4.06c-.28,0-.53-.1-.73-.31s-.31-.45-.31-.73v-4.46c0-.29.1-.54.31-.74s.45-.3.73-.3h.05c.29,0,.54.1.74.3s.3.45.3.74v3.27c0,.09.05.14.14.14h2.83c.08,0,.12-.05.12-.14v-4.78c0-.29.1-.54.31-.74s.45-.3.73-.3h.12c.29,0,.54.1.74.3s.3.45.3.74v4.78c0,.09.05.14.14.14h3.01c.09,0,.14-.05.14-.14v-3.27c0-.29.1-.54.3-.74s.45-.3.74-.3h.18c.28,0,.52.1.73.3s.31.45.31.74v4.46c0,.28-.1.52-.31.73s-.45.31-.73.31h-4.36c-.09,0-.14.04-.14.12v5.17c0,.09.05.14.14.14h3.74c.09,0,.14-.05.14-.14v-3.3Z" style="fill: #4b4c4e;"/>
        <path d="M186.49,230.77c.11-.27.29-.47.54-.6.16-.08.33-.12.49-.12.11,0,.21.02.32.05l.05.02c.27.08.46.25.58.51.07.13.11.26.11.4,0,.12-.02.23-.07.35-.39.91-.81,1.79-1.27,2.62-.05.08-.07.16-.07.25v11.23c0,.28-.1.52-.3.72s-.44.3-.72.3-.52-.1-.73-.3-.31-.44-.31-.72v-8.05s0-.04-.03-.04-.03,0-.04.03c-.14.19-.29.38-.44.56-.13.15-.29.23-.47.23h-.12c-.23-.04-.4-.16-.51-.39l-.21-.39c-.12-.22-.18-.46-.18-.7,0-.05,0-.1.02-.16.02-.3.13-.57.33-.81,1.22-1.43,2.23-3.09,3.02-4.99ZM197.65,235.06c.01-.08-.02-.12-.11-.12h-2.16c-.08,0-.12.04-.12.12v9.09c0,.54-.06.96-.18,1.27s-.33.54-.65.72c-.39.21-.93.34-1.62.39h-.09c-.26,0-.49-.08-.69-.25-.25-.19-.42-.43-.51-.72l-.07-.21c-.04-.08-.05-.16-.05-.25,0-.14.04-.27.12-.39.13-.2.31-.3.54-.3h.74c.12,0,.2-.02.25-.06s.07-.12.07-.24v-9.05c0-.08-.04-.12-.12-.12h-1.83c-.09,0-.16.04-.19.11-.32.64-.66,1.24-1.02,1.79-.15.23-.37.36-.65.39-.04.01-.07.02-.11.02-.23,0-.45-.08-.63-.25-.05-.04-.09-.06-.12-.09-.21-.18-.33-.4-.37-.69-.01-.05-.02-.09-.02-.14,0-.22.06-.43.19-.62.87-1.24,1.58-2.79,2.14-4.66.08-.28.25-.5.49-.65.18-.11.36-.16.56-.16.07,0,.15.01.23.04h.07c.28.07.49.22.63.46.09.16.14.33.14.49,0,.09-.01.19-.04.28-.15.49-.33,1.01-.53,1.56-.01.02,0,.05,0,.08s.04.04.08.04h6.1c.11-.02.21-.04.32-.04.09,0,.19,0,.3.02l.44.09c.21.05.38.16.51.33.09.13.14.28.14.44v.14c-.15.9-.3,1.74-.46,2.51-.06.25-.19.44-.4.58-.16.12-.35.18-.54.18-.05,0-.11,0-.18-.02-.25-.04-.45-.16-.6-.37-.12-.16-.18-.35-.18-.54,0-.05,0-.09.02-.14.05-.36.09-.72.12-1.07ZM189.95,238.75c.07-.28.23-.5.47-.65.18-.12.36-.18.54-.18.08,0,.16,0,.23.02l.05.02c.28.06.5.21.65.44.11.16.16.33.16.51,0,.08-.02.17-.05.26-.43,1.56-.98,2.94-1.63,4.13-.14.23-.35.38-.63.44-.07.01-.14.02-.21.02-.2,0-.39-.06-.56-.18-.02-.01-.05-.02-.09-.04-.22-.14-.36-.35-.42-.62-.02-.08-.04-.16-.04-.25,0-.18.05-.35.16-.51.55-.94,1.01-2.08,1.37-3.43ZM196.32,239.12c-.06-.12-.09-.23-.09-.35,0-.13.03-.26.09-.39.11-.25.29-.41.54-.49.13-.05.25-.07.37-.07.15,0,.3.03.44.09.27.12.46.3.58.56.57,1.31,1.01,2.62,1.32,3.94.02.09.04.18.04.26,0,.19-.05.38-.16.56-.15.26-.37.43-.65.53l-.09.04c-.09.04-.19.05-.28.05-.15,0-.3-.05-.44-.14-.23-.14-.38-.34-.44-.6-.27-1.29-.68-2.62-1.23-3.99Z" style="fill: #4b4c4e;"/>
        <path d="M216.32,239.75c.29,0,.54.1.74.31s.3.45.3.73v3.87c0,.47-.06.82-.18,1.05s-.33.42-.65.56c-.38.14-.97.22-1.78.25h-.02c-.29,0-.55-.09-.77-.28-.25-.18-.43-.41-.54-.7-.02-.08-.05-.17-.09-.26-.04-.08-.1-.12-.19-.12h-3.9s-.07.02-.07.07c0,.13-.05.24-.14.33s-.21.14-.33.14h-.39c-.23,0-.44-.08-.61-.25s-.25-.37-.25-.61v-1.85c0-.28.1-.52.31-.73s.45-.31.73-.31h3.94c.28,0,.52.1.73.31s.31.45.31.73v1.79c0,.09.05.14.14.14.34.01.62.02.84.02.25,0,.42,0,.53-.02.13-.01.21-.04.25-.07s.06-.1.06-.19v-3.23c0-.09-.04-.14-.12-.14h-9.19c-.08,0-.12.05-.12.14v4.08c0,.28-.1.52-.3.72s-.44.3-.73.3-.53-.1-.73-.3-.3-.44-.3-.72v-5.48s-.02-.06-.05-.04c-.14.07-.28.08-.43.04s-.26-.12-.34-.24l-.21-.28c-.11-.13-.16-.27-.16-.42,0-.05,0-.1.02-.16.05-.21.16-.37.35-.47.76-.41,1.4-.91,1.92-1.51.01-.02.01-.04,0-.06s-.03-.03-.05-.03c-.2.01-.51.04-.92.07s-.72.06-.92.09h-.09c-.19,0-.36-.06-.51-.18-.18-.14-.28-.32-.32-.54v-.11c0-.18.06-.33.18-.47.14-.16.32-.25.54-.26h.12c.08-.01.15-.05.21-.11.26-.3.52-.62.77-.95.05-.07.04-.13-.02-.19-.34-.32-.76-.67-1.27-1.07-.16-.13-.26-.29-.28-.49-.01-.05-.02-.09-.02-.12,0-.15.05-.3.14-.44l.16-.23c.07-.11.17-.17.3-.19s.25,0,.35.07c.02.01.05,0,.07-.02.25-.4.47-.81.67-1.23.11-.21.26-.36.46-.46.12-.05.23-.07.35-.07.09,0,.19.02.28.05.2.07.33.21.4.4.02.07.04.14.04.21,0,.12-.04.23-.11.33-.35.55-.67,1.04-.97,1.46-.05.07-.04.13.04.19.09.08.2.17.32.26.07.06.13.05.18-.02.14-.22.27-.43.39-.62s.28-.32.49-.39c.11-.04.21-.05.3-.05.12,0,.23.02.35.07.19.08.31.22.37.42.02.07.04.13.04.19,0,.13-.04.25-.12.37-.62.87-1.22,1.66-1.81,2.37-.01.02-.01.05,0,.07s.03.04.05.04l.77-.05c.08,0,.14-.04.18-.12.11-.27.28-.48.53-.63.19-.12.38-.18.58-.18.07,0,.13,0,.19.02l.3.05c.08.01.12-.03.12-.12v-1.37c0-.29.1-.54.31-.74s.45-.3.73-.3h3.02c.29,0,.54.1.74.3s.3.45.3.74v1.69c0,.28-.1.52-.3.73s-.45.31-.74.31h-2.27c-.08,0-.12.04-.12.12v.21c0,.08.04.12.12.12h2.94c.13,0,.24.05.33.14s.14.21.14.34-.05.25-.14.34-.21.14-.33.14h-2.94c-.08,0-.12.05-.12.14v.21c0,.08.04.12.12.12h3.01c.13,0,.24.05.33.14s.14.21.14.34-.05.25-.14.34-.21.14-.33.14h-3.11s-.02,0-.02.02,0,.02.02.04l1.21.14c.23.04.4.15.51.35.06.11.09.21.09.3,0,.11-.02.21-.07.3-.01.02-.01.05,0,.07s.04.04.07.04h5.12ZM204.23,239.68s-.03.03-.03.04.02.03.04.03h4.66c.08,0,.13-.04.16-.12.06-.18.11-.33.14-.47,0-.02,0-.05-.03-.08s-.04-.04-.08-.04h-.35c-.28,0-.52-.1-.73-.3s-.31-.45-.31-.74v-2.53s0-.04-.02-.04-.02,0-.02.02c-.69,1.77-1.84,3.18-3.45,4.24ZM212.42,230.19c.16,0,.3.06.42.18s.18.26.18.43-.06.31-.18.43-.26.18-.42.18h-4.54c-.16,0-.3-.06-.42-.18s-.18-.26-.18-.43.06-.31.18-.43.26-.18.42-.18h4.54ZM211.49,244c.09,0,.14-.05.14-.14v-.63c0-.08-.05-.12-.14-.12h-2.18c-.09,0-.14.04-.14.12v.63c0,.09.05.14.14.14h2.18ZM211.14,232.95c0-.08-.05-.12-.14-.12h-1.49c-.08,0-.12.04-.12.12v.23c0,.08.04.12.12.12h1.49c.09,0,.14-.04.14-.12v-.23ZM209.38,234.58c0,.08.04.12.12.12h1.49c.09,0,.14-.04.14-.12v-.28c0-.08-.05-.12-.14-.12h-1.49c-.08,0-.12.04-.12.12v.28ZM217.33,230.19c.06-.02.12-.04.18-.04.09,0,.19.02.28.07l.42.21c.18.08.3.22.39.4.04.09.05.19.05.28s-.02.19-.07.28c-.2.52-.52,1.26-.97,2.23-.05.08-.04.15.04.21.81.81,1.21,1.58,1.21,2.32s-.25,1.29-.74,1.63c-.23.15-.53.26-.9.33l-.46.04h-.04c-.21,0-.39-.08-.54-.23-.18-.15-.3-.35-.37-.58-.05-.16-.02-.32.07-.47s.23-.22.4-.22h.18c.15,0,.29-.03.42-.09.18-.11.26-.32.26-.65s-.19-.71-.58-1.16c-.21-.25-.35-.52-.42-.81-.02-.13-.04-.26-.04-.39,0-.16.02-.33.07-.51.14-.42.28-.83.4-1.23.01-.04,0-.07,0-.1s-.04-.04-.08-.04h-1.18c-.09,0-.14.05-.14.14v6.49c0,.25-.08.45-.25.62s-.37.25-.61.25-.45-.08-.62-.25-.25-.37-.25-.62v-7.1c0-.28.1-.52.31-.73s.45-.31.73-.31h2.83Z" style="fill: #4b4c4e;"/>
        <path d="M224.68,234.41c.18-.25.4-.42.69-.51.13-.04.25-.05.37-.05.16,0,.32.03.47.09.25.11.41.29.49.54.04.09.05.18.05.26,0,.16-.05.32-.16.46-.3.43-.64.88-1,1.35-.06.07-.09.15-.09.23v8.72c0,.29-.1.54-.31.74s-.45.3-.73.3-.52-.1-.73-.3-.31-.45-.31-.74v-6.45s-.01-.04-.04-.04-.04,0-.05,0c-.25.23-.48.45-.7.65-.14.13-.3.19-.49.19-.06,0-.12,0-.18-.02-.26-.06-.45-.21-.58-.44-.04-.08-.08-.16-.12-.25-.11-.19-.16-.38-.16-.58,0-.07,0-.15.02-.23.06-.28.2-.51.42-.69,1.22-.98,2.26-2.07,3.13-3.25ZM224.06,230.57c.2-.23.45-.39.74-.47.13-.04.25-.05.37-.05.16,0,.33.03.49.09l.09.04c.25.09.4.27.47.53.01.07.02.14.02.21,0,.16-.05.32-.16.47-.97,1.18-2.06,2.23-3.27,3.13-.16.12-.33.18-.51.18-.08,0-.16-.01-.23-.04-.27-.06-.47-.21-.62-.46v-.02c-.11-.18-.16-.36-.16-.54,0-.08,0-.16.02-.25.06-.27.2-.49.42-.67.9-.67,1.68-1.38,2.32-2.14ZM233.31,243.83c0,.09.05.14.14.14h3.29c.28,0,.52.1.72.3s.3.44.3.72-.1.52-.3.72-.44.3-.72.3h-9.19c-.29,0-.54-.1-.74-.3s-.3-.44-.3-.72.1-.52.3-.72.45-.3.74-.3h3.36c.08,0,.12-.05.12-.14v-3.15c0-.09-.04-.14-.12-.14h-2.32c-.27,0-.5-.1-.69-.29s-.29-.43-.29-.7.1-.51.29-.7.42-.29.69-.29h2.32c.08,0,.12-.04.12-.12v-2.95c0-.09-.04-.14-.12-.14h-2.69c-.27,0-.5-.1-.7-.29s-.3-.43-.3-.71.1-.52.3-.72.43-.3.7-.3h4.24s.04,0,.04-.03,0-.03,0-.04c-.67-.55-1.46-1.09-2.37-1.62-.21-.13-.33-.32-.37-.56-.01-.05-.02-.09-.02-.12,0-.2.08-.37.23-.51.22-.22.49-.35.79-.39.07-.01.14-.02.21-.02.22,0,.43.05.63.16.8.42,1.51.86,2.13,1.3.25.16.37.4.37.7,0,.26-.09.47-.28.65l-.4.39s-.03.04-.02.06.03.03.05.03h2.65c.28,0,.52.1.71.3s.29.44.29.72-.1.52-.29.71-.43.29-.71.29h-2.64c-.09,0-.14.05-.14.14v2.95c0,.08.05.12.14.12h2.36c.27,0,.5.1.7.29s.29.43.29.7-.1.51-.29.7-.43.29-.7.29h-2.36c-.09,0-.14.05-.14.14v3.15Z" style="fill: #4b4c4e;"/>
        <path d="M251.17,232.37s0,.06.02.09.05.04.07.04h3.92c.28,0,.52.11.72.32.2.19.3.42.3.69,0,2.89-.14,5.8-.42,8.72-.15,1.62-.4,2.65-.76,3.11-.23.32-.48.54-.75.69s-.59.25-.98.32c-.34.05-.81.07-1.41.07-.12,0-.25,0-.39-.02-.29,0-.55-.1-.77-.3s-.38-.45-.47-.74c-.01-.05-.03-.09-.05-.14-.02-.08-.04-.16-.04-.23,0-.13.04-.25.11-.37.12-.18.28-.26.49-.26h.04c.48.02,1.03.04,1.65.04.32,0,.58-.1.79-.3.25-.28.44-1.14.58-2.57s.26-3.74.37-6.94c0-.08-.05-.12-.14-.12h-3.59c-.08,0-.14.04-.18.12-.29.66-.62,1.28-.97,1.86-.14.23-.35.37-.63.4-.06.01-.12.02-.18.02-.21,0-.4-.06-.58-.19-.13-.09-.28-.19-.46-.3-.02-.02-.05-.03-.07,0s-.04.04-.04.06v7.24c0,.28-.1.52-.31.73s-.45.31-.73.31h-3.64c-.09,0-.14.04-.14.12v.21c0,.27-.09.5-.28.69s-.42.28-.69.28-.5-.09-.69-.28-.28-.42-.28-.69v-11.36c0-.29.1-.54.3-.74s.45-.3.74-.3h.86c.09,0,.15-.05.16-.14.15-.56.28-1.14.37-1.74.05-.28.18-.51.4-.69.18-.14.38-.21.6-.21.05,0,.1,0,.16.02l.28.04c.27.04.47.17.62.4.08.14.12.28.12.42,0,.09-.02.19-.05.3-.19.54-.37,1.03-.54,1.48-.01.02,0,.05,0,.08s.04.04.08.04h1.62c.28,0,.52.1.73.3s.31.45.31.74v1.74s0,.04.03.04.03,0,.04-.03c.83-1.23,1.53-2.79,2.09-4.68.08-.28.25-.5.49-.65.16-.11.34-.16.53-.16.08,0,.17.01.26.04.28.07.5.22.65.46.09.16.14.33.14.49,0,.09-.02.19-.05.28-.09.34-.22.73-.39,1.16ZM245.3,237.41c.08,0,.12-.05.12-.14v-2.64c0-.09-.04-.14-.12-.14h-2.6c-.09,0-.14.05-.14.14v2.64c0,.09.05.14.14.14h2.6ZM242.56,242.67c0,.08.05.12.14.12h2.6c.08,0,.12-.04.12-.12v-3.27c0-.09-.04-.14-.12-.14h-2.6c-.09,0-.14.05-.14.14v3.27ZM252.7,239.8c.11.18.16.35.16.53,0,.09-.01.18-.04.26-.07.28-.23.5-.49.65l-.05.04c-.15.09-.31.14-.47.14-.09,0-.19-.01-.28-.04-.26-.08-.46-.25-.6-.49-.39-.68-.88-1.49-1.49-2.43-.09-.15-.14-.32-.14-.49,0-.07,0-.14.02-.21.06-.26.2-.45.42-.58.18-.09.35-.14.53-.14.08,0,.16,0,.25.02.26.06.47.2.63.42.64.91,1.17,1.69,1.56,2.32Z" style="fill: #4b4c4e;"/>
        <path d="M264.59,238.13c.14.21.21.45.21.7v.11c-.02.29-.13.54-.32.76-.12.14-.26.21-.44.21h-.11c-.22-.04-.38-.15-.47-.35-.15-.33-.31-.67-.47-1.02-.01-.01-.03-.02-.04-.02s-.03.01-.03.04v6.94c0,.28-.1.52-.3.72s-.44.3-.71.3-.51-.1-.71-.3-.3-.44-.3-.72v-4.94s0-.02-.03-.02-.03,0-.03.02c-.23.66-.49,1.27-.77,1.83-.11.19-.26.28-.47.26s-.35-.12-.45-.32l-.14-.28c-.13-.27-.19-.54-.19-.81,0-.33.09-.66.28-.98.7-1.23,1.29-2.77,1.76-4.61.02-.09.04-.18.04-.26v-.21c0-.08-.05-.12-.14-.12h-.83c-.27,0-.5-.1-.7-.29s-.29-.43-.29-.7.1-.51.29-.7.43-.29.7-.29h.83c.09,0,.14-.04.14-.12v-2.2c0-.28.1-.52.3-.72s.44-.3.71-.3.51.1.71.3.3.44.3.72v2.2c0,.08.05.12.14.12h.51c.27,0,.5.1.69.29s.29.42.29.69-.1.5-.29.69-.42.29-.69.29h-.51c-.09,0-.14.04-.14.12v.37c0,.09.03.18.09.25.34.47.87,1.25,1.58,2.36ZM275.01,241.27c.18.17.26.38.26.62s-.09.45-.26.62-.38.25-.62.25h-2.14s-.04.01-.05.04,0,.05.02.07c.63.71,1.47,1.25,2.51,1.6.22.07.37.22.44.44.02.07.04.14.04.21,0,.14-.05.27-.14.39-.02.04-.05.07-.09.11-.18.26-.4.44-.69.54-.14.05-.28.07-.4.07-.15,0-.3-.02-.44-.07-1.41-.59-2.48-1.55-3.23-2.9-.02-.02-.05-.04-.07-.04s-.04.01-.05.04c-.35.68-.86,1.27-1.52,1.76s-1.54.91-2.63,1.25c-.11.04-.21.05-.32.05-.16,0-.33-.04-.49-.12-.26-.12-.47-.3-.63-.56-.08-.14-.12-.28-.12-.4,0-.15.05-.29.14-.4s.21-.19.35-.23c1.44-.39,2.46-.96,3.04-1.72.01-.02.01-.05,0-.07s-.03-.04-.05-.04h-2.43c-.25,0-.46-.08-.62-.25s-.25-.38-.25-.62.08-.45.25-.62.38-.25.62-.25h3.11c.08,0,.13-.05.14-.14.05-.29.08-.54.11-.76.01-.09-.02-.14-.11-.14h-2.27c-.29,0-.54-.1-.74-.3s-.3-.45-.3-.74v-3.87c0-.28.1-.52.3-.73s.45-.31.74-.31h6.93c.28,0,.52.1.73.31s.31.45.31.73v3.87c0,.29-.1.54-.31.74s-.45.3-.73.3h-2.29c-.09,0-.15.05-.16.14-.02.18-.06.43-.11.76-.01.09.02.14.11.14h3.5c.23,0,.44.08.62.25ZM267.89,233.74c-.26,0-.47-.09-.65-.26s-.26-.39-.26-.65c0-.07-.04-.11-.12-.11h-1.11c-.25,0-.46-.09-.62-.26s-.25-.38-.25-.62.08-.45.25-.62.38-.26.62-.26h1.09c.09,0,.14-.04.14-.12v-.05c0-.28.1-.52.3-.72s.44-.3.72-.3.52.1.71.3.29.44.29.72v.05c0,.08.05.12.14.12h1.83c.08,0,.12-.04.12-.12v-.04c0-.29.1-.54.31-.74s.45-.3.73-.3h.02c.28,0,.52.1.73.3s.31.45.31.74v.04c0,.08.05.12.14.12h1c.23,0,.44.09.62.26s.26.38.26.62-.09.45-.26.62-.38.26-.62.26h-1.02c-.08,0-.12.04-.12.11,0,.26-.09.47-.26.65s-.39.26-.65.26h-.26c-.25,0-.46-.09-.64-.26s-.27-.39-.27-.65c0-.07-.04-.11-.11-.11h-1.86c-.08,0-.12.04-.12.11,0,.26-.09.47-.26.65s-.39.26-.63.26h-.21ZM267.49,235.51c-.09,0-.14.05-.14.14v.53c0,.08.05.12.14.12h4.68c.09,0,.14-.04.14-.12v-.53c0-.09-.05-.14-.14-.14h-4.68ZM267.49,237.69c-.09,0-.14.05-.14.14v.53c0,.08.05.12.14.12h4.68c.09,0,.14-.04.14-.12v-.53c0-.09-.05-.14-.14-.14h-4.68Z" style="fill: #4b4c4e;"/>
        <path d="M283.61,238.54c.15.23.23.49.23.76,0,.29-.09.56-.26.81-.11.15-.25.23-.42.23-.02,0-.05,0-.07-.02-.2-.01-.35-.11-.44-.3-.18-.38-.36-.76-.54-1.14-.01-.01-.02-.01-.04,0s-.02.01-.02.03v6.66c0,.27-.1.5-.29.69s-.42.28-.69.28-.5-.09-.69-.28-.28-.42-.28-.69v-5.62s0-.02-.02-.03-.02,0-.02,0c-.34.97-.7,1.82-1.07,2.53-.09.18-.23.26-.42.26h-.05c-.21-.02-.36-.13-.46-.32-.01-.01-.02-.02-.02-.04-.15-.29-.23-.58-.23-.86,0-.3.09-.62.26-.93.81-1.46,1.42-3.14,1.83-5.03.02-.08-.01-.12-.11-.12h-.88c-.27,0-.5-.1-.69-.29s-.29-.42-.29-.69.1-.5.29-.69.42-.29.69-.29h1.05c.08,0,.12-.05.12-.14v-2.6c0-.27.09-.5.28-.69s.42-.28.69-.28.5.09.69.28.29.42.29.69v2.6c0,.09.04.14.12.14h.69c.27,0,.5.1.69.29s.29.42.29.69-.1.5-.29.69-.42.29-.69.29h-.69c-.08,0-.12.05-.12.14v.53c0,.08.02.16.07.23.33.46.83,1.2,1.49,2.23ZM286.48,241.19c.19-.04.36-.02.53.05l.33.12c.16.07.28.18.36.34s.08.33.03.5c-.57,1.52-1.5,2.72-2.78,3.59-.14.09-.29.14-.46.14-.07,0-.14,0-.21-.02-.23-.06-.43-.19-.6-.39-.11-.13-.16-.28-.16-.44,0-.05,0-.09.02-.14.04-.21.15-.38.33-.51.68-.45,1.23-1.01,1.65-1.71.02-.02.03-.05,0-.07s-.04-.04-.06-.04h-1.11c-.2,0-.37-.07-.51-.21s-.21-.31-.21-.51.07-.37.21-.51.31-.21.51-.21h2.11ZM292.1,240.26c.2-.19.44-.29.72-.32h.09c.25,0,.47.07.67.21.19.14.28.33.28.58s-.1.44-.3.58c-.66.46-1.24.85-1.74,1.18-.08.05-.09.1-.02.16.59.59,1.24,1.07,1.97,1.44.21.12.34.29.39.53.02.06.04.11.04.16,0,.18-.06.33-.18.47-.19.22-.42.37-.69.44-.08.02-.16.04-.25.04-.19,0-.36-.05-.53-.16-.89-.59-1.68-1.34-2.36-2.27-.01-.02-.03-.03-.05-.03s-.04.02-.04.04v1.27c0,.47-.05.83-.16,1.08s-.31.45-.62.59c-.35.16-.87.26-1.56.28h-.04c-.23,0-.45-.08-.65-.23-.2-.16-.34-.38-.42-.65-.02-.07-.04-.14-.04-.21,0-.13.04-.25.11-.35.12-.18.29-.26.51-.26.29,0,.49,0,.58-.02.12,0,.2-.02.24-.05s.06-.11.06-.21v-3.83c0-.09-.05-.14-.14-.14h-2.09c-.2,0-.37-.07-.51-.21s-.21-.31-.21-.52.07-.38.21-.52.31-.21.51-.21h3.46s.02,0,.03-.02,0-.02,0-.04c-.63-.25-1.22-.46-1.76-.65-.15-.06-.25-.16-.3-.32s-.01-.29.11-.4c0-.01,0-.03,0-.04s-.01-.03-.03-.03h-2.79c-.22,0-.41-.08-.56-.23s-.23-.34-.23-.55.08-.4.23-.55.34-.23.56-.23h3.36c.09,0,.14-.04.14-.12v-.44c0-.09-.05-.14-.14-.14h-2.27c-.2,0-.37-.07-.51-.21s-.21-.31-.21-.51.07-.37.21-.52.31-.22.51-.22h2.27c.09,0,.14-.04.14-.12v-.4c0-.09-.05-.14-.14-.14h-2.88c-.21,0-.39-.07-.54-.22s-.22-.32-.22-.53.07-.38.22-.54.33-.23.54-.23h1.02s.04-.01.06-.04.02-.05,0-.07c-.09-.19-.2-.39-.32-.6-.07-.12-.11-.23-.11-.35,0-.08.02-.16.05-.23.07-.21.21-.35.4-.42.12-.05.24-.07.37-.07.11,0,.22.02.33.05.23.07.42.21.54.42.16.25.3.48.42.7.06.11.07.22.03.33s-.12.2-.24.25v.02h2.81c-.08-.04-.14-.09-.18-.18s-.03-.16.02-.23c.12-.21.23-.44.35-.69.13-.26.32-.45.58-.56.15-.08.31-.12.47-.12.11,0,.21.02.3.05.23.07.39.22.47.44.02.08.04.16.04.23,0,.14-.05.27-.14.39-.14.2-.28.39-.42.56-.01.02-.01.05,0,.07s.03.04.05.04h1.34c.21,0,.39.08.54.23s.22.33.22.54-.07.38-.22.53-.33.22-.54.22h-3.08c-.09,0-.14.05-.14.14v.4c0,.08.05.12.14.12h2.67c.2,0,.37.07.51.22s.21.32.21.52-.07.37-.21.51-.31.21-.51.21h-2.67c-.09,0-.14.05-.14.14v.44c0,.08.05.12.14.12h3.36c.21,0,.39.08.54.23s.23.34.23.55-.08.4-.23.55-.33.23-.54.23h-3.57s-.02,0-.03.02,0,.02,0,.04c.53.19.98.37,1.37.54.2.08.32.23.35.46.01.05.02.09.02.12,0,.16-.06.31-.18.44-.16.19-.37.3-.62.33-.07.01-.14.02-.21.02-.18,0-.34-.04-.49-.11l-.07-.04s-.05,0-.07,0-.04.04-.04.06v.65c0,.09.02.18.07.26.13.28.3.57.51.88.05.07.11.08.18.04.43-.35.84-.71,1.23-1.09Z" style="fill: #4b4c4e;"/>
        <path d="M301.95,234.68c1.62,0,2.92,1.31,2.92,2.92s-1.3,2.92-2.92,2.92-2.92-1.31-2.92-2.92,1.31-2.92,2.92-2.92ZM301.95,239.22c.9,0,1.62-.72,1.62-1.62s-.72-1.62-1.62-1.62-1.62.72-1.62,1.62.74,1.62,1.62,1.62Z" style="fill: #4b4c4e;"/>
      </g>
    </g>
  </g>
</svg>