<?xml version="1.0" encoding="UTF-8"?>
<svg id="_圖層_2" data-name="圖層 2" xmlns="http://www.w3.org/2000/svg" width="546.96" height="481.67" viewBox="0 0 546.96 481.67">
  <g id="_圖層_1-2" data-name="圖層 1">
    <g>
      <path d="M205.68,152.21h233.47c27.85,0,50.43-22.58,50.43-50.43v-49.85c0-27.85-22.58-50.43-50.43-50.43H51.93c-27.85,0-50.43,22.58-50.43,50.43v49.85c0,27.85,22.58,50.43,50.43,50.43h59.6s75.89,32.33,75.89,32.33c4.15,1.77,8.41-2.29,6.84-6.52l-9.56-25.81h20.99Z" style="fill: #fff; stroke: #1d7068; stroke-linecap: round; stroke-linejoin: round; stroke-width: 3px;"/>
      <g>
        <path d="M73.72,107.82c-1,0-1.85-.35-2.56-1.06s-1.06-1.56-1.06-2.56v-21.5c0-1,.35-1.86,1.06-2.59.71-.73,1.58-1.09,2.62-1.09h17c1,0,1.86.37,2.59,1.09.73.73,1.09,1.59,1.09,2.59v21.12c0,1-.37,1.86-1.09,2.59-.73.73-1.59,1.09-2.59,1.09h-1.38c-.71,0-1.31-.25-1.81-.75s-.75-1.1-.75-1.81c0-.21-.1-.31-.31-.31h-8.88c-.25,0-.38.12-.38.38,0,.75-.27,1.41-.81,1.97-.54.56-1.21.84-2,.84h-.75ZM86.85,86.82c0-.33-.15-.5-.44-.5h-8.62c-.33,0-.5.17-.5.5v10.06c0,.29.17.44.5.44h8.62c.29,0,.44-.15.44-.44v-10.06ZM112.72,50.57c1.04,0,1.92.35,2.62,1.06.71.71,1.06,1.58,1.06,2.62v15.75c0,1.04-.35,1.92-1.06,2.62s-1.58,1.06-2.62,1.06h-30.12c-1,0-1.87-.35-2.59-1.06-.73-.71-1.09-1.58-1.09-2.62v-15.75c0-1.04.36-1.92,1.09-2.62.73-.71,1.59-1.06,2.59-1.06h30.12ZM108.22,66.51c.29,0,.44-.17.44-.5v-7.69c0-.33-.15-.5-.44-.5h-21.5c-.29,0-.44.17-.44.5v7.69c0,.33.15.5.44.5h21.5ZM99.91,82.7c0-1,.35-1.86,1.06-2.59.71-.73,1.58-1.09,2.62-1.09h17.75c1.04,0,1.92.37,2.62,1.09.71.73,1.06,1.59,1.06,2.59v21.19c0,1-.35,1.86-1.06,2.59-.71.73-1.58,1.09-2.62,1.09h-1.38c-.71,0-1.32-.25-1.84-.75-.52-.5-.78-1.12-.78-1.88,0-.21-.1-.31-.31-.31h-9.5c-.21,0-.31.12-.31.38,0,.75-.28,1.41-.84,1.97s-1.24.84-2.03.84h-.81c-1,0-1.85-.35-2.56-1.06s-1.06-1.56-1.06-2.56v-21.5ZM107.22,96.89c0,.29.15.44.44.44h9.25c.29,0,.44-.15.44-.44v-10.06c0-.33-.15-.5-.44-.5h-9.25c-.29,0-.44.17-.44.5v10.06Z" style="fill: #1d7068;"/>
        <path d="M148.56,71.26c-.29,0-.44.17-.44.5v1.69c0,2.04-.02,3.62-.06,4.75,0,.29.15.44.44.44h7.94c1.04,0,1.92.37,2.62,1.09.71.73,1.06,1.59,1.06,2.59v22.19c0,.92-.33,1.71-1,2.38-.67.67-1.47,1-2.41,1s-1.73-.33-2.38-1c-.65-.67-.97-1.46-.97-2.38v-19c0-.29-.17-.44-.5-.44h-4.62c-.33,0-.5.15-.5.44-.54,7.75-1.5,14.17-2.88,19.25-.25.83-.77,1.44-1.56,1.81-.46.21-.92.31-1.38.31-.38,0-.77-.06-1.19-.19-.83-.29-1.48-.85-1.94-1.69-.25-.5-.38-1.02-.38-1.56,0-.29.04-.6.12-.94,2-7.12,3-16.81,3-29.06v-20.44c0-.92.32-1.7.97-2.34s1.42-.97,2.31-.97,1.67.32,2.31.97c.65.65.97,1.43.97,2.34v11.31c0,.33.15.5.44.5h3.12c.29,0,.44-.17.44-.5v-12.94c0-.88.32-1.63.97-2.28s1.43-.97,2.34-.97,1.7.32,2.34.97c.65.65.97,1.41.97,2.28v12.94c0,.33.15.5.44.5h.5c.92,0,1.69.31,2.31.94s.94,1.39.94,2.28-.31,1.66-.94,2.28-1.4.94-2.31.94h-11.12ZM194.12,88.89c.88,0,1.62.31,2.25.94s.94,1.38.94,2.25-.31,1.62-.94,2.22c-.62.6-1.38.91-2.25.91h-4.75c-.29,0-.44.17-.44.5v8.62c0,1-.34,1.84-1.03,2.53s-1.52,1.03-2.5,1.03-1.82-.34-2.53-1.03c-.71-.69-1.06-1.53-1.06-2.53v-8.62c0-.33-.15-.5-.44-.5h-16.38c-.88,0-1.62-.3-2.22-.91-.6-.6-.91-1.34-.91-2.22s.3-1.62.91-2.25c.6-.62,1.34-.94,2.22-.94h2c.08,0,.15-.04.19-.12.04-.08.02-.15-.06-.19-.21-.21-.44-.44-.69-.69-.5-.46-.75-1.02-.75-1.69v-.31c.12-.83.54-1.44,1.25-1.81,2.25-1.21,4.08-2.62,5.5-4.25.04-.04.05-.11.03-.22-.02-.1-.09-.16-.22-.16h-4.5c-1.04,0-1.92-.35-2.62-1.06-.71-.71-1.06-1.58-1.06-2.62v-18.06c0-1.04.35-1.92,1.06-2.62s1.58-1.06,2.62-1.06h5.88c.29,0,.5-.15.62-.44.29-.71.54-1.4.75-2.06.38-1,1-1.77,1.88-2.31.67-.46,1.38-.69,2.12-.69.25,0,.48.02.69.06l1.12.19c.88.17,1.52.65,1.94,1.44.17.38.25.75.25,1.12,0,.42-.12.83-.38,1.25-.21.38-.42.71-.62,1-.04.12-.04.23,0,.31.04.08.12.12.25.12h9.75c1.04,0,1.92.35,2.62,1.06.71.71,1.06,1.58,1.06,2.62v18.06c0,1.04-.35,1.92-1.06,2.62s-1.58,1.06-2.62,1.06h-10.94c-.29,0-.52.15-.69.44-2.04,3.67-5.23,6.6-9.56,8.81-.08,0-.12.03-.09.09.02.06.05.09.09.09h10.56c.29,0,.44-.17.44-.5v-4.06c0-1,.35-1.84,1.06-2.53.71-.69,1.55-1.03,2.53-1.03s1.81.34,2.5,1.03,1.03,1.53,1.03,2.53v4.06c0,.33.15.5.44.5h4.75ZM171.25,59.7c-.33,0-.5.17-.5.5v3.38c0,.33.17.5.5.5h4.88c.29,0,.44-.17.44-.5v-3.38c0-.33-.15-.5-.44-.5h-4.88ZM170.75,73.26c0,.29.17.44.5.44h4.12c.33,0,.54-.15.62-.44.21-1,.4-2.17.56-3.5,0-.29-.15-.44-.44-.44h-4.88c-.33,0-.5.15-.5.44v3.5ZM188.25,73.7c.33,0,.5-.15.5-.44v-3.5c0-.29-.17-.44-.5-.44h-4.81c-.29,0-.46.15-.5.44-.04,1.29-.15,2.46-.31,3.5-.04.29.08.44.38.44h5.25ZM188.25,64.07c.33,0,.5-.17.5-.5v-3.38c0-.33-.17-.5-.5-.5h-4.81c-.29,0-.44.17-.44.5v3.38c0,.33.15.5.44.5h4.81Z" style="fill: #1d7068;"/>
        <path d="M225.77,89.01c.33-.12.67-.19,1-.19.58,0,1.12.17,1.62.5.83.46,1.33,1.17,1.5,2.12.04.25.06.52.06.81,0,.71-.19,1.42-.56,2.12-.54.88-1.31,1.48-2.31,1.81-3.29,1.17-7.94,2.71-13.94,4.62-.33.12-.69.19-1.06.19-.54,0-1.08-.17-1.62-.5-.83-.5-1.38-1.23-1.62-2.19l-.12-.5c-.04-.33-.06-.62-.06-.88,0-.71.19-1.38.56-2,.54-.88,1.31-1.44,2.31-1.69,1.25-.33,2.5-.69,3.75-1.06.33-.08.5-.27.5-.56v-14.12c0-.29-.17-.44-.5-.44h-2.5c-.96,0-1.78-.34-2.47-1.03s-1.03-1.51-1.03-2.47.34-1.78,1.03-2.47,1.51-1.03,2.47-1.03h2.5c.33,0,.5-.17.5-.5v-10.31c0-.29-.17-.44-.5-.44h-3c-1,0-1.84-.35-2.53-1.06-.69-.71-1.03-1.55-1.03-2.53s.34-1.81,1.03-2.5,1.53-1.03,2.53-1.03h14c1,0,1.84.34,2.53,1.03s1.03,1.52,1.03,2.5-.34,1.82-1.03,2.53c-.69.71-1.53,1.06-2.53,1.06h-2.81c-.33,0-.5.15-.5.44v10.31c0,.33.17.5.5.5h1.81c.96,0,1.77.34,2.44,1.03.67.69,1,1.51,1,2.47s-.33,1.78-1,2.47c-.67.69-1.48,1.03-2.44,1.03h-1.81c-.33,0-.5.15-.5.44v11.88c0,.12.05.22.16.28.1.06.2.07.28.03,1-.29,1.79-.52,2.38-.69ZM252.77,98.45c0,.33.17.5.5.5h11.81c.96,0,1.77.33,2.44,1,.67.67,1,1.48,1,2.44s-.33,1.77-1,2.44c-.67.67-1.48,1-2.44,1h-34.25c-.96,0-1.77-.33-2.44-1s-1-1.48-1-2.44.33-1.77,1-2.44,1.48-1,2.44-1h13.75c.33,0,.5-.17.5-.5v-5.12c0-.33-.17-.5-.5-.5h-9.38c-.92,0-1.71-.33-2.38-1-.67-.67-1-1.47-1-2.41s.33-1.74,1-2.41,1.46-1,2.38-1h9.38c.33,0,.5-.17.5-.5v-4.56c0-.29-.17-.44-.5-.44h-8.62c-1.04,0-1.92-.36-2.62-1.09-.71-.73-1.06-1.59-1.06-2.59v-22.38c0-1.04.35-1.92,1.06-2.62s1.58-1.06,2.62-1.06h26c1.04,0,1.92.35,2.62,1.06.71.71,1.06,1.58,1.06,2.62v22.38c0,1-.35,1.87-1.06,2.59-.71.73-1.58,1.09-2.62,1.09h-8.69c-.33,0-.5.15-.5.44v4.56c0,.33.17.5.5.5h9.69c.92,0,1.72.33,2.41,1,.69.67,1.03,1.47,1.03,2.41s-.34,1.74-1.03,2.41c-.69.67-1.49,1-2.41,1h-9.69c-.33,0-.5.17-.5.5v5.12ZM239.59,57.2c-.33,0-.5.17-.5.5v4.38c0,.29.17.44.5.44h5.62c.33,0,.5-.15.5-.44v-4.38c0-.33-.17-.5-.5-.5h-5.62ZM239.59,68.51c-.33,0-.5.17-.5.5v4.56c0,.29.17.44.5.44h5.62c.33,0,.5-.15.5-.44v-4.56c0-.33-.17-.5-.5-.5h-5.62ZM257.96,62.51c.33,0,.5-.15.5-.44v-4.38c0-.33-.17-.5-.5-.5h-5.38c-.33,0-.5.17-.5.5v4.38c0,.29.17.44.5.44h5.38ZM257.96,74.01c.33,0,.5-.15.5-.44v-4.56c0-.33-.17-.5-.5-.5h-5.38c-.33,0-.5.17-.5.5v4.56c0,.29.17.44.5.44h5.38Z" style="fill: #1d7068;"/>
        <path d="M300.3,67.32c-.88,0-1.62-.3-2.22-.91-.6-.6-.91-1.34-.91-2.22,0-.08-.04-.15-.12-.19-.08-.04-.17-.04-.25,0-3.29,2.04-6.81,3.85-10.56,5.44-.5.21-1,.31-1.5.31-.46,0-.92-.08-1.38-.25-1-.38-1.77-1-2.31-1.88-.08-.17-.17-.31-.25-.44-.33-.5-.5-1.02-.5-1.56,0-.29.04-.58.12-.88.25-.83.79-1.42,1.62-1.75,3.75-1.5,7.33-3.32,10.75-5.47,3.42-2.15,6.31-4.38,8.69-6.72,1.88-1.79,3.94-2.69,6.19-2.69h.5c2.33,0,4.44.85,6.31,2.56,5.71,5.17,12.58,9.1,20.62,11.81.83.29,1.38.85,1.62,1.69.08.29.12.58.12.88,0,.5-.15,1-.44,1.5-.21.25-.4.52-.56.81-.58.92-1.38,1.54-2.38,1.88-.46.17-.92.25-1.38.25-.54,0-1.06-.1-1.56-.31-3.58-1.5-7.1-3.29-10.56-5.38-.08-.04-.17-.04-.25,0-.08.04-.12.1-.12.19,0,.92-.32,1.7-.97,2.34s-1.43.97-2.34.97h-16ZM287.55,102.95c-.71.83-1.6,1.29-2.69,1.38-.12.04-.27.06-.44.06-.92,0-1.77-.29-2.56-.88l-.25-.19c-.83-.54-1.25-1.33-1.25-2.38,0-.83.27-1.56.81-2.19,1.96-2.25,3.5-5,4.62-8.25.33-.96.92-1.67,1.75-2.12.54-.29,1.08-.44,1.62-.44.33,0,.69.06,1.06.19.96.29,1.69.88,2.19,1.75.29.58.44,1.15.44,1.69,0,.38-.06.75-.19,1.12-1.29,4.25-3,7.67-5.12,10.25ZM322.36,70.2c.25-.04.48-.06.69-.06.46,0,.92.12,1.38.38l1.56,1c.71.46,1.19,1.08,1.44,1.88.08.29.12.58.12.88,0,.5-.12.98-.38,1.44-1.79,3.29-3.98,6.65-6.56,10.06-.58.79-1.35,1.25-2.31,1.38-.21.04-.42.06-.62.06-.75,0-1.44-.21-2.06-.62-.75-.46-1.23-1.12-1.44-2-.04-.21-.06-.44-.06-.69,0-.58.19-1.15.56-1.69,1.12-1.54,2.21-3.25,3.25-5.12.04-.08.04-.18,0-.28-.04-.1-.12-.16-.25-.16h-26.94c-.88,0-1.62-.31-2.25-.94s-.94-1.38-.94-2.25.31-1.62.94-2.25,1.38-.94,2.25-.94h31.38c.08,0,.17-.02.25-.06ZM305.86,100.07h7.56c.88,0,1.5-.2,1.88-.59.38-.4.65-1.24.81-2.53.08-.79.48-1.4,1.19-1.81.42-.21.83-.31,1.25-.31.33,0,.67.06,1,.19,1.04.42,1.85,1.06,2.44,1.94.42.67.62,1.35.62,2.06,0,.25-.02.5-.06.75-.54,2.75-1.43,4.62-2.66,5.62-1.23,1-3.16,1.5-5.78,1.5h-9.12c-3.83,0-6.4-.62-7.69-1.84-1.29-1.23-1.94-3.55-1.94-6.97v-6.62c0-1.04.36-1.92,1.09-2.62.73-.71,1.59-1.06,2.59-1.06h.19c1,0,1.86.35,2.59,1.06.73.71,1.09,1.58,1.09,2.62v6.56c0,.92.18,1.49.53,1.72.35.23,1.16.34,2.41.34ZM301.86,86.45c-.75-.46-1.19-1.1-1.31-1.94-.04-.17-.06-.33-.06-.5,0-.62.25-1.19.75-1.69.71-.79,1.56-1.27,2.56-1.44.29-.04.58-.06.88-.06.71,0,1.4.17,2.06.5,2.42,1.33,4.58,2.73,6.5,4.19.79.67,1.19,1.54,1.19,2.62,0,.96-.33,1.79-1,2.5l-.06.06c-.71.71-1.56,1.06-2.56,1.06s-1.94-.31-2.69-.94c-1.79-1.54-3.88-3-6.25-4.38ZM301.05,61.14s-.05.1-.03.19c.02.08.07.12.16.12h14.62c.08,0,.13-.04.16-.12.02-.08,0-.15-.03-.19-2.88-2-5.31-4.02-7.31-6.06-.21-.25-.42-.25-.62,0-1.88,2.04-4.19,4.06-6.94,6.06ZM322.86,92.45c-.54-.58-.81-1.25-.81-2,0-.12.02-.27.06-.44.12-.92.58-1.6,1.38-2.06.75-.46,1.54-.69,2.38-.69h.62c1.04.12,1.94.58,2.69,1.38,3.08,3.12,5.5,6.1,7.25,8.94.38.62.56,1.25.56,1.88,0,.33-.04.67-.12,1-.29,1-.9,1.79-1.81,2.38l-.5.31c-.54.33-1.1.5-1.69.5-.33,0-.65-.06-.94-.19-.92-.25-1.62-.81-2.12-1.69-1.75-3-4.06-6.1-6.94-9.31Z" style="fill: #1d7068;"/>
        <path d="M357.45,103.14c-1.67,0-3.05-.58-4.16-1.75-1.1-1.17-1.66-2.62-1.66-4.38s.55-3.21,1.66-4.38c1.1-1.17,2.49-1.75,4.16-1.75s3.06.58,4.19,1.75c1.12,1.17,1.69,2.62,1.69,4.38s-.56,3.21-1.69,4.38-2.52,1.75-4.19,1.75Z" style="fill: #1d7068;"/>
        <path d="M384.6,103.14c-1.67,0-3.05-.58-4.16-1.75-1.1-1.17-1.66-2.62-1.66-4.38s.55-3.21,1.66-4.38c1.1-1.17,2.49-1.75,4.16-1.75s3.06.58,4.19,1.75c1.12,1.17,1.69,2.62,1.69,4.38s-.56,3.21-1.69,4.38-2.52,1.75-4.19,1.75Z" style="fill: #1d7068;"/>
        <path d="M411.75,103.14c-1.67,0-3.05-.58-4.16-1.75-1.1-1.17-1.66-2.62-1.66-4.38s.55-3.21,1.66-4.38c1.1-1.17,2.49-1.75,4.16-1.75s3.06.58,4.19,1.75c1.12,1.17,1.69,2.62,1.69,4.38s-.56,3.21-1.69,4.38-2.52,1.75-4.19,1.75Z" style="fill: #1d7068;"/>
      </g>
      <g>
        <path d="M73.67,265.86c-.55,0-1.03-.2-1.43-.6-.4-.4-.6-.88-.6-1.43v-18.5c0-.58.2-1.06.6-1.45.4-.39.88-.59,1.43-.59h7.77c.53,0,.98.18,1.35.55.37.37.55.82.55,1.35s-.18.98-.55,1.35-.82.55-1.35.55h-5.35c-.18,0-.28.09-.28.28v16.47c0,.55-.2,1.03-.59,1.43-.39.4-.88.6-1.45.6h-.1Z" style="fill: #4b4c4e;"/>
        <path d="M111.54,265.48c.11-.02.23-.03.34-.03.35,0,.66.1.93.31.39.3.61.69.66,1.17v.17c0,.46-.13.88-.38,1.24-.3.41-.7.69-1.21.83-2.88.71-5.79,1.42-8.73,2.11-.18.02-.34.03-.48.03-.39,0-.75-.1-1.07-.31-.48-.3-.79-.71-.93-1.24v-.07c-.05-.16-.07-.32-.07-.48,0-.35.1-.68.31-1,.3-.46.71-.75,1.24-.86.6-.11,1.44-.28,2.52-.48.18-.02.28-.13.28-.31v-6.49c0-.16-.09-.24-.28-.24h-1.59c-.53,0-.98-.19-1.36-.57-.38-.38-.57-.83-.57-1.36s.19-.98.57-1.36c.38-.38.83-.57,1.36-.57h1.59c.18,0,.28-.08.28-.24v-5.45c0-.18-.09-.28-.28-.28h-1.93c-.53,0-.98-.19-1.36-.57-.38-.38-.57-.84-.57-1.38s.19-1,.57-1.38c.38-.38.83-.57,1.36-.57h8.49c.53,0,.98.19,1.36.57s.57.84.57,1.38-.19,1-.57,1.38-.83.57-1.36.57h-1.97c-.16,0-.24.09-.24.28v5.45c0,.16.08.24.24.24h2.66c.07,0,.12-.02.14-.07.02-.05.02-.09,0-.14-.05-.07-.08-.14-.1-.21-.21-.35-.31-.71-.31-1.1,0-.14.01-.28.03-.41.09-.53.36-.96.79-1.28,1.33-.99,2.61-2.15,3.81-3.47,1.21-1.32,2.24-2.68,3.09-4.06.32-.51.74-.91,1.24-1.21.51-.3,1.04-.45,1.59-.45,1.24,0,2.23.53,2.97,1.59,2.19,3.11,4.63,5.56,7.32,7.35.44.3.72.71.86,1.24.02.16.04.31.04.45,0,.37-.09.71-.28,1.04-.05.07-.09.14-.14.21-.28.48-.68.79-1.21.93-.14.02-.29.03-.45.03-.34,0-.67-.11-.97-.35-1.52-1.13-2.98-2.44-4.38-3.94-1.4-1.5-2.55-2.96-3.45-4.38-.05-.05-.1-.07-.15-.07s-.1.02-.12.07c-.99,1.61-2.26,3.23-3.8,4.87-1.54,1.63-3.17,3.04-4.87,4.21-.18.14-.38.17-.6.1-.22-.07-.39-.21-.5-.41-.02,0-.04.01-.04.03v1.24c0,.55-.2,1.03-.6,1.43-.4.4-.88.6-1.43.6h-1.14c-.16,0-.24.08-.24.24v5.66c0,.18.08.25.24.21l2.28-.45ZM127.94,264.48c.35-.48.79-.82,1.35-1,.25-.07.51-.1.76-.1.3,0,.59.06.86.17.51.21.84.55,1,1.04.07.18.1.37.1.55,0,.3-.09.6-.28.9-3.08,4.42-7.91,7.7-14.46,9.84-.23.07-.46.1-.69.1-.32,0-.63-.06-.93-.17-.55-.23-.99-.6-1.31-1.1-.07-.09-.14-.18-.21-.28-.16-.25-.24-.52-.24-.79,0-.14.02-.29.07-.45.14-.44.43-.71.86-.83,6.01-1.61,10.38-4.23,13.12-7.87ZM121.2,254.33c.42-.37.87-.61,1.38-.73.18-.05.37-.07.55-.07.32,0,.63.06.93.17.41.18.68.48.79.9.02.12.04.23.04.35,0,.3-.12.56-.35.79-1.66,1.79-3.62,3.4-5.9,4.8-.34.21-.7.31-1.07.31-.14,0-.29-.01-.45-.03-.53-.11-.98-.38-1.35-.79-.25-.28-.38-.59-.38-.93v-.24c.07-.44.3-.76.69-.97,2.02-1.08,3.73-2.27,5.11-3.56ZM124.66,259.02c.37-.41.82-.69,1.35-.83.21-.05.41-.07.62-.07.32,0,.63.06.93.17.46.21.75.54.86,1,.02.14.03.26.03.38,0,.32-.1.62-.31.9-2.44,2.9-5.56,5.37-9.36,7.42-.32.18-.66.28-1,.28-.21,0-.4-.03-.59-.1-.55-.14-1.01-.44-1.38-.9-.02,0-.03-.01-.03-.03-.23-.28-.34-.59-.34-.93,0-.09.01-.2.03-.31.09-.46.36-.79.79-1,3.45-1.61,6.25-3.6,8.39-5.97Z" style="fill: #4b4c4e;"/>
        <path d="M142.07,259.2c-.09.39-.31.68-.66.86-.21.09-.41.14-.62.14-.16,0-.32-.02-.48-.07-.37-.14-.64-.39-.83-.76-.12-.23-.17-.46-.17-.69,0-.14.02-.29.07-.45.51-1.84.9-4,1.17-6.49.04-.37.21-.66.48-.88.28-.22.59-.31.93-.26.39.05.7.22.93.52.23.3.33.63.31,1-.21,2.51-.59,4.87-1.14,7.08ZM167.75,254.29c0,.16.08.24.24.24h2.45c.53,0,.98.18,1.35.55.37.37.55.82.55,1.35s-.19.98-.55,1.35c-.37.37-.82.55-1.35.55h-17.09c-.53,0-.98-.19-1.36-.57-.38-.38-.57-.85-.57-1.4,0-.05-.03-.09-.09-.12s-.11-.04-.16-.02l-.17.1c-.25.12-.5.17-.74.17s-.48-.06-.71-.17c-.48-.23-.81-.6-.97-1.1-.25-.78-.56-1.63-.93-2.55,0-.02-.02-.03-.05-.03s-.05.01-.05.03v21.65c0,.55-.2,1.02-.59,1.42-.39.39-.86.59-1.42.59s-1.02-.2-1.4-.59c-.38-.39-.57-.86-.57-1.42v-28.86c0-.55.19-1.02.57-1.42.38-.39.85-.59,1.4-.59s1.02.2,1.42.59c.39.39.59.86.59,1.42v4.63c0,.12.06.15.17.1.21-.09.42-.14.62-.14s.4.03.59.1c.39.16.68.44.86.83.71,1.61,1.24,3.02,1.59,4.21.02,0,.03-.01.03-.03,0-.16.06-.3.19-.43s.27-.19.43-.19h3.38c.18,0,.28-.08.28-.24v-2.83c0-.16-.09-.24-.28-.24h-1.31c-.51,0-.94-.18-1.31-.54-.37-.36-.55-.79-.55-1.29s.18-.94.55-1.31c.37-.37.81-.55,1.31-.55h1.31c.18,0,.28-.08.28-.24v-1.76c0-.57.2-1.06.59-1.45.39-.39.87-.59,1.43-.59s1.05.2,1.45.59c.4.39.6.88.6,1.45v1.76c0,.16.08.24.24.24h3.38c.16,0,.24-.08.24-.24v-1.76c0-.57.2-1.06.6-1.45.4-.39.88-.59,1.43-.59h.03c.55,0,1.03.2,1.43.59.4.39.6.88.6,1.45v1.76c0,.16.08.24.24.24h1.66c.51,0,.94.18,1.31.55.37.37.55.81.55,1.31s-.18.94-.55,1.29c-.37.36-.81.54-1.31.54h-1.66c-.16,0-.24.08-.24.24v2.83ZM155.88,276.46c-.55,0-1.03-.2-1.42-.59-.39-.39-.59-.87-.59-1.45v-12.08c0-.55.2-1.03.59-1.43.39-.4.88-.6,1.45-.6l12.43-.03c.55,0,1.03.2,1.43.6.4.4.6.88.6,1.43v12.08c0,.58-.2,1.06-.6,1.45-.4.39-.88.59-1.43.59h-1.1c-.32,0-.59-.11-.81-.33-.22-.22-.33-.49-.33-.81,0-.09-.05-.14-.14-.14h-7.87c-.12,0-.17.05-.17.14,0,.32-.11.6-.33.83-.22.23-.49.35-.81.35h-.9ZM166.1,264c0-.18-.09-.28-.28-.28h-7.63c-.18,0-.28.09-.28.28v1.83c0,.16.09.24.28.24h7.63c.18,0,.28-.08.28-.24v-1.83ZM157.92,271.52c0,.18.09.28.28.28h7.63c.18,0,.28-.09.28-.28v-1.86c0-.18-.09-.28-.28-.28h-7.63c-.18,0-.28.09-.28.28v1.86ZM160.02,251.22c-.16,0-.24.08-.24.24v2.83c0,.16.08.24.24.24h3.38c.16,0,.24-.08.24-.24v-2.83c0-.16-.08-.24-.24-.24h-3.38Z" style="fill: #4b4c4e;"/>
        <path d="M183.51,255.36c.16,0,.24-.09.24-.28v-2c0-.07-.02-.11-.05-.12-.04-.01-.07,0-.12.02-.14.14-.25.25-.34.35-.44.39-.93.59-1.48.59h-.03c-.58-.02-1.11-.22-1.59-.59-.09-.07-.17-.14-.24-.21-.39-.3-.59-.7-.59-1.21s.2-.92.59-1.24c1.86-1.54,3.44-3.36,4.73-5.45.3-.51.72-.87,1.28-1.1.3-.14.62-.21.97-.21.21,0,.43.03.66.1l.21.07c.51.14.86.46,1.07.97.09.21.14.41.14.62,0,.25-.07.52-.21.79-.09.14-.19.29-.28.45-.05.05-.05.09-.02.14.03.05.08.07.12.07h19.09c.51,0,.94.18,1.31.55s.55.81.55,1.31-.18.94-.55,1.31c-.37.37-.81.55-1.31.55h-1.21c-.16,0-.24.08-.24.24v4c0,.18.08.28.24.28h2.49c.51,0,.94.18,1.31.55.37.37.55.81.55,1.33s-.18.96-.55,1.31c-.37.36-.81.54-1.31.54h-2.49c-.16,0-.24.09-.24.28v3.97c0,.16.08.24.24.24h1.97c.53,0,.97.18,1.33.55.36.37.54.81.54,1.33s-.18.96-.54,1.33c-.36.37-.8.55-1.33.55h-26.96c-.53,0-.97-.18-1.33-.55-.36-.37-.54-.81-.54-1.33s.18-.96.54-1.33c.36-.37.8-.55,1.33-.55h2.07c.16,0,.24-.08.24-.24v-3.97c0-.18-.08-.28-.24-.28h-2.59c-.53,0-.98-.18-1.35-.54-.37-.36-.55-.79-.55-1.31s.18-.96.55-1.33c.37-.37.82-.55,1.35-.55h2.59ZM183.96,274.9c-.34.48-.82.81-1.42.97-.23.05-.46.07-.69.07-.37,0-.73-.07-1.07-.21l-.21-.1c-.46-.18-.75-.52-.86-1-.02-.12-.03-.24-.03-.38,0-.32.1-.63.31-.93.74-.99,1.38-2.09,1.93-3.31.23-.55.6-.97,1.1-1.24.35-.18.7-.28,1.07-.28.16,0,.33.02.52.07l.1.03c.55.14.95.45,1.21.93.16.28.24.55.24.83,0,.21-.05.43-.14.66-.58,1.43-1.27,2.73-2.07,3.9ZM187.72,250.84c-.16,0-.24.08-.24.24v4c0,.18.08.28.24.28h2.04c.18,0,.28-.09.28-.28v-4c0-.16-.09-.24-.28-.24h-2.04ZM187.72,259.09c-.16,0-.24.09-.24.28v3.97c0,.16.08.24.24.24h2.04c.18,0,.28-.08.28-.24v-3.97c0-.18-.09-.28-.28-.28h-2.04ZM189.28,271.28c-.02-.09-.03-.18-.03-.28,0-.44.14-.83.41-1.17.32-.44.75-.68,1.28-.73.09-.02.18-.03.28-.03.44,0,.84.14,1.21.41.46.32.74.76.83,1.31.14.94.25,1.83.35,2.66v.24c0,.46-.15.89-.45,1.28-.37.44-.84.7-1.42.79h-.07c-.09.02-.18.03-.28.03-.44,0-.82-.14-1.14-.41-.41-.37-.64-.82-.69-1.35-.07-.9-.16-1.82-.28-2.76ZM193.52,255.09c0,.18.09.28.28.28h2.07c.18,0,.28-.09.28-.28v-4c0-.16-.09-.24-.28-.24h-2.07c-.18,0-.28.08-.28.24v4ZM196.15,259.37c0-.18-.09-.28-.28-.28h-2.07c-.18,0-.28.09-.28.28v3.97c0,.16.09.24.28.24h2.07c.18,0,.28-.08.28-.24v-3.97ZM196.59,271.28c-.05-.18-.07-.36-.07-.52,0-.32.08-.62.24-.9.28-.46.67-.72,1.17-.79.14-.05.29-.07.45-.07.41,0,.8.12,1.17.35.53.28.88.69,1.07,1.24.32.94.61,1.85.86,2.73.04.18.07.36.07.52,0,.35-.1.68-.31,1-.3.46-.72.74-1.28.83l-.21.07c-.14.02-.28.03-.41.03-.39,0-.76-.13-1.11-.38-.46-.3-.75-.73-.86-1.28-.21-.87-.47-1.82-.79-2.83ZM202.08,255.36c.16,0,.24-.09.24-.28v-4c0-.16-.08-.24-.24-.24h-2.17c-.18,0-.28.08-.28.24v4c0,.18.09.28.28.28h2.17ZM202.08,263.58c.16,0,.24-.08.24-.24v-3.97c0-.18-.08-.28-.24-.28h-2.17c-.18,0-.28.09-.28.28v3.97c0,.16.09.24.28.24h2.17ZM204.08,270.9c-.16-.25-.24-.53-.24-.83,0-.16.02-.33.07-.52.18-.48.52-.81,1-.97l.14-.03c.28-.09.56-.14.86-.14s.59.05.86.14c.6.21,1.07.55,1.42,1.04.92,1.33,1.69,2.54,2.31,3.62.14.25.21.52.21.79,0,.23-.04.45-.1.66-.21.48-.58.82-1.11,1l-.45.14c-.23.09-.46.14-.69.14-.3,0-.6-.07-.9-.21-.53-.23-.93-.6-1.21-1.1-.6-1.13-1.32-2.37-2.18-3.73Z" style="fill: #4b4c4e;"/>
        <path d="M232.92,261.61c0,.58-.2,1.06-.59,1.45-.39.39-.88.59-1.45.59h-7.53c-.16,0-.25.09-.28.28-.23,4.47-.96,8.06-2.18,10.77-.21.46-.58.74-1.1.83-.09.02-.2.03-.31.03-.39,0-.75-.13-1.07-.38-.02-.02-.06-.05-.1-.07-.44-.35-.73-.78-.86-1.31-.07-.23-.1-.45-.1-.66,0-.32.07-.64.21-.97,1.08-2.65,1.62-6.5,1.62-11.56v-6.94c0-.55.2-1.03.6-1.43.4-.4.88-.6,1.43-.6h9.67c.58,0,1.06.2,1.45.6.39.4.59.88.59,1.43v7.94ZM231.75,245.18c.53,0,.98.18,1.35.55.37.37.55.82.55,1.35s-.18.98-.55,1.35c-.37.37-.82.55-1.35.55h-11.81c-.53,0-.98-.18-1.36-.55-.38-.37-.57-.82-.57-1.35s.19-.98.57-1.35c.38-.37.83-.55,1.36-.55h11.81ZM228.89,255.64c0-.16-.09-.24-.28-.24h-5.18c-.16,0-.24.08-.24.24v3.97c0,.18.08.28.24.28h5.18c.18,0,.28-.09.28-.28v-3.97ZM248.29,255.36c.57,0,1.06.2,1.45.59.39.39.59.87.59,1.43s-.2,1.05-.59,1.45c-.39.4-.88.6-1.45.6h-.83c-.18,0-.28.08-.28.24v14.74c0,.58-.2,1.06-.59,1.45-.39.39-.88.59-1.45.59h-.1c-.55,0-1.03-.2-1.43-.59-.4-.39-.6-.87-.6-1.45v-14.74c0-.16-.08-.24-.24-.24h-3.59c-.16,0-.25.08-.28.24-.41,6.44-2.07,11.51-4.97,15.19-.32.39-.74.59-1.24.59h-.03c-.53,0-1-.2-1.42-.59-.05-.05-.08-.08-.1-.1-.41-.37-.64-.81-.69-1.31-.02-.09-.04-.18-.04-.28,0-.41.14-.79.41-1.14.88-1.15,1.6-2.4,2.18-3.76.57-1.36.99-2.76,1.24-4.19.25-1.44.43-2.74.52-3.9s.14-2.45.14-3.85v-7.7c0-.53.2-.95.59-1.28.3-.23.63-.35,1-.35.12,0,.24.01.38.03l.66.17c.18.02.36.01.52-.03,2.53-.74,4.73-1.55,6.59-2.45.44-.21.9-.31,1.38-.31.12,0,.23.01.35.03.62.05,1.15.26,1.59.66l.62.55c.32.25.48.58.48.97,0,.07-.01.14-.03.21-.07.46-.32.78-.76.97-2.65,1.1-5.65,2.07-9.01,2.9-.16.05-.24.15-.24.31v4.07c0,.18.08.28.24.28h9.04Z" style="fill: #4b4c4e;"/>
        <path d="M274.95,256.78c0,.07.02.12.07.14s.08.01.1-.03l.86-.73c.46-.37.99-.56,1.59-.59h.1c.55,0,1.06.16,1.52.48,3.84,2.83,6.74,5.14,8.7,6.94.37.37.55.82.55,1.35,0,.58-.22,1.06-.66,1.45l-.52.52c-.39.35-.84.52-1.35.52-.05,0-.09-.01-.14-.03-.55-.02-1.02-.23-1.42-.62-2.23-2.25-5.32-4.9-9.25-7.94-.02-.02-.06-.02-.1,0-.05.02-.07.06-.07.1v16.02c0,.55-.2,1.03-.6,1.43-.4.4-.88.6-1.43.6h-.55c-.55,0-1.03-.2-1.43-.6-.4-.4-.6-.88-.6-1.43v-14.95s-.02-.08-.05-.1c-.03-.02-.07-.01-.12.03-2.9,3.08-5.99,5.59-9.29,7.53-.32.18-.67.28-1.04.28-.16,0-.33-.02-.52-.07-.55-.14-1-.45-1.35-.93-.16-.18-.31-.37-.45-.55-.23-.32-.34-.66-.34-1,0-.11.01-.24.03-.38.09-.48.36-.85.79-1.1,2.69-1.5,5.2-3.37,7.51-5.63,2.31-2.26,4.24-4.63,5.78-7.11.04-.05.05-.1.02-.16-.03-.06-.08-.09-.12-.09h-11.81c-.58,0-1.06-.2-1.45-.59-.39-.39-.59-.87-.59-1.45v-.24c0-.55.2-1.03.59-1.43.39-.4.88-.6,1.45-.6h26.55c.57,0,1.06.2,1.45.6.39.4.59.88.59,1.43v.24c0,.58-.2,1.06-.59,1.45-.39.39-.88.59-1.45.59h-8.7c-.16,0-.29.08-.38.24-.48.88-1.07,1.81-1.76,2.8-.09.14-.14.3-.14.48v3.14Z" style="fill: #4b4c4e;"/>
        <path d="M310.14,248.08c-.02.07-.02.13.02.17.04.05.07.07.12.07h14.95c.55,0,1.03.2,1.43.59.4.39.6.87.6,1.43s-.2,1.04-.6,1.43c-.4.39-.88.59-1.43.59h-16.64c-.16,0-.28.08-.35.24-1.22,2.49-2.51,4.65-3.87,6.49-.12.16-.17.32-.17.48v14.81c0,.58-.2,1.06-.6,1.45-.4.39-.88.59-1.43.59h-.21c-.55,0-1.03-.2-1.43-.59-.4-.39-.61-.88-.61-1.45v-10.01s-.02-.08-.07-.1c-.05-.02-.08-.01-.1.03-.41.37-.85.72-1.31,1.07-.28.23-.59.35-.93.35-.14,0-.28-.02-.41-.07-.51-.11-.89-.41-1.14-.9-.07-.16-.14-.31-.21-.45-.19-.35-.28-.7-.28-1.07,0-.18.02-.36.07-.52.12-.55.39-1.01.83-1.38,2.76-2.19,5.11-5.11,7.04-8.77.02-.05.02-.09,0-.14-.02-.05-.07-.07-.14-.07h-5.39c-.55,0-1.03-.2-1.43-.59-.4-.39-.6-.87-.6-1.43s.2-1.04.6-1.43c.4-.39.88-.59,1.43-.59h7.25c.18,0,.3-.08.35-.24.35-.97.66-1.88.93-2.73.16-.53.48-.94.97-1.24.35-.18.7-.28,1.07-.28.16,0,.32.01.48.03l.48.14c.53.12.93.41,1.21.9.16.3.24.6.24.9,0,.18-.03.39-.1.62-.18.51-.39,1.06-.62,1.66ZM319.02,263.62c-.16,0-.24.09-.24.28v7.53c0,.18.08.28.24.28h6.18c.55,0,1.02.19,1.4.57.38.38.57.83.57,1.36s-.19.98-.57,1.36c-.38.38-.85.57-1.4.57h-17.26c-.55,0-1.02-.19-1.4-.57-.38-.38-.57-.83-.57-1.36s.19-.98.57-1.36c.38-.38.85-.57,1.4-.57h6.35c.16,0,.24-.09.24-.28v-7.53c0-.18-.08-.28-.24-.28h-5.01c-.53,0-.98-.19-1.36-.57-.38-.38-.57-.83-.57-1.36s.19-.98.57-1.36c.38-.38.83-.57,1.36-.57h5.01c.16,0,.24-.09.24-.28v-3.56c0-.57.2-1.06.6-1.45.4-.39.88-.59,1.43-.59h.17c.55,0,1.03.2,1.43.59.4.39.6.88.6,1.45v3.56c0,.18.08.28.24.28h4.8c.55,0,1.02.19,1.4.57.38.38.57.83.57,1.36s-.19.98-.57,1.36-.85.57-1.4.57h-4.8Z" style="fill: #4b4c4e;"/>
        <path d="M354.98,254.05c.55,0,1.03.2,1.43.59.4.39.61.88.61,1.45v18.5c0,.57-.2,1.06-.61,1.45-.4.39-.88.59-1.43.59h-7.8c-.53,0-.98-.18-1.35-.55-.37-.37-.55-.82-.55-1.35s.18-.98.55-1.35c.37-.37.82-.55,1.35-.55h5.35c.18,0,.28-.09.28-.28v-16.47c0-.58.2-1.06.59-1.45.39-.39.87-.59,1.45-.59h.14Z" style="fill: #4b4c4e;"/>
      </g>
      <g>
        <path d="M78.74,331.08v-20.5h-7.32v-4.17h19.61v4.17h-7.31v20.5h-4.98Z" style="fill: #4b4c4e;"/>
        <path d="M94.26,331.08v-24.68h10.49c2.64,0,4.55.22,5.75.67s2.15,1.23,2.87,2.37c.72,1.13,1.08,2.43,1.08,3.89,0,1.85-.54,3.38-1.63,4.59-1.09,1.21-2.72,1.97-4.88,2.28,1.08.63,1.97,1.32,2.67,2.07.7.75,1.65,2.09,2.84,4.01l3.01,4.81h-5.96l-3.6-5.37c-1.28-1.92-2.16-3.13-2.63-3.63-.47-.5-.97-.84-1.5-1.03s-1.36-.28-2.51-.28h-1.01v10.3h-4.98ZM99.25,316.84h3.69c2.39,0,3.88-.1,4.48-.3s1.06-.55,1.4-1.04c.34-.49.5-1.11.5-1.85,0-.83-.22-1.5-.67-2.01s-1.07-.83-1.88-.97c-.4-.06-1.62-.08-3.64-.08h-3.89v6.26Z" style="fill: #4b4c4e;"/>
        <path d="M119.15,331.08v-24.68h18.3v4.17h-13.32v5.47h12.39v4.16h-12.39v6.72h13.79v4.16h-18.77Z" style="fill: #4b4c4e;"/>
        <path d="M164.4,331.08h-5.42l-2.16-5.61h-9.86l-2.04,5.61h-5.29l9.61-24.68h5.27l9.88,24.68ZM155.22,321.31l-3.4-9.16-3.33,9.16h6.73Z" style="fill: #4b4c4e;"/>
        <path d="M165.78,323.05l4.85-.47c.29,1.63.88,2.82,1.78,3.59s2.1,1.14,3.61,1.14c1.6,0,2.81-.34,3.63-1.02.81-.68,1.22-1.47,1.22-2.38,0-.58-.17-1.08-.51-1.49-.34-.41-.94-.77-1.79-1.07-.58-.2-1.91-.56-3.99-1.08-2.67-.66-4.54-1.48-5.62-2.44-1.51-1.36-2.27-3.01-2.27-4.97,0-1.26.36-2.43,1.07-3.53s1.74-1.93,3.08-2.5c1.34-.57,2.96-.86,4.86-.86,3.1,0,5.43.68,6.99,2.04,1.57,1.36,2.39,3.17,2.47,5.44l-4.98.22c-.21-1.27-.67-2.18-1.37-2.74-.7-.56-1.75-.83-3.16-.83s-2.58.3-3.4.89c-.53.38-.79.89-.79,1.53,0,.58.25,1.08.74,1.5.63.53,2.16,1.08,4.58,1.65s4.22,1.16,5.38,1.78c1.16.61,2.07,1.45,2.73,2.51.66,1.06.99,2.37.99,3.93,0,1.41-.39,2.74-1.18,3.97-.79,1.23-1.9,2.15-3.33,2.75s-3.23.9-5.37.9c-3.12,0-5.52-.72-7.19-2.16-1.67-1.44-2.67-3.54-3-6.3Z" style="fill: #4b4c4e;"/>
        <path d="M190,306.4h4.98v13.37c0,2.12.06,3.5.18,4.12.21,1.01.72,1.82,1.52,2.43.8.61,1.9.92,3.29.92s2.48-.29,3.2-.87c.72-.58,1.15-1.29,1.3-2.13.15-.84.22-2.24.22-4.19v-13.65h4.98v12.96c0,2.96-.13,5.06-.4,6.28s-.77,2.26-1.49,3.1c-.72.84-1.69,1.51-2.9,2.01-1.21.5-2.79.75-4.75.75-2.36,0-4.14-.27-5.36-.82-1.22-.54-2.18-1.25-2.89-2.12s-1.17-1.78-1.4-2.74c-.33-1.41-.49-3.5-.49-6.26v-13.16Z" style="fill: #4b4c4e;"/>
        <path d="M214.95,331.08v-24.68h10.49c2.64,0,4.55.22,5.75.67s2.15,1.23,2.87,2.37c.72,1.13,1.08,2.43,1.08,3.89,0,1.85-.54,3.38-1.63,4.59-1.09,1.21-2.72,1.97-4.88,2.28,1.08.63,1.97,1.32,2.67,2.07.7.75,1.65,2.09,2.84,4.01l3.01,4.81h-5.96l-3.6-5.37c-1.28-1.92-2.16-3.13-2.63-3.63-.47-.5-.97-.84-1.5-1.03s-1.36-.28-2.51-.28h-1.01v10.3h-4.98ZM219.93,316.84h3.69c2.39,0,3.88-.1,4.48-.3s1.06-.55,1.4-1.04c.34-.49.5-1.11.5-1.85,0-.83-.22-1.5-.67-2.01s-1.07-.83-1.88-.97c-.4-.06-1.62-.08-3.64-.08h-3.89v6.26Z" style="fill: #4b4c4e;"/>
        <path d="M239.83,331.08v-24.68h18.3v4.17h-13.32v5.47h12.39v4.16h-12.39v6.72h13.79v4.16h-18.77Z" style="fill: #4b4c4e;"/>
        <path d="M272.41,331.08v-24.68h18.3v4.17h-13.32v5.47h12.39v4.16h-12.39v6.72h13.79v4.16h-18.77Z" style="fill: #4b4c4e;"/>
        <path d="M301.7,331.08l-8.82-24.68h5.4l6.25,18.27,6.04-18.27h5.29l-8.84,24.68h-5.32Z" style="fill: #4b4c4e;"/>
        <path d="M318.4,331.08v-24.68h18.3v4.17h-13.32v5.47h12.39v4.16h-12.39v6.72h13.79v4.16h-18.77Z" style="fill: #4b4c4e;"/>
        <path d="M341.41,331.08v-24.68h10.49c2.64,0,4.55.22,5.75.67s2.15,1.23,2.87,2.37c.72,1.13,1.08,2.43,1.08,3.89,0,1.85-.54,3.38-1.63,4.59-1.09,1.21-2.72,1.97-4.88,2.28,1.08.63,1.97,1.32,2.67,2.07.7.75,1.65,2.09,2.84,4.01l3.01,4.81h-5.96l-3.6-5.37c-1.28-1.92-2.16-3.13-2.63-3.63-.47-.5-.97-.84-1.5-1.03s-1.36-.28-2.51-.28h-1.01v10.3h-4.98ZM346.39,316.84h3.69c2.39,0,3.88-.1,4.48-.3s1.06-.55,1.4-1.04c.34-.49.5-1.11.5-1.85,0-.83-.22-1.5-.67-2.01s-1.07-.83-1.88-.97c-.4-.06-1.62-.08-3.64-.08h-3.89v6.26Z" style="fill: #4b4c4e;"/>
        <path d="M371.49,331.08v-10.39l-9.04-14.29h5.84l5.81,9.76,5.69-9.76h5.74l-9.07,14.33v10.35h-4.97Z" style="fill: #4b4c4e;"/>
        <path d="M396.9,331.08v-24.68h7.46l4.48,16.83,4.43-16.83h7.47v24.68h-4.63v-19.43l-4.9,19.43h-4.8l-4.88-19.43v19.43h-4.63Z" style="fill: #4b4c4e;"/>
        <path d="M424.67,318.89c0-2.51.38-4.62,1.13-6.33.56-1.26,1.33-2.38,2.3-3.38s2.03-1.74,3.19-2.22c1.54-.65,3.31-.98,5.32-.98,3.64,0,6.55,1.13,8.73,3.38s3.27,5.39,3.27,9.41-1.08,7.1-3.25,9.35c-2.17,2.25-5.06,3.38-8.69,3.38s-6.59-1.12-8.75-3.36c-2.17-2.24-3.25-5.32-3.25-9.25ZM429.81,318.72c0,2.79.65,4.91,1.94,6.35,1.29,1.44,2.93,2.16,4.92,2.16s3.62-.72,4.89-2.15c1.27-1.43,1.91-3.58,1.91-6.44s-.62-4.94-1.86-6.33-2.89-2.09-4.94-2.09-3.71.7-4.97,2.11c-1.26,1.41-1.89,3.53-1.89,6.37Z" style="fill: #4b4c4e;"/>
        <path d="M452.43,331.08v-24.68h7.46l4.48,16.83,4.43-16.83h7.47v24.68h-4.63v-19.43l-4.9,19.43h-4.8l-4.88-19.43v19.43h-4.63Z" style="fill: #4b4c4e;"/>
        <path d="M481.22,331.08v-24.68h18.3v4.17h-13.32v5.47h12.39v4.16h-12.39v6.72h13.79v4.16h-18.77Z" style="fill: #4b4c4e;"/>
        <path d="M504.27,331.08v-24.68h4.85l10.1,16.48v-16.48h4.63v24.68h-5l-9.95-16.09v16.09h-4.63Z" style="fill: #4b4c4e;"/>
        <path d="M534.67,331.08v-20.5h-7.32v-4.17h19.61v4.17h-7.31v20.5h-4.98Z" style="fill: #4b4c4e;"/>
      </g>
      <g>
        <path d="M88.42,406.21c.12.12.18.26.18.43s-.06.31-.18.43-.26.18-.44.18h-1.85c-.09,0-.14.05-.14.14-.05.91-.11,1.78-.18,2.6-.01.08.03.12.12.12h1.42c.16,0,.3.06.42.18s.18.26.18.43-.06.31-.18.43-.26.18-.42.18h-1.56c-.09,0-.15.04-.16.12-.14.77-.31,1.28-.51,1.53-.28.38-.7.59-1.25.65-.2.01-.43.02-.69.02-.3,0-.66-.01-1.07-.04-.15,0-.29-.05-.41-.16s-.21-.24-.25-.4c-.04-.12-.02-.23.04-.33s.16-.15.29-.15c.48.02.87.04,1.16.04.14,0,.26,0,.37-.02.3,0,.53-.08.67-.23.12-.14.22-.45.32-.91.01-.08-.02-.12-.11-.12h-8.67c-.06,0-.09.02-.09.07-.04.18-.12.32-.26.42s-.3.15-.47.14h-.05c-.18-.01-.32-.09-.43-.23s-.15-.3-.11-.47c.22-1.2.43-2.48.63-3.87.02-.09-.01-.14-.11-.14h-1.81c-.18,0-.32-.06-.44-.18s-.18-.26-.18-.43.06-.31.18-.43.26-.18.44-.18h1.99c.09,0,.15-.05.16-.14.14-1.05.26-2,.37-2.83.04-.29.16-.54.38-.74s.47-.3.76-.3h8.68c.28,0,.52.11.72.32.19.19.28.42.28.69,0,.55-.04,1.51-.11,2.87,0,.09.04.14.12.14h1.79c.18,0,.32.06.44.18ZM87.74,399.48c.12.12.18.26.18.42s-.06.3-.18.42-.26.18-.42.18h-11.09c-.09,0-.16.04-.21.12-.66,1.05-1.35,1.98-2.07,2.78-.14.15-.32.24-.54.26h-.09c-.18,0-.34-.05-.49-.16s-.24-.25-.25-.43.04-.34.17-.47c1.3-1.3,2.4-2.91,3.29-4.83.09-.19.23-.32.4-.4.12-.06.23-.09.35-.09.07,0,.14.01.21.04.19.06.32.17.4.34s.07.34,0,.5c-.18.39-.35.73-.51,1.02-.01.02-.01.05,0,.08s.04.04.07.04h10.39c.16,0,.3.06.42.18ZM81.6,410.04s-.01.03,0,.04.02.03.04.03h2.72c.08,0,.13-.04.14-.12.07-.71.13-1.59.19-2.64.01-.09-.03-.14-.12-.14h-8.35c-.09,0-.15.05-.16.14-.15,1.09-.28,1.97-.39,2.64-.01.08.02.12.11.12h5.29s.04-.01.04-.04,0-.04-.03-.05c-.69-.62-1.58-1.23-2.65-1.83-.11-.06-.17-.15-.19-.28s.01-.24.11-.33c.16-.15.33-.23.51-.23.11,0,.22.04.35.11.89.47,1.67.96,2.34,1.46.19.15.28.35.28.58,0,.21-.08.39-.23.54ZM84.87,403.35c0-.08-.05-.12-.14-.12h-7.98c-.08,0-.13.04-.14.12-.04.33-.1.8-.18,1.41s-.14,1-.17,1.18c-.01.09.03.14.12.14h5.12s.04-.01.05-.04,0-.04-.02-.05c-.7-.62-1.58-1.2-2.62-1.72-.12-.06-.19-.15-.21-.28s.01-.23.11-.32c.16-.16.33-.25.51-.25.12,0,.23.03.35.09.73.34,1.4.73,2.02,1.18.23.16.35.39.35.69,0,.23-.08.44-.25.62-.01.01-.01.03,0,.05s.02.04.04.04h2.79c.09,0,.14-.05.14-.14.04-.81.07-1.67.11-2.58Z" style="fill: #4b4c4e;"/>
        <path d="M91.36,405.39c-.14-.14-.21-.31-.21-.52s.07-.38.21-.52.31-.21.51-.21h14.91c.2,0,.37.07.51.21s.21.31.21.52-.07.38-.21.52-.31.21-.51.21h-14.91c-.2,0-.37-.07-.51-.21Z" style="fill: #4b4c4e;"/>
        <path d="M111.19,408.87c.05-.15.14-.27.27-.36s.28-.11.45-.08c.15.02.27.1.35.24s.1.27.05.41c-.33,1.12-.75,2.1-1.27,2.92-.08.13-.21.21-.37.25s-.32.01-.46-.07c-.14-.07-.23-.18-.26-.32-.01-.05-.02-.09-.02-.12,0-.11.03-.2.09-.28.47-.7.86-1.56,1.16-2.58ZM118.44,406.72c.12.12.18.25.18.41s-.06.29-.18.4-.25.17-.4.17h-2.95c-.08,0-.12.04-.12.12v4.46c0,.32-.04.57-.13.75s-.24.32-.45.41c-.27.13-.76.2-1.48.21h-.02c-.16,0-.32-.06-.46-.18-.14-.11-.24-.25-.3-.42-.05-.13-.03-.25.04-.37s.18-.18.33-.18h.39c.27,0,.45,0,.54-.02.11,0,.18-.01.21-.04s.05-.09.05-.18v-4.45c0-.08-.05-.12-.14-.12h-3.01c-.16,0-.3-.06-.41-.17s-.17-.25-.17-.4.06-.3.17-.41.25-.18.41-.18h7.49c.15,0,.29.06.4.18ZM113.53,401.61c.09,0,.14-.05.14-.14v-1.28c0-.08-.05-.12-.14-.12h-2.78c-.16,0-.3-.06-.41-.17s-.17-.25-.17-.4.06-.29.17-.4.25-.17.41-.17h2.78c.09,0,.14-.04.14-.12v-.88c0-.18.06-.33.18-.45s.27-.18.45-.18.33.06.45.18.18.27.18.45v.88c0,.08.04.12.12.12h2.79c.15,0,.28.06.4.17s.17.25.17.4-.06.29-.17.4-.24.17-.4.17h-2.79c-.08,0-.12.04-.12.12v1.28c0,.09.04.14.12.14h2.44c.15,0,.28.05.4.16s.17.24.17.4-.06.29-.17.4-.24.16-.4.16h-6.35c-.16,0-.3-.05-.4-.16s-.16-.24-.16-.4.05-.29.16-.4.24-.16.4-.16h2.37ZM122.85,401.69c-.09,0-.14.04-.14.12v2.3c0,.42.04.92.12,1.5s.23,1.26.44,2.05.55,1.58,1.02,2.37,1.03,1.48,1.69,2.06c.14.13.22.29.25.47.01.02.02.05.02.09,0,.15-.05.29-.14.4-.12.16-.27.26-.46.29s-.35-.02-.49-.15c-.63-.56-1.19-1.27-1.66-2.11s-.81-1.59-1.01-2.25-.33-1.27-.4-1.85c0-.01,0-.02-.02-.02s-.02,0-.02.02c-.06.42-.16.88-.32,1.36s-.37,1.02-.64,1.6-.64,1.17-1.1,1.76-.98,1.11-1.56,1.56c-.11.08-.22.12-.33.12-.05,0-.09,0-.14-.02-.18-.04-.31-.13-.4-.28-.11-.14-.14-.3-.11-.47s.11-.32.24-.42c.62-.47,1.17-1.02,1.64-1.66s.84-1.25,1.1-1.85.47-1.21.62-1.85.26-1.17.31-1.59.06-.8.05-1.14v-2.3c0-.08-.04-.12-.12-.12h-.72c-.08,0-.13.04-.16.12-.28,1.01-.6,1.89-.97,2.65-.11.23-.29.38-.56.44-.08.01-.16.02-.23.02-.19,0-.36-.05-.53-.16-.07-.05-.13-.09-.19-.12-.04-.01-.05,0-.05.04,0,.14-.05.26-.15.36s-.22.15-.36.15h-6.01c-.15,0-.28-.06-.4-.17s-.17-.25-.17-.4.06-.29.17-.4.24-.17.4-.17h6.12c.11,0,.2.04.28.11s.12.17.12.29c.01.01.02.01.02,0,.9-1.44,1.56-3.64,1.99-6.59.02-.19.11-.33.26-.44.12-.09.25-.14.39-.14.04,0,.07,0,.11.02.19.04.34.13.45.27s.16.31.13.5c-.13.79-.27,1.54-.42,2.25-.02.08.01.12.11.12h4.29c.13-.04.25-.04.37,0l.25.07c.13.04.23.11.3.22s.09.23.07.36c-.25,1.56-.49,2.78-.72,3.66-.04.15-.12.26-.25.33s-.28.08-.42.04-.26-.13-.33-.26-.1-.28-.06-.43c.15-.68.3-1.55.46-2.62.01-.08-.03-.12-.12-.12h-1.85ZM118.1,410.43c.07.15.07.31,0,.47s-.17.27-.33.34c-.14.07-.28.08-.43.02s-.25-.16-.31-.32c-.22-.56-.49-1.15-.81-1.76-.07-.12-.08-.25-.04-.39s.14-.24.28-.3.29-.06.44,0,.26.14.33.27c.33.56.61,1.12.84,1.67Z" style="fill: #4b4c4e;"/>
        <path d="M137.7,400.57c0,.09.04.14.12.14h5.13c.29,0,.54.1.74.3s.3.45.3.74v11.14c0,.19-.06.35-.19.48s-.29.2-.47.2-.35-.07-.48-.2-.2-.3-.2-.48v-.23c0-.08-.04-.12-.11-.12h-10.88c-.08,0-.12.05-.12.14v.32c0,.19-.07.35-.2.47s-.29.19-.47.19-.34-.06-.47-.19-.19-.29-.19-.47v-11.25c0-.29.1-.54.3-.74s.45-.3.74-.3h5.01c.08,0,.12-.05.12-.14v-2.65c0-.19.06-.35.19-.47s.29-.19.47-.19.35.06.47.19.19.29.19.47v2.65ZM136.37,402.17c0-.09-.04-.14-.12-.14h-4.59c-.08,0-.12.05-.12.14v3.62c0,.09.04.14.12.14h4.59c.08,0,.12-.05.12-.14v-3.62ZM131.66,407.23c-.08,0-.12.05-.12.14v3.73c0,.09.04.14.12.14h4.59c.08,0,.12-.05.12-.14v-3.73c0-.09-.04-.14-.12-.14h-4.59ZM142.64,402.17c0-.09-.04-.14-.12-.14h-4.69c-.08,0-.12.05-.12.14v3.62c0,.09.04.14.12.14h4.69c.08,0,.12-.05.12-.14v-3.62ZM137.7,411.1c0,.09.04.14.12.14h4.69c.08,0,.12-.05.12-.14v-3.73c0-.09-.04-.14-.12-.14h-4.69c-.08,0-.12.05-.12.14v3.73Z" style="fill: #4b4c4e;"/>
        <path d="M157.74,410.64c-1.04,1.24-2.39,1.86-4.07,1.86s-3.04-.62-4.08-1.86-1.56-2.91-1.56-5.01.52-3.74,1.56-4.97,2.4-1.84,4.08-1.84,3.03.61,4.07,1.84,1.56,2.88,1.56,4.97-.52,3.77-1.56,5.01ZM153.67,411.05c1.18,0,2.13-.49,2.85-1.48s1.07-2.3,1.07-3.94-.36-2.94-1.07-3.9-1.66-1.44-2.85-1.44-2.15.48-2.86,1.44-1.06,2.26-1.06,3.91.35,2.96,1.06,3.94,1.66,1.47,2.86,1.47Z" style="fill: #4b4c4e;"/>
        <path d="M168.41,412.16c-.54.23-1.12.34-1.72.34s-1.18-.11-1.72-.34-1.03-.56-1.45-.98-.76-.97-1-1.62-.37-1.37-.37-2.17.12-1.51.37-2.16.58-1.2,1-1.63.91-.76,1.45-.99,1.12-.35,1.72-.35,1.18.12,1.72.35,1.03.57,1.44.99.75.97.99,1.63.37,1.38.37,2.16-.12,1.52-.37,2.17-.58,1.19-.99,1.62-.9.76-1.44.98ZM164.64,410.11c.52.69,1.2,1.03,2.05,1.03s1.54-.34,2.06-1.03.78-1.59.78-2.72-.26-2.02-.79-2.72-1.21-1.05-2.06-1.05-1.52.35-2.04,1.05-.77,1.61-.77,2.73.26,2.03.77,2.72Z" style="fill: #4b4c4e;"/>
        <path d="M176.42,412.51c-1.16,0-1.74-.73-1.74-2.18v-11.57c0-.22.08-.41.25-.57s.36-.24.58-.24.41.08.57.24.24.35.24.57v11.69c0,.33.09.54.26.65.04.01.09.04.17.08s.13.07.17.1.08.06.13.1.09.08.12.13.05.1.06.16l.02.07s.02.09.02.14c0,.14-.04.26-.11.37-.11.15-.25.24-.42.26h-.32Z" style="fill: #4b4c4e;"/>
        <path d="M182.95,412.51c-.84,0-1.53-.25-2.07-.74s-.8-1.17-.8-2.02c0-1.04.47-1.85,1.41-2.43s2.43-.98,4.48-1.21c.08-.01.12-.06.12-.16-.04-1.56-.7-2.34-2-2.34-.76,0-1.56.23-2.39.7-.15.09-.31.12-.48.08s-.3-.14-.4-.29c-.08-.16-.1-.33-.06-.51s.14-.31.31-.4c1.14-.62,2.23-.93,3.29-.93,1.15,0,2,.35,2.56,1.06s.83,1.69.83,2.94v5.34c0,.19-.07.35-.2.47s-.3.19-.48.19-.35-.06-.5-.19-.23-.29-.25-.47l-.05-.47s0-.04-.03-.04-.04,0-.06.02c-1.12.93-2.2,1.39-3.22,1.39ZM183.42,411.2c.45,0,.87-.1,1.27-.3s.84-.5,1.32-.91c.06-.06.09-.13.09-.23v-2.46c0-.08-.03-.12-.09-.12h-.04c-1.55.2-2.65.5-3.3.89s-.98.91-.98,1.56c0,.54.16.94.47,1.2s.73.39,1.26.39Z" style="fill: #4b4c4e;"/>
        <path d="M196.05,412.51c-.95,0-1.88-.4-2.78-1.21-.01-.01-.03-.02-.04-.02s-.03,0-.03.02l-.05.33c-.02.19-.11.34-.25.47s-.3.18-.49.18-.35-.06-.47-.19-.19-.28-.19-.46v-12.87c0-.22.08-.41.25-.57s.36-.24.58-.24.41.08.57.24.24.35.24.57v3.11l-.04,1.63s0,.04.02.05.05.01.07,0c1.02-.87,2-1.3,2.95-1.3,1.25,0,2.22.45,2.9,1.34s1.02,2.1,1.02,3.62c0,1.62-.41,2.9-1.24,3.86s-1.83,1.43-3.01,1.43ZM195.78,411.13c.82,0,1.49-.35,2.01-1.05s.78-1.64.78-2.84c0-2.41-.86-3.62-2.57-3.62-.77,0-1.62.42-2.53,1.27-.07.06-.11.13-.11.23v4.87c0,.08.04.15.11.21.76.62,1.53.93,2.3.93Z" style="fill: #4b4c4e;"/>
        <path d="M211.91,402.47c.09,0,.14-.05.14-.14v-.69c0-.08-.05-.12-.14-.12h-3.41c-.13,0-.24-.05-.34-.15s-.15-.21-.15-.34.05-.24.15-.34.21-.15.34-.15h3.41c.09,0,.14-.04.14-.12v-.86c0-.08-.05-.12-.14-.12h-1.86c-.08,0-.15.04-.19.11-.09.2-.19.38-.3.54-.08.13-.2.21-.35.24s-.3,0-.44-.06c-.12-.07-.19-.17-.22-.31s0-.26.06-.38c.36-.52.67-1.11.91-1.78.06-.14.16-.25.29-.33s.28-.1.43-.06c.14.04.25.12.32.25s.08.26.02.39c-.08.2-.13.31-.14.33-.01.04,0,.06,0,.09s.04.04.06.04h1.41c.09,0,.14-.05.14-.14v-.56c0-.16.06-.3.17-.41s.25-.17.4-.17.29.06.4.17.17.25.17.41v.56c0,.09.05.14.14.14h2.6c.13,0,.24.04.33.13s.14.2.14.33-.05.24-.14.33-.21.14-.33.14h-2.6c-.09,0-.14.04-.14.12v.86c0,.08.05.12.14.12h3.22c.13,0,.24.05.33.15s.14.21.14.34-.05.24-.14.34-.21.15-.33.15h-3.22c-.09,0-.14.04-.14.12v.69c0,.09.05.14.14.14h2.13c.28,0,.52.1.73.3s.31.45.31.74v1.14c0,.27-.03.47-.09.6s-.18.23-.37.3c-.23.11-.64.16-1.23.16-.28,0-.49-.15-.62-.44-.05-.09-.04-.18.02-.27s.14-.13.25-.13h.3c.21,0,.36,0,.44-.02.08,0,.13-.01.16-.04s.04-.08.04-.15v-1.14c0-.09-.04-.14-.12-.14h-1.93c-.09,0-.14.05-.14.14v2.2c0,.16-.06.3-.17.41s-.25.17-.4.17-.29-.06-.4-.17-.17-.25-.17-.41v-2.2c0-.09-.05-.14-.14-.14h-1.81c-.08,0-.12.05-.12.14v1.78c0,.14-.05.26-.16.37s-.23.16-.39.16-.28-.05-.39-.16-.16-.23-.16-.37v-1.78c0-.29.1-.54.31-.74s.45-.3.73-.3h1.99ZM221.63,408.57c.16-.11.33-.16.49-.16s.33.06.49.18c.12.08.17.2.17.34s-.07.25-.18.33c-.84.55-1.78,1.06-2.81,1.53-.04.01-.05.03-.05.06s.01.05.04.06c1.07.73,2.35,1.25,3.85,1.56.14.04.23.12.28.25s.03.27-.05.4c-.11.16-.25.29-.44.37-.11.05-.22.07-.33.07-.07,0-.14,0-.21-.02-3.25-.81-5.52-2.55-6.82-5.22-.04-.07-.09-.08-.16-.04-.66.49-1.45.96-2.39,1.41-.08.05-.12.11-.12.19v1.92c0,.09.05.13.14.11.4-.06,1-.15,1.79-.27s1.35-.21,1.67-.27c.14-.02.27.01.38.11s.17.21.18.35c.01.15-.03.29-.12.41s-.22.2-.37.22l-5.99.97c-.16.04-.31,0-.44-.09s-.21-.22-.25-.37c-.02-.15,0-.29.1-.41s.21-.2.36-.22c.36-.06.74-.12,1.14-.18.09-.01.14-.06.14-.16v-1.55s-.01-.06-.04-.08-.06-.02-.08,0c-.9.35-1.86.65-2.87.9-.07.01-.14.02-.21.02-.27,0-.51-.13-.72-.4-.08-.11-.1-.22-.06-.35s.13-.21.27-.23c2.31-.49,4.25-1.21,5.82-2.14.02-.01.03-.03.03-.04s-.02-.03-.04-.03h-5.55c-.15,0-.28-.05-.4-.16s-.17-.23-.17-.39.06-.28.17-.4.24-.17.4-.17h6.59c.08,0,.12-.04.12-.12v-.28c0-.18.06-.33.19-.46s.29-.19.47-.19.35.06.47.19.19.28.19.46v.28c0,.08.04.12.12.12h6.61c.15,0,.28.06.4.17s.17.24.17.4-.06.28-.17.39-.24.16-.4.16h-6.12s-.04.01-.06.04-.02.06,0,.08c.39.68.87,1.31,1.46,1.88.07.06.14.07.21.04,1.01-.49,1.92-1.01,2.72-1.55ZM218.17,398.09c.12-.12.26-.18.42-.18s.3.06.42.18.18.26.18.42v4.82c0,.16-.06.3-.18.42s-.26.18-.42.18-.3-.06-.42-.18-.18-.26-.18-.42v-4.82c0-.16.06-.3.18-.42ZM222.24,397.57c.12-.12.26-.18.43-.18s.32.06.44.18.18.27.18.43v6.84c0,.35-.05.62-.14.79s-.27.32-.53.42c-.33.12-1,.18-2,.19-.16,0-.31-.05-.45-.16s-.24-.25-.31-.42c-.05-.13-.04-.25.04-.36s.18-.16.32-.15h.93c.26,0,.46,0,.6-.02.12,0,.2-.02.25-.07s.07-.12.07-.23v-6.84c0-.16.06-.31.18-.43Z" style="fill: #4b4c4e;"/>
        <path d="M229.63,404.26c.29,0,.54.1.74.31s.3.45.3.73v4.57c0,.09.03.18.09.25.81,1.18,2.27,1.82,4.39,1.92.82.02,1.68.04,2.57.04,1.5,0,3.09-.04,4.78-.12.16-.01.3.05.4.19.06.08.09.17.09.26,0,.06-.01.12-.04.18-.06.2-.17.37-.33.5s-.35.21-.54.22c-1.48.04-2.82.05-4.03.05-1.07,0-2.03-.02-2.9-.05-1.15-.04-2.13-.22-2.94-.54s-1.5-.82-2.07-1.48c-.06-.06-.12-.06-.18-.02-.76.67-1.44,1.25-2.02,1.74-.15.13-.33.17-.53.13s-.35-.15-.44-.33c-.06-.13-.09-.26-.09-.39,0-.07,0-.14.02-.21.06-.21.18-.38.35-.51.67-.47,1.34-.98,2-1.53.07-.06.11-.13.11-.21v-4.29c0-.09-.05-.14-.14-.14h-1.74c-.18,0-.33-.06-.45-.18s-.18-.27-.18-.45.06-.33.18-.45.27-.18.45-.18h2.14ZM230.74,399.9c.13.14.18.31.17.5s-.1.35-.25.47-.32.16-.5.14-.33-.11-.45-.25c-.56-.64-1.27-1.29-2.13-1.95-.13-.09-.2-.22-.2-.37s.06-.28.18-.39c.14-.12.3-.18.49-.19h.04c.18,0,.33.05.47.16.87.62,1.59,1.25,2.18,1.88ZM236.54,400.76c0-.09-.04-.14-.12-.14h-2.46c-.08,0-.15.04-.19.12-.28.46-.57.88-.88,1.27-.12.15-.27.24-.46.26s-.36-.01-.53-.11c-.14-.08-.23-.2-.25-.36s0-.3.11-.41c.8-.93,1.44-2.03,1.93-3.32.07-.18.18-.31.34-.4s.33-.11.5-.08c.18.05.3.15.39.3s.09.3.02.46c-.12.3-.26.63-.42.98-.01.02-.01.05,0,.08s.04.04.07.04h1.83c.08,0,.12-.05.12-.14v-1.44c0-.18.06-.33.19-.46s.28-.19.47-.19.34.06.47.19.19.28.19.46v1.44c0,.09.04.14.12.14h3.59c.16,0,.3.06.42.17s.18.25.18.41-.06.3-.18.41-.26.17-.42.17h-3.59c-.08,0-.12.05-.12.14v2.02c0,.09.04.14.12.14h4.36c.16,0,.3.06.42.17s.18.25.18.41-.06.3-.18.41-.26.17-.42.17h-10.3c-.16,0-.3-.06-.42-.17s-.18-.25-.18-.41.06-.3.18-.41.26-.17.42-.17h4.38c.08,0,.12-.05.12-.14v-2.02ZM241.64,409.52c0,.28-.1.52-.31.73s-.45.31-.73.31h-6.5c-.29,0-.54-.1-.74-.31s-.3-.45-.3-.73v-2.99c0-.28.1-.52.3-.73s.45-.31.74-.31h6.5c.28,0,.52.1.73.31s.31.45.31.73v2.99ZM234.5,406.58c-.09,0-.14.05-.14.14v2.6c0,.08.05.12.14.12h5.66c.08,0,.12-.04.12-.12v-2.6c0-.09-.04-.14-.12-.14h-5.66Z" style="fill: #4b4c4e;"/>
        <path d="M249.04,397.9c.05-.2.15-.36.32-.47.13-.08.26-.12.4-.12.05,0,.09,0,.14.02.19.04.33.13.43.3s.11.34.04.53c-.29.84-.51,1.45-.65,1.83-.01.02,0,.05,0,.08s.04.04.08.04h1.81c.29,0,.54.1.74.3s.3.45.3.74v9.6c0,.29-.1.54-.3.74s-.45.3-.74.3h-3.83c-.08,0-.12.05-.12.14v.67c0,.18-.06.32-.18.44s-.27.18-.43.18-.31-.06-.43-.18-.18-.26-.18-.44v-11.44c0-.29.1-.54.31-.74s.45-.3.73-.3h.84c.09,0,.15-.04.18-.12.22-.75.4-1.44.54-2.07ZM251.31,405.05c.09,0,.14-.04.14-.12v-3.5c0-.09-.05-.14-.14-.14h-3.52c-.08,0-.12.05-.12.14v3.5c0,.08.04.12.12.12h3.52ZM247.67,410.43c0,.09.04.14.12.14h3.52c.09,0,.14-.05.14-.14v-4.06c0-.08-.05-.12-.14-.12h-3.52c-.08,0-.12.04-.12.12v4.06ZM260.43,400.04c.29,0,.54.1.74.3.2.19.3.42.3.69,0,2.7-.16,5.54-.47,8.54-.16,1.58-.42,2.58-.76,3.01-.2.25-.41.42-.62.53s-.48.17-.8.19c-.23.04-.54.05-.93.05-.3,0-.65-.01-1.04-.04-.2,0-.38-.07-.53-.2s-.26-.3-.32-.5c-.06-.15-.04-.29.04-.41s.2-.18.34-.17c.59.04,1.24.05,1.97.05.35,0,.6-.09.74-.28.29-.3.52-1.22.68-2.75s.3-4.08.41-7.64c0-.09-.04-.14-.12-.14h-4.31c-.09,0-.16.04-.19.12-.41,1-.83,1.82-1.25,2.48-.11.15-.25.24-.43.27s-.34,0-.48-.11c-.15-.09-.25-.23-.28-.42-.01-.04-.02-.08-.02-.12,0-.13.04-.25.12-.37.9-1.38,1.63-3.16,2.2-5.34.05-.18.15-.31.32-.4.11-.07.22-.11.33-.11.05,0,.1.01.16.04.18.04.31.13.4.29s.12.32.07.48c-.18.64-.36,1.26-.56,1.85-.01.02,0,.05,0,.08s.04.04.08.04h4.2ZM258.29,407.57c.07.11.11.22.11.33,0,.06,0,.12-.02.18-.05.18-.15.31-.32.4-.11.07-.21.11-.32.11-.06,0-.12-.01-.18-.04-.16-.05-.29-.15-.39-.3-.53-.91-1.21-1.95-2.06-3.09-.07-.09-.11-.2-.11-.32v-.11c.04-.16.12-.29.26-.37.11-.06.22-.09.35-.09.04,0,.08,0,.12.02.18.04.32.12.42.25.88,1.15,1.58,2.16,2.11,3.02Z" style="fill: #4b4c4e;"/>
        <path d="M271.18,405.79c.02.18,0,.34-.1.48s-.22.24-.4.29l-1.56.51c-.08.02-.12.08-.12.18v5.8c0,.16-.06.31-.18.43s-.27.18-.44.18-.32-.06-.44-.18-.18-.27-.18-.43v-5.41s-.01-.06-.04-.08-.05-.02-.09,0c-.09.02-.83.25-2.2.69-.18.05-.35.03-.51-.06s-.27-.22-.32-.4-.03-.34.06-.5.22-.26.4-.31c1.03-.28,1.89-.53,2.57-.74.08-.02.12-.08.12-.18v-3.74c0-.08-.04-.12-.12-.12h-1.37c-.09,0-.15.04-.16.12-.18.79-.36,1.45-.54,1.99-.06.14-.16.23-.31.28s-.28.03-.41-.05c-.14-.08-.24-.21-.3-.37-.04-.07-.05-.15-.05-.23s.01-.16.04-.23c.41-1.14.73-2.75.97-4.85.01-.16.08-.29.21-.39s.28-.13.44-.11.3.1.4.24.14.28.11.45c-.06.47-.14,1.04-.25,1.71-.01.09.02.14.11.14h1.12c.08,0,.12-.05.12-.14v-2.9c0-.16.06-.31.18-.43s.27-.18.44-.18.32.06.44.18.18.27.18.43v2.9c0,.09.05.14.14.14h1.07c.18,0,.33.06.46.18s.19.28.19.46-.06.34-.19.47-.28.19-.46.19h-1.07c-.09,0-.14.04-.14.12v3.41s.01.06.04.08.06.02.08,0l1.39-.42c.15-.05.3-.03.43.05s.21.2.24.35ZM279.51,400.24s0-.02.02-.02h.62c.18.01.33.08.46.19.11.12.16.25.16.4v.09c-.2,4.01-.41,6.87-.63,8.59s-.52,2.8-.88,3.26c-.29.4-.71.63-1.25.69-.21.02-.49.04-.83.04-.16,0-.34,0-.54,0s-.36-.08-.5-.21-.24-.3-.3-.5c-.04-.15-.01-.29.07-.41s.2-.18.35-.17c.45.02.84.04,1.2.04.27,0,.49-.11.67-.32.29-.32.54-1.25.76-2.81s.4-4.05.58-7.47c0-.08-.05-.12-.14-.12h-.6c-.08,0-.13.04-.16.12-.45,2.33-1.12,4.5-2.03,6.51s-2,3.61-3.28,4.79c-.15.13-.32.19-.51.18s-.37-.07-.54-.18c-.13-.09-.2-.22-.21-.39s.05-.3.18-.4c1.24-1.07,2.31-2.53,3.21-4.39s1.58-3.9,2.05-6.13c.01-.08-.02-.12-.11-.12h-1.21c-.09,0-.15.04-.18.12-.39,1.45-.93,2.86-1.62,4.23s-1.45,2.48-2.29,3.35c-.13.13-.29.19-.48.19s-.36-.06-.5-.18c-.13-.09-.2-.22-.21-.38s.04-.29.14-.4c.81-.76,1.55-1.75,2.21-2.97s1.2-2.5,1.6-3.85c0-.04,0-.06-.03-.09s-.04-.04-.08-.04h-1.28c-.08,0-.14.04-.18.11-.52,1.1-1.05,2.03-1.6,2.79-.11.14-.25.22-.42.24s-.33-.03-.47-.13c-.16-.12-.25-.28-.25-.49,0-.13.04-.25.12-.37,1.12-1.43,1.99-3.36,2.6-5.8.04-.18.13-.31.28-.4.11-.07.22-.11.33-.11.05,0,.09,0,.14.02.16.04.29.13.39.27s.12.3.07.47c-.18.71-.38,1.39-.62,2.04-.01.04,0,.06,0,.09s.04.04.08.04h5.62Z" style="fill: #4b4c4e;"/>
        <path d="M287.24,397.9c.07-.16.19-.29.35-.37s.33-.1.51-.05c.18.06.3.17.38.33s.08.32,0,.48c-.46,1.15-.95,2.2-1.48,3.16-.04.08-.05.16-.05.25v11.29c0,.19-.06.34-.19.47s-.28.18-.46.18-.33-.06-.45-.18-.18-.28-.18-.47v-9.21s0-.04-.03-.04-.03,0-.04.03c-.32.46-.68.93-1.09,1.42-.12.13-.26.18-.44.16s-.31-.11-.4-.26c-.09-.16-.14-.34-.14-.53,0-.26.08-.48.25-.67,1.42-1.66,2.57-3.66,3.46-5.98ZM299.02,406.14c.19,0,.35.06.47.19s.19.28.19.47-.06.34-.19.47-.29.19-.47.19h-4.08c-.09,0-.14.04-.14.12v5.41c0,.19-.06.35-.19.47s-.28.19-.47.19-.34-.06-.47-.19-.2-.29-.2-.47v-5.41c0-.08-.04-.12-.12-.12h-4.34c-.18,0-.33-.06-.46-.19s-.19-.28-.19-.47.06-.34.19-.47.28-.19.46-.19h4.34c.08,0,.12-.05.12-.14v-3.67c0-.08-.04-.12-.12-.12h-2.57c-.08,0-.14.04-.18.12-.28.77-.59,1.45-.91,2.02-.08.16-.21.26-.4.3s-.35,0-.5-.09c-.15-.08-.25-.21-.29-.39s-.02-.34.06-.49c.74-1.24,1.32-2.89,1.74-4.94.04-.18.13-.31.27-.4s.3-.12.47-.09c.18.04.31.13.41.28s.13.31.1.47c-.13.61-.28,1.2-.44,1.76,0,.02,0,.05.03.08s.04.04.08.04h2.13c.08,0,.12-.05.12-.14v-2.64c0-.19.07-.35.2-.47s.29-.19.47-.19.34.06.47.19.19.29.19.47v2.64c0,.09.05.14.14.14h3.3c.19,0,.35.06.47.19s.19.28.19.47-.06.34-.19.47-.29.19-.47.19h-3.3c-.09,0-.14.04-.14.12v3.67c0,.09.05.14.14.14h4.08Z" style="fill: #4b4c4e;"/>
        <path d="M304.15,407.94c1.39-.58,2.18-1.42,2.27-2.65-.11.02-.2.02-.31.02-.74,0-1.35-.43-1.35-1.28s.63-1.3,1.37-1.3c.99,0,1.53.81,1.53,2.07,0,1.94-1.22,3.42-3.12,4.09l-.4-.95Z" style="fill: #4b4c4e;"/>
        <path d="M87.88,432.69c.13.13.19.28.19.47s-.06.34-.19.47-.29.19-.47.19h-4.9c-.08,0-.15.04-.19.12-.27.45-.65,1.03-1.14,1.76-.05.07-.07.15-.07.25v10.95c0,.2-.07.37-.21.51s-.31.21-.5.21-.36-.07-.5-.21-.21-.31-.21-.51v-9.16s-.01-.04-.04-.04-.04,0-.05,0c-1.76,1.99-3.69,3.59-5.78,4.78-.12.07-.25.11-.39.11-.06,0-.12,0-.19-.02-.2-.06-.36-.17-.49-.33-.09-.12-.14-.24-.14-.37,0-.05,0-.09.02-.12.04-.19.13-.33.3-.42,1.59-.88,3.06-1.97,4.4-3.27s2.44-2.67,3.3-4.11c.01-.02,0-.05,0-.08s-.04-.04-.06-.04h-7.15c-.19,0-.35-.06-.47-.19s-.19-.28-.19-.47.06-.34.19-.47.29-.19.47-.19h14.03c.19,0,.35.06.47.19ZM81.99,438.05c-.14-.09-.21-.23-.21-.42,0-.14.06-.26.18-.37.14-.13.31-.2.51-.21h.05c.18,0,.33.05.47.14,2.12,1.42,3.81,2.7,5.06,3.85.14.14.21.31.21.51,0,.21-.07.39-.21.53-.15.14-.32.21-.51.21h-.02c-.21-.01-.39-.09-.53-.23-1.35-1.3-3.02-2.64-5.01-4.01Z" style="fill: #4b4c4e;"/>
        <path d="M94.86,431.88c.07-.16.19-.29.35-.37s.33-.09.51-.04c.16.05.28.15.36.31s.08.32.03.48c-.45,1.08-.97,2.13-1.56,3.16-.04.08-.05.16-.05.25v11.3c0,.18-.06.33-.18.45s-.27.18-.45.18-.33-.06-.45-.18-.18-.27-.18-.45v-9.33s0-.04-.03-.04-.03,0-.04,0c-.4.55-.81,1.07-1.23,1.56-.13.13-.28.18-.46.16s-.31-.11-.4-.27-.14-.33-.14-.52v-.09c.02-.22.11-.41.25-.56,1.49-1.64,2.72-3.64,3.69-6.01ZM102.38,446.17c0,.08.05.12.14.12h4.46c.15,0,.28.05.38.15s.15.22.15.37-.05.27-.15.37-.23.15-.38.15h-10.55c-.14,0-.26-.05-.36-.15s-.15-.22-.15-.37.05-.27.15-.37.22-.15.36-.15h4.52c.08,0,.12-.04.12-.12v-1.12c0-.09-.04-.14-.12-.14h-3.43c-.14,0-.26-.05-.35-.14s-.14-.21-.14-.35.05-.26.14-.35.21-.14.35-.14h3.43c.08,0,.12-.05.12-.14v-.97c0-.09-.04-.14-.12-.14h-3.78c-.14,0-.26-.05-.37-.15s-.16-.22-.16-.36.05-.26.16-.36.23-.15.37-.15h3.78c.08,0,.12-.05.12-.14v-.79c0-.09-.04-.14-.12-.14h-2.94c-.29,0-.54-.1-.74-.3s-.3-.45-.3-.74v-1.53c0-.29.1-.54.3-.74s.45-.3.74-.3h2.94c.08,0,.12-.05.12-.14v-.6c0-.09-.04-.14-.12-.14h-1.35c-.28,0-.52-.1-.73-.3s-.31-.45-.31-.74v-1.02c0-.08-.04-.12-.12-.12h-1.76c-.15,0-.28-.05-.38-.16s-.15-.23-.15-.37.05-.26.15-.37.23-.16.38-.16h1.76c.08,0,.12-.04.12-.12v-.91c0-.16.06-.31.18-.43s.27-.18.44-.18.32.06.44.18.18.27.18.43v.91c0,.08.04.12.12.12h3.62c.09,0,.14-.04.14-.12v-.88c0-.18.06-.33.19-.46s.28-.19.47-.19.34.06.47.19.19.28.19.46v.88c0,.08.04.12.12.12h1.79c.15,0,.28.05.38.16s.15.23.15.37-.05.26-.15.37-.23.16-.38.16h-1.79c-.08,0-.12.04-.12.12v1.02c0,.29-.1.54-.31.74s-.45.3-.73.3h-1.46c-.09,0-.14.05-.14.14v.6c0,.09.05.14.14.14h3.11c.28,0,.52.1.73.3s.31.45.31.74v1.53c0,.29-.1.54-.31.74s-.45.3-.73.3h-3.11c-.09,0-.14.05-.14.14v.79c0,.09.05.14.14.14h3.87c.14,0,.26.05.36.15s.15.22.15.36-.05.26-.15.36-.22.15-.36.15h-3.87c-.09,0-.14.05-.14.14v.97c0,.09.05.14.14.14h3.5c.14,0,.26.05.36.14s.15.21.15.35-.05.26-.15.35-.22.14-.36.14h-3.5c-.09,0-.14.05-.14.14v1.12ZM98.2,439.49c0,.08.04.12.12.12h2.64c.08,0,.12-.04.12-.12v-1.42c0-.08-.04-.12-.12-.12h-2.64c-.08,0-.12.04-.12.12v1.42ZM99.94,433.92c-.08,0-.12.04-.12.12v.98c0,.08.04.12.12.12h3.62c.09,0,.14-.04.14-.12v-.98c0-.08-.05-.12-.14-.12h-3.62ZM105.35,438.07c0-.08-.04-.12-.12-.12h-2.71c-.09,0-.14.04-.14.12v1.42c0,.08.05.12.14.12h2.71c.08,0,.12-.04.12-.12v-1.42Z" style="fill: #4b4c4e;"/>
        <path d="M113.76,431.88c.07-.16.19-.29.35-.37s.33-.09.51-.04c.16.05.28.15.36.31s.08.32.03.48c-.45,1.08-.97,2.13-1.56,3.16-.04.08-.05.16-.05.25v11.3c0,.18-.06.33-.18.45s-.27.18-.45.18-.33-.06-.45-.18-.18-.27-.18-.45v-9.33s0-.04-.03-.04-.03,0-.04,0c-.4.55-.81,1.07-1.23,1.56-.13.13-.28.18-.46.16s-.31-.11-.4-.27-.14-.33-.14-.52v-.09c.02-.22.11-.41.25-.56,1.49-1.64,2.72-3.64,3.69-6.01ZM121.28,446.17c0,.08.05.12.14.12h4.46c.15,0,.28.05.38.15s.15.22.15.37-.05.27-.15.37-.23.15-.38.15h-10.55c-.14,0-.26-.05-.36-.15s-.15-.22-.15-.37.05-.27.15-.37.22-.15.36-.15h4.52c.08,0,.12-.04.12-.12v-1.12c0-.09-.04-.14-.12-.14h-3.43c-.14,0-.26-.05-.35-.14s-.14-.21-.14-.35.05-.26.14-.35.21-.14.35-.14h3.43c.08,0,.12-.05.12-.14v-.97c0-.09-.04-.14-.12-.14h-3.78c-.14,0-.26-.05-.37-.15s-.16-.22-.16-.36.05-.26.16-.36.23-.15.37-.15h3.78c.08,0,.12-.05.12-.14v-.79c0-.09-.04-.14-.12-.14h-2.94c-.29,0-.54-.1-.74-.3s-.3-.45-.3-.74v-1.53c0-.29.1-.54.3-.74s.45-.3.74-.3h2.94c.08,0,.12-.05.12-.14v-.6c0-.09-.04-.14-.12-.14h-1.35c-.28,0-.52-.1-.73-.3s-.31-.45-.31-.74v-1.02c0-.08-.04-.12-.12-.12h-1.76c-.15,0-.28-.05-.38-.16s-.15-.23-.15-.37.05-.26.15-.37.23-.16.38-.16h1.76c.08,0,.12-.04.12-.12v-.91c0-.16.06-.31.18-.43s.27-.18.44-.18.32.06.44.18.18.27.18.43v.91c0,.08.04.12.12.12h3.62c.09,0,.14-.04.14-.12v-.88c0-.18.06-.33.19-.46s.28-.19.47-.19.34.06.47.19.19.28.19.46v.88c0,.08.04.12.12.12h1.79c.15,0,.28.05.38.16s.15.23.15.37-.05.26-.15.37-.23.16-.38.16h-1.79c-.08,0-.12.04-.12.12v1.02c0,.29-.1.54-.31.74s-.45.3-.73.3h-1.46c-.09,0-.14.05-.14.14v.6c0,.09.05.14.14.14h3.11c.28,0,.52.1.73.3s.31.45.31.74v1.53c0,.29-.1.54-.31.74s-.45.3-.73.3h-3.11c-.09,0-.14.05-.14.14v.79c0,.09.05.14.14.14h3.87c.14,0,.26.05.36.15s.15.22.15.36-.05.26-.15.36-.22.15-.36.15h-3.87c-.09,0-.14.05-.14.14v.97c0,.09.05.14.14.14h3.5c.14,0,.26.05.36.14s.15.21.15.35-.05.26-.15.35-.22.14-.36.14h-3.5c-.09,0-.14.05-.14.14v1.12ZM117.1,439.49c0,.08.04.12.12.12h2.64c.08,0,.12-.04.12-.12v-1.42c0-.08-.04-.12-.12-.12h-2.64c-.08,0-.12.04-.12.12v1.42ZM118.84,433.92c-.08,0-.12.04-.12.12v.98c0,.08.04.12.12.12h3.62c.09,0,.14-.04.14-.12v-.98c0-.08-.05-.12-.14-.12h-3.62ZM124.25,438.07c0-.08-.04-.12-.12-.12h-2.71c-.09,0-.14.04-.14.12v1.42c0,.08.05.12.14.12h2.71c.08,0,.12-.04.12-.12v-1.42Z" style="fill: #4b4c4e;"/>
        <path d="M138.04,443.48c-.09,0-.14.05-.14.14v2.18c0,.09.04.14.12.14.62.07,1.29.11,2,.11,2.14,0,3.69,0,4.62-.02.15,0,.27.06.35.19.06.08.09.16.09.25,0,.06-.01.12-.04.18-.07.19-.18.34-.34.47s-.33.18-.52.18h-4.22c-1.9,0-3.42-.2-4.55-.61s-2.05-1.16-2.74-2.28c-.01-.02-.03-.04-.06-.04s-.05.01-.06.04c-.59,1.11-1.32,2.06-2.21,2.83-.13.12-.28.18-.44.18h-.07c-.19-.02-.36-.11-.51-.25-.11-.11-.16-.24-.16-.4,0-.18.07-.32.21-.44,1.36-1.09,2.29-2.68,2.79-4.78.04-.19.13-.34.29-.45s.33-.16.52-.13.33.11.44.26.13.32.09.49c-.08.32-.18.65-.28,1-.02.09-.02.18.02.25.62,1.37,1.69,2.27,3.22,2.71.04.01.06,0,.09,0s.04-.04.04-.08v-5.15c0-.09-.04-.14-.12-.14h-6.64c-.16,0-.31-.06-.43-.18s-.18-.26-.18-.42.06-.31.18-.43.27-.18.43-.18h14.59c.16,0,.31.06.43.18s.18.27.18.43-.06.3-.18.42-.27.18-.43.18h-6.36c-.09,0-.14.05-.14.14v1.72c0,.09.05.14.14.14h5.2c.16,0,.3.06.42.17s.18.25.18.41-.06.3-.18.42-.26.18-.42.18h-5.2ZM141.99,431.95c.28,0,.52.1.73.3s.31.45.31.74v3.87c0,.28-.1.52-.31.73s-.45.31-.73.31h-9.88c-.28,0-.52-.1-.73-.31s-.31-.45-.31-.73v-3.87c0-.29.1-.54.31-.74s.45-.3.73-.3h9.88ZM141.57,434.43c.08,0,.12-.04.12-.12v-1.2c0-.09-.04-.14-.12-.14h-9.05c-.08,0-.12.05-.12.14v1.2c0,.08.04.12.12.12h9.05ZM141.57,436.85c.08,0,.12-.04.12-.12v-1.2c0-.08-.04-.12-.12-.12h-9.05c-.08,0-.12.04-.12.12v1.2c0,.08.04.12.12.12h9.05Z" style="fill: #4b4c4e;"/>
        <path d="M148.06,439.39c-.14-.14-.21-.31-.21-.52s.07-.38.21-.52.31-.21.51-.21h14.91c.2,0,.37.07.51.21s.21.31.21.52-.07.38-.21.52-.31.21-.51.21h-14.91c-.2,0-.37-.07-.51-.21Z" style="fill: #4b4c4e;"/>
        <path d="M170,431.9c.06-.16.17-.29.33-.37.09-.06.19-.09.3-.09.06,0,.12.01.19.04.16.05.29.15.37.3s.09.31.04.47c-.35.96-.74,1.88-1.18,2.76-.05.08-.07.17-.07.26v11.74c0,.19-.06.34-.18.47s-.27.18-.45.18-.33-.06-.45-.18-.18-.28-.18-.47v-9.44s0-.04-.03-.04-.03,0-.04.03c-.41.63-.81,1.19-1.2,1.67-.11.14-.25.2-.42.18s-.3-.12-.39-.28-.12-.34-.12-.53v-.11c.02-.22.11-.42.25-.6,1.3-1.61,2.38-3.6,3.23-5.99ZM172.06,433.34c0-.28.1-.52.31-.73s.45-.31.73-.31h8.37c.29,0,.54.1.74.31s.3.45.3.73v13.5c0,.18-.06.33-.18.46s-.27.19-.45.19-.33-.06-.46-.19-.19-.28-.19-.46v-.18c0-.07-.03-.11-.09-.11h-7.7c-.08,0-.12.04-.12.12v.32c0,.18-.06.33-.18.45s-.27.18-.44.18-.32-.06-.44-.18-.18-.27-.18-.45v-13.66ZM173.31,445.24c0,.09.04.14.12.14h7.66c.08,0,.12-.05.12-.14v-11.64c0-.08-.04-.12-.12-.12h-7.66c-.08,0-.12.04-.12.12v11.64ZM180.47,436.24c.1.11.15.23.15.37s-.05.26-.15.36-.23.15-.38.15h-2.13c-.08,0-.12.04-.12.12v1.72c0,.08.04.12.12.12h.91c.28,0,.52.1.73.31s.31.45.31.73v2.72c0,.28-.1.52-.31.73s-.45.31-.73.31h-3.06c-.29,0-.54-.1-.74-.31s-.3-.45-.3-.73v-2.72c0-.28.1-.52.3-.73s.45-.31.74-.31h.79c.08,0,.12-.04.12-.12v-1.72c0-.08-.04-.12-.12-.12h-2.06c-.14,0-.26-.05-.36-.15s-.15-.22-.15-.36.05-.26.15-.37.22-.16.36-.16h2.06c.08,0,.12-.04.12-.12v-1.35c0-.15.06-.28.17-.39s.24-.16.4-.16.28.05.39.16.16.23.16.39v1.35c0,.08.04.12.12.12h2.13c.15,0,.28.05.38.16ZM178.72,442.88c.08,0,.12-.04.12-.12v-2.53c0-.08-.04-.12-.12-.12h-2.78c-.09,0-.14.04-.14.12v2.53c0,.08.05.12.14.12h2.78Z" style="fill: #4b4c4e;"/>
        <path d="M192.66,437.45c.29-.35.65-.53,1.07-.53s.8.16,1.11.49c.86.95,1.87,1.84,3.04,2.67s2.36,1.52,3.57,2.07c.16.08.27.21.32.39.01.06.02.11.02.16,0,.12-.04.23-.12.33-.12.18-.28.29-.47.35-.07.02-.14.04-.21.04-.12,0-.23-.03-.35-.09-.57-.3-1.17-.64-1.78-1.02-.02-.02-.05-.03-.07,0s-.04.04-.04.06v4.55c0,.19-.07.35-.2.47s-.29.19-.47.19h-.19c-.13,0-.24-.05-.33-.14s-.14-.21-.14-.35c0-.04-.02-.05-.07-.05h-7.12s-.07.02-.07.07c0,.15-.05.28-.16.39s-.23.16-.39.16h-.09c-.18,0-.33-.06-.46-.18s-.19-.28-.19-.47v-4.45s-.01-.04-.04-.05-.05-.01-.07,0c-.56.35-1.14.69-1.74,1-.16.08-.33.1-.51.04s-.32-.16-.42-.31c-.07-.11-.11-.22-.11-.33,0-.05,0-.09.02-.14.04-.16.13-.28.28-.35,1.25-.63,2.45-1.39,3.59-2.29s2.07-1.79,2.79-2.69ZM187.76,434.09c-.08,0-.12.04-.12.12v1.25c0,.18-.06.33-.19.45s-.28.18-.46.18-.33-.06-.46-.18-.19-.27-.19-.45v-1.56c0-.28.1-.52.31-.73s.45-.31.73-.31h5.57c.08,0,.12-.04.12-.12v-.86c0-.19.07-.35.2-.47s.29-.19.47-.19.34.06.47.19.2.29.2.47v.86c0,.08.04.12.12.12h5.68c.28,0,.52.1.73.31s.31.45.31.73v1.53c0,.19-.07.35-.2.47s-.3.19-.48.19-.35-.06-.48-.19-.2-.29-.2-.47v-1.21c0-.08-.04-.12-.12-.12h-12.01ZM190.34,435.45c.22-.25.47-.37.74-.37.12,0,.23.02.33.07.16.05.27.15.32.31s.02.3-.09.41c-1,1.17-2.2,2.21-3.62,3.13-.13.08-.26.12-.4.12-.05,0-.1,0-.16-.02-.19-.04-.35-.13-.49-.28-.12-.13-.16-.28-.14-.45s.11-.3.26-.4c1.31-.74,2.4-1.58,3.25-2.53ZM190.15,441.57s-.01.04,0,.06.02.03.04.03h7.52s.04,0,.04-.03,0-.03-.03-.04c-1.63-1.12-2.91-2.23-3.83-3.32-.06-.07-.12-.07-.18,0-.83,1.08-2.02,2.18-3.57,3.3ZM190.15,445.71c0,.08.05.12.14.12h6.98c.09,0,.14-.04.14-.12v-2.72c0-.09-.05-.14-.14-.14h-6.98c-.09,0-.14.05-.14.14v2.72ZM195.85,436.03c-.12-.08-.18-.2-.2-.34s.03-.27.15-.38c.14-.12.3-.18.47-.19h.07c.15,0,.3.04.44.12,1.51.95,2.74,1.85,3.69,2.69.14.12.21.27.2.45s-.07.33-.2.45c-.14.13-.3.19-.48.18s-.34-.07-.48-.2c-1-.93-2.21-1.85-3.66-2.78Z" style="fill: #4b4c4e;"/>
        <path d="M220.55,438.47c.12.12.18.26.18.43s-.06.31-.18.43-.26.18-.44.18h-4.24s-.04.01-.05.04,0,.04.02.05c1.24,1.09,2.82,1.92,4.73,2.48.14.04.23.13.28.28.01.05.02.09.02.14,0,.09-.03.18-.09.26-.13.16-.29.28-.49.35-.09.04-.19.05-.3.05-.09,0-.18-.01-.26-.04-.13-.05-.25-.09-.37-.14-.04-.01-.06,0-.09,0s-.04.04-.04.08v3.92c0,.18-.06.33-.18.45s-.27.18-.45.18h-.07c-.15,0-.28-.05-.39-.16s-.16-.23-.16-.39c0-.05-.02-.07-.07-.07h-3.13s-.07.02-.07.07c0,.16-.06.3-.18.42s-.26.18-.42.18-.3-.06-.42-.18-.18-.26-.18-.42v-4.18c0-.28.1-.52.31-.73s.45-.31.73-.31h2.27s.04,0,.04-.03,0-.03-.03-.04c-1.1-.66-2-1.38-2.69-2.18-.06-.07-.13-.11-.23-.11h-2.44c-.09,0-.17.03-.23.09-.8.84-1.73,1.58-2.79,2.2-.02.01-.03.03-.03.04s.02.03.04.03h2.34c.28,0,.52.1.73.31s.31.45.31.73v4.1c0,.18-.06.33-.18.45s-.27.18-.43.18h-.09c-.15,0-.28-.05-.39-.16s-.16-.23-.16-.39c0-.05-.02-.07-.07-.07h-3.08s-.07.02-.07.07c0,.16-.06.3-.18.42s-.26.18-.42.18-.3-.06-.42-.18-.18-.26-.18-.42v-4.04s-.01-.06-.04-.08-.05-.01-.09,0c-.12.05-.24.09-.37.14-.19.07-.37.08-.54.02s-.33-.16-.46-.32c-.07-.08-.11-.18-.11-.28,0-.04,0-.07.02-.11.04-.15.12-.25.26-.3,1.83-.67,3.34-1.51,4.54-2.53.02-.01.03-.03.02-.05s-.03-.04-.05-.04h-4.06c-.18,0-.32-.06-.44-.18s-.18-.26-.18-.43.06-.31.18-.43.26-.18.44-.18h5.24c.08,0,.15-.03.21-.09.3-.38.56-.76.77-1.16.01-.02.01-.05,0-.07s-.04-.04-.07-.04h-4.5c-.28,0-.52-.1-.73-.31s-.31-.45-.31-.73v-2.87c0-.28.1-.52.31-.73s.45-.31.73-.31h3.73c.28,0,.52.1.73.31s.31.45.31.73v3.62c.07-.14.18-.19.32-.14l.44.14c.16.05.28.15.35.32s.06.33-.02.49c-.13.26-.27.5-.42.72-.02.02-.03.05,0,.07s.04.04.06.04h7.66c.18,0,.32.06.44.18ZM210.33,435.85c.08,0,.12-.04.12-.12v-2.5c0-.09-.04-.14-.12-.14h-3.08c-.08,0-.12.05-.12.14v2.5c0,.08.04.12.12.12h3.08ZM210.47,445.85c.08,0,.12-.04.12-.12v-2.6c0-.08-.04-.12-.12-.12h-2.97c-.08,0-.12.04-.12.12v2.6c0,.08.04.12.12.12h2.97ZM218.49,432c.29,0,.54.1.74.31s.3.45.3.73v2.87c0,.28-.1.52-.3.73s-.45.31-.74.31h-3.76c-.28,0-.52-.1-.73-.31s-.31-.45-.31-.73v-2.87c0-.28.1-.52.31-.73s.45-.31.73-.31h3.76ZM214.71,445.73c0,.08.04.12.12.12h3.02c.08,0,.12-.04.12-.12v-2.6c0-.08-.04-.12-.12-.12h-3.02c-.08,0-.12.04-.12.12v2.6ZM218.14,435.85c.08,0,.12-.04.12-.12v-2.5c0-.09-.04-.14-.12-.14h-3.11c-.08,0-.12.05-.12.14v2.5c0,.08.04.12.12.12h3.11Z" style="fill: #4b4c4e;"/>
        <path d="M225.22,441.94c1.39-.58,2.18-1.42,2.27-2.65-.11.02-.2.02-.31.02-.74,0-1.35-.43-1.35-1.28s.63-1.3,1.37-1.3c.99,0,1.53.81,1.53,2.07,0,1.95-1.22,3.42-3.12,4.09l-.4-.95Z" style="fill: #4b4c4e;"/>
        <path d="M88.25,465.95c.13.13.19.29.19.47s-.06.35-.19.47-.29.19-.47.19h-6.64c-.09,0-.15.04-.18.12-.16.59-.42,1.37-.76,2.36,0,.04,0,.06.03.09s.04.04.06.04h6.21c.28,0,.52.1.73.31s.31.45.31.73v8.84c0,.39-.05.68-.15.88s-.28.35-.54.46c-.35.14-1.04.22-2.07.25-.19,0-.36-.06-.51-.18s-.26-.28-.33-.47c-.06-.14-.05-.27.04-.4s.19-.18.33-.18c.21.01.41.02.6.02.36,0,.67-.01.93-.04.25-.01.37-.13.37-.35v-8.46c0-.09-.05-.14-.14-.14h-2.78c-.09,0-.14.05-.14.14v8.89c0,.19-.06.35-.19.47s-.28.19-.47.19-.34-.06-.47-.19-.19-.29-.19-.47v-8.89c0-.09-.04-.14-.12-.14h-2.71c-.09,0-.14.05-.14.14v8.89c0,.19-.06.35-.19.47s-.28.19-.47.19-.34-.06-.47-.19-.19-.29-.19-.47v-8.89c0-.09-.04-.14-.12-.14h-2.6c-.08,0-.12.05-.12.14v9.49c0,.19-.06.35-.19.47s-.29.19-.47.19-.35-.06-.47-.19-.19-.29-.19-.47v-9.86c0-.28.1-.52.31-.73s.45-.31.73-.31h4.25c.08,0,.13-.04.16-.12.25-.86.44-1.64.58-2.36.01-.08-.02-.12-.11-.12h-6.19c-.19,0-.35-.06-.47-.19s-.19-.29-.19-.47.06-.35.19-.47.29-.19.47-.19h14.7c.19,0,.35.06.47.19Z" style="fill: #4b4c4e;"/>
        <path d="M100.24,477.48c-.09,0-.14.05-.14.14v2.18c0,.09.04.14.12.14.62.07,1.29.11,2,.11,2.14,0,3.69,0,4.62-.02.15,0,.27.06.35.19.06.08.09.16.09.25,0,.06-.01.12-.04.18-.07.19-.18.34-.34.47s-.33.18-.52.18h-4.22c-1.9,0-3.42-.2-4.55-.61s-2.05-1.16-2.74-2.28c-.01-.02-.03-.04-.06-.04s-.05.01-.06.04c-.59,1.11-1.32,2.06-2.21,2.83-.13.12-.28.18-.44.18h-.07c-.19-.02-.36-.11-.51-.25-.11-.11-.16-.24-.16-.4,0-.18.07-.32.21-.44,1.36-1.09,2.29-2.68,2.79-4.78.04-.19.13-.34.29-.45s.33-.16.52-.13.33.11.44.26.13.32.09.49c-.08.32-.18.65-.28,1-.02.09-.02.18.02.25.62,1.37,1.69,2.27,3.22,2.71.04.01.06,0,.09,0s.04-.04.04-.08v-5.15c0-.09-.04-.14-.12-.14h-6.64c-.16,0-.31-.06-.43-.18s-.18-.26-.18-.42.06-.31.18-.43.27-.18.43-.18h14.59c.16,0,.31.06.43.18s.18.27.18.43-.06.3-.18.42-.27.18-.43.18h-6.36c-.09,0-.14.05-.14.14v1.72c0,.09.05.14.14.14h5.2c.16,0,.3.06.42.17s.18.25.18.41-.06.3-.18.42-.26.18-.42.18h-5.2ZM104.19,465.95c.28,0,.52.1.73.3s.31.45.31.74v3.87c0,.28-.1.52-.31.73s-.45.31-.73.31h-9.88c-.28,0-.52-.1-.73-.31s-.31-.45-.31-.73v-3.87c0-.29.1-.54.31-.74s.45-.3.73-.3h9.88ZM103.77,468.43c.08,0,.12-.04.12-.12v-1.2c0-.09-.04-.14-.12-.14h-9.05c-.08,0-.12.05-.12.14v1.2c0,.08.04.12.12.12h9.05ZM103.77,470.85c.08,0,.12-.04.12-.12v-1.2c0-.08-.04-.12-.12-.12h-9.05c-.08,0-.12.04-.12.12v1.2c0,.08.04.12.12.12h9.05Z" style="fill: #4b4c4e;"/>
        <path d="M110.26,473.39c-.14-.14-.21-.31-.21-.52s.07-.38.21-.52.31-.21.51-.21h14.91c.2,0,.37.07.51.21s.21.31.21.52-.07.38-.21.52-.31.21-.51.21h-14.91c-.2,0-.37-.07-.51-.21Z" style="fill: #4b4c4e;"/>
        <path d="M132.66,465.88c.07-.16.19-.29.35-.37.09-.05.19-.07.3-.07.07,0,.14.01.21.04.16.05.28.15.36.31s.08.32.03.48c-.45,1.08-.97,2.13-1.56,3.16-.04.08-.05.16-.05.25v11.3c0,.18-.06.33-.18.45s-.27.18-.45.18-.33-.06-.45-.18-.18-.27-.18-.45v-9.33s0-.04-.03-.04-.03,0-.04,0c-.4.55-.81,1.07-1.23,1.56-.13.13-.28.18-.46.16s-.31-.11-.4-.27-.14-.33-.14-.52v-.09c.02-.22.11-.41.25-.56,1.51-1.66,2.74-3.67,3.69-6.01ZM135.86,467.83c.06-.19.17-.33.33-.41s.33-.11.51-.06c.18.04.3.13.39.29s.09.32.04.48c-.8,1.98-1.79,3.62-2.97,4.9-.12.12-.26.17-.42.17s-.3-.07-.42-.19-.18-.27-.18-.45c0-.15.05-.29.16-.4,1.08-1.2,1.93-2.64,2.57-4.32ZM135.17,473.39c-.12-.12-.18-.26-.18-.42s.06-.31.18-.43.26-.18.44-.18h6.66c.29,0,.53.11.72.32.2.2.3.43.3.7,0,1.86-.09,3.69-.26,5.48-.11,1.05-.27,1.72-.49,2-.26.36-.63.56-1.12.6-.23.01-.53.02-.88.02h-.49c-.19,0-.35-.07-.5-.2s-.24-.3-.29-.5c-.05-.15-.03-.29.06-.41s.21-.18.36-.17c.33.01.7.02,1.11.02.27,0,.46-.07.58-.21.16-.2.29-.77.38-1.71s.16-2.47.2-4.59c0-.09-.04-.14-.12-.14h-2.88c-.09,0-.15.04-.16.12-.08.82-.2,1.57-.36,2.24s-.38,1.35-.66,2.02-.65,1.29-1.12,1.85-1,1.06-1.63,1.49c-.15.11-.32.14-.49.1s-.32-.13-.44-.27c-.08-.11-.12-.22-.12-.35,0-.2.08-.35.23-.46.57-.38,1.06-.81,1.47-1.3s.73-1.03.97-1.63.42-1.18.55-1.76.22-1.22.28-1.92c.01-.09-.03-.14-.12-.14h-1.72c-.18,0-.32-.06-.44-.18ZM137.34,466.74c-.12-.12-.18-.26-.18-.42s.06-.3.18-.42.26-.18.42-.18h3.25c.29,0,.56.09.79.28s.39.43.47.72c.57,2.13,1.48,3.77,2.72,4.9.15.13.23.3.23.51,0,.18-.06.33-.18.46-.14.15-.31.24-.51.26h-.07c-.16,0-.31-.06-.44-.19-.68-.67-1.28-1.49-1.79-2.47s-.91-2.02-1.2-3.14c-.02-.09-.08-.14-.16-.14h-3.13c-.16,0-.3-.06-.42-.18Z" style="fill: #4b4c4e;"/>
        <path d="M157.61,465.83c.21-.36.51-.54.9-.54s.71.17.95.51c.59.89,1.27,1.73,2.07,2.52s1.6,1.45,2.42,1.98c.15.09.25.23.28.42.01.05.02.09.02.14,0,.13-.04.25-.11.35-.11.16-.25.27-.43.31s-.35,0-.5-.1c-.87-.62-1.71-1.36-2.53-2.21s-1.5-1.71-2.04-2.55c-.01-.02-.03-.04-.06-.04s-.05.01-.06.04c-.53.91-1.23,1.84-2.1,2.77s-1.8,1.73-2.79,2.38c-.08.06-.15.04-.21-.05v.11c0,.28-.1.52-.3.71s-.44.29-.72.29h-.84c-.08,0-.12.05-.12.14v3.76s.01.06.04.08.05.03.09.03c.14-.04.42-.11.85-.22s.76-.2.99-.27c.15-.04.29,0,.42.08s.21.21.23.38c.01.18-.03.33-.12.47s-.23.23-.4.28c-.66.19-1.57.44-2.73.76s-1.89.52-2.17.59c-.07.02-.13.04-.19.04-.11,0-.21-.03-.32-.09-.15-.09-.25-.23-.3-.4-.02-.06-.04-.12-.04-.18,0-.11.03-.21.09-.32.09-.15.23-.25.4-.3.14-.04.73-.18,1.76-.42.08-.02.12-.08.12-.18v-4.1c0-.09-.04-.14-.12-.14h-1.32c-.16,0-.31-.06-.43-.18s-.18-.26-.18-.43.06-.32.18-.44.27-.18.43-.18h1.32c.08,0,.12-.04.12-.12v-3.52c0-.09-.04-.14-.12-.14h-1.55c-.16,0-.31-.06-.43-.18s-.18-.26-.18-.44.06-.32.18-.44.27-.18.43-.18h4.78c.16,0,.31.06.43.18s.18.26.18.44-.06.32-.18.44-.27.18-.43.18h-1.71c-.08,0-.12.05-.12.14v3.52c0,.08.04.12.12.12h1.69s.04,0,.05-.03.01-.04,0-.06c-.08-.15-.12-.31-.12-.47,0-.06,0-.12.02-.18.04-.23.15-.42.33-.54.82-.6,1.6-1.3,2.33-2.1s1.32-1.61,1.77-2.42ZM162.11,475.83c.11-.15.25-.26.42-.32s.35-.05.51.02c.15.07.25.18.31.34s.04.31-.04.45c-1.54,2.36-4.11,4.07-7.73,5.13-.08.02-.16.04-.25.04-.12,0-.23-.02-.33-.07-.19-.07-.34-.19-.46-.37-.09-.13-.11-.27-.06-.42s.16-.25.31-.28c3.43-.88,5.88-2.38,7.33-4.52ZM158.52,470.56c.18-.19.36-.28.56-.28.12,0,.23.03.35.09.13.06.21.16.24.3s0,.26-.1.37c-.96,1.07-2.17,2.02-3.64,2.85-.15.08-.32.11-.49.08s-.33-.11-.46-.25c-.11-.11-.15-.23-.12-.38s.1-.25.23-.33c1.39-.71,2.54-1.53,3.43-2.44ZM160.19,473.12c.12-.13.26-.22.43-.26s.34-.04.5.04c.14.06.23.16.27.32s.01.29-.08.4c-1.25,1.59-2.94,2.92-5.06,3.97-.16.08-.33.1-.51.04s-.33-.15-.46-.29c-.11-.12-.14-.25-.11-.4s.11-.26.25-.32c.94-.42,1.83-.94,2.66-1.55s1.54-1.26,2.1-1.95Z" style="fill: #4b4c4e;"/>
        <path d="M167.56,473.1c-.04.13-.12.23-.25.29s-.26.07-.39.03-.22-.13-.28-.25c-.04-.08-.05-.16-.05-.23,0-.06.01-.11.04-.16.32-.98.55-2.2.7-3.66.02-.13.08-.23.18-.31s.21-.11.33-.1c.13.02.23.08.32.18s.12.21.11.34c-.14,1.49-.38,2.77-.7,3.85ZM170.03,481.43c-.12.12-.27.18-.45.18s-.33-.06-.45-.18-.18-.27-.18-.45v-15.13c0-.18.06-.33.18-.45s.27-.18.45-.18.33.06.45.18.18.27.18.45v15.13c0,.18-.06.33-.18.45ZM170.53,468.92c-.02-.06-.04-.12-.04-.18,0-.05.01-.1.04-.16.05-.11.12-.18.23-.23.12-.06.23-.06.34-.02s.2.13.25.25c.39.84.69,1.61.9,2.29.05.13.04.26-.02.39s-.15.22-.28.28c-.11.06-.21.06-.33,0s-.18-.14-.22-.25c-.2-.71-.49-1.51-.88-2.37ZM180.44,470.98c0,.09.05.14.14.14h1.86c.18,0,.32.06.44.18s.18.26.18.43-.06.31-.18.43-.26.18-.44.18h-9.18c-.18,0-.32-.06-.44-.18s-.18-.26-.18-.43.06-.31.18-.43.26-.18.44-.18h1.65c.08,0,.12-.05.12-.14v-2.09c0-.08-.04-.12-.12-.12h-1.21c-.16,0-.3-.06-.41-.18s-.17-.26-.17-.42.06-.3.17-.42.25-.18.41-.18h1.21c.08,0,.12-.04.12-.12v-1.56c0-.18.06-.33.19-.46s.28-.19.46-.19.33.06.46.19.19.28.19.46v1.56c0,.08.04.12.12.12h2.55c.09,0,.14-.04.14-.12v-1.56c0-.18.06-.33.18-.46s.28-.19.46-.19.33.06.46.19.18.28.18.46v1.56c0,.08.05.12.14.12h1.41c.16,0,.3.06.42.18s.18.26.18.42-.06.3-.18.42-.26.18-.42.18h-1.41c-.09,0-.14.04-.14.12v2.09ZM175,481.45c-.12.13-.28.19-.46.19s-.34-.06-.47-.19-.19-.29-.19-.47v-6.19c0-.28.1-.52.3-.73s.45-.31.74-.31h5.91c.29,0,.54.1.74.31s.3.45.3.73v6.15c0,.19-.06.35-.19.47s-.28.19-.47.19-.34-.06-.47-.19-.19-.29-.19-.47c0-.06-.03-.09-.09-.09h-5.19c-.06,0-.09.03-.09.09v.04c0,.19-.06.35-.18.47ZM180.55,475.04c0-.08-.05-.12-.14-.12h-5.08c-.09,0-.14.04-.14.12v1.58c0,.08.05.12.14.12h5.08c.09,0,.14-.04.14-.12v-1.58ZM175.19,479.61c0,.08.05.12.14.12h5.08c.09,0,.14-.04.14-.12v-1.63c0-.08-.05-.12-.14-.12h-5.08c-.09,0-.14.04-.14.12v1.63ZM176.47,468.76c-.08,0-.12.04-.12.12v2.09c0,.09.04.14.12.14h2.55c.09,0,.14-.05.14-.14v-2.09c0-.08-.05-.12-.14-.12h-2.55Z" style="fill: #4b4c4e;"/>
        <path d="M189.01,465.9c.05-.2.15-.36.32-.47.13-.08.26-.12.4-.12.05,0,.09,0,.14.02.19.04.33.13.43.3s.11.34.04.53c-.29.84-.51,1.45-.65,1.83-.01.02,0,.05,0,.08s.04.04.08.04h1.81c.29,0,.54.1.74.3s.3.45.3.74v9.6c0,.29-.1.54-.3.74s-.45.3-.74.3h-3.83c-.08,0-.12.05-.12.14v.67c0,.18-.06.32-.18.44s-.27.18-.43.18-.31-.06-.43-.18-.18-.26-.18-.44v-11.44c0-.29.1-.54.31-.74s.45-.3.73-.3h.84c.09,0,.15-.04.18-.12.22-.75.4-1.44.54-2.07ZM191.28,473.05c.09,0,.14-.04.14-.12v-3.5c0-.09-.05-.14-.14-.14h-3.52c-.08,0-.12.05-.12.14v3.5c0,.08.04.12.12.12h3.52ZM187.64,478.43c0,.09.04.14.12.14h3.52c.09,0,.14-.05.14-.14v-4.06c0-.08-.05-.12-.14-.12h-3.52c-.08,0-.12.04-.12.12v4.06ZM200.4,468.04c.29,0,.54.1.74.3.2.19.3.42.3.69,0,2.7-.16,5.54-.47,8.54-.16,1.58-.42,2.58-.76,3.01-.2.25-.41.42-.62.53s-.48.17-.8.19c-.23.04-.54.05-.93.05-.3,0-.65-.01-1.04-.04-.2,0-.38-.07-.53-.2s-.26-.3-.32-.5c-.06-.15-.04-.29.04-.41s.2-.18.34-.17c.59.04,1.24.05,1.97.05.35,0,.6-.09.74-.28.29-.3.52-1.22.68-2.75s.3-4.08.41-7.64c0-.09-.04-.14-.12-.14h-4.31c-.09,0-.16.04-.19.12-.41,1-.83,1.82-1.25,2.48-.11.15-.25.24-.43.27s-.34,0-.48-.11c-.15-.09-.25-.23-.28-.42-.01-.04-.02-.08-.02-.12,0-.13.04-.25.12-.37.9-1.38,1.63-3.16,2.2-5.34.05-.18.15-.31.32-.4.11-.07.22-.11.33-.11.05,0,.1.01.16.04.18.04.31.13.4.29s.12.32.07.48c-.18.64-.36,1.26-.56,1.85-.01.02,0,.05,0,.08s.04.04.08.04h4.2ZM198.25,475.57c.07.11.11.22.11.33,0,.06,0,.12-.02.18-.05.18-.15.31-.32.4-.11.07-.21.11-.32.11-.06,0-.12-.01-.18-.04-.16-.05-.29-.15-.39-.3-.53-.91-1.21-1.95-2.06-3.09-.07-.09-.11-.2-.11-.32v-.11c.04-.16.12-.29.26-.37.11-.06.22-.09.35-.09.04,0,.08,0,.12.02.18.04.32.12.42.25.88,1.15,1.58,2.16,2.11,3.02Z" style="fill: #4b4c4e;"/>
        <path d="M204.99,474.56v-1.63c0-.13.04-.24.13-.33s.2-.13.33-.13.24.04.33.13.14.2.14.33v1.65c0,2.2-.19,3.91-.58,5.13-.02.11-.09.17-.21.2s-.22,0-.32-.06c-.21-.15-.32-.33-.32-.54,0-.07,0-.13.02-.19.32-1.12.47-2.64.47-4.55ZM205.24,471.17c-.16,0-.3-.06-.42-.18s-.18-.25-.18-.41.06-.3.18-.41.26-.18.42-.18h4.75c.16,0,.3.06.41.18s.17.25.17.41-.06.3-.17.41-.25.18-.41.18h-1.58c-.09,0-.14.04-.14.12v9.76c0,.16-.06.3-.17.41s-.25.17-.4.17-.29-.06-.4-.17-.17-.25-.17-.41v-9.76c0-.08-.05-.12-.14-.12h-1.74ZM209.58,466.39c.16,0,.3.06.42.18s.18.26.18.42-.06.3-.18.41-.26.17-.42.17h-3.88c-.16,0-.3-.06-.41-.17s-.17-.25-.17-.41.06-.3.17-.42.25-.18.41-.18h3.88ZM210.28,478.9c-.09.09-.21.13-.33.13s-.24-.04-.33-.13-.13-.2-.13-.33v-5.66c0-.13.04-.24.13-.33s.2-.13.33-.13.24.04.33.13.14.2.14.33v5.66c0,.13-.05.24-.14.33ZM217.95,480.08s-.03.06,0,.09.04.04.06.04h2.41c.15,0,.28.05.38.15s.15.22.15.37-.05.27-.15.37-.23.15-.38.15h-9.25c-.14,0-.26-.05-.37-.15s-.16-.22-.16-.37.05-.27.16-.37.23-.15.37-.15h2.36c.08,0,.12-.04.11-.12-.09-.46-.25-.95-.47-1.48-.05-.13-.04-.26.02-.39s.16-.21.3-.25c.06-.01.12-.02.18-.02.09,0,.19.02.28.07.14.06.25.16.32.32.14.32.26.64.37.98.06.18.04.35-.05.51s-.23.28-.42.33v.03s0,0,.02,0h3.18s.02,0,.02,0,0,0-.02,0c-.14-.05-.24-.14-.29-.28s-.05-.28,0-.4c.16-.36.32-.73.46-1.11.06-.16.16-.29.32-.37.09-.05.19-.07.28-.07.06,0,.12,0,.18.02.16.05.28.14.34.29s.06.3,0,.45c-.34.73-.56,1.18-.67,1.37ZM220.2,472.56c.14,0,.26.05.37.15s.16.22.16.37-.05.27-.16.37-.23.15-.37.15h-8.7c-.14,0-.26-.05-.36-.15s-.15-.22-.15-.37.05-.27.15-.37.22-.15.36-.15h8.7ZM219.25,466.48c.29,0,.54.1.74.3s.3.45.3.74v3.16c0,.28-.1.52-.3.73s-.45.31-.74.31h-6.8c-.28,0-.52-.1-.73-.31s-.31-.45-.31-.73v-3.16c0-.29.1-.54.31-.74s.45-.3.73-.3h1.37c.09,0,.14-.05.14-.14v-.62c0-.14.05-.26.15-.36s.22-.15.36-.15.26.05.36.15.15.22.15.36v.62c0,.09.05.14.14.14h1.35c.08,0,.12-.05.12-.14v-.62c0-.14.05-.26.15-.36s.22-.15.36-.15.26.05.37.15.16.22.16.36v.62c0,.09.04.14.12.14h1.49ZM219.74,476.69c0,.28-.1.52-.3.73s-.45.31-.74.31h-5.66c-.28,0-.52-.1-.73-.31s-.31-.45-.31-.73v-1.16c0-.28.1-.52.31-.73s.45-.31.73-.31h5.66c.29,0,.54.1.74.31s.3.45.3.73v1.16ZM212.65,467.37c-.08,0-.12.04-.12.12v1.02c0,.08.04.12.12.12h1.3c.09,0,.14-.04.14-.12v-1.02c0-.08-.05-.12-.14-.12h-1.3ZM212.65,469.52c-.08,0-.12.04-.12.12v1.04c0,.08.04.12.12.12h1.3c.09,0,.14-.04.14-.12v-1.04c0-.08-.05-.12-.14-.12h-1.3ZM213.25,475.39c-.08,0-.12.05-.12.14v1.18c0,.08.04.12.12.12h5.19c.09,0,.14-.04.14-.12v-1.18c0-.09-.05-.14-.14-.14h-5.19ZM214.97,468.52c0,.08.05.12.14.12h1.35c.08,0,.12-.04.12-.12v-1.02c0-.08-.04-.12-.12-.12h-1.35c-.09,0-.14.04-.14.12v1.02ZM216.59,469.64c0-.08-.04-.12-.12-.12h-1.35c-.09,0-.14.04-.14.12v1.04c0,.08.05.12.14.12h1.35c.08,0,.12-.04.12-.12v-1.04ZM219.02,468.64c.09,0,.14-.04.14-.12v-1.02c0-.08-.05-.12-.14-.12h-1.41c-.09,0-.14.04-.14.12v1.02c0,.08.05.12.14.12h1.41ZM219.02,470.8c.09,0,.14-.04.14-.12v-1.04c0-.08-.05-.12-.14-.12h-1.41c-.09,0-.14.04-.14.12v1.04c0,.08.05.12.14.12h1.41Z" style="fill: #4b4c4e;"/>
        <path d="M230.04,473.79c.02.18,0,.34-.1.48s-.22.24-.4.29l-1.56.51c-.08.02-.12.08-.12.18v5.8c0,.16-.06.31-.18.43s-.27.18-.44.18-.32-.06-.44-.18-.18-.27-.18-.43v-5.41s-.01-.06-.04-.08-.05-.02-.09,0c-.09.02-.83.25-2.2.69-.18.05-.35.03-.51-.06s-.27-.22-.32-.4-.03-.34.06-.5.22-.26.4-.31c1.03-.28,1.89-.53,2.57-.74.08-.02.12-.08.12-.18v-3.74c0-.08-.04-.12-.12-.12h-1.37c-.09,0-.15.04-.16.12-.18.79-.36,1.45-.54,1.99-.06.14-.16.23-.31.28s-.28.03-.41-.05c-.14-.08-.24-.21-.3-.37-.04-.07-.05-.15-.05-.23s.01-.16.04-.23c.41-1.14.73-2.75.97-4.85.01-.16.08-.29.21-.39s.28-.13.44-.11.3.1.4.24.14.28.11.45c-.06.47-.14,1.04-.25,1.71-.01.09.02.14.11.14h1.12c.08,0,.12-.05.12-.14v-2.9c0-.16.06-.31.18-.43s.27-.18.44-.18.32.06.44.18.18.27.18.43v2.9c0,.09.05.14.14.14h1.07c.18,0,.33.06.46.18s.19.28.19.46-.06.34-.19.47-.28.19-.46.19h-1.07c-.09,0-.14.04-.14.12v3.41s.01.06.04.08.06.02.08,0l1.39-.42c.15-.05.3-.03.43.05s.21.2.24.35ZM238.37,468.24s0-.02.02-.02h.62c.18.01.33.08.46.19.11.12.16.25.16.4v.09c-.2,4.01-.41,6.87-.63,8.59s-.52,2.8-.88,3.26c-.29.4-.71.63-1.25.69-.21.02-.49.04-.83.04-.16,0-.34,0-.54,0s-.36-.08-.5-.21-.24-.3-.3-.5c-.04-.15-.01-.29.07-.41s.2-.18.35-.17c.45.02.84.04,1.2.04.27,0,.49-.11.67-.32.29-.32.54-1.25.76-2.81s.4-4.05.58-7.47c0-.08-.05-.12-.14-.12h-.6c-.08,0-.13.04-.16.12-.45,2.33-1.12,4.5-2.03,6.51s-2,3.61-3.28,4.79c-.15.13-.32.19-.51.18s-.37-.07-.54-.18c-.13-.09-.2-.22-.21-.39s.05-.3.18-.4c1.24-1.07,2.31-2.53,3.21-4.39s1.58-3.9,2.05-6.13c.01-.08-.02-.12-.11-.12h-1.21c-.09,0-.15.04-.18.12-.39,1.45-.93,2.86-1.62,4.23s-1.45,2.48-2.29,3.35c-.13.13-.29.19-.48.19s-.36-.06-.5-.18c-.13-.09-.2-.22-.21-.38s.04-.29.14-.4c.81-.76,1.55-1.75,2.21-2.97s1.2-2.5,1.6-3.85c0-.04,0-.06-.03-.09s-.04-.04-.08-.04h-1.28c-.08,0-.14.04-.18.11-.52,1.1-1.05,2.03-1.6,2.79-.11.14-.25.22-.42.24s-.33-.03-.47-.13c-.16-.12-.25-.28-.25-.49,0-.13.04-.25.12-.37,1.12-1.43,1.99-3.36,2.6-5.8.04-.18.13-.31.28-.4.11-.07.22-.11.33-.11.05,0,.09,0,.14.02.16.04.29.13.39.27s.12.3.07.47c-.18.71-.38,1.39-.62,2.04-.01.04,0,.06,0,.09s.04.04.08.04h5.62Z" style="fill: #4b4c4e;"/>
        <path d="M247.13,470.72c1.51,0,2.74,1.22,2.74,2.74s-1.22,2.74-2.74,2.74-2.74-1.22-2.74-2.74,1.24-2.74,2.74-2.74ZM247.13,475.27c1.01,0,1.82-.81,1.82-1.82s-.81-1.82-1.82-1.82-1.82.81-1.82,1.82.83,1.82,1.82,1.82Z" style="fill: #4b4c4e;"/>
      </g>
    </g>
  </g>
</svg>