<?xml version="1.0" encoding="UTF-8"?>
<svg id="_圖層_2" data-name="圖層 2" xmlns="http://www.w3.org/2000/svg" width="287.7" height="182.11" viewBox="0 0 287.7 182.11">
  <g id="_設計" data-name="設計">
    <g>
      <g>
        <path d="M36.19,115.88c.15.15.23.33.23.55s-.08.4-.23.55c-.15.15-.33.23-.55.23h-4.07s-.05,0-.05.03c0,.02,0,.04,0,.06.87.91,2.32,1.48,4.35,1.71.18.02.3.11.37.28.04.08.06.15.06.21,0,.1-.03.19-.09.28-.05.07-.09.14-.13.21-.14.22-.32.4-.56.53-.17.09-.34.13-.53.13-.06,0-.12,0-.19-.01-1.26-.21-2.3-.57-3.13-1.06-.83-.49-1.5-1.17-2.03-2.03,0-.02-.03-.03-.05-.03s-.04.01-.05.04c-.39.73-1,1.35-1.82,1.84-.83.49-1.97.89-3.45,1.18-.07,0-.13.01-.19.01-.17,0-.33-.04-.48-.13-.22-.13-.4-.3-.51-.53-.02-.03-.04-.06-.06-.1-.06-.12-.08-.23-.07-.35s.05-.22.13-.32c.08-.09.18-.15.31-.17,1.08-.18,1.95-.4,2.59-.67s1.14-.61,1.49-1.01c0-.02,0-.04,0-.06s-.02-.03-.04-.03h-3.85c-.21,0-.4-.08-.55-.23-.15-.15-.23-.33-.23-.55s.08-.4.23-.55.33-.23.55-.23h4.54c.08,0,.12-.03.13-.1.04-.19.08-.42.12-.7,0-.07-.02-.1-.09-.1h-4.58c-.22,0-.42-.08-.57-.23s-.23-.34-.23-.56.08-.41.23-.56.35-.23.57-.23h4.82c.07,0,.1-.04.1-.12v-.54c0-.07-.03-.1-.1-.1h-3.57c-.21,0-.4-.07-.54-.22s-.22-.32-.22-.53.07-.39.22-.54.33-.22.54-.22h3.57c.07,0,.1-.03.1-.1v-.54c0-.08-.03-.12-.1-.12h-4.23c-.21,0-.4-.08-.56-.23-.16-.15-.23-.34-.23-.56s.08-.4.23-.56c.16-.15.34-.23.56-.23h1.7s.05-.01.06-.04c0-.02,0-.05,0-.07-.07-.16-.15-.31-.25-.45-.07-.12-.1-.24-.1-.37,0-.07,0-.14.03-.22.06-.21.19-.34.38-.41.14-.06.28-.09.42-.09.1,0,.2,0,.31.03.24.07.44.21.59.41.18.25.32.5.44.73.04.09.04.18,0,.26s-.09.15-.17.18c0,0,0,.02,0,.03h3.63c-.1-.04-.16-.1-.19-.19s-.02-.17.03-.25c.15-.21.28-.44.41-.67.13-.21.3-.38.53-.48.15-.07.3-.1.45-.1.08,0,.16,0,.25.03l.25.06c.2.05.33.17.41.37.03.08.04.15.04.22,0,.12-.04.22-.12.32-.15.2-.3.4-.45.62-.02.02-.02.04-.01.06s.03.03.06.03h1.88c.21,0,.4.08.56.23.16.15.23.34.23.56s-.08.41-.23.56c-.16.15-.34.23-.56.23h-4.29c-.08,0-.12.04-.12.12v.54c0,.07.04.1.12.1h3.74c.21,0,.38.07.53.22s.22.33.22.54-.07.39-.22.53-.32.22-.53.22h-3.74c-.08,0-.12.03-.12.1v.54c0,.08.04.12.12.12h4.88c.22,0,.42.08.57.23s.23.34.23.56-.08.41-.23.56-.35.23-.57.23h-5.05c-.08,0-.12.03-.13.1-.02.23-.05.47-.1.7,0,.07.02.1.09.1h5.39c.21,0,.4.08.55.23Z" style="fill: #4b4c4e;"/>
        <path d="M43.89,109.69c.56,0,.92.01,1.08.04.15.02.27.09.37.21.1.12.14.26.13.42-.19,2.42-.58,4.41-1.19,5.98-.03.07-.01.13.04.18.37.3.69.59.95.85.2.19.29.42.29.69,0,.24-.07.46-.22.64l-.04.06c-.13.17-.3.25-.51.26h-.03c-.21,0-.38-.08-.53-.23-.2-.21-.42-.43-.69-.69-.06-.05-.11-.04-.15.01-.55.85-1.2,1.57-1.96,2.17-.14.1-.28.15-.44.15-.06,0-.12,0-.18-.01-.23-.05-.42-.17-.56-.37,0-.02-.02-.03-.03-.04-.11-.14-.16-.29-.16-.45,0-.05,0-.09.01-.13.03-.21.13-.39.31-.53.63-.48,1.19-1.11,1.66-1.9.04-.06.03-.11-.03-.16-.16-.13-.38-.3-.67-.51-.03-.02-.05,0-.06.03-.03.1-.09.17-.19.21-.1.04-.2.04-.29,0l-.35-.18c-.21-.12-.37-.28-.47-.5-.06-.14-.09-.28-.09-.42,0-.09,0-.18.03-.26.25-1.01.53-2.26.83-3.75.02-.07,0-.1-.09-.1h-.23c-.22,0-.42-.08-.58-.24s-.24-.35-.24-.58.08-.42.24-.58.35-.24.58-.24h.56c.07,0,.11-.03.13-.1.14-.76.25-1.44.35-2.04.04-.22.15-.41.34-.56.17-.13.35-.19.56-.19h.07c.23.02.42.12.56.29.11.15.16.3.16.47,0,.04,0,.09-.01.15-.11.59-.23,1.21-.37,1.88,0,.07.02.1.1.1h1ZM43.71,111.45c0-.08-.02-.12-.1-.12h-1.07c-.08,0-.12.03-.13.1-.17.83-.39,1.86-.67,3.08-.02.07,0,.12.07.16.48.32.79.53.92.63.06.05.1.03.13-.04.38-1.04.66-2.31.85-3.81ZM52.71,112.65c.23,0,.43.08.59.25.16.17.24.36.24.59s-.08.43-.24.59c-.16.17-.36.25-.59.25h-2.36c-.07,0-.1.03-.1.1v4.29c0,.47-.05.83-.16,1.08-.11.25-.3.44-.59.58-.39.18-.94.28-1.64.31-.02,0-.03.01-.04.01-.23,0-.44-.07-.63-.22-.21-.16-.35-.36-.44-.62-.02-.04-.03-.08-.04-.13-.03-.07-.04-.14-.04-.22,0-.1.03-.2.09-.31.11-.16.26-.23.45-.23h.01c.25,0,.46.01.63.01.14,0,.24,0,.31-.01.13,0,.21-.02.26-.05.04-.03.07-.11.07-.21v-4.28c0-.07-.03-.1-.1-.1h-2.23c-.22,0-.42-.08-.59-.25s-.25-.36-.25-.59.08-.43.25-.59.36-.25.59-.25h2.23c.07,0,.1-.03.1-.1v-1.14c0-.14.05-.25.15-.35s.21-.15.35-.15c.04,0,.07-.01.1-.04.47-.49.91-1.04,1.33-1.66,0-.02,0-.04,0-.06s-.02-.03-.04-.03h-3.74c-.22,0-.42-.08-.58-.24-.16-.16-.24-.36-.24-.59s.08-.43.24-.59.35-.24.58-.24h5s.06,0,.09-.01c.07-.02.13-.03.19-.03.15,0,.28.04.4.13l.32.25c.17.13.26.29.29.48,0,.05.01.09.01.13,0,.16-.05.3-.15.42-.83,1.15-1.65,2.11-2.46,2.89-.05.05-.07.11-.07.18v.64c0,.07.03.1.1.1h2.36Z" style="fill: #4b4c4e;"/>
        <path d="M64.65,117.34c-.07,0-.1.03-.1.1v1.23c0,.08.03.12.1.13.36.02.73.03,1.1.03,1.74,0,3.04,0,3.91-.01h.01c.19,0,.33.08.44.23.07.1.1.21.1.32,0,.07-.01.14-.04.21l-.03.09c-.08.24-.21.44-.41.6s-.42.23-.67.23h-3.41c-1.46,0-2.64-.14-3.54-.43-.91-.29-1.66-.83-2.24-1.62-.02-.02-.04-.03-.07-.02-.03,0-.05.02-.07.04-.38.68-.83,1.26-1.36,1.74-.17.15-.35.22-.56.22-.03,0-.06,0-.09-.01-.23-.02-.44-.12-.63-.29-.03-.02-.05-.04-.07-.07-.16-.14-.23-.31-.23-.51s.08-.4.25-.54c.91-.78,1.54-1.85,1.9-3.19.07-.23.2-.42.4-.56.16-.11.33-.16.51-.16.04,0,.08,0,.13.01h.09c.22.04.41.16.54.35.09.13.13.27.13.42,0,.06,0,.13-.03.21-.03.12-.07.25-.12.41-.02.08,0,.15.03.21.41.85,1.08,1.43,2.01,1.74.02,0,.04,0,.07,0,.02-.02.04-.04.04-.07v-3.59c0-.08-.04-.12-.12-.12h-4.95c-.21,0-.4-.08-.56-.23-.16-.15-.23-.34-.23-.56s.08-.4.23-.56c.16-.15.34-.23.56-.23h11.66c.21,0,.4.08.56.23.16.15.23.34.23.56s-.08.41-.23.56c-.16.15-.34.23-.56.23h-4.67c-.07,0-.1.04-.1.12v.91c0,.07.03.1.1.1h3.74c.21,0,.4.08.55.23.15.15.23.33.23.55s-.08.4-.23.55c-.15.15-.33.23-.55.23h-3.74ZM67.81,107.22c.24,0,.45.09.62.26s.25.37.25.61v3.49c0,.23-.08.44-.25.61-.17.17-.37.26-.62.26h-8.69c-.24,0-.45-.08-.62-.26-.17-.17-.25-.37-.25-.61v-3.49c0-.23.08-.44.25-.61s.37-.26.62-.26h8.69ZM66.76,109.24c.07,0,.1-.04.1-.12v-.54c0-.08-.03-.12-.1-.12h-6.65c-.08,0-.12.04-.12.12v.54c0,.08.04.12.12.12h6.65ZM66.76,111.19c.07,0,.1-.04.1-.12v-.56c0-.07-.03-.1-.1-.1h-6.65c-.08,0-.12.03-.12.1v.56c0,.08.04.12.12.12h6.65Z" style="fill: #4b4c4e;"/>
        <path d="M86.46,113.74c.19.16.28.36.28.62,0,.21-.08.41-.23.57h-.03c-.17.18-.37.26-.6.26s-.44-.08-.62-.25c-.33-.29-.75-.64-1.25-1.05-.05-.05-.09-.04-.13.01-.13.21-.25.39-.38.56-.15.19-.35.29-.6.32h-.1c-.21,0-.4-.06-.57-.18-.13-.08-.25-.15-.37-.22,0,0-.02,0-.03.01s0,.02,0,.03c.59.76,1.3,1.47,2.15,2.13.85.66,1.75,1.2,2.71,1.63.19.09.3.23.34.42,0,.05.01.1.01.15,0,.14-.05.26-.15.38-.08.1-.16.2-.23.31-.16.2-.35.33-.59.4-.09.02-.17.03-.25.03-.15,0-.29-.04-.42-.12-1.49-.82-2.84-1.92-4.03-3.31,0-.02-.02-.02-.04-.01s-.03.02-.03.04v3.38c0,.24-.08.45-.25.62s-.37.25-.62.25h-.15c-.23,0-.44-.08-.61-.25s-.26-.37-.26-.62v-3.3s0-.03-.02-.04c-.02,0-.03,0-.04.01-1.17,1.34-2.5,2.42-3.98,3.24-.15.07-.29.1-.44.1-.08,0-.16,0-.25-.03-.23-.06-.43-.19-.59-.38l-.18-.21c-.1-.12-.15-.25-.15-.4,0-.05,0-.1.01-.15.05-.21.17-.35.35-.44,1.05-.5,2.04-1.13,2.97-1.9.92-.77,1.67-1.6,2.25-2.49.04-.06.06-.13.06-.21v-3.24c0-.08-.03-.12-.1-.12h-4.48c-.24,0-.45-.08-.62-.25s-.25-.37-.25-.62h0c0-.26.08-.46.25-.63s.37-.25.62-.25h4.48c.07,0,.1-.04.1-.12v-.86c0-.24.08-.45.26-.62s.37-.25.61-.25h.15c.24,0,.45.08.62.25s.25.37.25.62v.86c0,.08.04.12.12.12h4.67c.24,0,.45.08.62.25s.25.37.25.62h0c0,.26-.08.46-.25.63s-.37.25-.62.25h-4.67c-.08,0-.12.04-.12.12v3.13c0,.08.02.15.06.21.02.02.04.05.07.08.02.03.04.06.05.08.04.06.08.06.13.01.7-.65,1.24-1.55,1.6-2.7.07-.23.21-.42.41-.56.16-.1.32-.15.48-.15.06,0,.12,0,.18.01h.04c.22.05.4.17.53.37.08.13.12.26.12.4,0,.08,0,.16-.03.23-.07.22-.15.45-.23.67-.02.07,0,.12.06.16.79.62,1.36,1.06,1.7,1.33ZM76.18,111.25c.08-.22.22-.41.42-.54.15-.1.3-.15.47-.15.06,0,.12,0,.19.03h.03c.23.05.41.17.53.37.08.13.12.25.12.38,0,.08-.01.16-.04.25-.08.23-.16.46-.25.69-.02.07,0,.13.04.18.31.26.56.48.75.64s.28.37.28.62-.08.43-.25.6c-.16.17-.35.25-.57.25h-.01c-.23,0-.43-.1-.6-.26l-.34-.34c-.06-.05-.11-.04-.15.03-.32.52-.67.97-1.04,1.36-.17.17-.36.25-.59.25h-.03c-.23,0-.45-.08-.64-.25-.02,0-.04-.02-.06-.04-.17-.15-.25-.33-.25-.54s.07-.4.22-.54c.78-.77,1.37-1.76,1.77-2.97Z" style="fill: #4b4c4e;"/>
        <path d="M97.8,108.21s0,.05,0,.07c.02.02.04.03.07.03h4.16c.23,0,.44.09.61.26.17.17.26.37.26.61v10.31c0,.23-.09.44-.26.61-.17.17-.37.26-.61.26h-.4c-.18,0-.33-.06-.45-.19s-.19-.28-.19-.45c0-.06-.03-.09-.09-.09h-6.96c-.06,0-.09.03-.09.09,0,.18-.07.33-.2.46s-.29.2-.46.2h-.29c-.23,0-.44-.09-.61-.26s-.26-.37-.26-.61v-10.33c0-.23.08-.44.26-.61.17-.17.37-.26.61-.26h2.89c.07,0,.11-.03.13-.1.09-.37.16-.71.22-1.01.05-.23.17-.42.37-.57.16-.13.34-.19.54-.19h.1l.44.06c.22.02.39.12.5.31.07.11.1.22.1.34,0,.08-.02.16-.06.25-.1.25-.21.53-.34.82ZM100.99,110.13c0-.07-.03-.1-.1-.1h-6.91c-.08,0-.12.03-.12.1v1.32c0,.08.04.12.12.12h6.91c.07,0,.1-.04.1-.12v-1.32ZM100.99,113.33c0-.07-.03-.1-.1-.1h-6.91c-.08,0-.12.03-.12.1v1.32c0,.08.04.12.12.12h6.91c.07,0,.1-.04.1-.12v-1.32ZM93.86,117.87c0,.07.04.1.12.1h6.91c.07,0,.1-.03.1-.1v-1.35c0-.07-.03-.1-.1-.1h-6.91c-.08,0-.12.03-.12.1v1.35Z" style="fill: #4b4c4e;"/>
        <path d="M110.58,112.14c0,.08.04.12.12.12h1.88c.23,0,.43.08.6.25.16.17.23.36.23.59,0,.98-.03,2.25-.09,3.81-.03.84-.08,1.52-.15,2.05s-.17.88-.29,1.07c-.26.34-.6.55-1.01.63-.19.04-.44.06-.76.06h-.01c-.22,0-.42-.08-.6-.23-.19-.16-.31-.36-.38-.6-.02-.06-.03-.12-.03-.18,0-.12.04-.23.12-.34.11-.16.25-.23.44-.23h.01c.07,0,.17.01.29.01h.04c.17,0,.29-.08.38-.23.19-.27.31-1.91.37-4.92,0-.08-.04-.12-.12-.12h-1.01c-.07,0-.11.04-.12.12-.18,2.71-.7,4.77-1.58,6.15-.12.18-.28.26-.48.26s-.4-.08-.56-.25c-.02-.03-.04-.06-.07-.09-.17-.18-.26-.38-.29-.62,0-.05-.01-.1-.01-.15,0-.19.05-.36.15-.51.51-.89.84-1.95,1-3.19.16-1.24.25-2.86.26-4.85,0-.07-.03-.1-.1-.1h-.53c-.22,0-.42-.08-.58-.24s-.24-.36-.24-.59.08-.43.24-.59c.16-.16.35-.24.58-.24h1.41c.08,0,.12-.03.12-.1v-1.29c0-.24.08-.45.25-.62s.37-.25.62-.25h.04c.23,0,.44.08.61.25s.26.37.26.62v1.29c0,.07.03.1.1.1h1.45c.22,0,.42.08.58.24s.24.36.24.59-.08.42-.24.59c-.16.16-.35.24-.58.24h-2.37c-.08,0-.12.03-.12.1-.02.59-.03,1.05-.04,1.39ZM116.1,107.5c.09-.24.23-.44.44-.59.21-.15.43-.23.69-.23h.01c.25,0,.49.07.7.22s.37.34.47.59c.67,1.65,1.46,2.89,2.36,3.72.19.17.3.37.35.6.02.08.03.16.03.23,0,.16-.03.3-.1.44l-.12.26c-.09.21-.24.33-.45.38-.05.02-.1.03-.16.03-.14,0-.26-.05-.38-.16-.56-.54-1.06-1.17-1.51-1.91s-.82-1.49-1.1-2.25c0-.02,0-.03-.03-.03s-.03,0-.04.03c-.26.74-.62,1.49-1.07,2.24s-.95,1.4-1.49,1.93c-.11.11-.23.16-.37.16-.06,0-.11,0-.16-.01-.21-.06-.35-.19-.44-.38-.03-.05-.05-.1-.07-.15-.08-.16-.12-.32-.12-.48,0-.08,0-.15.01-.22.05-.23.16-.44.34-.63.9-.92,1.64-2.18,2.21-3.79ZM115.07,117.96c-.2-.1-.32-.25-.38-.47,0-.06-.01-.12-.01-.18,0-.16.05-.3.15-.42h.01c.16-.21.36-.34.6-.4.09-.03.18-.04.26-.04.15,0,.29.03.44.1,1.48.7,2.7,1.4,3.63,2.08.2.14.31.33.34.57v.12c0,.2-.06.38-.19.54l-.13.18c-.15.19-.33.29-.56.31h-.1c-.2,0-.37-.06-.53-.18-.95-.74-2.12-1.48-3.53-2.21ZM118.79,113.96c.18.16.26.35.26.59s-.09.46-.28.64l-.04.04c-.16.15-.34.22-.54.22h-.04c-.22,0-.42-.1-.59-.28-.38-.39-.83-.79-1.33-1.19-.19-.14-.28-.32-.28-.56,0-.19.07-.35.21-.48.18-.17.38-.26.62-.28h.09c.21,0,.39.06.56.18.52.37.98.74,1.38,1.11Z" style="fill: #4b4c4e;"/>
        <path d="M126.11,108.14c0-.23.08-.44.26-.61.17-.17.37-.26.61-.26h8.69c.23,0,.44.09.61.26.17.17.26.37.26.61v11.18c0,.23-.09.44-.26.61-.17.17-.37.26-.61.26h-.21c-.23,0-.43-.08-.6-.25s-.25-.37-.25-.6c0-.07-.03-.1-.1-.1h-6.45c-.07,0-.1.03-.1.1,0,.24-.09.45-.26.62-.17.17-.37.26-.61.26h-.12c-.23,0-.44-.09-.61-.26s-.26-.37-.26-.61v-11.21ZM134.6,109.2c0-.08-.03-.12-.1-.12h-6.45c-.07,0-.1.04-.1.12v2.99c0,.08.03.12.1.12h6.45c.07,0,.1-.04.1-.12v-2.99ZM127.95,117.31c0,.08.03.12.1.12h6.45c.07,0,.1-.04.1-.12v-3.13c0-.07-.03-.1-.1-.1h-6.45c-.07,0-.1.03-.1.1v3.13Z" style="fill: #4b4c4e;"/>
        <path d="M152.5,108.68s-.01.02,0,.04.02.03.04.03h1.3c.24,0,.45.08.62.25s.25.37.25.62v1.89c0,.23-.08.44-.25.61-.17.17-.37.26-.62.26h-.04c-.24,0-.45-.08-.62-.26-.17-.17-.25-.37-.25-.61v-1.1c0-.08-.04-.12-.12-.12h-9.17c-.08,0-.12.04-.12.12v1.1c0,.24-.08.45-.25.62s-.37.25-.6.25-.43-.08-.6-.25-.25-.37-.25-.62v-1.89c0-.24.08-.45.25-.62s.37-.25.62-.25h1.04s.05,0,.07-.03c.02-.02.01-.04,0-.07-.09-.17-.18-.33-.28-.5-.08-.12-.12-.24-.12-.38,0-.07,0-.14.03-.21.06-.21.19-.36.38-.44h.03c.14-.07.28-.1.44-.1.1,0,.2,0,.29.03.25.07.45.21.6.41.06.09.12.17.18.25.07.11.1.22.1.35,0,.07-.01.14-.04.22-.07.2-.2.34-.4.42,0,0-.01,0,0,.02,0,.01.01.02.02.02h2.17c.08,0,.12-.04.12-.12v-1.07c0-.24.08-.45.25-.62s.37-.25.62-.25h.1c.24,0,.45.08.62.25s.25.37.25.62v1.07c0,.08.04.12.12.12h2.14s.02,0,.02-.01,0-.01,0-.01c-.19-.07-.31-.2-.37-.38,0-.07-.01-.13-.01-.19,0-.12.03-.23.1-.34.06-.08.12-.16.18-.25.14-.21.32-.37.56-.47.14-.05.27-.07.4-.07.11,0,.21.01.31.04l.26.07c.2.06.32.19.38.38.02.06.03.12.03.18,0,.13-.05.24-.15.35-.21.22-.4.43-.59.63ZM152.97,115.38c.23,0,.44.08.61.25s.26.37.26.62v2.2c0,.43-.05.76-.16.99-.11.23-.31.41-.6.55-.34.15-.88.23-1.61.25h-.03c-.23,0-.45-.07-.64-.22-.2-.16-.34-.36-.42-.6-.02-.08-.03-.15-.03-.21,0-.12.03-.22.1-.32.11-.17.25-.25.44-.25h.01c.24,0,.52.01.82.01.11,0,.18-.02.23-.05.04-.03.07-.09.07-.18v-1.33c0-.08-.03-.12-.1-.12h-2.49c-.07,0-.1.04-.1.12v2.8c0,.24-.09.45-.26.62-.17.17-.37.25-.61.25h-.12c-.24,0-.45-.08-.62-.25s-.25-.37-.25-.62v-2.8c0-.08-.04-.12-.12-.12h-2.59c-.08,0-.12.04-.12.12v2.12c0,.23-.08.44-.25.61-.17.17-.37.26-.62.26h-.09c-.23,0-.44-.09-.61-.26s-.26-.37-.26-.61v-2.96c0-.24.08-.45.26-.62.17-.17.37-.25.61-.25h3.66c.08,0,.12-.04.12-.12v-.67c0-.08-.04-.12-.12-.12h-2.23c-.24,0-.45-.08-.62-.25s-.25-.37-.25-.62v-1.71c0-.24.08-.45.25-.62s.37-.25.62-.25h6.24c.24,0,.45.08.62.25s.25.37.25.62v1.71c0,.24-.08.45-.25.62s-.37.25-.62.25h-1.95c-.07,0-.1.04-.1.12v.67c0,.08.03.12.1.12h3.56ZM146.07,112.29c-.08,0-.12.03-.12.1v.72c0,.07.04.1.12.1h4.23c.08,0,.12-.03.12-.1v-.72c0-.07-.04-.1-.12-.1h-4.23Z" style="fill: #4b4c4e;"/>
        <path d="M167.61,108.92s0,.05.01.07.04.03.06.03h3.27c.23,0,.43.09.6.26.17.16.25.35.25.57,0,2.41-.12,4.83-.35,7.27-.13,1.35-.34,2.21-.63,2.59-.2.26-.4.45-.62.57-.22.12-.49.21-.81.26-.28.04-.67.06-1.17.06-.1,0-.21,0-.32-.01-.24,0-.46-.08-.64-.25s-.32-.37-.4-.62c0-.04-.02-.08-.04-.12-.02-.07-.03-.13-.03-.19,0-.11.03-.21.09-.31.1-.15.23-.22.41-.22h.03c.4.02.86.03,1.38.03.26,0,.48-.08.66-.25.21-.23.37-.95.48-2.14s.22-3.12.31-5.79c0-.07-.04-.1-.12-.1h-2.99c-.07,0-.12.03-.15.1-.24.55-.51,1.06-.81,1.55-.12.2-.29.31-.53.34-.05,0-.1.01-.15.01-.18,0-.34-.05-.48-.16-.11-.08-.23-.16-.38-.25-.02-.02-.04-.02-.06,0-.02.02-.03.03-.03.05v6.04c0,.23-.09.44-.26.61-.17.17-.37.26-.61.26h-3.03c-.08,0-.12.03-.12.1v.18c0,.22-.08.42-.23.57s-.35.23-.57.23-.42-.08-.57-.23-.23-.35-.23-.57v-9.46c0-.24.08-.45.25-.62s.37-.25.62-.25h.72c.08,0,.12-.04.13-.12.13-.47.23-.95.31-1.45.04-.23.15-.42.34-.57.15-.12.31-.18.5-.18.04,0,.08,0,.13.01l.23.03c.22.03.4.14.51.34.07.12.1.23.1.35,0,.08-.01.16-.04.25-.16.45-.31.86-.45,1.23,0,.02,0,.04,0,.07.01.03.04.04.07.04h1.35c.23,0,.44.08.61.25.17.17.26.37.26.62v1.45s0,.03.02.04c.02,0,.03,0,.04-.02.69-1.03,1.27-2.32,1.74-3.9.07-.23.21-.42.41-.54.14-.09.28-.13.44-.13.07,0,.14,0,.22.03.23.06.42.19.54.38.08.14.12.27.12.41,0,.08-.01.16-.04.23-.08.28-.19.61-.32.97ZM162.71,113.12c.07,0,.1-.04.1-.12v-2.2c0-.08-.03-.12-.1-.12h-2.17c-.08,0-.12.04-.12.12v2.2c0,.08.04.12.12.12h2.17ZM160.43,117.5c0,.07.04.1.12.1h2.17c.07,0,.1-.03.1-.1v-2.72c0-.08-.03-.12-.1-.12h-2.17c-.08,0-.12.04-.12.12v2.72ZM168.88,115.11c.09.15.13.29.13.44,0,.08,0,.15-.03.22-.06.23-.2.42-.41.54l-.04.03c-.13.08-.26.12-.4.12-.08,0-.16,0-.23-.03-.21-.07-.38-.21-.5-.41-.32-.57-.74-1.24-1.25-2.02-.08-.13-.12-.26-.12-.41,0-.06,0-.12.01-.18.05-.21.17-.38.35-.48.15-.08.29-.12.44-.12.07,0,.14,0,.21.01.21.05.39.17.53.35.54.76.97,1.41,1.3,1.93Z" style="fill: #4b4c4e;"/>
        <path d="M188.31,116.58c.15.13.22.28.22.45,0,.24-.1.43-.31.57-.17.1-.34.15-.53.15h-.13c-.23-.03-.44-.13-.62-.29h-.01s-.11-.07-.19-.07c-.41,0-1.03.03-1.85.05s-1.43.04-1.82.05c-.08,0-.12.03-.12.1v2.27c0,.24-.08.45-.25.62s-.37.25-.62.25h-.01c-.24,0-.45-.08-.62-.25s-.25-.37-.25-.62v-2.23c0-.07-.04-.1-.12-.1-.29,0-1.88.04-4.75.09h-.01c-.2,0-.36-.06-.5-.19-.15-.15-.22-.32-.22-.53,0-.18.06-.33.19-.47.14-.14.3-.21.5-.21.37,0,1.06-.02,2.08-.03.07,0,.14-.01.21-.04.15-.07.34-.16.57-.28.02-.02.03-.04.04-.07,0-.02,0-.04-.04-.05-.54-.41-1.16-.82-1.86-1.22-.18-.11-.26-.26-.26-.47,0-.17.07-.3.21-.4.19-.15.4-.23.64-.25h.1c.2,0,.39.04.57.13.03.02.06.04.1.06.07.04.13.03.19-.01.33-.23.68-.52,1.05-.85,0,0,.01-.02,0-.04s-.02-.03-.04-.03h-2.45c-.23,0-.44-.08-.61-.25-.17-.17-.26-.37-.26-.62v-3.79c0-.23.08-.44.26-.61.17-.17.37-.26.61-.26h9.45c.23,0,.44.09.61.26.17.17.26.37.26.61v3.79c0,.24-.09.45-.26.62-.17.17-.37.25-.61.25h-4.73s.06.05.07.09c0,.04,0,.07-.04.09-.66.52-1.37,1.01-2.12,1.48-.02,0-.03.03-.03.06s0,.05.03.06c.29.2.52.35.67.45.06.04.12.04.18,0,.92-.54,1.75-1.07,2.5-1.61.21-.16.45-.24.72-.26h.09c.22,0,.44.05.64.16h.01c.19.11.28.27.28.48,0,.19-.08.33-.23.44-1.05.68-2.22,1.35-3.5,1.99,0,0-.01.02,0,.04,0,.01.01.02.02.02l3.69-.04s.03,0,.04-.03,0-.03,0-.04c-.13-.09-.25-.17-.38-.25-.15-.1-.22-.23-.22-.41s.07-.31.22-.4c.21-.13.42-.19.66-.19h.01c.22,0,.43.06.63.18.87.54,1.61,1.07,2.23,1.6ZM177.98,118.22c.31-.21.62-.32.94-.32.19,0,.37.04.54.12.19.07.3.2.34.4,0,.04.01.07.01.1,0,.15-.06.27-.19.38-.64.5-1.39.96-2.23,1.39-.17.08-.34.12-.51.12-.07,0-.14,0-.22-.01-.24-.04-.46-.15-.66-.34,0,0-.02,0-.03-.01-.11-.11-.16-.23-.16-.37v-.1c.03-.19.13-.32.31-.4.71-.29,1.33-.61,1.86-.95ZM178.35,108.52c-.07,0-.1.03-.1.1v.56c0,.08.03.12.1.12h2.75c.08,0,.12-.04.12-.12v-.56c0-.07-.04-.1-.12-.1h-2.75ZM178.35,110.56c-.07,0-.1.03-.1.1v.57c0,.07.03.1.1.1h2.75c.08,0,.12-.03.12-.1v-.57c0-.07-.04-.1-.12-.1h-2.75ZM185.89,109.3c.07,0,.1-.04.1-.12v-.56c0-.07-.03-.1-.1-.1h-2.86c-.08,0-.12.03-.12.1v.56c0,.08.04.12.12.12h2.86ZM185.89,111.33c.07,0,.1-.03.1-.1v-.57c0-.07-.03-.1-.1-.1h-2.86c-.08,0-.12.03-.12.1v.57c0,.07.04.1.12.1h2.86ZM184.59,118.86c-.17-.1-.25-.24-.25-.44,0-.16.07-.28.21-.38.2-.14.42-.21.66-.23.04,0,.07-.01.1-.01.21,0,.4.05.59.15.8.42,1.51.82,2.12,1.2.18.12.26.28.26.5s-.08.37-.25.48c-.21.15-.43.22-.67.22h-.01c-.25,0-.49-.08-.7-.22-.62-.43-1.31-.85-2.05-1.26Z" style="fill: #4b4c4e;"/>
        <path d="M197.25,114.18c.19.2.28.43.28.72,0,.22-.07.43-.21.62-.11.15-.25.22-.42.22h-.04c-.21,0-.36-.1-.45-.28-.1-.14-.21-.3-.32-.5,0,0-.02-.01-.04,0-.02,0-.02.01-.02.02v4.88c0,.24-.08.45-.25.62s-.37.25-.62.25h-.01c-.23,0-.44-.08-.61-.25s-.26-.37-.26-.62v-4.23s0-.02-.01-.02-.02,0-.03.02c-.32.74-.66,1.4-1.03,1.98-.09.14-.21.21-.35.21-.02,0-.04,0-.07-.01-.18-.02-.31-.11-.4-.28-.02-.05-.04-.1-.07-.15-.1-.2-.15-.41-.15-.63v-.1c.02-.26.1-.5.25-.7.64-.94,1.21-2.06,1.7-3.35,0-.03,0-.05,0-.07-.02-.02-.03-.03-.05-.03h-.94c-.23,0-.43-.08-.59-.24s-.24-.36-.24-.59.08-.43.24-.59.36-.24.59-.24h1.05c.07,0,.1-.03.1-.1v-1.46c0-.07-.03-.1-.1-.09-.29.04-.58.08-.86.12h-.12c-.16,0-.31-.04-.45-.13-.17-.12-.28-.28-.35-.48-.03-.07-.04-.14-.04-.21,0-.1.02-.19.07-.28.09-.17.22-.26.41-.29,1.12-.19,2.11-.42,2.97-.7.14-.04.27-.06.41-.06.11,0,.22,0,.34.03.25.07.46.2.63.38l.04.07c.1.11.15.23.15.37,0,.06,0,.11-.01.16-.05.21-.18.34-.38.4-.26.09-.55.17-.85.23-.07.02-.1.06-.1.13v1.82c0,.07.04.1.12.1h1.25s.03,0,.03-.03c0-.06.02-.11.07-.15.04-.04.1-.07.17-.07h3.05c.08,0,.12-.04.12-.12v-.29c0-.07-.04-.1-.12-.1h-2.02c-.15,0-.27-.05-.37-.15-.1-.1-.15-.22-.15-.37s.05-.26.15-.37c.1-.1.22-.15.37-.15h2.02c.08,0,.12-.03.12-.1v-.29c0-.07-.04-.1-.12-.1h-2.27c-.15,0-.27-.05-.38-.16s-.16-.24-.16-.39.05-.28.16-.38c.11-.1.23-.15.38-.15h2.31s.07-.02.07-.07c0-.17.06-.31.18-.42s.26-.18.42-.18h.59c.17,0,.31.06.42.18s.18.26.18.42c0,.05.02.07.07.07h2.49c.15,0,.27.05.38.15.11.1.16.23.16.38s-.05.28-.16.39-.23.16-.38.16h-2.46c-.07,0-.1.03-.1.1v.29c0,.07.03.1.1.1h2.14c.14,0,.26.05.36.15.1.1.15.22.15.37s-.05.26-.15.37-.22.15-.36.15h-2.14c-.07,0-.1.03-.1.1v.29c0,.08.03.12.1.12h2.74c.16,0,.29.05.4.16s.16.24.16.39-.05.28-.16.4-.24.17-.4.17h-7.84c-.07,0-.1.03-.1.09,0,.2-.07.36-.21.51s-.31.21-.51.21h-.64c-.08,0-.12.03-.12.1v.26c0,.08.03.14.09.19.32.31.7.7,1.14,1.16ZM205.27,117.44c0,.24-.09.45-.26.62s-.37.25-.61.25h-.63s-.03,0-.04.02c0,.02,0,.03.02.04.68.41,1.26.76,1.73,1.05.16.1.23.24.23.42,0,.21-.09.37-.28.47h-.03c-.2.12-.4.18-.62.18-.04,0-.08,0-.12-.01-.26-.02-.5-.11-.72-.26-.33-.24-.69-.5-1.07-.76-.18-.12-.26-.28-.26-.5,0-.2.08-.35.25-.47l.13-.1s.03-.02.02-.04c0-.02-.02-.03-.04-.03h-2.5s-.03,0-.04.02c0,.02,0,.03,0,.04l.19.13c.19.12.28.28.28.5,0,.2-.09.35-.26.45-.65.4-1.37.76-2.15,1.07-.14.05-.27.07-.4.07-.1,0-.19,0-.28-.03-.22-.06-.42-.18-.6-.35-.09-.09-.13-.2-.13-.32,0-.04,0-.08.01-.12.04-.17.14-.28.31-.35.81-.3,1.52-.65,2.12-1.05,0,0,.01-.02,0-.04,0-.01-.02-.02-.04-.02h-.32c-.24,0-.45-.08-.62-.25s-.25-.37-.25-.62v-4.42c0-.23.08-.44.25-.61.17-.17.37-.26.62-.26h5.2c.23,0,.44.09.61.26.17.17.26.37.26.61v4.42ZM200.04,113.25c-.08,0-.12.04-.12.12v.41c0,.07.04.1.12.1h3.43c.07,0,.1-.03.1-.1v-.41c0-.08-.03-.12-.1-.12h-3.43ZM200.04,114.91c-.08,0-.12.03-.12.1v.42c0,.08.04.12.12.12h3.43c.07,0,.1-.04.1-.12v-.42c0-.07-.03-.1-.1-.1h-3.43ZM200.04,116.56c-.08,0-.12.04-.12.12v.41c0,.07.04.1.12.1h3.43c.07,0,.1-.03.1-.1v-.41c0-.08-.03-.12-.1-.12h-3.43Z" style="fill: #4b4c4e;"/>
        <path d="M222.11,115.74c.23,0,.43.08.59.24s.24.36.24.59-.08.43-.24.59c-.16.17-.36.25-.59.25h-3.13s-.02,0-.02.01,0,.02,0,.03c1.28.62,2.35,1.16,3.21,1.64.19.1.28.25.28.47,0,.2-.08.35-.23.45l-.34.23c-.21.15-.45.22-.72.22h-.01c-.25,0-.49-.07-.7-.21-.87-.54-1.75-1.04-2.64-1.49-.19-.1-.29-.25-.31-.45,0-.03-.01-.06-.01-.09,0-.17.07-.31.21-.42l.37-.32s.01-.04,0-.05c0-.02-.02-.02-.04-.02h-4.28s-.03,0-.04.02c0,.01,0,.03,0,.04l.54.4c.17.12.25.28.25.48s-.09.38-.28.5c-.88.54-1.83,1.04-2.84,1.52-.17.08-.33.12-.5.12-.08,0-.16,0-.23-.03-.25-.05-.48-.16-.67-.34-.03-.02-.06-.04-.1-.07-.12-.11-.18-.23-.18-.38,0-.03,0-.06.01-.1.03-.19.13-.32.31-.4,1.16-.52,2.17-1.08,3.03-1.7.02,0,.03-.02.02-.04,0-.02-.02-.02-.04-.02h-3.05c-.23,0-.43-.08-.59-.25-.16-.17-.24-.36-.24-.59s.08-.42.24-.59c.16-.16.36-.24.59-.24h.45c.07,0,.1-.03.1-.1l-.21-7.08c0-.21.07-.39.23-.51.12-.1.25-.15.4-.15.06,0,.12,0,.18.03h.06c.07.03.14.02.21-.01.33-.19.65-.38.97-.57.19-.13.39-.19.6-.19h.09c.25.02.47.12.64.29l.44.41s.02.02.04.01.03-.02.03-.04v-.18c0-.21.07-.4.22-.54s.32-.22.54-.22.39.07.54.22.23.33.23.54v.45c0,.07.03.1.1.1h1.45c.21,0,.38.07.52.22.14.15.21.32.21.53s-.07.38-.21.52-.32.21-.52.21h-1.45c-.07,0-.1.04-.1.12v.79c0,.07.03.1.1.1h1.26c.24,0,.45.09.62.26s.25.37.25.61v4.07c0,.07.04.1.12.1h1.64c.07,0,.1-.03.1-.1,0-.23.03-.57.07-1,0-.08-.03-.12-.1-.12h-.59c-.21,0-.38-.07-.52-.21-.14-.14-.21-.31-.21-.52s.07-.38.21-.52c.14-.14.31-.21.52-.21h.64c.07,0,.11-.04.12-.12,0-.44.02-.79.03-1.05,0-.07-.03-.1-.1-.1h-.67c-.21,0-.38-.07-.52-.22s-.21-.32-.21-.52.07-.37.21-.52.32-.22.52-.22h.7c.07,0,.11-.03.12-.1v-.97c0-.07-.03-.1-.1-.1h-.86c-.21,0-.38-.08-.53-.23-.15-.15-.23-.33-.23-.55s.08-.4.23-.55.33-.23.53-.23h1.76c.24,0,.45.08.62.25s.25.37.25.6c0,2.54-.07,4.94-.21,7.21,0,.07.03.1.1.1h.5ZM212.22,114.51c-.07,0-.1.04-.1.12l.04,1.01c0,.07.03.1.1.1h1.83c.07,0,.1-.03.1-.1v-2.33c0-.2.07-.36.21-.5s.3-.21.5-.21.36.07.5.21.21.3.21.5v2.33c0,.07.04.1.12.1h.63c.08,0,.12-.03.12-.1v-3.43c0-.08-.04-.12-.12-.12h-1.26c-.23,0-.44-.08-.61-.25-.17-.17-.26-.37-.26-.62v-2.87s0-.05-.03-.07c-.02-.02-.04-.02-.07,0-.73.35-1.42.65-2.05.91-.08.03-.11.08-.1.15v.86c.02.07.06.1.13.1h.85c.21,0,.38.07.52.22s.21.32.21.52-.07.37-.21.52-.31.22-.52.22h-.81c-.07,0-.1.03-.1.1v1.04c.02.08.06.12.13.12h.78c.21,0,.38.07.52.21.14.14.21.32.21.52s-.07.38-.21.52-.31.21-.52.21h-.73Z" style="fill: #4b4c4e;"/>
        <path d="M228.95,109.52c-.08,0-.12.04-.12.12v.76c0,2.29-.41,4.12-1.22,5.46-.11.19-.28.28-.51.29h-.06c-.2,0-.37-.07-.53-.21-.17-.15-.27-.33-.31-.56,0-.05-.01-.1-.01-.16,0-.17.04-.32.12-.47.6-1.04.89-2.51.89-4.39v-1.39c0-.24.08-.45.25-.62s.37-.25.62-.25h5.39c.08,0,.11-.04.1-.12-.02-.27-.03-.44-.03-.5,0-.21.07-.38.21-.53.17-.17.36-.25.59-.25s.44.08.61.24c.17.16.26.36.27.59.02.16.03.3.04.44,0,.08.05.12.12.12h1.38s.02,0,.02-.02c0-.02,0-.03,0-.04-.17-.08-.34-.16-.51-.25-.15-.06-.24-.17-.27-.32-.04-.16,0-.29.09-.41.14-.16.3-.26.5-.31.08-.02.16-.03.25-.03.11,0,.21.02.32.06.35.14.66.28.94.44.15.08.23.2.26.37v.09c0,.14-.04.26-.13.37,0,0-.01.02,0,.04,0,.01.02.02.04.02h.59c.2,0,.36.07.5.21s.21.3.21.5-.07.36-.21.5-.3.21-.5.21h-3.27c-.07,0-.1.03-.09.1.13.7.32,1.42.57,2.14,0,.02.01.03.04.03s.04,0,.05-.01c.21-.35.4-.71.56-1.08.1-.22.25-.4.47-.51.14-.08.28-.12.44-.12.07,0,.14,0,.22.03.21.05.38.18.48.38.06.11.09.21.09.32,0,.1-.02.19-.06.28-.36.85-.82,1.65-1.36,2.4-.05.06-.05.12-.01.18.41.58.81.86,1.19.86.13,0,.23-.08.3-.24.07-.16.13-.42.17-.77.02-.17.1-.29.26-.36.15-.07.3-.07.45.02.21.13.37.29.48.48.08.15.12.3.12.45,0,.05,0,.1-.01.16-.14.72-.34,1.21-.62,1.47-.28.26-.69.39-1.22.39-.79,0-1.52-.41-2.2-1.22-.05-.05-.1-.05-.15,0-.21.21-.42.39-.63.56-.17.13-.35.19-.54.19h-.1c-.24-.03-.45-.14-.63-.32-.1-.1-.2-.19-.29-.28,0,0-.01,0-.01.01,0,.07-.02.12-.07.17-.05.04-.11.07-.18.07h-.6s-.03,0-.04.02c0,.01,0,.03.02.04.52.29,1,.63,1.45,1.03.16.14.23.3.23.5,0,.23-.09.43-.26.59-.16.13-.33.19-.53.19h-.06c-.22-.02-.42-.1-.59-.25-.28-.26-.61-.52-.97-.78-.19-.14-.28-.32-.28-.56,0-.19.07-.34.22-.47l.28-.23s.01-.02,0-.04c0-.02-.02-.03-.04-.03h-1.99c-.23,0-.44-.08-.61-.25-.17-.17-.26-.37-.26-.62v-1.51c0-.23.08-.44.26-.61s.37-.26.61-.26h2.52c.23,0,.44.09.61.26.17.17.26.37.26.61v1.49s0,.03.03.04.04,0,.06,0c.42-.28.83-.62,1.25-1.01.05-.06.06-.12.03-.19-.48-1.05-.83-2.27-1.05-3.65-.02-.07-.06-.1-.13-.1h-4.72ZM228.07,119.82c-.17.19-.38.29-.64.31h-.07c-.23,0-.44-.06-.63-.19l-.03-.03c-.2-.13-.29-.32-.29-.57,0-.2.07-.36.21-.5.37-.43.68-.92.92-1.48.09-.21.23-.38.44-.48.12-.05.24-.07.37-.07.09,0,.18.01.26.04.22.08.39.22.5.44.06.12.09.24.09.37,0,.09-.01.18-.04.28-.28.75-.64,1.38-1.07,1.89ZM233.02,110.21c.16,0,.29.06.4.17.11.11.17.25.17.4s-.06.29-.17.4-.25.17-.4.17h-3.27c-.16,0-.29-.06-.4-.17-.11-.11-.17-.25-.17-.4s.06-.29.17-.4c.11-.11.25-.17.4-.17h3.27ZM232.39,118.94h2.04c.21,0,.37-.03.46-.09.09-.06.16-.19.2-.39s.15-.34.32-.42c.1-.06.2-.09.29-.09.08,0,.16.01.23.04.23.09.42.23.56.44.1.15.15.3.15.45,0,.07,0,.13-.03.19-.13.57-.34.95-.64,1.16-.3.21-.75.31-1.37.31h-2.4c-.96,0-1.59-.14-1.91-.42-.32-.28-.48-.82-.48-1.6v-1.08c0-.23.08-.44.25-.61s.37-.26.62-.26h.04c.23,0,.44.09.61.26s.26.37.26.61v1.07c0,.2.05.32.14.37.09.05.31.07.67.07ZM231.92,114.16c.07,0,.1-.04.1-.12v-.72c0-.08-.03-.12-.1-.12h-1.14c-.08,0-.12.04-.12.12v.72c0,.08.04.12.12.12h1.14ZM236.68,117.69c-.12-.13-.18-.27-.18-.42,0-.04,0-.08.01-.12.03-.21.14-.35.32-.44.17-.09.34-.13.53-.13.07,0,.13,0,.19.01.25.04.46.15.63.32.58.61,1.04,1.2,1.41,1.77.08.13.12.26.12.4,0,.08-.01.16-.04.25-.08.22-.23.39-.45.5l-.07.04c-.12.06-.23.09-.35.09-.1,0-.19-.02-.28-.06-.22-.08-.4-.22-.51-.42-.34-.59-.78-1.18-1.32-1.79Z" style="fill: #4b4c4e;"/>
        <path d="M245.18,112.55c-.08,0-.12.04-.12.12v.76c0,.22-.08.42-.24.59-.16.17-.36.25-.59.25s-.42-.08-.59-.25c-.16-.17-.24-.36-.24-.59v-1.55c0-.24.08-.45.25-.62s.37-.25.62-.25h1.16s.05-.01.07-.04c.02-.02.02-.05.01-.07-.08-.21-.17-.43-.28-.67-.05-.11-.07-.21-.07-.32,0-.1.02-.2.06-.29.09-.21.24-.34.45-.4l.4-.12s0-.01-.01-.01c-.44.03-.88.05-1.33.06h-.03c-.21,0-.39-.07-.56-.21s-.28-.32-.35-.54c-.02-.06-.03-.12-.03-.18,0-.13.04-.24.12-.35.11-.16.25-.24.44-.25,3.88-.16,7.06-.43,9.55-.83.09-.02.18-.03.26-.03.18,0,.35.03.51.1.25.09.46.23.63.44l.1.12c.08.09.12.19.12.31,0,.06,0,.12-.03.18-.07.19-.2.29-.4.32-1.34.21-2.87.4-4.58.56-.03,0-.05.02-.06.04s0,.04,0,.07c.16.31.29.64.41,1,.03.09.04.17.04.25,0,.14-.04.27-.12.4-.13.21-.31.34-.56.4l-.16.04s0,.03.01.03h2.39c.07,0,.12-.03.16-.1.21-.44.42-.89.62-1.35.1-.22.25-.4.47-.51.15-.08.3-.12.45-.12.07,0,.14,0,.22.03l.22.04c.21.05.37.17.45.37.04.09.06.18.06.26,0,.11-.03.21-.1.32-.11.19-.3.5-.59.95,0,.02,0,.04,0,.07,0,.03.03.04.06.04h1.14c.24,0,.45.08.62.25s.25.37.25.62v1.52c0,.23-.08.44-.25.61s-.37.26-.62.26-.45-.08-.62-.26-.25-.37-.25-.61v-.73c0-.08-.04-.12-.12-.12h-9.45ZM253.18,113.69c.06,0,.11-.01.16-.01.14,0,.26.03.38.1l.35.22c.17.11.28.25.34.44.02.07.03.14.03.21,0,.12-.03.23-.09.35-.61,1.09-1.43,2.03-2.48,2.8-.02.02-.03.04-.02.06s.02.03.04.04c1.19.41,2.52.71,4,.89.19.02.32.12.4.29.03.07.04.14.04.21,0,.1-.03.19-.1.28-.05.08-.1.15-.15.22-.14.22-.32.4-.56.53-.18.09-.35.13-.53.13-.07,0-.13,0-.19-.01-1.84-.29-3.43-.76-4.78-1.41-.07-.04-.14-.04-.21-.01-1.37.64-2.99,1.12-4.88,1.44-.06,0-.12.01-.19.01-.18,0-.35-.04-.53-.13-.22-.12-.41-.29-.56-.51l-.09-.15c-.06-.1-.09-.2-.09-.31,0-.12.04-.22.12-.31s.18-.14.29-.16c1.58-.21,2.96-.52,4.13-.95.02,0,.03-.02.04-.04s0-.04-.02-.06c-.74-.54-1.41-1.17-1.99-1.9-.08-.1-.1-.21-.07-.32s.11-.2.21-.25c0,0,0,0,0-.03h-.01c-.18,0-.33-.06-.45-.18-.12-.12-.18-.27-.18-.43v-.19c0-.22.08-.42.24-.58.16-.16.35-.24.58-.24h6.72s.04,0,.07-.01ZM249.09,109.96c-.03-.09-.04-.18-.04-.26,0-.13.03-.25.09-.37.11-.21.27-.33.5-.38l.53-.12s.01,0,.01,0,0,0-.01,0c-1.16.11-2.37.19-3.62.25-.03,0-.05.01-.06.04,0,.03,0,.05,0,.07.2.32.37.64.51.95.04.08.06.16.06.25s-.02.18-.06.26c-.09.18-.22.29-.41.35,0,0-.01,0-.01.01s0,.01.01.01h2.67c.07,0,.1-.04.09-.12-.06-.28-.14-.6-.25-.94ZM251.92,115.42s0-.03,0-.05c0-.02-.02-.04-.04-.04h-4.1s-.03,0-.04.03,0,.04,0,.06c.57.6,1.27,1.13,2.11,1.61.07.03.13.02.19-.01.78-.48,1.41-1.01,1.89-1.6Z" style="fill: #4b4c4e;"/>
        <path d="M261.39,115.81c1.17-.38,1.84-1.02,1.93-1.81-.04.01-.1.01-.17.01-.75,0-1.42-.48-1.42-1.33s.67-1.35,1.47-1.35c1.07,0,1.62.79,1.62,2.05,0,1.7-1.09,3.09-2.95,3.63l-.48-1.2Z" style="fill: #4b4c4e;"/>
      </g>
      <g>
        <path d="M8.56,154.86c-.91,1.04-2.11,1.57-3.6,1.57s-2.68-.52-3.6-1.57c-.91-1.04-1.37-2.46-1.37-4.23s.45-3.17,1.36-4.19,2.11-1.52,3.6-1.52,2.7.51,3.6,1.52,1.36,2.41,1.36,4.19-.46,3.19-1.37,4.23ZM3,153.45c.49.7,1.14,1.05,1.97,1.05s1.48-.35,1.97-1.05.73-1.65.73-2.83-.24-2.11-.73-2.79c-.49-.68-1.15-1.02-1.98-1.02s-1.49.34-1.97,1.02c-.48.68-.72,1.61-.72,2.79s.24,2.12.73,2.83Z" style="fill: #4b4c4e;"/>
        <path d="M17.71,156.13c-.48.2-.99.3-1.52.3s-1.04-.1-1.52-.3c-.48-.2-.91-.48-1.28-.85-.37-.37-.67-.83-.89-1.39s-.34-1.18-.34-1.85.11-1.29.34-1.86.52-1.04.89-1.41.8-.66,1.28-.86c.48-.2.99-.3,1.52-.3s1.04.1,1.52.3c.48.2.91.49,1.28.86s.67.84.89,1.41.34,1.19.34,1.86-.11,1.29-.34,1.85-.52,1.03-.89,1.39c-.37.37-.8.65-1.28.85ZM14.87,153.93c.31.46.75.7,1.31.7s1-.23,1.31-.7c.31-.46.47-1.1.47-1.9s-.16-1.44-.47-1.91c-.31-.47-.75-.71-1.31-.71s-1,.24-1.31.71c-.31.47-.47,1.11-.47,1.91s.16,1.43.47,1.9Z" style="fill: #4b4c4e;"/>
        <path d="M24.88,156.43c-.73,0-1.26-.22-1.58-.66s-.48-1.07-.48-1.9v-8.75c0-.24.08-.45.25-.62s.37-.25.62-.25h.45c.24,0,.45.08.62.25s.25.37.25.62v8.85c0,.31.09.52.26.62,0,0,.05.03.13.07s.13.07.16.09.07.05.12.09c.05.04.09.08.11.12.02.04.03.09.04.14l.06.32c0,.06.01.12.01.18,0,.18-.05.34-.15.5-.13.2-.31.3-.54.32-.11,0-.22.01-.34.01Z" style="fill: #4b4c4e;"/>
        <path d="M30.35,156.43c-.74,0-1.34-.23-1.8-.7s-.69-1.06-.69-1.79c0-.89.38-1.58,1.13-2.07s1.95-.83,3.6-1.02c.07,0,.1-.05.1-.12-.07-.9-.54-1.35-1.42-1.35-.48,0-1.01.14-1.58.41-.13.06-.25.09-.38.09-.09,0-.18-.01-.26-.04-.21-.06-.38-.19-.48-.38-.08-.14-.12-.27-.12-.41,0-.08.01-.16.04-.23.06-.22.19-.39.4-.5.95-.47,1.88-.7,2.78-.7,1.06,0,1.87.31,2.41.95.54.63.81,1.55.81,2.76v4.04c0,.23-.08.44-.25.61s-.37.26-.62.26h-.12c-.23,0-.44-.08-.62-.23-.18-.15-.29-.34-.33-.58v-.07s-.04-.01-.05-.01c-.02,0-.03,0-.04.01-.86.72-1.7,1.08-2.52,1.08ZM31.06,154.71c.52,0,1.04-.25,1.55-.76.05-.05.07-.11.07-.18v-1.48c0-.07-.03-.1-.09-.1,0,0-.02,0-.03.01-.93.13-1.59.32-2,.58-.41.26-.61.58-.61.97,0,.32.1.56.3.72.2.16.47.23.8.23Z" style="fill: #4b4c4e;"/>
        <path d="M42.11,156.43c-.78,0-1.53-.36-2.24-1.07,0,0-.02-.01-.04-.01-.01,0-.02,0-.02.01l-.03.07c-.05.23-.16.42-.34.57-.18.15-.39.22-.62.22h-.06c-.24,0-.45-.08-.62-.25s-.25-.37-.25-.62v-10.24c0-.24.08-.45.25-.62s.37-.25.62-.25h.45c.24,0,.45.08.62.25s.25.37.25.62v2.15l-.03,1.23s0,.03.02.04c.02,0,.03,0,.05,0,.71-.62,1.46-.94,2.24-.94,1.03,0,1.83.39,2.42,1.16.59.78.89,1.81.89,3.1,0,.7-.1,1.35-.29,1.93s-.46,1.06-.79,1.44-.71.67-1.14.88-.87.31-1.33.31ZM41.61,154.61c.54,0,.97-.23,1.3-.69s.5-1.13.5-2.01c0-1.66-.56-2.49-1.67-2.49-.51,0-1.04.26-1.58.79-.06.05-.09.11-.09.19v3.47c0,.08.03.14.09.18.46.37.94.56,1.45.56Z" style="fill: #4b4c4e;"/>
        <path d="M55.36,150.31c.23,0,.44.08.61.25s.26.37.26.62v2.93c0,.08.02.15.06.21.3.45.73.78,1.29,1,.56.22,1.24.34,2.04.37.77.03,1.57.04,2.4.04,1.34,0,2.75-.04,4.25-.12h.03c.18,0,.32.07.44.22.07.11.1.22.1.34,0,.06,0,.12-.03.19-.08.25-.21.46-.4.62-.19.16-.41.25-.65.26-1.2.05-2.32.07-3.37.07s-1.92-.02-2.77-.06c-.94-.04-1.73-.18-2.37-.42s-1.19-.62-1.64-1.13c-.05-.06-.1-.06-.15-.01-.43.44-.81.82-1.14,1.13-.12.12-.25.18-.41.18-.05,0-.09,0-.13-.01-.21-.04-.37-.16-.45-.35l-.07-.15c-.07-.14-.1-.28-.1-.42,0-.09.01-.18.04-.26.06-.24.19-.44.38-.6.34-.25.65-.5.92-.73.05-.05.07-.11.07-.18v-2.24c0-.08-.03-.12-.1-.12h-.6c-.22,0-.42-.08-.57-.23s-.23-.35-.23-.57.08-.42.23-.57.35-.23.57-.23h1.51ZM55.89,147.83c.18.15.26.33.26.56s-.08.42-.25.58-.36.23-.59.23h-.01c-.22,0-.43-.08-.62-.23-.3-.26-.63-.52-.98-.76-.19-.14-.28-.32-.28-.54,0-.17.06-.31.19-.42.17-.17.37-.26.6-.29h.12c.19,0,.36.05.53.15.38.24.72.49,1.03.73ZM56.38,144.81c.17.15.25.33.25.54,0,.24-.09.45-.28.62-.16.14-.34.21-.54.21h-.06c-.22,0-.42-.1-.59-.26-.28-.27-.59-.54-.92-.81-.18-.13-.26-.3-.26-.51,0-.18.07-.33.21-.45.18-.16.38-.24.62-.25h.07c.21,0,.39.06.56.18.36.26.68.51.95.75ZM58.57,149.69c.08,0,.12-.04.12-.12v-.5c0-.08-.04-.12-.12-.12h-.64c-.23,0-.44-.08-.61-.25s-.26-.37-.26-.62v-2.65c0-.23.08-.44.26-.61s.37-.26.61-.26h.64c.08,0,.12-.03.13-.1,0-.04.02-.07.03-.1.05-.24.17-.44.35-.59.17-.14.36-.21.57-.21h.16c.21.02.38.12.48.31.07.1.1.2.1.31,0,.08-.02.16-.06.25,0,.02-.01.03-.01.04-.02.02-.02.04,0,.06.01.02.04.03.07.03h.54c.23,0,.44.09.61.26s.26.37.26.61v2.39s0,.03.02.03c.01,0,.02,0,.02-.01.42-.93.75-2.09.98-3.49.03-.21.13-.39.31-.51.15-.11.3-.16.45-.16.05,0,.09,0,.13.01.21.03.39.13.51.31.1.14.15.28.15.44,0,.05,0,.1-.01.15-.07.37-.14.7-.21.98,0,.07.02.1.09.1h1.8c.21,0,.38.07.53.22s.22.32.22.53v.32c0,.12-.04.22-.13.31s-.19.13-.31.13c-.04,0-.06.01-.06.04-.23,1.78-.59,3.27-1.07,4.47-.03.07-.02.14.01.21.35.67.74,1.24,1.16,1.68.16.17.23.36.23.59,0,.21-.07.39-.21.54-.14.17-.31.26-.51.28h-.07c-.18,0-.33-.07-.45-.21-.35-.4-.66-.85-.94-1.35-.02-.02-.04-.03-.07-.04-.02,0-.04,0-.05.04-.34.52-.72.97-1.14,1.36-.15.14-.32.21-.51.21h-.1c-.22-.03-.42-.13-.59-.31-.11-.13-.21-.24-.31-.34-.02-.02-.04-.02-.07-.01-.03,0-.04.02-.04.04-.06.17-.12.29-.19.38-.2.21-.45.35-.78.4-.19.02-.39.03-.6.03-.17,0-.31-.06-.44-.18s-.21-.26-.25-.44c-.04-.13-.02-.25.07-.36.08-.11.19-.17.33-.17.03,0,.07.01.13.01.15,0,.25-.03.32-.13.1-.11.17-.51.21-1.2,0-.08-.02-.12-.1-.12h-.98c-.07,0-.11.04-.13.12-.24.87-.64,1.56-1.19,2.07-.12.1-.24.15-.38.15-.04,0-.08,0-.12-.01-.18-.03-.33-.12-.45-.28-.11-.13-.16-.27-.16-.44,0-.2.06-.36.19-.5.53-.57.84-1.47.94-2.71,0-.08-.02-.12-.1-.12h-.72c-.17,0-.31-.06-.42-.18s-.18-.26-.18-.42.06-.31.18-.42.26-.18.42-.18h1.41ZM58.57,145.66c-.07,0-.1.04-.1.12v.38c0,.07.03.1.1.1h1.64c.08,0,.12-.03.12-.1v-.38c0-.08-.04-.12-.12-.12h-1.64ZM58.57,147.29c-.07,0-.1.03-.1.1v.38c0,.08.03.12.1.12h1.64c.08,0,.12-.04.12-.12v-.38c0-.07-.04-.1-.12-.1h-1.64ZM59.4,151.32c0,.07.02.1.1.1h1.49c.23,0,.43.09.6.26.15.16.22.34.22.56,0,.57-.05,1.16-.16,1.77,0,.02,0,.03.02.04.02,0,.03,0,.05,0,.75-.58,1.37-1.32,1.85-2.23.04-.06.04-.12.01-.19-.26-.7-.5-1.46-.7-2.27,0-.02,0-.03-.03-.03s-.03,0-.03.03c-.09.15-.21.34-.38.59,0,.02-.02.02-.04,0v.1c0,.23-.08.43-.25.59-.17.16-.36.24-.59.24h-2.02c-.08,0-.12.04-.12.12-.02.13-.03.23-.03.31ZM60.18,149.57c0,.08.04.12.12.12h1.67s.03,0,.04-.03,0-.03-.02-.04c-.27-.21-.53-.38-.76-.53-.05-.04-.05-.08-.01-.12h-.01s-.89-.01-.89-.01c-.08,0-.12.04-.12.12v.5ZM64.79,147.29c0-.07-.02-.1-.1-.1h-.85c-.08,0-.11.03-.1.1.15.84.34,1.63.59,2.36,0,.02,0,.03.02.03.02,0,.03,0,.04-.03.18-.73.31-1.52.41-2.36Z" style="fill: #4b4c4e;"/>
        <path d="M74.9,146c.2,0,.36.07.5.21s.21.3.21.5-.07.36-.21.5-.3.21-.5.21h-4.29c-.2,0-.36-.07-.5-.21s-.21-.3-.21-.5.07-.36.21-.5.3-.21.5-.21h4.29ZM74.26,152.21c.24,0,.45.08.62.25s.25.37.25.62v2.8c0,.23-.08.44-.25.61s-.37.26-.62.26h-2.12s-.07.02-.07.06c0,.15-.05.27-.15.37-.1.1-.22.15-.36.15h-.23c-.21,0-.38-.07-.53-.22s-.22-.32-.22-.53v-3.5c0-.24.08-.45.25-.62s.37-.25.62-.25h2.83ZM74.43,148.08c.19,0,.34.07.48.2s.2.29.2.48-.07.35-.2.48c-.13.13-.29.2-.48.2h-3.13c-.2,0-.36-.07-.49-.2s-.2-.29-.2-.48.07-.35.2-.48c.13-.13.3-.2.49-.2h3.13ZM71.27,151.46c-.18,0-.33-.06-.46-.19-.13-.13-.2-.28-.2-.47s.07-.34.2-.48c.13-.13.29-.2.46-.2h3.18c.18,0,.33.07.46.2s.2.29.2.48-.07.34-.2.47c-.13.13-.29.19-.46.19h-3.18ZM74.39,143.98c.19,0,.34.07.48.2.13.13.2.29.2.48s-.07.35-.2.48-.29.2-.48.2h-3.06c-.19,0-.34-.07-.48-.2-.13-.13-.2-.29-.2-.48s.07-.35.2-.48.29-.2.48-.2h3.06ZM73.61,153.72c0-.07-.04-.1-.12-.1h-1.32c-.08,0-.12.03-.12.1v1.51c0,.08.04.12.12.12h1.32c.08,0,.12-.04.12-.12v-1.51ZM80.56,147.83c0,.08.03.12.1.12h2.55c.18,0,.32.06.45.18.12.12.18.27.18.45s-.06.33-.18.45c-.12.13-.27.19-.45.19h-6.97c-.18,0-.33-.06-.45-.19s-.18-.28-.18-.45.06-.32.18-.45c.12-.12.27-.18.45-.18h2.52c.07,0,.1-.04.1-.12v-.38c0-.07-.03-.1-.1-.1h-1.82c-.17,0-.31-.06-.42-.18s-.18-.26-.18-.42.06-.31.18-.42.26-.18.42-.18h1.82c.07,0,.1-.04.1-.12v-.31c0-.08-.03-.12-.1-.12h-2.15c-.18,0-.33-.06-.45-.18s-.19-.27-.19-.46.06-.33.19-.45.28-.18.45-.18h2.17c.06,0,.09-.03.09-.09,0-.21.07-.38.21-.51s.31-.21.51-.21h.26c.2,0,.36.07.51.21.14.14.21.31.21.51,0,.06.03.09.09.09h2.29c.18,0,.33.06.45.18s.19.27.19.45-.06.33-.19.46-.28.18-.45.18h-2.27c-.07,0-.1.04-.1.12v.31c0,.08.03.12.1.12h2.08c.17,0,.31.06.42.18s.18.26.18.42-.06.31-.18.42-.26.18-.42.18h-2.08c-.07,0-.1.03-.1.1v.38ZM82.17,149.79c.23,0,.44.08.61.25.17.17.26.37.26.62v5.2c0,.39-.05.69-.14.89-.09.21-.26.37-.51.48-.3.14-.77.21-1.41.23h-.03c-.21,0-.39-.06-.54-.19-.18-.14-.3-.31-.37-.53-.02-.06-.03-.12-.03-.18,0-.1.03-.2.09-.29.1-.15.23-.22.41-.22h.07c.26.01.44,0,.54,0,.09,0,.15-.02.18-.05.03-.03.05-.09.05-.18v-.98c0-.07-.03-.1-.1-.1h-2.89c-.08,0-.12.03-.12.1v1.83c0,.22-.08.42-.24.58s-.35.24-.58.24-.42-.08-.57-.24c-.16-.16-.23-.35-.23-.58v-6.02c0-.24.08-.45.25-.62s.37-.25.62-.25h4.67ZM81.36,151.15c0-.07-.03-.1-.1-.1h-2.89c-.08,0-.12.03-.12.1v.45c0,.08.04.12.12.12h2.89c.07,0,.1-.04.1-.12v-.45ZM78.26,153.47c0,.08.04.12.12.12h2.89c.07,0,.1-.04.1-.12v-.48c0-.07-.03-.1-.1-.1h-2.89c-.08,0-.12.03-.12.1v.48Z" style="fill: #4b4c4e;"/>
        <path d="M89.64,144.39c.09-.22.24-.39.45-.5.14-.07.27-.1.41-.1.09,0,.18.01.26.04h.04c.22.08.39.22.48.44.06.11.09.22.09.34,0,.1-.02.2-.06.29-.32.76-.67,1.49-1.05,2.18-.04.07-.06.14-.06.21v9.36c0,.23-.08.43-.25.6s-.37.25-.6.25-.44-.08-.61-.25-.26-.37-.26-.6v-6.71s0-.03-.02-.04c-.02,0-.03,0-.04.02-.12.16-.24.31-.37.47-.11.13-.24.19-.4.19h-.1c-.2-.03-.34-.14-.42-.32l-.18-.32c-.1-.19-.15-.38-.15-.59,0-.04,0-.08.01-.13.02-.25.11-.48.28-.67,1.02-1.19,1.86-2.58,2.52-4.16ZM98.94,147.96c0-.07-.02-.1-.09-.1h-1.8c-.07,0-.1.03-.1.1v7.57c0,.45-.05.8-.15,1.05s-.28.45-.54.6c-.32.18-.77.28-1.35.32h-.07c-.21,0-.41-.07-.57-.21-.21-.16-.35-.36-.42-.6l-.06-.18c-.03-.07-.04-.14-.04-.21,0-.12.03-.22.1-.32.11-.17.26-.25.45-.25h.62c.1,0,.17-.02.21-.05s.06-.1.06-.2v-7.54c0-.07-.03-.1-.1-.1h-1.52c-.08,0-.13.03-.16.09-.26.54-.55,1.04-.85,1.49-.13.2-.31.3-.54.32-.03,0-.06.01-.09.01-.2,0-.37-.07-.53-.21-.04-.03-.07-.05-.1-.07-.18-.15-.28-.34-.31-.57,0-.04-.01-.08-.01-.12,0-.19.05-.36.16-.51.72-1.04,1.32-2.33,1.79-3.88.07-.23.21-.42.41-.54.15-.09.3-.13.47-.13.06,0,.12,0,.19.03h.06c.23.06.41.19.53.38.08.14.12.27.12.41,0,.08,0,.16-.03.23-.13.41-.27.84-.44,1.3,0,.02,0,.04,0,.07.01.03.04.04.07.04h5.08c.09-.02.18-.03.26-.03.08,0,.16,0,.25.01l.37.07c.18.04.32.13.42.28.08.11.12.23.12.37v.12c-.13.75-.25,1.45-.38,2.09-.05.21-.16.37-.34.48-.14.1-.29.15-.45.15-.04,0-.09,0-.15-.01-.21-.03-.37-.13-.5-.31-.1-.14-.15-.29-.15-.45,0-.04,0-.08.01-.12.04-.3.07-.6.1-.89ZM92.52,151.04c.06-.23.19-.42.4-.54.15-.1.3-.15.45-.15.07,0,.13,0,.19.01h.04c.23.06.42.19.54.38.09.14.13.28.13.42,0,.07-.01.14-.04.22-.36,1.3-.82,2.45-1.36,3.44-.12.2-.29.32-.53.37-.06,0-.12.01-.18.01-.17,0-.32-.05-.47-.15-.02,0-.04-.02-.07-.03-.19-.12-.3-.29-.35-.51-.02-.07-.03-.14-.03-.21,0-.15.04-.29.13-.42.46-.78.84-1.73,1.14-2.86ZM97.83,151.35c-.05-.1-.07-.2-.07-.29,0-.11.02-.21.07-.32.09-.21.24-.34.45-.41.11-.04.21-.06.31-.06.13,0,.25.02.37.07.22.1.39.25.48.47.48,1.09.84,2.19,1.1,3.28.02.08.03.15.03.22,0,.16-.04.31-.13.47-.13.21-.31.36-.54.44l-.07.03c-.08.03-.16.04-.23.04-.13,0-.25-.04-.37-.12-.2-.12-.32-.28-.37-.5-.22-1.07-.57-2.18-1.03-3.33Z" style="fill: #4b4c4e;"/>
        <path d="M105.32,152.61c1.17-.38,1.84-1.02,1.93-1.81-.04.01-.1.01-.17.01-.75,0-1.42-.48-1.42-1.33s.67-1.35,1.47-1.35c1.07,0,1.62.79,1.62,2.05,0,1.7-1.09,3.09-2.95,3.63l-.48-1.2Z" style="fill: #4b4c4e;"/>
        <path d="M119.67,145.49s0,.05,0,.07c.01.02.03.03.05.03h6.34c.23,0,.44.08.61.25.17.17.26.37.26.61s-.09.44-.26.61c-.17.17-.37.25-.61.25h-7.06c-.07,0-.12.03-.15.1-.52,1.05-1.06,1.97-1.64,2.75-.05.07-.07.14-.07.21v6.28c0,.24-.09.45-.26.62-.17.17-.37.25-.61.25h-.09c-.23,0-.44-.08-.61-.25s-.26-.37-.26-.62v-4.25s0-.03-.03-.04-.03,0-.04.01c-.18.16-.36.31-.56.45-.12.1-.25.15-.4.15-.06,0-.12,0-.18-.03-.21-.05-.38-.18-.48-.38-.03-.07-.06-.13-.09-.19-.08-.15-.12-.3-.12-.45,0-.08,0-.15.03-.22.05-.23.17-.43.35-.59,1.17-.93,2.17-2.17,2.99-3.72,0-.02,0-.04,0-.06s-.03-.03-.06-.03h-2.29c-.23,0-.44-.08-.61-.25s-.26-.37-.26-.61.08-.44.26-.61.37-.25.61-.25h3.08c.08,0,.13-.03.15-.1.15-.41.28-.8.4-1.16.07-.22.21-.4.41-.53.15-.08.3-.12.45-.12.07,0,.14,0,.21.01l.21.06c.22.05.4.18.51.38.07.13.1.25.1.38,0,.08-.01.17-.04.26-.08.21-.17.45-.26.7ZM123.44,152.08c-.07,0-.1.04-.1.12v3.19c0,.08.03.12.1.12h2.62c.23,0,.43.08.59.24.16.16.24.35.24.58s-.08.42-.24.58c-.16.16-.36.24-.59.24h-7.32c-.23,0-.43-.08-.59-.24-.16-.16-.24-.35-.24-.58s.08-.42.24-.58c.16-.16.36-.24.59-.24h2.7c.07,0,.1-.04.1-.12v-3.19c0-.08-.03-.12-.1-.12h-2.12c-.22,0-.42-.08-.58-.24-.16-.16-.24-.35-.24-.58s.08-.42.24-.58c.16-.16.35-.24.58-.24h2.12c.07,0,.1-.04.1-.12v-1.51c0-.24.08-.45.26-.62.17-.17.37-.25.61-.25h.07c.23,0,.44.08.61.25.17.17.26.37.26.62v1.51c0,.08.03.12.1.12h2.04c.23,0,.43.08.59.24.16.16.24.35.24.58s-.08.42-.24.58c-.16.16-.36.24-.59.24h-2.04Z" style="fill: #4b4c4e;"/>
        <path d="M138.17,154.9c0,.08.04.12.12.12h4.83c.23,0,.44.09.61.26.17.17.26.37.26.61h0c0,.25-.09.45-.26.62s-.37.26-.61.26h-11.76c-.23,0-.44-.09-.61-.26s-.26-.37-.26-.61h0c0-.25.08-.45.26-.62.17-.17.37-.26.61-.26h4.82c.08,0,.12-.04.12-.12v-2.78c0-.08-.04-.12-.12-.12h-3.09c-.23,0-.44-.08-.61-.26s-.26-.37-.26-.61.08-.44.26-.61c.17-.17.37-.26.61-.26h3.09c.08,0,.12-.04.12-.12v-2.4c0-.08-.04-.12-.12-.12h-2.87c-.08,0-.14.03-.18.1-.28.53-.56.99-.82,1.38-.14.2-.33.31-.57.34-.05,0-.09.01-.13.01-.2,0-.37-.05-.53-.16l-.15-.12c-.19-.12-.3-.29-.34-.51,0-.05-.01-.1-.01-.15,0-.16.05-.31.15-.45.36-.49.7-1.05,1.01-1.7.34-.7.63-1.43.86-2.17.07-.23.21-.42.42-.54.14-.09.29-.13.45-.13.07,0,.14,0,.21.03l.15.03c.23.05.41.18.53.38.08.13.12.25.12.38,0,.09-.01.17-.04.25-.12.35-.25.75-.41,1.19,0,.03,0,.05,0,.07.02.02.04.03.07.03h2.09c.07,0,.1-.03.1-.1v-1.73c0-.23.08-.44.26-.61s.37-.26.61-.26h.15c.23,0,.44.09.61.26.17.17.26.37.26.61v1.73c0,.07.04.1.12.1h4.07c.23,0,.44.09.61.26s.26.37.26.61h0c0,.25-.09.45-.26.62s-.37.26-.61.26h-4.07c-.08,0-.12.04-.12.12v2.4c0,.08.04.12.12.12h3.5c.23,0,.44.09.61.26.17.17.26.37.26.61s-.09.44-.26.61c-.17.17-.37.26-.61.26h-3.5c-.08,0-.12.04-.12.12v2.78Z" style="fill: #4b4c4e;"/>
        <path d="M150.25,148.84c.21.11.35.28.4.51.02.06.03.12.03.19,0,.16-.05.3-.15.44l-.03.04c-.13.2-.31.32-.54.37-.07.02-.14.03-.21.03-.16,0-.31-.04-.45-.13-.35-.21-.8-.47-1.35-.78-.2-.1-.31-.25-.35-.47-.02-.06-.03-.11-.03-.16,0-.15.05-.28.15-.41.14-.2.32-.32.54-.38.09-.02.17-.03.25-.03.15,0,.29.03.42.1.55.27.99.5,1.32.67ZM149.4,156.63c-.13.2-.3.31-.53.35h-.13c-.18,0-.33-.05-.47-.16l-.16-.13c-.19-.16-.3-.35-.34-.59,0-.05-.01-.1-.01-.15,0-.19.05-.36.16-.53.69-1.04,1.35-2.12,1.96-3.25.11-.19.27-.3.48-.34.04,0,.08-.01.12-.01.17,0,.31.06.44.18l.03.03c.2.18.31.39.35.64.02.07.03.14.03.21,0,.18-.04.35-.13.51-.61,1.15-1.21,2.23-1.8,3.24ZM150.98,144.77c.21.12.33.29.38.51,0,.06.01.12.01.18,0,.16-.05.31-.16.45l-.04.04c-.14.2-.32.31-.56.35-.06,0-.12.01-.18.01-.18,0-.34-.05-.5-.15-.31-.2-.74-.45-1.29-.76-.2-.11-.31-.27-.35-.48,0-.05-.01-.1-.01-.15,0-.16.05-.3.15-.42.15-.19.34-.31.57-.37.08,0,.15-.01.22-.01.16,0,.31.03.45.1.52.27.95.5,1.3.69ZM160.87,148.12c.17.17.25.37.25.6s-.08.43-.25.6-.37.25-.6.25h-2.84c-.08,0-.12.04-.12.12v1.67c0,.07.04.1.12.1h2.08c.23,0,.44.09.61.26.17.17.26.37.26.61v4.28c0,.23-.08.43-.25.6s-.37.25-.6.25h-.37c-.14,0-.25-.05-.34-.14-.09-.09-.14-.21-.14-.34,0-.04-.02-.06-.06-.06h-4.38s-.07.02-.07.07c0,.15-.05.27-.16.38s-.23.16-.38.16h-.26c-.21,0-.4-.08-.56-.23-.16-.16-.24-.35-.24-.57v-4.39c0-.23.08-.44.26-.61s.37-.26.61-.26h2.09c.07,0,.1-.03.1-.1v-1.67c0-.08-.03-.12-.1-.12h-3.03c-.23,0-.43-.08-.6-.25s-.25-.37-.25-.6.08-.43.25-.6.37-.25.6-.25h3.03c.07,0,.1-.04.1-.12v-1.54c0-.07-.03-.1-.1-.09-.6.09-1.27.17-2.02.25h-.09c-.19,0-.36-.05-.51-.16-.19-.14-.32-.32-.4-.54-.02-.07-.03-.14-.03-.22,0-.11.03-.21.09-.32.1-.18.25-.27.45-.29,2.19-.25,3.98-.6,5.38-1.04.15-.05.29-.07.44-.07.11,0,.21.01.32.04.26.06.48.18.66.37l.18.18c.11.11.16.23.16.37,0,.05,0,.1-.01.15-.05.2-.17.32-.35.38-.69.22-1.48.42-2.36.59-.07,0-.1.05-.1.13v1.83c0,.08.04.12.12.12h2.84c.23,0,.43.08.6.25ZM158.57,155.3c.07,0,.1-.04.1-.12v-1.99c0-.07-.03-.1-.1-.1h-4.29c-.08,0-.12.03-.12.1v1.99c0,.08.04.12.12.12h4.29Z" style="fill: #4b4c4e;"/>
        <path d="M172.02,146c0,.08.04.12.12.12h4.29c.23,0,.44.08.61.25.17.17.26.37.26.62v5.76c0,.23-.09.44-.26.61s-.37.26-.61.26h-.35c-.19,0-.34-.07-.47-.2-.13-.13-.19-.29-.19-.48,0-.05-.03-.07-.09-.07h-3.19c-.08,0-.12.03-.12.1v3.71c0,.24-.08.45-.25.62s-.37.25-.62.25h-.16c-.23,0-.44-.08-.61-.25-.17-.17-.26-.37-.26-.62v-3.71c0-.07-.03-.1-.1-.1h-3.18c-.06,0-.09.03-.09.09,0,.21-.07.38-.21.52s-.32.21-.52.21h-.21c-.23,0-.44-.08-.61-.26s-.26-.37-.26-.61v-5.83c0-.24.08-.45.26-.62s.37-.25.61-.25h4.2c.07,0,.1-.04.1-.12v-1.61c0-.24.08-.45.26-.62.17-.17.37-.25.61-.25h.16c.24,0,.45.08.62.25s.25.37.25.62v1.61ZM166.76,150.98c0,.08.04.12.12.12h3.15c.07,0,.1-.04.1-.12v-3c0-.07-.03-.1-.1-.1h-3.15c-.08,0-.12.03-.12.1v3ZM172.02,150.98c0,.08.04.12.12.12h3.16c.08,0,.12-.04.12-.12v-3c0-.07-.04-.1-.12-.1h-3.16c-.08,0-.12.03-.12.1v3Z" style="fill: #4b4c4e;"/>
        <path d="M192.35,147.4c0,.07.02.1.09.1h1.66c.17,0,.31.06.44.18.13.12.19.27.19.45s-.06.33-.19.45-.27.18-.44.18h-1.77c-.07,0-.11.04-.12.12v.21c-.04.24-.15.45-.32.62s-.39.25-.64.25h-6.9c-.23,0-.42-.09-.57-.26-.13-.14-.19-.3-.19-.48v-.12l.03-.21c0-.08-.02-.12-.1-.12h-1.45c-.17,0-.31-.06-.44-.18s-.19-.27-.19-.45.06-.32.19-.45c.13-.12.27-.18.44-.18h1.63c.07,0,.11-.03.12-.1l.03-.23c.03-.24.14-.45.32-.62s.4-.25.64-.25h6.8c.23,0,.43.09.59.26.13.15.19.32.19.51v.32ZM183.4,145.82c-.08,0-.12.04-.12.12v.32c0,.21-.08.4-.23.56s-.34.23-.56.23-.41-.08-.56-.23-.23-.34-.23-.56v-.97c0-.23.08-.44.25-.61s.37-.26.62-.26h4.51c.07,0,.1-.03.1-.1,0-.22.08-.42.23-.57s.35-.23.57-.23h.16c.22,0,.42.08.57.23s.23.35.23.57c0,.07.03.1.1.1h4.54c.24,0,.45.09.62.26s.25.37.25.61v.94c0,.22-.08.42-.24.58-.16.16-.36.24-.59.24s-.42-.08-.59-.24-.24-.35-.24-.58v-.29c0-.08-.04-.12-.12-.12h-9.27ZM193.08,154.54c0,.23-.09.44-.26.61s-.37.26-.61.26h-1.11s-.01,0-.01,0,0,.01.01.02c.92.25,1.84.53,2.77.83.16.05.25.16.27.34s-.04.31-.18.4l-.09.06c-.29.19-.6.28-.91.28-.21,0-.42-.04-.63-.12-.84-.3-1.78-.61-2.81-.92-.18-.06-.28-.18-.32-.35,0-.04-.01-.08-.01-.12,0-.13.05-.24.16-.34l.03-.03s.03-.02.02-.04c0-.01-.02-.02-.04-.02h-2.71s-.03,0-.04.02c0,.02,0,.03.02.04l.07.06c.16.1.23.23.23.41,0,.21-.1.36-.29.44-.99.42-2.16.76-3.52,1.03-.09.02-.18.03-.26.03-.38,0-.72-.17-1.03-.5-.11-.12-.14-.25-.09-.4.05-.15.15-.24.31-.27,1.22-.22,2.27-.5,3.13-.82,0,0,.01,0,0-.01s-.01-.01-.02-.01h-1.19c-.23,0-.44-.08-.61-.26s-.26-.37-.26-.61v-3.27c0-.24.08-.45.26-.62s.37-.25.61-.25h8.22c.23,0,.44.08.61.25s.26.37.26.62v3.27ZM184.97,151.33c-.07,0-.1.04-.1.12v.21c0,.08.03.12.1.12h6.2c.07,0,.1-.04.1-.12v-.21c0-.08-.03-.12-.1-.12h-6.2ZM184.97,152.65c-.07,0-.1.04-.1.12v.23c0,.07.03.1.1.1h6.2c.07,0,.1-.03.1-.1v-.23c0-.08-.03-.12-.1-.12h-6.2ZM184.97,153.98c-.07,0-.1.04-.1.12v.25c0,.07.03.1.1.1h6.2c.07,0,.1-.03.1-.1v-.25c0-.08-.03-.12-.1-.12h-6.2ZM185.32,148.61c-.08,0-.12.03-.13.1l-.03.25c0,.08.02.12.1.12h1.67c.07,0,.11-.04.12-.12l.04-.25c0-.07-.03-.1-.1-.1h-1.67ZM187.25,147.32c0-.07-.02-.1-.1-.1h-1.66c-.07,0-.11.03-.12.1l-.03.25c0,.07.02.1.09.1h1.67c.08,0,.12-.03.12-.1l.03-.25ZM188.54,148.96c0,.08.02.12.09.12h1.83c.07,0,.11-.04.12-.12v-.25c.02-.07,0-.1-.07-.1h-1.82c-.07,0-.11.03-.12.1l-.03.25ZM190.58,147.67c.07,0,.11-.03.12-.1l.03-.25c0-.07-.03-.1-.1-.1h-1.77c-.08,0-.12.03-.13.1v.25c-.02.07,0,.1.09.1h1.77Z" style="fill: #4b4c4e;"/>
        <path d="M202.71,152.47c.07-.02.14-.03.21-.03.13,0,.25.04.37.12.18.12.28.28.32.48,0,.05.01.1.01.15,0,.18-.05.34-.15.48-.13.2-.3.32-.51.38-.99.29-2.27.67-3.85,1.13-.09.03-.17.04-.25.04-.14,0-.27-.04-.41-.12-.21-.12-.34-.29-.4-.51h0c-.02-.09-.03-.17-.03-.23,0-.15.04-.29.12-.42.12-.21.29-.34.53-.4.16-.04.56-.14,1.2-.31.07-.02.1-.06.1-.13v-2.8c0-.08-.04-.12-.12-.12h-.73c-.22,0-.42-.08-.58-.23-.16-.16-.24-.35-.24-.58s.08-.42.24-.58c.16-.16.35-.23.58-.23h.73c.08,0,.12-.04.12-.12v-2.39c0-.07-.04-.1-.12-.1h-.86c-.22,0-.42-.08-.58-.24-.16-.16-.24-.36-.24-.59s.08-.43.24-.59.35-.24.58-.24h3.6c.22,0,.42.08.58.24s.24.36.24.59-.08.42-.24.59c-.16.16-.35.24-.58.24h-.79c-.07,0-.1.03-.1.1v2.39c0,.08.03.12.1.12h.63c.23,0,.43.08.59.23s.23.35.23.58-.08.42-.23.58-.35.23-.59.23h-.63c-.07,0-.1.04-.1.12v2.34s0,.05.03.07c.02.01.04.02.07,0,.16-.04.46-.12.91-.25ZM209.77,155.93h.62c.11,0,.18-.06.23-.18.04-.12.08-.37.09-.74,0-.19.09-.32.25-.41.09-.05.18-.07.26-.07.08,0,.16.02.23.06.22.1.41.24.54.44.1.16.15.32.15.5v.13c-.1.68-.26,1.15-.5,1.41s-.59.39-1.07.39h-1.13c-.67,0-1.12-.14-1.35-.43-.22-.29-.34-.82-.34-1.59v-2.83c0-.08-.03-.12-.1-.12h-.7c-.07,0-.11.04-.12.12-.07.59-.16,1.09-.29,1.52s-.3.85-.54,1.27c-.24.42-.57.79-.98,1.11-.42.32-.92.59-1.52.83-.11.04-.21.06-.32.06-.12,0-.23-.02-.35-.07-.23-.09-.42-.24-.56-.45,0-.02-.02-.03-.03-.04-.08-.11-.12-.22-.12-.35,0-.06,0-.12.03-.19.06-.19.18-.31.37-.38.48-.17.88-.36,1.19-.59.32-.22.57-.48.75-.78s.32-.59.4-.88.16-.65.21-1.07c0-.07-.02-.1-.09-.1h-.13c-.23,0-.44-.08-.61-.26-.17-.17-.26-.37-.26-.61v-6.67c0-.24.08-.45.26-.62.17-.17.37-.25.61-.25h5.6c.24,0,.45.08.62.25s.25.37.25.62v6.67c0,.23-.08.44-.25.61-.17.17-.37.26-.62.26h-.86c-.08,0-.12.04-.12.12v2.83c0,.21.02.35.05.41.03.06.11.09.24.09ZM205.78,145.54c-.08,0-.12.03-.12.1v.72c0,.07.04.1.12.1h3.69c.07,0,.1-.03.1-.1v-.72c0-.07-.03-.1-.1-.1h-3.69ZM205.78,147.83c-.08,0-.12.03-.12.1v.72c0,.07.04.1.12.1h3.69c.07,0,.1-.03.1-.1v-.72c0-.07-.03-.1-.1-.1h-3.69ZM205.78,150.1c-.08,0-.12.04-.12.12v.7c0,.08.04.12.12.12h3.69c.07,0,.1-.04.1-.12v-.7c0-.08-.03-.12-.1-.12h-3.69Z" style="fill: #4b4c4e;"/>
        <path d="M215.4,145.65c-.16-.16-.24-.35-.24-.57s.08-.42.24-.57c.16-.16.35-.23.56-.23h5.24c.23,0,.43.08.6.25s.25.37.25.62v1.22c-.02,3.84-.05,6.38-.09,7.63-.04,1.25-.17,2.04-.37,2.37-.17.27-.33.47-.49.59-.16.12-.37.22-.62.29-.23.06-.55.09-.94.09h-.01c-.23,0-.44-.08-.63-.23-.18-.17-.3-.37-.37-.62-.02-.09-.04-.18-.07-.26-.02-.06-.03-.12-.03-.19,0-.12.04-.22.12-.32.11-.16.25-.23.44-.23h.48c.2,0,.35-.11.47-.32.14-.22.22-1.04.26-2.43,0-.08-.03-.12-.1-.12h-1.63c-.08,0-.12.03-.13.1-.34,1.69-.85,3.07-1.54,4.13-.12.19-.29.28-.51.29-.02,0-.03.01-.04.01-.21,0-.4-.07-.54-.22-.06-.06-.12-.11-.18-.16-.18-.16-.28-.35-.31-.59v-.12c0-.19.05-.36.16-.53.51-.75.89-1.69,1.16-2.81,0-.08-.02-.12-.09-.12h-.5c-.21,0-.4-.08-.56-.23s-.23-.34-.23-.56.08-.41.23-.56.34-.23.56-.23h.78c.08,0,.12-.04.13-.12.05-.38.1-.89.15-1.54,0-.07-.03-.1-.1-.1h-.78c-.21,0-.4-.08-.56-.23s-.23-.34-.23-.56.08-.4.23-.56.34-.23.56-.23h.85c.07,0,.1-.03.1-.1.02-.66.03-1.19.03-1.58,0-.08-.03-.12-.1-.12h-1.04c-.21,0-.4-.08-.56-.23ZM218.6,150.91c0,.08.03.12.1.12h1.42c.07,0,.1-.04.1-.12,0-.32.01-.83.01-1.54,0-.07-.03-.1-.1-.1h-1.27c-.07,0-.11.03-.12.1-.03.38-.08.89-.15,1.54ZM220.27,146c0-.08-.03-.12-.1-.12h-1.17c-.08,0-.12.04-.12.12,0,.54-.01,1.06-.04,1.58,0,.07.04.1.12.1h1.2c.07,0,.1-.03.1-.1v-1.58ZM227.5,144.21s.08-.01.13-.01c.1,0,.2.03.29.09l.44.28c.19.12.31.28.37.5.03.09.04.18.04.26,0,.12-.02.23-.07.35-.64,1.54-1.18,2.74-1.61,3.6-.03.07-.02.13.03.18,1.08,1.04,1.63,2.18,1.63,3.4,0,1.05-.3,1.78-.89,2.18-.28.19-.64.31-1.08.38-.16.02-.35.03-.57.03h-.01c-.23,0-.44-.08-.62-.23-.19-.17-.31-.37-.38-.62,0,0,0-.02-.01-.04-.02-.06-.03-.12-.03-.18,0-.12.04-.23.12-.34.11-.16.26-.23.45-.23.07,0,.14,0,.22-.01.26,0,.49-.04.69-.13.28-.15.42-.48.42-1,0-.82-.38-1.64-1.13-2.46-.18-.19-.29-.41-.35-.66-.02-.09-.03-.18-.03-.26,0-.16.03-.31.1-.47.28-.7.63-1.64,1.05-2.8,0-.03,0-.06,0-.08-.02-.02-.04-.04-.07-.04h-1.8c-.08,0-.12.04-.12.12v10.65c0,.23-.08.43-.24.6-.16.17-.36.25-.59.25s-.43-.08-.6-.25-.25-.37-.25-.6v-11.57c0-.24.08-.45.25-.62s.37-.25.62-.25h3.56s.04,0,.06-.01Z" style="fill: #4b4c4e;"/>
        <path d="M234.67,144.37c.1-.22.25-.39.47-.5.13-.06.26-.09.4-.09.09,0,.18.01.28.04h.04c.22.08.39.22.5.44.05.11.07.22.07.34,0,.1-.02.2-.07.29-.3.73-.65,1.46-1.05,2.2-.04.07-.06.14-.06.21v9.35c0,.23-.08.43-.25.6s-.37.25-.6.25-.43-.08-.6-.25-.25-.37-.25-.6v-6.71s0-.03-.02-.04c-.02,0-.03,0-.04.02l-.38.47c-.11.13-.24.19-.4.19-.03,0-.06,0-.1-.01-.2-.03-.34-.14-.42-.32-.06-.11-.11-.21-.16-.31-.1-.19-.15-.38-.15-.59,0-.04,0-.08.01-.13.03-.25.12-.48.28-.67,1.01-1.18,1.84-2.57,2.5-4.17ZM239.06,145.27c-.15-.15-.23-.33-.23-.55s.08-.4.23-.56c.15-.16.33-.23.55-.23h2.77c.24,0,.46.08.66.24.2.16.33.36.4.61.42,1.64,1.1,2.92,2.05,3.84.18.17.26.37.26.62,0,.21-.07.39-.21.54-.08.1-.16.2-.25.29-.13.17-.29.26-.48.28h-.09c-.17,0-.31-.06-.44-.18,0,0-.02-.01-.04,0s-.03.02-.03.04v.06c-.05,2.22-.12,3.78-.2,4.7-.08.92-.23,1.51-.43,1.79-.25.34-.61.56-1.07.66-.21.04-.5.06-.88.06h-.01c-.23,0-.44-.08-.62-.23-.19-.17-.31-.37-.38-.62,0-.04-.02-.07-.03-.1-.02-.07-.03-.13-.03-.19,0-.12.04-.23.12-.34.11-.16.25-.23.44-.23h.42c.21,0,.38-.07.48-.21.11-.14.19-.53.25-1.17.06-.64.11-1.69.15-3.14,0-.07-.02-.1-.1-.1h-1.64c-.07,0-.11.03-.12.1-.15,1.3-.43,2.42-.86,3.37s-1.08,1.76-1.96,2.43c-.15.1-.3.15-.45.15-.06,0-.12,0-.18-.01-.22-.05-.41-.17-.56-.37-.11-.14-.16-.29-.16-.47v-.1c.03-.21.13-.39.31-.51.68-.52,1.18-1.14,1.49-1.87.31-.73.52-1.6.63-2.61,0-.07-.02-.1-.1-.1h-.62c-.23,0-.44-.08-.61-.26s-.26-.37-.26-.61v-.21s0-.02-.02-.03c-.02,0-.03,0-.04.01-.03.03-.05.06-.07.1-.15.17-.33.25-.56.25s-.42-.08-.59-.24c-.17-.16-.25-.36-.25-.61,0-.22.07-.42.21-.59.62-.77,1.14-1.7,1.55-2.78.09-.23.24-.41.45-.53.14-.08.28-.12.42-.12.08,0,.16.01.23.04h.04c.22.06.39.19.5.4.05.12.07.23.07.34,0,.1-.02.2-.06.29-.45,1.07-.95,2.02-1.51,2.83,0,.02,0,.04,0,.06s.02.03.04.03h5.93s.05,0,.06-.03,0-.04-.01-.06c-.79-1.06-1.38-2.34-1.77-3.82-.02-.07-.07-.1-.15-.1h-2.12c-.21,0-.4-.08-.55-.23Z" style="fill: #4b4c4e;"/>
        <path d="M252.93,153.12c.08-.03.16-.04.23-.04.14,0,.26.04.38.12.2.11.31.27.35.5,0,.06.01.12.01.19,0,.17-.04.33-.13.5-.13.21-.31.35-.54.42-.77.27-1.86.63-3.27,1.08-.08.03-.16.04-.25.04-.13,0-.25-.04-.38-.12-.2-.12-.32-.29-.38-.51l-.03-.12c0-.08-.01-.15-.01-.21,0-.17.04-.32.13-.47.13-.21.31-.34.54-.4.29-.08.59-.16.88-.25.08-.02.12-.06.12-.13v-3.31c0-.07-.04-.1-.12-.1h-.59c-.22,0-.42-.08-.58-.24s-.24-.35-.24-.58.08-.42.24-.58.35-.24.58-.24h.59c.08,0,.12-.04.12-.12v-2.42c0-.07-.04-.1-.12-.1h-.7c-.23,0-.43-.08-.59-.25-.16-.17-.24-.36-.24-.59s.08-.42.24-.59c.16-.16.36-.24.59-.24h3.28c.23,0,.43.08.59.24.16.16.24.36.24.59s-.08.43-.24.59c-.16.17-.36.25-.59.25h-.66c-.08,0-.12.03-.12.1v2.42c0,.08.04.12.12.12h.42c.22,0,.42.08.57.24.16.16.23.35.23.58s-.08.42-.23.58c-.16.16-.35.24-.57.24h-.42c-.08,0-.12.03-.12.1v2.78s.01.05.04.07c.02.01.05.02.07,0,.23-.07.42-.12.56-.16ZM259.26,155.33c0,.08.04.12.12.12h2.77c.22,0,.42.08.57.23s.23.35.23.57-.08.42-.23.57-.35.23-.57.23h-8.03c-.22,0-.42-.08-.57-.23s-.23-.35-.23-.57.08-.42.23-.57.35-.23.57-.23h3.22c.08,0,.12-.04.12-.12v-1.2c0-.08-.04-.12-.12-.12h-2.2c-.21,0-.4-.08-.56-.23s-.23-.34-.23-.56.08-.41.23-.56.34-.23.56-.23h2.2c.08,0,.12-.04.12-.12v-1.07c0-.07-.04-.1-.12-.1h-2.02c-.24,0-.45-.08-.62-.26s-.25-.37-.25-.61v-5.24c0-.24.08-.45.25-.62s.37-.25.62-.25h6.09c.24,0,.45.08.62.25s.25.37.25.62v5.24c0,.23-.08.44-.25.61s-.37.26-.62.26h-2.04c-.08,0-.12.03-.12.1v1.07c0,.08.04.12.12.12h2.27c.21,0,.4.08.56.23.16.16.24.34.24.56s-.08.41-.24.56c-.16.16-.35.23-.56.23h-2.27c-.08,0-.12.04-.12.12v1.2ZM256.17,145.66c-.08,0-.12.04-.12.12v1.03c0,.07.04.1.12.1h1.32c.08,0,.12-.03.12-.1v-1.03c0-.08-.04-.12-.12-.12h-1.32ZM256.17,148.31c-.08,0-.12.04-.12.12v1.07c0,.07.04.1.12.1h1.32c.08,0,.12-.03.12-.1v-1.07c0-.08-.04-.12-.12-.12h-1.32ZM260.47,146.91c.08,0,.12-.03.12-.1v-1.03c0-.08-.04-.12-.12-.12h-1.26c-.08,0-.12.04-.12.12v1.03c0,.07.04.1.12.1h1.26ZM260.47,149.6c.08,0,.12-.03.12-.1v-1.07c0-.08-.04-.12-.12-.12h-1.26c-.08,0-.12.04-.12.12v1.07c0,.07.04.1.12.1h1.26Z" style="fill: #4b4c4e;"/>
        <path d="M269.98,152.27c-.17.17-.37.25-.6.25s-.43-.08-.6-.25-.25-.37-.25-.6v-1.99s0-.03-.02-.03c-.02,0-.03,0-.04.01-.33.57-.68,1.06-1.04,1.48-.14.15-.3.22-.5.22h-.06c-.22,0-.42-.1-.57-.28-.14-.16-.21-.34-.21-.54,0-.22.08-.42.23-.59.76-.75,1.39-1.65,1.88-2.7,0-.02,0-.04,0-.06-.01-.02-.04-.03-.07-.03h-1.3c-.21,0-.38-.08-.54-.23s-.23-.33-.23-.54.08-.39.23-.53.33-.22.54-.22h1.6c.07,0,.1-.03.1-.1v-1.16c0-.23.08-.43.25-.6s.37-.25.6-.25.43.08.6.25.25.37.25.6v1.16c0,.07.03.1.1.1h1.26c.21,0,.38.07.53.22s.22.33.22.53-.07.39-.22.54-.32.23-.53.23h-1.26c-.07,0-.1.03-.1.1v.34c0,.07.03.12.09.16.39.23.92.6,1.6,1.08.2.14.31.33.35.57,0,.06.01.11.01.16,0,.18-.05.34-.15.5-.12.18-.28.27-.5.29-.03,0-.06.01-.09.01-.18,0-.33-.07-.47-.21-.24-.23-.5-.48-.78-.73,0,0-.02-.01-.04,0-.02,0-.03.02-.03.05v2.17c0,.23-.08.43-.25.6ZM267.83,155.93c-.1.22-.26.37-.5.44-.09.03-.18.04-.26.04-.14,0-.27-.03-.4-.09l-.09-.04c-.21-.11-.34-.27-.41-.5-.02-.08-.03-.16-.03-.23,0-.14.03-.27.1-.4.23-.48.44-.99.63-1.52.07-.22.21-.39.41-.48.11-.06.22-.09.34-.09.1,0,.19.02.28.06.22.09.39.24.5.47.07.13.1.26.1.4,0,.09-.01.18-.04.28-.21.64-.42,1.2-.63,1.67ZM271.97,155.65h2.39c.28,0,.48-.05.59-.16.11-.11.19-.34.24-.7.03-.2.13-.34.29-.42.11-.06.21-.09.31-.09.08,0,.16.01.23.04h.01c.23.09.42.23.57.44.1.16.15.32.15.48,0,.06,0,.12-.01.18-.14.7-.37,1.18-.69,1.44s-.84.38-1.55.38h-2.71c-1.01,0-1.68-.15-2.03-.44-.35-.29-.52-.83-.52-1.63v-1.19c0-.23.08-.44.26-.61s.37-.26.61-.26h.03c.24,0,.45.09.62.26.17.17.25.37.25.61v1.16c0,.22.06.37.18.42s.38.09.79.09ZM271.96,153.47c-.14-.14-.21-.3-.21-.5,0-.22.09-.41.26-.54l.34-.28c.08-.06.17-.09.27-.09s.19.03.27.1c0,0,0,.01.01,0,0,0,.01-.01.01-.02v-7.02c0-.24.08-.45.26-.62s.37-.25.61-.25h4.37c.23,0,.44.08.61.25.17.17.26.37.26.62v6.34c0,.23-.09.44-.26.61s-.37.26-.61.26h-4.97s-.03,0-.04.03,0,.03.01.04c.35.32.66.62.94.89.15.16.22.34.22.54,0,.25-.1.46-.29.62-.16.13-.33.19-.53.19h-.09c-.22-.02-.42-.11-.57-.28-.26-.29-.56-.6-.88-.91ZM274.65,145.68c-.07,0-.1.04-.1.12v.64c0,.08.03.12.1.12h2.55c.07,0,.1-.04.1-.12v-.64c0-.08-.03-.12-.1-.12h-2.55ZM274.65,147.87c-.07,0-.1.03-.1.1v.66c0,.07.03.1.1.1h2.55c.07,0,.1-.03.1-.1v-.66c0-.07-.03-.1-.1-.1h-2.55ZM274.65,150.04c-.07,0-.1.04-.1.12v.67c0,.08.03.12.1.12h2.55c.07,0,.1-.04.1-.12v-.67c0-.08-.03-.12-.1-.12h-2.55ZM276.89,154.07c-.08-.13-.12-.26-.12-.4,0-.08.01-.16.04-.23.07-.21.21-.37.41-.47.14-.07.27-.1.41-.1.1,0,.19.01.28.04.24.07.43.21.56.41.46.69.79,1.2.98,1.52.08.13.12.26.12.41,0,.07-.01.15-.04.23-.06.22-.2.39-.41.5l-.13.06c-.13.07-.25.1-.38.1-.09,0-.18-.01-.26-.04-.22-.08-.4-.22-.51-.42-.18-.31-.49-.85-.94-1.61Z" style="fill: #4b4c4e;"/>
        <path d="M284.27,152.61c1.17-.38,1.84-1.02,1.93-1.81-.04.01-.1.01-.17.01-.75,0-1.42-.48-1.42-1.33s.67-1.35,1.47-1.35c1.07,0,1.62.79,1.62,2.05,0,1.7-1.09,3.09-2.96,3.63l-.48-1.2Z" style="fill: #4b4c4e;"/>
        <path d="M76.52,173.43c.21.11.35.28.4.51.02.06.03.12.03.19,0,.16-.05.3-.15.44l-.03.04c-.13.2-.31.32-.54.37-.07.02-.14.03-.21.03-.16,0-.31-.04-.45-.13-.35-.21-.8-.47-1.35-.78-.2-.1-.31-.25-.35-.47-.02-.06-.03-.11-.03-.16,0-.15.05-.28.15-.41.14-.2.32-.32.54-.38.09-.02.17-.03.25-.03.15,0,.29.03.42.1.55.27.99.5,1.32.67ZM75.67,181.22c-.13.2-.3.31-.53.35h-.13c-.18,0-.33-.05-.47-.16l-.16-.13c-.19-.16-.3-.35-.34-.59,0-.05-.01-.1-.01-.15,0-.19.05-.36.16-.53.69-1.04,1.35-2.12,1.96-3.25.11-.19.27-.3.48-.34.04,0,.08-.01.12-.01.17,0,.31.06.44.18l.03.03c.2.18.31.39.35.64.02.07.03.14.03.21,0,.18-.04.35-.13.51-.61,1.15-1.21,2.23-1.8,3.24ZM77.25,169.35c.21.12.33.29.38.51,0,.06.01.12.01.18,0,.16-.05.31-.16.45l-.04.04c-.14.2-.32.31-.56.35-.06,0-.12.01-.18.01-.18,0-.34-.05-.5-.15-.31-.2-.74-.45-1.29-.76-.2-.11-.31-.27-.35-.48,0-.05-.01-.1-.01-.15,0-.16.05-.3.15-.42.15-.19.34-.31.57-.37.08,0,.15-.01.22-.01.16,0,.31.03.45.1.52.27.95.5,1.3.69ZM87.14,172.71c.17.17.25.37.25.6s-.08.43-.25.6-.37.25-.6.25h-2.84c-.08,0-.12.04-.12.12v1.67c0,.07.04.1.12.1h2.08c.23,0,.44.09.61.26.17.17.26.37.26.61v4.28c0,.23-.08.43-.25.6s-.37.25-.6.25h-.37c-.14,0-.25-.05-.34-.14-.09-.09-.14-.21-.14-.34,0-.04-.02-.06-.06-.06h-4.38s-.07.02-.07.07c0,.15-.05.27-.16.38s-.23.16-.38.16h-.26c-.21,0-.4-.08-.56-.23-.16-.16-.24-.35-.24-.57v-4.39c0-.23.08-.44.26-.61s.37-.26.61-.26h2.09c.07,0,.1-.03.1-.1v-1.67c0-.08-.03-.12-.1-.12h-3.03c-.23,0-.43-.08-.6-.25s-.25-.37-.25-.6.08-.43.25-.6.37-.25.6-.25h3.03c.07,0,.1-.04.1-.12v-1.54c0-.07-.03-.1-.1-.09-.6.09-1.27.17-2.02.25h-.09c-.19,0-.36-.05-.51-.16-.19-.14-.32-.32-.4-.54-.02-.07-.03-.14-.03-.22,0-.11.03-.21.09-.32.1-.18.25-.27.45-.29,2.19-.25,3.98-.6,5.38-1.04.15-.05.29-.07.44-.07.11,0,.21.01.32.04.26.06.48.18.66.37l.18.18c.11.11.16.23.16.37,0,.05,0,.1-.01.15-.05.2-.17.32-.35.38-.69.22-1.48.42-2.36.59-.07,0-.1.05-.1.13v1.83c0,.08.04.12.12.12h2.84c.23,0,.43.08.6.25ZM84.84,179.89c.07,0,.1-.04.1-.12v-1.99c0-.07-.03-.1-.1-.1h-4.29c-.08,0-.12.03-.12.1v1.99c0,.08.04.12.12.12h4.29Z" style="fill: #4b4c4e;"/>
        <path d="M101.55,176.62c0-.24.08-.45.25-.62s.37-.25.62-.25h.13c.23,0,.44.08.61.25.17.17.26.37.26.62v4.61c0,.24-.09.45-.26.62-.17.17-.37.25-.61.25h-.25c-.21,0-.38-.07-.53-.22s-.22-.33-.22-.54c0-.06-.03-.09-.1-.09h-8.12c-.07,0-.1.03-.1.09,0,.21-.07.4-.22.55s-.33.23-.54.23h-.19c-.23,0-.44-.08-.61-.25-.17-.17-.26-.37-.26-.62v-4.63c0-.24.08-.45.26-.62.17-.17.37-.25.61-.25h.09c.24,0,.45.08.62.25s.25.37.25.62v2.75c0,.08.04.12.12.12h2.92c.07,0,.1-.04.1-.12v-4.31c0-.07-.03-.1-.1-.1h-3.38c-.23,0-.44-.08-.61-.26-.17-.17-.26-.37-.26-.61v-3.72c0-.24.08-.45.26-.62s.37-.25.61-.25h.04c.24,0,.45.08.62.25s.25.37.25.62v2.72c0,.08.04.12.12.12h2.36c.07,0,.1-.04.1-.12v-3.98c0-.24.08-.45.26-.62.17-.17.37-.25.61-.25h.1c.24,0,.45.08.62.25s.25.37.25.62v3.98c0,.08.04.12.12.12h2.5c.08,0,.12-.04.12-.12v-2.72c0-.24.08-.45.25-.62s.37-.25.62-.25h.15c.23,0,.44.08.61.25s.26.37.26.62v3.72c0,.23-.09.44-.26.61-.17.17-.37.26-.61.26h-3.63c-.08,0-.12.03-.12.1v4.31c0,.08.04.12.12.12h3.12c.08,0,.12-.04.12-.12v-2.75Z" style="fill: #4b4c4e;"/>
        <path d="M110.11,168.97c.09-.22.24-.39.45-.5.14-.07.27-.1.41-.1.09,0,.18.01.26.04h.04c.22.08.39.22.48.44.06.11.09.22.09.34,0,.1-.02.2-.06.29-.32.76-.67,1.49-1.05,2.18-.04.07-.06.14-.06.21v9.36c0,.23-.08.43-.25.6s-.37.25-.6.25-.44-.08-.61-.25-.26-.37-.26-.6v-6.71s0-.03-.02-.04c-.02,0-.03,0-.04.02-.12.16-.24.31-.37.47-.11.13-.24.19-.4.19h-.1c-.2-.03-.34-.14-.42-.32l-.18-.32c-.1-.19-.15-.38-.15-.59,0-.04,0-.08.01-.13.02-.25.11-.48.28-.67,1.02-1.19,1.86-2.58,2.52-4.16ZM119.41,172.55c0-.07-.02-.1-.09-.1h-1.8c-.07,0-.1.03-.1.1v7.57c0,.45-.05.8-.15,1.05s-.28.45-.54.6c-.32.18-.77.28-1.35.32h-.07c-.21,0-.41-.07-.57-.21-.21-.16-.35-.36-.42-.6l-.06-.18c-.03-.07-.04-.14-.04-.21,0-.12.03-.22.1-.32.11-.17.26-.25.45-.25h.62c.1,0,.17-.02.21-.05s.06-.1.06-.2v-7.54c0-.07-.03-.1-.1-.1h-1.52c-.08,0-.13.03-.16.09-.26.54-.55,1.04-.85,1.49-.13.2-.31.3-.54.32-.03,0-.06.01-.09.01-.2,0-.37-.07-.53-.21-.04-.03-.07-.05-.1-.07-.18-.15-.28-.34-.31-.57,0-.04-.01-.08-.01-.12,0-.19.05-.36.16-.51.72-1.04,1.32-2.33,1.79-3.88.07-.23.21-.42.41-.54.15-.09.3-.13.47-.13.06,0,.12,0,.19.03h.06c.23.06.41.19.53.38.08.14.12.27.12.41,0,.08,0,.16-.03.23-.13.41-.27.84-.44,1.3,0,.02,0,.04,0,.07.01.03.04.04.07.04h5.08c.09-.02.18-.03.26-.03.08,0,.16,0,.25.01l.37.07c.18.04.32.13.42.28.08.11.12.23.12.37v.12c-.13.75-.25,1.45-.38,2.09-.05.21-.16.37-.34.48-.14.1-.29.15-.45.15-.04,0-.09,0-.15-.01-.21-.03-.37-.13-.5-.31-.1-.14-.15-.29-.15-.45,0-.04,0-.08.01-.12.04-.3.07-.6.1-.89ZM112.99,175.62c.06-.23.19-.42.4-.54.15-.1.3-.15.45-.15.07,0,.13,0,.19.01h.04c.23.06.42.19.54.38.09.14.13.28.13.42,0,.07-.01.14-.04.22-.36,1.3-.82,2.45-1.36,3.44-.12.2-.29.32-.53.37-.06,0-.12.01-.18.01-.17,0-.32-.05-.47-.15-.02,0-.04-.02-.07-.03-.19-.12-.3-.29-.35-.51-.02-.07-.03-.14-.03-.21,0-.15.04-.29.13-.42.46-.78.84-1.73,1.14-2.86ZM118.3,175.93c-.05-.1-.07-.2-.07-.29,0-.11.02-.21.07-.32.09-.21.24-.34.45-.41.11-.04.21-.06.31-.06.13,0,.25.02.37.07.22.1.39.25.48.47.48,1.09.84,2.19,1.1,3.28.02.08.03.15.03.22,0,.16-.04.31-.13.47-.13.21-.31.36-.54.44l-.07.03c-.08.03-.16.04-.23.04-.13,0-.25-.04-.37-.12-.2-.12-.32-.28-.37-.5-.22-1.07-.57-2.18-1.03-3.33Z" style="fill: #4b4c4e;"/>
        <path d="M136.17,176.46c.24,0,.45.09.62.26s.25.37.25.61v3.22c0,.39-.05.68-.15.88s-.28.35-.54.47c-.31.12-.81.19-1.48.21h-.01c-.24,0-.46-.08-.64-.23-.21-.15-.36-.34-.45-.59-.02-.07-.04-.14-.07-.22-.03-.07-.08-.1-.16-.1h-3.25s-.06.02-.06.06c0,.11-.04.2-.12.28s-.17.12-.28.12h-.32c-.2,0-.36-.07-.51-.21-.14-.14-.21-.31-.21-.51v-1.54c0-.23.08-.44.26-.61s.37-.26.61-.26h3.28c.23,0,.44.09.61.26.17.17.26.37.26.61v1.49c0,.08.04.12.12.12.28,0,.52.01.7.01.21,0,.35,0,.44-.01.11,0,.18-.03.21-.06s.05-.08.05-.16v-2.7c0-.08-.03-.12-.1-.12h-7.66c-.07,0-.1.04-.1.12v3.4c0,.23-.08.43-.25.6s-.37.25-.61.25-.44-.08-.61-.25-.25-.37-.25-.6v-4.57s-.01-.05-.04-.03c-.12.06-.24.07-.36.04s-.22-.1-.29-.2l-.18-.23c-.09-.11-.13-.22-.13-.35,0-.04,0-.08.01-.13.04-.18.14-.31.29-.4.63-.34,1.17-.76,1.6-1.26,0-.02,0-.04,0-.05,0-.01-.02-.02-.04-.02-.17,0-.42.03-.77.06s-.6.05-.77.07h-.07c-.16,0-.3-.05-.42-.15-.15-.12-.23-.27-.26-.45v-.09c0-.15.05-.28.15-.4.12-.14.27-.21.45-.22h.1c.07,0,.13-.04.18-.09.21-.25.43-.52.64-.79.04-.06.03-.11-.01-.16-.28-.26-.63-.56-1.05-.89-.14-.11-.21-.24-.23-.41,0-.04-.01-.07-.01-.1,0-.13.04-.25.12-.37l.13-.19c.06-.09.14-.14.25-.16s.21,0,.29.06c.02,0,.04,0,.06-.01.21-.33.39-.67.56-1.03.09-.18.21-.3.38-.38.1-.04.2-.06.29-.06.08,0,.16.01.23.04.17.06.28.17.34.34.02.06.03.12.03.18,0,.1-.03.19-.09.28-.29.46-.56.86-.81,1.22-.04.06-.03.11.03.16.08.07.17.14.26.22.06.05.11.04.15-.01.12-.19.22-.36.32-.51s.23-.26.41-.32c.09-.03.17-.04.25-.04.1,0,.2.02.29.06.16.07.26.19.31.35.02.06.03.11.03.16,0,.11-.03.21-.1.31-.52.72-1.02,1.38-1.51,1.98,0,.02,0,.04,0,.06s.02.03.04.03l.64-.04c.07,0,.12-.03.15-.1.09-.22.23-.4.44-.53.16-.1.32-.15.48-.15.06,0,.11,0,.16.01l.25.04c.07,0,.1-.02.1-.1v-1.14c0-.24.08-.45.26-.62s.37-.25.61-.25h2.52c.24,0,.45.08.62.25s.25.37.25.62v1.41c0,.23-.08.44-.25.61-.17.17-.37.26-.62.26h-1.89c-.07,0-.1.03-.1.1v.18c0,.07.03.1.1.1h2.45c.11,0,.2.04.28.12s.12.17.12.29-.04.21-.12.29-.17.12-.28.12h-2.45c-.07,0-.1.04-.1.12v.18c0,.07.03.1.1.1h2.5c.11,0,.2.04.28.12s.12.17.12.29-.04.21-.12.29-.17.12-.28.12h-2.59s-.01,0-.01.01,0,.02.01.03l1.01.12c.2.03.34.13.42.29.05.09.07.17.07.25,0,.09-.02.17-.06.25,0,.02,0,.04,0,.06s.03.03.06.03h4.26ZM126.09,176.4s-.03.02-.02.04c0,.02.02.02.04.02h3.88c.07,0,.11-.03.13-.1.05-.15.09-.28.12-.4,0-.02,0-.04-.02-.07-.01-.02-.04-.04-.07-.04h-.29c-.23,0-.44-.08-.61-.25s-.26-.37-.26-.62v-2.11s0-.03-.01-.03-.01,0-.01.01c-.58,1.47-1.53,2.65-2.87,3.53ZM132.92,168.49c.14,0,.25.05.35.15s.15.22.15.36-.05.26-.15.36-.21.15-.35.15h-3.78c-.14,0-.25-.05-.35-.15s-.15-.22-.15-.36.05-.26.15-.36.21-.15.35-.15h3.78ZM132.14,180c.08,0,.12-.04.12-.12v-.53c0-.07-.04-.1-.12-.1h-1.82c-.08,0-.12.03-.12.1v.53c0,.08.04.12.12.12h1.82ZM131.85,170.79c0-.07-.04-.1-.12-.1h-1.25c-.07,0-.1.03-.1.1v.19c0,.07.03.1.1.1h1.25c.08,0,.12-.03.12-.1v-.19ZM130.38,172.15c0,.07.03.1.1.1h1.25c.08,0,.12-.03.12-.1v-.23c0-.07-.04-.1-.12-.1h-1.25c-.07,0-.1.03-.1.1v.23ZM137,168.49s.1-.03.15-.03c.08,0,.16.02.23.06l.35.18c.15.07.25.18.32.34.03.08.04.16.04.23s-.02.16-.06.23c-.17.43-.43,1.05-.81,1.86-.04.07-.03.13.03.18.67.67,1.01,1.32,1.01,1.93s-.21,1.08-.62,1.36c-.2.13-.44.22-.75.28l-.38.03h-.03c-.18,0-.33-.06-.45-.19-.15-.13-.25-.29-.31-.48-.04-.14-.02-.27.06-.39s.19-.18.34-.18h.15c.13,0,.24-.02.35-.07.15-.09.22-.27.22-.54s-.16-.6-.48-.97c-.18-.21-.29-.43-.35-.67-.02-.11-.03-.21-.03-.32,0-.14.02-.28.06-.42.12-.35.23-.69.34-1.03,0-.03,0-.06,0-.08-.02-.02-.04-.04-.07-.04h-.98c-.08,0-.12.04-.12.12v5.41c0,.21-.07.38-.21.51s-.31.21-.5.21-.37-.07-.51-.21-.21-.31-.21-.51v-5.92c0-.23.08-.44.26-.61.17-.17.37-.26.61-.26h2.36Z" style="fill: #4b4c4e;"/>
        <path d="M144.33,172c.15-.21.34-.35.57-.42.11-.03.21-.04.31-.04.14,0,.27.02.4.07.21.09.34.24.41.45.03.08.04.15.04.22,0,.14-.04.26-.13.38-.25.36-.53.74-.83,1.13-.05.06-.07.12-.07.19v7.27c0,.24-.09.45-.26.62s-.37.25-.61.25-.44-.08-.61-.25c-.17-.17-.26-.37-.26-.62v-5.38s0-.03-.03-.04-.03,0-.04,0c-.21.2-.4.38-.59.54-.12.11-.25.16-.41.16-.05,0-.1,0-.15-.01-.21-.05-.38-.17-.48-.37-.03-.07-.06-.14-.1-.21-.09-.16-.13-.32-.13-.48,0-.06,0-.12.01-.19.05-.23.17-.42.35-.57,1.02-.82,1.88-1.72,2.61-2.71ZM143.82,168.81c.17-.2.37-.33.62-.4.11-.03.21-.04.31-.04.14,0,.27.02.41.07l.07.03c.21.08.34.22.4.44,0,.06.01.12.01.18,0,.14-.04.27-.13.4-.81.99-1.72,1.86-2.72,2.61-.14.1-.28.15-.42.15-.07,0-.13,0-.19-.03-.22-.05-.4-.18-.51-.38h0c-.09-.16-.13-.31-.13-.47,0-.07,0-.14.01-.21.05-.22.17-.41.35-.56.75-.56,1.4-1.15,1.93-1.79ZM151.52,179.86c0,.08.04.12.12.12h2.74c.23,0,.43.08.6.25s.25.37.25.6-.08.43-.25.6-.37.25-.6.25h-7.66c-.24,0-.45-.08-.62-.25s-.25-.37-.25-.6.08-.43.25-.6.37-.25.62-.25h2.8c.07,0,.1-.04.1-.12v-2.62c0-.08-.03-.12-.1-.12h-1.93c-.22,0-.42-.08-.58-.24-.16-.16-.24-.36-.24-.59s.08-.42.24-.59.35-.24.58-.24h1.93c.07,0,.1-.03.1-.1v-2.46c0-.08-.03-.12-.1-.12h-2.24c-.22,0-.42-.08-.59-.24-.17-.16-.25-.36-.25-.59s.08-.43.25-.6.36-.25.59-.25h3.53s.03,0,.04-.02c0-.01,0-.03,0-.04-.56-.46-1.22-.91-1.98-1.35-.18-.11-.28-.26-.31-.47,0-.04-.01-.07-.01-.1,0-.17.06-.31.19-.42.19-.19.41-.29.66-.32.06,0,.12-.01.18-.01.19,0,.36.04.53.13.66.35,1.25.71,1.77,1.08.21.14.31.33.31.59,0,.21-.08.4-.23.54l-.34.32s-.02.04-.01.05c0,.02.02.02.04.02h2.21c.23,0,.43.08.59.25.16.17.24.37.24.6s-.08.43-.24.59c-.16.16-.36.24-.59.24h-2.2c-.08,0-.12.04-.12.12v2.46c0,.07.04.1.12.1h1.96c.22,0,.42.08.58.24.16.16.24.36.24.59s-.08.43-.24.59-.35.24-.58.24h-1.96c-.08,0-.12.04-.12.12v2.62Z" style="fill: #4b4c4e;"/>
        <path d="M167.61,170.31s0,.05.01.07.04.03.06.03h3.27c.23,0,.43.09.6.26.17.16.25.35.25.57,0,2.41-.12,4.83-.35,7.27-.13,1.35-.34,2.21-.63,2.59-.2.26-.4.45-.62.57-.22.12-.49.21-.81.26-.28.04-.67.06-1.17.06-.1,0-.21,0-.32-.01-.24,0-.46-.08-.64-.25s-.32-.37-.4-.62c0-.04-.02-.08-.04-.12-.02-.07-.03-.13-.03-.19,0-.11.03-.21.09-.31.1-.15.23-.22.41-.22h.03c.4.02.86.03,1.38.03.26,0,.48-.08.66-.25.21-.23.37-.95.48-2.14s.22-3.12.31-5.79c0-.07-.04-.1-.12-.1h-2.99c-.07,0-.12.03-.15.1-.24.55-.51,1.06-.81,1.55-.12.2-.29.31-.53.34-.05,0-.1.01-.15.01-.18,0-.34-.05-.48-.16-.11-.08-.23-.16-.38-.25-.02-.02-.04-.02-.06,0-.02.02-.03.03-.03.05v6.04c0,.23-.09.44-.26.61-.17.17-.37.26-.61.26h-3.03c-.08,0-.12.03-.12.1v.18c0,.22-.08.42-.23.57s-.35.23-.57.23-.42-.08-.57-.23-.23-.35-.23-.57v-9.46c0-.24.08-.45.25-.62s.37-.25.62-.25h.72c.08,0,.12-.04.13-.12.13-.47.23-.95.31-1.45.04-.23.15-.42.34-.57.15-.12.31-.18.5-.18.04,0,.08,0,.13.01l.23.03c.22.03.4.14.51.34.07.12.1.23.1.35,0,.08-.01.16-.04.25-.16.45-.31.86-.45,1.23,0,.02,0,.04,0,.07.01.03.04.04.07.04h1.35c.23,0,.44.08.61.25.17.17.26.37.26.62v1.45s0,.03.02.04c.02,0,.03,0,.04-.02.69-1.03,1.27-2.32,1.74-3.9.07-.23.21-.42.41-.54.14-.09.28-.13.44-.13.07,0,.14,0,.22.03.23.06.42.19.54.38.08.14.12.27.12.41,0,.08-.01.16-.04.23-.08.28-.19.61-.32.97ZM162.72,174.51c.07,0,.1-.04.1-.12v-2.2c0-.08-.03-.12-.1-.12h-2.17c-.08,0-.12.04-.12.12v2.2c0,.08.04.12.12.12h2.17ZM160.43,178.89c0,.07.04.1.12.1h2.17c.07,0,.1-.03.1-.1v-2.72c0-.08-.03-.12-.1-.12h-2.17c-.08,0-.12.04-.12.12v2.72ZM168.88,176.5c.09.15.13.29.13.44,0,.08,0,.15-.03.22-.06.23-.2.42-.41.54l-.04.03c-.13.08-.26.12-.4.12-.08,0-.16,0-.23-.03-.21-.07-.38-.21-.5-.41-.32-.57-.74-1.24-1.25-2.02-.08-.13-.12-.26-.12-.41,0-.06,0-.12.01-.18.05-.21.17-.38.35-.48.15-.08.29-.12.44-.12.07,0,.14,0,.21.01.21.05.39.17.53.35.54.76.97,1.41,1.3,1.93Z" style="fill: #4b4c4e;"/>
        <path d="M179.99,175.11c.12.18.18.37.18.59v.09c-.02.24-.11.45-.26.63-.1.12-.22.18-.37.18h-.09c-.19-.03-.32-.13-.4-.29-.13-.27-.26-.56-.4-.85,0,0-.02-.01-.04-.01-.02,0-.02,0-.02.03v5.79c0,.23-.08.43-.25.6s-.36.25-.59.25-.43-.08-.59-.25-.25-.37-.25-.6v-4.12s0-.01-.02-.01c-.02,0-.02,0-.02.01-.2.55-.41,1.05-.64,1.52-.09.16-.22.23-.39.22-.17,0-.3-.1-.37-.26l-.12-.23c-.11-.22-.16-.45-.16-.67,0-.27.08-.55.23-.82.59-1.03,1.07-2.3,1.46-3.84.02-.08.03-.15.03-.22v-.18c0-.07-.04-.1-.12-.1h-.69c-.22,0-.42-.08-.58-.24s-.24-.36-.24-.59.08-.42.24-.59c.16-.16.35-.24.58-.24h.69c.08,0,.12-.03.12-.1v-1.83c0-.23.08-.43.25-.6s.36-.25.59-.25.43.08.59.25.25.37.25.6v1.83c0,.07.04.1.12.1h.42c.22,0,.42.08.58.24s.24.35.24.58-.08.42-.24.58-.35.24-.58.24h-.42c-.08,0-.12.03-.12.1v.31c0,.08.02.15.07.21.28.39.72,1.04,1.32,1.96ZM188.67,177.72c.15.14.22.32.22.52s-.07.38-.22.52-.32.21-.51.21h-1.79s-.03,0-.04.03,0,.04.01.06c.53.6,1.23,1.04,2.09,1.33.19.06.31.18.37.37.02.06.03.12.03.18,0,.12-.04.22-.12.32-.02.03-.04.06-.07.09-.15.21-.34.37-.57.45-.12.04-.23.06-.34.06-.13,0-.25-.02-.37-.06-1.17-.49-2.07-1.29-2.7-2.42-.02-.02-.04-.03-.06-.03s-.03,0-.04.03c-.29.57-.72,1.05-1.27,1.46-.55.41-1.28.76-2.19,1.04-.09.03-.18.04-.26.04-.14,0-.27-.03-.41-.1-.21-.1-.39-.25-.53-.47-.07-.12-.1-.23-.1-.34,0-.13.04-.24.12-.34s.18-.16.29-.19c1.2-.32,2.05-.8,2.53-1.44,0-.02,0-.04,0-.06s-.02-.03-.04-.03h-2.02c-.21,0-.38-.07-.52-.21-.14-.14-.21-.32-.21-.52s.07-.38.21-.52.31-.21.52-.21h2.59c.07,0,.11-.04.12-.12.04-.24.07-.45.09-.63,0-.08-.02-.12-.09-.12h-1.89c-.24,0-.45-.08-.62-.25s-.25-.37-.25-.62v-3.22c0-.23.08-.44.25-.61.17-.17.37-.26.62-.26h5.77c.23,0,.44.09.61.26.17.17.26.37.26.61v3.22c0,.24-.09.45-.26.62s-.37.25-.61.25h-1.9c-.08,0-.12.04-.13.12-.02.15-.05.36-.09.63,0,.08.02.12.09.12h2.92c.2,0,.37.07.51.21ZM182.74,171.45c-.21,0-.4-.07-.54-.22s-.22-.33-.22-.54c0-.06-.03-.09-.1-.09h-.92c-.21,0-.38-.07-.52-.22-.14-.15-.21-.32-.21-.52s.07-.37.21-.52c.14-.15.31-.22.52-.22h.91c.08,0,.12-.03.12-.1v-.04c0-.23.08-.43.25-.6s.37-.25.6-.25.43.08.59.25c.16.17.24.37.24.6v.04c0,.07.04.1.12.1h1.52c.07,0,.1-.03.1-.1v-.03c0-.24.08-.45.26-.62s.37-.25.61-.25h.01c.23,0,.44.08.61.25s.26.37.26.62v.03c0,.07.04.1.12.1h.83c.2,0,.37.07.51.22s.22.32.22.52-.07.37-.22.52-.32.22-.51.22h-.85c-.07,0-.1.03-.1.09,0,.21-.07.4-.22.54s-.33.22-.54.22h-.22c-.21,0-.38-.07-.54-.22s-.23-.33-.23-.54c0-.06-.03-.09-.09-.09h-1.55c-.07,0-.1.03-.1.09,0,.21-.07.4-.22.54s-.32.22-.53.22h-.18ZM182.41,172.93c-.08,0-.12.04-.12.12v.44c0,.07.04.1.12.1h3.9c.08,0,.12-.03.12-.1v-.44c0-.08-.04-.12-.12-.12h-3.9ZM182.41,174.74c-.08,0-.12.04-.12.12v.44c0,.07.04.1.12.1h3.9c.08,0,.12-.03.12-.1v-.44c0-.08-.04-.12-.12-.12h-3.9Z" style="fill: #4b4c4e;"/>
        <path d="M197.04,175.45c.13.2.19.41.19.63,0,.24-.07.47-.22.67-.09.13-.21.19-.35.19-.02,0-.04,0-.06-.01-.17,0-.29-.09-.37-.25-.15-.31-.3-.63-.45-.95,0,0-.02-.01-.03,0s-.01.01-.01.02v5.55c0,.22-.08.42-.24.57-.16.16-.35.23-.58.23s-.42-.08-.57-.23-.23-.35-.23-.57v-4.69s0-.02-.01-.02c0,0-.01,0-.01,0-.28.81-.58,1.51-.89,2.11-.08.15-.2.22-.35.22h-.04c-.18-.02-.3-.11-.38-.26,0,0-.01-.02-.01-.03-.13-.24-.19-.48-.19-.72,0-.25.07-.51.22-.78.67-1.22,1.18-2.62,1.52-4.19.02-.07,0-.1-.09-.1h-.73c-.22,0-.42-.08-.58-.24-.16-.16-.24-.35-.24-.58s.08-.42.24-.58c.16-.16.35-.24.58-.24h.88c.07,0,.1-.04.1-.12v-2.17c0-.22.08-.42.23-.57s.35-.23.57-.23.42.08.58.23c.16.16.24.35.24.57v2.17c0,.08.03.12.1.12h.57c.22,0,.42.08.58.24.16.16.24.35.24.58s-.08.42-.24.58c-.16.16-.35.24-.58.24h-.57c-.07,0-.1.04-.1.12v.44c0,.07.02.13.06.19.27.38.69,1,1.25,1.86ZM199.43,177.66c.16-.03.3-.01.44.04l.28.1c.14.06.24.15.3.29.06.13.07.27.02.42-.48,1.27-1.25,2.27-2.31,2.99-.12.08-.24.12-.38.12-.06,0-.12,0-.18-.01-.2-.05-.36-.16-.5-.32-.09-.11-.13-.23-.13-.37,0-.04,0-.08.01-.12.03-.18.12-.32.28-.42.57-.37,1.03-.84,1.38-1.42.02-.02.02-.04,0-.06-.02-.02-.03-.03-.05-.03h-.92c-.17,0-.31-.06-.42-.18s-.18-.26-.18-.42.06-.31.18-.42.26-.18.42-.18h1.76ZM204.12,176.88c.17-.16.37-.24.6-.26h.07c.21,0,.39.06.56.18.16.12.23.28.23.48s-.08.37-.25.48c-.55.38-1.03.71-1.45.98-.07.04-.07.08-.01.13.49.49,1.04.89,1.64,1.2.18.1.28.24.32.44.02.05.03.09.03.13,0,.15-.05.28-.15.4-.16.19-.35.31-.57.37-.07.02-.14.03-.21.03-.16,0-.3-.04-.44-.13-.74-.49-1.4-1.12-1.96-1.89,0-.02-.02-.03-.04-.02-.02,0-.03.02-.03.04v1.05c0,.39-.04.69-.13.9s-.26.37-.51.49c-.29.14-.73.21-1.3.23h-.03c-.2,0-.38-.06-.54-.19-.17-.14-.28-.32-.35-.54-.02-.06-.03-.12-.03-.18,0-.11.03-.21.09-.29.1-.15.24-.22.42-.22.24,0,.41,0,.48-.01.1,0,.16-.01.2-.04.03-.03.05-.09.05-.18v-3.19c0-.08-.04-.12-.12-.12h-1.74c-.17,0-.31-.06-.42-.18s-.18-.26-.18-.43.06-.32.18-.43.26-.18.42-.18h2.89s.02,0,.02-.01,0-.02,0-.03c-.53-.21-1.02-.39-1.46-.54-.13-.05-.21-.14-.25-.26s0-.24.09-.34c0,0,0-.02,0-.04,0-.01-.01-.02-.02-.02h-2.33c-.19,0-.34-.06-.47-.19s-.19-.28-.19-.46.06-.33.19-.46.28-.19.47-.19h2.8c.08,0,.12-.03.12-.1v-.37c0-.08-.04-.12-.12-.12h-1.89c-.17,0-.31-.06-.42-.18s-.18-.26-.18-.42.06-.31.18-.43.26-.18.42-.18h1.89c.08,0,.12-.03.12-.1v-.34c0-.08-.04-.12-.12-.12h-2.4c-.18,0-.33-.06-.45-.18-.12-.12-.18-.27-.18-.44s.06-.32.18-.45.27-.19.45-.19h.85s.04,0,.05-.03c.02-.02.02-.04,0-.06-.08-.16-.17-.32-.26-.5-.06-.1-.09-.2-.09-.29,0-.07.01-.13.04-.19.06-.18.17-.29.34-.35.1-.04.2-.06.31-.06.09,0,.18.01.28.04.2.06.35.18.45.35.14.21.25.4.35.59.05.09.06.18.02.28-.04.1-.1.17-.2.21h0s2.33.01,2.33.01h.01c-.07-.03-.12-.08-.15-.15s-.02-.13.01-.19c.1-.18.2-.37.29-.57.11-.21.27-.37.48-.47.13-.07.26-.1.4-.1.09,0,.17.01.25.04.2.06.33.18.4.37.02.07.03.13.03.19,0,.12-.04.22-.12.32-.12.17-.23.32-.35.47,0,.02,0,.04,0,.06s.02.03.04.03h1.11c.18,0,.32.06.45.19s.18.28.18.45-.06.32-.18.44c-.12.12-.27.18-.45.18h-2.56c-.08,0-.12.04-.12.12v.34c0,.07.04.1.12.1h2.23c.17,0,.31.06.42.18s.18.27.18.43-.06.31-.18.42-.26.18-.42.18h-2.23c-.08,0-.12.04-.12.12v.37c0,.07.04.1.12.1h2.8c.18,0,.33.06.45.19s.19.28.19.46-.06.33-.19.46-.28.19-.45.19h-2.97s-.02,0-.02.01c0,0,0,.02,0,.03.44.16.82.31,1.14.45.17.07.26.2.29.38,0,.04.01.07.01.1,0,.14-.05.26-.15.37-.14.16-.31.25-.51.28-.06,0-.12.01-.18.01-.15,0-.28-.03-.41-.09l-.06-.03s-.04,0-.06,0c-.02.01-.03.03-.03.05v.54c0,.08.02.15.06.22.11.23.25.48.42.73.04.06.09.07.15.03.36-.29.7-.6,1.03-.91Z" style="fill: #4b4c4e;"/>
        <path d="M212.32,172.69c1.35,0,2.43,1.09,2.43,2.43s-1.08,2.43-2.43,2.43-2.43-1.09-2.43-2.43,1.09-2.43,2.43-2.43ZM212.32,176.47c.75,0,1.35-.6,1.35-1.35s-.6-1.35-1.35-1.35-1.35.6-1.35,1.35.62,1.35,1.35,1.35Z" style="fill: #4b4c4e;"/>
      </g>
      <g>
        <path d="M115.66,63.26h129.94c10.22,0,18.5-8.28,18.5-18.5v-25.51c0-10.22-8.28-18.5-18.5-18.5H45.31c-10.22,0-18.5,8.28-18.5,18.5v25.51c0,10.22,8.28,18.5,18.5,18.5h29.38l33.02,14.07c1.81.77,3.66-1,2.98-2.84l-4.16-11.23h9.13Z" style="fill: #fff; stroke: #1d7068; stroke-miterlimit: 10; stroke-width: 1.5px;"/>
        <g>
          <path d="M63.62,28.54c.14-.39.4-.7.77-.9.24-.15.5-.23.77-.23.12,0,.25.02.39.05l.18.05c.41.1.71.33.9.7.12.21.18.42.18.64,0,.16-.03.31-.08.46-1.01,2.77-2.33,5.25-3.95,7.45-.07.1-.09.21-.05.33.79,1.89,1.59,2.84,2.4,2.84.5,0,.83-1.03,1.01-3.09.02-.31.16-.52.44-.64.12-.05.23-.08.33-.08.17,0,.33.05.46.15.05.03.1.07.16.1.4.26.7.58.93.98.17.29.26.6.26.93,0,.1,0,.21-.03.31-.28,1.75-.7,2.95-1.28,3.58-.58.64-1.42.95-2.54.95-1.7,0-3.16-1.11-4.38-3.33-.07-.1-.15-.11-.23-.03-.95.96-1.96,1.83-3.04,2.6-.28.19-.57.28-.88.28-.1,0-.2,0-.28-.03-.43-.07-.78-.27-1.06-.59-.09-.1-.18-.21-.28-.31-.21-.24-.31-.51-.31-.8v-.18c.05-.38.24-.68.57-.9,1.46-.95,2.78-2.06,3.95-3.35.09-.09.11-.19.08-.31-.79-2.73-1.38-6.15-1.75-10.26,0-.14-.07-.21-.21-.21h-7.27c-.12,0-.18.07-.18.21v2.42c0,.14.06.21.18.21h4.82c.41,0,.76.15,1.06.44.27.29.41.64.41,1.06,0,2.32-.08,4.32-.23,5.98-.1,1.2-.3,2-.59,2.37-.41.57-1.02.92-1.83,1.06-.34.05-.85.08-1.52.08-.41,0-.78-.14-1.11-.41-.33-.29-.55-.65-.67-1.08,0-.02,0-.03-.03-.05-.02-.1-.03-.21-.03-.31,0-.21.06-.4.18-.59.19-.27.44-.41.75-.41h.03c.31.02.57.03.77.03.36,0,.62-.1.77-.31.22-.33.38-1.92.46-4.77,0-.14-.07-.21-.21-.21h-3.04c-.12,0-.19.07-.21.21-.14,4.59-.83,8.16-2.06,10.7-.16.34-.43.54-.83.59-.07.02-.14.03-.21.03-.31,0-.58-.11-.83-.33-.1-.07-.21-.15-.31-.23-.33-.26-.54-.59-.64-1.01-.03-.15-.05-.31-.05-.46,0-.24.05-.49.15-.75,1-2.22,1.5-5.5,1.5-9.85v-6.19c0-.41.15-.77.44-1.07.29-.3.65-.45,1.08-.45h9.05c.12,0,.18-.06.18-.18-.05-1.27-.08-2.02-.08-2.24,0-.4.15-.74.44-1.03.29-.29.64-.44,1.06-.44h.26c.43,0,.79.15,1.08.44.29.29.44.65.44,1.08,0,.67.02,1.4.05,2.19,0,.12.07.18.21.18h3.66s.03-.01.05-.04c.02-.03,0-.05-.03-.06-.55-.45-1.25-.94-2.09-1.47-.29-.19-.46-.46-.49-.8v-.13c0-.28.1-.52.31-.72.28-.29.61-.46,1.01-.52.09-.02.17-.03.26-.03.31,0,.59.08.85.23.7.41,1.36.83,1.96,1.24.36.26.54.62.54,1.08,0,.38-.14.71-.41.98l-.08.1s-.04.04-.03.08c.02.04.04.05.08.05h1.03c.41,0,.77.15,1.07.45s.45.66.45,1.07v.08c0,.43-.15.79-.45,1.08-.3.29-.66.44-1.07.44h-6.45c-.12,0-.18.07-.18.21.24,2.46.58,4.74,1.01,6.83,0,.03.02.06.05.06.03,0,.06,0,.08-.04.79-1.36,1.45-2.78,1.99-4.25Z" style="fill: #1d7068;"/>
          <path d="M74.71,35.81c.1-.4.33-.7.67-.9.24-.17.5-.26.77-.26.09,0,.19.02.31.05.4.09.7.29.9.62.14.22.21.46.21.72,0,.12-.02.24-.05.36-.43,1.56-.95,2.93-1.55,4.1-.19.34-.47.54-.85.59-.07.02-.15.03-.23.03-.29,0-.56-.09-.8-.28-.31-.24-.51-.56-.59-.95-.03-.12-.05-.24-.05-.36,0-.26.06-.51.18-.75.43-.86.79-1.85,1.08-2.96ZM85,21.66c.4,0,.74.14,1.02.43.28.28.43.62.43,1.02s-.14.73-.43,1c-.28.28-.62.41-1.02.41h-9.98c-.4,0-.73-.14-1.01-.41s-.41-.61-.41-1,.14-.74.41-1.02c.28-.28.61-.43,1.01-.43h3.22c.12,0,.18-.06.18-.18v-1.26c0-.43.15-.79.45-1.08.3-.29.66-.44,1.07-.44h.15c.43,0,.79.15,1.08.44.29.29.44.65.44,1.08v1.26c0,.12.07.18.21.18h3.17ZM85.34,31.89c0,.43-.15.79-.45,1.08-.3.29-.66.44-1.07.44h-1.93c-.14,0-.21.07-.21.21v6.55c0,.71-.08,1.25-.25,1.65-.16.4-.46.71-.89.95-.48.26-1.15.41-2.01.46h-.1c-.38,0-.72-.12-1.03-.36-.34-.28-.58-.63-.72-1.06-.03-.12-.05-.24-.05-.36,0-.19.06-.38.18-.57.19-.29.46-.44.8-.44h.64c.17,0,.29-.03.35-.08.06-.05.09-.15.09-.28v-6.47c0-.14-.07-.21-.21-.21h-2.14c-.41,0-.77-.15-1.07-.44-.3-.29-.45-.65-.45-1.08v-4.38c0-.41.15-.77.45-1.07s.66-.45,1.07-.45h7.48c.41,0,.77.15,1.07.45s.45.66.45,1.07v4.38ZM77.86,28.57c-.12,0-.18.06-.18.18v1.88c0,.14.06.21.18.21h4.23c.14,0,.21-.07.21-.21v-1.88c0-.12-.07-.18-.21-.18h-4.23ZM94.67,40.09h.52c.22,0,.37-.05.44-.15.14-.14.21-.34.23-.62.05-.4.08-.95.08-1.68.02-.26.14-.45.37-.57s.47-.12.71,0c.34.19.62.45.83.77.19.29.28.6.28.93,0,.96-.09,1.77-.28,2.42-.14.6-.44,1.07-.9,1.42-.4.31-.93.46-1.6.46h-1.55c-.83,0-1.45-.23-1.88-.7-.24-.24-.4-.54-.49-.89s-.13-.94-.13-1.77v-5.03s0-.03-.01-.03h-.04c-.76,3.06-1.99,5.6-3.71,7.61-.28.33-.63.5-1.06.52h-.1c-.4,0-.75-.11-1.06-.34-.07-.05-.13-.09-.18-.13-.31-.21-.49-.5-.54-.88-.02-.07-.03-.13-.03-.18,0-.31.11-.58.34-.83.45-.5.85-1.03,1.21-1.6.02-.02.01-.04-.01-.06-.03-.03-.05-.03-.06-.01l-.85.31c-.17.05-.33.08-.49.08-.21,0-.41-.05-.62-.15-.36-.19-.59-.47-.7-.85-.21-.64-.44-1.29-.7-1.96-.05-.16-.08-.31-.08-.46,0-.17.03-.34.1-.52.14-.31.38-.52.72-.64.16-.05.31-.08.46-.08.19,0,.38.03.57.1.34.15.58.4.72.72.46,1.07.83,2.07,1.08,3.02,0,.04.02.06.05.06.03,0,.07,0,.1-.04,1.55-2.6,2.45-5.92,2.71-9.98,0-.14-.06-.21-.18-.21h-1.24c-.41,0-.76-.15-1.04-.44-.28-.29-.42-.64-.42-1.06s.14-.76.42-1.04.63-.43,1.04-.43h1.31c.12,0,.18-.07.18-.21v-4.82c0-.41.15-.76.44-1.06.29-.29.65-.44,1.07-.44s.78.15,1.07.44c.29.29.44.64.44,1.06v4.82c0,.14.07.21.21.21h3.89c.41,0,.76.14,1.06.43.29.28.44.63.44,1.04s-.15.77-.44,1.06c-.29.29-.64.44-1.06.44h-3.97c-.12,0-.19.07-.21.21l-.05.72c0,.12.06.18.18.18h.36c.41,0,.77.15,1.07.45s.45.66.45,1.07v8.72c0,.19.03.32.1.39.1.12.24.18.41.18ZM97.2,22.12c.12.21.18.42.18.64,0,.16-.04.31-.1.46-.14.38-.4.66-.77.85-.19.09-.38.13-.57.13-.15,0-.32-.03-.49-.1-.36-.14-.63-.39-.8-.75-.34-.67-.73-1.32-1.16-1.96-.14-.19-.21-.4-.21-.62,0-.09,0-.18.03-.28.09-.33.28-.56.59-.7.24-.12.49-.18.75-.18.12,0,.24.02.36.05.39.07.71.26.95.57.48.62.89,1.25,1.24,1.88Z" style="fill: #1d7068;"/>
          <path d="M126.29,34.82c.27.27.4.59.4.97s-.13.7-.4.97-.59.4-.97.4h-7.17c-.05,0-.08.02-.09.05,0,.03,0,.07.01.1,1.53,1.6,4.08,2.6,7.66,3.02.31.03.52.2.64.49.07.14.1.26.1.36,0,.17-.05.33-.16.49-.09.12-.16.24-.23.36-.24.4-.57.71-.98.93-.29.15-.6.23-.93.23-.1,0-.22,0-.34-.03-2.22-.38-4.05-1-5.5-1.87-1.45-.87-2.64-2.06-3.57-3.57-.02-.03-.05-.05-.09-.05s-.07.03-.09.08c-.69,1.29-1.76,2.37-3.21,3.24s-3.48,1.56-6.07,2.08c-.12.02-.23.03-.34.03-.29,0-.58-.08-.85-.23-.4-.22-.7-.53-.9-.93-.04-.05-.07-.11-.1-.18-.1-.21-.15-.41-.13-.62.02-.21.09-.39.23-.55.14-.16.32-.26.54-.3,1.91-.31,3.43-.71,4.56-1.19,1.13-.48,2.01-1.07,2.63-1.78.02-.03.02-.07,0-.1-.02-.04-.04-.05-.08-.05h-6.78c-.38,0-.7-.13-.97-.4-.27-.27-.4-.59-.4-.97s.13-.7.4-.97.59-.4.97-.4h7.99c.14,0,.21-.06.23-.18.07-.33.14-.74.21-1.24.02-.12-.03-.18-.15-.18h-8.07c-.4,0-.73-.14-1.01-.41-.28-.27-.41-.61-.41-.99s.14-.72.41-.99c.27-.28.61-.41,1.01-.41h8.48c.12,0,.18-.07.18-.21v-.95c0-.12-.06-.18-.18-.18h-6.29c-.38,0-.7-.13-.95-.39s-.39-.57-.39-.94.13-.68.39-.94.58-.39.95-.39h6.29c.12,0,.18-.06.18-.18v-.95c0-.14-.06-.21-.18-.21h-7.45c-.38,0-.71-.13-.98-.4-.28-.27-.41-.59-.41-.98s.14-.71.41-.98c.27-.27.6-.4.98-.4h2.99c.05,0,.09-.02.1-.06.02-.04.02-.08,0-.12-.12-.27-.27-.54-.44-.8-.12-.21-.18-.42-.18-.65,0-.12.02-.25.05-.39.1-.36.33-.6.67-.72.24-.1.49-.15.75-.15.17,0,.35.02.54.05.43.12.77.36,1.03.72.31.45.57.88.77,1.29.07.15.07.31.01.46-.06.16-.16.26-.3.31-.02.02-.02.04,0,.05h6.39v-.03c-.17-.05-.28-.16-.33-.31-.05-.16-.04-.3.05-.44.26-.38.5-.77.72-1.19.22-.38.53-.66.93-.85.26-.12.52-.18.8-.18.14,0,.28.02.44.05l.44.1c.34.09.58.3.72.65.05.14.08.27.08.39,0,.21-.07.4-.21.57-.26.34-.52.71-.8,1.08-.04.03-.04.07-.03.1.02.04.05.05.1.05h3.3c.38,0,.71.13.98.4.28.27.41.59.41.98s-.14.71-.41.98c-.27.27-.6.4-.98.4h-7.56c-.14,0-.21.07-.21.21v.95c0,.12.07.18.21.18h6.58c.36,0,.67.13.93.39s.39.57.39.94-.13.68-.39.94-.57.39-.93.39h-6.58c-.14,0-.21.06-.21.18v.95c0,.14.07.21.21.21h8.59c.4,0,.73.14,1.01.41.27.28.41.61.41.99s-.14.72-.41.99-.61.41-1.01.41h-8.9c-.14,0-.21.06-.23.18-.04.41-.09.83-.18,1.24-.02.12.03.18.15.18h9.49c.38,0,.7.13.97.4Z" style="fill: #1d7068;"/>
          <path d="M139.05,23.93c.98,0,1.62.03,1.91.08.26.03.47.16.64.37s.25.46.23.73c-.33,4.26-1.02,7.77-2.09,10.52-.05.12-.03.22.08.31.65.53,1.21,1.03,1.68,1.5.34.33.52.73.52,1.21,0,.43-.13.81-.39,1.13l-.08.1c-.22.29-.52.45-.9.46h-.05c-.36,0-.67-.14-.93-.41-.34-.36-.75-.77-1.21-1.21-.1-.08-.19-.08-.26.03-.96,1.5-2.12,2.77-3.46,3.82-.24.17-.5.26-.77.26-.1,0-.21,0-.31-.03-.41-.09-.74-.3-.98-.65-.02-.03-.04-.06-.05-.08-.19-.24-.28-.51-.28-.8,0-.09,0-.16.03-.23.05-.38.23-.69.54-.93,1.12-.84,2.09-1.96,2.91-3.35.07-.1.05-.2-.05-.28-.27-.22-.67-.52-1.19-.9-.05-.03-.09-.02-.1.05-.05.17-.16.3-.33.37-.17.08-.34.07-.52-.01l-.62-.31c-.38-.21-.65-.5-.83-.88-.1-.24-.15-.49-.15-.75,0-.15.02-.31.05-.46.45-1.77.94-3.97,1.47-6.6.03-.12-.02-.18-.16-.18h-.41c-.4,0-.74-.14-1.02-.43-.28-.28-.43-.62-.43-1.02s.14-.73.43-1.02.62-.42,1.02-.42h.98c.12,0,.2-.06.23-.18.24-1.34.45-2.54.62-3.58.07-.39.27-.72.59-.98.29-.22.62-.33.98-.33h.13c.41.03.74.21.98.52.19.26.28.53.28.83,0,.07,0,.15-.03.26-.19,1.03-.4,2.13-.64,3.3-.02.12.04.18.18.18h1.75ZM138.74,27.02c.02-.14-.04-.21-.18-.21h-1.88c-.14,0-.22.06-.23.18-.29,1.46-.69,3.27-1.19,5.42-.03.12,0,.21.13.28.84.57,1.38.94,1.62,1.11.1.09.18.06.23-.08.67-1.84,1.17-4.07,1.5-6.71ZM154.57,29.14c.41,0,.76.15,1.04.44.28.29.42.64.42,1.04s-.14.75-.42,1.04c-.28.29-.63.44-1.04.44h-4.15c-.12,0-.18.06-.18.18v7.56c0,.83-.09,1.46-.28,1.9-.19.44-.53.78-1.03,1.02-.69.31-1.65.49-2.89.54-.04.02-.06.03-.08.03-.41,0-.78-.13-1.11-.39-.36-.28-.62-.64-.77-1.08-.03-.07-.06-.15-.08-.23-.05-.12-.08-.25-.08-.39,0-.17.05-.35.15-.54.19-.27.46-.41.8-.41h.03c.45.02.82.03,1.11.03.24,0,.42,0,.54-.03.22,0,.37-.03.45-.09.08-.06.12-.18.12-.37v-7.53c0-.12-.06-.18-.18-.18h-3.92c-.4,0-.74-.15-1.03-.44-.29-.29-.44-.64-.44-1.04s.15-.75.44-1.04c.29-.29.64-.44,1.03-.44h3.92c.12,0,.18-.06.18-.18v-2.01c0-.24.09-.45.26-.62.17-.17.38-.26.62-.26.07,0,.13-.03.18-.08.83-.86,1.61-1.83,2.35-2.91.02-.03.02-.07,0-.1-.02-.03-.04-.05-.08-.05h-6.58c-.4,0-.74-.14-1.02-.43-.28-.28-.43-.63-.43-1.03s.14-.75.43-1.03c.28-.28.62-.43,1.02-.43h8.79c.05,0,.1,0,.16-.03.12-.04.23-.05.33-.05.26,0,.49.08.7.23l.57.44c.29.22.46.51.52.85.02.09.03.16.03.23,0,.28-.09.53-.26.75-1.46,2.03-2.91,3.72-4.33,5.08-.09.09-.13.19-.13.31v1.13c0,.12.06.18.18.18h4.15Z" style="fill: #1d7068;"/>
          <path d="M174.44,38.73c0,.14.07.21.21.21h8.51c.41,0,.77.15,1.07.45s.45.66.45,1.07v.03c0,.41-.15.77-.45,1.07s-.66.45-1.07.45h-20.71c-.41,0-.77-.15-1.07-.45s-.45-.66-.45-1.07v-.03c0-.41.15-.77.45-1.07s.66-.45,1.07-.45h8.48c.14,0,.21-.07.21-.21v-4.9c0-.14-.07-.21-.21-.21h-5.44c-.41,0-.77-.15-1.07-.45-.3-.3-.45-.66-.45-1.07s.15-.77.45-1.07.66-.45,1.07-.45h5.44c.14,0,.21-.07.21-.21v-4.23c0-.14-.07-.21-.21-.21h-5.05c-.14,0-.24.06-.31.18-.5.93-.98,1.74-1.44,2.42-.24.34-.58.54-1.01.59-.09.02-.16.03-.23.03-.34,0-.65-.09-.93-.28-.09-.07-.17-.14-.26-.21-.33-.21-.52-.51-.59-.9-.02-.09-.03-.17-.03-.26,0-.27.09-.54.26-.8.64-.86,1.23-1.86,1.78-2.99.6-1.24,1.11-2.51,1.52-3.82.12-.41.37-.73.75-.95.24-.15.51-.23.8-.23.12,0,.24.02.36.05l.26.05c.41.09.72.31.93.67.14.22.21.45.21.67,0,.16-.03.3-.08.44-.21.62-.45,1.32-.72,2.09-.02.05-.01.09.01.13.03.04.06.05.12.05h3.69c.12,0,.18-.06.18-.18v-3.04c0-.41.15-.77.45-1.07.3-.3.66-.45,1.07-.45h.26c.41,0,.77.15,1.07.45.3.3.45.66.45,1.07v3.04c0,.12.07.18.21.18h7.17c.41,0,.77.15,1.07.45s.45.66.45,1.07v.03c0,.41-.15.77-.45,1.07s-.66.45-1.07.45h-7.17c-.14,0-.21.07-.21.21v4.23c0,.14.07.21.21.21h6.16c.41,0,.77.15,1.07.45.3.3.45.66.45,1.07s-.15.77-.45,1.07-.66.45-1.07.45h-6.16c-.14,0-.21.07-.21.21v4.9Z" style="fill: #1d7068;"/>
          <path d="M194.9,28.05c.38.19.61.49.7.9.03.1.05.21.05.33,0,.28-.09.53-.26.77l-.05.08c-.22.34-.54.56-.95.65-.12.03-.24.05-.36.05-.27,0-.54-.08-.8-.23-.62-.38-1.41-.83-2.37-1.37-.34-.17-.55-.45-.62-.83-.04-.1-.05-.2-.05-.28,0-.26.09-.5.26-.72.24-.34.56-.57.95-.67.15-.03.3-.05.44-.05.26,0,.51.06.75.18.96.48,1.74.88,2.32,1.19ZM193.4,41.77c-.22.34-.53.55-.93.62h-.23c-.31,0-.58-.09-.83-.28l-.28-.23c-.33-.28-.52-.62-.59-1.03-.02-.09-.03-.17-.03-.26,0-.33.09-.64.28-.93,1.22-1.82,2.37-3.73,3.46-5.72.19-.33.47-.52.85-.59.07-.02.14-.03.21-.03.29,0,.55.1.77.31l.05.05c.34.31.55.69.62,1.13.03.12.05.24.05.36,0,.31-.08.61-.23.9-1.07,2.03-2.12,3.93-3.17,5.7ZM196.18,20.88c.36.21.58.51.67.9.02.1.03.21.03.31,0,.28-.09.54-.28.8l-.08.08c-.24.34-.57.55-.98.62-.1.02-.21.03-.31.03-.31,0-.6-.09-.88-.26-.55-.34-1.31-.79-2.27-1.34-.34-.19-.55-.47-.62-.85-.02-.09-.03-.17-.03-.26,0-.27.09-.52.26-.75.26-.33.59-.54,1.01-.64.14-.02.27-.03.39-.03.27,0,.54.06.8.18.91.48,1.68.89,2.29,1.21ZM213.59,26.79c.29.29.44.64.44,1.06s-.14.77-.44,1.06-.64.44-1.06.44h-5c-.14,0-.21.07-.21.21v2.94c0,.12.07.18.21.18h3.66c.41,0,.77.15,1.07.45s.45.66.45,1.07v7.53c0,.41-.15.76-.44,1.06-.29.29-.64.44-1.06.44h-.64c-.24,0-.44-.08-.61-.25s-.24-.37-.24-.61c0-.07-.04-.1-.1-.1h-7.71c-.09,0-.13.04-.13.13,0,.26-.09.48-.28.67-.19.19-.41.28-.67.28h-.46c-.38,0-.71-.14-.99-.41-.29-.28-.43-.61-.43-1.01v-7.74c0-.41.15-.77.45-1.07s.66-.45,1.07-.45h3.69c.12,0,.18-.06.18-.18v-2.94c0-.14-.06-.21-.18-.21h-5.34c-.41,0-.77-.15-1.06-.44-.29-.29-.44-.64-.44-1.06s.15-.76.44-1.06c.29-.29.65-.44,1.06-.44h5.34c.12,0,.18-.07.18-.21v-2.71c0-.12-.06-.17-.18-.16-1.05.16-2.24.3-3.56.44h-.15c-.33,0-.63-.09-.9-.28-.33-.24-.56-.56-.7-.95-.04-.12-.05-.25-.05-.39,0-.19.05-.38.15-.57.17-.31.44-.48.8-.52,3.85-.45,7.01-1.06,9.46-1.83.26-.09.52-.13.77-.13.19,0,.38.03.57.08.46.1.85.32,1.16.64l.31.31c.19.19.28.4.28.64,0,.09,0,.17-.03.26-.09.34-.29.57-.62.67-1.22.4-2.61.74-4.15,1.03-.12.02-.18.09-.18.23v3.22c0,.14.07.21.21.21h5c.41,0,.76.15,1.06.44ZM209.54,39.42c.12,0,.18-.07.18-.21v-3.51c0-.12-.06-.18-.18-.18h-7.55c-.14,0-.21.06-.21.18v3.51c0,.14.07.21.21.21h7.55Z" style="fill: #1d7068;"/>
          <path d="M221.9,41.41c-.69,0-1.26-.24-1.71-.72-.46-.48-.68-1.08-.68-1.8s.23-1.32.68-1.8c.46-.48,1.03-.72,1.71-.72s1.26.24,1.73.72c.46.48.7,1.08.7,1.8s-.23,1.32-.7,1.8c-.46.48-1.04.72-1.73.72Z" style="fill: #1d7068;"/>
          <path d="M233.11,41.41c-.69,0-1.26-.24-1.71-.72-.46-.48-.68-1.08-.68-1.8s.23-1.32.68-1.8c.46-.48,1.03-.72,1.71-.72s1.26.24,1.73.72c.46.48.7,1.08.7,1.8s-.23,1.32-.7,1.8c-.46.48-1.04.72-1.73.72Z" style="fill: #1d7068;"/>
          <path d="M244.31,41.41c-.69,0-1.26-.24-1.71-.72-.46-.48-.68-1.08-.68-1.8s.23-1.32.68-1.8c.46-.48,1.03-.72,1.71-.72s1.26.24,1.73.72c.46.48.7,1.08.7,1.8s-.23,1.32-.7,1.8c-.46.48-1.04.72-1.73.72Z" style="fill: #1d7068;"/>
        </g>
      </g>
    </g>
  </g>
</svg>