<?xml version="1.0" encoding="UTF-8"?>
<svg id="_圖層_2" data-name="圖層 2" xmlns="http://www.w3.org/2000/svg" width="266.42" height="120.49" viewBox="0 0 266.42 120.49">
  <g id="_設計" data-name="設計">
    <g>
      <rect x=".75" y=".75" width="264.92" height="118.99" rx="25" ry="25" style="fill: #fff; stroke: #1d7068; stroke-linecap: round; stroke-linejoin: round; stroke-width: 1.5px;"/>
      <g>
        <g>
          <path d="M93.7,62.02h-1.89l-.75-1.95h-3.43l-.71,1.95h-1.84l3.35-8.59h1.83l3.44,8.59ZM90.51,58.62l-1.18-3.19-1.16,3.19h2.34Z" style="fill: #1d7068;"/>
          <path d="M95.87,62.02v-8.52h1.73v7.07h4.31v1.45h-6.05Z" style="fill: #1d7068;"/>
          <path d="M104.4,62.02v-8.52h1.73v7.07h4.31v1.45h-6.05Z" style="fill: #1d7068;"/>
          <path d="M121.19,58.86v-1.45h3.74v3.42c-.36.35-.89.66-1.58.93s-1.39.4-2.09.4c-.9,0-1.68-.19-2.35-.57s-1.17-.92-1.51-1.62-.5-1.46-.5-2.29c0-.89.19-1.69.56-2.38s.92-1.23,1.65-1.6c.55-.29,1.24-.43,2.06-.43,1.07,0,1.9.22,2.5.67s.99,1.07,1.16,1.85l-1.72.32c-.12-.42-.35-.75-.68-1s-.75-.37-1.25-.37c-.76,0-1.36.24-1.81.72s-.67,1.19-.67,2.14c0,1.02.23,1.78.68,2.29s1.05.76,1.78.76c.36,0,.73-.07,1.09-.21s.68-.32.94-.52v-1.09h-1.99Z" style="fill: #1d7068;"/>
          <path d="M127.38,57.77c0-.88.13-1.61.39-2.2.2-.44.46-.83.8-1.18s.71-.61,1.11-.77c.54-.23,1.15-.34,1.85-.34,1.27,0,2.28.39,3.04,1.18s1.14,1.88,1.14,3.28-.38,2.47-1.13,3.25-1.76,1.17-3.02,1.17-2.29-.39-3.05-1.17-1.13-1.85-1.13-3.22ZM129.17,57.71c0,.97.22,1.71.67,2.21s1.02.75,1.71.75,1.26-.25,1.7-.75.67-1.25.67-2.24-.22-1.72-.65-2.2-1-.73-1.72-.73-1.29.25-1.73.74-.66,1.23-.66,2.22Z" style="fill: #1d7068;"/>
          <path d="M137.92,57.77c0-.88.13-1.61.39-2.2.2-.44.46-.83.8-1.18s.71-.61,1.11-.77c.54-.23,1.15-.34,1.85-.34,1.27,0,2.28.39,3.04,1.18s1.14,1.88,1.14,3.28-.38,2.47-1.13,3.25-1.76,1.17-3.02,1.17-2.29-.39-3.05-1.17-1.13-1.85-1.13-3.22ZM139.7,57.71c0,.97.22,1.71.67,2.21s1.02.75,1.71.75,1.26-.25,1.7-.75.67-1.25.67-2.24-.22-1.72-.65-2.2-1-.73-1.72-.73-1.29.25-1.73.74-.66,1.23-.66,2.22Z" style="fill: #1d7068;"/>
          <path d="M148.79,53.43h3.17c.71,0,1.26.05,1.63.16.5.15.94.41,1.29.79s.63.84.82,1.39.28,1.23.28,2.03c0,.71-.09,1.32-.26,1.83-.21.62-.52,1.13-.92,1.52-.3.29-.71.52-1.22.69-.38.12-.89.18-1.54.18h-3.26v-8.59ZM150.53,54.88v5.69h1.29c.48,0,.83-.03,1.05-.08.28-.07.51-.19.7-.36s.34-.44.45-.83.18-.91.18-1.57-.06-1.17-.18-1.53-.28-.63-.49-.83-.48-.33-.8-.4c-.24-.05-.72-.08-1.42-.08h-.78Z" style="fill: #1d7068;"/>
          <path d="M158.61,62.02v-8.59h1.73v8.59h-1.73Z" style="fill: #1d7068;"/>
          <path d="M163.2,62.02v-8.59h6.37v1.45h-4.63v1.9h4.31v1.45h-4.31v2.34h4.8v1.45h-6.53Z" style="fill: #1d7068;"/>
          <path d="M171.96,59.22l1.69-.16c.1.57.31.98.62,1.25s.73.4,1.26.4c.56,0,.98-.12,1.26-.35s.42-.51.42-.83c0-.2-.06-.38-.18-.52s-.33-.27-.62-.37c-.2-.07-.67-.2-1.39-.38-.93-.23-1.58-.51-1.96-.85-.53-.47-.79-1.05-.79-1.73,0-.44.12-.85.37-1.23s.61-.67,1.07-.87,1.03-.3,1.69-.3c1.08,0,1.89.24,2.43.71s.83,1.1.86,1.89l-1.73.08c-.07-.44-.23-.76-.48-.95s-.61-.29-1.1-.29-.9.1-1.18.31c-.18.13-.28.31-.28.53,0,.2.09.38.26.52.22.18.75.38,1.59.57s1.47.41,1.87.62.72.5.95.87.34.83.34,1.37c0,.49-.14.95-.41,1.38s-.66.75-1.16.96-1.12.31-1.87.31c-1.09,0-1.92-.25-2.5-.75s-.93-1.23-1.04-2.19Z" style="fill: #1d7068;"/>
        </g>
        <g>
          <path d="M77.08,37.36c.2.14.31.33.34.57v.12c0,.2-.06.37-.19.53-.14.18-.32.28-.54.31h-.09c-.2,0-.37-.06-.53-.18-.25-.2-.53-.39-.83-.57-.18-.12-.28-.28-.32-.48,0-.05-.01-.09-.01-.13,0-.15.05-.28.15-.41.15-.19.33-.3.56-.35.07-.02.14-.03.21-.03.15,0,.29.04.42.12.31.18.6.35.85.51ZM76.52,45.31c-.08.21-.22.37-.44.45-.09.04-.18.06-.28.06-.12,0-.23-.03-.34-.09-.22-.11-.38-.28-.47-.51-.04-.11-.06-.22-.06-.34s.02-.23.07-.34c.4-1.06.77-2.13,1.1-3.21.06-.2.18-.33.37-.41.09-.03.17-.04.25-.04.11,0,.21.03.31.09.21.12.35.29.44.51.06.13.09.25.09.38,0,.1-.01.2-.04.29-.31,1.05-.64,2.1-1,3.15ZM82.97,40.66c0,.17-.06.31-.18.43-.12.12-.26.18-.44.18h-.47c-.08,0-.12.03-.12.1v.35c0,.08.04.12.12.12h1.38c.17,0,.31.06.42.18s.18.26.18.42-.06.31-.18.42-.26.18-.42.18h-.41s-.01,0-.01,0c0,0,0,0,.01,0h.03c.21.06.37.19.45.38.05.1.07.19.07.28,0,.11-.03.21-.09.31-.07.12-.14.24-.21.37,0,.02,0,.04,0,.06s.03.02.06.01h.29c.16-.03.29,0,.41.12.13.11.19.25.19.42,0,.16-.05.29-.16.41-.11.13-.24.2-.41.22-2.23.25-3.82.43-4.79.53-.03,0-.06.01-.09.01-.15,0-.28-.05-.41-.15-.15-.12-.23-.26-.26-.44,0-.04-.01-.07-.01-.1,0-.14.04-.26.13-.37.11-.14.25-.21.42-.23.67-.06,1.27-.11,1.79-.16.08,0,.12-.05.12-.12v-1.46c0-.07-.04-.1-.12-.1h-1.41c-.17,0-.31-.06-.42-.18s-.18-.26-.18-.42.06-.31.18-.42.26-.18.42-.18h1.41c.08,0,.12-.04.12-.12v-.35c0-.07-.04-.1-.12-.1h-.69c-.1,0-.18-.03-.24-.1-.06-.06-.09-.14-.09-.24,0,0,0-.01-.03-.01-.07.05-.14.1-.21.16-.14.08-.28.12-.42.12h-.13c-.19-.04-.35-.13-.5-.28-.11-.11-.16-.23-.16-.38,0-.21.08-.36.23-.45.91-.59,1.64-1.28,2.18-2.08.02-.03.01-.06-.01-.09-.07-.09-.1-.19-.09-.29s.06-.19.15-.25l.21-.18s.05-.1.04-.16c0,0,0-.02-.01-.03,0-.07-.05-.09-.12-.06-.52.21-1.11.45-1.79.73-.09.04-.17.06-.25.06-.09,0-.18-.02-.26-.06-.18-.08-.29-.21-.35-.38l-.09-.26c-.03-.11-.02-.21.04-.32.05-.1.13-.17.24-.2.04,0,.06-.03.06-.06v-2.14s0-.03-.02-.04c-.01,0-.03,0-.05,0l-.35.44c-.14.19-.32.28-.56.29h-.06c-.21,0-.39-.07-.54-.21-.24-.2-.52-.4-.82-.62-.17-.12-.27-.28-.31-.48v-.12c0-.16.05-.3.16-.44.15-.18.33-.28.54-.32.06,0,.12-.01.18-.01.16,0,.31.04.45.13.56.34.99.65,1.3.94,0,0,.02.01.04,0,.02,0,.03-.02.03-.04v-.06c0-.21.09-.39.26-.51.11-.09.23-.13.37-.13.06,0,.12,0,.19.03l.07.03c.07.02.13,0,.19-.03.17-.11.32-.21.47-.32.19-.14.39-.21.62-.21h.06c.24,0,.45.1.63.26l.13.13h.01c0-.07.03-.1.1-.1h2.45c.24,0,.44.08.6.25.17.17.25.37.25.6,0,1.08-.03,2-.1,2.74-.05.57-.13.93-.25,1.1-.17.24-.4.39-.7.44-.04,0-.08.01-.12.01-.04,0-.08.01-.12.01-.19,0-.36-.07-.51-.21-.18-.17-.3-.38-.38-.63-.03-.12-.06-.22-.1-.31,0-.02-.03-.03-.05-.03s-.04,0-.05.03c-.17.33-.38.63-.64.91,0,.02,0,.03.01.03.17,0,.32.04.47.13.77.49,1.46,1,2.08,1.54.17.14.25.32.25.56,0,.18-.06.34-.17.48s-.27.22-.46.22h-.01c-.18,0-.33-.06-.45-.19,0,0-.02-.02-.03-.02s-.02,0-.04,0-.02.01-.02.02ZM79.94,43.85c.06.15.05.29-.03.43-.08.14-.19.24-.34.3-.14.05-.27.04-.4-.04-.13-.07-.22-.18-.26-.31s-.08-.27-.13-.41c-.05-.13-.04-.25.01-.38s.15-.21.28-.25c.15-.05.29-.04.43.02s.24.16.3.3c.05.12.09.23.13.34ZM79.29,36.03s.01.05.04.07c.02.01.05.02.07.02l.66-.21c.07-.02.09-.06.06-.12l-.15-.32c-.05-.13-.05-.25,0-.38s.13-.21.25-.26c.13-.06.26-.06.4-.01s.23.14.29.26c.11.21.21.44.29.69,0,.02,0,.03.03.03s.03,0,.03-.03c.11-.41.18-.92.22-1.54,0-.03,0-.04-.04-.04-.13,0-.23-.05-.32-.14s-.13-.2-.13-.32v-.23s0-.03-.02-.04-.03,0-.05,0c-.46.29-.96.58-1.51.85-.07.04-.1.09-.1.16v1.55ZM80.23,40.08s-.01.02,0,.04.02.03.04.03h2.15s.03,0,.04-.03,0-.03,0-.04c-.43-.36-.82-.66-1.17-.91-.06-.05-.11-.04-.16.01-.3.33-.6.63-.88.89ZM82.5,43.15s0-.05,0-.07-.04-.03-.07-.03h-.54c-.08,0-.12.03-.12.1v1.35c0,.07.04.1.12.1l.78-.07s.01-.02.01-.03c-.16-.05-.27-.15-.34-.29s-.08-.3-.02-.45c.08-.22.14-.42.19-.6ZM83.11,34.28c0-.07-.03-.1-.1-.1h-.32c-.08,0-.12.03-.12.1-.07,1.04-.23,1.87-.48,2.49-.03.07,0,.11.06.12.15,0,.31.01.48.01.13,0,.22-.03.29-.13.09-.14.15-.97.19-2.49ZM84.83,34.55c.14-.14.3-.21.49-.21s.35.07.49.21.21.3.21.48v7.1c0,.2-.07.36-.21.49-.14.13-.3.2-.49.2s-.35-.07-.49-.2c-.14-.13-.21-.3-.21-.49v-7.1c0-.19.07-.35.21-.48ZM86.81,33.24c0-.21.07-.38.21-.52s.31-.21.51-.21.37.07.52.21.22.31.22.52v11.24c0,.44-.05.78-.15,1.01s-.27.42-.51.56c-.32.17-.83.26-1.54.29h-.04c-.22,0-.42-.07-.6-.21-.19-.16-.31-.35-.38-.59-.02-.07-.03-.13-.03-.19,0-.12.03-.23.1-.34.12-.16.27-.23.45-.23h.92c.12,0,.2-.02.24-.07.04-.04.07-.12.07-.24v-11.24Z" style="fill: #1d7068;"/>
          <path d="M101.24,44.89h1.82c.16,0,.27-.02.35-.07s.14-.14.18-.28c.05-.18.16-.31.32-.41.1-.06.2-.09.29-.09.07,0,.13.01.19.04.22.07.4.2.53.38.09.13.13.26.13.4,0,.06,0,.12-.03.18-.12.45-.31.76-.58.93-.27.17-.67.26-1.21.26h-2.21c-.89,0-1.48-.12-1.78-.37s-.45-.7-.45-1.38v-.48c0-.08-.03-.12-.1-.12h-1.44c-.08,0-.13.03-.15.1-.23.66-.68,1.17-1.33,1.52s-1.69.62-3.11.79c-.04,0-.08.01-.12.01-.18,0-.34-.05-.5-.15-.2-.13-.36-.29-.48-.5-.04-.08-.06-.16-.06-.23,0-.07.01-.14.04-.21.07-.16.19-.24.35-.25,1.05-.07,1.83-.18,2.32-.34s.84-.38,1.05-.67c0-.02,0-.04,0-.06s-.03-.03-.05-.03h-.94c-.23,0-.44-.08-.61-.25s-.26-.37-.26-.62v-3.3c0-.23.08-.44.26-.61s.37-.26.61-.26h7.78c.23,0,.44.09.61.26s.26.37.26.61v3.3c0,.24-.09.45-.26.62s-.37.25-.61.25h-1.44c-.07,0-.1.04-.1.12v.47c0,.19.04.3.13.35s.28.07.59.07ZM97.64,37.42c.14,0,.25.05.35.15s.15.21.15.35-.05.25-.15.34-.21.14-.35.14h-4.89c-.23,0-.44-.08-.61-.25s-.26-.37-.26-.62v-3.85c0-.23.08-.44.26-.61s.37-.26.61-.26h4.76c.14,0,.26.05.36.15.1.1.15.23.15.37s-.05.26-.15.36-.22.15-.36.15h-1.54c-.08,0-.12.04-.12.12v.28c0,.08.04.12.12.12h1.45c.09,0,.16.03.21.09s.08.13.08.21h.03c.56-.42,1.01-.95,1.35-1.55.11-.21.26-.36.47-.47.15-.09.3-.13.47-.13.05,0,.1,0,.15.01l.28.04c.13.02.22.08.29.19s.07.22.02.34c-.02.04,0,.06.03.06h3.53c.16,0,.29.05.4.16s.16.24.16.39-.05.28-.16.39c-.11.11-.24.17-.4.17h-4.07c-.08,0-.14.03-.18.09-.04.07-.1.15-.18.23,0,.02,0,.04,0,.06s.02.03.04.03h3.76c.14,0,.25.05.35.15s.15.21.15.34-.05.25-.15.34-.21.15-.35.15h-3.54c-.16,0-.29-.06-.41-.18s-.18-.25-.18-.41c0,0,0-.02-.01-.02s-.02,0-.03,0l-.1.1c-.17.16-.36.23-.57.23h-.04c-.23,0-.44-.09-.63-.25-.14-.11-.26-.2-.37-.28-.02-.02-.04-.02-.07,0-.02.02-.04.03-.04.05v1.04c0,.23-.08.44-.25.61-.17.17-.37.26-.62.26h-.88c-.08,0-.12.03-.12.1v.4c0,.08.04.12.12.12h1.67ZM94.46,33.96c0-.08-.03-.12-.1-.12h-.85c-.08,0-.12.04-.12.12v.28c0,.08.04.12.12.12h.85c.07,0,.1-.04.1-.12v-.28ZM96.1,35.87c.08,0,.12-.03.12-.1v-.35c0-.08-.04-.12-.12-.12h-2.59c-.08,0-.12.04-.12.12v.35c0,.07.04.1.12.1h2.59ZM93.51,36.8c-.08,0-.12.03-.12.1v.4c0,.08.04.12.12.12h.85c.07,0,.1-.04.1-.12v-.4c0-.07-.03-.1-.1-.1h-.85ZM95.23,39.78c-.08,0-.12.03-.12.1v.26c0,.07.04.1.12.1h5.8c.08,0,.12-.03.12-.1v-.26c0-.07-.04-.1-.12-.1h-5.8ZM95.23,41.12c-.08,0-.12.03-.12.1v.26c0,.07.04.1.12.1h5.8c.08,0,.12-.03.12-.1v-.26c0-.07-.04-.1-.12-.1h-5.8ZM95.23,42.47c-.08,0-.12.03-.12.1v.28c0,.08.04.12.12.12h5.8c.08,0,.12-.04.12-.12v-.28c0-.07-.04-.1-.12-.1h-5.8ZM99.56,38.43c-.24,0-.45-.08-.62-.25s-.25-.37-.25-.62v-.64c0-.24.08-.45.25-.62s.37-.25.62-.25h4.22c.24,0,.45.08.62.25s.25.37.25.62v.64c0,.24-.08.45-.25.62s-.37.25-.62.25h-4.22ZM99.98,36.86c-.07,0-.1.03-.1.1v.56c0,.07.03.1.1.1h.35c.08,0,.12-.03.12-.1v-.56c0-.07-.04-.1-.12-.1h-.35ZM101.43,36.86c-.08,0-.12.03-.12.1v.56c0,.07.04.1.12.1h.4c.07,0,.1-.03.1-.1v-.56c0-.07-.03-.1-.1-.1h-.4ZM102.91,36.86c-.08,0-.12.03-.12.1v.56c0,.07.04.1.12.1h.38c.07,0,.1-.03.1-.1v-.56c0-.07-.03-.1-.1-.1h-.38Z" style="fill: #1d7068;"/>
          <path d="M114.31,40.08c0,.24-.08.45-.25.62s-.37.25-.62.25h-3.19c-.07,0-.11.04-.12.12-.1,1.89-.41,3.42-.92,4.57-.09.2-.24.31-.47.35-.04,0-.08.01-.13.01-.17,0-.32-.05-.45-.16,0,0-.02-.02-.04-.03-.19-.15-.31-.33-.37-.56-.03-.1-.04-.19-.04-.28,0-.14.03-.27.09-.41.46-1.12.69-2.76.69-4.91v-2.94c0-.23.08-.44.26-.61.17-.17.37-.26.61-.26h4.1c.24,0,.45.09.62.26.17.17.25.37.25.61v3.37ZM113.81,33.11c.22,0,.42.08.57.23s.23.35.23.57-.08.42-.23.57-.35.23-.57.23h-5.01c-.22,0-.42-.08-.58-.23s-.24-.35-.24-.57.08-.42.24-.57.35-.23.58-.23h5.01ZM112.6,37.55c0-.07-.04-.1-.12-.1h-2.2c-.07,0-.1.03-.1.1v1.68c0,.08.03.12.1.12h2.2c.08,0,.12-.04.12-.12v-1.68ZM120.83,37.43c.24,0,.45.08.62.25s.25.37.25.61-.08.44-.25.62-.37.26-.62.26h-.35c-.08,0-.12.03-.12.1v6.25c0,.24-.08.45-.25.62s-.37.25-.62.25h-.04c-.23,0-.44-.08-.61-.25s-.26-.37-.26-.62v-6.25c0-.07-.03-.1-.1-.1h-1.52c-.07,0-.11.03-.12.1-.18,2.73-.88,4.88-2.11,6.45-.14.17-.31.25-.53.25h-.01c-.22,0-.42-.08-.6-.25l-.04-.04c-.18-.16-.27-.34-.29-.56,0-.04-.01-.08-.01-.12,0-.18.06-.34.18-.48.37-.49.68-1.02.92-1.6s.42-1.17.53-1.78.18-1.16.22-1.66c.04-.49.06-1.04.06-1.63v-3.27c0-.22.08-.41.25-.54.13-.1.27-.15.42-.15.05,0,.1,0,.16.01l.28.07c.08,0,.15,0,.22-.01,1.07-.31,2.01-.66,2.8-1.04.19-.09.38-.13.59-.13.05,0,.1,0,.15.01.26.02.49.11.67.28l.26.23c.14.11.21.24.21.41,0,.03,0,.06-.01.09-.03.2-.14.33-.32.41-1.12.47-2.4.88-3.82,1.23-.07.02-.1.06-.1.13v1.73c0,.08.03.12.1.12h3.84Z" style="fill: #1d7068;"/>
          <path d="M137.59,34.42c.17.16.25.36.25.59s-.08.43-.25.59c-.17.16-.37.24-.6.24h-7.08c-.07,0-.12.03-.15.1-.16.35-.32.68-.5,1-.02.02-.02.04,0,.06s.03.03.05.03h5.98c.23,0,.44.09.61.26s.26.37.26.61v6.55c0,.46-.06.81-.17,1.06-.11.25-.31.44-.61.58-.36.18-.96.27-1.8.29h-.01c-.23,0-.45-.08-.64-.23s-.33-.36-.4-.6l-.03-.09c-.02-.06-.03-.12-.03-.19,0-.12.03-.23.1-.34.12-.16.27-.23.45-.23h1.05c.13,0,.21-.02.26-.07.05-.04.07-.12.07-.23v-.79c0-.08-.03-.12-.1-.12h-5.2c-.07,0-.1.04-.1.12v1.89c0,.24-.09.45-.26.62s-.37.25-.61.25h-.04c-.24,0-.45-.08-.62-.25s-.25-.37-.25-.62v-5.55s0-.03-.03-.04c-.02,0-.03,0-.04,0-.41.45-.82.83-1.22,1.16-.16.12-.32.18-.5.18h-.13c-.23-.04-.43-.15-.6-.34-.02-.02-.03-.04-.04-.06-.13-.15-.19-.32-.19-.51v-.07c.02-.22.12-.41.29-.56,1.17-.96,2.17-2.21,2.99-3.76,0-.02,0-.04,0-.07s-.03-.04-.06-.04h-2.33c-.23,0-.43-.08-.6-.24-.17-.16-.25-.36-.25-.59s.08-.43.25-.59c.17-.16.37-.24.6-.24h3.08c.08,0,.13-.03.16-.1.11-.3.21-.6.31-.89.07-.22.21-.4.41-.53.15-.09.3-.13.45-.13.07,0,.14,0,.21.03l.16.03c.22.06.4.19.51.38.07.13.1.25.1.38,0,.08-.01.16-.04.25-.06.18-.11.33-.16.47,0,.03,0,.06,0,.08.01.03.03.04.05.04h6.37c.23,0,.43.08.6.24ZM134.31,39.56c.07,0,.1-.03.1-.1v-.75c0-.07-.03-.1-.1-.1h-5.2c-.07,0-.1.03-.1.1v.75c0,.07.03.1.1.1h5.2ZM129.01,41.92c0,.07.03.1.1.1h5.2c.07,0,.1-.03.1-.1v-.76c0-.07-.03-.1-.1-.1h-5.2c-.07,0-.1.03-.1.1v.76Z" style="fill: #1d7068;"/>
          <path d="M145.03,35.35c.56,0,.92.01,1.08.04.15.02.27.09.37.21.1.12.14.26.13.42-.19,2.42-.58,4.41-1.19,5.98-.03.07-.01.13.04.18.37.3.69.59.95.85.2.19.29.42.29.69,0,.24-.07.46-.22.64l-.04.06c-.13.17-.3.25-.51.26h-.03c-.21,0-.38-.08-.53-.23-.2-.21-.42-.43-.69-.69-.06-.05-.11-.04-.15.01-.55.85-1.2,1.57-1.96,2.17-.14.1-.28.15-.44.15-.06,0-.12,0-.18-.01-.23-.05-.42-.17-.56-.37,0-.02-.02-.03-.03-.04-.11-.14-.16-.29-.16-.45,0-.05,0-.09.01-.13.03-.21.13-.39.31-.53.63-.48,1.19-1.11,1.66-1.9.04-.06.03-.11-.03-.16-.16-.13-.38-.3-.67-.51-.03-.02-.05,0-.06.03-.03.1-.09.17-.19.21-.1.04-.2.04-.29,0l-.35-.18c-.21-.12-.37-.28-.47-.5-.06-.14-.09-.28-.09-.42,0-.09,0-.18.03-.26.25-1.01.53-2.26.83-3.75.02-.07,0-.1-.09-.1h-.23c-.22,0-.42-.08-.58-.24-.16-.16-.24-.35-.24-.58s.08-.42.24-.58c.16-.16.35-.24.58-.24h.56c.07,0,.11-.03.13-.1.14-.76.25-1.44.35-2.04.04-.22.15-.41.34-.56.17-.13.35-.19.56-.19h.07c.23.02.42.12.56.29.11.15.16.3.16.47,0,.04,0,.09-.01.15-.11.59-.23,1.21-.37,1.88,0,.07.02.1.1.1h1ZM144.85,37.11c0-.08-.02-.12-.1-.12h-1.07c-.08,0-.12.03-.13.1-.17.83-.39,1.86-.67,3.08-.02.07,0,.12.07.16.48.32.79.53.92.63.06.05.1.03.13-.04.38-1.04.66-2.31.85-3.81ZM153.85,38.31c.23,0,.43.08.59.25s.24.36.24.59-.08.43-.24.59-.36.25-.59.25h-2.36c-.07,0-.1.03-.1.1v4.29c0,.47-.05.83-.16,1.08-.11.25-.3.44-.59.58-.39.18-.94.28-1.64.31-.02,0-.03.01-.04.01-.23,0-.44-.07-.63-.22-.21-.16-.35-.36-.44-.62-.02-.04-.03-.08-.04-.13-.03-.07-.04-.14-.04-.22,0-.1.03-.2.09-.31.11-.16.26-.23.45-.23h.01c.25,0,.46.01.63.01.14,0,.24,0,.31-.01.13,0,.21-.02.26-.05s.07-.11.07-.21v-4.28c0-.07-.03-.1-.1-.1h-2.23c-.22,0-.42-.08-.59-.25s-.25-.36-.25-.59.08-.43.25-.59.36-.25.59-.25h2.23c.07,0,.1-.03.1-.1v-1.14c0-.14.05-.25.15-.35s.21-.15.35-.15c.04,0,.07-.01.1-.04.47-.49.91-1.04,1.33-1.66,0-.02,0-.04,0-.06s-.02-.03-.04-.03h-3.74c-.22,0-.42-.08-.58-.24-.16-.16-.24-.36-.24-.59s.08-.43.24-.59c.16-.16.35-.24.58-.24h5s.06,0,.09-.01c.07-.02.13-.03.19-.03.15,0,.28.04.4.13l.32.25c.17.13.26.29.29.48,0,.05.01.09.01.13,0,.16-.05.3-.15.42-.83,1.15-1.65,2.11-2.46,2.89-.05.05-.07.11-.07.18v.64c0,.07.03.1.1.1h2.36Z" style="fill: #1d7068;"/>
          <path d="M162.03,39.21c.07-.02.14-.03.21-.03.13,0,.25.04.38.12.18.12.28.28.31.48,0,.05.01.1.01.15,0,.17-.05.33-.15.48-.13.19-.3.31-.51.38-.41.14-.66.21-.75.23-.07.03-.1.08-.1.15v4.41c0,.22-.08.42-.24.58-.16.16-.35.24-.58.24s-.42-.08-.58-.24c-.16-.16-.24-.35-.24-.58v-3.91s0-.05-.03-.07c-.02-.02-.04-.02-.07-.02-.14.05-.35.12-.64.21s-.52.15-.67.19c-.08.03-.16.04-.23.04-.15,0-.28-.04-.41-.12-.21-.12-.34-.29-.4-.53h-.01c-.02-.09-.03-.17-.03-.23,0-.15.04-.29.13-.42.13-.21.3-.34.53-.4.5-.12,1.08-.27,1.74-.45.07-.02.1-.07.1-.15v-2.64c0-.08-.04-.12-.12-.12h-.78c-.08,0-.12.03-.13.1-.1.41-.2.78-.29,1.1-.05.19-.17.3-.35.35-.07.03-.13.04-.19.04-.11,0-.21-.03-.32-.1-.18-.12-.3-.28-.38-.48-.04-.12-.06-.23-.06-.35,0-.09.01-.18.04-.28.23-.86.42-1.98.54-3.37.02-.2.11-.36.28-.48.13-.1.26-.15.41-.15.04,0,.08,0,.13.01.21.03.37.13.5.31.11.14.16.29.16.47v.1c-.04.29-.08.6-.13.92,0,.07.02.1.09.1h.48c.08,0,.12-.03.12-.1v-1.95c0-.23.08-.43.24-.59s.35-.23.58-.23.42.08.58.23.24.35.24.59v1.95c0,.07.03.1.1.1h.29c.23,0,.43.08.6.25s.25.37.25.6-.08.43-.25.6-.37.25-.6.25h-.29c-.07,0-.1.04-.1.12v2.18s0,.05.03.07.04.02.07.01l.5-.15ZM165.5,34.59s0,.05.02.07.04.03.07.03h4.66c.23,0,.43.09.6.26.16.16.23.35.23.57,0,.56-.07,1.98-.22,4.28-.07,1.13-.15,2.09-.23,2.88s-.19,1.39-.29,1.8c-.11.42-.23.72-.38.92-.17.23-.34.41-.51.52s-.4.2-.66.26c-.21.04-.48.06-.82.06h-.01c-.23,0-.44-.08-.63-.25s-.31-.37-.38-.62l-.03-.09c0-.06-.01-.12-.01-.18,0-.13.03-.24.1-.35.12-.15.27-.22.45-.22h.48c.21,0,.4-.09.56-.28.2-.25.36-.98.5-2.18.14-1.2.26-3.09.38-5.69,0-.03-.01-.04-.04-.04s-.04,0-.04.03c-.36,1.85-.88,3.57-1.57,5.16-.68,1.6-1.51,2.89-2.49,3.89-.17.18-.38.26-.63.26s-.48-.07-.67-.22c-.02,0-.03-.02-.04-.03-.19-.13-.28-.31-.28-.54,0-.18.07-.33.21-.45.95-.87,1.75-2,2.42-3.4s1.18-2.93,1.54-4.6c.02-.07,0-.1-.09-.1h-.48c-.07,0-.11.03-.13.1-.3,1.09-.7,2.16-1.19,3.21s-1.04,1.92-1.63,2.64c-.15.18-.34.27-.59.28h-.04c-.22,0-.42-.07-.6-.21-.19-.14-.28-.32-.28-.56,0-.19.06-.34.19-.47.56-.59,1.06-1.31,1.52-2.17s.83-1.77,1.13-2.72c0-.02,0-.04,0-.07s-.04-.04-.07-.04h-.54c-.08,0-.13.03-.16.1-.3.71-.64,1.35-1.01,1.9-.12.19-.29.29-.53.32h-.1c-.19,0-.36-.06-.51-.18-.18-.13-.28-.3-.32-.53v-.13c0-.18.05-.33.15-.47.74-1.07,1.33-2.47,1.76-4.19.06-.22.18-.4.37-.53.15-.1.3-.15.47-.15.05,0,.1,0,.16.01.21.04.39.15.51.34.09.14.13.27.13.41,0,.07,0,.14-.03.21-.1.34-.21.71-.34,1.11Z" style="fill: #1d7068;"/>
          <path d="M175.6,45.29c-.39,0-.72-.14-.97-.41s-.39-.62-.39-1.03.13-.75.39-1.03.58-.41.97-.41.72.14.98.41.4.62.4,1.03-.13.75-.4,1.03-.59.41-.98.41Z" style="fill: #1d7068;"/>
          <path d="M181.96,45.29c-.39,0-.72-.14-.97-.41s-.39-.62-.39-1.03.13-.75.39-1.03.58-.41.97-.41.72.14.98.41.4.62.4,1.03-.13.75-.4,1.03-.59.41-.98.41Z" style="fill: #1d7068;"/>
          <path d="M188.32,45.29c-.39,0-.72-.14-.97-.41s-.39-.62-.39-1.03.13-.75.39-1.03.58-.41.97-.41.72.14.98.41.4.62.4,1.03-.13.75-.4,1.03-.59.41-.98.41Z" style="fill: #1d7068;"/>
        </g>
      </g>
    </g>
  </g>
</svg>