<?xml version="1.0" encoding="UTF-8"?>
<svg id="_圖層_2" data-name="圖層 2" xmlns="http://www.w3.org/2000/svg" width="379.57" height="315.9" viewBox="0 0 379.57 315.9">
  <g id="_設計" data-name="設計">
    <rect x="1" y="1" width="377.57" height="313.9" rx="80" ry="80" style="fill: #fff; stroke: #1d7068; stroke-miterlimit: 10; stroke-width: 2px;"/>
    <g>
      <path d="M130,165.77h-3.46l-1.38-3.58h-6.29l-1.3,3.58h-3.37l6.13-15.75h3.36l6.31,15.75ZM124.15,159.54l-2.17-5.84-2.13,5.84h4.3Z" style="fill: #1d7068;"/>
      <path d="M131.77,165.77v-15.62h3.18v12.97h7.91v2.65h-11.09Z" style="fill: #1d7068;"/>
      <path d="M145.21,165.77v-15.62h3.18v12.97h7.91v2.65h-11.09Z" style="fill: #1d7068;"/>
      <path d="M171.61,159.98v-2.65h6.85v6.27c-.67.64-1.63,1.21-2.9,1.7-1.26.49-2.54.74-3.84.74-1.65,0-3.08-.35-4.31-1.04-1.22-.69-2.14-1.68-2.76-2.96-.62-1.29-.92-2.68-.92-4.2,0-1.64.34-3.1,1.03-4.37s1.69-2.25,3.02-2.93c1.01-.52,2.27-.78,3.77-.78,1.96,0,3.48.41,4.58,1.23,1.1.82,1.81,1.95,2.12,3.4l-3.16.59c-.22-.77-.64-1.38-1.25-1.83-.61-.45-1.38-.67-2.29-.67-1.39,0-2.49.44-3.31,1.32-.82.88-1.23,2.19-1.23,3.92,0,1.87.42,3.27,1.25,4.21.83.94,1.92,1.4,3.27,1.4.67,0,1.33-.13,2-.39.67-.26,1.25-.58,1.72-.95v-2h-3.64Z" style="fill: #1d7068;"/>
      <path d="M180.75,157.99c0-1.6.24-2.95.72-4.04.36-.8.85-1.52,1.47-2.16.62-.64,1.3-1.11,2.04-1.42.98-.42,2.11-.62,3.39-.62,2.32,0,4.18.72,5.57,2.16,1.39,1.44,2.09,3.44,2.09,6s-.69,4.53-2.07,5.97c-1.38,1.44-3.23,2.15-5.54,2.15s-4.2-.71-5.59-2.14c-1.38-1.43-2.07-3.4-2.07-5.9ZM184.02,157.88c0,1.78.41,3.13,1.24,4.05.82.92,1.87,1.38,3.14,1.38s2.31-.46,3.12-1.37c.81-.91,1.22-2.28,1.22-4.11s-.4-3.15-1.19-4.04c-.79-.89-1.84-1.33-3.15-1.33s-2.37.45-3.17,1.35c-.8.9-1.2,2.25-1.2,4.07Z" style="fill: #1d7068;"/>
      <path d="M197.86,157.99c0-1.6.24-2.95.72-4.04.36-.8.85-1.52,1.47-2.16.62-.64,1.3-1.11,2.04-1.42.98-.42,2.11-.62,3.39-.62,2.32,0,4.18.72,5.57,2.16,1.39,1.44,2.09,3.44,2.09,6s-.69,4.53-2.07,5.97c-1.38,1.44-3.23,2.15-5.54,2.15s-4.2-.71-5.59-2.14c-1.38-1.43-2.07-3.4-2.07-5.9ZM201.14,157.88c0,1.78.41,3.13,1.24,4.05.82.92,1.87,1.38,3.14,1.38s2.31-.46,3.12-1.37c.81-.91,1.22-2.28,1.22-4.11s-.4-3.15-1.19-4.04c-.79-.89-1.84-1.33-3.15-1.33s-2.37.45-3.17,1.35c-.8.9-1.2,2.25-1.2,4.07Z" style="fill: #1d7068;"/>
      <path d="M215.61,150.02h5.81c1.31,0,2.31.1,3,.3.92.27,1.71.76,2.37,1.45s1.16,1.54,1.5,2.55c.34,1.01.52,2.25.52,3.72,0,1.3-.16,2.41-.48,3.35-.39,1.15-.96,2.07-1.69,2.78-.55.54-1.3.96-2.23,1.26-.7.22-1.64.33-2.81.33h-5.98v-15.75ZM218.79,152.68v10.43h2.37c.89,0,1.53-.05,1.92-.15.52-.13.94-.35,1.28-.66.34-.31.62-.81.83-1.52.21-.71.32-1.67.32-2.88s-.11-2.15-.32-2.8-.52-1.16-.9-1.53-.88-.61-1.47-.74c-.44-.1-1.31-.15-2.61-.15h-1.43Z" style="fill: #1d7068;"/>
      <path d="M231.41,165.77v-15.75h3.18v15.75h-3.18Z" style="fill: #1d7068;"/>
      <path d="M237.62,165.77v-15.75h11.68v2.66h-8.5v3.49h7.91v2.65h-7.91v4.29h8.8v2.65h-11.98Z" style="fill: #1d7068;"/>
      <path d="M251.49,160.64l3.09-.3c.19,1.04.56,1.8,1.13,2.29.57.49,1.34.73,2.3.73,1.02,0,1.8-.22,2.31-.65.52-.43.78-.94.78-1.52,0-.37-.11-.69-.33-.95-.22-.26-.6-.49-1.14-.68-.37-.13-1.22-.36-2.55-.69-1.7-.42-2.9-.94-3.59-1.56-.97-.87-1.45-1.92-1.45-3.17,0-.8.23-1.55.68-2.25.45-.7,1.11-1.23,1.96-1.6.86-.37,1.89-.55,3.1-.55,1.98,0,3.46.43,4.46,1.3,1,.87,1.52,2.02,1.57,3.47l-3.18.14c-.14-.81-.43-1.39-.88-1.75-.45-.35-1.12-.53-2.01-.53s-1.65.19-2.17.57c-.34.24-.5.57-.5.98,0,.37.16.69.47.96.4.34,1.38.69,2.92,1.05s2.69.74,3.43,1.13c.74.39,1.32.92,1.74,1.6.42.68.63,1.51.63,2.51,0,.9-.25,1.75-.75,2.54s-1.21,1.37-2.13,1.76c-.92.38-2.06.57-3.43.57-1.99,0-3.52-.46-4.59-1.38-1.07-.92-1.7-2.26-1.91-4.02Z" style="fill: #1d7068;"/>
    </g>
    <g>
      <path d="M99.91,121.72c-.72-1.04-2.32-2.67-3.6-3.8l2.12-1.77c1.25,1.04,2.93,2.55,3.68,3.6l-2.21,1.97ZM102.99,124.96c-1.04,2.96-2.32,6.27-3.51,8.93l-2.61-1.59c1.13-2.18,2.67-5.74,3.8-8.96l2.32,1.62ZM100.72,114.58c-.7-1.1-2.29-2.9-3.57-4.15l2.18-1.71c1.25,1.16,2.9,2.81,3.71,3.89l-2.32,1.97ZM115.4,109.16s0,.67-.03,1.01c-.15,5.08-.32,7.02-.75,7.75-.32.55-.7.75-1.22.84-.41.09-1.04.12-1.71.06-.03-.67-.23-1.62-.46-2.21.49.09.87.09,1.1.09.2,0,.35-.06.49-.32.23-.35.35-1.62.46-4.96h-1.04c-.15,2.73-.58,5.02-2.09,6.47l.38.23-.29.46c1.83.9,4,2.15,5.16,3.16l-1.36,2.09c-.44-.43-1.04-.87-1.77-1.36v1.86h-2.21v1.07h4.29v2.32h-4.29v3.39l.7-.06c.32-.99.73-2.35.93-3.31l2.09.67c-.32.87-.61,1.71-.87,2.47l2.12-.17-.03,2.41c-4.32.44-8.91.81-12.07,1.07l-.38-2.52c1.45-.09,3.22-.23,5.19-.38v-3.57h-4.26v-2.32h4.26v-1.07h-2.06v-1.22c-.67.41-1.33.84-1.94,1.19-.29-.73-.9-1.71-1.42-2.35,2.35-1.02,5.02-2.73,6.44-4.84l-1.48.61c-.03-.29-.12-.58-.17-.93-2.81,1.71-3.39,2.17-3.74,2.58-.12-.55-.55-1.48-.87-1.94.38-.23.7-.61.7-1.71v-5.51h.03c1.51-.55,3.22-1.42,4.18-2.23l1.62,1.91c-1.07.67-2.41,1.28-3.66,1.74v3.68l1.16-.64c-.17-.61-.41-1.22-.64-1.71l1.8-.67c.52,1.13,1.04,2.61,1.33,3.83.87-1.13,1.13-2.78,1.22-4.7h-1.19v-2.26h6.35ZM105.97,127.78c.46.81.93,1.97,1.13,2.73l-1.97.87c-.15-.78-.58-2-1.02-2.9l1.86-.7ZM111.75,122.12c-.93-.64-1.97-1.25-2.96-1.74-.58.61-1.22,1.19-1.86,1.74h4.82ZM110.09,117.86c-.2-.32-.58-.81-.99-1.13l.06.23-.35.14,1.28.75ZM122.39,108.05v23.12c0,1.65-.29,2.41-1.19,2.87-.84.49-2.35.55-4.44.55-.06-.78-.35-2.03-.64-2.93,1.28.06,2.61.06,3.05.03.41,0,.52-.09.52-.55v-23.09h2.7ZM118.56,127.95h-2.35v-17.03h2.35v17.03Z" style="fill: #1d7068;"/>
      <path d="M151.39,132.19c.93,0,1.13-.32,1.22-2.18.67.44,2,.87,2.84,1.02-.32,2.96-1.19,3.74-3.71,3.74h-4.29c-3.45,0-4.32-.78-4.32-3.36v-1.16h-3.19c-.87,2.81-3.13,4.18-10.12,4.84-.2-.78-.93-1.97-1.48-2.64,5.57-.26,7.37-.84,8.12-2.2h-3.68v-9.69h18.36v9.69h-4.64v1.13c0,.73.23.81,1.39.81h3.51ZM141.88,119.66h-12.1v-10.76h11.86v1.94h-3.45v1.02h2.87v.64c1.68-1.3,2.76-2.96,3.28-4.47l2.96.46c-.12.32-.26.67-.41.99h7.95v2.32h-4.81c.78.67,1.54,1.39,1.94,2l-1.13.84h3.34v4.96h-11.31v-4.96h6.03c-.64-.75-1.51-1.57-2.29-2.17l.96-.67h-1.94c-.67.99-1.48,1.88-2.47,2.73-.49-.58-1.39-1.42-2.09-1.83v3.86h-2.87v1.19h3.68v1.91ZM132.71,110.84v1.02h2.78v-1.02h-2.78ZM132.71,113.65v1.13h5.45v-1.13h-5.45ZM132.71,117.74h2.78v-1.19h-2.78v1.19ZM136.05,123.25h11.66v-.96h-11.66v.96ZM136.05,125.86h11.66v-.96h-11.66v.96ZM136.05,128.5h11.66v-.99h-11.66v.99ZM146.2,116.26h-1.07v1.74h1.07v-1.74ZM149.01,116.26h-1.16v1.74h1.16v-1.74ZM151.83,116.26h-1.16v1.74h1.16v-1.74Z" style="fill: #1d7068;"/>
      <path d="M165.16,124.94c-.23,3.63-.84,7.6-2.46,10.3-.58-.61-2.06-1.77-2.81-2.18,1.86-3.34,1.97-8.21,1.97-11.98v-10.47h.03c3.45-.41,7.34-1.16,9.83-2.06l2.21,2.93c-2.52.81-5.66,1.36-8.64,1.71v2.06h7.46v9.69h-7.57ZM165.28,118.32v3.54h4.12v-3.54h-4.12ZM187.35,120.99h-2.64v13.89h-3.42v-13.89h-3.02c-.12,4.61-1.1,10.56-5.16,14.18-.55-.67-1.97-1.88-2.7-2.35,4-3.6,4.35-8.99,4.35-13.17v-9.02c3.54-.46,7.46-1.3,9.98-2.29l2.23,2.99c-2.52.87-5.69,1.51-8.67,1.92v4.41h9.05v3.33Z" style="fill: #1d7068;"/>
      <path d="M203.12,114.73c-.35.78-.72,1.54-1.16,2.29h13.43v14.33c0,1.71-.32,2.64-1.51,3.16-1.13.55-2.78.58-5.13.58-.15-.96-.61-2.41-1.04-3.34,1.48.09,3.16.09,3.66.09.49-.03.67-.17.67-.58v-1.74h-10.47v5.54h-3.42v-12.62c-1.16,1.28-2.41,2.44-3.83,3.39-.49-.75-1.6-2-2.26-2.64,3.07-2.06,5.48-5.11,7.22-8.47h-6.35v-3.25h7.8c.46-1.19.84-2.35,1.13-3.51l3.57.81c-.29.9-.58,1.8-.93,2.7h14.16v3.25h-15.52ZM212.03,120.03h-10.47v1.86h10.47v-1.86ZM212.03,126.65v-1.89h-10.47v1.89h10.47Z" style="fill: #1d7068;"/>
      <path d="M236.07,114.12c-.44,5.11-1.36,9.22-2.84,12.5,1.33,1.19,2.44,2.32,3.19,3.31l-2.26,2.96c-.64-.93-1.59-2-2.67-3.08-1.54,2.21-3.42,3.92-5.68,5.25-.49-.84-1.42-2.09-2.15-2.73,2.15-1.07,3.92-2.7,5.34-4.87-1.51-1.3-3.07-2.61-4.53-3.68.61-1.89,1.22-4.29,1.74-6.88h-2.06v-3.16h2.67c.35-1.97.61-3.92.78-5.69l3.42.26c-.23,1.71-.52,3.54-.87,5.42h3.22l.58-.09,2.12.46ZM229.51,116.9c-.38,1.97-.84,3.92-1.31,5.63.78.61,1.57,1.25,2.35,1.86.93-2.18,1.57-4.67,1.94-7.48h-2.99ZM251.18,123.2h-5.8v8.15c0,1.77-.38,2.64-1.59,3.19-1.16.49-2.81.58-5.08.55-.17-.96-.7-2.38-1.19-3.28,1.48.03,3.16.03,3.63.03.49,0,.64-.12.64-.55v-8.09h-6.12v-3.28h6.12v-2.75c1.25-1.1,2.52-2.73,3.54-4.26h-8.5v-3.13h10.76l.81-.17,2.32,1.68c-1.36,2.12-3.28,4.55-5.34,6.47v2.17h5.8v3.28Z" style="fill: #1d7068;"/>
      <path d="M267.36,123.83c-1.04.29-2.06.64-3.13.96v10.33h-3.16v-9.37c-1.57.46-3.02.93-4.35,1.28l-.84-3.28c1.45-.32,3.22-.78,5.19-1.33v-5.54h-1.94c-.32,1.42-.67,2.67-1.07,3.71-.52-.44-1.8-1.22-2.44-1.6.9-2.29,1.39-5.92,1.65-9.34l2.87.49c-.12,1.16-.26,2.29-.44,3.45h1.36v-5.57h3.16v5.57h2.41v3.28h-2.41v4.67l2.67-.75.46,3.04ZM282.97,112.49s-.03,1.16-.06,1.57c-.55,12.94-1.07,17.67-2.18,19.12-.67.99-1.31,1.3-2.26,1.51-.81.15-2.03.15-3.28.09-.09-.99-.44-2.41-.96-3.36,1.07.12,2.03.12,2.58.12.44,0,.73-.12,1.07-.55.73-.93,1.25-4.87,1.71-15.29h-.15c-1.42,7.31-4.41,14.85-9.08,18.71-.67-.67-1.86-1.51-2.81-2,4.64-3.34,7.54-9.92,8.99-16.71h-1.36c-1.28,4.73-3.71,9.92-6.64,12.71-.64-.67-1.74-1.45-2.64-1.94,2.87-2.26,5.13-6.56,6.41-10.76h-1.48c-.84,2-1.86,3.8-2.99,5.19-.55-.55-1.92-1.51-2.61-1.94,2.29-2.52,3.89-6.67,4.76-10.94l3.13.58c-.29,1.33-.67,2.64-1.07,3.92h10.91Z" style="fill: #1d7068;"/>
    </g>
  </g>
</svg>