<?xml version="1.0" encoding="UTF-8"?>
<svg id="_圖層_2" data-name="圖層 2" xmlns="http://www.w3.org/2000/svg" width="1530.19" height="2210.4" viewBox="0 0 1530.19 2210.4">
  <g id="_設計" data-name="設計">
    <g>
      <g style="opacity: .1;">
        <path d="M838.6,1845.17c61.09-81.31,71.29-179.57,1.19-276.51,36.26-55.92,131.96-94.79,220.28-69.94,89.93,25.3,151.78,103.36,158.09,199.91,5.63,86.26-51.96,174.44-135.9,208.04-85.77,34.34-182.32,10.45-243.66-61.5Z" style="fill: #dbdbdc;"/>
      </g>
      <g style="opacity: .1;">
        <path d="M379.94,76.96c-61.09,81.31-71.29,179.57-1.19,276.51-36.26,55.92-131.96,94.79-220.28,69.94C68.53,398.12,6.68,320.05.38,223.51-5.25,137.24,52.34,49.07,136.28,15.46c85.77-34.34,182.32-10.45,243.66,61.5Z" style="fill: #dbdbdc;"/>
      </g>
      <g style="opacity: .1;">
        <path d="M1347.86,1147.89c-192.63-144.72-425.42-168.89-655.1-2.81-132.48-85.9-224.57-312.64-165.71-521.89,59.93-213.07,244.88-359.6,473.62-374.54,204.37-13.35,413.27,123.11,492.89,321.97,81.36,203.21,24.77,431.95-145.7,577.27Z" style="fill: #dbdbdc;"/>
      </g>
      <g style="opacity: .1;">
        <path d="M104.31,1065.33C47.34,1065.61.4,1019.17,0,962.15c-.4-57.81,44.76-102.88,103.23-103.02,58.98-.14,104.12,43.98,104.28,101.93.16,57.49-45.87,104-103.2,104.27Z" style="fill: #dbdbdc;"/>
      </g>
      <g style="opacity: .1;">
        <path d="M1350.3,1310.62c-28.8.14-52.52-23.34-52.72-52.16-.2-29.22,22.62-52.01,52.18-52.08,29.81-.07,52.63,22.23,52.71,51.53.08,29.06-23.19,52.57-52.17,52.71Z" style="fill: #dbdbdc;"/>
      </g>
      <g style="opacity: .1;">
        <path d="M470.6,1647.84c-21.14.1-38.57-17.14-38.72-38.3-.15-21.46,16.61-38.19,38.32-38.24,21.89-.05,38.65,16.33,38.71,37.84.06,21.34-17.03,38.6-38.31,38.71Z" style="fill: #dbdbdc;"/>
      </g>
      <g style="opacity: .1;">
        <path d="M1433.57,115.46c-23.58.11-43.01-19.11-43.18-42.72-.17-23.93,18.53-42.59,42.73-42.65,24.42-.06,43.1,18.21,43.17,42.2.07,23.8-18.99,43.05-42.72,43.17Z" style="fill: #dbdbdc;"/>
      </g>
      <g style="opacity: .1;">
        <path d="M405.5,1906.45c-52.43,69.79-61.19,154.13-1.02,237.34-31.12,48-113.27,81.36-189.08,60.04-77.19-21.71-130.28-88.72-135.7-171.59-4.84-74.04,44.6-149.73,116.65-178.58,73.62-29.48,156.5-8.97,209.15,52.79Z" style="fill: #dbdbdc;"/>
      </g>
      <g style="opacity: .1;">
        <path d="M1297.8,2034.63c-23.58.11-43.01-19.11-43.18-42.72-.17-23.93,18.53-42.59,42.73-42.65,24.42-.06,43.1,18.21,43.17,42.2.07,23.8-18.99,43.05-42.72,43.17Z" style="fill: #dbdbdc;"/>
      </g>
    </g>
  </g>
</svg>