<?xml version="1.0" encoding="UTF-8"?>
<svg id="_圖層_2" data-name="圖層 2" xmlns="http://www.w3.org/2000/svg" width="452.93" height="186.47" viewBox="0 0 452.93 186.47">
  <g id="_設計" data-name="設計">
    <path d="M205.68,152.21h195.32c27.85,0,50.43-22.58,50.43-50.43v-49.85c0-27.85-22.58-50.43-50.43-50.43H51.93c-27.85,0-50.43,22.58-50.43,50.43v49.85c0,27.85,22.58,50.43,50.43,50.43h59.6s75.89,32.33,75.89,32.33c4.15,1.77,8.41-2.29,6.84-6.52l-9.56-25.81h20.99Z" style="fill: #fff; stroke: #1d7068; stroke-linecap: round; stroke-linejoin: round; stroke-width: 3px;"/>
    <g>
      <path d="M98.76,80.45c.25-.04.52-.06.81-.06.46,0,.94.08,1.44.25l1.25.5c.67.25,1.15.69,1.44,1.31.17.38.25.75.25,1.12,0,.29-.04.58-.12.88-1.67,4.71-4,8.79-7,12.25-.21.25-.19.46.06.62,2.21,1.38,4.65,2.52,7.31,3.44.83.29,1.35.83,1.56,1.62.08.25.12.5.12.75,0,.54-.17,1.04-.5,1.5l-.06.06c-.67.92-1.5,1.54-2.5,1.88-.5.17-.98.25-1.44.25-.54,0-1.06-.08-1.56-.25-2.96-1.17-5.65-2.67-8.06-4.5-.25-.17-.5-.17-.75,0-2.21,1.67-4.58,3.08-7.12,4.25-.5.25-1.02.38-1.56.38-.46,0-.9-.08-1.31-.25-1-.33-1.79-.94-2.38-1.81-.42-.58-.83-1.12-1.25-1.62-.04-.08-.09-.1-.16-.06-.06.04-.09.1-.09.19v1.06c0,1-.37,1.85-1.09,2.56-.73.71-1.59,1.06-2.59,1.06s-1.85-.35-2.56-1.06-1.06-1.56-1.06-2.56v-1.06c0-.33-.15-.48-.44-.44-3.38.33-8.92.83-16.62,1.5h-.31c-.75,0-1.44-.25-2.06-.75-.67-.58-1.04-1.31-1.12-2.19-.04-.12-.06-.23-.06-.31,0-.79.27-1.48.81-2.06.58-.71,1.31-1.08,2.19-1.12.71-.04,1.33-.08,1.88-.12.29-.04.44-.21.44-.5v-18.56c0-.29-.15-.44-.44-.44h-1.56c-.79,0-1.49-.29-2.09-.88-.6-.58-.91-1.29-.91-2.12s.3-1.54.91-2.12c.6-.58,1.3-.88,2.09-.88h50.94c.79,0,1.49.29,2.09.88.6.58.91,1.29.91,2.12s-.3,1.54-.91,2.12c-.6.58-1.3.88-2.09.88h-25.88c-.29,0-.44.15-.44.44v22.5c0,.12.04.22.12.28.08.06.19.07.31.03,3.08-1.08,5.83-2.48,8.25-4.19.25-.17.27-.38.06-.62-1.46-1.79-2.75-3.73-3.88-5.81-.25-.42-.38-.85-.38-1.31,0-.42.1-.83.31-1.25.38-.88,1.04-1.44,2-1.69l.19-.06s.06-.02.06-.06-.02-.06-.06-.06h-2.5c-.79,0-1.48-.28-2.06-.84-.58-.56-.88-1.25-.88-2.06s.29-1.5.88-2.06c.58-.56,1.27-.84,2.06-.84h16.81c.12,0,.23-.02.31-.06ZM95.38,50.08c1,0,1.86.37,2.59,1.09.73.73,1.09,1.59,1.09,2.59v12.31c0,1-.37,1.87-1.09,2.59s-1.59,1.09-2.59,1.09h-34.69c-1,0-1.87-.36-2.59-1.09-.73-.73-1.09-1.59-1.09-2.59v-12.31c0-1,.36-1.86,1.09-2.59s1.59-1.09,2.59-1.09h34.69ZM69.82,78.58c0-.29-.17-.44-.5-.44h-7.38c-.29,0-.44.15-.44.44v1.62c0,.33.15.5.44.5h7.38c.33,0,.5-.17.5-.5v-1.62ZM61.94,86.01c-.29,0-.44.15-.44.44v1.75c0,.33.15.5.44.5h7.38c.33,0,.5-.17.5-.5v-1.75c0-.29-.17-.44-.5-.44h-7.38ZM61.94,93.95c-.29,0-.44.15-.44.44v2.25c0,.29.15.44.44.44,3.42-.25,5.88-.46,7.38-.62.33,0,.5-.17.5-.5v-1.56c0-.29-.17-.44-.5-.44h-7.38ZM91.01,57.58c.29,0,.44-.15.44-.44v-1.69c0-.33-.15-.5-.44-.5h-26.25c-.29,0-.44.17-.44.5v1.69c0,.29.15.44.44.44h26.25ZM91.01,64.89c.29,0,.44-.17.44-.5v-1.75c0-.29-.15-.44-.44-.44h-26.25c-.29,0-.44.15-.44.44v1.75c0,.33.15.5.44.5h26.25ZM95.19,86.76c.04-.12.04-.23,0-.31-.04-.08-.12-.12-.25-.12h-7.69c-.12,0-.22.04-.28.12-.06.08-.05.19.03.31.96,1.96,2.21,3.79,3.75,5.5.21.21.42.21.62,0,1.5-1.67,2.77-3.5,3.81-5.5Z" style="fill: #1d7068;"/>
      <path d="M138.28,86.14c-.17,0-.25.08-.25.25s.06.29.19.38c1.21.88,3.25,2.44,6.12,4.69.79.58,1.23,1.35,1.31,2.31.04.17.06.31.06.44,0,.79-.27,1.5-.81,2.12-.54.71-1.27,1.06-2.19,1.06l-.06.06c-.92,0-1.67-.33-2.25-1-.67-.71-1.35-1.4-2.06-2.06-.04-.04-.1-.05-.19-.03-.08.02-.12.07-.12.16v9.5c0,1.04-.35,1.92-1.06,2.62-.71.71-1.57,1.06-2.59,1.06s-1.9-.35-2.62-1.06c-.73-.71-1.09-1.58-1.09-2.62v-8.69c0-.08-.03-.13-.09-.16-.06-.02-.12,0-.16.03-1.62,2.29-3.33,4.35-5.12,6.19-.67.62-1.4.94-2.19.94-.12,0-.25-.02-.38-.06-.96-.08-1.77-.5-2.44-1.25-.58-.62-.88-1.38-.88-2.25,0-1,.38-1.83,1.12-2.5,3.25-2.75,6.04-6,8.38-9.75.04-.08.04-.17,0-.25-.04-.08-.12-.12-.25-.12h-6.06c-.88,0-1.62-.31-2.25-.94s-.94-1.38-.94-2.25.31-1.62.94-2.25,1.38-.94,2.25-.94h7.62c.29,0,.44-.17.44-.5v-4c0-.29-.15-.44-.44-.44h-7.88c-.88,0-1.62-.31-2.22-.94-.6-.62-.91-1.36-.91-2.22s.3-1.59.91-2.22c.6-.62,1.34-.94,2.22-.94h2.31c.29,0,.42-.15.38-.44-.12-1-.35-2.08-.69-3.25-.08-.33-.12-.65-.12-.94,0-.58.15-1.12.44-1.62.42-.83,1.08-1.35,2-1.56v-.12h-3.62c-.88,0-1.62-.3-2.22-.91-.6-.6-.91-1.33-.91-2.19s.3-1.58.91-2.19,1.34-.91,2.22-.91h7.19c.29,0,.44-.15.44-.44v-1.69c0-1.04.36-1.92,1.09-2.62.73-.71,1.6-1.06,2.62-1.06s1.88.35,2.59,1.06c.71.71,1.06,1.58,1.06,2.62v1.69c0,.29.17.44.5.44h7c.88,0,1.61.3,2.22.91.6.6.91,1.33.91,2.19s-.3,1.58-.91,2.19-1.34.91-2.22.91h-3.06v.12c.88.17,1.52.62,1.94,1.38.21.42.31.83.31,1.25,0,.38-.08.73-.25,1.06-.67,1.62-1.19,2.88-1.56,3.75-.04.08-.03.17.03.25.06.08.13.12.22.12h2.88c.88,0,1.61.31,2.22.94.6.62.91,1.37.91,2.22s-.3,1.59-.91,2.22c-.6.62-1.34.94-2.22.94h-7.5c-.33,0-.5.15-.5.44v4c0,.33.17.5.5.5h6.88c.88,0,1.62.31,2.25.94s.94,1.38.94,2.25-.31,1.62-.94,2.25-1.38.94-2.25.94h-7.12ZM138.78,61.08c0-.12-.03-.24-.09-.34-.06-.1-.16-.16-.28-.16h-8.75c-.08,0-.16.05-.22.16-.06.1-.07.2-.03.28.5,1.12.96,2.38,1.38,3.75.08.25.12.52.12.81,0,.5-.17.98-.5,1.44-.42.71-1.04,1.19-1.88,1.44v.06h11.75v-.06l-.19-.06c-.92-.17-1.6-.69-2.06-1.56-.29-.5-.44-1-.44-1.5,0-.38.06-.75.19-1.12.42-1.17.75-2.21,1-3.12ZM174.72,69.14c.96,0,1.78.34,2.47,1.03s1.03,1.51,1.03,2.47-.34,1.78-1.03,2.47-1.51,1.03-2.47,1.03h-2.12c-.29,0-.44.17-.44.5v27.12c0,1-.37,1.86-1.09,2.59-.73.73-1.59,1.09-2.59,1.09s-1.87-.37-2.59-1.09-1.09-1.59-1.09-2.59v-27.12c0-.33-.15-.5-.44-.5h-5.62c-.29,0-.44.17-.44.5-.17,12.38-2.67,21.88-7.5,28.5-.58.71-1.31,1.06-2.19,1.06h-.12c-.92,0-1.73-.35-2.44-1.06l-.12-.12c-.71-.67-1.12-1.48-1.25-2.44-.04-.17-.06-.33-.06-.5,0-.79.23-1.52.69-2.19,1.25-1.75,2.28-3.68,3.09-5.78.81-2.1,1.41-4.28,1.78-6.53s.62-4.29.75-6.12c.12-1.83.19-3.9.19-6.19v-18.5c0-.96.38-1.71,1.12-2.25.5-.38,1.04-.56,1.62-.56.25,0,.52.04.81.12l.44.12c.33.08.65.08.94,0,4.83-1.17,8.98-2.48,12.44-3.94.75-.33,1.52-.5,2.31-.5.29,0,.58.02.88.06,1.12.17,2.08.62,2.88,1.38l.69.56c.5.46.75,1.02.75,1.69,0,.17-.02.33-.06.5-.12.83-.6,1.4-1.44,1.69-4.42,1.67-9.67,3.15-15.75,4.44-.29.04-.44.23-.44.56v8c0,.33.15.5.44.5h16Z" style="fill: #1d7068;"/>
      <path d="M201.87,70.51c.83.58,1.31,1.38,1.44,2.38.04.17.06.33.06.5,0,.83-.27,1.6-.81,2.31l-.06.06c-.58.79-1.38,1.23-2.38,1.31h-.38c-.83,0-1.6-.25-2.31-.75-1.62-1.29-3.5-2.56-5.62-3.81-.79-.46-1.27-1.12-1.44-2-.04-.21-.06-.42-.06-.62,0-.62.21-1.21.62-1.75.62-.79,1.44-1.29,2.44-1.5.29-.08.58-.12.88-.12.67,0,1.29.17,1.88.5,2.17,1.17,4.08,2.33,5.75,3.5ZM198.93,104.26c-.42.83-1.1,1.38-2.06,1.62-.29.04-.56.06-.81.06-.62,0-1.23-.21-1.81-.62l-.75-.5c-.83-.62-1.33-1.44-1.5-2.44-.08-.29-.12-.56-.12-.81,0-.71.21-1.4.62-2.06,2.46-4.12,4.96-8.79,7.5-14,.38-.83,1.02-1.35,1.94-1.56.21-.04.44-.06.69-.06.62,0,1.21.21,1.75.62.83.71,1.38,1.58,1.62,2.62.08.38.12.75.12,1.12,0,.67-.15,1.31-.44,1.94-2.12,4.79-4.38,9.48-6.75,14.06ZM194.74,55.64c-.79-.46-1.27-1.12-1.44-2-.04-.21-.06-.4-.06-.56,0-.67.23-1.27.69-1.81.67-.79,1.5-1.29,2.5-1.5.29-.04.58-.06.88-.06.67,0,1.31.17,1.94.5,2,1.08,3.83,2.21,5.5,3.38.83.62,1.29,1.46,1.38,2.5.04.12.06.25.06.38,0,.88-.29,1.67-.88,2.38l-.12.12c-.62.75-1.44,1.17-2.44,1.25h-.25c-.88,0-1.67-.27-2.38-.81-1.54-1.21-3.33-2.46-5.38-3.75ZM220.12,58.08c.25.5.38,1,.38,1.5,0,.46-.1.92-.31,1.38-.38.96-1.06,1.65-2.06,2.06l-.19.12c-.42.17-.85.25-1.31.25s-.9-.08-1.31-.25c-.92-.42-1.56-1.08-1.94-2-.75-1.71-1.65-3.5-2.69-5.38-.29-.5-.44-1.02-.44-1.56,0-.29.04-.6.12-.94.25-.88.79-1.5,1.62-1.88.58-.25,1.17-.38,1.75-.38.38,0,.75.06,1.12.19,1,.25,1.77.81,2.31,1.69,1.17,1.83,2.15,3.56,2.94,5.19ZM241.43,65.83c1,0,1.86.37,2.59,1.09.73.73,1.09,1.59,1.09,2.59v30c0,1.92-.22,3.4-.66,4.44-.44,1.04-1.24,1.85-2.41,2.44-1.46.71-3.77,1.1-6.94,1.19h-.12c-1,0-1.9-.31-2.69-.94-.83-.67-1.42-1.52-1.75-2.56,0-.04-.02-.1-.06-.19-.08-.29-.12-.58-.12-.88,0-.46.15-.92.44-1.38.46-.67,1.1-1,1.94-1h3.69c.46,0,.78-.09.97-.28s.28-.49.28-.91v-3.75c0-.33-.15-.5-.44-.5h-18.5c-.29,0-.44.17-.44.5v8.31c0,1-.37,1.86-1.09,2.59-.73.73-1.59,1.09-2.59,1.09h-.12c-1,0-1.87-.37-2.59-1.09s-1.09-1.59-1.09-2.59v-34.5c0-1,.36-1.86,1.09-2.59s1.59-1.09,2.59-1.09h9.44c.29,0,.44-.15.44-.44v-13.62c0-1.04.36-1.92,1.09-2.62.73-.71,1.59-1.06,2.59-1.06h.31c1,0,1.86.35,2.59,1.06.73.71,1.09,1.58,1.09,2.62v13.62c0,.29.15.44.44.44h8.94ZM237.68,73.45c0-.33-.15-.5-.44-.5h-18.5c-.29,0-.44.17-.44.5v3.69c0,.33.15.5.44.5h18.5c.29,0,.44-.17.44-.5v-3.69ZM218.31,88.33c0,.33.15.5.44.5h18.5c.29,0,.44-.17.44-.5v-3.81c0-.33-.15-.5-.44-.5h-18.5c-.29,0-.44.17-.44.5v3.81ZM239.18,52.95c.42-.92,1.08-1.6,2-2.06.5-.25,1.02-.38,1.56-.38.42,0,.83.08,1.25.25l.44.19c.96.29,1.62.9,2,1.81.17.46.25.9.25,1.31,0,.46-.1.94-.31,1.44-1.04,2.04-2.06,3.94-3.06,5.69-.5.88-1.25,1.48-2.25,1.81-.46.17-.92.25-1.38.25-.5,0-1-.1-1.5-.31-.88-.29-1.48-.88-1.81-1.75-.12-.38-.19-.75-.19-1.12,0-.46.12-.94.38-1.44.96-1.88,1.83-3.77,2.62-5.69Z" style="fill: #1d7068;"/>
      <path d="M267.58,102.83c-.58.88-1.42,1.38-2.5,1.5h-.56c-.83,0-1.62-.25-2.38-.75l-.31-.25c-.75-.54-1.19-1.29-1.31-2.25v-.38c0-.79.25-1.52.75-2.19,1.46-1.88,2.71-4.08,3.75-6.62.38-.92,1-1.58,1.88-2,.5-.25,1-.38,1.5-.38.38,0,.77.06,1.19.19.96.38,1.65,1,2.06,1.88.25.5.38,1.02.38,1.56,0,.42-.06.81-.19,1.19-1.25,3.42-2.67,6.25-4.25,8.5ZM285.39,90.64c-.62-.58-.94-1.29-.94-2.12,0-1.04.42-1.83,1.25-2.38l1.31-.81s.05-.09.03-.16c-.02-.06-.05-.09-.09-.09h-14.12c-1,0-1.87-.36-2.59-1.09-.73-.73-1.09-1.59-1.09-2.59v-24.81c0-1,.36-1.86,1.09-2.59s1.59-1.09,2.59-1.09h10.62c.29,0,.48-.15.56-.44.17-.5.31-.98.44-1.44.29-1,.85-1.81,1.69-2.44.71-.5,1.48-.75,2.31-.75h.5l1.88.25c.92.08,1.58.52,2,1.31.21.42.31.82.31,1.22s-.1.78-.31,1.16l-.38.75c-.08.08-.09.17-.03.25.06.08.16.12.28.12h13.69c1,0,1.86.37,2.59,1.09.73.73,1.09,1.59,1.09,2.59v24.81c0,1-.37,1.87-1.09,2.59s-1.59,1.09-2.59,1.09h-17.06s-.08.03-.12.09c-.04.06-.02.12.06.16,2.21,1.71,4.15,3.5,5.81,5.38.5.58.75,1.25.75,2,0,.21-.02.4-.06.56-.17,1-.67,1.79-1.5,2.38-.58.38-1.23.56-1.94.56-.25,0-.48-.02-.69-.06-.96-.17-1.77-.65-2.44-1.44-1.12-1.33-2.4-2.69-3.81-4.06ZM286.64,100.83h8.88c.83,0,1.45-.11,1.84-.34.4-.23.68-.7.84-1.41.25-.83.73-1.44,1.44-1.81.42-.25.85-.38,1.31-.38.33,0,.67.06,1,.19,1,.42,1.79,1.04,2.38,1.88.38.62.56,1.27.56,1.94,0,.29-.02.58-.06.88-.58,2.25-1.51,3.79-2.78,4.62-1.27.83-3.2,1.25-5.78,1.25h-10.38c-4.08,0-6.82-.62-8.22-1.84-1.4-1.23-2.09-3.51-2.09-6.84v-5.62c0-1,.35-1.86,1.06-2.59.71-.73,1.58-1.09,2.62-1.09h.19c1,0,1.86.37,2.59,1.09.73.73,1.09,1.59,1.09,2.59v5.5c0,.92.2,1.48.59,1.69.4.21,1.36.31,2.91.31ZM277.02,58.76c-.33,0-.5.15-.5.44v2.19c0,.33.17.5.5.5h24.88c.33,0,.5-.17.5-.5v-2.19c0-.29-.17-.44-.5-.44h-24.88ZM277.02,67.33c-.33,0-.5.15-.5.44v2.38c0,.29.17.44.5.44h24.88c.33,0,.5-.15.5-.44v-2.38c0-.29-.17-.44-.5-.44h-24.88ZM277.02,76.01c-.33,0-.5.17-.5.5v2.31c0,.29.17.44.5.44h24.88c.33,0,.5-.15.5-.44v-2.31c0-.33-.17-.5-.5-.5h-24.88ZM304.96,94.14c-.54-.58-.81-1.25-.81-2,0-.12.02-.25.06-.38.08-.92.51-1.62,1.28-2.12.77-.5,1.61-.75,2.53-.75h.44c1.04.08,1.94.5,2.69,1.25,2.79,2.79,5.06,5.5,6.81,8.12.38.62.56,1.27.56,1.94,0,.29-.04.6-.12.94-.25,1-.83,1.79-1.75,2.38l-.38.25c-.54.33-1.12.5-1.75.5-.29,0-.58-.02-.88-.06-.92-.25-1.65-.81-2.19-1.69-1.71-2.75-3.88-5.54-6.5-8.38Z" style="fill: #1d7068;"/>
      <path d="M337.98,103.14c-1.67,0-3.05-.58-4.16-1.75-1.1-1.17-1.66-2.62-1.66-4.38s.55-3.21,1.66-4.38c1.1-1.17,2.49-1.75,4.16-1.75s3.06.58,4.19,1.75c1.12,1.17,1.69,2.62,1.69,4.38s-.56,3.21-1.69,4.38-2.52,1.75-4.19,1.75Z" style="fill: #1d7068;"/>
      <path d="M365.13,103.14c-1.67,0-3.05-.58-4.16-1.75-1.1-1.17-1.66-2.62-1.66-4.38s.55-3.21,1.66-4.38c1.1-1.17,2.49-1.75,4.16-1.75s3.06.58,4.19,1.75c1.12,1.17,1.69,2.62,1.69,4.38s-.56,3.21-1.69,4.38-2.52,1.75-4.19,1.75Z" style="fill: #1d7068;"/>
      <path d="M392.28,103.14c-1.67,0-3.05-.58-4.16-1.75-1.1-1.17-1.66-2.62-1.66-4.38s.55-3.21,1.66-4.38c1.1-1.17,2.49-1.75,4.16-1.75s3.06.58,4.19,1.75c1.12,1.17,1.69,2.62,1.69,4.38s-.56,3.21-1.69,4.38-2.52,1.75-4.19,1.75Z" style="fill: #1d7068;"/>
    </g>
  </g>
</svg>