<?xml version="1.0" encoding="UTF-8"?>
<svg id="_喇뒨쏛_2" data-name="喇뒨쏛 2" xmlns="http://www.w3.org/2000/svg" width="101.58" height="49.57" viewBox="0 0 101.58 49.57">
  <g id="_喇뒨쏛_1-2" data-name="喇뒨쏛 1">
    <g>
      <path d="M0,37.54c-.05-6.61,5.49-12.22,12.07-12.22,6.32,0,11.94,5.44,12.17,11.8.23,6.42-5.39,12.27-11.96,12.46C5.79,49.75.06,44.14,0,37.54Z" style="fill: #dbdbdc;"/>
      <path d="M26.02,12.12C25.96,5.23,31.06.01,37.87,0c6.86-.01,12.08,5.17,12.1,11.98.01,6.49-5.21,11.82-11.75,11.99-6.77.18-12.13-5.03-12.19-11.85Z" style="fill: #dbdbdc;"/>
      <path d="M75.77,37.27c.06,6.73-5.24,12.22-11.89,12.31-6.42.08-11.79-5.23-11.9-11.76-.11-6.96,4.88-12.35,11.57-12.49,6.66-.14,12.16,5.24,12.21,11.95Z" style="fill: #dbdbdc;"/>
      <path d="M12.42,0c6.47.12,11.85,5.56,11.82,11.96-.02,6.56-5.7,12.11-12.29,12.01C5.22,23.87-.15,18.37,0,11.73.15,5.05,5.63-.13,12.42,0Z" style="fill: #dbdbdc;"/>
      <path d="M49.96,37.58c-.09,6.63-5.76,12.17-12.28,11.99-6.62-.18-11.78-5.72-11.66-12.5.11-6.48,5.5-11.77,11.95-11.75,6.61.02,12.08,5.62,11.99,12.26Z" style="fill: #dbdbdc;"/>
      <path d="M51.99,11.9C51.99,5.02,56.86.05,63.64,0c6.94-.05,12.14,5.09,12.12,11.98-.02,6.65-5.18,11.91-11.77,12-6.87.09-12.01-5.08-12-12.08Z" style="fill: #dbdbdc;"/>
      <path d="M101.58,37.27c.06,6.73-5.24,12.22-11.89,12.31-6.42.08-11.79-5.23-11.9-11.76-.11-6.96,4.88-12.35,11.57-12.49,6.66-.14,12.16,5.24,12.21,11.95Z" style="fill: #dbdbdc;"/>
      <path d="M77.8,11.9c0-6.88,4.87-11.84,11.65-11.9,6.94-.05,12.14,5.09,12.12,11.98-.02,6.65-5.18,11.91-11.77,12-6.87.09-12.01-5.08-12-12.08Z" style="fill: #dbdbdc;"/>
    </g>
  </g>
</svg>