<?xml version="1.0" encoding="UTF-8"?>
<svg id="_圖層_2" data-name="圖層 2" xmlns="http://www.w3.org/2000/svg" width="254.8" height="80.04" viewBox="0 0 254.8 80.04">
  <g id="_設計" data-name="設計">
    <g>
      <path d="M170.31,65.82H21.63c-11.39,0-20.62-9.11-20.62-20.35v-24.11c0-11.24,9.23-20.35,20.62-20.35h211.55c11.39,0,20.62,9.11,20.62,20.35v24.11c0,11.24-9.23,20.35-20.62,20.35h-24.37s-31.03,13.05-31.03,13.05c-1.7.71-3.44-.92-2.8-2.63l3.91-10.41h-8.58Z" style="fill: #fff; stroke: #4b4c4e; stroke-linecap: round; stroke-linejoin: round; stroke-width: 2.01px;"/>
      <g>
        <path d="M27.98,40.75c0,.14.06.2.18.2h8.96c.32,0,.6.11.83.34s.34.5.34.83-.11.6-.34.83-.5.34-.83.34h-20.77c-.32,0-.6-.11-.83-.34s-.34-.5-.34-.83.11-.6.34-.83.5-.34.83-.34h8.96c.12,0,.18-.07.18-.2v-5.59c0-.14-.06-.2-.18-.2h-6.09c-.3,0-.57-.11-.8-.34s-.34-.5-.34-.81.11-.58.34-.81.5-.34.8-.34h6.09c.12,0,.18-.06.18-.18v-4.82c0-.12-.06-.18-.18-.18h-5.38c-.14,0-.23.06-.28.18-.58,1.05-1.14,1.98-1.7,2.79-.22.29-.51.45-.86.48-.07.02-.14.03-.2.03-.29,0-.56-.08-.81-.25-.27-.19-.44-.44-.51-.76-.02-.08-.03-.16-.03-.23,0-.24.08-.46.25-.66,1.42-1.83,2.58-4.22,3.48-7.19.1-.36.31-.62.63-.79.2-.14.42-.2.66-.2.1,0,.21.02.33.05.34.07.59.25.76.56.12.19.18.38.18.58,0,.12-.03.25-.08.38-.25.75-.55,1.57-.89,2.46-.02.05-.01.09.01.13s.05.05.09.05h4.32c.14,0,.2-.06.2-.18v-3.4c0-.34.12-.63.37-.88s.54-.37.88-.37.63.12.88.37.37.54.37.88v3.4c0,.12.06.18.18.18h7.69c.32,0,.6.12.84.36s.36.52.36.84-.12.6-.36.84-.52.36-.84.36h-7.69c-.12,0-.18.06-.18.18v4.82c0,.12.06.18.18.18h6.75c.32,0,.6.11.83.34s.34.5.34.81-.11.58-.34.81-.5.34-.83.34h-6.75c-.12,0-.18.07-.18.2v5.59Z" style="fill: #4b4c4e;"/>
        <path d="M48.51,30.17c.29.15.47.39.53.71.02.1.03.19.03.28,0,.22-.06.42-.18.61-.19.29-.44.47-.76.53-.1.02-.19.03-.28.03-.22,0-.43-.07-.63-.2-.86-.52-1.79-1.06-2.79-1.6-.25-.14-.42-.35-.48-.63-.02-.08-.03-.16-.03-.23,0-.2.06-.39.18-.56.2-.25.46-.42.76-.51.1-.02.21-.03.33-.03.19,0,.38.04.58.13,1.07.56,1.98,1.05,2.74,1.47ZM46.66,43.24c-.17.3-.42.48-.76.53-.08.02-.16.03-.23.03-.25,0-.49-.08-.71-.25-.27-.22-.43-.52-.48-.89-.02-.07-.03-.14-.03-.23,0-.27.08-.52.23-.76,1.24-1.86,2.44-3.89,3.61-6.09.15-.27.37-.43.66-.48h.18c.22,0,.42.08.58.23.27.24.43.53.48.89.02.1.03.19.03.28,0,.24-.05.47-.15.71-1.08,2.1-2.22,4.11-3.4,6.04ZM49.83,23.18c.29.17.47.42.53.74v.23c0,.22-.07.43-.2.63-.2.27-.47.43-.81.48-.07.02-.14.03-.23.03-.24,0-.47-.07-.69-.2-.75-.46-1.68-1.01-2.79-1.65-.25-.14-.41-.35-.47-.63s0-.54.19-.76c.2-.25.46-.42.76-.48.1-.02.2-.03.3-.03.2,0,.4.04.58.13,1.05.54,1.99,1.05,2.82,1.52ZM66.8,28.71c.23.23.34.5.34.81s-.11.58-.34.81-.5.34-.83.34h-5.54c-.12,0-.18.06-.18.18v3.48c0,.14.06.2.18.2h3.68c.41,0,.76.14,1.05.43s.44.64.44,1.07v7.36c0,.3-.11.57-.34.8s-.5.34-.83.34h-.28c-.24,0-.44-.08-.61-.25-.17-.17-.25-.37-.25-.61,0-.07-.03-.1-.1-.1h-8.38c-.08,0-.13.04-.13.13,0,.27-.09.5-.28.69-.19.19-.42.28-.69.28h-.13c-.3,0-.57-.11-.79-.33-.22-.22-.33-.48-.33-.79v-7.52c0-.42.15-.78.44-1.07s.65-.43,1.05-.43h3.78c.12,0,.18-.07.18-.2v-3.48c0-.12-.06-.18-.18-.18h-5.89c-.32,0-.59-.11-.81-.34s-.33-.5-.33-.81.11-.58.33-.81.49-.34.81-.34h5.89c.12,0,.18-.07.18-.2v-3.3c0-.14-.06-.19-.18-.15-1.34.2-2.72.36-4.14.48-.05.02-.09.03-.13.03-.25,0-.49-.08-.71-.25-.25-.17-.43-.41-.53-.71-.08-.25-.06-.5.08-.72s.33-.36.58-.39c4.18-.47,7.52-1.08,10-1.83.22-.07.44-.1.66-.1.19,0,.36.03.53.08.41.08.75.27,1.04.56.17.17.25.36.25.56,0,.07,0,.14-.03.2-.07.3-.25.51-.56.61-1.25.39-2.72.74-4.39,1.04-.12.02-.18.09-.18.23v3.68c0,.14.06.2.18.2h5.54c.32,0,.6.11.83.34ZM63.13,41.39c.12,0,.18-.07.18-.2v-4.29c0-.12-.06-.18-.18-.18h-8.23c-.14,0-.2.06-.2.18v4.29c0,.14.07.2.2.2h8.23Z" style="fill: #4b4c4e;"/>
        <path d="M85.08,25.19c0,.12.07.18.2.18h7.59c.41,0,.76.15,1.05.44s.44.65.44,1.05v9.67c0,.34-.12.63-.37.89s-.55.38-.9.38h-.03c-.34,0-.63-.12-.88-.37s-.37-.55-.37-.9c0-.1-.05-.15-.15-.15h-6.4c-.14,0-.2.07-.2.2v6.8c0,.36-.12.66-.37.9-.25.25-.54.37-.89.37s-.64-.12-.89-.37c-.25-.25-.37-.55-.37-.9v-6.8c0-.14-.07-.2-.2-.2h-6.37c-.1,0-.15.06-.15.18v.15c0,.34-.12.63-.36.86s-.52.36-.86.36-.63-.12-.86-.36-.36-.52-.36-.86v-9.85c0-.41.15-.76.44-1.05s.65-.44,1.05-.44h7.46c.14,0,.2-.06.2-.18v-3.07c0-.36.12-.66.37-.9s.54-.37.89-.37.64.12.89.37.37.55.37.9v3.07ZM75.84,33.85c0,.12.06.18.18.18h6.35c.14,0,.2-.06.2-.18v-5.92c0-.14-.07-.2-.2-.2h-6.35c-.12,0-.18.07-.18.2v5.92ZM85.08,33.85c0,.12.07.18.2.18h6.37c.12,0,.18-.06.18-.18v-5.92c0-.14-.06-.2-.18-.2h-6.37c-.14,0-.2.07-.2.2v5.92Z" style="fill: #4b4c4e;"/>
        <path d="M116.2,24.66c-.02.05-.01.1.01.14s.06.06.11.06h5.84c.42,0,.78.14,1.07.43.27.29.41.63.41,1.02,0,4.03-.2,8.14-.61,12.34-.24,2.3-.6,3.77-1.09,4.39-.32.41-.65.69-.98.86-.33.17-.76.3-1.28.38-.41.03-.94.05-1.6.05h-1.09c-.36-.02-.66-.14-.93-.38-.26-.24-.45-.53-.57-.89-.08-.27-.05-.52.09-.74s.35-.32.62-.3c.95.03,1.81.05,2.59.05.49,0,.85-.14,1.09-.43.41-.42.71-1.69.93-3.8s.4-5.64.57-10.6c0-.12-.06-.18-.18-.18h-5.76c-.12,0-.2.06-.25.18-.49,1.07-.99,2.04-1.5,2.92-.2.34-.5.54-.89.61-.1.02-.19.03-.28.03-.29,0-.57-.09-.84-.28-.19-.14-.36-.25-.53-.36-.03-.02-.07-.02-.1,0s-.05.05-.05.1v10.23c0,.42-.15.78-.44,1.07s-.65.43-1.05.43h-5.36c-.14,0-.2.07-.2.2v.69c0,.3-.11.56-.32.77-.21.21-.47.32-.77.32s-.57-.11-.79-.32c-.22-.21-.33-.47-.33-.77v-16.4c0-.42.15-.78.44-1.07s.65-.43,1.05-.43h1.22c.14,0,.22-.06.25-.18.25-.9.47-1.8.63-2.72.07-.37.25-.66.56-.86.22-.17.47-.25.74-.25.08,0,.16,0,.23.03.36.05.62.23.79.53.12.17.18.36.18.56,0,.12-.03.25-.08.38-.3.85-.59,1.62-.86,2.34-.02.03,0,.07.03.11s.07.06.1.06h2.49c.41,0,.76.14,1.05.43s.44.64.44,1.07v3.22s.01.05.04.06.05,0,.06-.04c1.46-1.95,2.62-4.54,3.48-7.79.08-.32.27-.58.56-.76.19-.12.39-.18.61-.18.1,0,.19.02.28.05.32.07.57.25.74.53.12.19.18.37.18.56,0,.12-.02.23-.05.33-.24.81-.47,1.54-.69,2.18ZM108.78,27.27c0-.12-.07-.18-.2-.18h-4.44c-.14,0-.2.06-.2.18v4.57c0,.12.07.18.2.18h4.44c.14,0,.2-.06.2-.18v-4.57ZM103.93,39.69c0,.12.07.18.2.18h4.44c.14,0,.2-.06.2-.18v-5.36c0-.14-.07-.2-.2-.2h-4.44c-.14,0-.2.07-.2.2v5.36ZM118.86,35.52c.12.2.18.41.18.61,0,.1-.02.21-.05.33-.08.32-.27.57-.56.74-.17.12-.36.18-.56.18-.1,0-.2-.02-.3-.05-.3-.08-.53-.26-.69-.53-.66-1.17-1.53-2.52-2.62-4.06-.12-.17-.18-.36-.18-.56,0-.07,0-.14.03-.23.07-.29.22-.5.46-.63.2-.1.41-.15.61-.15.08,0,.18,0,.28.03.3.05.55.2.74.46,1.13,1.52,2.02,2.82,2.67,3.88Z" style="fill: #4b4c4e;"/>
        <path d="M134.08,21.94c.12-.3.32-.52.61-.66.17-.08.34-.13.51-.13.12,0,.24.02.36.05.3.1.52.29.66.56.07.15.1.3.1.46,0,.12-.03.25-.08.38-.59,1.47-1.25,2.87-1.98,4.19-.05.12-.08.24-.08.36v16.38c0,.32-.11.59-.33.81-.22.22-.49.33-.8.33s-.58-.11-.8-.33c-.22-.22-.33-.49-.33-.81v-12.77s-.02-.03-.05-.04-.06,0-.08.01c-.34.46-.67.88-.99,1.27-.17.2-.38.3-.63.3-.05,0-.09,0-.13-.03-.32-.03-.56-.19-.71-.47s-.23-.58-.23-.9v-.2c.05-.39.2-.74.46-1.04,1.83-2.17,3.33-4.74,4.52-7.72ZM149.52,37.96c.19-.22.42-.37.71-.46.14-.05.27-.08.41-.08s.27.03.41.08c.24.08.4.25.48.48s.05.45-.1.63c-.63.83-1.37,1.62-2.23,2.36-.1.08-.12.18-.05.28.56.93,1.18,1.4,1.85,1.4.2,0,.36-.08.47-.25s.19-.47.24-.89c.02-.19.11-.31.29-.38s.35-.06.52.03c.24.15.42.35.56.58.1.17.15.35.15.53,0,.07,0,.14-.03.2-.17.85-.43,1.43-.79,1.74-.36.31-.87.47-1.55.47-1.34,0-2.45-.71-3.35-2.13-.07-.1-.15-.12-.25-.05-.71.49-1.45.94-2.21,1.35-.17.1-.36.15-.56.15-.08,0-.18-.02-.28-.05-.29-.07-.53-.21-.74-.43-.17-.19-.23-.4-.18-.65s.19-.43.41-.55c.91-.44,1.82-.96,2.72-1.57.1-.07.13-.16.08-.28-.36-.96-.64-2.1-.86-3.4-.02-.12-.08-.18-.2-.18h-3.71c-.14,0-.2.06-.2.18v1.12c0,.12.07.17.2.15l1.93-.23c.24-.03.44.03.62.18s.27.35.27.58c.02.25-.05.47-.22.66s-.37.3-.62.33l-1.98.25c-.14.02-.2.08-.2.2v2.18c0,.52-.06.92-.19,1.19-.13.27-.37.48-.72.63-.44.15-1.2.25-2.29.28-.27,0-.52-.08-.74-.25-.22-.17-.38-.39-.48-.66-.07-.22-.04-.42.08-.6s.29-.26.51-.24h.69c.27,0,.48,0,.63-.03.15,0,.25-.03.29-.08s.06-.14.06-.28v-1.9c0-.12-.06-.17-.18-.15-1.12.12-2.07.23-2.87.33-.25.03-.47-.03-.66-.18-.22-.17-.33-.4-.33-.69,0-.22.07-.41.2-.56.15-.2.35-.31.58-.33,1.46-.17,2.48-.29,3.07-.36.12-.02.18-.08.18-.2v-1.37c0-.12-.06-.18-.18-.18h-3c-.24,0-.44-.08-.6-.25s-.24-.37-.24-.6.08-.43.24-.6.36-.25.6-.25h3c.12,0,.18-.06.18-.18v-1.12c0-.12-.06-.17-.18-.15-.76.08-1.57.16-2.41.23-.22.02-.42-.04-.61-.18s-.31-.31-.38-.53c-.07-.19-.05-.36.05-.52s.25-.25.43-.27c2.25-.2,4.18-.48,5.79-.84.15-.03.3-.05.43-.05.44,0,.82.18,1.14.53.15.15.19.33.13.55s-.21.34-.43.39c-.46.1-.99.2-1.6.3-.14.02-.2.09-.2.23v1.42c0,.12.07.18.2.18h3.45c.14,0,.19-.06.18-.18-.14-1.22-.2-2.03-.2-2.44,0-.27.09-.5.28-.69.2-.2.45-.3.74-.3s.54.1.75.3.33.45.34.74c.03.85.09,1.64.18,2.39.02.12.08.18.2.18h4.62c.24,0,.44.08.6.25s.24.37.24.6-.08.43-.24.6-.36.25-.6.25h-4.37c-.14,0-.19.06-.15.18.17.85.33,1.52.48,2.03.02.03.05.06.09.08s.08,0,.11-.03c.41-.39.77-.79,1.09-1.19ZM136.61,24.74c-.16-.16-.24-.36-.24-.6s.08-.44.24-.6.35-.24.57-.24h2.62c.05,0,.08-.02.1-.05s.02-.07,0-.1c-.19-.3-.36-.58-.53-.84-.14-.22-.17-.45-.1-.69s.22-.4.46-.48c.17-.05.33-.08.48-.08.14,0,.27.02.41.05.29.07.52.23.71.48.42.56.76,1.08,1.02,1.55.05.1.14.15.28.15h3.22c.14,0,.24-.05.3-.15.27-.41.53-.85.79-1.32.17-.3.42-.52.74-.66.19-.08.38-.13.58-.13.14,0,.27.02.41.05.29.08.48.27.58.56.03.1.05.19.05.28,0,.17-.06.33-.18.48-.19.25-.38.5-.58.74-.02.03-.02.07,0,.1s.04.05.08.05h2.69c.24,0,.44.08.6.24s.24.36.24.6-.08.44-.24.6-.36.24-.6.24h-5.84c-.12,0-.18.06-.18.18v.91c0,.14.06.2.18.2h5c.22,0,.41.08.56.23s.23.34.23.56-.08.41-.23.56-.34.23-.56.23h-5c-.12,0-.18.07-.18.2v1.02c0,.14.06.2.18.2h6.63c.24,0,.44.08.61.25s.25.37.25.61-.08.44-.25.61-.37.25-.61.25h-15.62c-.24,0-.44-.08-.61-.25s-.25-.37-.25-.61.08-.44.25-.61.37-.25.61-.25h6.27c.14,0,.2-.07.2-.2v-1.02c0-.14-.07-.2-.2-.2h-4.72c-.22,0-.41-.08-.57-.23s-.24-.34-.24-.56.08-.41.24-.56.35-.23.57-.23h4.72c.14,0,.2-.07.2-.2v-.91c0-.12-.07-.18-.2-.18h-5.56c-.22,0-.41-.08-.57-.24ZM148.66,32.98c-.17-.14-.25-.31-.25-.52s.08-.38.25-.52c.22-.15.46-.23.71-.24s.49.06.71.22c.63.42,1.16.84,1.6,1.24.19.17.27.38.25.63s-.13.46-.33.61c-.22.17-.46.24-.72.22s-.49-.13-.67-.32c-.44-.42-.96-.86-1.55-1.32Z" style="fill: #4b4c4e;"/>
        <path d="M180.89,25.79c.24.23.36.51.36.84s-.12.61-.36.84-.52.34-.84.34h-5.94c-.12,0-.18.07-.18.2.2,2.71.52,5.13.96,7.26s.98,3.82,1.62,5.07,1.33,1.87,2.06,1.87c.52,0,.86-1.18,1.02-3.53.02-.25.15-.43.39-.53s.47-.08.67.08c.34.22.6.49.79.81.15.25.23.52.23.81v.2c-.22,1.79-.58,3.03-1.07,3.69-.49.67-1.24,1-2.23,1s-1.96-.43-2.78-1.29-1.51-2.07-2.07-3.63-1.01-3.31-1.36-5.27-.61-4.13-.77-6.54c0-.14-.07-.2-.2-.2h-11.81c-.32,0-.6-.11-.84-.34s-.36-.51-.36-.84.12-.61.36-.84.52-.34.84-.34h11.65c.12,0,.18-.06.18-.18-.05-1.64-.08-2.66-.08-3.05,0-.34.12-.63.36-.89.25-.25.56-.38.93-.38s.67.13.91.38.37.56.37.91c0,.95.03,1.96.08,3.02,0,.12.06.18.18.18h6.09c.32,0,.6.11.84.34ZM166.06,33.62c-.14,0-.2.06-.2.18v6.09c0,.14.07.19.2.15,1.08-.19,2.4-.45,3.96-.79h.2c.2,0,.4.06.58.18.25.2.38.47.38.81,0,.27-.08.52-.25.74-.19.25-.43.42-.74.48-2.42.56-5.75,1.3-9.98,2.23-.1.02-.2.03-.3.03-.24,0-.47-.07-.69-.2-.3-.19-.51-.45-.61-.79-.03-.1-.05-.21-.05-.33,0-.2.06-.4.18-.58.19-.29.45-.47.79-.53.42-.07,1.67-.3,3.73-.69.12-.02.18-.08.18-.2v-6.6c0-.12-.06-.18-.18-.18h-2.97c-.32,0-.6-.11-.83-.34s-.34-.5-.34-.83.11-.6.34-.83.5-.34.83-.34h8.96c.32,0,.6.11.83.34s.34.5.34.83-.11.6-.34.83-.5.34-.83.34h-3.2ZM175.94,22.9c-.2-.17-.31-.38-.32-.65s.09-.48.29-.65c.24-.2.51-.31.81-.33h.08c.27,0,.52.08.76.25.75.54,1.41,1.08,1.98,1.6.2.2.3.45.3.74,0,.32-.12.59-.36.81-.22.2-.47.3-.74.3-.03,0-.06,0-.08-.03-.32-.02-.59-.14-.81-.36-.58-.58-1.22-1.14-1.93-1.7Z" style="fill: #4b4c4e;"/>
        <path d="M199.03,35.35v.03s-.03.05-.08.05h-5.61c-.41,0-.76-.14-1.05-.43s-.44-.64-.44-1.07v-2.49c0-.41.15-.76.44-1.05s.65-.44,1.05-.44h4.19c.41,0,.76.15,1.05.44s.44.65.44,1.05v3.17c0,.05.02.08.05.1s.07.02.1,0c.95-.66,1.83-1.43,2.64-2.31.08-.08.1-.19.05-.3-.9-1.84-1.57-4.05-2.03-6.63-.03-.12-.11-.18-.23-.18h-8.63c-.14,0-.2.06-.2.18v1.78c0,3.96-.73,7.08-2.18,9.37-.15.25-.39.4-.71.43h-.08c-.27,0-.51-.09-.71-.28-.25-.2-.4-.46-.43-.76-.02-.07-.03-.14-.03-.23,0-.22.06-.43.18-.63,1.17-1.9,1.75-4.54,1.75-7.92v-2.39c0-.41.15-.76.44-1.05s.65-.44,1.05-.44h9.27c.12,0,.17-.06.15-.18-.08-.69-.13-1.13-.13-1.29,0-.27.1-.51.3-.71.2-.22.47-.33.79-.33s.6.11.83.33.35.49.37.81c.03.41.07.8.1,1.19.02.12.09.18.23.18h3.53s.05-.01.06-.04,0-.05-.04-.06c-.56-.32-1.15-.62-1.78-.89-.22-.1-.36-.26-.41-.47s0-.4.15-.57c.19-.22.41-.36.67-.43s.52-.06.77.03c.68.27,1.31.57,1.9.89.25.14.41.36.46.66v.15c0,.24-.08.45-.23.63-.02.02-.02.04-.01.06s.03.04.06.04h1.5c.27,0,.5.1.69.29s.28.42.28.69-.09.49-.28.69-.42.29-.69.29h-6.35c-.14,0-.19.06-.15.18.32,1.68.76,3.2,1.32,4.57.02.03.05.05.09.05s.07-.02.09-.05c.51-.83.96-1.72,1.35-2.67.12-.3.32-.54.61-.71.2-.1.42-.15.63-.15.1,0,.2,0,.3.03.3.07.52.24.66.51.08.15.13.31.13.48,0,.12-.03.24-.08.36-.68,1.62-1.5,3.11-2.46,4.47-.07.1-.07.2,0,.3.93,1.41,1.83,2.11,2.69,2.11.25,0,.45-.17.6-.5s.25-.87.32-1.61c.03-.22.16-.38.37-.48s.42-.09.62.03c.29.15.51.37.66.66.12.2.18.42.18.63,0,.08,0,.16-.03.23-.2,1.22-.52,2.06-.94,2.53s-1.06.7-1.9.7c-1.46,0-2.8-.84-4.04-2.51-.08-.1-.17-.1-.25,0-.51.51-1.01.96-1.5,1.37-.29.22-.6.33-.94.33h-.18c-.41-.05-.78-.22-1.12-.51-.08-.1-.18-.19-.28-.28ZM189.25,43.34c-.24.27-.54.41-.91.43h-.1c-.32,0-.62-.09-.89-.28-.25-.17-.38-.42-.38-.76,0-.27.1-.51.3-.71.83-.83,1.51-1.89,2.03-3.17.12-.29.31-.5.58-.63.17-.07.33-.1.48-.1.14,0,.26.02.38.05.3.12.52.31.66.58.07.17.1.33.1.48,0,.14-.02.26-.05.38-.59,1.57-1.33,2.82-2.21,3.73ZM198.52,26.79c.22,0,.41.08.57.24s.24.35.24.57-.08.41-.24.57-.35.24-.57.24h-6.14c-.24,0-.43-.08-.58-.24s-.23-.35-.23-.57.08-.41.23-.57.35-.24.58-.24h6.14ZM196.94,42.2h4.19c.42,0,.72-.09.9-.27s.3-.55.37-1.13c.02-.25.14-.45.38-.58s.48-.15.74-.05c.32.12.58.32.76.61.15.22.23.45.23.69,0,.07,0,.14-.03.23-.19,1.03-.5,1.73-.95,2.11-.45.37-1.17.56-2.17.56h-4.65c-1.47,0-2.46-.2-2.96-.61s-.75-1.18-.75-2.31v-2.51c0-.34.12-.63.36-.86s.52-.36.85-.36.61.12.84.36.34.52.34.86v2.49c0,.34.09.55.28.65s.61.14,1.27.14ZM196.82,33.8c.14,0,.2-.07.2-.2v-1.83c0-.12-.07-.18-.2-.18h-2.82c-.12,0-.18.06-.18.18v1.83c0,.14.06.2.18.2h2.82ZM196.05,37.45c-.22-.12-.34-.3-.37-.56s.05-.47.24-.63c.25-.2.53-.32.84-.36h.18c.24,0,.47.06.71.18.96.58,1.8,1.16,2.51,1.75.22.19.33.42.33.71,0,.32-.13.58-.38.79-.22.19-.47.28-.74.28h-.08c-.3,0-.58-.11-.81-.33-.69-.63-1.51-1.24-2.44-1.83ZM204.69,39.28c-.17-.15-.25-.34-.25-.56,0-.34.14-.58.43-.71.24-.14.49-.2.76-.2.07,0,.14,0,.2.03.34.03.63.16.86.38,1.22,1.13,2.21,2.29,2.97,3.45.12.19.18.38.18.58,0,.1-.02.21-.05.33-.1.32-.3.57-.61.74-.19.08-.37.13-.56.13-.12,0-.25-.03-.38-.08-.32-.1-.57-.3-.74-.58-.69-1.15-1.63-2.32-2.82-3.5Z" style="fill: #4b4c4e;"/>
        <path d="M219.18,42.38c-.38.39-.85.58-1.42.58s-1.04-.2-1.42-.58c-.38-.39-.57-.88-.57-1.49s.19-1.11.57-1.52.85-.62,1.42-.62,1.04.21,1.42.62.57.92.57,1.52-.19,1.1-.57,1.49Z" style="fill: #4b4c4e;"/>
        <path d="M229.53,42.38c-.38.39-.85.58-1.42.58s-1.04-.2-1.42-.58c-.38-.39-.57-.88-.57-1.49s.19-1.11.57-1.52.85-.62,1.42-.62,1.04.21,1.42.62.57.92.57,1.52-.19,1.1-.57,1.49Z" style="fill: #4b4c4e;"/>
        <path d="M239.87,42.38c-.38.39-.85.58-1.42.58s-1.04-.2-1.42-.58c-.38-.39-.57-.88-.57-1.49s.19-1.11.57-1.52.85-.62,1.42-.62,1.04.21,1.42.62.57.92.57,1.52-.19,1.1-.57,1.49Z" style="fill: #4b4c4e;"/>
      </g>
    </g>
  </g>
</svg>