<?xml version="1.0" encoding="UTF-8"?>
<svg id="_圖層_2" data-name="圖層 2" xmlns="http://www.w3.org/2000/svg" width="254.8" height="80.04" viewBox="0 0 254.8 80.04">
  <g id="_設計" data-name="設計">
    <g>
      <path d="M170.31,65.82H21.63c-11.39,0-20.62-9.11-20.62-20.35v-24.11c0-11.24,9.23-20.35,20.62-20.35h211.55c11.39,0,20.62,9.11,20.62,20.35v24.11c0,11.24-9.23,20.35-20.62,20.35h-24.37s-31.03,13.05-31.03,13.05c-1.7.71-3.44-.92-2.8-2.63l3.91-10.41h-8.58Z" style="fill: #fff; stroke: #4b4c4e; stroke-linecap: round; stroke-linejoin: round; stroke-width: 2.01px;"/>
      <g>
        <path d="M37.43,37.1c.27,0,.5.09.7.28.19.19.29.42.29.69s-.1.5-.29.7c-.19.19-.43.29-.7.29h-4.82c-.14,0-.2.06-.2.18v3.02c0,.59-.08,1.05-.24,1.37-.16.32-.47.57-.93.74-.58.2-1.63.3-3.17.3-.3,0-.58-.1-.84-.3s-.44-.46-.56-.76c-.08-.24-.06-.46.08-.67.14-.21.33-.32.58-.32.52.02.96.03,1.29.03.41,0,.71,0,.91-.03.2-.02.34-.05.41-.11.07-.06.1-.17.1-.32v-2.95c0-.12-.06-.18-.18-.18h-8.25s-.05.01-.06.04,0,.05.01.06c.95.61,1.79,1.24,2.54,1.9.24.2.36.46.36.76,0,.34-.13.62-.38.84-.24.2-.51.3-.81.3h-.05c-.32-.02-.61-.14-.86-.38-.61-.56-1.32-1.14-2.13-1.75-.29-.22-.43-.52-.43-.89,0-.3.12-.57.36-.79.02-.02.02-.04,0-.06s-.03-.04-.05-.04h-4.11c-.27,0-.5-.1-.7-.29-.19-.19-.29-.43-.29-.7s.1-.5.29-.69c.19-.19.43-.28.7-.28h13.89c.12,0,.18-.07.18-.2v-.94c0-.12-.06-.18-.18-.18-4.93.12-9.21.2-12.85.25-.25.02-.47-.06-.66-.24s-.28-.39-.28-.65c-.02-.25.06-.47.23-.65s.38-.27.63-.27c1.39,0,4.16-.02,8.33-.05.14,0,.2-.06.2-.18v-.84c0-.14-.07-.2-.2-.2h-6.04c-.42,0-.78-.14-1.07-.43-.29-.29-.43-.64-.43-1.07v-4.21c0-.41.14-.76.43-1.05.29-.3.64-.44,1.07-.44h6.04c.14,0,.2-.06.2-.18v-.84c0-.14-.07-.2-.2-.2h-8.61c-.27,0-.5-.09-.67-.27s-.27-.4-.27-.66.09-.48.27-.66.4-.27.67-.27h8.61c.14,0,.2-.07.2-.2v-.46c0-.32.11-.6.34-.83s.51-.34.84-.34.61.11.84.34.34.5.34.83v.46c0,.14.07.2.2.2h8.46c.25,0,.47.09.66.27s.28.4.28.66-.09.48-.28.66-.41.27-.66.27h-8.46c-.14,0-.2.07-.2.2v.84c0,.12.07.18.2.18h6.3c.42,0,.78.15,1.07.44.29.3.43.65.43,1.05v4.21c0,.42-.14.78-.43,1.07-.29.29-.64.43-1.07.43h-.71s-.05.01-.05.04,0,.04.03.04c1.12.51,2.14,1.08,3.07,1.7.2.14.31.33.33.58s-.07.47-.25.63c-.2.19-.44.28-.72.29-.28,0-.54-.06-.77-.22-.12-.08-.25-.18-.41-.28-.12-.07-.24-.1-.36-.1l-1.88.03c-.14.02-.2.08-.2.2v1.02c0,.14.07.2.2.2h4.82ZM20.19,27.32c-.12,0-.18.06-.18.18v.94c0,.12.06.18.18.18h5.08c.14,0,.2-.06.2-.18v-.94c0-.12-.07-.18-.2-.18h-5.08ZM20.01,31.26c0,.14.06.2.18.2h5.08c.14,0,.2-.07.2-.2v-.96c0-.14-.07-.2-.2-.2h-5.08c-.12,0-.18.07-.18.2v.96ZM33.47,27.5c0-.12-.06-.18-.18-.18h-5.26c-.14,0-.2.06-.2.18v.94c0,.12.07.18.2.18h5.26c.12,0,.18-.06.18-.18v-.94ZM33.29,31.46c.12,0,.18-.07.18-.2v-.96c0-.14-.06-.2-.18-.2h-5.26c-.14,0-.2.07-.2.2v.96c0,.14.07.2.2.2h5.26ZM28.03,32.96c-.14,0-.2.07-.2.2v.84c0,.12.07.18.2.18l3.78-.05s.05-.01.05-.04,0-.04-.03-.04c-.25-.12-.51-.24-.76-.36-.15-.05-.24-.15-.27-.3s.02-.28.14-.38c.02,0,.02-.02,0-.05h-2.92Z" style="fill: #4b4c4e;"/>
        <path d="M53.61,35.47s-.02.05,0,.09c.02.04.04.06.08.06h10.82c.41,0,.75.14,1.02.43.27.27.41.59.41.96,0,1.54-.14,3.17-.41,4.9-.17,1-.39,1.67-.66,2.01-.32.41-.79.63-1.4.69-.29.03-.72.05-1.29.05h-.23c-.2,0-.38-.07-.55-.2-.16-.14-.26-.3-.29-.51v-.03c-.02-.05-.04-.06-.08-.03-.17.07-.33.08-.5.03s-.29-.14-.39-.28c-.03-.05-.07-.1-.1-.15-.05-.05-.11-.08-.18-.08-4.57.24-7.99.41-10.26.51-.24,0-.44-.08-.62-.23s-.28-.35-.29-.58c-.02-.22.05-.42.19-.58s.33-.25.57-.25c1.54-.03,3.17-.08,4.9-.13.12,0,.18-.07.18-.2v-.63c0-.12-.06-.18-.18-.18h-2.74c-.41,0-.76-.15-1.05-.44-.3-.3-.44-.65-.44-1.05v-.56s-.02-.06-.05-.08c-.03-.02-.07-.02-.1,0-.02.02-.03.03-.05.03-.29.19-.59.28-.91.28h-.25c-.41-.07-.79-.24-1.14-.51-.03-.03-.07-.06-.1-.09s-.07-.03-.11-.01c-.04.02-.07.05-.09.1-.39,1.81-.91,3.38-1.55,4.7-.14.29-.36.47-.69.53-.08.03-.18.05-.28.05-.2,0-.41-.06-.61-.18-.27-.15-.46-.38-.56-.69-.03-.12-.05-.25-.05-.38,0-.17.03-.34.1-.51.46-.91.83-1.93,1.13-3.03.3-1.11.5-2.26.62-3.47.12-1.2.2-2.26.24-3.16.04-.91.06-1.93.06-3.08v-6.02c0-.41.15-.76.44-1.05.3-.3.65-.44,1.05-.44h16.91c.41,0,.76.15,1.05.44.3.3.44.65.44,1.05v1.65c0,.42-.15.78-.44,1.07-.3.29-.65.43-1.05.43h-15.84c-.14,0-.2.07-.2.2v2.67c0,3.27-.22,6.13-.66,8.58,0,.03.01.06.04.08.03.02.05.02.09,0,1.61-.91,2.92-2.01,3.94-3.28.02-.03.02-.07,0-.1-.02-.03-.04-.05-.08-.05h-.79c-.41,0-.76-.15-1.05-.44-.3-.3-.44-.65-.44-1.05v-.36c0-.42.15-.78.44-1.07.3-.29.65-.43,1.05-.43h13.25c.42,0,.78.14,1.07.43.29.29.43.64.43,1.07v.36c0,.41-.14.76-.43,1.05-.29.3-.64.44-1.07.44h-9.62c-.12,0-.21.05-.28.15-.17.24-.29.41-.36.51ZM63.24,23.89c0-.12-.06-.18-.18-.18h-14.78c-.14,0-.2.06-.2.18v1.02c0,.14.07.2.2.2h14.78c.12,0,.18-.07.18-.2v-1.02ZM49.91,30.57c-.17,0-.3-.05-.41-.17-.1-.11-.15-.24-.15-.39s.05-.28.15-.39c.1-.11.24-.17.41-.17h4.37c.15,0,.28.06.39.17.11.11.17.24.17.39s-.05.28-.17.39c-.11.11-.24.17-.39.17h-4.37ZM49.53,28.43c-.1-.11-.15-.24-.15-.39s.05-.28.15-.39c.1-.11.24-.17.41-.17h4.32c.15,0,.28.06.39.17.11.11.17.24.17.39s-.05.28-.17.39c-.11.11-.24.17-.39.17h-4.32c-.17,0-.3-.05-.41-.17ZM51.28,32.55c-.14,0-.2.06-.2.18v.79c0,.14.07.2.2.2h2.36c.14,0,.2-.07.2-.2v-.79c0-.12-.07-.18-.2-.18h-2.36ZM54.53,37.25c0-.12-.06-.18-.18-.18h-1.93c-.14,0-.25.04-.33.13-.15.15-.36.36-.63.61-.03.02-.04.04-.03.08.02.03.04.05.08.05h2.84c.12,0,.18-.07.18-.2v-.48ZM51.94,39.86c0,.14.06.2.18.2h2.23c.12,0,.18-.07.18-.2v-.66c0-.12-.06-.18-.18-.18h-2.23c-.12,0-.18.06-.18.18v.66ZM55.92,32.55c-.14,0-.2.06-.2.18v.79c0,.14.07.2.2.2h2.46c.12,0,.18-.07.18-.2v-.79c0-.12-.06-.18-.18-.18h-2.46ZM58.31,29.73c0,.3-.11.57-.33.79-.22.22-.49.33-.8.33s-.58-.11-.8-.33c-.22-.22-.33-.48-.33-.79v-1.52c0-.3.11-.57.33-.79.22-.22.49-.33.8-.33s.58.11.8.33c.22.22.33.48.33.79v1.52ZM61.1,40.14c0,.27-.09.5-.28.7-.19.19-.42.29-.69.29-.02,0-.03,0-.04.03,0,.02,0,.03.01.05.54.49,1.04,1.03,1.5,1.62.08.1.19.15.3.15h.43c.29,0,.5-.08.63-.25.32-.39.57-2.22.74-5.48.02-.12-.04-.18-.18-.18h-6.75c-.14,0-.2.06-.2.18v.48c0,.14.07.2.2.2h2.82c.42,0,.78.14,1.07.43.29.29.43.64.43,1.07v.71ZM59.07,40.07c.14,0,.2-.07.2-.2v-.66c0-.12-.07-.18-.2-.18h-2.29c-.14,0-.2.06-.2.18v.66c0,.14.07.2.2.2h2.29ZM56.58,41.9c0,.12.07.18.2.18l1.93-.05s.03,0,.04-.03c0-.02,0-.03-.01-.05-.1-.1-.14-.23-.11-.38s.11-.25.24-.3l.2-.1s0-.03-.03-.03h-2.26c-.14,0-.2.06-.2.18v.58ZM60.06,30.57c-.15,0-.28-.05-.39-.17-.11-.11-.17-.24-.17-.39s.05-.28.17-.39c.11-.11.24-.17.39-.17h4.65c.15,0,.28.06.39.17.11.11.17.24.17.39s-.05.28-.17.39c-.11.11-.24.17-.39.17h-4.65ZM59.69,28.43c-.11-.11-.17-.24-.17-.39s.05-.28.17-.39c.11-.11.24-.17.39-.17h4.54c.15,0,.28.06.39.17.11.11.17.24.17.39s-.05.28-.17.39c-.11.11-.24.17-.39.17h-4.54c-.15,0-.28-.05-.39-.17ZM60.62,32.55c-.12,0-.18.06-.18.18v.79c0,.14.06.2.18.2h2.56c.12,0,.18-.07.18-.2v-.79c0-.12-.06-.18-.18-.18h-2.56Z" style="fill: #4b4c4e;"/>
        <path d="M87.6,24.66c-.02.05-.01.1.01.14.03.04.06.06.11.06h5.84c.42,0,.78.14,1.07.43.27.29.41.63.41,1.02,0,4.03-.2,8.14-.61,12.34-.24,2.3-.6,3.77-1.09,4.39-.32.41-.65.69-.98.86-.33.17-.76.3-1.28.38-.41.03-.94.05-1.6.05h-1.09c-.36-.02-.66-.14-.93-.38-.26-.24-.45-.53-.57-.89-.08-.27-.05-.52.09-.74.14-.22.35-.32.62-.3.95.03,1.81.05,2.59.05.49,0,.85-.14,1.09-.43.41-.42.71-1.69.93-3.8s.4-5.64.57-10.6c0-.12-.06-.18-.18-.18h-5.76c-.12,0-.2.06-.25.18-.49,1.07-.99,2.04-1.5,2.92-.2.34-.5.54-.89.61-.1.02-.19.03-.28.03-.29,0-.57-.09-.84-.28-.19-.14-.36-.25-.53-.36-.03-.02-.07-.02-.1,0-.03.02-.05.05-.05.1v10.23c0,.42-.15.78-.44,1.07-.3.29-.65.43-1.05.43h-5.36c-.14,0-.2.07-.2.2v.69c0,.3-.11.56-.32.77-.21.21-.47.32-.77.32s-.57-.11-.79-.32c-.22-.21-.33-.47-.33-.77v-16.4c0-.42.15-.78.44-1.07.3-.29.65-.43,1.05-.43h1.22c.14,0,.22-.06.25-.18.25-.9.47-1.8.63-2.72.07-.37.25-.66.56-.86.22-.17.47-.25.74-.25.08,0,.16,0,.23.03.36.05.62.23.79.53.12.17.18.36.18.56,0,.12-.03.25-.08.38-.3.85-.59,1.62-.86,2.34-.02.03,0,.07.03.11.03.04.07.06.1.06h2.49c.41,0,.76.14,1.05.43.3.29.44.64.44,1.07v3.22s.01.06.04.06c.03,0,.05,0,.06-.04,1.46-1.95,2.62-4.54,3.48-7.79.08-.32.27-.58.56-.76.19-.12.39-.18.61-.18.1,0,.19.02.28.05.32.07.57.25.74.53.12.19.18.37.18.56,0,.12-.02.23-.05.33-.24.81-.47,1.54-.69,2.18ZM80.18,27.27c0-.12-.07-.18-.2-.18h-4.44c-.14,0-.2.06-.2.18v4.57c0,.12.07.18.2.18h4.44c.14,0,.2-.06.2-.18v-4.57ZM75.33,39.69c0,.12.07.18.2.18h4.44c.14,0,.2-.06.2-.18v-5.36c0-.14-.07-.2-.2-.2h-4.44c-.14,0-.2.07-.2.2v5.36ZM90.26,35.52c.12.2.18.41.18.61,0,.1-.02.21-.05.33-.08.32-.27.57-.56.74-.17.12-.36.18-.56.18-.1,0-.2-.02-.3-.05-.3-.08-.53-.26-.69-.53-.66-1.17-1.53-2.52-2.62-4.06-.12-.17-.18-.36-.18-.56,0-.07,0-.14.03-.23.07-.29.22-.5.46-.63.2-.1.41-.15.61-.15.08,0,.18,0,.28.03.3.05.55.2.74.46,1.13,1.52,2.02,2.82,2.67,3.88Z" style="fill: #4b4c4e;"/>
        <path d="M105.86,21.79c.17-.27.41-.47.71-.58.15-.07.31-.1.48-.1.14,0,.27.03.41.08.29.08.48.26.58.53.05.12.08.24.08.36,0,.15-.04.3-.13.43-.49.83-1.05,1.68-1.68,2.56-.08.1-.13.21-.13.33v9.09c0,.3-.11.57-.33.8s-.49.34-.8.34-.58-.11-.8-.34-.33-.5-.33-.8v-6.37s-.02-.06-.05-.08c-.03-.02-.06,0-.08.03-.42.44-.82.82-1.19,1.14-.19.19-.41.28-.66.28-.05,0-.11,0-.18-.03-.3-.03-.57-.19-.79-.46-.17-.22-.25-.47-.25-.74,0-.05,0-.09.03-.13.03-.34.17-.61.41-.81,1.84-1.56,3.41-3.4,4.7-5.54ZM103.48,43.06c-.24.25-.54.4-.91.43h-.08c-.34,0-.64-.09-.91-.28-.25-.19-.38-.44-.38-.76,0-.27.1-.51.3-.71.93-.93,1.67-2.11,2.21-3.53.12-.29.31-.5.58-.63.15-.08.31-.13.48-.13.12,0,.24.02.36.05.29.1.5.3.63.58.08.15.13.31.13.48,0,.12-.03.24-.08.36-.63,1.78-1.41,3.16-2.34,4.14ZM111.24,42.18h4.01c.42,0,.72-.1.89-.3s.29-.64.36-1.32c.02-.25.14-.44.38-.57s.48-.14.74-.04c.32.12.58.32.76.61.15.22.23.46.23.71,0,.07,0,.14-.03.2-.17,1.12-.48,1.87-.93,2.27-.45.4-1.18.6-2.2.6h-4.47c-1.44,0-2.4-.21-2.88-.62-.48-.42-.72-1.19-.72-2.32v-2.87c0-.32.12-.6.36-.84.24-.24.52-.36.85-.36s.61.12.85.36c.24.24.36.52.36.84v2.87c0,.34.08.55.25.65.17.09.57.14,1.19.14ZM108.05,25.11c0-.3.11-.57.33-.79.22-.22.48-.33.79-.33s.57.11.79.33c.22.22.33.48.33.79v2.31s.02.06.05.06c.03,0,.07,0,.1-.01,1.57-1.47,2.85-3.32,3.83-5.54.14-.32.36-.56.66-.71.19-.1.38-.15.58-.15.12,0,.24.02.36.05.3.07.52.25.66.53.08.15.13.3.13.46,0,.14-.03.27-.1.41-.17.39-.33.75-.48,1.07-.03.03-.04.07-.01.11.03.04.06.06.11.06h6.88c.29,0,.54.1.75.3s.32.45.32.75-.11.55-.32.76c-.21.21-.46.32-.75.32h-.71c-.12,0-.19.06-.23.18-.69,2.1-1.66,3.86-2.89,5.28-.08.1-.08.19.03.25,1.25,1,2.66,1.77,4.21,2.31.29.1.47.3.56.58.03.1.05.19.05.28,0,.19-.06.36-.18.53-.24.3-.52.52-.86.66-.19.07-.36.1-.53.1s-.34-.03-.51-.1c-1.69-.68-3.17-1.58-4.44-2.72-.08-.08-.18-.08-.28,0-1.07.85-2.34,1.59-3.81,2.23-.19.07-.37.1-.56.1-.15,0-.3-.03-.43-.08-.34-.1-.62-.3-.84-.58-.17-.24-.22-.5-.15-.77s.24-.47.51-.57c1.41-.52,2.64-1.2,3.71-2.03.1-.07.11-.15.03-.25-.76-.96-1.46-2.13-2.11-3.5-.02-.03-.05-.05-.09-.06-.04,0-.08,0-.11.04-.22.29-.45.57-.69.84-.29.3-.63.46-1.04.46s-.77-.14-1.09-.43c-.05-.05-.1-.09-.15-.13-.03-.03-.07-.04-.1-.03-.03.02-.05.04-.05.08v4.6c0,.32-.11.59-.33.8-.22.21-.48.32-.79.32s-.57-.11-.79-.32c-.22-.21-.33-.48-.33-.8v-8.05ZM109.87,37.17c-.24-.12-.38-.31-.43-.57-.05-.26,0-.5.18-.7.24-.24.52-.39.84-.46.1-.02.2-.03.3-.03.2,0,.41.05.61.15,1.17.54,2.17,1.1,3,1.68.27.2.41.49.41.86,0,.29-.1.54-.3.76-.2.24-.47.36-.81.38h-.05c-.3,0-.58-.09-.81-.28-.81-.63-1.79-1.23-2.92-1.8ZM119.6,26.08c.02-.05.01-.09-.01-.13-.03-.03-.06-.05-.11-.05h-4.24c-.05,0-.09.02-.11.05-.03.03-.03.07-.01.1.59,1.37,1.34,2.61,2.23,3.71.08.1.16.11.23.03.86-1.07,1.54-2.3,2.03-3.71ZM118.48,38.7c-.19-.17-.28-.38-.28-.63,0-.34.14-.58.43-.74.25-.15.52-.23.81-.23h.15c.36.03.66.17.91.41,1.35,1.27,2.45,2.52,3.3,3.76.14.2.2.42.2.63,0,.1-.02.2-.05.3-.08.34-.28.6-.58.79-.19.12-.39.18-.61.18-.1,0-.21-.02-.33-.05-.32-.08-.58-.28-.76-.58-.81-1.25-1.88-2.53-3.2-3.83Z" style="fill: #4b4c4e;"/>
        <path d="M139.74,29.45c0,.42-.15.78-.44,1.07-.3.29-.65.43-1.05.43h-5.1c-.14,0-.2.07-.2.2v12.31c0,.34-.11.62-.34.85s-.5.34-.83.34-.6-.11-.84-.34-.36-.51-.36-.85v-20.08c0-.42.15-.78.44-1.07.3-.29.65-.43,1.05-.43h6.17c.41,0,.76.14,1.05.43.3.29.44.64.44,1.07v6.07ZM137.48,24.05c0-.12-.07-.18-.2-.18h-4.14c-.14,0-.2.06-.2.18v1.24c0,.12.07.18.2.18h4.14c.14,0,.2-.06.2-.18v-1.24ZM132.94,28.82c0,.12.07.18.2.18h4.14c.14,0,.2-.06.2-.18v-1.32c0-.12-.07-.18-.2-.18h-4.14c-.14,0-.2.06-.2.18v1.32ZM143.98,32.2c.41,0,.76.15,1.05.44.3.3.44.65.44,1.05v7.92c0,.54-.06.96-.19,1.24s-.38.51-.75.66c-.44.2-1.24.31-2.41.33h-.03c-.27,0-.52-.09-.76-.28-.22-.17-.38-.4-.48-.69-.08-.22-.06-.43.06-.62.13-.19.31-.29.55-.29h1.5c.14,0,.23-.03.29-.09.06-.06.09-.16.09-.29v-1.47c0-.12-.06-.18-.18-.18h-4.32c-.12,0-.19.06-.23.18-.22,1.29-.6,2.36-1.14,3.22-.15.25-.39.4-.71.43-.05.02-.1.03-.15.03-.24,0-.46-.08-.66-.23-.24-.14-.39-.35-.46-.63v-.2c0-.2.05-.39.15-.56.76-1.24,1.14-3,1.14-5.31v-3.17c0-.41.15-.76.44-1.05.3-.3.65-.44,1.05-.44h5.69ZM138.88,38.14c-.02.12.03.18.15.18h4.14c.12,0,.18-.06.18-.18v-1.07c0-.12-.06-.18-.18-.18h-4.09c-.12,0-.18.06-.18.18,0,.44,0,.8-.03,1.07ZM143.35,34.13c0-.12-.06-.18-.18-.18h-4.09c-.12,0-.18.06-.18.18v.99c0,.12.06.18.18.18h4.09c.12,0,.18-.06.18-.18v-.99ZM150.1,21.89c.41,0,.76.14,1.05.43.3.29.44.64.44,1.07v18.46c0,.66-.08,1.17-.25,1.54-.17.36-.45.65-.84.85-.56.27-1.5.41-2.82.43h-.03c-.34,0-.64-.11-.91-.33-.29-.22-.48-.5-.58-.84-.1-.27-.07-.52.09-.75s.38-.34.65-.34h1.73c.2,0,.34-.04.42-.13.08-.08.11-.23.11-.43v-10.69c0-.14-.06-.2-.18-.2h-5.28c-.41,0-.76-.14-1.05-.43-.3-.29-.44-.64-.44-1.07v-6.07c0-.42.15-.78.44-1.07.3-.29.65-.43,1.05-.43h6.4ZM149.16,24.05c0-.12-.06-.18-.18-.18h-4.29c-.14,0-.2.06-.2.18v1.24c0,.12.07.18.2.18h4.29c.12,0,.18-.06.18-.18v-1.24ZM144.49,28.82c0,.12.07.18.2.18h4.29c.12,0,.18-.06.18-.18v-1.32c0-.12-.06-.18-.18-.18h-4.29c-.14,0-.2.06-.2.18v1.32Z" style="fill: #4b4c4e;"/>
        <path d="M164.81,22.45c.41,0,.76.15,1.05.44.3.3.44.65.44,1.05v14.19c0,.42-.15.78-.44,1.07-.3.29-.65.43-1.05.43h-3.73c-.12,0-.18.07-.18.2v.86c0,.3-.11.57-.33.79-.22.22-.48.33-.79.33s-.57-.11-.79-.33c-.22-.22-.33-.48-.33-.79v-16.76c0-.41.14-.76.43-1.05.29-.3.64-.44,1.07-.44h4.65ZM164.03,24.83c0-.14-.07-.2-.2-.2h-2.74c-.12,0-.18.07-.18.2v4.85c0,.12.06.18.18.18h2.74c.14,0,.2-.06.2-.18v-4.85ZM160.9,37.3c0,.12.06.18.18.18h2.74c.14,0,.2-.06.2-.18v-5.1c0-.14-.07-.2-.2-.2h-2.74c-.12,0-.18.07-.18.2v5.1ZM181.36,29.04c.21.21.32.47.32.76s-.11.55-.32.75-.46.3-.75.3h-1.75c-.14,0-.2.07-.2.2v2.21c0,.14.07.2.2.2h1.52c.29,0,.54.1.75.3s.32.45.32.75-.11.55-.32.75-.46.3-.75.3h-1.52c-.14,0-.2.07-.2.2v6.2c0,.64-.08,1.14-.25,1.49-.17.35-.47.6-.89.77-.58.24-1.59.37-3.05.41h-.03c-.34,0-.64-.11-.91-.33-.27-.22-.47-.5-.58-.84-.1-.25-.07-.5.09-.72s.38-.34.65-.34c.64.02,1.34.03,2.08.03.2-.02.34-.06.42-.13.08-.07.11-.19.11-.38v-6.14c0-.14-.06-.2-.18-.2h-8.23c-.29,0-.54-.1-.75-.3s-.32-.45-.32-.75.11-.55.32-.75.46-.3.75-.3h8.23c.12,0,.18-.07.18-.2v-2.21c0-.14-.06-.2-.18-.2h-8.3c-.29,0-.54-.1-.75-.3s-.32-.45-.32-.75.11-.55.32-.76c.21-.21.46-.32.75-.32h4.93c.14,0,.2-.06.2-.18v-2.49c0-.12-.07-.18-.2-.18h-3.94c-.3,0-.56-.11-.76-.32-.2-.21-.3-.46-.3-.75s.1-.53.3-.74.46-.3.76-.3h3.94c.14,0,.2-.07.2-.2v-1.57c0-.32.12-.6.36-.84.24-.24.52-.36.85-.36s.61.12.85.36c.24.24.36.52.36.84v1.57c0,.14.07.2.2.2h4.11c.29,0,.53.1.74.3s.3.45.3.74-.1.54-.3.75c-.2.21-.45.32-.74.32h-4.11c-.14,0-.2.06-.2.18v2.49c0,.12.07.18.2.18h5.05c.29,0,.54.11.75.32ZM168.93,38.19c-.15-.17-.23-.36-.23-.58,0-.05,0-.11.03-.18.03-.27.18-.48.43-.63.22-.12.45-.18.69-.18h.23c.34.05.61.2.81.46.78.88,1.41,1.69,1.9,2.44.12.19.18.39.18.61,0,.1,0,.2-.03.3-.1.32-.3.58-.58.76-.19.1-.37.15-.56.15-.1,0-.21-.02-.33-.05-.3-.08-.54-.27-.71-.56-.49-.8-1.1-1.64-1.83-2.54Z" style="fill: #4b4c4e;"/>
        <path d="M203.82,42.35h2.95c.42,0,.71-.19.85-.56.14-.37.25-1.18.32-2.44.02-.27.14-.47.38-.61.24-.14.48-.14.74-.03.34.15.61.38.81.69.17.25.25.52.25.81v.15c-.17,1.66-.47,2.78-.91,3.36s-1.18.88-2.23.88h-3.45c-1.27,0-2.12-.23-2.56-.69s-.66-1.33-.66-2.62v-8.35c0-.12-.07-.18-.2-.18h-3.91c-.12,0-.19.06-.2.18-.1,1.12-.23,2.09-.39,2.93s-.41,1.7-.74,2.58c-.33.88-.74,1.65-1.23,2.31s-1.13,1.29-1.93,1.89-1.73,1.12-2.79,1.56c-.17.07-.34.1-.51.1s-.34-.03-.51-.1c-.34-.12-.63-.34-.86-.66-.12-.17-.18-.35-.18-.53,0-.08,0-.17.03-.25.08-.29.26-.49.53-.61.93-.36,1.74-.78,2.42-1.28.69-.5,1.24-1.01,1.65-1.54.42-.52.76-1.16,1.03-1.89s.47-1.43.6-2.09.23-1.46.32-2.41c.02-.12-.04-.18-.18-.18h-5.31c-.32,0-.6-.11-.83-.34s-.34-.5-.34-.83.11-.59.34-.81c.23-.22.5-.33.83-.33h8.86c.14,0,.2-.07.2-.2v-8.23c0-.34.12-.63.36-.86.24-.24.52-.36.86-.36s.63.12.86.36c.24.24.36.52.36.86v8.23c0,.14.07.2.2.2h9.06c.32,0,.6.11.83.33.23.22.34.49.34.81s-.11.6-.34.83-.5.34-.83.34h-5.76c-.14,0-.2.06-.2.18v8.35c0,.42.07.7.2.84.14.14.43.2.89.2ZM193.64,27.12c.05.14.08.28.08.43,0,.19-.04.36-.13.53-.15.32-.4.55-.74.69-.14.05-.27.08-.41.08-.17,0-.34-.04-.51-.13-.3-.15-.52-.39-.63-.71-.47-1.3-1.12-2.7-1.93-4.19-.08-.15-.13-.3-.13-.46,0-.12.02-.24.05-.36.1-.29.3-.48.58-.58.17-.07.34-.1.51-.1.15,0,.3.03.46.08.32.12.58.32.76.61.88,1.47,1.56,2.84,2.03,4.11ZM205.12,23.01c.15-.34.39-.58.71-.74.19-.1.37-.15.56-.15.15,0,.3.03.46.1.34.12.58.34.71.66.07.15.1.3.1.46,0,.19-.04.36-.13.53-.85,1.69-1.63,3.13-2.36,4.32-.17.27-.42.46-.74.56-.14.03-.28.05-.43.05s-.31-.03-.48-.08c-.27-.12-.46-.31-.56-.58-.03-.1-.05-.2-.05-.3,0-.17.04-.33.13-.48.8-1.4,1.49-2.85,2.08-4.34Z" style="fill: #4b4c4e;"/>
        <path d="M219.18,42.38c-.38.39-.85.58-1.42.58s-1.04-.19-1.42-.58-.57-.88-.57-1.49.19-1.11.57-1.52c.38-.41.85-.62,1.42-.62s1.04.21,1.42.62c.38.42.57.92.57,1.52s-.19,1.1-.57,1.49Z" style="fill: #4b4c4e;"/>
        <path d="M229.53,42.38c-.38.39-.85.58-1.42.58s-1.04-.19-1.42-.58-.57-.88-.57-1.49.19-1.11.57-1.52c.38-.41.85-.62,1.42-.62s1.04.21,1.42.62c.38.42.57.92.57,1.52s-.19,1.1-.57,1.49Z" style="fill: #4b4c4e;"/>
        <path d="M239.87,42.38c-.38.39-.85.58-1.42.58s-1.04-.19-1.42-.58-.57-.88-.57-1.49.19-1.11.57-1.52c.38-.41.85-.62,1.42-.62s1.04.21,1.42.62c.38.42.57.92.57,1.52s-.19,1.1-.57,1.49Z" style="fill: #4b4c4e;"/>
      </g>
    </g>
  </g>
</svg>