<?xml version="1.0" encoding="UTF-8"?>
<svg id="_圖層_2" data-name="圖層 2" xmlns="http://www.w3.org/2000/svg" width="254.8" height="80.04" viewBox="0 0 254.8 80.04">
  <g id="_設計" data-name="設計">
    <g>
      <path d="M84.49,65.82h148.68c11.39,0,20.62-9.11,20.62-20.35v-24.11c0-11.24-9.23-20.35-20.62-20.35H21.63c-11.39,0-20.62,9.11-20.62,20.35v24.11c0,11.24,9.23,20.35,20.62,20.35h24.37s31.03,13.05,31.03,13.05c1.7.71,3.44-.92,2.8-2.63l-3.91-10.41h8.58Z" style="fill: #fff; stroke: #4b4c4e; stroke-linecap: round; stroke-linejoin: round; stroke-width: 2.01px;"/>
      <g>
        <path d="M18.51,29.71c.14,0,.2-.06.2-.18v-2.31s-.02-.05-.05-.06c-.03,0-.06,0-.08.01-.29.3-.58.6-.89.89-.27.24-.58.36-.94.36s-.7-.11-.99-.33c-.25-.2-.38-.47-.38-.79,0-.3.12-.56.36-.76,1.54-1.29,2.83-2.83,3.86-4.62.19-.32.44-.55.76-.69.2-.08.41-.13.61-.13.14,0,.27.02.41.05.3.08.52.28.63.58.07.12.1.25.1.38,0,.15-.04.3-.13.46-.19.32-.38.63-.58.94-.02.03-.02.07,0,.11.02.04.05.06.1.06h14.73c.29,0,.54.1.75.3s.32.45.32.75-.11.55-.32.75-.46.3-.75.3h-1.29c-.14,0-.2.07-.2.2v3.53c0,.12.07.18.2.18h2.23c.29,0,.54.11.76.32.22.21.33.47.33.77s-.11.56-.33.77c-.22.21-.47.32-.76.32h-2.23c-.14,0-.2.07-.2.2v3.5c0,.14.07.2.2.2h1.85c.3,0,.56.11.77.32.21.21.32.47.32.77s-.11.56-.32.77c-.21.21-.47.32-.77.32h-20.13c-.3,0-.56-.11-.77-.32-.21-.21-.32-.47-.32-.77s.11-.56.32-.77c.21-.21.47-.32.77-.32h1.85c.14,0,.2-.07.2-.2v-3.5c0-.14-.07-.2-.2-.2h-2.26c-.29,0-.54-.11-.76-.32-.22-.21-.33-.47-.33-.77s.11-.56.33-.77c.22-.21.47-.32.76-.32h2.26ZM18.06,43.8c-.22.29-.52.47-.91.53-.12.03-.24.05-.36.05-.25,0-.49-.05-.71-.15-.25-.12-.42-.32-.48-.61v-.18c0-.22.07-.42.2-.58.69-.81,1.29-1.78,1.78-2.89.14-.32.36-.56.66-.71.2-.12.41-.18.61-.18.12,0,.23.02.33.05.32.07.56.25.71.53.08.15.13.31.13.48,0,.14-.03.26-.1.38-.51,1.25-1.13,2.34-1.85,3.28ZM21.08,25.8c-.12,0-.18.07-.18.2v3.53c0,.12.06.18.18.18h2.03c.14,0,.2-.06.2-.18v-3.53c0-.14-.07-.2-.2-.2h-2.03ZM21.08,31.89c-.12,0-.18.07-.18.2v3.5c0,.14.06.2.18.2h2.03c.14,0,.2-.07.2-.2v-3.5c0-.14-.07-.2-.2-.2h-2.03ZM22.75,40.7c-.02-.07-.03-.13-.03-.18,0-.24.08-.45.23-.63.19-.25.42-.39.71-.41.05-.02.1-.03.15-.03.25,0,.49.08.71.25.27.19.43.43.48.74.15.86.27,1.68.36,2.44v.15c0,.27-.09.52-.28.76-.22.25-.5.41-.84.46h-.15c-.25,0-.48-.08-.69-.23-.24-.22-.36-.48-.38-.79-.07-.85-.16-1.69-.28-2.54ZM25.34,29.53c0,.12.06.18.18.18h2.16c.12,0,.18-.06.18-.18v-3.53c0-.14-.06-.2-.18-.2h-2.16c-.12,0-.18.07-.18.2v3.53ZM27.86,32.1c0-.14-.06-.2-.18-.2h-2.16c-.12,0-.18.07-.18.2v3.5c0,.14.06.2.18.2h2.16c.12,0,.18-.07.18-.2v-3.5ZM28.16,40.68c-.03-.1-.05-.21-.05-.33,0-.15.04-.3.13-.46.14-.25.36-.41.66-.46.07-.02.14-.03.23-.03.25,0,.49.06.71.18.29.17.5.41.63.71.34.86.62,1.7.84,2.51.03.1.05.2.05.3,0,.2-.06.4-.18.58-.19.29-.45.46-.79.51-.07.02-.14.03-.23.03-.24,0-.46-.07-.66-.2-.29-.19-.47-.44-.56-.76-.2-.85-.47-1.71-.79-2.59ZM32.3,29.71c.12,0,.18-.06.18-.18v-3.53c0-.14-.06-.2-.18-.2h-2.21c-.12,0-.18.07-.18.2v3.53c0,.12.06.18.18.18h2.21ZM32.3,35.8c.12,0,.18-.07.18-.2v-3.5c0-.14-.06-.2-.18-.2h-2.21c-.12,0-.18.07-.18.2v3.5c0,.14.06.2.18.2h2.21ZM33.65,40.42c-.12-.15-.18-.31-.18-.48,0-.1.02-.19.05-.28.08-.29.27-.47.56-.56.17-.07.34-.1.51-.1s.35.03.53.1c.34.1.62.3.84.58.83,1.1,1.51,2.11,2.06,3.02.12.19.18.36.18.53,0,.14-.03.27-.1.41-.12.3-.34.52-.66.63-.17.05-.33.08-.48.08-.19,0-.37-.03-.56-.1-.34-.14-.59-.36-.76-.69-.56-1.02-1.22-2.06-1.98-3.15Z" style="fill: #4b4c4e;"/>
        <path d="M50.41,22.45c.41,0,.76.15,1.05.44.3.3.44.65.44,1.05v14.19c0,.42-.15.78-.44,1.07-.3.29-.65.43-1.05.43h-3.73c-.12,0-.18.07-.18.2v.86c0,.3-.11.57-.33.79-.22.22-.48.33-.79.33s-.57-.11-.79-.33c-.22-.22-.33-.48-.33-.79v-16.76c0-.41.14-.76.43-1.05.29-.3.64-.44,1.07-.44h4.65ZM49.63,24.83c0-.14-.07-.2-.2-.2h-2.74c-.12,0-.18.07-.18.2v4.85c0,.12.06.18.18.18h2.74c.14,0,.2-.06.2-.18v-4.85ZM46.5,37.3c0,.12.06.18.18.18h2.74c.14,0,.2-.06.2-.18v-5.1c0-.14-.07-.2-.2-.2h-2.74c-.12,0-.18.07-.18.2v5.1ZM66.96,29.04c.21.21.32.47.32.76s-.11.55-.32.75-.46.3-.75.3h-1.75c-.14,0-.2.07-.2.2v2.21c0,.14.07.2.2.2h1.52c.29,0,.54.1.75.3s.32.45.32.75-.11.55-.32.75-.46.3-.75.3h-1.52c-.14,0-.2.07-.2.2v6.2c0,.64-.08,1.14-.25,1.49-.17.35-.47.6-.89.77-.58.24-1.59.37-3.05.41h-.03c-.34,0-.64-.11-.91-.33-.27-.22-.47-.5-.58-.84-.1-.25-.07-.5.09-.72s.38-.34.65-.34c.64.02,1.34.03,2.08.03.2-.02.34-.06.42-.13.08-.07.11-.19.11-.38v-6.14c0-.14-.06-.2-.18-.2h-8.23c-.29,0-.54-.1-.75-.3s-.32-.45-.32-.75.11-.55.32-.75.46-.3.75-.3h8.23c.12,0,.18-.07.18-.2v-2.21c0-.14-.06-.2-.18-.2h-8.3c-.29,0-.54-.1-.75-.3s-.32-.45-.32-.75.11-.55.32-.76c.21-.21.46-.32.75-.32h4.93c.14,0,.2-.06.2-.18v-2.49c0-.12-.07-.18-.2-.18h-3.94c-.3,0-.56-.11-.76-.32-.2-.21-.3-.46-.3-.75s.1-.53.3-.74.46-.3.76-.3h3.94c.14,0,.2-.07.2-.2v-1.57c0-.32.12-.6.36-.84.24-.24.52-.36.85-.36s.61.12.85.36c.24.24.36.52.36.84v1.57c0,.14.07.2.2.2h4.11c.29,0,.53.1.74.3s.3.45.3.74-.1.54-.3.75c-.2.21-.45.32-.74.32h-4.11c-.14,0-.2.06-.2.18v2.49c0,.12.07.18.2.18h5.05c.29,0,.54.11.75.32ZM54.53,38.19c-.15-.17-.23-.36-.23-.58,0-.05,0-.11.03-.18.03-.27.18-.48.43-.63.22-.12.45-.18.69-.18h.23c.34.05.61.2.81.46.78.88,1.41,1.69,1.9,2.44.12.19.18.39.18.61,0,.1,0,.2-.03.3-.1.32-.3.58-.58.76-.19.1-.37.15-.56.15-.1,0-.21-.02-.33-.05-.3-.08-.54-.27-.71-.56-.49-.8-1.1-1.64-1.83-2.54Z" style="fill: #4b4c4e;"/>
        <path d="M75.71,29.71c.14,0,.2-.06.2-.18v-2.31s-.02-.05-.05-.06c-.03,0-.06,0-.08.01-.29.3-.58.6-.89.89-.27.24-.58.36-.94.36s-.7-.11-.99-.33c-.25-.2-.38-.47-.38-.79,0-.3.12-.56.36-.76,1.54-1.29,2.83-2.83,3.86-4.62.19-.32.44-.55.76-.69.2-.08.41-.13.61-.13.14,0,.27.02.41.05.3.08.52.28.63.58.07.12.1.25.1.38,0,.15-.04.3-.13.46-.19.32-.38.63-.58.94-.02.03-.02.07,0,.11.02.04.05.06.1.06h14.73c.29,0,.54.1.75.3s.32.45.32.75-.11.55-.32.75-.46.3-.75.3h-1.29c-.14,0-.2.07-.2.2v3.53c0,.12.07.18.2.18h2.23c.29,0,.54.11.76.32.22.21.33.47.33.77s-.11.56-.33.77c-.22.21-.47.32-.76.32h-2.23c-.14,0-.2.07-.2.2v3.5c0,.14.07.2.2.2h1.85c.3,0,.56.11.77.32.21.21.32.47.32.77s-.11.56-.32.77c-.21.21-.47.32-.77.32h-20.13c-.3,0-.56-.11-.77-.32-.21-.21-.32-.47-.32-.77s.11-.56.32-.77c.21-.21.47-.32.77-.32h1.85c.14,0,.2-.07.2-.2v-3.5c0-.14-.07-.2-.2-.2h-2.26c-.29,0-.54-.11-.76-.32-.22-.21-.33-.47-.33-.77s.11-.56.33-.77c.22-.21.47-.32.76-.32h2.26ZM75.26,43.8c-.22.29-.52.47-.91.53-.12.03-.24.05-.36.05-.25,0-.49-.05-.71-.15-.25-.12-.42-.32-.48-.61v-.18c0-.22.07-.42.2-.58.69-.81,1.29-1.78,1.78-2.89.14-.32.36-.56.66-.71.2-.12.41-.18.61-.18.12,0,.23.02.33.05.32.07.56.25.71.53.08.15.13.31.13.48,0,.14-.03.26-.1.38-.51,1.25-1.13,2.34-1.85,3.28ZM78.28,25.8c-.12,0-.18.07-.18.2v3.53c0,.12.06.18.18.18h2.03c.14,0,.2-.06.2-.18v-3.53c0-.14-.07-.2-.2-.2h-2.03ZM78.28,31.89c-.12,0-.18.07-.18.2v3.5c0,.14.06.2.18.2h2.03c.14,0,.2-.07.2-.2v-3.5c0-.14-.07-.2-.2-.2h-2.03ZM79.95,40.7c-.02-.07-.03-.13-.03-.18,0-.24.08-.45.23-.63.19-.25.42-.39.71-.41.05-.02.1-.03.15-.03.25,0,.49.08.71.25.27.19.43.43.48.74.15.86.27,1.68.36,2.44v.15c0,.27-.09.52-.28.76-.22.25-.5.41-.84.46h-.15c-.25,0-.48-.08-.69-.23-.24-.22-.36-.48-.38-.79-.07-.85-.16-1.69-.28-2.54ZM82.54,29.53c0,.12.06.18.18.18h2.16c.12,0,.18-.06.18-.18v-3.53c0-.14-.06-.2-.18-.2h-2.16c-.12,0-.18.07-.18.2v3.53ZM85.06,32.1c0-.14-.06-.2-.18-.2h-2.16c-.12,0-.18.07-.18.2v3.5c0,.14.06.2.18.2h2.16c.12,0,.18-.07.18-.2v-3.5ZM85.36,40.68c-.03-.1-.05-.21-.05-.33,0-.15.04-.3.13-.46.14-.25.36-.41.66-.46.07-.02.14-.03.23-.03.25,0,.49.06.71.18.29.17.5.41.63.71.34.86.62,1.7.84,2.51.03.1.05.2.05.3,0,.2-.06.4-.18.58-.19.29-.45.46-.79.51-.07.02-.14.03-.23.03-.24,0-.46-.07-.66-.2-.29-.19-.47-.44-.56-.76-.2-.85-.47-1.71-.79-2.59ZM89.5,29.71c.12,0,.18-.06.18-.18v-3.53c0-.14-.06-.2-.18-.2h-2.21c-.12,0-.18.07-.18.2v3.53c0,.12.06.18.18.18h2.21ZM89.5,35.8c.12,0,.18-.07.18-.2v-3.5c0-.14-.06-.2-.18-.2h-2.21c-.12,0-.18.07-.18.2v3.5c0,.14.06.2.18.2h2.21ZM90.85,40.42c-.12-.15-.18-.31-.18-.48,0-.1.02-.19.05-.28.08-.29.27-.47.56-.56.17-.07.34-.1.51-.1s.35.03.53.1c.34.1.62.3.84.58.83,1.1,1.51,2.11,2.06,3.02.12.19.18.36.18.53,0,.14-.03.27-.1.41-.12.3-.34.52-.66.63-.17.05-.33.08-.48.08-.19,0-.37-.03-.56-.1-.34-.14-.59-.36-.76-.69-.56-1.02-1.22-2.06-1.98-3.15Z" style="fill: #4b4c4e;"/>
        <path d="M109.67,28.9c.17-.27.41-.46.71-.56.14-.03.27-.05.41-.05.17,0,.34.03.51.1.27.12.46.32.56.61.03.1.05.19.05.28,0,.19-.06.36-.18.51-1.03,1.61-2.27,3.11-3.72,4.52-1.45,1.41-2.99,2.62-4.63,3.63-.2.12-.42.18-.66.18-.08,0-.17,0-.25-.03-.34-.07-.62-.23-.84-.48-.17-.19-.25-.39-.25-.61v-.13c.03-.29.18-.51.43-.66,1.07-.61,2.13-1.35,3.2-2.21.1-.08.11-.17.03-.25-.91-.88-2.06-1.82-3.43-2.82-.24-.15-.37-.37-.41-.65s.04-.52.23-.72c.2-.22.46-.36.76-.41h.15c.24,0,.46.07.66.2.02.02.04.03.08.05.07.05.14.03.2-.05.88-1.1,1.61-2.11,2.18-3.02.02-.03.02-.07,0-.1-.02-.03-.05-.05-.1-.05h-3.4c-.3,0-.56-.11-.77-.32-.21-.21-.32-.47-.32-.77s.11-.56.32-.77c.21-.21.47-.32.77-.32h4.27c.12,0,.18-.07.18-.2v-1.62c0-.34.12-.62.36-.85s.52-.34.84-.34.6.11.84.34.36.51.36.85v1.62c0,.14.06.2.18.2h4.19c.29,0,.54.11.76.32.22.21.33.47.33.77s-.11.56-.33.77c-.22.21-.47.32-.76.32h-4.82s.04.03.03.05c-1.29,1.74-2.42,3.17-3.4,4.27-.08.1-.08.19.03.25.63.47,1.2.96,1.73,1.45.1.08.19.08.28,0,1.05-1.07,1.95-2.17,2.69-3.3ZM111.32,33.97c.19-.27.44-.46.76-.56.14-.05.26-.08.38-.08.19,0,.36.04.53.13.29.14.48.35.58.63.02.1.03.2.03.3,0,.19-.05.36-.15.53-.88,1.3-1.9,2.53-3.05,3.68-.08.08-.08.17.03.25,1.39,1.19,2.48,2.19,3.28,3.02.22.22.33.49.33.81,0,.37-.14.69-.43.94-.24.2-.5.3-.79.3h-.1c-.34-.03-.63-.17-.86-.41-.75-.8-1.79-1.82-3.15-3.07-.1-.08-.19-.08-.28,0-1.64,1.39-3.43,2.6-5.36,3.63-.22.1-.43.15-.63.15-.14,0-.26-.02-.38-.05-.34-.1-.63-.29-.86-.56-.15-.19-.23-.39-.23-.61,0-.07,0-.13.03-.18.05-.3.21-.52.48-.66,1.98-.96,3.83-2.16,5.56-3.58s3.16-2.97,4.29-4.65ZM115.71,23.98c.22-.23.49-.34.8-.34s.58.11.81.34.34.5.34.83v12.09c0,.3-.11.57-.34.8s-.5.34-.81.34-.58-.11-.8-.34-.33-.5-.33-.8v-12.09c0-.32.11-.6.33-.83ZM120.92,22.55c0-.32.11-.6.34-.84.23-.24.51-.36.84-.36s.61.12.84.36c.23.24.34.52.34.84v19.2c0,.69-.09,1.23-.28,1.61s-.49.67-.91.88c-.59.27-1.64.42-3.15.46h-.03c-.36,0-.68-.11-.96-.33-.29-.24-.49-.53-.61-.89-.03-.1-.05-.2-.05-.3,0-.17.06-.34.18-.51.17-.24.4-.36.69-.36h2.16c.22,0,.38-.04.47-.13.09-.08.14-.24.14-.46v-19.17Z" style="fill: #4b4c4e;"/>
        <path d="M136.01,21.91c.22-.05.42-.03.61.08l.51.3c.24.14.41.33.51.58s.11.52.03.79c-.88,2.64-1.58,4.62-2.11,5.94-.05.12-.03.23.05.33,1.35,1.62,2.03,3.39,2.03,5.28,0,1.59-.36,2.64-1.09,3.15-.39.29-.85.47-1.4.56-.2.02-.42.03-.63.03h-.05c-.29,0-.55-.1-.79-.3-.24-.22-.4-.5-.48-.84-.05-.25,0-.49.14-.7.14-.21.34-.32.6-.32h.2c.34-.03.6-.11.79-.23.34-.22.51-.76.51-1.62,0-1.29-.41-2.52-1.22-3.71-.39-.59-.58-1.18-.58-1.75,0-.29.05-.57.15-.84.41-1.24.84-2.69,1.29-4.37.02-.05.01-.09-.01-.13-.03-.03-.06-.05-.11-.05h-2.41c-.12,0-.18.06-.18.18v19.35c0,.29-.11.54-.32.75-.21.21-.46.32-.75.32s-.54-.11-.75-.32c-.21-.21-.32-.46-.32-.75v-20.21c0-.42.15-.78.44-1.07.3-.29.65-.43,1.05-.43h4.29ZM148.88,30.52c-.02.05-.01.09.01.13.03.03.06.05.11.05h2.95c.3,0,.56.11.77.32.21.21.32.47.32.77s-.11.56-.32.77c-.21.21-.47.32-.77.32h-13.3c-.3,0-.56-.11-.77-.32-.21-.21-.32-.47-.32-.77s.11-.56.32-.77c.21-.21.47-.32.77-.32h2.41c.12,0,.17-.06.15-.18-.1-.86-.34-1.86-.71-3-.08-.27-.06-.53.08-.79s.34-.41.61-.48c.1-.02.2-.03.3-.03.19,0,.37.04.56.13.27.15.47.37.58.66.2.56.37,1.13.51,1.7.03.12.05.25.05.38,0,.25-.08.51-.23.76-.24.36-.56.58-.96.69l-.46.1s-.03,0-.03.03,0,.03.03.03h6.98s.02-.05,0-.05l-.23-.05c-.39-.1-.68-.33-.86-.69-.12-.2-.18-.41-.18-.63,0-.15.03-.3.1-.46.34-1.03.58-1.93.74-2.69.03-.12-.02-.18-.15-.18h-8.61c-.3,0-.56-.11-.77-.32-.21-.21-.32-.47-.32-.77s.11-.56.32-.76.47-.3.77-.3h4.54c.14,0,.2-.07.2-.2v-1.6c0-.32.11-.6.34-.83s.5-.34.83-.34.6.11.83.34.34.5.34.83v1.6c0,.14.06.2.18.2h4.75c.3,0,.56.1.76.3s.3.46.3.76-.1.56-.3.77c-.2.21-.46.32-.76.32h-2.92s-.03,0-.03.01c0,0,0,.01.03.01l.58.15c.39.08.68.3.86.66.12.2.18.41.18.61,0,.15-.03.3-.1.46-.46,1.25-.81,2.14-1.07,2.67ZM140.51,44.69c-.32,0-.6-.11-.83-.34s-.34-.5-.34-.83v-6.96c0-.41.15-.76.44-1.05.3-.3.65-.44,1.05-.44h8.91c.42,0,.78.15,1.07.44.29.3.43.65.43,1.05v6.83c0,.34-.11.62-.34.85s-.5.34-.83.34h-.3c-.25,0-.47-.08-.63-.25-.17-.17-.25-.38-.25-.63,0-.07-.03-.1-.1-.1h-7.01c-.07,0-.1.04-.1.13,0,.27-.1.5-.29.69-.19.19-.43.28-.7.28h-.18ZM148.88,37.43c0-.14-.06-.2-.18-.2h-6.86c-.12,0-.18.07-.18.2v3.81c0,.14.06.2.18.2h6.86c.12,0,.18-.07.18-.2v-3.81Z" style="fill: #4b4c4e;"/>
        <path d="M163.27,21.96c.14-.3.36-.52.66-.66.17-.08.35-.13.53-.13.12,0,.25.02.38.05.3.1.52.3.66.58.07.15.1.3.1.46,0,.14-.03.28-.1.43-.56,1.29-1.22,2.59-1.98,3.91-.07.1-.1.22-.1.36v16.5c0,.3-.11.57-.33.8s-.49.34-.81.34-.59-.11-.81-.34-.33-.5-.33-.8v-13.03s-.01-.05-.04-.06c-.03,0-.05,0-.06.04-.49.64-.99,1.25-1.5,1.83-.19.2-.42.3-.69.3h-.15c-.32-.05-.57-.23-.74-.53-.15-.27-.23-.57-.23-.89,0-.07,0-.14.03-.23.05-.41.21-.76.48-1.07,2.05-2.22,3.72-4.84,5.03-7.87ZM180.58,35.35c.3,0,.57.11.79.33.22.22.33.49.33.8s-.11.58-.33.79c-.22.21-.48.32-.79.32h-6.07c-.14,0-.2.07-.2.2v5.66c0,.34-.12.63-.36.86-.24.24-.52.36-.86.36s-.63-.12-.86-.36c-.24-.24-.36-.52-.36-.86v-5.66c0-.14-.06-.2-.18-.2h-5.84c-.3,0-.57-.11-.79-.32-.22-.21-.33-.47-.33-.79s.11-.58.33-.8c.22-.22.48-.33.79-.33h5.84c.12,0,.18-.06.18-.18v-3.71c0-.12-.06-.18-.18-.18h-4.8c-.3,0-.57-.11-.79-.33-.22-.22-.33-.49-.33-.8s.11-.58.33-.8c.22-.22.48-.33.79-.33h4.8c.12,0,.18-.06.18-.18v-6.5c0-.34.12-.63.36-.86.24-.24.52-.36.86-.36s.63.12.86.36c.24.24.36.52.36.86v6.5c0,.12.07.18.2.18h4.98c.3,0,.57.11.79.33.22.22.33.49.33.8s-.11.58-.33.8c-.22.22-.48.33-.79.33h-4.98c-.14,0-.2.06-.2.18v3.71c0,.12.07.18.2.18h6.07ZM169.94,26.38c.05.14.08.27.08.41,0,.19-.04.36-.13.53-.15.3-.39.52-.71.63-.14.07-.26.1-.38.1-.17,0-.33-.04-.48-.13-.27-.14-.46-.36-.56-.66-.34-1.07-.79-2.2-1.35-3.4-.07-.14-.1-.28-.1-.43,0-.12.03-.24.08-.36.12-.27.3-.47.56-.58.15-.05.3-.08.46-.08s.3.03.43.08c.29.1.51.3.66.58.58,1.12,1.06,2.22,1.45,3.3ZM177.87,23.13c.12-.32.34-.57.66-.74.17-.08.35-.13.53-.13.15,0,.3.03.43.08.32.12.55.34.69.66.07.15.1.3.1.46,0,.17-.04.34-.13.51-.64,1.35-1.24,2.51-1.78,3.48-.14.25-.35.43-.63.53-.15.05-.3.08-.43.08s-.28-.03-.43-.1c-.27-.1-.46-.28-.56-.55-.1-.26-.08-.52.05-.77.58-1.18,1.08-2.35,1.5-3.5Z" style="fill: #4b4c4e;"/>
        <path d="M191.51,22.04c.14-.3.35-.53.63-.69.19-.08.37-.13.56-.13.12,0,.25.02.38.05.3.1.52.3.66.58.07.15.1.3.1.46,0,.14-.03.27-.08.41-.58,1.37-1.25,2.77-2.03,4.19-.07.12-.1.24-.1.36v16.25c0,.3-.11.57-.34.8s-.5.34-.81.34-.58-.11-.8-.34-.33-.5-.33-.8v-12.67s-.02-.03-.05-.04c-.03,0-.06,0-.08.01-.37.52-.77,1.03-1.19,1.52-.19.22-.41.33-.66.33-.05,0-.1,0-.15-.03-.32-.03-.56-.2-.72-.5-.16-.3-.24-.6-.24-.93,0-.08,0-.16.03-.23.03-.41.19-.76.46-1.07,1.91-2.2,3.5-4.83,4.77-7.9ZM207.53,28.08c.02-.14-.04-.2-.18-.2h-3.86c-.12,0-.18.07-.18.2v13.79c0,.64-.08,1.15-.24,1.51-.16.36-.43.65-.8.85-.51.25-1.28.41-2.31.46h-.08c-.34,0-.64-.11-.91-.33-.29-.22-.5-.52-.63-.89-.03-.1-.05-.2-.05-.3,0-.17.05-.33.15-.48.15-.25.37-.38.66-.38h1.35c.17,0,.29-.03.36-.09.07-.06.1-.17.1-.34v-13.79c0-.14-.06-.2-.18-.2h-3.12c-.14,0-.23.06-.28.18-.56,1.17-1.13,2.18-1.7,3.05-.17.29-.42.45-.76.48h-.15c-.29,0-.54-.09-.76-.28-.25-.2-.41-.47-.46-.81-.02-.07-.03-.14-.03-.2,0-.27.08-.52.23-.74,1.32-1.9,2.4-4.37,3.25-7.41.08-.34.27-.59.56-.76.22-.14.44-.2.66-.2.1,0,.19,0,.28.03.34.07.59.25.76.53.12.19.18.38.18.58,0,.12-.02.23-.05.33-.29.96-.6,1.9-.94,2.82-.02.05-.01.09.01.13.03.03.06.05.11.05h9.67c.22-.05.45-.05.69,0l.51.1c.24.05.42.17.56.36.1.15.15.31.15.48,0,.07,0,.13-.03.18-.24,1.29-.49,2.57-.76,3.86-.07.27-.22.49-.46.66-.19.12-.38.18-.58.18-.07,0-.14,0-.2-.03-.29-.05-.52-.19-.69-.43-.12-.19-.18-.39-.18-.61v-.18c.12-.63.23-1.34.33-2.13ZM196.38,33.24c.1-.32.29-.58.56-.76.22-.14.45-.2.69-.2.07,0,.14,0,.23.03.32.07.58.24.76.51.12.19.18.38.18.58,0,.08-.02.19-.05.3-.69,2.54-1.59,4.73-2.69,6.58-.17.27-.42.44-.76.51h-.23c-.25,0-.48-.07-.69-.2-.27-.15-.44-.39-.51-.71-.02-.08-.03-.17-.03-.25,0-.22.06-.43.18-.63.98-1.54,1.77-3.45,2.36-5.74ZM205.25,33.57c-.07-.14-.1-.28-.1-.43,0-.12.03-.25.1-.38.12-.29.31-.47.58-.56.15-.05.3-.08.43-.08.17,0,.34.03.51.1.3.14.52.35.66.63,1.02,2.13,1.79,4.24,2.31,6.32.02.1.03.21.03.33,0,.22-.06.43-.18.63-.17.3-.42.52-.76.63-.12.05-.24.08-.36.08-.17,0-.34-.05-.51-.15-.27-.15-.45-.39-.53-.71-.47-2.1-1.2-4.24-2.18-6.42Z" style="fill: #4b4c4e;"/>
        <path d="M219.18,42.38c-.38.39-.85.58-1.42.58s-1.04-.19-1.42-.58-.57-.88-.57-1.49.19-1.11.57-1.52c.38-.41.85-.62,1.42-.62s1.04.21,1.42.62c.38.42.57.92.57,1.52s-.19,1.1-.57,1.49Z" style="fill: #4b4c4e;"/>
        <path d="M229.53,42.38c-.38.39-.85.58-1.42.58s-1.04-.19-1.42-.58-.57-.88-.57-1.49.19-1.11.57-1.52c.38-.41.85-.62,1.42-.62s1.04.21,1.42.62c.38.42.57.92.57,1.52s-.19,1.1-.57,1.49Z" style="fill: #4b4c4e;"/>
        <path d="M239.87,42.38c-.38.39-.85.58-1.42.58s-1.04-.19-1.42-.58-.57-.88-.57-1.49.19-1.11.57-1.52c.38-.41.85-.62,1.42-.62s1.04.21,1.42.62c.38.42.57.92.57,1.52s-.19,1.1-.57,1.49Z" style="fill: #4b4c4e;"/>
      </g>
    </g>
  </g>
</svg>