<?xml version="1.0" encoding="UTF-8"?>
<svg id="_圖層_2" data-name="圖層 2" xmlns="http://www.w3.org/2000/svg" width="230.99" height="67.8" viewBox="0 0 230.99 67.8">
  <g id="_設計" data-name="設計">
    <g>
      <path d="M159.42,55.75H18.32c-9.65,0-17.47-7.72-17.47-17.24v-20.42c0-9.52,7.82-17.24,17.47-17.24h194.35c9.65,0,17.47,7.72,17.47,17.24v20.42c0,9.52-7.82,17.24-17.47,17.24h-20.64s-26.28,11.05-26.28,11.05c-1.44.61-2.91-.78-2.37-2.23l3.31-8.82h-7.27Z" style="fill: #fff; stroke: #4b4c4e; stroke-linecap: round; stroke-linejoin: round; stroke-width: 1.71px;"/>
      <g>
        <path d="M27.96,19.47c0-.34.12-.64.38-.89s.55-.38.89-.38h12.8c.34,0,.64.12.89.37s.38.54.38.9l-.02,2.19c0,3.66.06,6.65.17,8.97.14,3.01.48,4.52,1.01,4.52.19,0,.31-.75.37-2.26,0-.14.07-.23.21-.27s.26,0,.34.12c.39.52.58,1.02.58,1.51,0,.07,0,.14-.02.22-.1.89-.24,1.56-.43,2-.26.6-.69.9-1.29.9-.29,0-.55-.07-.78-.22-.24-.14-.45-.37-.62-.69-.18-.32-.34-.65-.48-1.01-.14-.36-.27-.84-.37-1.43s-.19-1.16-.27-1.69c-.08-.53-.14-1.21-.19-2.03-.05-.82-.09-1.56-.12-2.22-.03-.65-.05-1.48-.07-2.48-.01-1-.03-1.87-.04-2.6v-2.73c0-.11-.06-.17-.17-.17h-11.01c-.12,0-.17.05-.17.15v5.23c0,4.89-.75,8.59-2.24,11.1-.13.21-.33.34-.6.39h-.15c-.22,0-.42-.06-.6-.19-.21-.14-.35-.34-.41-.6-.03-.07-.04-.15-.04-.24,0-.16.04-.32.13-.47.3-.5.57-1.04.82-1.61.36-.92.61-1.89.76-2.91.15-1.02.25-1.94.3-2.73.05-.8.08-1.7.08-2.72v-6ZM38.11,32.5c-.1-.19-.12-.38-.04-.57.07-.19.21-.33.41-.4.11-.04.23-.06.34-.06.13,0,.25.02.37.06.23.09.41.24.54.45.34.55.67,1.13.99,1.76.27.56.49,1.07.65,1.53.04.1.06.19.06.28,0,.13-.04.26-.11.39-.11.23-.29.39-.52.47-.23.07-.45.05-.66-.05-.21-.11-.35-.28-.44-.51-.06-.19-.13-.39-.21-.62-.04-.1-.12-.14-.22-.13l-8.43.65h-.09c-.22,0-.41-.08-.58-.24-.23-.19-.34-.42-.34-.71,0-.21.08-.41.24-.58.16-.19.37-.29.62-.3,1.42-.07,2.67-.14,3.74-.21.1-.01.15-.08.15-.19v-2.39c0-.1-.05-.15-.15-.15h-2.21c-.34,0-.64-.12-.89-.38s-.38-.55-.38-.89v-3.61c0-.34.12-.64.38-.89.25-.25.55-.38.89-.38h2.21c.1,0,.15-.06.15-.17v-1.35c0-.1-.05-.14-.15-.13-.82.09-1.73.16-2.73.22-.23.01-.44-.05-.62-.19-.19-.14-.32-.33-.39-.56-.06-.19-.04-.36.05-.53.09-.16.24-.25.44-.27,3.04-.23,5.39-.52,7.05-.88.14-.03.29-.04.43-.04.47,0,.88.18,1.23.54.16.16.2.35.14.57s-.2.35-.42.4c-.9.2-1.94.37-3.1.52-.1.01-.15.07-.15.17v1.55c0,.12.05.17.15.17h2.32c.34,0,.64.13.89.38.25.25.38.55.38.89v3.61c0,.34-.12.64-.38.89s-.55.38-.89.38h-2.3c-.12,0-.17.05-.17.15v2.28c0,.12.05.17.15.17l1.98-.13s.05-.01.08-.04c.02-.03.02-.06.01-.11-.13-.23-.29-.49-.47-.8ZM32.56,29.23c0,.1.05.15.15.15h1.72c.1,0,.15-.05.15-.15v-2.62c0-.11-.05-.17-.15-.17h-1.72c-.1,0-.15.06-.15.17v2.62ZM38.41,26.6c0-.11-.05-.17-.15-.17h-1.72c-.12,0-.17.06-.17.17v2.62c0,.1.06.15.17.15h1.72c.1,0,.15-.05.15-.15v-2.62Z" style="fill: #4b4c4e;"/>
        <path d="M66.96,19.96c.21-.06.42-.04.62.06l.34.15c.17.09.3.22.38.41.08.19.08.37.01.56-.69,1.82-1.71,3.49-3.08,5.01-.07.07-.06.14.02.22,1.23.96,2.59,1.72,4.09,2.28.23.09.38.25.45.49.01.07.02.14.02.21,0,.16-.05.3-.15.43-.07.1-.14.21-.21.32-.12.17-.27.29-.45.35s-.37.05-.56-.03c-.06-.01-.09,0-.09.06v6.3c0,.27-.1.51-.29.7-.19.19-.43.29-.7.29h-.28c-.2,0-.37-.07-.5-.2-.14-.14-.21-.3-.21-.51,0-.06-.03-.09-.09-.09h-5.25c-.07,0-.11.03-.11.09,0,.21-.08.4-.23.55-.15.15-.33.23-.53.23h-.19c-.26,0-.48-.09-.67-.28-.19-.19-.28-.41-.28-.67v-6.17s-.01-.05-.04-.08c-.03-.02-.06-.02-.11-.01-.13.06-.26.11-.39.17-.13.06-.27.09-.41.09-.13,0-.26-.03-.39-.09-.27-.09-.49-.26-.67-.52-.2-.27-.39-.5-.56-.69-.06-.06-.04-.1.04-.13v-.02c-.26-.47-.7-1.18-1.33-2.13-.01-.03-.03-.04-.05-.03s-.03.02-.03.05v9.51c0,.27-.09.5-.28.69-.19.19-.41.28-.68.28s-.49-.09-.68-.28c-.19-.19-.28-.42-.28-.69v-8.39s0-.02-.02-.02c-.01,0-.03,0-.04.02-.6,1.81-1.27,3.31-2,4.52-.12.19-.28.27-.51.26-.22-.01-.39-.12-.5-.32-.16-.29-.24-.57-.24-.86,0-.3.09-.59.28-.88.57-.92,1.11-2,1.61-3.24.5-1.24.9-2.46,1.18-3.67.01-.1-.03-.15-.13-.15h-1.81c-.26,0-.48-.09-.67-.28-.19-.19-.28-.41-.28-.67s.09-.48.28-.67c.19-.19.41-.28.67-.28h2c.11,0,.17-.06.17-.17v-3.48c0-.26.09-.48.28-.67.19-.19.41-.28.68-.28s.49.09.68.28c.19.19.28.41.28.67v3.48c0,.11.05.17.15.17h1.48c.29,0,.53.1.74.31.21.21.31.46.31.74,0,.01.01.03.03.04.02.01.04.01.05,0,1.38-1.35,2.49-2.95,3.33-4.8.11-.26.3-.45.56-.58.17-.09.34-.13.49-.13.1,0,.2.01.3.04.27.07.47.23.58.47.06.13.09.25.09.37,0,.13-.03.25-.09.37-.1.24-.21.49-.34.75-.03.03-.03.06-.01.09.02.03.05.04.1.04h4.06ZM57.03,27.16c.26.3.39.65.39,1.03,0,.36-.11.68-.32.97l-.04.06s-.01.03,0,.05c.01.02.04.02.06.01,1.89-.69,3.61-1.67,5.14-2.95.09-.07.09-.14.02-.22-.67-.75-1.28-1.55-1.83-2.41-.06-.1-.11-.11-.17-.02-.37.44-.73.85-1.08,1.2-.21.2-.46.3-.73.3h-.02c-.29,0-.54-.1-.77-.3-.24-.22-.47-.39-.67-.54-.1-.07-.11-.14-.02-.22v-.02h-1.72c-.1,0-.15.05-.15.15v.43c0,.12.04.21.11.28.33.37.93,1.1,1.81,2.17ZM60.75,29.7s-.02.03-.01.05c0,.02.02.03.03.03h6.09s.04-.01.04-.03,0-.03-.02-.03c-1.05-.54-2.04-1.22-2.99-2.02-.09-.07-.17-.07-.26,0-.92.77-1.88,1.44-2.88,2ZM60.94,35.06c0,.1.06.15.17.15h5.12c.1,0,.15-.05.15-.15v-3.35c0-.11-.05-.17-.15-.17h-5.12c-.12,0-.17.06-.17.17v3.35ZM65.91,21.87s.01-.06,0-.1c-.01-.04-.04-.05-.09-.05h-3.96c-.1,0-.18.05-.24.15l-.02.02c-.06.1-.06.19-.02.28.52.93,1.19,1.83,2.02,2.69.07.09.14.09.22,0,.83-.9,1.53-1.9,2.09-2.99Z" style="fill: #4b4c4e;"/>
        <path d="M75.23,20.28c-.24,0-.46-.09-.63-.27-.18-.18-.27-.39-.27-.65s.09-.46.27-.63c.18-.17.39-.26.63-.26h8.07c.24,0,.46.09.63.26.18.17.27.38.27.63s-.09.47-.27.65c-.18.18-.39.27-.63.27h-1.81c-.1,0-.15.05-.15.15v1.89c0,.1.05.15.15.15h.99c.34,0,.64.13.89.38s.38.55.38.89v12.88c0,.23-.08.42-.25.58s-.36.24-.59.24-.42-.08-.58-.24c-.16-.16-.24-.35-.24-.58v-.19c0-.09-.04-.13-.13-.13h-5.38c-.1,0-.15.06-.15.17v.47c0,.23-.08.42-.24.58-.16.16-.35.24-.57.24s-.41-.08-.57-.24c-.16-.16-.24-.35-.24-.58v-13.21c0-.34.12-.64.37-.89.24-.25.54-.38.9-.38h1.14c.11,0,.17-.05.17-.15v-1.89c0-.1-.06-.15-.17-.15h-2ZM76.58,24.2c-.1,0-.15.06-.15.17v6.73c0,.11.05.17.15.17h5.33c.12,0,.17-.06.17-.17v-1.48c0-.09-.06-.13-.17-.13h-.97c-.46,0-.77-.09-.94-.28s-.25-.57-.25-1.14v-3.7c0-.11-.05-.17-.15-.17h-.71c-.11,0-.17.06-.17.17v1.57c0,1.58-.37,2.84-1.12,3.79-.1.11-.23.17-.38.17s-.28-.05-.4-.15c-.1-.1-.15-.22-.16-.37,0-.14.03-.27.12-.39.6-.76.9-1.78.9-3.08v-1.55c0-.11-.06-.17-.17-.17h-.95ZM76.43,34.52c0,.1.05.15.15.15h5.33c.12,0,.17-.05.17-.15v-1.61c0-.11-.06-.17-.17-.17h-5.33c-.1,0-.15.06-.15.17v1.61ZM79.74,22.48c.1,0,.15-.05.15-.15v-1.89c0-.1-.05-.15-.15-.15h-.77c-.11,0-.17.05-.17.15v1.89c0,.1.06.15.17.15h.77ZM82.07,28.39h.02v-4.02c0-.11-.06-.17-.17-.17h-.95c-.11,0-.17.06-.17.17v3.68c0,.14.01.24.04.28s.1.06.21.06h.6c.16,0,.25-.01.28-.04.03-.01.05-.02.06-.01.01,0,.04.03.07.05ZM88.35,35.7h2.99c.4,0,.67-.16.82-.49.14-.33.25-1.03.32-2.11.01-.22.12-.38.32-.48.2-.11.4-.11.6-.01.29.13.52.32.69.56.14.21.21.44.21.67v.13c-.14,1.39-.41,2.34-.81,2.86-.39.52-1.06.77-2.01.77h-3.42c-1.1,0-1.86-.2-2.26-.6-.4-.4-.6-1.18-.6-2.32v-8.02c0-.34.12-.64.38-.89s.55-.38.89-.38h4.95c.1,0,.15-.05.15-.15v-4.45c0-.11-.05-.17-.15-.17h-5.29c-.27,0-.51-.1-.7-.29-.19-.19-.29-.42-.29-.69s.1-.49.29-.69c.19-.19.43-.29.7-.29h6.15c.36,0,.66.13.9.38.24.25.37.55.37.89v7.87c0,.27-.1.51-.29.7-.19.19-.43.29-.7.29s-.5-.1-.7-.29c-.19-.19-.29-.43-.29-.7v-.3c0-.11-.05-.17-.15-.17h-4.02c-.12,0-.17.06-.17.17v7.18c0,.43.07.71.2.84.14.13.44.19.91.19Z" style="fill: #4b4c4e;"/>
        <path d="M102.72,18.65c.1-.26.28-.45.54-.58.14-.07.29-.11.45-.11.11,0,.22.01.32.04.26.09.44.25.56.5.07.13.11.26.11.39,0,.12-.02.23-.06.34-.47,1.19-1.05,2.42-1.72,3.68-.06.1-.09.2-.09.3v13.64c0,.26-.09.48-.28.68-.19.19-.42.29-.69.29s-.5-.1-.69-.29-.28-.42-.28-.68v-10.54s-.01-.05-.03-.05-.05,0-.08.01c-.27.4-.55.77-.84,1.12-.16.19-.34.28-.56.28-.04,0-.09,0-.13-.02-.27-.03-.47-.17-.6-.43-.14-.24-.22-.51-.22-.8,0-.06,0-.11.02-.17.03-.34.15-.65.37-.92,1.56-1.86,2.86-4.09,3.89-6.67ZM117.35,28.37c.29,0,.53.1.72.29.19.19.29.43.29.7s-.1.51-.29.71c-.19.2-.43.3-.72.3h-4.67c-.1,0-.15.05-.15.15v6.28c0,.29-.1.53-.3.73-.2.2-.45.3-.73.3s-.53-.1-.73-.3c-.2-.2-.3-.44-.3-.73v-6.28c0-.1-.05-.15-.15-.15h-4.95c-.27,0-.51-.1-.7-.3-.19-.2-.29-.44-.29-.71s.1-.51.29-.7c.19-.19.43-.29.7-.29h4.95c.1,0,.15-.06.15-.17v-4.04c0-.1-.05-.15-.15-.15h-2.82c-.1,0-.17.05-.21.15-.3.8-.6,1.5-.9,2.09-.13.23-.33.38-.6.45-.09.01-.17.02-.26.02-.17,0-.34-.04-.52-.13-.23-.13-.38-.33-.45-.6-.03-.09-.04-.17-.04-.26,0-.16.04-.31.13-.47.8-1.43,1.43-3.26,1.89-5.48.06-.27.2-.49.43-.65.17-.11.36-.17.56-.17.06,0,.12,0,.19.02.27.06.49.2.65.43.1.17.15.34.15.52,0,.09,0,.17-.02.24-.13.54-.27,1.1-.43,1.68-.01.04-.01.08.01.12s.05.05.1.05h2.15c.1,0,.15-.06.15-.17v-2.9c0-.29.1-.53.3-.73s.44-.3.73-.3.53.1.73.3c.2.2.3.44.3.73v2.9c0,.12.05.17.15.17h3.68c.29,0,.53.1.72.29.19.19.29.43.29.71s-.1.52-.29.71c-.19.19-.43.29-.72.29h-3.68c-.1,0-.15.05-.15.15v4.04c0,.11.05.17.15.17h4.67Z" style="fill: #4b4c4e;"/>
        <path d="M132.78,19.92s-.01.08.01.11.05.04.1.04h6.28c.34,0,.64.13.89.38s.38.55.38.89v14.86c0,.3-.11.56-.32.77-.21.21-.47.32-.77.32h-.11c-.26,0-.48-.1-.68-.29-.19-.19-.29-.42-.29-.68,0-.09-.04-.13-.13-.13h-10.88c-.09,0-.13.04-.13.13v.04c0,.27-.1.51-.3.71-.2.2-.44.3-.72.3s-.52-.1-.72-.3c-.2-.2-.3-.44-.3-.71v-15.03c0-.34.12-.64.38-.89s.55-.38.89-.38h4.13c.1,0,.17-.05.19-.15.17-.54.31-1.08.43-1.59.09-.34.27-.62.54-.82.24-.17.5-.26.77-.26.06,0,.12,0,.17.02.3.03.53.17.69.43.1.16.15.32.15.49,0,.11-.02.23-.07.34-.21.54-.41,1-.58,1.38ZM138.26,22.17c0-.1-.06-.15-.17-.15h-10.8c-.12,0-.17.05-.17.15v2.49c0,.12.06.17.17.17h10.8c.12,0,.17-.06.17-.17v-2.49ZM138.26,26.91c0-.11-.06-.17-.17-.17h-10.8c-.12,0-.17.06-.17.17v2.49c0,.1.06.15.17.15h10.8c.12,0,.17-.05.17-.15v-2.49ZM127.12,34.13c0,.11.06.17.17.17h10.8c.12,0,.17-.06.17-.17v-2.54c0-.1-.06-.15-.17-.15h-10.8c-.12,0-.17.05-.17.15v2.54Z" style="fill: #4b4c4e;"/>
        <path d="M157.77,21.68c0,.1.06.15.17.15h6.17c.36,0,.66.13.9.38.24.25.37.55.37.89v13.61c0,.3-.1.56-.31.76-.21.21-.46.31-.75.31s-.54-.1-.75-.31c-.21-.21-.31-.46-.31-.76,0-.09-.04-.13-.13-.13h-12.65c-.1,0-.15.04-.15.13v.13c0,.29-.1.53-.3.73-.2.2-.44.3-.72.3s-.52-.1-.72-.3c-.2-.2-.3-.44-.3-.73v-13.74c0-.34.12-.64.37-.89.24-.25.54-.38.9-.38h5.96c.11,0,.17-.05.17-.15v-2.97c0-.3.1-.55.3-.75.2-.2.45-.3.74-.3s.54.1.74.3c.2.2.3.45.3.75v2.97ZM155.69,24.07c0-.1-.06-.15-.17-.15h-5.03c-.1,0-.15.05-.15.15v3.96c0,.1.05.15.15.15h5.03c.11,0,.17-.05.17-.15v-3.96ZM150.48,30.2c-.1,0-.15.05-.15.15v4.06c0,.1.05.15.15.15h5.03c.11,0,.17-.05.17-.15v-4.06c0-.1-.06-.15-.17-.15h-5.03ZM163.26,24.07c0-.1-.05-.15-.15-.15h-5.16c-.11,0-.17.05-.17.15v3.96c0,.1.06.15.17.15h5.16c.1,0,.15-.05.15-.15v-3.96ZM157.77,34.41c0,.1.06.15.17.15h5.16c.1,0,.15-.05.15-.15v-4.06c0-.1-.05-.15-.15-.15h-5.16c-.11,0-.17.05-.17.15v4.06Z" style="fill: #4b4c4e;"/>
        <path d="M182.62,23.49c.37-.53.85-.8,1.44-.8s1.1.25,1.51.75c1.42,1.79,3.08,3.18,4.97,4.17.23.13.38.32.45.58.03.1.04.19.04.26,0,.17-.05.34-.15.49-.14.24-.35.41-.62.49-.1.03-.19.04-.28.04-.17,0-.34-.05-.49-.15-.57-.34-1.13-.72-1.68-1.14-.01-.01-.04-.01-.06,0s-.04.04-.04.06c0,.29-.1.54-.31.75-.21.22-.46.32-.76.32h-4.75c-.3,0-.55-.1-.75-.31-.2-.21-.3-.45-.3-.74,0-.03-.01-.05-.04-.06-.03-.01-.05-.01-.06,0-.57.47-1.15.89-1.72,1.25-.2.12-.4.17-.6.17-.11,0-.23-.01-.34-.04-.33-.1-.59-.3-.77-.6-.04-.07-.09-.14-.13-.21-.06-.09-.14-.11-.24-.09l-.92.3c-.1.03-.15.1-.15.22v6.24c0,.54-.06.97-.18,1.28-.12.31-.34.54-.66.7-.42.23-1.08.36-2,.39h-.04c-.27,0-.52-.09-.73-.26-.23-.19-.39-.43-.49-.73-.01-.09-.02-.16-.02-.24,0-.14.04-.29.13-.43.14-.2.34-.29.58-.28h1.08c.14,0,.24-.03.3-.1.06-.06.09-.18.09-.33v-5.63s-.01-.06-.04-.09c-.03-.03-.06-.04-.11-.02l-1.61.49c-.09.03-.18.04-.28.04-.16,0-.32-.04-.47-.13-.23-.13-.38-.33-.45-.6-.01-.09-.02-.17-.02-.26,0-.17.05-.34.15-.52.14-.24.36-.4.64-.47.57-.16,1.25-.35,2.04-.58.1-.03.15-.1.15-.22v-3.51c0-.1-.05-.15-.15-.15h-1.7c-.26,0-.48-.09-.67-.28-.19-.19-.28-.41-.28-.68s.09-.49.28-.67c.19-.18.41-.27.67-.27h1.7c.1,0,.15-.06.15-.17v-3.12c0-.26.1-.48.29-.68.19-.19.43-.29.7-.29s.5.1.69.29c.19.19.28.42.28.68v3.12c0,.12.06.17.17.17h.8c.27,0,.5.09.68.27.18.18.27.4.27.67s-.09.49-.27.68c-.18.19-.41.28-.68.28h-.8c-.12,0-.17.05-.17.15v2.95s.02.06.05.09c.04.03.08.04.12.02l.49-.15c.12-.03.22-.04.32-.04.2,0,.39.06.58.17.27.17.43.42.47.75.01.03.04.05.08.08.04.02.07.02.1-.01.9-.54,1.76-1.2,2.56-1.97.8-.77,1.48-1.55,2.02-2.35ZM182.07,23.03c-.18.19-.4.28-.67.28s-.49-.09-.68-.28c-.19-.19-.28-.41-.28-.67v-.67c0-.11-.05-.17-.15-.17h-1.61c-.24,0-.45-.09-.62-.26-.17-.17-.26-.38-.26-.62s.09-.45.26-.62c.17-.17.38-.26.62-.26h1.61c.1,0,.15-.05.15-.15v-1.03c0-.26.09-.48.28-.67.19-.19.41-.28.68-.28s.49.09.67.28c.18.19.27.41.27.67v1.03c0,.1.06.15.17.15h3.46c.12,0,.17-.05.17-.15v-1.01c0-.27.09-.5.28-.69.19-.19.41-.28.68-.28s.5.09.69.28c.19.19.29.42.29.69v1.01c0,.1.05.15.15.15h1.83c.24,0,.45.09.62.26.17.17.26.38.26.62s-.09.45-.26.62c-.17.17-.38.26-.62.26h-1.83c-.1,0-.15.06-.15.17v.71c0,.27-.1.5-.29.69-.19.19-.42.28-.69.28s-.49-.09-.68-.28c-.19-.19-.28-.42-.28-.69v-.71c0-.11-.06-.17-.17-.17h-3.46c-.12,0-.17.06-.17.17v.67c0,.26-.09.48-.27.67ZM180.23,37.85c-.26,0-.48-.09-.66-.27-.18-.18-.27-.4-.27-.66v-4.73c0-.34.13-.64.38-.89.25-.25.55-.38.89-.38h7.46c.34,0,.64.13.89.38.25.25.38.55.38.89v4.6c0,.27-.09.5-.28.69-.19.19-.42.28-.69.28h-.24c-.2,0-.37-.07-.5-.2-.14-.14-.2-.3-.2-.51,0-.06-.03-.09-.09-.09h-6.04c-.07,0-.11.04-.11.11,0,.21-.08.4-.23.55s-.33.23-.55.23h-.15ZM187.4,32.76c0-.11-.06-.17-.17-.17h-5.89c-.11,0-.17.06-.17.17v2.43c0,.1.06.15.17.15h5.89c.11,0,.17-.05.17-.15v-2.43ZM181.46,27.59s-.04.04-.02.06c.01.03.04.04.06.04h5.5s.05-.01.05-.04c0-.03,0-.05-.01-.06-1.19-1-2.13-1.99-2.82-2.97-.03-.03-.06-.04-.1-.04s-.07.02-.1.06c-.63.96-1.49,1.94-2.58,2.95Z" style="fill: #4b4c4e;"/>
        <path d="M206.67,35.72c-.39.36-.86.54-1.42.54s-1.03-.18-1.42-.54c-.39-.36-.58-.82-.58-1.38s.19-1.02.58-1.39c.39-.37.86-.55,1.42-.55s1.03.18,1.42.55c.39.37.58.83.58,1.39s-.19,1.02-.58,1.38ZM205.92,30.39c-.19.17-.41.26-.67.26s-.48-.09-.67-.26c-.19-.17-.29-.39-.3-.65l-.58-7.2-.02-1.63c-.01-.34.1-.64.34-.89.24-.25.54-.38.88-.38h.71c.34,0,.64.13.88.38.24.25.36.55.34.89l-.02,1.63-.6,7.2c-.01.26-.12.47-.3.65Z" style="fill: #4b4c4e;"/>
      </g>
    </g>
  </g>
</svg>