<?xml version="1.0" encoding="UTF-8"?>
<svg id="_圖層_2" data-name="圖層 2" xmlns="http://www.w3.org/2000/svg" width="254.8" height="80.04" viewBox="0 0 254.8 80.04">
  <g id="_設計" data-name="設計">
    <g>
      <path d="M84.49,65.82h148.68c11.39,0,20.62-9.11,20.62-20.35v-24.11c0-11.24-9.23-20.35-20.62-20.35H21.63c-11.39,0-20.62,9.11-20.62,20.35v24.11c0,11.24,9.23,20.35,20.62,20.35h24.37s31.03,13.05,31.03,13.05c1.7.71,3.44-.92,2.8-2.63l-3.91-10.41h8.58Z" style="fill: #fff; stroke: #4b4c4e; stroke-linecap: round; stroke-linejoin: round; stroke-width: 2.01px;"/>
      <g>
        <path d="M24.71,38.53c.2.21.3.47.3.76s-.1.55-.3.76c-.2.21-.46.32-.76.32h-2.82c-.12,0-.18.06-.18.18v3.12c0,.29-.1.53-.3.72-.2.19-.44.29-.72.29s-.52-.1-.71-.29c-.19-.19-.29-.44-.29-.72v-3.12c0-.12-.07-.18-.2-.18h-2.95c-.29,0-.54-.11-.75-.32-.21-.21-.32-.47-.32-.76s.11-.55.32-.76c.21-.21.46-.32.75-.32h2.95c.14,0,.2-.07.2-.2v-1.42c0-.14-.07-.2-.2-.2h-1.7c-.42,0-.78-.14-1.07-.43-.29-.29-.43-.64-.43-1.07v-6.12c0-.42.14-.78.43-1.07.29-.29.64-.43,1.07-.43h1.68c.14,0,.2-.07.2-.2v-1.29c0-.14-.07-.2-.2-.2h-2.56c-.29,0-.54-.1-.75-.3s-.32-.45-.32-.74.11-.54.32-.75c.21-.21.46-.32.75-.32h2.56c.14,0,.2-.06.2-.18v-1.45c0-.29.1-.53.29-.72.19-.19.43-.29.71-.29s.52.1.72.29c.2.19.3.44.3.72v1.45c0,.12.06.18.18.18h2.62c.29,0,.53.11.74.32.2.21.3.46.3.75s-.1.53-.3.74-.45.3-.74.3h-2.62c-.12,0-.18.07-.18.2v1.29c0,.14.06.2.18.2h1.88c.41,0,.76.14,1.05.43.3.29.44.64.44,1.07v6.12c0,.42-.15.78-.44,1.07-.3.29-.65.43-1.05.43h-1.85c-.12,0-.18.07-.18.2v1.42c0,.14.06.2.18.2h2.82c.3,0,.56.11.76.32ZM17.42,29c-.14,0-.2.07-.2.2v1.57c0,.12.07.18.2.18h1.52c.12,0,.18-.06.18-.18v-1.57c0-.14-.06-.2-.18-.2h-1.52ZM17.42,32.65c-.14,0-.2.06-.2.18v1.6c0,.14.07.2.2.2h1.52c.12,0,.18-.07.18-.2v-1.6c0-.12-.06-.18-.18-.18h-1.52ZM22.47,30.95c.12,0,.18-.06.18-.18v-1.57c0-.14-.06-.2-.18-.2h-1.52c-.12,0-.18.07-.18.2v1.57c0,.12.06.18.18.18h1.52ZM22.47,34.63c.12,0,.18-.07.18-.2v-1.6c0-.12-.06-.18-.18-.18h-1.52c-.12,0-.18.06-.18.18v1.6c0,.14.06.2.18.2h1.52ZM32.93,41.77c0,.12.06.18.18.18h4.52c.29,0,.53.1.74.3s.3.45.3.74-.1.53-.3.74-.45.3-.74.3h-11.96c-.29,0-.53-.1-.74-.3s-.3-.45-.3-.74.1-.53.3-.74.45-.3.74-.3h4.65c.14,0,.2-.06.2-.18v-4.14c0-.14-.07-.2-.2-.2h-3.3c-.29,0-.53-.1-.74-.29-.2-.19-.3-.44-.3-.72s.1-.53.3-.74.45-.3.74-.3h9.83c.29,0,.53.1.72.3s.29.45.29.74-.1.53-.29.72c-.19.19-.44.29-.72.29h-3.73c-.12,0-.18.07-.18.2v4.14ZM29.2,33.06c.12.25.12.51.01.77-.11.26-.3.44-.56.55s-.52.1-.77-.01c-.25-.11-.44-.3-.56-.57-.42-.93-.95-1.93-1.57-3-.25-.41-.38-.85-.38-1.35,0-.44.1-.85.3-1.24.49-.88.91-1.73,1.27-2.54.12-.27.31-.47.58-.61.17-.1.35-.15.53-.15.08,0,.18.02.28.05.25.05.44.19.56.43.12.24.12.47,0,.71-.47.93-1.04,2.01-1.7,3.22-.07.12-.06.23.03.33.78,1.19,1.44,2.32,1.98,3.4ZM37.28,21.99c.29,0,.53.1.74.3s.3.44.3.72-.1.52-.3.72-.45.3-.74.3h-10.82c-.27,0-.51-.1-.71-.3s-.3-.44-.3-.72.1-.52.3-.72.44-.3.71-.3h10.82ZM31.11,25.67c.14-.27.33-.47.58-.61.19-.1.37-.15.56-.15.08,0,.18.02.28.05.25.05.44.19.55.43.11.24.11.47-.01.71-.51,1-1.1,2.07-1.78,3.2-.07.12-.06.23.03.33.81,1.12,1.51,2.23,2.11,3.35.14.24.16.49.06.75-.09.26-.27.45-.53.56-.26.11-.52.11-.79.01s-.46-.28-.6-.53c-.44-.95-1.02-1.96-1.73-3.02-.25-.41-.38-.85-.38-1.35,0-.42.1-.82.3-1.19.52-.9.97-1.74,1.35-2.54ZM37.81,33.03c.15.24.18.49.09.75-.09.26-.28.45-.55.57-.14.05-.27.08-.41.08-.12,0-.25-.03-.38-.08-.25-.1-.45-.28-.58-.53-.49-.95-1.12-1.97-1.88-3.07-.29-.41-.43-.85-.43-1.35,0-.41.11-.79.33-1.14.56-.93,1.04-1.79,1.45-2.59.14-.29.34-.49.61-.61.17-.08.35-.13.53-.13.1,0,.2,0,.3.03.27.07.46.22.57.46.11.24.1.47-.04.71-.42.76-1.05,1.83-1.88,3.2-.07.12-.06.23.03.33.88,1.19,1.62,2.31,2.23,3.38Z" style="fill: #4b4c4e;"/>
        <path d="M50.36,36.61c-.14,0-.2.07-.2.2v.51c0,.12.06.21.18.28.69.47,1.57,1.12,2.62,1.93.25.2.38.47.38.81,0,.24-.08.45-.25.63-.17.22-.39.33-.66.33s-.49-.1-.66-.3c-.39-.42-.87-.91-1.45-1.45-.03-.02-.07-.02-.1-.01-.03,0-.05.04-.05.09v3.94c0,.3-.11.56-.32.77-.21.21-.47.32-.76.32s-.55-.11-.76-.32c-.21-.21-.32-.47-.32-.77v-4.16s-.01-.03-.04-.04c-.03,0-.05,0-.06.01-.37.54-.76,1.06-1.17,1.55-.41.49-.81.94-1.22,1.35-.2.17-.42.25-.66.25h-.1c-.3-.03-.56-.16-.76-.38-.17-.19-.25-.41-.25-.66,0-.3.12-.56.36-.76,1.35-1.1,2.51-2.41,3.48-3.94.02-.03.02-.07,0-.11-.02-.04-.05-.06-.1-.06h-2.62c-.27,0-.5-.09-.69-.27s-.28-.4-.28-.66.09-.49.28-.67c.19-.19.42-.28.69-.28h2.97c.12,0,.18-.07.18-.2v-1.65c0-.12-.06-.18-.18-.18-.49.02-1.37.06-2.64.13-.22.02-.42-.05-.6-.19-.18-.14-.28-.33-.29-.57-.02-.22.05-.41.2-.57.15-.16.34-.24.56-.24l.79-.03c.12-.02.21-.08.28-.18.2-.41.38-.78.53-1.12.02-.03.01-.07-.01-.11-.03-.04-.05-.06-.09-.06h-2.06c-.2,0-.38-.07-.52-.22-.14-.14-.22-.31-.22-.51s.07-.36.22-.51c.14-.14.32-.22.52-.22h1.19c.12,0,.18-.07.18-.2v-5.08c0-.42.15-.78.44-1.07.3-.29.65-.43,1.05-.43h7.59c.2,0,.37.07.51.2.14.14.2.3.2.51s-.07.38-.2.52c-.14.14-.3.22-.51.22h-6.65c-.14,0-.2.06-.2.18v.58c0,.14.07.2.2.2h6.04c.17,0,.32.06.44.18.13.12.19.26.19.43s-.06.32-.19.44-.28.19-.44.19h-6.04c-.14,0-.2.06-.2.18v.56c0,.14.07.2.2.2h6.04c.17,0,.32.06.44.18.13.12.19.27.19.44s-.06.33-.19.44c-.13.12-.28.18-.44.18h-6.04c-.14,0-.2.06-.2.18v.56c0,.14.07.2.2.2h7.85c.2,0,.37.07.51.22.14.14.2.31.2.51s-.07.36-.2.51c-.14.14-.3.22-.51.22h-2.03s-.05.02-.06.05c0,.03,0,.06.01.08.75.63,1.36,1.24,1.85,1.83.15.19.2.39.14.62s-.2.39-.42.5c-.24.12-.47.15-.71.09-.24-.06-.43-.19-.58-.39-.03-.03-.06-.07-.08-.1-.05-.05-.12-.08-.2-.08-.37.02-.77.04-1.18.06s-.87.05-1.37.08-.88.05-1.16.06c-.14.02-.2.08-.2.2v1.78c0,.14.07.2.2.2h2.34c.27,0,.5.09.67.28.18.19.27.41.27.67s-.09.48-.27.66-.4.27-.67.27h-2.34ZM52.72,29.81s.02-.02,0-.05h-3.63c-.14,0-.24.05-.3.15-.03.05-.13.21-.29.48-.16.27-.28.47-.37.58-.02.03-.02.07,0,.1.02.03.05.05.1.05l4.52-.2s.03,0,.04-.03c0-.02,0-.03-.01-.05l-.15-.15c-.15-.12-.22-.27-.19-.47.03-.19.12-.33.29-.42ZM61.84,34.99c-.05-.1-.14-.15-.28-.15h-3.53c-.17,0-.25-.08-.25-.25-.61,1.59-1.49,2.98-2.64,4.16-.2.2-.45.3-.74.3h-.03c-.3-.02-.57-.13-.79-.33-.2-.17-.3-.39-.3-.66s.09-.5.28-.69c.61-.59,1.13-1.27,1.57-2.03.22-.37.52-.66.89-.86.25-.14.52-.2.79-.2.14,0,.27.02.41.05l.41.1c.1.02.15-.03.15-.13,0-.37.13-.69.39-.94s.57-.38.93-.38h2.54c.88,0,1.59.45,2.13,1.35.64,1.07,1.51,1.94,2.59,2.62.24.14.38.35.43.63.02.05.03.11.03.18,0,.2-.07.39-.2.56-.19.25-.43.42-.74.48-.08.02-.17.03-.25.03-.2,0-.39-.06-.56-.18-1.41-1-2.48-2.22-3.22-3.66ZM61.76,40.55c-.15-.19-.2-.4-.15-.63.05-.24.19-.4.41-.48.17-.08.35-.13.53-.13.1,0,.19,0,.28.03.29.05.52.19.71.41.95,1.08,1.7,2.12,2.26,3.12.08.15.13.3.13.46,0,.1-.03.21-.08.33-.08.25-.26.45-.53.58-.14.07-.27.1-.41.1-.12,0-.24-.02-.36-.05-.25-.1-.45-.27-.58-.51-.02-.03-.03-.08-.05-.13-.05-.08-.13-.13-.23-.13-1.57.12-4.55.32-8.94.61h-.08c-.27,0-.51-.08-.71-.25-.25-.22-.38-.5-.38-.84,0-.24.08-.45.25-.63.19-.2.42-.31.69-.33.56-.02,1.06-.03,1.5-.05.14-.02.23-.08.28-.18.51-1.18.96-2.39,1.37-3.61.1-.32.3-.58.58-.76.2-.1.42-.15.63-.15.1,0,.2,0,.3.03.3.08.52.26.66.53.08.15.13.3.13.46,0,.14-.03.27-.1.41-.25.56-.5,1.09-.74,1.6s-.47.98-.69,1.42c-.02.03-.01.07.01.1.03.03.05.05.09.05l3.91-.18c.05-.02.08-.04.1-.08.02-.03,0-.07-.03-.1-.22-.32-.48-.66-.79-1.02ZM64,28.52c.41-.27.8-.41,1.17-.41.22,0,.44.04.66.13.24.08.37.25.41.51.02.03.03.08.03.13,0,.19-.08.34-.23.46-1.66,1.35-4.12,2.4-7.39,3.15-.1.02-.2.03-.3.03-.19,0-.37-.04-.56-.13-.29-.12-.52-.31-.71-.58-.14-.19-.17-.38-.09-.6.08-.21.22-.33.44-.37,2.89-.52,5.09-1.29,6.58-2.31ZM62.5,21.56c.34-.19.67-.28.99-.28.27,0,.54.07.81.2.2.1.31.27.33.5s-.08.4-.28.52c-1.46.91-3.24,1.74-5.36,2.46-.19.07-.36.1-.53.1-.41,0-.78-.18-1.12-.53-.17-.17-.23-.36-.18-.57.05-.21.18-.35.38-.42,2.01-.63,3.67-1.29,4.95-1.98ZM63.29,24.99c.37-.22.74-.33,1.09-.33.25,0,.5.06.74.18.22.08.35.25.38.48.03.24-.05.42-.25.56-1.51,1.03-3.44,1.9-5.81,2.59-.15.03-.3.05-.43.05-.42,0-.8-.19-1.14-.58-.15-.17-.2-.36-.14-.56s.19-.34.39-.41c2.15-.56,3.88-1.22,5.18-1.98Z" style="fill: #4b4c4e;"/>
        <path d="M72.82,26.23c0-.2.08-.37.24-.5s.33-.18.52-.17c.22.03.4.13.55.29.14.16.22.35.22.57-.05,2.25-.35,4.12-.89,5.61-.07.22-.21.37-.42.46-.21.08-.42.08-.62-.03-.2-.08-.35-.23-.43-.43-.03-.12-.05-.23-.05-.33s.02-.2.05-.3c.47-1.37.75-3.1.84-5.18ZM76.8,44.33c-.22.22-.48.33-.79.33s-.56-.11-.77-.33c-.21-.22-.32-.48-.32-.79v-21.63c0-.3.11-.56.32-.77.21-.21.47-.32.77-.32s.57.11.79.32c.22.21.33.47.33.77v21.63c0,.3-.11.57-.33.79ZM77.57,25.32c-.02-.08-.03-.17-.03-.25,0-.12.03-.23.08-.33.08-.19.23-.31.43-.38.22-.08.43-.08.62.01.19.09.33.24.42.44.25.68.46,1.35.61,2.01.05.24.01.47-.11.69-.13.22-.31.37-.55.46-.2.07-.4.05-.58-.06-.19-.11-.3-.27-.33-.47-.14-.73-.32-1.43-.56-2.11ZM85.41,21.76c.41-.63.96-.94,1.65-.94s1.28.3,1.7.89c.85,1.19,1.81,2.31,2.89,3.38s2.17,1.96,3.28,2.69c.27.17.44.42.51.74.02.08.03.17.03.25,0,.22-.07.43-.2.63-.19.29-.43.47-.74.53-.1.02-.19.03-.28.03-.22,0-.42-.06-.61-.18-.69-.51-1.39-1.08-2.08-1.73-.02-.02-.04-.02-.08-.01-.03,0-.05.03-.05.06,0,.39-.14.72-.42,1s-.61.42-.98.42h-5.84c-.34,0-.63-.12-.88-.37-.25-.25-.37-.54-.37-.88,0-.03-.01-.05-.04-.06-.03,0-.05,0-.06.01-.71.64-1.42,1.22-2.13,1.73-.17.14-.36.2-.56.2-.08,0-.17,0-.25-.03-.29-.08-.52-.25-.71-.51-.12-.2-.18-.41-.18-.63v-.2c.05-.3.2-.54.46-.71,1.15-.83,2.26-1.81,3.31-2.93,1.06-1.13,1.93-2.26,2.63-3.39ZM85.39,31.36c.41,0,.76.14,1.05.43.3.29.44.64.44,1.07v9.6c0,.49-.05.88-.14,1.17-.09.29-.28.52-.57.69-.3.17-.72.28-1.24.33h-.1c-.25,0-.48-.08-.69-.25-.24-.19-.4-.43-.48-.74-.07-.24-.03-.45.11-.65.14-.19.33-.29.57-.29.12,0,.21,0,.28-.03.17,0,.25-.09.25-.28v-2.03c0-.12-.07-.18-.2-.18h-2.46c-.14,0-.2.06-.2.18v3.3c0,.27-.09.5-.28.7-.19.19-.42.29-.69.29s-.5-.1-.7-.29c-.19-.19-.29-.43-.29-.7v-10.82c0-.42.15-.78.44-1.07.3-.29.65-.43,1.05-.43h3.83ZM84.88,33.42c0-.14-.07-.2-.2-.2h-2.46c-.14,0-.2.07-.2.2v1.27c0,.14.07.2.2.2h2.46c.14,0,.2-.07.2-.2v-1.27ZM82.01,38.24c0,.12.07.18.2.18h2.46c.14,0,.2-.06.2-.18v-1.37c0-.12-.07-.18-.2-.18h-2.46c-.14,0-.2.06-.2.18v1.37ZM83.58,27.5s-.04.04-.03.08c.02.03.04.05.08.05h7.26s.06-.02.08-.05c.02-.03,0-.06-.03-.08-1.52-1.47-2.76-2.9-3.71-4.29-.02-.03-.05-.05-.09-.05s-.08.02-.11.05c-.85,1.41-2,2.84-3.45,4.29ZM88.67,32.11c.19-.19.42-.29.69-.29s.49.1.69.29c.19.19.29.42.29.67v7.01c0,.27-.1.5-.29.69-.19.19-.42.28-.69.28s-.49-.09-.69-.28c-.19-.19-.29-.41-.29-.69v-7.01c0-.25.1-.48.29-.67ZM92.34,42.33v-10.44c0-.27.1-.5.29-.7.19-.19.43-.29.7-.29s.5.1.7.29c.19.19.29.43.29.7v10.44c0,.54-.06.96-.19,1.27s-.36.55-.7.74c-.46.19-1.17.3-2.13.33h-.03c-.29,0-.54-.09-.76-.28-.24-.2-.4-.45-.48-.74-.08-.24-.05-.46.09-.66s.34-.3.6-.3h1.24c.15-.02.25-.05.3-.1s.08-.14.08-.25Z" style="fill: #4b4c4e;"/>
        <path d="M102.21,32.43c-.08.22-.24.37-.47.46-.23.08-.46.08-.7-.03-.2-.08-.35-.24-.43-.46-.05-.12-.08-.23-.08-.34s.02-.22.05-.34c.51-1.35.82-3.04.94-5.05,0-.22.08-.4.25-.55.17-.14.36-.2.58-.17.24.03.43.14.58.32s.23.39.23.62c-.08,2.22-.41,4.06-.96,5.54ZM119.95,42.07h1.73c.25,0,.43-.13.52-.38s.16-.8.19-1.65c.02-.27.14-.47.36-.58.22-.12.46-.13.71-.03.32.14.58.34.76.61.17.24.25.49.25.76,0,.05,0,.1-.03.15-.14,1.27-.38,2.14-.75,2.62-.36.47-.94.71-1.74.71h-2.39c-1.07,0-1.78-.21-2.13-.62-.36-.42-.53-1.19-.53-2.32v-5.64c0-.14-.06-.2-.18-.2h-1.6c-.14,0-.21.07-.23.2-.22,2-.66,3.67-1.33,5.03-.67,1.35-1.76,2.47-3.26,3.35-.19.1-.38.15-.58.15-.12,0-.24-.02-.36-.05-.3-.08-.57-.26-.79-.53-.19-.24-.25-.5-.2-.77s.2-.49.46-.62c1.24-.69,2.12-1.57,2.64-2.63.52-1.06.87-2.37,1.04-3.92.02-.14-.03-.2-.15-.2h-.46c-.41,0-.76-.14-1.05-.43-.3-.29-.44-.64-.44-1.07v-4.42s-.01-.05-.04-.06c-.03,0-.05,0-.06.01-.22.2-.47.3-.76.3h-.05c-.3-.02-.58-.14-.81-.36-.1-.1-.2-.19-.3-.28-.03-.02-.07-.03-.1-.03-.08.05-.17.06-.27.01-.09-.04-.16-.11-.19-.22-.3-1.1-.76-2.27-1.37-3.5-.02-.03-.04-.05-.06-.04-.03,0-.04.02-.04.04v18.03c0,.32-.11.6-.33.83s-.49.34-.81.34-.6-.11-.83-.34-.34-.5-.34-.83v-21.53c0-.3.11-.57.34-.8s.5-.34.83-.34.59.11.81.34.33.5.33.8v2.97s.02.06.05.09.08.03.13.01c.19-.08.38-.13.58-.13.15,0,.31.03.48.08.36.14.62.37.79.71.29.59.52,1.15.71,1.68.02.03.05.06.09.06.04,0,.08,0,.11-.04.73-.9,1.35-1.92,1.88-3.07.17-.39.44-.67.81-.84.2-.1.42-.15.63-.15.17,0,.34.03.51.1l.18.08s.07.01.11-.01.06-.06.06-.11v-.46c0-.41.14-.76.43-1.05.29-.3.64-.44,1.07-.44h3.88c.44,0,.83.14,1.18.41.35.27.6.62.75,1.04.69,1.9,1.68,3.46,2.95,4.7.25.24.4.53.43.89v.13c0,.3-.09.58-.28.81-.2.29-.47.46-.81.51h-.15c-.27,0-.51-.1-.71-.3l-.06-.06s-.05-.03-.08-.01c-.03.02-.04.04-.04.08v4.39c0,.42-.15.78-.44,1.07-.3.29-.65.43-1.05.43h-1.02c-.14,0-.2.07-.2.2v5.61c0,.34.04.55.11.63.08.08.25.13.52.13ZM113.53,23.56s-.03,0-.03.01c0,0,0,.01.03.01.2.08.26.23.18.43-.42,1.12-.95,2.18-1.57,3.17-.03.03-.04.07-.01.1.03.03.05.05.09.05h8.05s.06-.02.09-.05c.03-.03.02-.07-.01-.1-.66-1.12-1.2-2.26-1.62-3.43-.03-.14-.12-.2-.25-.2h-4.93ZM119.42,33.36c.14,0,.2-.06.2-.18v-3.5c0-.12-.07-.18-.2-.18h-6.53c-.14,0-.2.06-.2.18v3.5c0,.12.07.18.2.18h6.53Z" style="fill: #4b4c4e;"/>
        <path d="M144.8,24.66c-.02.05-.01.1.01.14.03.04.06.06.11.06h5.84c.42,0,.78.14,1.07.43.27.29.41.63.41,1.02,0,4.03-.2,8.14-.61,12.34-.24,2.3-.6,3.77-1.09,4.39-.32.41-.65.69-.98.86-.33.17-.76.3-1.28.38-.41.03-.94.05-1.6.05h-1.09c-.36-.02-.66-.14-.93-.38-.26-.24-.45-.53-.57-.89-.08-.27-.05-.52.09-.74.14-.22.35-.32.62-.3.95.03,1.81.05,2.59.05.49,0,.85-.14,1.09-.43.41-.42.71-1.69.93-3.8s.4-5.64.57-10.6c0-.12-.06-.18-.18-.18h-5.76c-.12,0-.2.06-.25.18-.49,1.07-.99,2.04-1.5,2.92-.2.34-.5.54-.89.61-.1.02-.19.03-.28.03-.29,0-.57-.09-.84-.28-.19-.14-.36-.25-.53-.36-.03-.02-.07-.02-.1,0-.03.02-.05.05-.05.1v10.23c0,.42-.15.78-.44,1.07-.3.29-.65.43-1.05.43h-5.36c-.14,0-.2.07-.2.2v.69c0,.3-.11.56-.32.77-.21.21-.47.32-.77.32s-.57-.11-.79-.32c-.22-.21-.33-.47-.33-.77v-16.4c0-.42.15-.78.44-1.07.3-.29.65-.43,1.05-.43h1.22c.14,0,.22-.06.25-.18.25-.9.47-1.8.63-2.72.07-.37.25-.66.56-.86.22-.17.47-.25.74-.25.08,0,.16,0,.23.03.36.05.62.23.79.53.12.17.18.36.18.56,0,.12-.03.25-.08.38-.3.85-.59,1.62-.86,2.34-.02.03,0,.07.03.11.03.04.07.06.1.06h2.49c.41,0,.76.14,1.05.43.3.29.44.64.44,1.07v3.22s.01.06.04.06c.03,0,.05,0,.06-.04,1.46-1.95,2.62-4.54,3.48-7.79.08-.32.27-.58.56-.76.19-.12.39-.18.61-.18.1,0,.19.02.28.05.32.07.57.25.74.53.12.19.18.37.18.56,0,.12-.02.23-.05.33-.24.81-.47,1.54-.69,2.18ZM137.38,27.27c0-.12-.07-.18-.2-.18h-4.44c-.14,0-.2.06-.2.18v4.57c0,.12.07.18.2.18h4.44c.14,0,.2-.06.2-.18v-4.57ZM132.53,39.69c0,.12.07.18.2.18h4.44c.14,0,.2-.06.2-.18v-5.36c0-.14-.07-.2-.2-.2h-4.44c-.14,0-.2.07-.2.2v5.36ZM147.46,35.52c.12.2.18.41.18.61,0,.1-.02.21-.05.33-.08.32-.27.57-.56.74-.17.12-.36.18-.56.18-.1,0-.2-.02-.3-.05-.3-.08-.53-.26-.69-.53-.66-1.17-1.53-2.52-2.62-4.06-.12-.17-.18-.36-.18-.56,0-.07,0-.14.03-.23.07-.29.22-.5.46-.63.2-.1.41-.15.61-.15.08,0,.18,0,.28.03.3.05.55.2.74.46,1.13,1.52,2.02,2.82,2.67,3.88Z" style="fill: #4b4c4e;"/>
        <path d="M171.57,27.73c.44-.63,1.01-.94,1.7-.94s1.3.3,1.78.89c1.68,2.12,3.63,3.76,5.87,4.93.27.15.45.38.53.69.03.12.05.22.05.3,0,.2-.06.4-.18.58-.17.29-.42.48-.74.58-.12.03-.23.05-.33.05-.2,0-.4-.06-.58-.18-.68-.41-1.34-.85-1.98-1.35-.02-.02-.04-.02-.08,0-.03.02-.05.04-.05.08,0,.34-.12.63-.37.89s-.55.38-.9.38h-5.61c-.36,0-.65-.12-.89-.37-.24-.25-.36-.54-.36-.88,0-.03-.02-.06-.05-.08-.03-.02-.06-.02-.08,0-.68.56-1.35,1.05-2.03,1.47-.24.14-.47.2-.71.2-.14,0-.27-.02-.41-.05-.39-.12-.69-.36-.91-.71-.05-.08-.1-.17-.15-.25-.07-.1-.16-.14-.28-.1l-1.09.36c-.12.03-.18.12-.18.25v7.36c0,.64-.07,1.15-.22,1.51-.14.36-.4.64-.77.83-.49.27-1.28.42-2.36.46h-.05c-.32,0-.61-.1-.86-.3-.27-.22-.47-.51-.58-.86-.02-.1-.03-.19-.03-.28,0-.17.05-.34.15-.51.17-.24.4-.35.69-.33h1.27c.17,0,.29-.04.36-.11s.1-.21.1-.39v-6.65s-.02-.07-.05-.1c-.03-.03-.08-.04-.13-.03l-1.9.58c-.1.03-.21.05-.33.05-.19,0-.37-.05-.56-.15-.27-.15-.45-.39-.53-.71-.02-.1-.03-.2-.03-.3,0-.2.06-.41.18-.61.17-.29.42-.47.76-.56.68-.19,1.48-.41,2.41-.69.12-.03.18-.12.18-.25v-4.14c0-.12-.06-.18-.18-.18h-2.01c-.3,0-.57-.11-.79-.33-.22-.22-.33-.49-.33-.8s.11-.58.33-.79c.22-.21.48-.32.79-.32h2.01c.12,0,.18-.07.18-.2v-3.68c0-.3.11-.57.34-.8s.5-.34.83-.34.59.11.81.34.33.5.33.8v3.68c0,.14.07.2.2.2h.94c.32,0,.59.11.8.32.21.21.32.47.32.79s-.11.58-.32.8c-.21.22-.48.33-.8.33h-.94c-.14,0-.2.06-.2.18v3.48s.02.07.06.1c.04.03.09.04.14.03l.58-.18c.14-.03.26-.05.38-.05.24,0,.47.07.69.2.32.2.51.5.56.89.02.03.05.06.09.09s.08.02.11-.01c1.07-.64,2.07-1.42,3.02-2.32.95-.91,1.74-1.83,2.39-2.78ZM170.92,27.19c-.21.22-.47.33-.79.33s-.58-.11-.8-.33c-.22-.22-.33-.48-.33-.79v-.79c0-.14-.06-.2-.18-.2h-1.9c-.29,0-.53-.1-.74-.3s-.3-.45-.3-.74.1-.53.3-.74.45-.3.74-.3h1.9c.12,0,.18-.06.18-.18v-1.22c0-.3.11-.57.33-.79.22-.22.49-.33.8-.33s.58.11.79.33c.21.22.32.48.32.79v1.22c0,.12.07.18.2.18h4.09c.14,0,.2-.06.2-.18v-1.19c0-.32.11-.59.33-.81.22-.22.49-.33.8-.33s.58.11.81.33c.23.22.34.49.34.81v1.19c0,.12.06.18.18.18h2.16c.29,0,.53.1.74.3s.3.45.3.74-.1.53-.3.74-.45.3-.74.3h-2.16c-.12,0-.18.07-.18.2v.84c0,.32-.11.59-.34.81-.23.22-.5.33-.81.33s-.58-.11-.8-.33c-.22-.22-.33-.49-.33-.81v-.84c0-.14-.07-.2-.2-.2h-4.09c-.14,0-.2.07-.2.2v.79c0,.3-.11.57-.32.79ZM168.75,44.69c-.3,0-.56-.11-.77-.32-.21-.21-.32-.47-.32-.77v-5.59c0-.41.15-.76.44-1.05.3-.3.65-.44,1.05-.44h8.81c.41,0,.76.15,1.05.44.3.3.44.65.44,1.05v5.43c0,.32-.11.59-.33.81-.22.22-.49.33-.81.33h-.28c-.24,0-.44-.08-.6-.24-.16-.16-.24-.36-.24-.6,0-.07-.03-.1-.1-.1h-7.13c-.08,0-.13.04-.13.13,0,.25-.09.47-.27.65s-.39.27-.65.27h-.18ZM177.2,38.67c0-.14-.07-.2-.2-.2h-6.96c-.14,0-.2.07-.2.2v2.87c0,.12.07.18.2.18h6.96c.14,0,.2-.06.2-.18v-2.87ZM170.2,32.58s-.04.04-.03.08c.02.03.04.05.08.05h6.5s.05-.02.06-.05c0-.03,0-.06-.01-.08-1.41-1.18-2.51-2.35-3.33-3.5-.03-.03-.07-.05-.11-.05s-.08.03-.11.08c-.75,1.13-1.76,2.29-3.05,3.48Z" style="fill: #4b4c4e;"/>
        <path d="M187.78,23.94c-.29,0-.54-.11-.75-.32-.21-.21-.32-.47-.32-.76s.11-.55.32-.75.46-.3.75-.3h9.52c.29,0,.54.1.75.3s.32.45.32.75-.11.55-.32.76c-.21.21-.46.32-.75.32h-2.13c-.12,0-.18.06-.18.18v2.23c0,.12.06.18.18.18h1.17c.41,0,.76.15,1.05.44.3.3.44.65.44,1.05v15.21c0,.27-.1.5-.29.69-.19.19-.43.28-.7.28s-.5-.09-.69-.28c-.19-.19-.28-.42-.28-.69v-.23c0-.1-.05-.15-.15-.15h-6.35c-.12,0-.18.07-.18.2v.56c0,.27-.09.5-.28.69-.19.19-.41.28-.67.28s-.49-.09-.67-.28c-.19-.19-.28-.42-.28-.69v-15.59c0-.41.14-.76.43-1.05.29-.3.64-.44,1.07-.44h1.35c.14,0,.2-.06.2-.18v-2.23c0-.12-.07-.18-.2-.18h-2.36ZM189.38,28.57c-.12,0-.18.07-.18.2v7.95c0,.14.06.2.18.2h6.3c.14,0,.2-.07.2-.2v-1.75c0-.1-.07-.15-.2-.15h-1.14c-.54,0-.91-.11-1.1-.33-.19-.22-.29-.67-.29-1.35v-4.37c0-.14-.06-.2-.18-.2h-.84c-.14,0-.2.07-.2.2v1.85c0,1.86-.44,3.35-1.32,4.47-.12.14-.27.2-.44.2s-.33-.06-.47-.18c-.12-.12-.18-.26-.19-.43,0-.17.04-.32.14-.46.71-.9,1.07-2.11,1.07-3.63v-1.83c0-.14-.07-.2-.2-.2h-1.12ZM189.2,40.75c0,.12.06.18.18.18h6.3c.14,0,.2-.06.2-.18v-1.9c0-.14-.07-.2-.2-.2h-6.3c-.12,0-.18.07-.18.2v1.9ZM193.11,26.53c.12,0,.18-.06.18-.18v-2.23c0-.12-.06-.18-.18-.18h-.91c-.14,0-.2.06-.2.18v2.23c0,.12.07.18.2.18h.91ZM195.85,33.52h.03v-4.75c0-.14-.07-.2-.2-.2h-1.12c-.14,0-.2.07-.2.2v4.34c0,.17.02.28.05.33s.12.08.25.08h.71c.19,0,.3-.02.33-.05.03-.02.06-.02.08-.01.02,0,.04.03.08.06ZM203.26,42.15h3.53c.47,0,.8-.19.96-.58.17-.39.3-1.22.38-2.49.02-.25.14-.44.38-.57s.47-.13.71-.01c.34.15.61.37.81.66.17.25.25.52.25.79v.15c-.17,1.64-.49,2.77-.95,3.38s-1.26.91-2.37.91h-4.04c-1.3,0-2.19-.24-2.67-.71-.47-.47-.71-1.39-.71-2.74v-9.47c0-.41.15-.76.44-1.05.3-.3.65-.44,1.05-.44h5.84c.12,0,.18-.06.18-.18v-5.26c0-.14-.06-.2-.18-.2h-6.25c-.32,0-.6-.11-.83-.34s-.34-.5-.34-.81.11-.58.34-.81.5-.34.83-.34h7.26c.42,0,.78.15,1.07.44.29.3.43.65.43,1.05v9.29c0,.32-.11.6-.34.83s-.5.34-.83.34-.6-.11-.83-.34-.34-.5-.34-.83v-.36c0-.14-.06-.2-.18-.2h-4.75c-.14,0-.2.07-.2.2v8.48c0,.51.08.84.24.99s.52.23,1.08.23Z" style="fill: #4b4c4e;"/>
        <path d="M219.18,42.38c-.38.39-.85.58-1.42.58s-1.04-.19-1.42-.58-.57-.88-.57-1.49.19-1.11.57-1.52c.38-.41.85-.62,1.42-.62s1.04.21,1.42.62c.38.42.57.92.57,1.52s-.19,1.1-.57,1.49Z" style="fill: #4b4c4e;"/>
        <path d="M229.53,42.38c-.38.39-.85.58-1.42.58s-1.04-.19-1.42-.58-.57-.88-.57-1.49.19-1.11.57-1.52c.38-.41.85-.62,1.42-.62s1.04.21,1.42.62c.38.42.57.92.57,1.52s-.19,1.1-.57,1.49Z" style="fill: #4b4c4e;"/>
        <path d="M239.87,42.38c-.38.39-.85.58-1.42.58s-1.04-.19-1.42-.58-.57-.88-.57-1.49.19-1.11.57-1.52c.38-.41.85-.62,1.42-.62s1.04.21,1.42.62c.38.42.57.92.57,1.52s-.19,1.1-.57,1.49Z" style="fill: #4b4c4e;"/>
      </g>
    </g>
  </g>
</svg>