<?xml version="1.0" encoding="UTF-8"?>
<svg id="_圖層_2" data-name="圖層 2" xmlns="http://www.w3.org/2000/svg" width="254.8" height="80.04" viewBox="0 0 254.8 80.04">
  <g id="_設計" data-name="設計">
    <g>
      <path d="M84.49,65.82h148.68c11.39,0,20.62-9.11,20.62-20.35v-24.11c0-11.24-9.23-20.35-20.62-20.35H21.63c-11.39,0-20.62,9.11-20.62,20.35v24.11c0,11.24,9.23,20.35,20.62,20.35h24.37s31.03,13.05,31.03,13.05c1.7.71,3.44-.92,2.8-2.63l-3.91-10.41h8.58Z" style="fill: #fff; stroke: #4b4c4e; stroke-linecap: round; stroke-linejoin: round; stroke-width: 2.01px;"/>
      <g>
        <path d="M21.61,21.91c.22-.05.42-.03.61.08l.51.3c.24.14.41.33.51.58s.11.52.03.79c-.88,2.64-1.58,4.62-2.11,5.94-.05.12-.03.23.05.33,1.35,1.62,2.03,3.39,2.03,5.28,0,1.59-.36,2.64-1.09,3.15-.39.29-.85.47-1.4.56-.2.02-.42.03-.63.03h-.05c-.29,0-.55-.1-.79-.3-.24-.22-.4-.5-.48-.84-.05-.25,0-.49.14-.7.14-.21.34-.32.6-.32h.2c.34-.03.6-.11.79-.23.34-.22.51-.76.51-1.62,0-1.29-.41-2.52-1.22-3.71-.39-.59-.58-1.18-.58-1.75,0-.29.05-.57.15-.84.41-1.24.84-2.69,1.29-4.37.02-.05.01-.09-.01-.13-.03-.03-.06-.05-.11-.05h-2.41c-.12,0-.18.06-.18.18v19.35c0,.29-.11.54-.32.75-.21.21-.46.32-.75.32s-.54-.11-.75-.32c-.21-.21-.32-.46-.32-.75v-20.21c0-.42.15-.78.44-1.07.3-.29.65-.43,1.05-.43h4.29ZM34.48,30.52c-.02.05-.01.09.01.13.03.03.06.05.11.05h2.95c.3,0,.56.11.77.32.21.21.32.47.32.77s-.11.56-.32.77c-.21.21-.47.32-.77.32h-13.3c-.3,0-.56-.11-.77-.32-.21-.21-.32-.47-.32-.77s.11-.56.32-.77c.21-.21.47-.32.77-.32h2.41c.12,0,.17-.06.15-.18-.1-.86-.34-1.86-.71-3-.08-.27-.06-.53.08-.79s.34-.41.61-.48c.1-.02.2-.03.3-.03.19,0,.37.04.56.13.27.15.47.37.58.66.2.56.37,1.13.51,1.7.03.12.05.25.05.38,0,.25-.08.51-.23.76-.24.36-.56.58-.96.69l-.46.1s-.03,0-.03.03,0,.03.03.03h6.98s.02-.05,0-.05l-.23-.05c-.39-.1-.68-.33-.86-.69-.12-.2-.18-.41-.18-.63,0-.15.03-.3.1-.46.34-1.03.58-1.93.74-2.69.03-.12-.02-.18-.15-.18h-8.61c-.3,0-.56-.11-.77-.32-.21-.21-.32-.47-.32-.77s.11-.56.32-.76.47-.3.77-.3h4.54c.14,0,.2-.07.2-.2v-1.6c0-.32.11-.6.34-.83s.5-.34.83-.34.6.11.83.34.34.5.34.83v1.6c0,.14.06.2.18.2h4.75c.3,0,.56.1.76.3s.3.46.3.76-.1.56-.3.77c-.2.21-.46.32-.76.32h-2.92s-.03,0-.03.01c0,0,0,.01.03.01l.58.15c.39.08.68.3.86.66.12.2.18.41.18.61,0,.15-.03.3-.1.46-.46,1.25-.81,2.14-1.07,2.67ZM26.11,44.69c-.32,0-.6-.11-.83-.34s-.34-.5-.34-.83v-6.96c0-.41.15-.76.44-1.05.3-.3.65-.44,1.05-.44h8.91c.42,0,.78.15,1.07.44.29.3.43.65.43,1.05v6.83c0,.34-.11.62-.34.85s-.5.34-.83.34h-.3c-.25,0-.47-.08-.63-.25-.17-.17-.25-.38-.25-.63,0-.07-.03-.1-.1-.1h-7.01c-.07,0-.1.04-.1.13,0,.27-.1.5-.29.69-.19.19-.43.28-.7.28h-.18ZM34.48,37.43c0-.14-.06-.2-.18-.2h-6.86c-.12,0-.18.07-.18.2v3.81c0,.14.06.2.18.2h6.86c.12,0,.18-.07.18-.2v-3.81Z" style="fill: #4b4c4e;"/>
        <path d="M48.87,21.96c.14-.3.36-.52.66-.66.17-.08.35-.13.53-.13.12,0,.25.02.38.05.3.1.52.3.66.58.07.15.1.3.1.46,0,.14-.03.28-.1.43-.56,1.29-1.22,2.59-1.98,3.91-.07.1-.1.22-.1.36v16.5c0,.3-.11.57-.33.8s-.49.34-.81.34-.59-.11-.81-.34-.33-.5-.33-.8v-13.03s-.01-.05-.04-.06c-.03,0-.05,0-.06.04-.49.64-.99,1.25-1.5,1.83-.19.2-.42.3-.69.3h-.15c-.32-.05-.57-.23-.74-.53-.15-.27-.23-.57-.23-.89,0-.07,0-.14.03-.23.05-.41.21-.76.48-1.07,2.05-2.22,3.72-4.84,5.03-7.87ZM66.18,35.35c.3,0,.57.11.79.33.22.22.33.49.33.8s-.11.58-.33.79c-.22.21-.48.32-.79.32h-6.07c-.14,0-.2.07-.2.2v5.66c0,.34-.12.63-.36.86-.24.24-.52.36-.86.36s-.63-.12-.86-.36c-.24-.24-.36-.52-.36-.86v-5.66c0-.14-.06-.2-.18-.2h-5.84c-.3,0-.57-.11-.79-.32-.22-.21-.33-.47-.33-.79s.11-.58.33-.8c.22-.22.48-.33.79-.33h5.84c.12,0,.18-.06.18-.18v-3.71c0-.12-.06-.18-.18-.18h-4.8c-.3,0-.57-.11-.79-.33-.22-.22-.33-.49-.33-.8s.11-.58.33-.8c.22-.22.48-.33.79-.33h4.8c.12,0,.18-.06.18-.18v-6.5c0-.34.12-.63.36-.86.24-.24.52-.36.86-.36s.63.12.86.36c.24.24.36.52.36.86v6.5c0,.12.07.18.2.18h4.98c.3,0,.57.11.79.33.22.22.33.49.33.8s-.11.58-.33.8c-.22.22-.48.33-.79.33h-4.98c-.14,0-.2.06-.2.18v3.71c0,.12.07.18.2.18h6.07ZM55.54,26.38c.05.14.08.27.08.41,0,.19-.04.36-.13.53-.15.3-.39.52-.71.63-.14.07-.26.1-.38.1-.17,0-.33-.04-.48-.13-.27-.14-.46-.36-.56-.66-.34-1.07-.79-2.2-1.35-3.4-.07-.14-.1-.28-.1-.43,0-.12.03-.24.08-.36.12-.27.3-.47.56-.58.15-.05.3-.08.46-.08s.3.03.43.08c.29.1.51.3.66.58.58,1.12,1.06,2.22,1.45,3.3ZM63.46,23.13c.12-.32.34-.57.66-.74.17-.08.35-.13.53-.13.15,0,.3.03.43.08.32.12.55.34.69.66.07.15.1.3.1.46,0,.17-.04.34-.13.51-.64,1.35-1.24,2.51-1.78,3.48-.14.25-.35.43-.63.53-.15.05-.3.08-.43.08s-.28-.03-.43-.1c-.27-.1-.46-.28-.56-.55-.1-.26-.08-.52.05-.77.58-1.18,1.08-2.35,1.5-3.5Z" style="fill: #4b4c4e;"/>
        <path d="M75.33,23.39c0-.41.15-.76.44-1.05.3-.3.65-.44,1.05-.44h14.29c.41,0,.76.15,1.05.44.3.3.44.65.44,1.05v19.04c0,.36-.13.66-.38.91s-.55.38-.9.38-.65-.13-.9-.38-.38-.56-.38-.91v-.13c0-.12-.06-.18-.18-.18h-11.88c-.14,0-.2.07-.2.2v.25c0,.36-.12.65-.36.89-.24.24-.53.36-.88.36s-.64-.12-.88-.36c-.24-.24-.36-.53-.36-.89v-19.2ZM90.06,24.55c0-.14-.06-.2-.18-.2h-11.88c-.14,0-.2.07-.2.2v5.94c0,.14.07.2.2.2h11.88c.12,0,.18-.07.18-.2v-5.94ZM77.8,39.48c0,.14.07.2.2.2h11.88c.12,0,.18-.07.18-.2v-6.2c0-.14-.06-.2-.18-.2h-11.88c-.14,0-.2.07-.2.2v6.2Z" style="fill: #4b4c4e;"/>
        <path d="M119.24,24.5s-.02.06,0,.09.04.04.08.04h2.62c.42,0,.78.15,1.07.44.29.3.43.65.43,1.05v3.12c0,.32-.11.6-.34.84-.23.24-.51.36-.85.36s-.62-.12-.85-.36c-.23-.24-.34-.52-.34-.84v-2.34c0-.14-.07-.2-.2-.2h-16.63c-.14,0-.2.07-.2.2v2.36c0,.32-.11.6-.34.83s-.5.34-.81.34-.58-.11-.81-.34-.34-.5-.34-.83v-3.15c0-.41.15-.76.44-1.05.3-.3.65-.44,1.05-.44h2.16c.05,0,.08-.02.1-.05.02-.03.02-.07,0-.1-.29-.52-.62-1.07-.99-1.62-.1-.17-.15-.34-.15-.51,0-.1,0-.19.03-.28.08-.29.26-.48.53-.58.2-.08.41-.13.61-.13.14,0,.27.02.41.05.34.08.62.26.84.53.19.25.36.5.53.74.14.22.2.45.2.69,0,.12-.03.25-.08.38-.12.39-.36.66-.74.81v.05s0,.03.03.03h4.44c.14,0,.2-.06.2-.18v-2.39c0-.34.12-.63.37-.88.25-.25.54-.37.88-.37s.63.12.88.37c.25.25.37.54.37.88v2.39c0,.12.07.18.2.18h4.27s.03,0,.04-.03c0-.02,0-.03-.01-.03-.36-.14-.58-.38-.69-.74-.02-.12-.03-.23-.03-.33,0-.24.07-.46.2-.66.17-.22.32-.44.46-.66.22-.34.51-.58.86-.71.2-.08.41-.13.61-.13.17,0,.34.03.51.08.3.1.51.31.61.63.02.1.03.19.03.28,0,.2-.07.39-.2.56-.54.66-1.02,1.19-1.42,1.6ZM120.46,35.85c.41,0,.76.14,1.05.43.3.29.44.64.44,1.07v3.83c0,.59-.08,1.06-.25,1.4s-.47.6-.89.79c-.59.22-1.6.34-3.02.36h-.03c-.32,0-.62-.1-.89-.3-.27-.22-.47-.49-.61-.81-.08-.27-.05-.52.1-.74.15-.22.36-.33.61-.33.63.02,1.28.03,1.96.03.2-.02.34-.05.41-.1s.1-.15.1-.3v-2.95c0-.12-.06-.18-.18-.18h-5.03c-.14,0-.2.06-.2.18v5.23c0,.34-.12.63-.36.88-.24.25-.53.37-.88.37s-.64-.12-.89-.37c-.25-.25-.37-.54-.37-.88v-5.23c0-.12-.06-.18-.18-.18h-5.38c-.12,0-.18.06-.18.18v4.09c0,.34-.12.63-.36.86-.24.24-.52.36-.86.36s-.63-.12-.86-.36c-.24-.24-.36-.52-.36-.86v-4.95c0-.42.14-.78.43-1.07.29-.29.64-.43,1.07-.43h6.5c.12,0,.18-.07.18-.2v-1.52c0-.12-.06-.18-.18-.18h-4.14c-.42,0-.78-.15-1.07-.44-.29-.3-.43-.65-.43-1.05v-2.67c0-.42.14-.78.43-1.07.29-.29.64-.43,1.07-.43h10.66c.42,0,.78.14,1.07.43.29.29.43.64.43,1.07v2.67c0,.41-.14.76-.43,1.05-.29.3-.64.44-1.07.44h-3.66c-.14,0-.2.06-.2.18v1.52c0,.14.07.2.2.2h6.22ZM108.22,30.04c-.12,0-.18.07-.18.2v1.75c0,.12.06.18.18.18h8.53c.12,0,.18-.06.18-.18v-1.75c0-.14-.06-.2-.18-.2h-8.53Z" style="fill: #4b4c4e;"/>
        <path d="M144.8,24.66c-.02.05-.01.1.01.14.03.04.06.06.11.06h5.84c.42,0,.78.14,1.07.43.27.29.41.63.41,1.02,0,4.03-.2,8.14-.61,12.34-.24,2.3-.6,3.77-1.09,4.39-.32.41-.65.69-.98.86-.33.17-.76.3-1.28.38-.41.03-.94.05-1.6.05h-1.09c-.36-.02-.66-.14-.93-.38-.26-.24-.45-.53-.57-.89-.08-.27-.05-.52.09-.74.14-.22.35-.32.62-.3.95.03,1.81.05,2.59.05.49,0,.85-.14,1.09-.43.41-.42.71-1.69.93-3.8s.4-5.64.57-10.6c0-.12-.06-.18-.18-.18h-5.76c-.12,0-.2.06-.25.18-.49,1.07-.99,2.04-1.5,2.92-.2.34-.5.54-.89.61-.1.02-.19.03-.28.03-.29,0-.57-.09-.84-.28-.19-.14-.36-.25-.53-.36-.03-.02-.07-.02-.1,0-.03.02-.05.05-.05.1v10.23c0,.42-.15.78-.44,1.07-.3.29-.65.43-1.05.43h-5.36c-.14,0-.2.07-.2.2v.69c0,.3-.11.56-.32.77-.21.21-.47.32-.77.32s-.57-.11-.79-.32c-.22-.21-.33-.47-.33-.77v-16.4c0-.42.15-.78.44-1.07.3-.29.65-.43,1.05-.43h1.22c.14,0,.22-.06.25-.18.25-.9.47-1.8.63-2.72.07-.37.25-.66.56-.86.22-.17.47-.25.74-.25.08,0,.16,0,.23.03.36.05.62.23.79.53.12.17.18.36.18.56,0,.12-.03.25-.08.38-.3.85-.59,1.62-.86,2.34-.02.03,0,.07.03.11.03.04.07.06.1.06h2.49c.41,0,.76.14,1.05.43.3.29.44.64.44,1.07v3.22s.01.06.04.06c.03,0,.05,0,.06-.04,1.46-1.95,2.62-4.54,3.48-7.79.08-.32.27-.58.56-.76.19-.12.39-.18.61-.18.1,0,.19.02.28.05.32.07.57.25.74.53.12.19.18.37.18.56,0,.12-.02.23-.05.33-.24.81-.47,1.54-.69,2.18ZM137.38,27.27c0-.12-.07-.18-.2-.18h-4.44c-.14,0-.2.06-.2.18v4.57c0,.12.07.18.2.18h4.44c.14,0,.2-.06.2-.18v-4.57ZM132.53,39.69c0,.12.07.18.2.18h4.44c.14,0,.2-.06.2-.18v-5.36c0-.14-.07-.2-.2-.2h-4.44c-.14,0-.2.07-.2.2v5.36ZM147.46,35.52c.12.2.18.41.18.61,0,.1-.02.21-.05.33-.08.32-.27.57-.56.74-.17.12-.36.18-.56.18-.1,0-.2-.02-.3-.05-.3-.08-.53-.26-.69-.53-.66-1.17-1.53-2.52-2.62-4.06-.12-.17-.18-.36-.18-.56,0-.07,0-.14.03-.23.07-.29.22-.5.46-.63.2-.1.41-.15.61-.15.08,0,.18,0,.28.03.3.05.55.2.74.46,1.13,1.52,2.02,2.82,2.67,3.88Z" style="fill: #4b4c4e;"/>
        <path d="M181.09,36.54c.2.2.3.45.3.75s-.1.55-.3.75-.46.3-.76.3h-7.95c-.05,0-.08.02-.1.05-.02.03,0,.07.03.1,1.54,2.07,4.27,3.34,8.2,3.83.27.05.46.21.57.47s.09.51-.06.75c-.22.34-.51.6-.86.79-.25.14-.52.2-.81.2-.08,0-.18,0-.28-.03-2.32-.39-4.23-1.05-5.73-1.99s-2.69-2.23-3.57-3.87c-.03-.03-.07-.05-.1-.05s-.06.02-.08.05c-.66,1.47-1.72,2.67-3.19,3.61s-3.56,1.66-6.28,2.18c-.08.02-.18.03-.28.03-.24,0-.47-.06-.71-.18-.3-.17-.55-.42-.74-.76-.15-.24-.17-.49-.06-.75s.3-.41.57-.44c2.2-.37,3.93-.87,5.18-1.49,1.25-.62,2.18-1.4,2.79-2.35.02-.03.01-.07-.01-.1-.03-.03-.05-.05-.09-.05h-7.64c-.29,0-.54-.1-.75-.3s-.32-.45-.32-.75.11-.55.32-.75.46-.3.75-.3h8.48c.12,0,.19-.06.23-.18.1-.44.2-1.01.3-1.7.02-.14-.04-.2-.18-.2h-8.63c-.3,0-.56-.11-.77-.32-.21-.21-.32-.47-.32-.76s.11-.55.32-.76c.21-.21.47-.32.77-.32h8.86c.14,0,.2-.06.2-.18v-1.42c0-.12-.07-.18-.2-.18h-6.6c-.29,0-.53-.1-.74-.3s-.3-.45-.3-.74.1-.53.3-.74.45-.3.74-.3h6.6c.14,0,.2-.07.2-.2v-1.35c0-.14-.07-.2-.2-.2h-7.82c-.3,0-.56-.11-.77-.32-.21-.21-.32-.47-.32-.76s.11-.55.32-.76c.21-.21.47-.32.77-.32h3.63c.05,0,.09-.02.11-.05.03-.03.03-.08.01-.13-.24-.49-.54-1-.91-1.52-.17-.24-.22-.49-.14-.76.08-.27.24-.46.5-.56.2-.08.41-.13.61-.13.12,0,.24,0,.36.03.34.08.62.26.84.53.44.56.8,1.11,1.09,1.65.08.17.09.34.01.52s-.2.31-.37.39v.03h6.93s.03,0,.03-.01c0,0,0-.01-.03-.01-.19-.05-.31-.17-.37-.36-.06-.19-.03-.36.09-.51.34-.49.65-.96.94-1.42.19-.34.46-.58.81-.74.22-.08.43-.13.63-.13.15,0,.3.02.43.05.32.08.54.29.66.61.03.1.05.21.05.33,0,.19-.06.36-.18.53-.41.54-.8,1.04-1.19,1.5-.03.03-.04.07-.03.1.02.03.04.05.08.05h4.04c.3,0,.56.11.77.32.21.21.32.47.32.76s-.11.55-.32.76c-.21.21-.47.32-.77.32h-7.92c-.14,0-.2.07-.2.2v1.35c0,.14.07.2.2.2h6.91c.29,0,.53.1.74.3s.3.45.3.74-.1.53-.3.74-.45.3-.74.3h-6.91c-.14,0-.2.06-.2.18v1.42c0,.12.07.18.2.18h8.94c.3,0,.56.11.77.32.21.21.32.47.32.76s-.11.55-.32.76c-.21.21-.47.32-.77.32h-9.14c-.12,0-.19.07-.2.2-.1.71-.19,1.28-.28,1.7-.02.12.03.18.15.18h9.78c.3,0,.56.1.76.3Z" style="fill: #4b4c4e;"/>
        <path d="M194.18,26.05c.68,0,1.16.03,1.45.08.2.03.37.13.5.29.13.16.18.34.17.55-.32,4.25-1.05,7.74-2.18,10.46-.05.12-.03.22.08.3.73.58,1.37,1.15,1.93,1.73.25.25.38.58.38.96,0,.32-.1.62-.3.89-.19.24-.43.36-.74.38h-.03c-.3,0-.56-.11-.76-.33-.46-.51-.97-1.01-1.55-1.5-.1-.08-.19-.07-.25.05-.98,1.68-2.22,3.06-3.71,4.14-.2.15-.42.23-.63.23-.08,0-.18-.02-.28-.05-.32-.07-.58-.24-.79-.51-.12-.17-.19-.35-.22-.55-.03-.19,0-.38.08-.56s.2-.33.37-.44c1.3-.91,2.42-2.17,3.35-3.78.05-.1.03-.19-.08-.25-.8-.59-1.42-1.04-1.88-1.35-.07-.03-.11-.02-.13.05-.05.22-.18.38-.39.47-.21.09-.42.09-.62-.01l-.2-.13c-.29-.15-.49-.38-.61-.69-.08-.17-.13-.35-.13-.53,0-.14.02-.26.05-.38.47-1.79,1.03-4.16,1.68-7.11.02-.12-.03-.18-.15-.18h-.96c-.3,0-.57-.11-.79-.33-.22-.22-.33-.49-.33-.8s.11-.58.33-.79c.22-.21.48-.32.79-.32h1.42c.14,0,.21-.07.23-.2.29-1.46.53-2.75.74-3.88.05-.32.21-.58.48-.79.22-.15.46-.23.71-.23h.15c.32.03.58.18.76.43.14.19.2.39.2.61,0,.08,0,.16-.03.23-.14.69-.39,1.9-.76,3.63-.02.14.03.2.15.2h2.51ZM193.87,28.46c.02-.12-.04-.18-.18-.18h-2.49c-.14,0-.21.06-.23.18-.3,1.37-.76,3.32-1.37,5.84-.03.12,0,.21.1.28,1.02.63,1.76,1.12,2.23,1.47.1.07.18.04.23-.08.83-2.1,1.4-4.6,1.7-7.52ZM209.16,31.11c.32,0,.59.11.81.34s.33.5.33.81-.11.58-.33.8c-.22.22-.49.33-.81.33h-4.65c-.12,0-.18.07-.18.2v8.2c0,.68-.09,1.2-.27,1.56-.18.36-.49.65-.93.85-.63.25-1.62.4-3,.43h-.03c-.34,0-.65-.11-.94-.33-.29-.24-.51-.53-.66-.89-.1-.27-.07-.52.09-.76s.38-.36.67-.36h2.08c.2,0,.34-.04.42-.11s.11-.21.11-.39v-8.2c0-.14-.06-.2-.18-.2h-4.47c-.32,0-.59-.11-.81-.33-.22-.22-.33-.49-.33-.8s.11-.58.33-.81.49-.34.81-.34h4.47c.12,0,.18-.06.18-.18v-2.29c0-.22.08-.41.23-.56s.34-.23.56-.23c.07,0,.13-.02.18-.05,1.03-.95,2.01-2.05,2.95-3.3.02-.03.02-.07,0-.1-.02-.03-.04-.05-.08-.05h-7.62c-.3,0-.57-.11-.79-.33-.22-.22-.33-.48-.33-.79s.11-.57.33-.79c.22-.22.48-.33.79-.33h9.47c.05,0,.09,0,.13-.03.08-.02.17-.03.25-.03.17,0,.34.06.51.18l.46.33c.22.17.35.39.39.66.04.27-.01.52-.17.74-1.49,1.98-3.06,3.68-4.7,5.1-.08.08-.13.19-.13.3v1.55c0,.12.06.18.18.18h4.65Z" style="fill: #4b4c4e;"/>
        <path d="M219.18,42.38c-.38.39-.85.58-1.42.58s-1.04-.19-1.42-.58-.57-.88-.57-1.49.19-1.11.57-1.52c.38-.41.85-.62,1.42-.62s1.04.21,1.42.62c.38.42.57.92.57,1.52s-.19,1.1-.57,1.49Z" style="fill: #4b4c4e;"/>
        <path d="M229.53,42.38c-.38.39-.85.58-1.42.58s-1.04-.19-1.42-.58-.57-.88-.57-1.49.19-1.11.57-1.52c.38-.41.85-.62,1.42-.62s1.04.21,1.42.62c.38.42.57.92.57,1.52s-.19,1.1-.57,1.49Z" style="fill: #4b4c4e;"/>
        <path d="M239.87,42.38c-.38.39-.85.58-1.42.58s-1.04-.19-1.42-.58-.57-.88-.57-1.49.19-1.11.57-1.52c.38-.41.85-.62,1.42-.62s1.04.21,1.42.62c.38.42.57.92.57,1.52s-.19,1.1-.57,1.49Z" style="fill: #4b4c4e;"/>
      </g>
    </g>
  </g>
</svg>