<?xml version="1.0" encoding="UTF-8"?>
<svg id="_圖層_2" data-name="圖層 2" xmlns="http://www.w3.org/2000/svg" width="147.41" height="67.8" viewBox="0 0 147.41 67.8">
  <g id="_設計" data-name="設計">
    <g>
      <path d="M71.57,55.75h57.52c9.65,0,17.47-7.72,17.47-17.24v-20.42c0-9.52-7.82-17.24-17.47-17.24H18.32c-9.65,0-17.47,7.72-17.47,17.24v20.42c0,9.52,7.82,17.24,17.47,17.24h20.64s26.28,11.05,26.28,11.05c1.44.61,2.91-.78,2.37-2.23l-3.31-8.82h7.27Z" style="fill: #fff; stroke: #4b4c4e; stroke-linecap: round; stroke-linejoin: round; stroke-width: 1.71px;"/>
      <g>
        <path d="M33,19.01c.34,0,.64.13.89.38.25.25.38.55.38.89v12.02c0,.36-.13.66-.38.9-.25.24-.55.37-.89.37h-3.16c-.1,0-.15.06-.15.17v.73c0,.26-.09.48-.28.67-.19.19-.41.28-.67.28s-.48-.09-.67-.28c-.19-.19-.28-.41-.28-.67v-14.19c0-.34.12-.64.37-.89.24-.25.54-.38.9-.38h3.94ZM32.34,21.03c0-.11-.06-.17-.17-.17h-2.32c-.1,0-.15.06-.15.17v4.11c0,.1.05.15.15.15h2.32c.11,0,.17-.05.17-.15v-4.11ZM29.69,31.59c0,.1.05.15.15.15h2.32c.11,0,.17-.05.17-.15v-4.32c0-.11-.06-.17-.17-.17h-2.32c-.1,0-.15.06-.15.17v4.32ZM47.02,24.59c.18.18.27.39.27.65s-.09.46-.27.63c-.18.17-.39.26-.63.26h-1.48c-.12,0-.17.06-.17.17v1.87c0,.11.06.17.17.17h1.29c.24,0,.46.09.63.26.18.17.27.38.27.63s-.09.46-.27.63c-.18.17-.39.26-.63.26h-1.29c-.12,0-.17.06-.17.17v5.25c0,.54-.07.96-.22,1.26s-.39.51-.75.66c-.49.2-1.35.31-2.58.34h-.02c-.29,0-.54-.09-.77-.28-.23-.19-.39-.42-.49-.71-.09-.21-.06-.42.08-.61.14-.19.32-.29.55-.29.54.01,1.13.02,1.76.02.17-.01.29-.05.35-.11.06-.06.1-.16.1-.32v-5.2c0-.11-.05-.17-.15-.17h-6.97c-.24,0-.46-.09-.63-.26-.18-.17-.27-.38-.27-.63s.09-.46.27-.63c.18-.17.39-.26.63-.26h6.97c.1,0,.15-.06.15-.17v-1.87c0-.11-.05-.17-.15-.17h-7.03c-.24,0-.46-.09-.63-.26-.18-.17-.27-.38-.27-.63s.09-.47.27-.65c.18-.18.39-.27.63-.27h4.17c.12,0,.17-.05.17-.15v-2.11c0-.1-.06-.15-.17-.15h-3.33c-.26,0-.47-.09-.65-.27-.17-.18-.26-.39-.26-.63s.09-.45.26-.62c.17-.17.39-.26.65-.26h3.33c.12,0,.17-.06.17-.17v-1.33c0-.27.1-.51.3-.71.2-.2.44-.3.72-.3s.52.1.72.3c.2.2.3.44.3.71v1.33c0,.11.06.17.17.17h3.48c.24,0,.45.09.62.26.17.17.26.38.26.62s-.09.46-.26.63c-.17.18-.38.27-.62.27h-3.48c-.12,0-.17.05-.17.15v2.11c0,.1.06.15.17.15h4.28c.24,0,.46.09.63.27ZM36.49,32.35c-.13-.14-.19-.31-.19-.49,0-.04,0-.09.02-.15.03-.23.15-.41.37-.54.19-.1.38-.15.58-.15h.19c.29.04.52.17.69.39.66.75,1.2,1.43,1.61,2.06.1.16.15.33.15.52,0,.09,0,.17-.02.26-.09.27-.25.49-.5.65-.16.09-.32.13-.47.13-.09,0-.18-.01-.28-.04-.26-.07-.46-.23-.6-.47-.42-.67-.93-1.39-1.55-2.15Z" style="fill: #4b4c4e;"/>
        <path d="M52.05,27.49c-.01-.2.04-.37.16-.52.12-.14.28-.21.48-.21l.64-.02c.1,0,.18-.05.24-.15.29-.56.45-.89.49-.99.01-.03.01-.06-.01-.1-.02-.04-.05-.05-.08-.05h-1.72c-.19,0-.34-.06-.47-.18-.13-.12-.19-.27-.19-.45s.06-.33.19-.46c.13-.13.29-.19.47-.19h.99c.1,0,.15-.06.15-.17v-4.41c0-.36.13-.66.38-.9.25-.24.55-.37.89-.37h6.47c.17,0,.32.06.44.18.12.12.18.27.18.45s-.06.33-.18.45c-.12.12-.27.18-.44.18h-5.68c-.12,0-.17.05-.17.15v.45c0,.11.06.17.17.17h5.1c.16,0,.29.05.4.16.11.11.16.24.16.39s-.05.28-.16.39c-.11.11-.24.16-.4.16h-5.1c-.12,0-.17.06-.17.17v.47c0,.11.06.17.17.17h5.1c.16,0,.29.05.4.16.11.11.16.24.16.39s-.05.28-.16.39-.24.16-.4.16h-5.1c-.12,0-.17.06-.17.17v.45c0,.11.06.17.17.17h6.58c.19,0,.34.06.46.19.12.13.18.28.18.46s-.06.33-.18.45c-.12.12-.28.18-.46.18h-1.63s-.05.01-.05.04c0,.03,0,.05.01.06.5.44.94.9,1.31,1.35.11.14.15.31.11.51s-.16.33-.34.42l-.17.09c-.14.07-.29.09-.44.05-.15-.04-.28-.12-.38-.25-.03-.03-.06-.04-.11-.04-1.02.06-2.39.14-4.13.25-1.73.11-2.87.18-3.4.2-.2.01-.38-.04-.53-.17s-.23-.29-.25-.47ZM63.4,36.07h4.73c.39,0,.67-.05.84-.14.17-.09.29-.28.37-.57.06-.21.18-.38.37-.48.19-.11.39-.12.6-.05.26.1.46.26.6.47.1.14.15.3.15.47,0,.07-.01.14-.04.22-.16.63-.43,1.06-.82,1.3-.39.24-1.01.35-1.87.35h-5.05c-1.36,0-2.28-.16-2.75-.48-.47-.32-.71-.96-.71-1.9v-.04c0-.1-.05-.14-.15-.13l-7.12.67c-.2.01-.37-.04-.52-.17-.19-.14-.28-.33-.28-.56,0-.16.04-.29.13-.41.13-.16.29-.24.47-.26l7.31-.67c.1-.01.15-.07.15-.17v-.73c0-.11-.05-.16-.15-.15l-6.15.56c-.19.01-.36-.04-.51-.15s-.23-.27-.25-.45c-.03-.19.01-.35.13-.49.11-.14.26-.22.45-.24l6.32-.58c.1,0,.15-.06.15-.17v-.69c0-.1-.05-.15-.15-.15-1.58.14-3.19.26-4.84.34-.19.01-.36-.04-.52-.15-.16-.11-.26-.27-.32-.45-.06-.14-.04-.28.04-.42.09-.14.21-.21.37-.23,4.92-.3,8.69-.72,11.31-1.25.14-.03.29-.04.43-.04.42,0,.79.14,1.14.41.14.12.2.26.16.44-.04.18-.15.28-.33.31-1.41.3-3.12.57-5.14.82-.11,0-.17.06-.17.17v.71c0,.12.06.17.17.15l6.95-.62c.17-.03.33.01.47.13s.23.26.25.44c.02.18-.03.34-.14.48-.12.14-.26.22-.43.24l-7.1.65c-.11.01-.17.07-.17.17v.77c0,.1.06.14.17.13l8.26-.73c.19-.01.35.04.49.15.14.12.23.26.26.43.03.19-.01.35-.12.48-.11.14-.25.22-.44.25l-8.45.8c-.11.01-.17.07-.17.17v.21c0,.36.1.59.29.69.19.1.63.15,1.32.15ZM55.29,26.52s-.01.06,0,.09c.01.03.04.04.09.04l3.85-.15s.05-.01.05-.03c0-.02,0-.04-.01-.05-.01-.01-.1-.09-.26-.24-.1-.1-.14-.22-.13-.37s.09-.25.21-.32c.01,0,.01-.01,0-.04h-2.97c-.11,0-.2.05-.26.14-.06.09-.15.25-.28.46-.13.22-.23.37-.3.47ZM67.47,18.2c.3-.17.59-.26.86-.26.23,0,.45.06.67.17.19.09.29.23.31.43s-.05.36-.23.47c-1.29.85-2.88,1.6-4.77,2.26-.14.04-.28.06-.41.06-.11,0-.23-.01-.34-.04-.24-.07-.46-.21-.65-.41-.11-.13-.15-.29-.12-.47.04-.19.15-.31.33-.37,1.76-.56,3.21-1.18,4.34-1.85ZM68.84,24.37c.34-.23.68-.34,1.01-.34.19,0,.37.04.54.11.2.07.32.22.37.43.04.22-.01.39-.17.52-1.43,1.16-3.53,2.05-6.3,2.67-.09.01-.17.02-.24.02-.17,0-.34-.04-.49-.11-.23-.1-.42-.26-.58-.49-.11-.16-.14-.33-.08-.51.06-.18.19-.28.38-.31,2.45-.46,4.31-1.12,5.57-1.98ZM68.26,21.21c.3-.2.6-.3.9-.3.2,0,.4.04.6.13.19.09.29.23.32.42.03.19-.04.35-.19.48-1.29.95-3,1.76-5.12,2.43-.11.03-.22.04-.32.04-.13,0-.26-.02-.39-.06-.24-.09-.45-.23-.62-.43-.12-.14-.15-.3-.1-.48.05-.18.17-.3.35-.35,1.88-.5,3.4-1.13,4.56-1.87Z" style="fill: #4b4c4e;"/>
        <path d="M89.55,17.97c.21-.21.46-.31.74-.31s.53.1.74.31c.21.21.31.46.31.74v8.92c0,.12.04.21.13.28,1.2,1.06,2.44,1.94,3.7,2.62.24.13.39.33.43.6.01.06.02.11.02.17,0,.2-.07.39-.21.56-.21.26-.48.42-.8.49-.09.03-.18.04-.28.04-.2,0-.39-.06-.58-.17-.76-.46-1.52-1-2.28-1.61-.03-.03-.06-.04-.09-.02-.03.01-.04.04-.04.06v6.06c0,.29-.1.53-.31.74-.21.21-.46.31-.74.31s-.54-.1-.74-.31c-.21-.21-.31-.46-.31-.74v-8.06c0-.1-.04-.19-.11-.28-1.02-1.09-1.96-2.32-2.82-3.7-.01-.03-.04-.04-.08-.03-.04,0-.05.03-.05.05-1.45,5.72-4.06,9.85-7.85,12.39-.21.14-.44.21-.69.21-.07,0-.14,0-.21-.02-.32-.06-.59-.2-.84-.43-.11-.12-.19-.25-.24-.41-.04-.16-.03-.32.03-.47.06-.16.17-.28.31-.37,2.11-1.3,3.84-3.1,5.18-5.4.06-.1.05-.19-.02-.26-.88-.8-2.06-1.69-3.55-2.67-.09-.06-.17-.04-.24.04-.14.2-.3.39-.47.58-.19.23-.43.35-.73.37-.03.01-.06.02-.09.02-.27,0-.52-.09-.73-.28-.24-.19-.37-.44-.37-.75,0-.24.09-.46.26-.65,1.81-1.98,3.2-4.65,4.17-8.02.07-.27.24-.49.5-.65.17-.11.36-.17.56-.17.07,0,.14.01.21.04.29.06.5.2.65.43.1.16.15.32.15.49,0,.09-.01.18-.04.28-.19.62-.38,1.18-.58,1.7-.01.04-.01.08.01.11.02.03.05.04.1.04h3.5c.23-.04.45-.03.67.04l.37.13c.19.07.33.2.44.38s.15.37.12.57c-.07.42-.14.77-.19,1.08,0,.01,0,.03.02.04.01.01.03.01.04,0,.2-.07.4-.07.61,0,.21.07.37.2.48.39.4.66.87,1.32,1.4,1.98.01.01.04.02.06.01.03,0,.04-.02.04-.05v-6.73c0-.29.1-.53.31-.74ZM84.51,22.99c.03-.1-.01-.15-.13-.15h-3.5c-.1,0-.17.04-.21.13-.39.86-.83,1.71-1.33,2.54-.06.1-.04.18.06.24,1.33.8,2.47,1.6,3.4,2.39.09.06.15.04.19-.04.66-1.53,1.17-3.23,1.53-5.1Z" style="fill: #4b4c4e;"/>
        <path d="M110.92,35.06c0,.1.06.15.17.15h7.61c.26,0,.48.09.67.28s.28.41.28.67-.09.48-.28.67c-.19.19-.41.28-.67.28h-17.81c-.26,0-.48-.09-.67-.28-.19-.19-.28-.41-.28-.67s.09-.48.28-.67.41-.28.67-.28h7.74c.11,0,.17-.05.17-.15v-2.02c0-.11-.06-.17-.17-.17h-5.51c-.26,0-.48-.09-.66-.27-.18-.18-.27-.4-.27-.66s.09-.48.27-.67c.18-.19.4-.28.66-.28h5.51c.11,0,.17-.05.17-.15v-1.4c0-.1-.06-.15-.17-.15h-.21c-.34,0-.64-.13-.89-.38-.25-.25-.38-.55-.38-.89v-3.05c0-.1-.05-.15-.15-.15h-2.15c-.12,0-.18.05-.19.15-.33,1.84-1.17,3.28-2.52,4.32-.19.13-.38.19-.58.19-.06,0-.12,0-.17-.02-.27-.04-.51-.17-.71-.39-.14-.16-.22-.34-.22-.54,0-.29.11-.51.32-.67.99-.76,1.63-1.73,1.94-2.9,0-.04-.01-.08-.03-.11s-.05-.04-.1-.04h-1.42c-.24,0-.46-.09-.63-.27-.18-.18-.27-.39-.27-.65s.09-.47.27-.65.39-.27.63-.27h1.59c.11,0,.17-.06.17-.17v-2.37c0-.1-.06-.15-.17-.15h-.86c-.24,0-.46-.09-.63-.27-.18-.18-.27-.39-.27-.65s.09-.46.27-.63c.18-.17.39-.26.63-.26h8.06c.26,0,.47.09.65.26s.26.38.26.63-.09.47-.26.65-.39.27-.65.27h-.73c-.12,0-.17.05-.17.15v2.37c0,.12.06.17.17.17h1.2c.26,0,.48.09.66.27.18.18.27.39.27.65s-.09.47-.27.65c-.18.18-.4.27-.66.27h-1.2c-.12,0-.17.05-.17.15v3.76c0,.1.06.15.17.15h.41c.36,0,.66.13.9.38.24.25.37.55.37.89v.69c0,.1.06.15.17.15h5.38c.26,0,.48.09.66.28.18.19.27.41.27.67s-.09.48-.27.66c-.18.18-.4.27-.66.27h-5.38c-.11,0-.17.06-.17.17v2.02ZM104.84,22.82c0,.12.05.17.15.17h2.02c.1,0,.15-.06.15-.17v-2.37c0-.1-.05-.15-.15-.15h-2.02c-.1,0-.15.05-.15.15v2.37ZM112.81,19.19c.18-.19.4-.28.67-.28s.49.09.67.28c.18.19.27.41.27.67v5.46c0,.26-.09.48-.27.66-.18.18-.4.27-.67.27s-.49-.09-.67-.27c-.18-.18-.27-.4-.27-.66v-5.46c0-.26.09-.48.27-.67ZM116.85,18.11c.19-.19.42-.28.69-.28s.49.09.68.28c.19.19.28.42.28.69v8.58c0,.54-.06.95-.19,1.23-.13.27-.37.49-.73.65-.46.19-1.25.29-2.37.3h-.02c-.27,0-.52-.08-.73-.24-.21-.19-.37-.42-.47-.69-.07-.21-.04-.42.09-.6.13-.19.31-.28.54-.28.33.01.61.02.84.02.32,0,.54,0,.69-.02.17,0,.29-.02.34-.08s.09-.15.09-.31v-8.56c0-.27.1-.5.29-.69Z" style="fill: #4b4c4e;"/>
      </g>
    </g>
  </g>
</svg>