<?xml version="1.0" encoding="UTF-8"?>
<svg id="_圖層_2" data-name="圖層 2" xmlns="http://www.w3.org/2000/svg" width="254.8" height="80.04" viewBox="0 0 254.8 80.04">
  <g id="_設計" data-name="設計">
    <g>
      <path d="M170.31,65.82H21.63c-11.39,0-20.62-9.11-20.62-20.35v-24.11c0-11.24,9.23-20.35,20.62-20.35h211.55c11.39,0,20.62,9.11,20.62,20.35v24.11c0,11.24-9.23,20.35-20.62,20.35h-24.37s-31.03,13.05-31.03,13.05c-1.7.71-3.44-.92-2.8-2.63l3.91-10.41h-8.58Z" style="fill: #fff; stroke: #4b4c4e; stroke-linecap: round; stroke-linejoin: round; stroke-width: 2.01px;"/>
      <g>
        <path d="M21.92,35.5c.25-.03.49.03.7.2.21.17.33.38.34.63.02.29-.06.54-.23.76-.17.22-.4.36-.69.41-1.1.2-1.71.32-1.83.34s-.19.1-.2.22c-.25,2.51-1.18,4.49-2.77,5.94-.19.17-.4.25-.63.25-.05,0-.1,0-.15-.03-.29-.03-.54-.17-.76-.41-.19-.2-.27-.44-.25-.71.02-.27.14-.51.36-.71,1.03-.95,1.68-2.27,1.96-3.96,0-.03-.02-.07-.05-.1-.03-.03-.08-.05-.13-.05-.58.1-1.06.19-1.45.25h-.2c-.22,0-.42-.06-.61-.18-.25-.17-.41-.4-.46-.69-.02-.07-.03-.14-.03-.2,0-.2.07-.4.2-.58.17-.24.4-.37.69-.41.19-.03.84-.14,1.96-.3.14-.02.2-.08.2-.2v-2.67c0-.14-.07-.2-.2-.2h-1.88c-.27,0-.5-.1-.7-.29-.19-.19-.29-.43-.29-.71s.1-.52.29-.71c.19-.19.43-.29.7-.29h6.17c.27,0,.51.1.71.29.2.19.3.43.3.71s-.1.52-.3.71c-.2.19-.44.29-.71.29h-1.68c-.12,0-.18.07-.18.2v2.29c0,.14.06.19.18.18l1.62-.28ZM21.69,24.15c.29,0,.53.1.72.29.19.19.29.43.29.71s-.1.52-.29.72-.44.3-.72.3h-5.61c-.27,0-.51-.1-.71-.3s-.3-.44-.3-.72.1-.52.3-.71c.2-.19.44-.29.71-.29h1.6c.14,0,.2-.07.2-.2v-2.01c0-.3.11-.57.33-.79.22-.22.48-.33.79-.33s.57.11.79.33c.22.22.33.48.33.79v2.01c0,.14.06.2.18.2h1.4ZM18.26,29.56c.03.27-.03.52-.19.76-.16.24-.38.39-.65.46-.24.07-.45.03-.65-.11-.19-.14-.31-.33-.34-.57-.07-.76-.2-1.57-.41-2.41-.07-.22-.04-.44.08-.65.12-.21.3-.34.53-.39.24-.07.46-.05.67.06.21.11.36.28.44.52.22.75.39,1.52.51,2.34ZM21.36,30.29c-.08.22-.23.39-.43.5-.2.11-.42.13-.63.06-.22-.05-.38-.17-.5-.37-.11-.19-.14-.4-.09-.62.22-.81.42-1.66.58-2.54.05-.27.19-.48.41-.63s.47-.2.74-.15.47.19.61.42.17.47.1.72c-.34,1.17-.6,2.04-.79,2.62ZM28.16,26.64c.41,0,.76.15,1.07.46.27.27.41.61.41,1.02,0,4.2-.09,8.04-.28,11.53-.1,1.98-.3,3.2-.61,3.66-.3.56-.78.9-1.42,1.02-.25.03-.58.05-.96.05h-.13c-.29-.02-.54-.12-.76-.32-.22-.19-.36-.44-.43-.72-.07-.24-.03-.45.11-.65s.33-.28.55-.27h.69c.25,0,.46-.14.61-.43.2-.32.35-1.42.44-3.29.09-1.87.17-5.11.22-9.71,0-.14-.07-.2-.2-.2h-1.04c-.12,0-.19.07-.2.2-.14,3.28-.44,6.12-.9,8.52-.47,2.4-1.18,4.5-2.15,6.31-.14.22-.34.35-.61.38-.27.03-.51-.04-.71-.23-.22-.19-.36-.43-.41-.74v-.2c0-.22.05-.43.15-.63.9-1.56,1.56-3.44,1.98-5.66.42-2.22.69-4.81.81-7.77,0-.12-.05-.18-.15-.18h-.2c-.3,0-.56-.1-.76-.3s-.3-.45-.3-.75.1-.55.3-.76c.2-.21.46-.32.76-.32h.25c.12,0,.18-.05.18-.15.02-.88.03-1.78.03-2.69,0-.68,0-1.35-.03-2.03,0-.25.09-.47.28-.66.19-.19.41-.28.67-.28s.49.09.67.28c.19.19.28.41.28.66-.02,1.19-.03,2.75-.05,4.7,0,.12.06.18.18.18h1.68ZM38.33,31.37c.19.19.29.43.29.71s-.1.52-.29.71c-.19.19-.43.29-.7.29h-2.06c-.14,0-.2.07-.2.2v2.92c0,.12.07.18.2.18h1.68c.29,0,.53.1.72.29.19.19.29.43.29.71s-.1.52-.29.71c-.19.19-.44.29-.72.29h-1.68c-.14,0-.2.07-.2.2v5c0,.3-.11.57-.33.79-.22.22-.48.33-.79.33s-.57-.11-.79-.33c-.22-.22-.33-.48-.33-.79v-5c0-.14-.07-.2-.2-.2h-1.68c-.29,0-.53-.1-.72-.29-.19-.19-.29-.43-.29-.71s.1-.52.29-.71c.19-.19.44-.29.72-.29h1.68c.14,0,.2-.06.2-.18v-2.92c0-.14-.07-.2-.2-.2h-1.96c-.27,0-.5-.1-.7-.29-.19-.19-.29-.43-.29-.71s.1-.52.29-.71c.19-.19.43-.29.7-.29h6.65c.27,0,.5.1.7.29ZM37.3,24.12c.27,0,.51.1.71.29.2.19.3.43.3.71s-.1.52-.3.72-.44.3-.71.3h-6.14c-.27,0-.51-.1-.71-.3s-.3-.44-.3-.72.1-.52.3-.71c.2-.19.44-.29.71-.29h1.78c.14,0,.2-.07.2-.2v-1.98c0-.3.11-.57.33-.79.22-.22.48-.33.79-.33s.57.11.79.33c.22.22.33.48.33.79v1.98c0,.14.07.2.2.2h1.73ZM31.11,27.7c-.07-.24-.04-.46.08-.67.12-.21.29-.35.51-.42.08-.02.18-.03.28-.03.14,0,.27.03.41.1.22.12.37.3.46.53.24.76.42,1.56.53,2.39.03.27-.03.52-.18.76-.15.24-.36.39-.63.46-.24.07-.45.03-.65-.11-.19-.14-.31-.33-.34-.57-.08-.8-.24-1.61-.46-2.44ZM36.72,30.24c-.08.24-.23.41-.44.51s-.44.13-.67.08c-.22-.07-.38-.2-.5-.41s-.14-.41-.09-.63c.27-.96.48-1.79.63-2.49.05-.29.19-.51.43-.66s.49-.2.76-.14c.27.06.47.21.61.44.14.24.16.49.08.76-.34,1.12-.61,1.96-.81,2.54Z" style="fill: #4b4c4e;"/>
        <path d="M49.8,22.8c.17-.37.43-.64.79-.81.22-.12.45-.18.69-.18.15,0,.3.02.43.05.37.1.63.32.79.66.08.17.13.34.13.51s-.04.34-.13.51c-1.49,3.2-3.33,5.96-5.51,8.28-.27.29-.62.44-1.04.46h-.03c-.41,0-.76-.13-1.07-.38-.32-.24-.48-.56-.48-.96,0-.32.13-.6.38-.84,2.03-1.96,3.72-4.39,5.05-7.29ZM58.74,36.79c-.15-.19-.23-.39-.23-.61,0-.08,0-.17.03-.25.08-.3.27-.52.56-.66.22-.1.45-.15.69-.15.12,0,.25,0,.38.03.37.08.67.27.89.56.86,1.08,1.71,2.2,2.53,3.35.82,1.15,1.53,2.22,2.12,3.2.12.22.18.44.18.66,0,.14-.02.26-.05.38-.1.37-.32.65-.66.84-.22.1-.44.15-.66.15-.14,0-.27-.02-.41-.05-.37-.12-.65-.35-.84-.69-.14-.22-.27-.46-.41-.71-.07-.1-.17-.14-.3-.13-3.94.24-9.35.52-16.22.86h-.08c-.32,0-.62-.1-.89-.3-.27-.24-.43-.53-.48-.89v-.15c0-.29.09-.54.28-.76.22-.25.51-.39.86-.41.27-.02.96-.04,2.08-.08.14-.02.23-.08.28-.18,1.62-2.96,3-6.04,4.14-9.24.14-.39.39-.69.76-.89.24-.14.49-.2.76-.2.12,0,.25.02.38.05.37.1.65.32.84.66.08.19.13.37.13.56,0,.17-.03.34-.1.51-1.37,3.15-2.74,5.97-4.11,8.46-.02.03-.02.07,0,.1.02.03.05.05.1.05,3.71-.15,6.99-.3,9.85-.46.05,0,.08-.02.1-.05.02-.03,0-.07-.03-.1-.81-1.22-1.63-2.37-2.46-3.45ZM58.26,23.64c-.1-.19-.15-.37-.15-.56,0-.14.03-.26.08-.38.1-.32.31-.56.63-.71.19-.07.37-.1.56-.1.15,0,.31.03.48.08.34.14.6.36.79.66,1.46,2.52,3.26,4.89,5.41,7.11.27.27.41.59.41.96,0,.41-.14.75-.43,1.04-.27.29-.6.43-.99.43h-.05c-.36,0-.66-.14-.91-.41-2.15-2.49-4.09-5.2-5.81-8.12Z" style="fill: #4b4c4e;"/>
        <path d="M81.68,41.97h8.56c1.03,0,1.74-.2,2.13-.61s.67-1.25.84-2.54c.03-.27.19-.47.46-.61.14-.07.27-.1.41-.1s.26.02.38.05c.34.15.6.37.79.66.15.24.23.48.23.74v.2c-.25,1.68-.74,2.83-1.46,3.45s-1.94.94-3.67.94h-8.63c-2.1,0-3.52-.3-4.27-.9-.75-.6-1.12-1.79-1.12-3.57v-7.29c0-.05-.02-.09-.05-.11s-.08-.03-.13-.01l-2.64.81c-.12.03-.24.05-.36.05-.19,0-.36-.04-.53-.13-.27-.15-.45-.38-.53-.69-.03-.12-.05-.23-.05-.33,0-.19.04-.37.13-.56.15-.27.38-.46.69-.56l3.3-1.04c.12-.03.18-.11.18-.23v-5.81c0-.32.11-.6.34-.83s.51-.34.84-.34.61.11.84.34.34.5.34.83v5.1c0,.05.02.09.06.11s.08.03.11.01l4.42-1.4c.14-.03.2-.11.2-.23v-5.33c0-.32.11-.6.34-.84.23-.24.51-.36.84-.36s.61.12.85.36c.24.24.36.52.36.84v4.6c0,.05.02.09.05.11s.08.03.13.01l5.13-1.57c.07-.02.13-.05.18-.1.25-.2.52-.3.81-.3.19,0,.38.05.58.15l.61.28c.25.1.35.29.28.56-.02.02-.03.04-.03.08-.08,5.03-.36,8.16-.81,9.39-.39,1.17-1.09,1.86-2.11,2.08-.49.1-1.13.16-1.93.18h-.03c-.32,0-.6-.1-.84-.3-.25-.22-.43-.5-.53-.84-.07-.25-.02-.49.14-.71.16-.22.38-.32.65-.3h1.24c.32,0,.58-.08.77-.23s.36-.46.5-.91c.3-.91.49-3.08.56-6.5,0-.05-.02-.09-.06-.13-.04-.03-.08-.04-.11-.03l-5,1.57c-.12.05-.18.14-.18.25v8.46c0,.32-.12.6-.36.84-.24.24-.52.36-.85.36s-.61-.12-.84-.36c-.23-.24-.34-.52-.34-.84v-7.72c0-.05-.02-.09-.06-.11s-.09-.03-.14-.01l-4.42,1.37c-.12.05-.18.14-.18.25v8.1c0,.93.19,1.54.56,1.82s1.18.42,2.44.42Z" style="fill: #4b4c4e;"/>
        <path d="M106.65,21.91c.05-.02.1-.03.15-.03.1,0,.19.03.28.08l.53.3c.22.12.38.3.48.53.1.24.12.47.05.71-.61,2.3-1.21,4.34-1.8,6.12-.05.12-.03.23.05.33,1.12,1.68,1.68,3.52,1.68,5.54,0,1.62-.32,2.68-.96,3.17-.3.25-.71.42-1.22.51-.1.02-.21.03-.33.03h-.08c-.25,0-.48-.09-.69-.28-.2-.19-.34-.43-.41-.74-.05-.22,0-.42.13-.61.14-.19.32-.3.56-.33.27-.03.48-.11.63-.23.25-.24.38-.83.38-1.78,0-1.39-.32-2.69-.96-3.91-.32-.63-.48-1.24-.48-1.83,0-.3.04-.6.13-.89.36-1.29.71-2.74,1.07-4.37.03-.12-.02-.18-.15-.18h-1.83c-.12,0-.18.06-.18.18v19.37c0,.3-.1.56-.3.76s-.45.3-.75.3-.55-.1-.75-.3-.3-.46-.3-.76v-20.21c0-.42.14-.78.43-1.07.29-.29.64-.43,1.07-.43h3.58ZM110.91,33.29c.41,0,.76.15,1.05.44.3.3.44.65.44,1.05v4.47c0,.12.03.24.08.36.86,1.68,2.34,2.56,4.44,2.67.75.02,1.53.03,2.36.03,1.35,0,2.8-.04,4.34-.13.25,0,.46.1.61.3.1.14.15.28.15.43,0,.08,0,.17-.03.25-.1.32-.28.58-.52.79s-.53.31-.85.33c-1.39.03-2.62.05-3.68.05-.93,0-1.75,0-2.46-.03-2.29-.1-4.05-1.06-5.31-2.87-.07-.1-.14-.11-.23-.03-.56.63-1.29,1.4-2.18,2.31-.17.17-.37.25-.61.25h-.15c-.29-.05-.5-.2-.63-.46-.12-.22-.18-.44-.18-.66,0-.1,0-.2.03-.3.07-.32.23-.6.48-.84.56-.47,1.28-1.13,2.16-1.96.08-.08.13-.19.13-.3v-3.96c0-.14-.06-.2-.18-.2h-.76c-.29,0-.53-.1-.72-.29-.19-.19-.29-.43-.29-.71s.1-.52.29-.71c.19-.19.44-.29.72-.29h1.5ZM108.6,28.87c-.17-.19-.24-.41-.22-.66s.15-.46.37-.61c.2-.14.42-.2.66-.2h.13c.29.03.52.15.71.36.56.59,1.02,1.15,1.37,1.68.14.19.2.38.2.58,0,.07,0,.14-.03.23-.07.29-.23.52-.48.71-.24.17-.49.22-.75.17-.26-.06-.48-.22-.65-.47-.37-.58-.81-1.17-1.32-1.78ZM112.21,23.95c.1.19.15.37.15.56,0,.1,0,.19-.03.28-.08.3-.26.54-.53.71-.24.15-.49.19-.75.11s-.47-.24-.62-.5c-.3-.54-.68-1.11-1.12-1.7-.17-.22-.23-.46-.19-.72.04-.26.17-.47.39-.62.2-.12.42-.18.63-.18h.18c.29.05.52.19.71.41.46.59.85,1.14,1.17,1.65ZM117.21,27.3c-.27,0-.51-.1-.71-.3s-.3-.44-.3-.71c0-.02,0-.03-.01-.03h-.04c-.63,1.3-1.34,2.41-2.13,3.33-.2.22-.44.33-.71.32-.27,0-.52-.11-.74-.29-.2-.17-.31-.38-.33-.65-.02-.26.06-.5.23-.7.88-.95,1.61-2.11,2.18-3.48.02-.03.01-.07-.01-.11-.03-.04-.05-.06-.09-.06h-1.09c-.22,0-.42-.08-.58-.24-.17-.16-.25-.36-.25-.6s.08-.44.25-.6c.17-.16.36-.24.58-.24h1.68c.14,0,.22-.06.25-.18.08-.32.17-.64.25-.96.07-.27.22-.49.46-.66.17-.12.36-.18.56-.18h.2c.27.05.48.19.63.42s.19.48.13.75c-.05.19-.11.4-.18.63,0,.03.01.07.04.11.03.04.06.06.11.06h5.84c.22,0,.42.08.58.24.17.16.25.36.25.6s-.08.44-.25.6c-.17.16-.36.24-.58.24h-6.37c-.14,0-.23.06-.28.18-.14.34-.25.62-.33.84-.02.03-.02.07,0,.1.02.03.05.05.1.05h6.07c.22,0,.4.08.55.23s.22.33.22.53-.07.38-.22.53-.33.23-.55.23h-1.73c-.12,0-.18.06-.18.18v.99c0,.12.06.18.18.18h2.74c.22,0,.4.07.55.22.14.14.22.32.22.53s-.07.39-.22.53c-.14.14-.33.22-.55.22h-8.02c-.2,0-.38-.07-.53-.22-.15-.14-.23-.32-.23-.53s.08-.39.23-.53c.15-.14.33-.22.53-.22h2.79c.14,0,.2-.06.2-.18v-.99c0-.12-.07-.18-.2-.18h-1.19ZM121.68,31.36c.41,0,.76.14,1.05.43.3.29.44.64.44,1.07v6.53c0,.47-.05.83-.17,1.07-.11.24-.32.43-.62.58-.36.17-.99.26-1.9.28-.24,0-.45-.08-.65-.23s-.33-.36-.42-.61c-.07-.19-.05-.36.06-.52.11-.16.27-.24.47-.24.14,0,.29,0,.46-.01.17,0,.28-.01.33-.01.19,0,.28-.1.28-.3v-1.07c0-.12-.07-.18-.2-.18h-4.21c-.12,0-.18.06-.18.18v1.9c0,.27-.1.51-.3.71s-.44.3-.72.3-.52-.1-.71-.3-.29-.44-.29-.71v-7.36c0-.42.14-.78.43-1.07.29-.29.64-.43,1.07-.43h5.79ZM121.02,33.09c0-.14-.07-.2-.2-.2h-4.21c-.12,0-.18.07-.18.2v.79c0,.12.06.18.18.18h4.21c.14,0,.2-.06.2-.18v-.79ZM116.42,36.46c0,.12.06.18.18.18h4.21c.14,0,.2-.06.2-.18v-.76c0-.14-.07-.2-.2-.2h-4.21c-.12,0-.18.07-.18.2v.76Z" style="fill: #4b4c4e;"/>
        <path d="M136.21,22.45c.41,0,.76.15,1.05.44.3.3.44.65.44,1.05v14.19c0,.42-.15.78-.44,1.07-.3.29-.65.43-1.05.43h-3.73c-.12,0-.18.07-.18.2v.86c0,.3-.11.57-.33.79-.22.22-.48.33-.79.33s-.57-.11-.79-.33c-.22-.22-.33-.48-.33-.79v-16.76c0-.41.14-.76.43-1.05.29-.3.64-.44,1.07-.44h4.65ZM135.43,24.83c0-.14-.07-.2-.2-.2h-2.74c-.12,0-.18.07-.18.2v4.85c0,.12.06.18.18.18h2.74c.14,0,.2-.06.2-.18v-4.85ZM132.3,37.3c0,.12.06.18.18.18h2.74c.14,0,.2-.06.2-.18v-5.1c0-.14-.07-.2-.2-.2h-2.74c-.12,0-.18.07-.18.2v5.1ZM152.76,29.04c.21.21.32.47.32.76s-.11.55-.32.75-.46.3-.75.3h-1.75c-.14,0-.2.07-.2.2v2.21c0,.14.07.2.2.2h1.52c.29,0,.54.1.75.3s.32.45.32.75-.11.55-.32.75-.46.3-.75.3h-1.52c-.14,0-.2.07-.2.2v6.2c0,.64-.08,1.14-.25,1.49-.17.35-.47.6-.89.77-.58.24-1.59.37-3.05.41h-.03c-.34,0-.64-.11-.91-.33-.27-.22-.47-.5-.58-.84-.1-.25-.07-.5.09-.72s.38-.34.65-.34c.64.02,1.34.03,2.08.03.2-.02.34-.06.42-.13.08-.07.11-.19.11-.38v-6.14c0-.14-.06-.2-.18-.2h-8.23c-.29,0-.54-.1-.75-.3s-.32-.45-.32-.75.11-.55.32-.75.46-.3.75-.3h8.23c.12,0,.18-.07.18-.2v-2.21c0-.14-.06-.2-.18-.2h-8.3c-.29,0-.54-.1-.75-.3s-.32-.45-.32-.75.11-.55.32-.76c.21-.21.46-.32.75-.32h4.93c.14,0,.2-.06.2-.18v-2.49c0-.12-.07-.18-.2-.18h-3.94c-.3,0-.56-.11-.76-.32-.2-.21-.3-.46-.3-.75s.1-.53.3-.74.46-.3.76-.3h3.94c.14,0,.2-.07.2-.2v-1.57c0-.32.12-.6.36-.84.24-.24.52-.36.85-.36s.61.12.85.36c.24.24.36.52.36.84v1.57c0,.14.07.2.2.2h4.11c.29,0,.53.1.74.3s.3.45.3.74-.1.54-.3.75c-.2.21-.45.32-.74.32h-4.11c-.14,0-.2.06-.2.18v2.49c0,.12.07.18.2.18h5.05c.29,0,.54.11.75.32ZM140.33,38.19c-.15-.17-.23-.36-.23-.58,0-.05,0-.11.03-.18.03-.27.18-.48.43-.63.22-.12.45-.18.69-.18h.23c.34.05.61.2.81.46.78.88,1.41,1.69,1.9,2.44.12.19.18.39.18.61,0,.1,0,.2-.03.3-.1.32-.3.58-.58.76-.19.1-.37.15-.56.15-.1,0-.21-.02-.33-.05-.3-.08-.54-.27-.71-.56-.49-.8-1.1-1.64-1.83-2.54Z" style="fill: #4b4c4e;"/>
        <path d="M164.38,31.99c.1-.02.19-.03.28-.03.19,0,.36.05.51.15.25.15.4.37.43.66.02.07.03.14.03.2,0,.25-.07.48-.2.69-.17.29-.41.47-.71.56-.75.24-1.23.39-1.45.46-.12.05-.18.14-.18.25v7.06c0,.61-.07,1.09-.22,1.43-.14.35-.38.61-.72.8-.46.25-1.19.4-2.21.43h-.05c-.3,0-.58-.1-.84-.3s-.43-.47-.53-.81c-.07-.27-.03-.52.13-.75s.36-.33.63-.32h.3c.41,0,.68,0,.81-.03.19,0,.31-.03.38-.09.07-.06.1-.18.1-.37v-6.37c0-.05-.02-.09-.06-.11s-.08-.03-.13-.03c-.04,0-.25.07-.63.19-.38.12-.67.21-.88.28-.12.03-.23.05-.33.05-.19,0-.37-.05-.56-.15-.27-.15-.45-.39-.53-.71-.02-.1-.03-.19-.03-.28,0-.22.06-.43.18-.63.17-.29.42-.47.74-.56.39-.1,1.08-.3,2.06-.58.12-.03.18-.11.18-.23v-4.57c0-.12-.07-.18-.2-.18h-1.7c-.3,0-.57-.11-.79-.33-.22-.22-.33-.49-.33-.8s.11-.58.33-.79c.22-.21.48-.32.79-.32h1.7c.14,0,.2-.07.2-.2v-3.73c0-.3.11-.56.32-.77.21-.21.47-.32.77-.32s.57.11.79.32c.22.21.33.47.33.77v3.73c0,.14.06.2.18.2h1.29c.32,0,.59.11.8.32.21.21.32.47.32.79s-.11.58-.32.8c-.21.22-.48.33-.8.33h-1.29c-.12,0-.18.06-.18.18v3.91c0,.05.02.09.05.11s.08.03.13.01l1.12-.33ZM175.2,33.67c0,.14.07.2.2.2h5c.19,0,.35.07.5.2.14.14.22.3.22.5s-.07.36-.22.5c-.14.14-.31.2-.5.2h-11.68c-.42,0-.78-.14-1.07-.43-.29-.29-.43-.64-.43-1.07v-3.35s-.01-.03-.04-.05c-.03-.02-.05,0-.06.03-.02,0-.03,0-.03.03-.22.19-.48.28-.79.28h-.03c-.29,0-.56-.1-.81-.3-.2-.17-.3-.38-.3-.63,0-.27.11-.5.33-.69,1.17-1,2.1-2.14,2.79-3.43.03-.03.04-.07.01-.11-.03-.04-.06-.06-.11-.06h-.2c-.41,0-.76-.14-1.05-.43-.3-.29-.44-.64-.44-1.07v-1.42c0-.29.11-.54.32-.75.21-.21.46-.32.75-.32s.54.11.75.32c.21.21.32.46.32.75v1.12c0,.14.07.2.2.2h3.28c.12,0,.18-.07.18-.2v-1.73c0-.3.11-.57.34-.8s.5-.34.83-.34.6.11.83.34.34.5.34.8v1.73c0,.14.06.2.18.2h3.28c.14,0,.2-.07.2-.2v-1.07c0-.3.11-.57.32-.79.21-.22.47-.33.77-.33s.57.11.79.33c.22.22.33.48.33.79v1.37c0,.42-.15.78-.44,1.07-.3.29-.65.43-1.05.43h-3.55s-.03,0-.03.01c0,0,0,.01.03.01.12.02.2.08.25.2.05.12.05.24,0,.36-.05.07-.13.19-.23.38-.1.19-.18.32-.23.41-.02.03-.01.07.01.11.03.04.05.06.09.06h4.47c.2,0,.37.07.51.2.14.14.2.3.2.5s-.07.36-.2.5c-.14.14-.3.2-.51.2h-4.39c-.14,0-.2.06-.2.18v.58c0,.14.07.2.2.2h3.71c.17,0,.31.06.43.18.12.12.18.27.18.44s-.06.33-.18.44c-.12.12-.26.18-.43.18h-3.71c-.14,0-.2.06-.2.18v.61c0,.14.07.2.2.2h3.71c.17,0,.31.06.43.18.12.12.18.27.18.44s-.06.33-.18.44c-.12.12-.26.18-.43.18h-3.71c-.14,0-.2.06-.2.18v.63ZM179.36,36.18c.42,0,.78.15,1.07.44.29.3.43.65.43,1.05v5.1c0,.47-.05.83-.17,1.07-.11.24-.31.42-.6.56-.39.17-1.06.26-2.01.28h-.03c-.24,0-.45-.08-.63-.23-.2-.17-.34-.37-.41-.61-.07-.19-.04-.36.08-.53.12-.17.27-.25.46-.25h.25c.29,0,.5,0,.63-.03.14,0,.22-.02.25-.05.03-.03.05-.11.05-.23v-2.59c0-.12-.06-.18-.18-.18h-1.68c-.14,0-.2.06-.2.18v1.73c0,.41-.14.76-.43,1.05-.29.3-.64.44-1.07.44h-3.25c-.05,0-.08.03-.08.08,0,.17-.06.32-.19.44s-.28.19-.44.19h-.23c-.24,0-.44-.08-.62-.25-.18-.17-.27-.37-.27-.61v-2.84s-.01-.06-.04-.08c-.03-.02-.05-.02-.09,0-.05.02-.1.04-.15.08-.17.07-.34.1-.51.1-.1,0-.2,0-.3-.03-.27-.07-.52-.21-.76-.43-.02-.02-.03-.02-.05-.01-.02,0-.03.03-.03.06v3.53c0,.29-.1.53-.3.74s-.45.3-.74.3-.53-.1-.74-.3-.3-.45-.3-.74v-5.94c0-.41.14-.76.43-1.05.29-.3.64-.44,1.07-.44h11.76ZM168.37,37.73c-.12,0-.18.07-.18.2v1.4s.02.07.05.1c.03.03.08.04.13.03,1.05-.36,1.78-.87,2.18-1.55.03-.03.04-.07.01-.11-.03-.04-.06-.06-.11-.06h-2.08ZM172.79,29.38c.12,0,.18-.07.18-.2v-.58c0-.12-.06-.18-.18-.18h-3.28c-.12,0-.18.06-.18.18v.58c0,.14.06.2.18.2h3.28ZM172.79,31.61c.12,0,.18-.07.18-.2v-.61c0-.12-.06-.18-.18-.18h-3.28c-.12,0-.18.06-.18.18v.61c0,.14.06.2.18.2h3.28ZM169.51,32.86c-.12,0-.18.06-.18.18v.63c0,.14.06.2.18.2h3.28c.12,0,.18-.07.18-.2v-.63c0-.12-.06-.18-.18-.18h-3.28ZM173.5,25.65s.01-.07-.01-.11c-.03-.04-.06-.06-.11-.06h-3.05v.03c.07.02.11.06.14.11.03.06.02.12-.01.19-.19.37-.37.72-.56,1.04-.02.03-.02.07,0,.11.02.04.04.06.08.06h2.69c.14,0,.23-.06.28-.18.12-.25.3-.65.56-1.19ZM174.18,37.94c0-.14-.06-.2-.18-.2h-1.42c-.12,0-.2.07-.25.2-.29.71-.77,1.32-1.45,1.83-.02.02-.02.04-.01.06s.02.04.04.04h4.06s.02-.03,0-.05c-.3-.1-.51-.27-.62-.51-.11-.24-.17-.59-.17-1.07v-.3ZM174.72,42.23c.14,0,.2-.07.2-.2v-.81c0-.12-.07-.18-.2-.18h-2.64c-.14,0-.2.06-.2.18v.81c0,.14.07.2.2.2h2.64ZM176.54,38.72h2.03c.12,0,.18-.08.18-.23v-.56c0-.14-.06-.2-.18-.2h-2.41c-.12,0-.18.07-.18.2v.3c0,.22.03.36.09.41s.22.08.47.08Z" style="fill: #4b4c4e;"/>
        <path d="M194.78,25.9c0-.14-.07-.2-.2-.2h-1.57c-.12,0-.19.07-.2.2-.36,1.9-1.5,3.35-3.43,4.37-.17.08-.35.13-.53.13-.1,0-.2,0-.3-.03-.29-.08-.53-.25-.74-.48-.15-.19-.21-.4-.17-.63.04-.24.17-.41.39-.51,1.41-.64,2.26-1.59,2.56-2.84.02-.05,0-.1-.03-.14-.03-.04-.08-.06-.13-.06h-2.59c-.27,0-.5-.09-.69-.28-.19-.19-.28-.41-.28-.66s.09-.47.28-.66c.19-.19.42-.28.69-.28h2.72c.12,0,.18-.07.18-.2v-1.37c0-.3.11-.56.32-.77.21-.21.47-.32.76-.32s.55.11.76.32c.21.21.32.47.32.77v1.37c0,.14.07.2.2.2h1.47c.14,0,.2-.07.2-.2v-1.35c0-.29.1-.54.3-.75.2-.21.45-.32.74-.32s.54.11.75.32c.21.21.32.46.32.75v1.35c0,.14.06.2.18.2h2.46c.12,0,.18-.07.18-.2v-1.29c0-.3.11-.57.33-.79.22-.22.48-.33.79-.33s.56.11.77.33c.21.22.32.48.32.79v1.29c0,.14.07.2.2.2h1.55c.12,0,.18-.07.18-.2v-1.37c0-.3.11-.56.32-.77.21-.21.47-.32.76-.32s.55.11.76.32c.21.21.32.47.32.77v1.37c0,.14.07.2.2.2h2.59c.27,0,.5.09.69.28.19.19.28.41.28.66s-.09.47-.28.66c-.19.19-.42.28-.69.28h-2.59c-.14,0-.2.07-.2.2v1.68c0,.29.03.47.08.55s.19.11.41.11h1.14c.15,0,.26-.07.32-.2.06-.14.11-.41.14-.81.02-.22.13-.39.33-.51.2-.12.42-.14.63-.05.29.12.52.3.69.53.14.2.2.41.2.61,0,.07,0,.14-.03.2-.14.78-.36,1.32-.67,1.62s-.77.46-1.38.46h-1.78c-.9,0-1.49-.17-1.79-.52-.3-.35-.44-1.01-.44-1.99v-1.68c0-.14-.06-.2-.18-.2h-1.55c-.14,0-.2.07-.2.2v2.39c0,.42-.14.78-.43,1.07-.29.29-.64.43-1.07.43h-4.14c-.42,0-.78-.14-1.07-.43-.29-.29-.43-.64-.43-1.07v-2.39ZM189.25,35.88c-.22.22-.48.33-.79.33s-.57-.11-.79-.33c-.22-.22-.33-.48-.33-.79v-2.64c0-.41.14-.76.43-1.05.29-.3.64-.44,1.07-.44h19.09c.42,0,.78.15,1.07.44.29.3.43.65.43,1.05v2.59c0,.32-.11.6-.34.83s-.5.34-.83.34-.6-.11-.83-.34-.34-.5-.34-.83v-1.9c0-.14-.06-.2-.18-.2h-7.34c-.14,0-.2.07-.2.2v1.98c0,.12.07.18.2.18h5.92c.41,0,.76.15,1.05.44.3.3.44.65.44,1.05v4.01c0,.58-.08,1.03-.24,1.36s-.45.57-.88.72c-.56.2-1.55.3-2.97.3-.3,0-.58-.1-.84-.29-.25-.19-.43-.44-.53-.75-.1-.25-.08-.48.06-.69s.33-.3.57-.3c.61.02,1.25.03,1.93.03.2-.02.34-.05.41-.11.07-.06.1-.17.1-.32v-3.33c0-.14-.07-.2-.2-.2h-4.82c-.14,0-.2.07-.2.2v6.04c0,.32-.12.6-.36.84-.24.24-.52.36-.85.36s-.61-.12-.84-.36c-.23-.24-.34-.52-.34-.84v-6.04c0-.14-.07-.2-.2-.2h-4.39c-.14,0-.2.07-.2.2v4.54c0,.32-.11.6-.34.83s-.5.34-.83.34-.6-.11-.83-.34-.34-.5-.34-.83v-5.18c0-.41.15-.76.44-1.05.3-.3.65-.44,1.05-.44h5.43c.14,0,.2-.06.2-.18v-1.98c0-.14-.07-.2-.2-.2h-7.03c-.12,0-.18.07-.18.2v1.96c0,.3-.11.57-.33.79ZM199.71,25.9c0-.14-.06-.2-.18-.2h-2.46c-.12,0-.18.07-.18.2v1.85c0,.12.06.18.18.18h2.46c.12,0,.18-.06.18-.18v-1.85Z" style="fill: #4b4c4e;"/>
        <path d="M219.18,42.38c-.38.39-.85.58-1.42.58s-1.04-.19-1.42-.58-.57-.88-.57-1.49.19-1.11.57-1.52c.38-.41.85-.62,1.42-.62s1.04.21,1.42.62c.38.42.57.92.57,1.52s-.19,1.1-.57,1.49Z" style="fill: #4b4c4e;"/>
        <path d="M229.53,42.38c-.38.39-.85.58-1.42.58s-1.04-.19-1.42-.58-.57-.88-.57-1.49.19-1.11.57-1.52c.38-.41.85-.62,1.42-.62s1.04.21,1.42.62c.38.42.57.92.57,1.52s-.19,1.1-.57,1.49Z" style="fill: #4b4c4e;"/>
        <path d="M239.87,42.38c-.38.39-.85.58-1.42.58s-1.04-.19-1.42-.58-.57-.88-.57-1.49.19-1.11.57-1.52c.38-.41.85-.62,1.42-.62s1.04.21,1.42.62c.38.42.57.92.57,1.52s-.19,1.1-.57,1.49Z" style="fill: #4b4c4e;"/>
      </g>
    </g>
  </g>
</svg>