<?xml version="1.0" encoding="UTF-8"?>
<svg id="_圖層_2" data-name="圖層 2" xmlns="http://www.w3.org/2000/svg" width="147.41" height="67.8" viewBox="0 0 147.41 67.8">
  <g id="_設計" data-name="設計">
    <g>
      <path d="M71.57,55.75h57.52c9.65,0,17.47-7.72,17.47-17.24v-20.42c0-9.52-7.82-17.24-17.47-17.24H18.32c-9.65,0-17.47,7.72-17.47,17.24v20.42c0,9.52,7.82,17.24,17.47,17.24h20.64s26.28,11.05,26.28,11.05c1.44.61,2.91-.78,2.37-2.23l-3.31-8.82h7.27Z" style="fill: #fff; stroke: #4b4c4e; stroke-linecap: round; stroke-linejoin: round; stroke-width: 1.71px;"/>
      <g>
        <path d="M38.29,30.95c-.11,0-.17.06-.17.17v3.53c0,.1.05.16.15.17.99.19,2.22.28,3.68.28.5.01,1.09.02,1.76.02.73,0,1.57,0,2.52-.02.24,0,.43.1.56.3.09.11.13.24.13.39,0,.09-.02.17-.06.26-.1.3-.28.55-.53.74-.25.19-.53.29-.83.29h-3.63c-2.51,0-4.59-.31-6.24-.92-1.62-.6-2.95-1.71-3.98-3.31-.01-.03-.04-.04-.08-.03-.04,0-.06.03-.08.05-.62,1.61-1.41,2.89-2.37,3.85-.19.19-.41.28-.67.28h-.06c-.27-.01-.52-.12-.73-.32-.2-.17-.3-.39-.3-.67,0-.24.09-.45.26-.62,1.55-1.59,2.56-3.99,3.03-7.18.04-.29.18-.52.41-.71.2-.14.42-.21.65-.21h.13c.3.03.54.17.71.41.14.17.22.37.22.58,0,.06,0,.12-.02.19-.12.6-.24,1.18-.39,1.74-.03.1-.02.2.02.3.8,1.69,1.97,2.9,3.51,3.61.04.01.08.01.11-.01.03-.02.04-.05.04-.1v-7.83c0-.11-.05-.17-.15-.17h-7.4c-.26,0-.48-.09-.67-.28-.19-.19-.28-.41-.28-.68s.09-.49.28-.68c.19-.19.41-.28.67-.28h7.36c.11,0,.17-.05.17-.15v-2.32c0-.1-.06-.15-.17-.15h-5.44c-.26,0-.48-.09-.67-.28-.19-.19-.28-.41-.28-.67s.09-.48.28-.67c.19-.19.41-.28.67-.28h5.44c.11,0,.17-.05.17-.15v-1.2c0-.3.1-.55.3-.75.2-.2.45-.3.74-.3s.54.1.74.3c.2.2.3.45.3.75v1.2c0,.1.05.15.15.15h5.89c.26,0,.48.09.67.28.19.19.28.41.28.67s-.09.48-.28.67c-.19.19-.41.28-.67.28h-5.89c-.1,0-.15.05-.15.15v2.32c0,.1.05.15.15.15h7.48c.27,0,.5.09.69.28.19.19.28.41.28.68s-.09.49-.28.68c-.19.19-.42.28-.69.28h-7.44c-.11,0-.17.06-.17.17v2.75c0,.11.06.17.17.17h6.04c.26,0,.48.09.66.27.18.18.27.4.27.66s-.09.48-.27.66c-.18.18-.4.27-.66.27h-6.04Z" style="fill: #4b4c4e;"/>
        <path d="M54.73,26.17c.36,0,.66.13.9.38.24.25.37.55.37.89v5.61c0,.11.03.21.09.3.92,1.35,2.6,2.07,5.05,2.17,1.08.06,2.21.09,3.42.09,1.82,0,3.79-.06,5.92-.17.24-.01.43.08.56.28.1.13.15.27.15.41,0,.07-.01.15-.04.24-.1.3-.27.55-.52.75-.24.2-.52.3-.82.3-1.84.06-3.53.09-5.1.09-1.29,0-2.49-.02-3.59-.06-1.36-.04-2.52-.25-3.46-.63s-1.75-.96-2.41-1.75c-.07-.09-.14-.09-.21-.02-.6.57-1.28,1.2-2.02,1.87-.16.14-.34.21-.56.21-.06,0-.12,0-.17-.02-.29-.06-.5-.21-.62-.45-.09-.19-.13-.38-.13-.58,0-.11.01-.23.04-.34.09-.3.26-.55.52-.75.63-.47,1.24-.97,1.83-1.48.09-.07.13-.16.13-.26v-4.99c0-.11-.05-.17-.15-.17h-1.55c-.26,0-.48-.09-.67-.28-.19-.19-.28-.41-.28-.67s.09-.48.28-.67c.19-.19.41-.28.67-.28h2.39ZM55.98,20.86c.14.19.21.39.21.62v.15c-.04.3-.19.54-.43.73-.17.13-.36.19-.56.19-.06,0-.12,0-.17-.02-.27-.04-.5-.18-.67-.41-.56-.7-1.25-1.43-2.06-2.17-.19-.16-.28-.35-.28-.58,0-.26.11-.47.32-.62.21-.16.46-.24.73-.24h.04c.29,0,.54.09.75.28.85.72,1.55,1.41,2.11,2.06ZM59.92,33.59c-.34,0-.64-.12-.89-.37-.25-.24-.38-.54-.38-.9v-7.59s-.01-.05-.04-.06-.05,0-.06.02c-.26.27-.49.51-.69.71-.2.19-.43.28-.69.28h-.09c-.3-.01-.56-.14-.77-.37-.19-.2-.28-.44-.28-.71,0-.3.11-.55.32-.75,1.53-1.42,2.77-3.15,3.72-5.18.13-.27.34-.47.62-.6.16-.09.33-.13.52-.13.1,0,.21.01.32.04.27.09.47.25.58.49.06.13.09.26.09.39s-.03.26-.09.39c-.23.5-.49,1.01-.77,1.53-.03.03-.03.06-.01.09.02.03.05.04.08.04h2.73c.1,0,.17-.04.21-.13.27-.62.51-1.23.71-1.83.1-.31.29-.55.56-.71.19-.13.39-.19.62-.19.07,0,.15,0,.24.02.29.06.5.21.62.47.07.14.11.28.11.41s-.03.25-.09.37c-.24.52-.48,1-.71,1.46-.01.03-.01.06,0,.09.01.03.04.04.09.04h3.27c.23,0,.43.09.6.26.17.17.26.38.26.62s-.09.45-.26.61c-.17.17-.37.25-.6.25h-3.59c-.12,0-.17.06-.17.17v1.59c0,.1.06.15.17.15h3.05c.23,0,.43.09.6.26.17.17.26.37.26.6s-.09.43-.26.59c-.17.17-.37.25-.6.25h-3.05c-.12,0-.17.06-.17.17v1.59c0,.1.06.15.17.15h2.99c.23,0,.43.08.59.25.16.17.25.37.25.6s-.08.44-.25.6c-.17.16-.36.25-.59.25h-2.99c-.12,0-.17.06-.17.17v1.66c0,.1.06.15.17.15h3.96c.24,0,.45.09.62.26.17.17.26.38.26.62s-.09.45-.26.61c-.17.17-.38.25-.62.25h-10.21ZM63.87,24.56c.11,0,.17-.05.17-.15v-1.59c0-.11-.06-.17-.17-.17h-3.05c-.12,0-.17.06-.17.17v1.59c0,.1.06.15.17.15h3.05ZM63.87,28.17c.11,0,.17-.05.17-.15v-1.59c0-.11-.06-.17-.17-.17h-3.05c-.12,0-.17.06-.17.17v1.59c0,.1.06.15.17.15h3.05ZM63.87,31.85c.11,0,.17-.05.17-.15v-1.66c0-.11-.06-.17-.17-.17h-3.05c-.12,0-.17.06-.17.17v1.66c0,.1.06.15.17.15h3.05Z" style="fill: #4b4c4e;"/>
        <path d="M85.78,19.92s-.01.08.01.11.05.04.1.04h6.28c.34,0,.64.13.89.38s.38.55.38.89v14.86c0,.3-.11.56-.32.77-.21.21-.47.32-.77.32h-.11c-.26,0-.48-.1-.68-.29-.19-.19-.29-.42-.29-.68,0-.09-.04-.13-.13-.13h-10.88c-.09,0-.13.04-.13.13v.04c0,.27-.1.51-.3.71-.2.2-.44.3-.72.3s-.52-.1-.72-.3c-.2-.2-.3-.44-.3-.71v-15.03c0-.34.13-.64.38-.89.25-.25.55-.38.89-.38h4.13c.1,0,.17-.05.19-.15.17-.54.32-1.08.43-1.59.09-.34.26-.62.54-.82.24-.17.5-.26.77-.26.06,0,.11,0,.17.02.3.03.53.17.69.43.1.16.15.32.15.49,0,.11-.02.23-.06.34-.21.54-.41,1-.58,1.38ZM91.26,22.17c0-.1-.06-.15-.17-.15h-10.8c-.12,0-.17.05-.17.15v2.49c0,.12.06.17.17.17h10.8c.11,0,.17-.06.17-.17v-2.49ZM91.26,26.91c0-.11-.06-.17-.17-.17h-10.8c-.12,0-.17.06-.17.17v2.49c0,.1.06.15.17.15h10.8c.11,0,.17-.05.17-.15v-2.49ZM80.12,34.13c0,.11.06.17.17.17h10.8c.11,0,.17-.06.17-.17v-2.54c0-.1-.06-.15-.17-.15h-10.8c-.12,0-.17.05-.17.15v2.54Z" style="fill: #4b4c4e;"/>
        <path d="M108.86,19.51c.2-.04.4-.02.6.06l.34.15c.19.07.33.2.42.38.09.18.12.37.08.57-.65,2.72-1.64,5.04-2.99,6.96s-2.96,3.42-4.84,4.51c-.19.1-.38.15-.58.15-.09,0-.17-.01-.26-.04-.3-.06-.56-.21-.77-.45-.14-.14-.21-.31-.21-.52,0-.04,0-.08.02-.11.03-.24.15-.42.37-.54,1.26-.69,2.4-1.56,3.42-2.62.07-.07.07-.14,0-.21-.75-.67-1.67-1.36-2.77-2.06-.07-.04-.14-.04-.19.02-.01,0-.03,0-.04.02-.17.17-.38.26-.62.26h-.06c-.26-.01-.49-.11-.69-.3-.17-.17-.26-.38-.26-.62,0-.26.09-.47.26-.62.83-.8,1.59-1.74,2.29-2.82s1.26-2.16,1.71-3.27c.1-.27.28-.47.54-.6.16-.09.32-.13.5-.13.1,0,.2.01.3.04.26.07.44.23.56.47.07.13.11.26.11.39,0,.11-.03.23-.09.34-.07.16-.14.32-.22.47-.01.03-.01.06,0,.1.01.04.04.05.09.05h2.92s.06,0,.09-.02ZM102.52,37.06c-.19.24-.44.4-.75.47-.11.03-.22.04-.32.04-.2,0-.39-.04-.58-.13-.21-.09-.35-.25-.41-.49-.01-.06-.02-.12-.02-.17,0-.17.06-.33.19-.47.54-.7,1.02-1.53,1.42-2.47.11-.26.3-.46.56-.6.17-.09.34-.13.52-.13.09,0,.18,0,.28.02.26.07.45.22.58.45.09.14.13.28.13.41,0,.11-.02.22-.06.32-.43,1.06-.94,1.98-1.53,2.75ZM102.71,24.37c-.07.07-.06.14.04.19,1.12.67,2.04,1.32,2.75,1.94.09.07.16.06.21-.02.3-.42.57-.83.8-1.25.06-.1.04-.19-.04-.26-.76-.57-1.67-1.14-2.73-1.7-.1-.04-.18-.02-.24.06-.29.4-.55.75-.8,1.03ZM108.09,21.34s.01-.08-.01-.11c-.02-.03-.05-.04-.1-.04h-2.97c-.1,0-.18.04-.24.13-.14.26-.24.42-.3.49-.06.1-.04.17.06.22.99.47,1.87.98,2.65,1.51.09.06.15.04.19-.06.3-.75.54-1.46.71-2.13ZM106.47,34.48c-.01-.06-.02-.11-.02-.15,0-.2.06-.38.19-.54.16-.21.36-.33.6-.34.04-.01.09-.02.13-.02.21,0,.42.07.6.22.23.16.37.37.41.62.13.73.23,1.42.3,2.06v.13c0,.23-.08.44-.24.65-.19.21-.42.34-.71.39h-.13c-.21,0-.41-.06-.58-.19-.2-.19-.31-.41-.32-.67-.06-.72-.14-1.43-.24-2.15ZM119.21,22.39c.19.19.29.41.29.68s-.1.49-.29.69c-.19.19-.42.29-.68.29h-2.92s-.08.01-.11.04c-.03.03-.04.06-.02.11.75,2.8,1.99,4.8,3.72,6.02.23.16.36.37.39.65.01.04.02.09.02.15,0,.22-.07.41-.21.58-.2.24-.45.4-.73.47-.07.01-.15.02-.24.02-.2,0-.39-.06-.56-.19-1.45-1.1-2.57-2.73-3.35-4.88-.01-.03-.04-.04-.07-.04s-.05.01-.06.04c-.76,1.98-2.18,3.61-4.26,4.88-.19.1-.38.15-.58.15-.07,0-.14,0-.21-.02-.29-.06-.54-.19-.75-.39-.14-.14-.21-.32-.21-.52,0-.29.11-.5.34-.65,2.51-1.53,3.97-3.63,4.39-6.28.01-.1-.04-.15-.15-.15h-2.04c-.26,0-.48-.1-.68-.29-.19-.19-.29-.42-.29-.69s.1-.49.29-.68.42-.28.68-.28h2.15c.11,0,.17-.06.17-.17v-3.05c0-.26.09-.48.28-.68.19-.19.41-.29.68-.29s.5.1.69.29.29.42.29.68v3.05c0,.11.05.17.15.17h3.23c.26,0,.48.09.68.28ZM111.05,34.45c-.03-.09-.04-.18-.04-.28,0-.13.04-.26.11-.39.11-.21.3-.34.56-.39.06-.01.12-.02.19-.02.21,0,.42.05.6.15.24.14.42.34.54.6.29.73.52,1.44.71,2.13.03.09.04.17.04.26,0,.17-.05.34-.15.49-.16.24-.38.39-.67.43-.06.01-.12.02-.19.02-.2,0-.39-.06-.56-.17-.24-.16-.4-.37-.47-.65-.17-.72-.39-1.45-.67-2.19ZM115.72,34.24c-.09-.13-.13-.27-.13-.41,0-.09.01-.16.04-.24.07-.24.23-.4.47-.47.14-.06.29-.09.43-.09.16,0,.31.03.45.09.29.09.52.25.71.49.67.9,1.25,1.76,1.74,2.56.09.14.13.29.13.45,0,.11-.02.22-.06.32-.1.27-.29.46-.58.56-.13.04-.26.06-.39.06-.16,0-.32-.03-.47-.09-.3-.13-.52-.33-.67-.6-.45-.82-1-1.7-1.68-2.65ZM119.01,20.09c.1.16.15.32.15.47,0,.07,0,.14-.02.21-.06.24-.2.43-.43.56-.14.09-.29.13-.43.13-.09,0-.17,0-.24-.02-.24-.07-.43-.21-.56-.41-.36-.56-.77-1.11-1.23-1.66-.13-.17-.18-.37-.14-.58.04-.21.15-.37.33-.47.16-.09.33-.13.52-.13h.17c.24.04.45.16.62.34.49.54.9,1.06,1.25,1.55Z" style="fill: #4b4c4e;"/>
      </g>
    </g>
  </g>
</svg>