<?xml version="1.0" encoding="UTF-8"?>
<svg id="_圖層_2" data-name="圖層 2" xmlns="http://www.w3.org/2000/svg" width="187.84" height="67.8" viewBox="0 0 187.84 67.8">
  <g id="_設計" data-name="設計">
    <g>
      <path d="M71.57,55.75h97.95c9.65,0,17.47-7.72,17.47-17.24v-20.42c0-9.52-7.82-17.24-17.47-17.24H18.32c-9.65,0-17.47,7.72-17.47,17.24v20.42c0,9.52,7.82,17.24,17.47,17.24h20.64s26.28,11.05,26.28,11.05c1.44.61,2.91-.78,2.37-2.23l-3.31-8.82h7.27Z" style="fill: #fff; stroke: #4b4c4e; stroke-linecap: round; stroke-linejoin: round; stroke-width: 1.71px;"/>
      <g>
        <path d="M33.45,29.94v.02s-.02.04-.06.04h-4.75c-.34,0-.64-.12-.89-.37-.25-.24-.38-.54-.38-.9v-2.11c0-.34.13-.64.38-.89.25-.25.55-.38.89-.38h3.55c.34,0,.64.13.89.38s.38.55.38.89v2.69s.01.07.04.09c.03.01.06.01.09,0,.8-.56,1.55-1.21,2.24-1.96.07-.07.09-.16.04-.26-.76-1.56-1.33-3.43-1.72-5.61-.03-.1-.09-.15-.19-.15h-7.31c-.11,0-.17.05-.17.15v1.51c0,3.35-.62,6-1.85,7.94-.13.22-.33.34-.6.37h-.06c-.23,0-.43-.08-.6-.24-.21-.17-.34-.39-.37-.65-.01-.06-.02-.12-.02-.19,0-.19.05-.37.15-.54.99-1.61,1.48-3.84,1.48-6.71v-2.02c0-.34.12-.64.38-.89.25-.25.55-.38.89-.38h7.85c.1,0,.14-.05.13-.15-.07-.59-.11-.95-.11-1.1,0-.23.09-.43.26-.6.17-.19.39-.28.67-.28s.5.09.7.28c.19.19.3.42.31.69.03.34.06.68.09,1.01.01.1.08.15.19.15h2.99s.05-.01.05-.03,0-.04-.03-.05c-.47-.27-.98-.52-1.51-.75-.19-.09-.3-.22-.34-.4s0-.34.13-.48c.16-.19.35-.31.57-.37.22-.06.44-.05.66.02.57.23,1.11.48,1.61.75.21.12.34.3.39.56v.13c0,.2-.07.38-.19.54-.01.01-.02.03,0,.05,0,.02.02.03.05.03h1.27c.23,0,.42.08.58.25.16.17.24.36.24.58s-.08.42-.24.58c-.16.17-.35.25-.58.25h-5.38c-.12,0-.16.05-.13.15.27,1.42.65,2.71,1.12,3.87.01.03.04.04.07.04s.06-.01.08-.04c.43-.7.81-1.46,1.14-2.26.1-.26.27-.46.52-.6.17-.09.35-.13.54-.13.09,0,.17,0,.26.02.26.06.44.2.56.43.07.13.11.27.11.41,0,.1-.02.2-.07.3-.57,1.38-1.27,2.64-2.09,3.79-.06.09-.06.17,0,.26.79,1.19,1.55,1.79,2.28,1.79.21,0,.38-.14.5-.42.12-.28.21-.73.27-1.37.03-.19.13-.32.31-.41.18-.09.35-.08.53.02.24.13.43.32.56.56.1.17.15.35.15.54,0,.07,0,.14-.02.19-.17,1.03-.44,1.75-.8,2.14-.36.39-.9.59-1.61.59-1.23,0-2.37-.71-3.42-2.13-.07-.09-.14-.09-.22,0-.43.43-.85.82-1.27,1.16-.24.19-.51.28-.8.28h-.15c-.34-.04-.66-.19-.95-.43-.07-.09-.15-.17-.24-.24ZM25.17,36.71c-.2.23-.46.35-.77.37h-.09c-.27,0-.52-.08-.75-.24-.22-.14-.32-.36-.32-.65,0-.23.09-.43.26-.6.7-.7,1.28-1.6,1.72-2.69.1-.24.26-.42.5-.54.14-.06.28-.09.41-.09.12,0,.22.01.32.04.26.1.44.27.56.49.06.14.09.28.09.41,0,.11-.01.22-.04.32-.5,1.33-1.13,2.39-1.87,3.16ZM33.02,22.69c.19,0,.35.07.48.2.14.14.21.3.21.48s-.07.35-.21.48c-.14.14-.3.2-.48.2h-5.2c-.2,0-.37-.07-.5-.2-.13-.14-.19-.3-.19-.48s.06-.35.19-.48c.13-.14.29-.2.5-.2h5.2ZM31.69,35.74h3.55c.36,0,.61-.08.76-.23.15-.15.25-.47.31-.96.01-.22.12-.38.32-.49.2-.11.41-.13.62-.04.27.1.49.27.64.52.13.19.19.38.19.58,0,.06,0,.12-.02.19-.16.87-.43,1.47-.81,1.79-.38.32-.99.47-1.84.47h-3.94c-1.25,0-2.08-.17-2.51-.52-.42-.34-.63-1-.63-1.96v-2.13c0-.29.1-.53.3-.73.2-.2.44-.3.72-.3s.52.1.71.3c.19.2.29.44.29.73v2.11c0,.29.08.47.24.55s.52.12,1.08.12ZM31.58,28.63c.11,0,.17-.06.17-.17v-1.55c0-.1-.06-.15-.17-.15h-2.39c-.1,0-.15.05-.15.15v1.55c0,.12.05.17.15.17h2.39ZM30.94,31.72c-.19-.1-.29-.26-.31-.47-.02-.22.05-.39.2-.54.21-.17.45-.27.71-.3h.15c.2,0,.4.05.6.15.82.49,1.53.98,2.13,1.48.19.16.28.36.28.6,0,.27-.11.49-.32.67-.19.16-.39.24-.62.24h-.06c-.26,0-.49-.09-.69-.28-.59-.53-1.28-1.05-2.06-1.55ZM38.25,33.27c-.14-.13-.21-.29-.21-.47,0-.29.12-.49.37-.6.2-.11.42-.17.65-.17.06,0,.11,0,.17.02.29.03.53.14.73.32,1.03.96,1.87,1.94,2.52,2.92.1.16.15.32.15.49,0,.09-.01.18-.04.28-.09.27-.26.48-.52.62-.16.07-.31.11-.47.11-.1,0-.21-.02-.32-.06-.27-.09-.48-.25-.62-.49-.59-.97-1.38-1.96-2.39-2.97Z" style="fill: #4b4c4e;"/>
        <path d="M49.72,25.72c-.1,0-.15.05-.15.15v1.63c0,.27-.09.5-.28.69s-.41.28-.68.28-.49-.09-.68-.28c-.19-.19-.28-.42-.28-.69v-2.32c0-.36.12-.66.37-.9.24-.24.54-.37.9-.37h1.89s.08-.02.1-.05.02-.07,0-.1c-.19-.52-.44-1.08-.75-1.68-.12-.2-.13-.41-.03-.62.09-.22.25-.36.46-.43.13-.03.25-.04.37-.04.14,0,.29.02.43.06.27.1.47.27.6.52.17.3.34.62.49.95.07.13.11.26.11.39,0,.14-.04.28-.11.41-.13.27-.34.46-.64.56,0,.03,0,.04.02.04h4.45c.1,0,.14-.06.13-.17-.1-.59-.3-1.28-.6-2.09-.09-.21-.08-.43.03-.65.11-.22.28-.35.53-.41.09-.01.17-.02.26-.02.17,0,.34.04.52.11.24.13.42.32.54.56.13.34.25.67.37.97.04.13.06.26.06.39,0,.19-.06.37-.17.56-.17.3-.44.5-.8.6l-.45.11s-.02,0-.02.02,0,.02.02.02h4.07c.1,0,.18-.05.24-.15.43-.72.85-1.51,1.25-2.39.13-.29.34-.5.62-.65.19-.09.37-.13.56-.13.1,0,.21.01.32.04.27.07.46.24.56.49.04.11.06.22.06.32,0,.14-.04.29-.11.43-.46.77-.85,1.41-1.18,1.89-.03.01-.03.04-.01.08s.05.05.08.05h2.02c.36,0,.66.12.9.37s.37.54.37.9v2.28c0,.27-.1.51-.29.71-.19.2-.43.3-.71.3s-.52-.1-.71-.3-.29-.44-.29-.71v-1.59c0-.1-.05-.15-.15-.15h-14.6ZM62.11,27.83c.06-.01.12-.02.17-.02.16,0,.31.04.45.13l.41.24c.2.13.33.3.4.52.06.21.04.42-.07.62-.96,1.75-2.35,3.26-4.17,4.54-.03.03-.04.06-.04.1s.01.05.04.05c.96.39,1.98.72,3.05.99,1.08.27,2.21.49,3.4.65.26.04.43.18.52.41.04.1.06.19.06.28,0,.13-.04.26-.11.39-.2.3-.45.53-.75.69-.23.1-.46.15-.69.15-.1,0-.19,0-.28-.02-2.78-.47-5.21-1.24-7.29-2.3-.1-.04-.2-.04-.3,0-2.05,1-4.54,1.78-7.46,2.32-.09.01-.17.02-.26.02-.22,0-.43-.05-.65-.15-.29-.16-.52-.38-.69-.67-.09-.11-.13-.24-.13-.37,0-.09.02-.17.07-.26.09-.23.24-.36.47-.39,2.55-.37,4.77-.95,6.67-1.72.03-.01.05-.04.05-.08,0-.04,0-.07-.03-.1-1.45-1-2.67-2.21-3.66-3.63-.06-.09-.08-.18-.05-.27.02-.09.08-.16.18-.2v-.02h-.06c-.23,0-.43-.08-.59-.25-.17-.16-.25-.36-.25-.59v-.11c0-.26.09-.48.28-.67.19-.19.41-.28.67-.28h10.65ZM62.93,17.74c.14-.03.28-.04.41-.04.54,0,1.01.22,1.4.67.16.19.2.39.12.62-.08.23-.24.37-.48.41-3.99.7-9.04,1.18-15.16,1.42h-.04c-.23,0-.43-.08-.6-.24-.2-.16-.34-.37-.41-.62-.06-.22-.02-.42.11-.6.13-.19.3-.28.52-.28,5.91-.27,10.62-.72,14.15-1.33ZM60.67,29.85s.01-.06,0-.09c-.01-.03-.04-.04-.06-.04h-7.2s-.05.01-.06.04-.01.06,0,.09c.92,1.18,2.13,2.19,3.63,3.03.09.06.18.06.28,0,1.42-.85,2.56-1.86,3.42-3.03Z" style="fill: #4b4c4e;"/>
        <path d="M90.96,24.3c0,.29-.1.53-.31.74-.21.21-.46.31-.74.31h-6.82s-.08.01-.11.04c-.03.03-.04.06-.02.11.79,2.32,1.87,4.33,3.25,6.02,1.13,1.41,2.47,2.52,4.02,3.33.26.14.41.36.45.65.01.06.02.11.02.17,0,.22-.07.42-.21.6-.23.29-.5.47-.82.56-.12.04-.23.06-.34.06-.2,0-.4-.05-.6-.15-3.24-1.88-5.68-5.02-7.33-9.44-.01-.03-.04-.04-.06-.04s-.04.01-.04.04c-1.23,4.24-3.71,7.4-7.42,9.46-.19.1-.38.15-.58.15-.11,0-.22-.01-.32-.04-.32-.09-.59-.26-.82-.52-.16-.16-.24-.34-.24-.56v-.13c.04-.27.18-.47.41-.6,3.76-1.96,6.14-5.15,7.16-9.57.03-.1-.01-.15-.13-.15h-6.58c-.29,0-.53-.1-.74-.31-.21-.21-.31-.46-.31-.74s.1-.53.31-.74c.21-.21.46-.31.74-.31h6.97c.1,0,.16-.05.17-.15.13-1.12.21-2.72.24-4.82.01-.31.13-.58.34-.8.21-.21.48-.32.79-.32s.57.11.79.32c.2.22.3.47.3.75,0,1.68-.09,3.3-.26,4.86-.01.1.03.15.13.15h7.68c.29,0,.53.1.74.31.21.21.31.46.31.74Z" style="fill: #4b4c4e;"/>
        <path d="M100.23,24.75c-.11,0-.17.05-.17.15v5.51s.02.08.05.1c.04.02.07.03.1.01.37-.17.8-.35,1.27-.54.12-.06.22-.09.32-.09.12,0,.24.04.37.11.21.1.35.27.41.52.03.1.04.19.04.28,0,.17-.04.33-.11.47-.12.26-.29.44-.54.56-1.59.76-3.24,1.52-4.95,2.28-.13.06-.27.09-.41.09s-.28-.03-.41-.09c-.27-.11-.47-.31-.58-.58-.04-.13-.06-.27-.06-.41s.03-.29.09-.43c.13-.27.34-.47.62-.58.47-.19,1.05-.41,1.72-.67.1-.04.15-.12.15-.24v-6.3c0-.1-.06-.15-.17-.15h-1.57c-.27,0-.5-.1-.69-.29-.19-.19-.28-.42-.28-.69s.09-.49.28-.68c.19-.19.42-.28.69-.28h1.57c.12,0,.17-.06.17-.17v-3.76c0-.27.09-.5.28-.69.19-.19.41-.28.68-.28s.49.09.68.28c.19.19.28.42.28.69v3.76c0,.11.06.17.17.17h1.31c.26,0,.48.09.68.28.19.19.29.41.29.68s-.1.49-.29.69c-.19.19-.42.29-.68.29h-1.31ZM107.48,35.55h4.82c.52,0,.88-.13,1.09-.4.21-.27.35-.79.44-1.58.03-.23.14-.39.34-.49.2-.1.4-.11.6-.02.27.11.49.29.64.52.13.19.19.39.19.6v.17c-.17,1.15-.48,1.94-.94,2.38s-1.2.66-2.25.66h-5.05c-1.36,0-2.28-.23-2.76-.68s-.72-1.33-.72-2.63v-6.22s-.01-.05-.04-.08c-.03-.02-.06-.02-.11-.01l-.45.19c-.13.06-.26.09-.39.09s-.25-.02-.37-.06c-.26-.1-.44-.28-.54-.54-.06-.13-.09-.26-.09-.39s.02-.25.07-.37c.11-.26.29-.44.54-.54l1.22-.54c.1-.03.15-.1.15-.21v-4.71c0-.26.1-.48.29-.68.19-.19.42-.29.69-.29s.49.1.68.29c.19.19.28.42.28.68v3.89s.02.08.05.1c.04.02.07.03.1.01l2.17-.92c.1-.04.15-.11.15-.21v-4.95c0-.26.09-.48.28-.67.19-.19.41-.28.68-.28s.49.09.68.28c.19.19.28.41.28.67v4.13s.02.08.05.1c.04.02.07.03.1.01l2.15-.92c.07-.03.14-.06.19-.11l.06-.04c.26-.2.53-.3.82-.3.16,0,.32.04.5.11l.41.15c.2.07.27.22.21.43v.09c0,4.52-.06,7.16-.17,7.94-.1.87-.49,1.4-1.16,1.57-.3.11-.71.19-1.22.21h-.07c-.23,0-.43-.07-.6-.21-.2-.17-.34-.39-.41-.65-.04-.2,0-.39.12-.57.12-.18.29-.26.5-.25h.37c.16,0,.28-.04.38-.12.09-.08.16-.23.21-.44.09-.42.13-2.31.13-5.68,0-.03-.02-.05-.05-.08s-.07-.02-.1-.01l-2.26.97c-.1.04-.15.11-.15.21v6.8c0,.26-.09.48-.28.67s-.41.28-.68.28-.49-.09-.68-.28c-.19-.19-.28-.41-.28-.67v-5.98s-.02-.05-.04-.08c-.03-.02-.07-.02-.11-.01l-2.17.92c-.1.04-.15.11-.15.21v7.08c0,.62.1,1.01.3,1.19.2.18.65.27,1.35.27Z" style="fill: #4b4c4e;"/>
        <path d="M125.77,27.36v.19c0,.19-.04.37-.13.54-.13.23-.32.39-.58.47l-1.03.41c-.1.03-.15.1-.15.22v6.49c0,.49-.06.87-.18,1.15-.12.28-.32.51-.59.68-.37.19-.98.29-1.81.32h-.02c-.26,0-.49-.09-.69-.26-.22-.17-.37-.39-.45-.65-.06-.22-.03-.41.1-.59.12-.18.3-.27.53-.27h.95c.14,0,.24-.03.3-.09.06-.06.09-.16.09-.3v-5.81s-.02-.08-.05-.1c-.04-.02-.07-.02-.1-.01-.47.17-.88.32-1.2.45-.11.03-.21.04-.3.04-.14,0-.29-.04-.43-.11-.23-.13-.37-.32-.43-.58-.01-.09-.02-.16-.02-.24,0-.19.05-.37.15-.54.14-.24.35-.41.62-.49.57-.2,1.11-.39,1.61-.56.1-.03.15-.1.15-.22v-3.57c0-.1-.06-.15-.17-.15h-1.27c-.26,0-.48-.09-.67-.28-.19-.19-.28-.41-.28-.68s.09-.49.28-.67c.19-.18.41-.27.67-.27h1.27c.12,0,.17-.06.17-.17v-3.23c0-.24.09-.45.26-.62.17-.17.38-.26.62-.26s.46.09.63.26c.18.17.27.38.27.62v3.23c0,.12.05.17.15.17h.58c.27,0,.5.09.68.27.18.18.27.4.27.67s-.09.49-.27.68c-.18.19-.41.28-.68.28h-.58c-.1,0-.15.05-.15.15v2.97s.01.06.04.09c.03.03.06.04.11.02l.73-.26c.21-.09.43-.07.63.05.21.12.33.3.38.53ZM128.05,30.65s-.01.05,0,.08c.01.02.04.03.06.03l1.55-.26c.1-.01.17-.07.19-.17.03-.1.05-.21.06-.32.06-.23.18-.4.37-.53.19-.12.39-.16.6-.12s.39.16.52.34.17.39.13.6c-.72,3.27-2.21,5.66-4.49,7.16-.16.1-.32.15-.5.15-.07,0-.14,0-.21-.02-.26-.06-.47-.19-.65-.39-.14-.19-.2-.39-.17-.61.03-.22.14-.39.34-.51,1.46-.9,2.56-2.15,3.29-3.74.01-.04.01-.08-.01-.1s-.05-.03-.08-.03l-3.14.6c-.23.04-.44,0-.63-.14-.19-.14-.31-.32-.33-.55-.02-.04-.02-.09-.02-.15,0-.17.06-.34.17-.49.14-.19.33-.29.56-.32.12-.01.24-.04.37-.06.1,0,.18-.04.24-.13.49-.73.96-1.5,1.42-2.3.06-.09.06-.18,0-.28-.46-.76-1.1-1.55-1.94-2.37-.16-.16-.25-.35-.28-.58-.03-.23.02-.44.15-.65l.02-.04c.12-.16.27-.25.47-.28.2-.03.37.03.52.17.06.04.1.04.13-.02.43-.77.8-1.55,1.12-2.32.09-.21.23-.37.43-.47.11-.04.23-.06.34-.06.1,0,.2.02.3.06.2.09.34.24.42.45.08.22.07.42-.03.62-.56,1.06-1.06,1.96-1.51,2.71-.06.1-.05.19.02.26.24.3.48.61.71.92.03.03.06.04.1.04s.06-.02.08-.06c.36-.69.69-1.35.99-1.98.09-.22.23-.36.43-.44.2-.08.41-.08.62-.01.19.09.32.23.4.42.08.19.07.38-.03.57-1.09,2.06-2.12,3.84-3.1,5.31ZM138.67,19.57c.24,0,.46.09.63.26.18.17.27.38.27.63s-.09.46-.27.63c-.18.17-.39.26-.63.26h-11.98c-.24,0-.45-.09-.62-.26-.17-.17-.26-.38-.26-.63s.09-.46.26-.63c.17-.17.38-.26.62-.26h4.77c.1,0,.15-.06.15-.17v-.77c0-.26.1-.48.29-.68.19-.19.43-.29.7-.29s.5.1.69.29c.19.19.28.42.28.68v.77c0,.12.06.17.17.17h4.93ZM139.08,35.27c.21,0,.4.08.56.24.16.16.24.34.24.56s-.08.4-.24.56c-.16.16-.34.24-.56.24h-5.05c-.07,0-.11.04-.11.11v.04c0,.23-.08.42-.24.58-.16.16-.35.24-.57.24s-.41-.08-.57-.24c-.16-.16-.24-.35-.24-.58v-8.41s0-.02-.02-.03c-.01,0-.02,0-.02.01-.1.16-.24.24-.41.26-.17.01-.33-.04-.47-.15-.04-.04-.09-.09-.13-.13-.19-.16-.3-.35-.34-.58v-.17c0-.17.04-.34.13-.49.83-1.33,1.52-2.98,2.06-4.92.06-.23.19-.4.39-.52.14-.09.29-.13.43-.13.07,0,.14,0,.22.02.21.06.38.19.5.39.12.2.15.41.08.62-.14.53-.31,1.05-.5,1.55-.01.04,0,.08.02.11s.06.04.09.04h1.23c.12,0,.19-.05.21-.15.22-.69.4-1.32.56-1.89.06-.23.19-.41.4-.53.21-.12.43-.15.66-.1.23.06.39.19.5.41.1.22.11.43.04.65-.27.69-.47,1.18-.58,1.46-.01.04,0,.08.01.11s.05.04.1.04h1.31c.21,0,.4.08.56.24.16.16.24.34.24.56s-.08.4-.24.55c-.16.15-.34.23-.56.23h-1.44c-.12,0-.17.06-.17.17v1.7c0,.1.06.15.17.15h1.18c.2,0,.37.07.5.22.14.14.2.31.2.51s-.07.36-.2.51c-.14.14-.3.21-.5.21h-1.18c-.12,0-.17.05-.17.15v1.78c0,.1.06.15.17.15h1.25c.2,0,.37.07.5.21.14.14.2.31.2.51s-.07.36-.2.51c-.14.14-.3.22-.5.22h-1.25c-.12,0-.17.05-.17.15v1.94c0,.1.06.15.17.15h1.76ZM135.49,28.07c.1,0,.15-.05.15-.15v-1.7c0-.11-.05-.17-.15-.17h-1.42c-.1,0-.15.06-.15.17v1.7c0,.1.05.15.15.15h1.42ZM135.49,31.59c.1,0,.15-.05.15-.15v-1.78c0-.1-.05-.15-.15-.15h-1.42c-.1,0-.15.05-.15.15v1.78c0,.1.05.15.15.15h1.42ZM134.07,33.04c-.1,0-.15.05-.15.15v1.94c0,.1.05.15.15.15h1.42c.1,0,.15-.05.15-.15v-1.94c0-.1-.05-.15-.15-.15h-1.42Z" style="fill: #4b4c4e;"/>
        <path d="M155.65,35.94h4.9c.57,0,.96-.13,1.17-.38.21-.25.35-.79.44-1.6.01-.23.12-.4.32-.52.2-.11.42-.13.65-.04.27.12.49.29.64.52.13.19.19.39.19.6v.17c-.17,1.19-.49,2-.95,2.42s-1.24.63-2.34.63h-5.14c-1.41,0-2.36-.18-2.86-.55s-.75-1.09-.75-2.18v-4.95c0-.34.12-.64.37-.89.24-.25.54-.38.9-.38h3.66c.1,0,.15-.05.15-.15v-2.58c0-.1-.05-.15-.15-.15h-3.4c-.27,0-.51-.1-.72-.3-.21-.2-.31-.44-.31-.73,0-.01-.01-.02-.03-.03s-.03,0-.03.01c-.06.07-.12.14-.17.21-.17.22-.39.33-.67.34h-.06c-.26,0-.49-.09-.69-.26-.03-.01-.05-.04-.06-.06-.2-.14-.32-.34-.34-.58-.03-.24.04-.45.22-.62.01-.03.01-.05,0-.06s-.03-.02-.04-.02h-1.61c-.11,0-.17.05-.17.15v3.55s.02.08.05.11c.04.03.08.04.12.02l.84-.24c.23-.07.45-.04.66.1.21.14.33.33.35.57.01.04.02.09.02.15,0,.2-.06.39-.19.58-.14.21-.34.37-.58.45-.57.17-.94.29-1.1.34-.11.03-.17.09-.17.19v5.66c0,.54-.06.97-.18,1.28-.12.31-.34.54-.66.7-.42.23-1.08.36-2,.39h-.04c-.27,0-.52-.09-.73-.26-.23-.19-.39-.43-.5-.73-.01-.09-.02-.16-.02-.24,0-.14.04-.29.13-.43.14-.2.34-.29.58-.28h1.07c.14,0,.24-.03.3-.1s.09-.18.09-.33v-5.05s-.01-.08-.04-.1-.06-.02-.11-.01l-1.61.45c-.1.03-.19.04-.28.04-.16,0-.32-.04-.47-.13-.24-.14-.39-.35-.45-.62-.01-.09-.02-.16-.02-.24,0-.19.05-.37.15-.54.16-.24.37-.4.64-.47.57-.14,1.25-.32,2.04-.54.1-.03.15-.09.15-.19v-4.09c0-.1-.05-.15-.15-.15h-1.7c-.26,0-.48-.09-.67-.28-.19-.19-.28-.41-.28-.68s.09-.49.28-.67c.19-.18.41-.27.67-.27h1.7c.1,0,.15-.06.15-.17v-3.12c0-.26.1-.48.29-.68.19-.19.43-.29.7-.29s.5.1.69.29c.19.19.28.42.28.68v3.12c0,.12.06.17.17.17h.47c.36,0,.66.12.9.37.24.24.37.55.37.9v.41s.01.05.04.05c.03,0,.05,0,.06-.01,1.1-1.4,1.97-3.1,2.6-5.1.09-.27.25-.48.49-.62.16-.1.33-.15.52-.15.09,0,.17,0,.24.02.27.06.48.21.62.45.09.14.13.29.13.45,0,.09-.02.18-.06.28-.13.43-.27.85-.43,1.25-.02.03-.01.06,0,.1.02.04.05.05.08.05h7.12c.36,0,.66.12.9.37.24.24.37.53.37.86,0,2.44-.12,4.92-.34,7.46-.12,1.39-.32,2.27-.6,2.65-.32.44-.77.71-1.35.8-.26.06-.63.09-1.12.09h-.24c-.27-.01-.51-.11-.72-.3-.21-.19-.35-.42-.42-.71-.06-.22-.02-.41.11-.59.13-.18.3-.27.52-.27.24.01.52.02.84.02.29,0,.5-.1.65-.3.19-.24.33-.95.44-2.12.11-1.17.2-3.14.27-5.92,0-.1-.05-.15-.15-.15h-7.08c-.11,0-.19.05-.24.15-.34.65-.67,1.2-.99,1.66-.02.03-.02.06,0,.09.01.03.04.04.06.04h4.64c.36,0,.66.13.9.38.24.25.37.55.37.89v3.85c0,.34-.12.64-.37.89s-.54.38-.9.38h-3.57c-.1,0-.15.05-.15.15v4.28c0,.4.11.66.32.77.22.12.69.17,1.42.17Z" style="fill: #4b4c4e;"/>
      </g>
    </g>
  </g>
</svg>