<?xml version="1.0" encoding="UTF-8"?>
<svg id="_喇뒨쏛_2" data-name="喇뒨쏛 2" xmlns="http://www.w3.org/2000/svg" width="1884.23" height="601.01" viewBox="0 0 1884.23 601.01">
  <g id="_傍쇋뺃" data-name="傍쇋뺃">
    <g>
      <path d="M1393.98,300.51c0,93.15,42.4,176.38,108.93,231.5-52.01,43.09-118.76,69.01-191.58,69.01-73.12,0-140.09-26.16-192.21-69.58,66.17-55.12,108.31-138.08,108.32-230.93,0-92.85-42.14-175.81-108.31-230.93C1171.25,26.16,1238.22,0,1311.34,0c72.82,0,139.56,25.92,191.58,69.01-66.53,55.12-108.93,138.35-108.93,231.5" style="fill: #fff; opacity: .1;"/>
      <path d="M1775.3,300.51c0,93.15,42.4,176.38,108.93,231.5-52.01,43.09-118.76,69.01-191.58,69.01-73.12,0-140.09-26.16-192.21-69.58,66.17-55.12,108.31-138.08,108.32-230.93,0-92.85-42.14-175.81-108.31-230.93C1552.56,26.16,1619.53,0,1692.65,0c72.82,0,139.56,25.92,191.58,69.01-66.53,55.12-108.93,138.35-108.93,231.5" style="fill: #fff; opacity: .1;"/>
      <path d="M1012.66,300.51c0,93.15,42.4,176.38,108.93,231.5-52.01,43.09-118.76,69.01-191.58,69.01-73.12,0-140.09-26.16-192.21-69.58,66.17-55.12,108.31-138.08,108.32-230.93,0-92.85-42.14-175.81-108.31-230.93C789.93,26.16,856.9,0,930.02,0c72.82,0,139.56,25.92,191.58,69.01-66.53,55.12-108.93,138.35-108.93,231.5" style="fill: #fff; opacity: .1;"/>
      <path d="M166.7,381.78c39.98-69.25-128.98-69.25-88.99,0-39.98-69.25-124.46,77.07-44.5,77.07-79.97,0,4.51,146.33,44.5,77.07-39.98,69.25,128.98,69.25,88.99,0,39.98,69.25,124.46-77.07,44.5-77.07,79.97,0-4.51-146.32-44.5-77.07Z" style="fill: #fff; opacity: .1;"/>
    </g>
  </g>
</svg>