<?xml version="1.0" encoding="UTF-8"?>
<svg id="_圖層_2" data-name="圖層 2" xmlns="http://www.w3.org/2000/svg" width="442.92" height="204.68" viewBox="0 0 442.92 204.68">
  <g id="_設計" data-name="設計">
    <g>
      <path d="M228.36,171.97h171.8c22.78,0,41.25-18.47,41.25-41.25v-54.34c0-22.78-18.47-41.25-41.25-41.25H75.08c-22.78,0-41.25,18.47-41.25,41.25v54.34c0,22.78,18.47,41.25,41.25,41.25h63.58l72.3,30.8c3.96,1.69,8.01-2.18,6.52-6.21l-9.11-24.59h19.99Z" style="fill: #fff; stroke: #4b4c4e; stroke-linecap: round; stroke-linejoin: round; stroke-width: 3px;"/>
      <g>
        <path d="M14.55,106.08H.23v-4.64c0-1.76.07-2.9.21-3.44.21-.82.68-1.51,1.4-2.06s1.65-.83,2.79-.83c.88,0,1.62.16,2.22.48s1.07.72,1.41,1.22.57.99.68,1.5c.14.69.21,1.69.21,3v1.88h5.4v2.89ZM2.66,103.19h4.06v-1.58c0-1.14-.07-1.9-.22-2.29s-.38-.69-.7-.9-.69-.33-1.11-.33c-.52,0-.95.15-1.29.46s-.55.69-.63,1.16c-.06.34-.1,1.04-.1,2.08v1.4Z" style="fill: #fff;"/>
        <path d="M14.55,90.9H.23v-6.08c0-1.53.13-2.64.39-3.33s.71-1.25,1.37-1.67,1.41-.62,2.26-.62c1.07,0,1.96.32,2.66.95s1.14,1.58,1.32,2.83c.36-.62.77-1.14,1.2-1.55s1.21-.96,2.32-1.65l2.79-1.75v3.46l-3.12,2.09c-1.11.74-1.81,1.25-2.1,1.52s-.49.56-.6.87-.16.79-.16,1.46v.59h5.98v2.89ZM6.29,88.01v-2.14c0-1.39-.06-2.25-.18-2.6s-.32-.62-.61-.81-.64-.29-1.07-.29c-.48,0-.87.13-1.17.39s-.48.62-.56,1.09c-.03.23-.05.94-.05,2.11v2.26h3.63Z" style="fill: #fff;"/>
        <path d="M7.37,75.21c-1.46-.03-2.68-.27-3.66-.72-.72-.34-1.37-.79-1.94-1.37-.57-.57-.99-1.2-1.26-1.87-.36-.9-.53-1.93-.51-3.09.04-2.11.72-3.79,2.05-5.03,1.33-1.24,3.16-1.84,5.49-1.8,2.31.04,4.11.7,5.39,1.98s1.91,2.97,1.87,5.07c-.04,2.13-.72,3.81-2.04,5.04-1.32,1.23-3.12,1.83-5.4,1.79ZM7.32,72.23c1.62.03,2.86-.32,3.71-1.06.85-.73,1.29-1.68,1.31-2.83.02-1.15-.38-2.11-1.19-2.86-.82-.75-2.06-1.14-3.71-1.17-1.64-.03-2.87.31-3.69,1.01-.82.71-1.24,1.65-1.26,2.84-.02,1.19.37,2.16,1.17,2.9.8.74,2.03,1.13,3.68,1.16Z" style="fill: #fff;"/>
        <path d="M1.7,54.06l1.59-5.04c.36-1.14.72-1.97,1.08-2.51.49-.73,1.12-1.28,1.91-1.66s1.66-.58,2.62-.6c.97-.02,2.09.17,3.37.57,1.12.36,2.05.8,2.77,1.34.89.66,1.54,1.4,1.95,2.22.31.63.47,1.39.48,2.28,0,.67-.16,1.51-.48,2.53l-1.64,5.19-13.65-4.32ZM4.88,52.03l9.04,2.86.65-2.06c.24-.77.38-1.34.4-1.71.03-.48-.04-.91-.22-1.29-.17-.38-.54-.76-1.09-1.14-.55-.38-1.36-.74-2.41-1.07-1.06-.33-1.9-.5-2.52-.49s-1.15.13-1.57.36c-.42.24-.77.59-1.05,1.07-.21.36-.49,1.1-.85,2.22l-.39,1.24Z" style="fill: #fff;"/>
        <path d="M8.55,36.01l1.6-2.41,6.46,4.29c1.02.68,1.71,1.09,2.05,1.23.56.22,1.11.24,1.66.04.55-.19,1.05-.62,1.5-1.3.45-.68.66-1.29.61-1.82-.05-.53-.25-.97-.61-1.31-.36-.34-1.01-.82-1.96-1.45l-6.6-4.38,1.6-2.41,6.26,4.16c1.43.95,2.4,1.69,2.9,2.21.5.52.84,1.09,1.02,1.71.17.62.19,1.3.04,2.05-.15.75-.53,1.59-1.16,2.53-.76,1.14-1.46,1.92-2.12,2.33s-1.3.65-1.95.71c-.65.06-1.24,0-1.77-.2-.79-.3-1.85-.89-3.18-1.77l-6.36-4.22Z" style="fill: #fff;"/>
        <path d="M32.95,21.49l2.71-1.15c.69,1.47.9,2.81.63,4.04-.27,1.23-.98,2.34-2.15,3.34-1.45,1.24-3.05,1.76-4.83,1.56s-3.39-1.14-4.86-2.86c-1.55-1.81-2.28-3.62-2.2-5.42.08-1.8.88-3.35,2.4-4.66,1.33-1.14,2.75-1.67,4.25-1.59.89.04,1.83.39,2.83,1.05l-1.73,2.38c-.61-.45-1.26-.67-1.95-.65s-1.32.28-1.91.78c-.81.69-1.21,1.54-1.22,2.55,0,1.01.54,2.16,1.65,3.46,1.18,1.38,2.26,2.14,3.25,2.3.99.16,1.89-.1,2.68-.77.58-.5.93-1.11,1.03-1.84.1-.73-.09-1.57-.59-2.53Z" style="fill: #fff;"/>
        <path d="M44.41,20.55l-5.15-10.72-3.83,1.84-1.05-2.18,10.26-4.92,1.05,2.18-3.82,1.83,5.15,10.72-2.61,1.25Z" style="fill: #fff;"/>
        <path d="M60.4,15.1l-1.13-14.27L69.05.05l.19,2.42-6.9.55.27,3.38,5.96-.47.19,2.41-5.96.47.48,6.07-2.88.23Z" style="fill: #fff;"/>
        <path d="M74.12,14.56V.24h10.62v2.42h-7.72v3.17h7.19v2.41h-7.19v3.9h8v2.41h-10.89Z" style="fill: #fff;"/>
        <path d="M102.15,14.56h-3.14l-1.25-3.25h-5.72l-1.18,3.25h-3.07L93.36.24h3.06l5.73,14.32ZM96.83,8.9l-1.97-5.31-1.93,5.31h3.91Z" style="fill: #fff;"/>
        <path d="M107.24,14.56V2.67h-4.25V.24h11.38v2.42h-4.24v11.89h-2.89Z" style="fill: #fff;"/>
        <path d="M118.02.24h2.89v7.75c0,1.23.04,2.03.11,2.39.12.59.42,1.06.88,1.41s1.1.53,1.91.53,1.44-.17,1.86-.5.67-.75.75-1.24.13-1.3.13-2.43V.24h2.89v7.52c0,1.72-.08,2.93-.23,3.64s-.44,1.31-.86,1.8-.98.88-1.68,1.17-1.62.43-2.75.43c-1.37,0-2.4-.16-3.11-.47s-1.26-.73-1.67-1.23-.68-1.03-.81-1.59c-.19-.82-.28-2.03-.28-3.63V.24Z" style="fill: #fff;"/>
        <path d="M134.28,14.56V.24h6.08c1.53,0,2.64.13,3.33.39s1.25.71,1.67,1.37.62,1.41.62,2.26c0,1.07-.32,1.96-.95,2.66s-1.58,1.14-2.83,1.32c.62.36,1.14.76,1.55,1.2s.96,1.21,1.65,2.32l1.75,2.79h-3.46l-2.09-3.12c-.74-1.11-1.25-1.81-1.52-2.1s-.56-.49-.87-.6-.79-.16-1.46-.16h-.59v5.98h-2.89ZM137.17,6.3h2.14c1.39,0,2.25-.06,2.6-.18s.62-.32.81-.61.29-.64.29-1.07c0-.48-.13-.87-.39-1.17s-.62-.48-1.09-.56c-.23-.03-.94-.05-2.11-.05h-2.26v3.63Z" style="fill: #fff;"/>
        <path d="M150.54,14.56V.24h10.62v2.42h-7.72v3.17h7.19v2.41h-7.19v3.9h8v2.41h-10.89Z" style="fill: #fff;"/>
        <path d="M164.93,9.9l2.81-.27c.17.94.51,1.64,1.03,2.08s1.22.66,2.09.66c.93,0,1.63-.2,2.1-.59s.71-.85.71-1.38c0-.34-.1-.63-.3-.86s-.55-.44-1.04-.62c-.34-.12-1.11-.33-2.31-.62-1.55-.38-2.64-.86-3.26-1.42-.88-.79-1.32-1.75-1.32-2.88,0-.73.21-1.41.62-2.05s1.01-1.12,1.79-1.45,1.72-.5,2.82-.5c1.8,0,3.15.39,4.06,1.18s1.39,1.84,1.43,3.15l-2.89.13c-.12-.74-.39-1.26-.8-1.59s-1.02-.48-1.83-.48-1.5.17-1.97.52c-.31.22-.46.52-.46.89,0,.34.14.63.43.87.36.31,1.25.62,2.66.96s2.45.68,3.12,1.03,1.2.84,1.58,1.46.57,1.38.57,2.28c0,.82-.23,1.59-.68,2.3s-1.1,1.25-1.93,1.6-1.87.52-3.12.52c-1.81,0-3.2-.42-4.17-1.25s-1.55-2.06-1.74-3.66Z" style="fill: #fff;"/>
      </g>
      <g>
        <path d="M131.12,92.93c.75,0,1.41.27,1.95.82.55.55.82,1.21.82,1.98s-.27,1.44-.82,1.98-1.2.82-1.95.82h-38.97c-.3,0-.45.13-.45.4v3.74c0,9.93-1.55,17.8-4.64,23.62-.38.72-1.02,1.13-1.93,1.25h-.34c-.72,0-1.38-.25-1.98-.74-.04-.04-.09-.08-.17-.11-.72-.6-1.17-1.34-1.36-2.21-.08-.3-.11-.59-.11-.85,0-.6.15-1.19.45-1.76,2.27-4.57,3.4-10.99,3.4-19.26v-6.34c0-.91.32-1.69.96-2.35.64-.66,1.43-.99,2.38-.99h3.51c.08,0,.13-.03.17-.08.04-.06.04-.12,0-.2-.19-.38-.28-.74-.28-1.08,0-.26.06-.55.17-.85.3-.64.79-1.02,1.47-1.13,2.68-.45,5.23-.96,7.65-1.53.08,0,.11-.03.11-.08s-.04-.1-.11-.14c-1.89-.49-3.64-.92-5.27-1.3-.64-.15-1.03-.55-1.16-1.19-.13-.64.07-1.15.59-1.53.04-.04.05-.08.03-.14-.02-.06-.05-.08-.08-.08h-7.87c-.76,0-1.39-.26-1.9-.79-.51-.53-.76-1.17-.76-1.93s.25-1.4.76-1.93c.51-.53,1.14-.79,1.9-.79h16.2c.3,0,.45-.13.45-.4v-.11c0-.94.32-1.74.96-2.38s1.43-.96,2.38-.96h.17c.94,0,1.74.32,2.38.96.64.64.96,1.44.96,2.38v.11c0,.26.15.4.45.4h17.16c.75,0,1.4.26,1.93.79.53.53.79,1.17.79,1.93s-.26,1.4-.79,1.93-1.17.79-1.93.79h-6.51s-.06.02-.06.06c.26.15.41.37.42.65.02.28-.1.5-.37.65-1.55.91-3.27,1.76-5.15,2.55-.08.04-.11.09-.11.17s.04.11.11.11c1.7.53,3.38,1.08,5.04,1.64.72.23,1.13.72,1.25,1.47.04.11.06.25.06.4,0,.53-.23.98-.68,1.36v.06c-.08.04-.09.08-.06.14.04.06.09.08.17.08h8.61ZM109.83,108.79c0-.26-.15-.4-.45-.4h-8.61c-.3,0-.53.11-.68.34-.42.6-.83,1.17-1.25,1.7-.53.68-1.25,1.06-2.15,1.13h-.28c-.76,0-1.45-.23-2.1-.68-.64-.45-1-1.08-1.08-1.87v-.34c0-.64.23-1.23.68-1.76,1.36-1.62,2.53-3.46,3.51-5.49.38-.83.96-1.45,1.76-1.87.49-.26,1.02-.4,1.59-.4.26,0,.55.04.85.11h.17c.75.19,1.32.62,1.7,1.3.19.38.28.76.28,1.13,0,.3-.08.62-.23.96-.04.08-.03.15.03.23.06.08.12.11.2.11h5.61c.3,0,.45-.15.45-.45v-.06c0-.91.33-1.69.99-2.35s1.44-.99,2.35-.99h.06c.91,0,1.69.33,2.35.99.66.66.99,1.44.99,2.35v.06c0,.3.13.45.4.45h10.93c.75,0,1.4.25,1.93.76.53.51.79,1.14.79,1.9s-.26,1.4-.79,1.93-1.17.79-1.93.79h-10.93c-.26,0-.4.13-.4.4v2.89c0,.26.13.4.4.4h9.29c.72,0,1.33.25,1.84.76s.76,1.13.76,1.87-.25,1.36-.76,1.87-1.12.76-1.84.76h-9.29c-.26,0-.4.13-.4.4v3.57c0,.26.13.4.4.4h13.71c.75,0,1.41.27,1.95.82.55.55.82,1.21.82,1.98s-.27,1.43-.82,1.98c-.55.55-1.2.82-1.95.82h-35.17c-.76,0-1.41-.27-1.95-.82s-.82-1.21-.82-1.98.27-1.43.82-1.98,1.2-.82,1.95-.82h13.88c.3,0,.45-.13.45-.4v-3.57c0-.26-.15-.4-.45-.4h-9.12c-.72,0-1.33-.25-1.84-.76s-.76-1.13-.76-1.87.25-1.36.76-1.87,1.12-.76,1.84-.76h9.12c.3,0,.45-.13.45-.4v-2.89ZM99.57,92.88s-.06,0-.06.03c0,.02.02.03.06.03h17.84s.06-.02.06-.06-.02-.06-.06-.06c-2.42-.83-4.95-1.66-7.59-2.49-.26-.08-.53-.06-.79.06-3.02.91-6.17,1.74-9.46,2.49ZM114.7,83.76s.06-.08.06-.11-.02-.06-.06-.06h-13.14s-.06,0-.06.03c0,.02.02.03.06.03,1.93.49,4.44,1.13,7.53,1.93.26.08.53.08.79,0,1.62-.53,3.23-1.13,4.81-1.81Z" style="fill: #4b4c4e;"/>
        <path d="M149.78,128.39c-.91,0-1.68-.32-2.32-.96s-.96-1.42-.96-2.32v-19.48c0-.91.32-1.69.96-2.35.64-.66,1.43-.99,2.38-.99h15.41c.91,0,1.69.33,2.35.99.66.66.99,1.44.99,2.35v19.14c0,.91-.33,1.69-.99,2.35-.66.66-1.44.99-2.35.99h-1.25c-.64,0-1.19-.23-1.64-.68s-.68-1-.68-1.64c0-.19-.09-.28-.28-.28h-8.04c-.23,0-.34.11-.34.34,0,.68-.25,1.27-.74,1.78-.49.51-1.1.76-1.81.76h-.68ZM161.67,109.36c0-.3-.13-.45-.4-.45h-7.82c-.3,0-.45.15-.45.45v9.12c0,.26.15.4.45.4h7.82c.26,0,.4-.13.4-.4v-9.12ZM185.12,76.51c.94,0,1.74.32,2.38.96.64.64.96,1.44.96,2.38v14.27c0,.94-.32,1.74-.96,2.38s-1.44.96-2.38.96h-27.3c-.91,0-1.69-.32-2.35-.96-.66-.64-.99-1.43-.99-2.38v-14.27c0-.94.33-1.74.99-2.38.66-.64,1.44-.96,2.35-.96h27.3ZM181.05,90.95c.26,0,.4-.15.4-.45v-6.97c0-.3-.13-.45-.4-.45h-19.48c-.26,0-.4.15-.4.45v6.97c0,.3.13.45.4.45h19.48ZM173.51,105.62c0-.91.32-1.69.96-2.35.64-.66,1.43-.99,2.38-.99h16.09c.94,0,1.74.33,2.38.99.64.66.96,1.44.96,2.35v19.2c0,.91-.32,1.69-.96,2.35-.64.66-1.44.99-2.38.99h-1.25c-.64,0-1.2-.23-1.67-.68-.47-.45-.71-1.02-.71-1.7,0-.19-.09-.28-.28-.28h-8.61c-.19,0-.28.11-.28.34,0,.68-.25,1.27-.76,1.78s-1.12.76-1.84.76h-.74c-.91,0-1.68-.32-2.32-.96s-.96-1.42-.96-2.32v-19.48ZM180.14,118.48c0,.26.13.4.4.4h8.38c.26,0,.4-.13.4-.4v-9.12c0-.3-.13-.45-.4-.45h-8.38c-.26,0-.4.15-.4.45v9.12Z" style="fill: #4b4c4e;"/>
        <path d="M261.13,91.49c.62.62.93,1.38.93,2.27s-.31,1.64-.93,2.27-1.37.93-2.24.93h-2.78c-.26,0-.4.15-.4.45v4.36c0,.26.13.4.4.4h2.27c.87,0,1.61.31,2.24.93s.93,1.38.93,2.27-.31,1.64-.93,2.27-1.37.93-2.24.93h-2.27c-.26,0-.4.13-.4.4v11.72c0,1.81-.21,3.2-.62,4.16-.42.96-1.19,1.73-2.32,2.29-1.47.64-3.68,1-6.63,1.08h-.11c-.91,0-1.7-.28-2.38-.85-.76-.6-1.28-1.38-1.59-2.32-.04-.19-.08-.36-.11-.51-.08-.26-.11-.51-.11-.74,0-.49.13-.94.4-1.36.45-.6,1.06-.91,1.81-.91h3.62c.49-.04.82-.11.99-.23s.25-.36.25-.74v-11.61c0-.26-.15-.4-.45-.4h-11.27c-.08,0-.12.04-.14.11-.02.08,0,.13.03.17,1.85,1.89,3.47,3.76,4.87,5.61.38.57.57,1.15.57,1.76,0,.23-.02.45-.06.68-.19.87-.68,1.57-1.47,2.1-.53.3-1.08.45-1.64.45-.23,0-.47-.04-.74-.11-.87-.19-1.55-.66-2.04-1.42-.79-1.17-1.72-2.42-2.78-3.74-.45-.53-.68-1.13-.68-1.81,0-.15.02-.32.06-.51.11-.87.55-1.53,1.3-1.98l1.76-1.08c.08-.04.1-.08.08-.14-.02-.06-.07-.08-.14-.08h-3.85c-.76,0-1.4-.26-1.93-.79-.53-.53-.79-1.17-.79-1.93,0-.08-.04-.14-.11-.2-.08-.06-.15-.08-.23-.08-.49.19-1.23.43-2.21.74-.98.3-1.7.53-2.15.68-.26.08-.4.26-.4.57v17.67c0,.87-.31,1.61-.93,2.24s-1.37.93-2.24.93-1.61-.31-2.24-.93-.93-1.37-.93-2.24v-15.75c0-.11-.04-.21-.11-.28-.08-.08-.17-.09-.28-.06-1.89.57-3.59,1.08-5.1,1.53-.3.08-.6.11-.91.11-.57,0-1.1-.15-1.59-.45-.79-.45-1.3-1.11-1.53-1.98v-.11c-.08-.3-.11-.58-.11-.85,0-.57.17-1.13.51-1.7.49-.75,1.17-1.25,2.04-1.47,1.85-.45,4.08-1.04,6.68-1.76.26-.08.4-.25.4-.51v-9.86c0-.26-.15-.4-.45-.4h-3c-.3,0-.47.13-.51.4-.34,1.47-.72,2.89-1.13,4.25-.19.68-.64,1.11-1.36,1.3-.23.08-.45.11-.68.11-.45,0-.87-.11-1.25-.34-.72-.45-1.23-1.08-1.53-1.87-.15-.45-.23-.89-.23-1.3,0-.38.06-.74.17-1.08.91-3.25,1.62-7.59,2.15-13.03.04-.79.38-1.42,1.02-1.87.49-.42,1.02-.62,1.59-.62.15,0,.32.02.51.06.79.15,1.43.55,1.93,1.19.42.53.62,1.11.62,1.76v.4c-.15,1.25-.32,2.47-.51,3.68-.04.26.08.4.34.4h1.87c.3,0,.45-.13.45-.4v-7.25c0-.91.31-1.66.93-2.27.62-.6,1.37-.91,2.24-.91s1.61.3,2.24.91c.62.6.93,1.36.93,2.27v7.25c0,.26.13.4.4.4h1.08c.91,0,1.69.33,2.35.99.66.66.99,1.44.99,2.35v1.7c0,.26.13.4.4.4h11.89c.3,0,.45-.13.45-.4v-4.08c0-.3-.15-.45-.45-.45h-6.68c-.87,0-1.61-.3-2.21-.91-.6-.6-.91-1.34-.91-2.21s.3-1.6.91-2.21,1.34-.91,2.21-.91h6.68c.3,0,.45-.15.45-.45v-1.36c0-.94.32-1.74.96-2.38s1.43-.96,2.38-.96h.17c.91,0,1.69.32,2.35.96.66.64.99,1.44.99,2.38v1.36c0,.3.13.45.4.45h7.14c.87,0,1.6.3,2.21.91.6.6.91,1.34.91,2.21s-.3,1.61-.91,2.21-1.34.91-2.21.91h-7.14c-.26,0-.4.15-.4.45v4.08c0,.26.13.4.4.4h9.57c.87,0,1.61.31,2.24.93ZM248.47,102.17c.3,0,.45-.13.45-.4v-4.36c0-.3-.15-.45-.45-.45h-16.82c-.91,0-1.69-.32-2.35-.96-.66-.64-.99-1.43-.99-2.38v-1.53c0-.26-.13-.4-.4-.4h-3c-.26,0-.4.13-.4.4v8.04c0,.11.04.2.11.25.08.06.17.08.28.08l2.21-.68c.23-.04.47-.06.74-.06.45,0,.89.13,1.3.4.6.38.96.94,1.08,1.7.04.23.17.34.4.34h17.84Z" style="fill: #4b4c4e;"/>
        <path d="M292.9,120.12h19.2c2.64,0,4.38-.45,5.21-1.36.49-.53.91-1.49,1.25-2.89.19-.79.64-1.36,1.36-1.7.42-.23.83-.34,1.25-.34.3,0,.62.06.96.17.19.08.36.15.51.23.91.3,1.62.85,2.15,1.64.38.53.57,1.1.57,1.7,0,.26-.04.53-.11.79-.68,2.76-1.66,4.72-2.95,5.89-1.74,1.55-4.95,2.32-9.63,2.32h-19.71c-5.59,0-9.37-.73-11.33-2.18-1.96-1.45-2.95-4.29-2.95-8.52v-21.58c0-.08-.03-.12-.08-.14-.06-.02-.12,0-.2.03-.49.42-1.04.62-1.64.62-.11,0-.25-.02-.4-.06-.76-.11-1.4-.45-1.93-1.02-.23-.26-.45-.51-.68-.74-.57-.57-.85-1.25-.85-2.04,0-.87.34-1.55,1.02-2.04,2.61-2,4.96-4.21,7.08-6.63,2-2.23,3.72-4.47,5.15-6.74.53-.83,1.25-1.47,2.15-1.93.6-.3,1.25-.45,1.93-.45.26,0,.55.04.85.11l1.36.23c.72.15,1.21.55,1.47,1.19.11.26.17.53.17.79,0,.38-.09.72-.28,1.02-.08.08-.09.15-.06.23.04.08.11.11.23.11h10.65c.11,0,.23-.02.34-.06.26-.08.53-.11.79-.11.49,0,.98.15,1.47.45l1.25.85c.64.45,1.08,1.06,1.3,1.81.04.23.06.47.06.74,0,.49-.13.96-.4,1.42-1.1,1.96-2.19,3.76-3.29,5.38-.04.08-.04.15,0,.23.04.08.11.11.23.11h11.33c.91,0,1.69.33,2.35.99.66.66.99,1.44.99,2.35v15.58c0,.91-.33,1.69-.99,2.35s-1.44.99-2.35.99h-1.7c-.57,0-1.05-.2-1.44-.59s-.59-.88-.59-1.44c0-.19-.09-.28-.28-.28h-27.58c-.3,0-.45.15-.45.45v7.76c0,1.85.42,3.03,1.27,3.54s2.84.76,5.98.76ZM300.83,83.19c.04-.11.04-.21,0-.28-.04-.08-.11-.11-.23-.11h-10.76c-.26,0-.49.11-.68.34-1.28,1.62-2.47,3.02-3.57,4.19-.04.08-.05.15-.03.23.02.08.08.11.2.11h11.67c.3,0,.53-.11.68-.34,1.02-1.4,1.93-2.78,2.72-4.13ZM286.1,93.84c-.3,0-.45.13-.45.4v6.8c0,.26.15.4.45.4h9.4c.3,0,.45-.13.45-.4v-6.8c0-.26-.15-.4-.45-.4h-9.4ZM313.52,101.43c.3,0,.45-.13.45-.4v-6.8c0-.26-.15-.4-.45-.4h-10.31c-.26,0-.4.13-.4.4v6.8c0,.26.13.4.4.4h10.31Z" style="fill: #4b4c4e;"/>
        <path d="M343.11,124.14c-1.51,0-2.77-.53-3.77-1.59-1-1.06-1.5-2.38-1.5-3.96s.5-2.91,1.5-3.96c1-1.06,2.26-1.59,3.77-1.59s2.78.53,3.79,1.59c1.02,1.06,1.53,2.38,1.53,3.96s-.51,2.91-1.53,3.96-2.29,1.59-3.79,1.59Z" style="fill: #4b4c4e;"/>
        <path d="M367.71,124.14c-1.51,0-2.77-.53-3.77-1.59s-1.5-2.38-1.5-3.96.5-2.91,1.5-3.96c1-1.06,2.26-1.59,3.77-1.59s2.78.53,3.79,1.59c1.02,1.06,1.53,2.38,1.53,3.96s-.51,2.91-1.53,3.96-2.29,1.59-3.79,1.59Z" style="fill: #4b4c4e;"/>
        <path d="M392.32,124.14c-1.51,0-2.77-.53-3.77-1.59-1-1.06-1.5-2.38-1.5-3.96s.5-2.91,1.5-3.96c1-1.06,2.26-1.59,3.77-1.59s2.78.53,3.79,1.59c1.02,1.06,1.53,2.38,1.53,3.96s-.51,2.91-1.53,3.96-2.29,1.59-3.79,1.59Z" style="fill: #4b4c4e;"/>
      </g>
    </g>
  </g>
</svg>