<?xml version="1.0" encoding="UTF-8"?>
<svg id="_圖層_2" data-name="圖層 2" xmlns="http://www.w3.org/2000/svg" width="1274.41" height="429.04" viewBox="0 0 1274.41 429.04">
  <g id="_設計" data-name="設計">
    <g>
      <g>
        <path d="M0,87.08l24.73-2.4c1.49,8.3,4.51,14.4,9.06,18.29,4.55,3.89,10.69,5.84,18.42,5.84,8.19,0,14.35-1.73,18.51-5.2,4.15-3.46,6.23-7.51,6.23-12.15,0-2.98-.87-5.51-2.62-7.6-1.75-2.09-4.8-3.91-9.15-5.45-2.98-1.03-9.76-2.86-20.35-5.5-13.63-3.38-23.19-7.53-28.68-12.45-7.73-6.93-11.59-15.37-11.59-25.33,0-6.41,1.82-12.41,5.45-17.99,3.63-5.58,8.87-9.83,15.71-12.75C32.56,1.46,40.82,0,50.49,0c15.8,0,27.69,3.46,35.68,10.39,7.99,6.93,12.18,16.17,12.58,27.74l-25.42,1.12c-1.09-6.47-3.42-11.12-7-13.95-3.58-2.83-8.95-4.25-16.1-4.25s-13.17,1.52-17.35,4.55c-2.69,1.95-4.04,4.55-4.04,7.81,0,2.98,1.26,5.53,3.78,7.64,3.21,2.69,10.99,5.5,23.36,8.42,12.37,2.92,21.51,5.94,27.44,9.06,5.92,3.12,10.56,7.39,13.91,12.79,3.35,5.41,5.02,12.09,5.02,20.05,0,7.21-2,13.97-6.01,20.27-4.01,6.3-9.68,10.98-17,14.04-7.33,3.06-16.46,4.59-27.39,4.59-15.92,0-28.14-3.68-36.67-11.03C6.75,111.88,1.66,101.16,0,87.08Z" style="fill: #dfceb4;"/>
        <path d="M160.87,128.04V23.44h-37.35V2.15h100.04v21.3h-37.27v104.59h-25.42Z" style="fill: #dfceb4;"/>
        <path d="M248.76,128.04V2.15h93.34v21.3h-67.92v27.91h63.2v21.21h-63.2v34.26h70.33v21.21h-95.75Z" style="fill: #dfceb4;"/>
        <path d="M374.85,128.04V2.15h93.34v21.3h-67.92v27.91h63.2v21.21h-63.2v34.26h70.33v21.21h-95.75Z" style="fill: #dfceb4;"/>
        <path d="M501.64,128.04V3.18h25.42v103.65h63.2v21.21h-88.62Z" style="fill: #dfceb4;"/>
        <path d="M610.73,87.08l24.73-2.4c1.49,8.3,4.51,14.4,9.06,18.29,4.55,3.89,10.69,5.84,18.42,5.84,8.19,0,14.35-1.73,18.51-5.2,4.15-3.46,6.23-7.51,6.23-12.15,0-2.98-.87-5.51-2.62-7.6-1.75-2.09-4.8-3.91-9.15-5.45-2.98-1.03-9.76-2.86-20.35-5.5-13.63-3.38-23.19-7.53-28.68-12.45-7.73-6.93-11.59-15.37-11.59-25.33,0-6.41,1.82-12.41,5.45-17.99,3.63-5.58,8.87-9.83,15.71-12.75,6.84-2.92,15.1-4.38,24.77-4.38,15.8,0,27.69,3.46,35.68,10.39,7.99,6.93,12.18,16.17,12.58,27.74l-25.42,1.12c-1.09-6.47-3.42-11.12-7-13.95-3.58-2.83-8.95-4.25-16.1-4.25s-13.17,1.52-17.35,4.55c-2.69,1.95-4.04,4.55-4.04,7.81,0,2.98,1.26,5.53,3.78,7.64,3.21,2.69,10.99,5.5,23.36,8.42,12.37,2.92,21.51,5.94,27.44,9.06,5.92,3.12,10.56,7.39,13.91,12.79,3.35,5.41,5.02,12.09,5.02,20.05,0,7.21-2,13.97-6.01,20.27-4.01,6.3-9.68,10.98-17,14.04-7.33,3.06-16.46,4.59-27.39,4.59-15.92,0-28.14-3.68-36.67-11.03-8.53-7.36-13.62-18.08-15.29-32.16Z" style="fill: #dfceb4;"/>
        <path d="M771.6,128.04V23.44h-37.35V2.15h100.04v21.3h-37.27v104.59h-25.42Z" style="fill: #dfceb4;"/>
        <path d="M859.57,128.04V2.15h53.5c13.45,0,23.23,1.13,29.33,3.39,6.1,2.26,10.98,6.28,14.64,12.07,3.66,5.78,5.5,12.4,5.5,19.84,0,9.45-2.78,17.25-8.33,23.4-5.55,6.15-13.85,10.03-24.9,11.64,5.5,3.21,10.03,6.73,13.61,10.56,3.58,3.84,8.4,10.65,14.47,20.44l15.37,24.56h-30.4l-18.38-27.39c-6.53-9.79-10.99-15.96-13.4-18.51-2.4-2.55-4.95-4.29-7.64-5.24-2.69-.94-6.96-1.42-12.79-1.42h-5.15v52.55h-25.42ZM884.99,55.39h18.81c12.19,0,19.81-.52,22.84-1.55,3.03-1.03,5.41-2.8,7.13-5.32,1.72-2.52,2.58-5.67,2.58-9.45,0-4.24-1.13-7.66-3.39-10.26-2.26-2.6-5.45-4.25-9.58-4.94-2.06-.29-8.24-.43-18.55-.43h-19.84v31.94Z" style="fill: #dfceb4;"/>
        <path d="M1108.81,128.04h-27.65l-10.99-28.6h-50.32l-10.39,28.6h-26.96l49.03-125.89h26.88l50.41,125.89ZM1062.01,78.23l-17.35-46.72-17,46.72h34.35Z" style="fill: #dfceb4;"/>
        <path d="M1139.24,128.04l-30.05-125.89h26.02l18.98,86.47,23.01-86.47h30.23l22.07,87.93,19.32-87.93h25.59l-30.57,125.89h-26.96l-25.08-94.12-24.99,94.12h-27.57Z" style="fill: #dfceb4;"/>
        <path d="M219.03,303.09v-104.59h-37.35v-21.3h100.04v21.3h-37.27v104.59h-25.42Z" style="fill: #dfceb4;"/>
        <path d="M306.74,177.21h25.42v68.18c0,10.82.31,17.83.94,21.04,1.09,5.15,3.68,9.29,7.77,12.41,4.09,3.12,9.69,4.68,16.79,4.68s12.65-1.47,16.32-4.42c3.66-2.95,5.87-6.57,6.61-10.86.74-4.29,1.12-11.42,1.12-21.38v-69.64h25.42v66.12c0,15.11-.69,25.79-2.06,32.03-1.37,6.24-3.91,11.51-7.6,15.8-3.69,4.29-8.63,7.72-14.81,10.26-6.18,2.55-14.25,3.82-24.22,3.82-12.02,0-21.14-1.39-27.35-4.17-6.21-2.78-11.12-6.38-14.73-10.82-3.61-4.44-5.98-9.09-7.13-13.95-1.66-7.21-2.49-17.86-2.49-31.94v-67.15Z" style="fill: #dfceb4;"/>
        <path d="M442.37,303.09v-125.89h38.04l22.84,85.87,22.58-85.87h38.13v125.89h-23.62v-99.1l-24.99,99.1h-24.47l-24.9-99.1v99.1h-23.62Z" style="fill: #dfceb4;"/>
        <path d="M598.09,177.21h50.32c9.96,0,17.39.42,22.28,1.25,4.89.83,9.27,2.56,13.14,5.2,3.86,2.63,7.08,6.14,9.66,10.52,2.58,4.38,3.86,9.29,3.86,14.73,0,5.9-1.59,11.31-4.77,16.23-3.18,4.92-7.49,8.62-12.92,11.08,7.67,2.23,13.57,6.04,17.69,11.42,4.12,5.38,6.18,11.71,6.18,18.98,0,5.73-1.33,11.29-3.99,16.7-2.66,5.41-6.3,9.73-10.91,12.97-4.61,3.23-10.29,5.22-17.04,5.97-4.24.46-14.46.74-30.66.86h-42.85v-125.89ZM623.51,198.16v29.11h16.66c9.9,0,16.06-.14,18.46-.43,4.35-.52,7.77-2.02,10.26-4.51s3.74-5.77,3.74-9.83-1.07-7.05-3.22-9.49c-2.15-2.43-5.34-3.91-9.57-4.42-2.52-.29-9.76-.43-21.73-.43h-14.6ZM623.51,248.22v33.66h23.53c9.16,0,14.97-.26,17.43-.77,3.78-.69,6.86-2.36,9.23-5.02,2.38-2.66,3.56-6.23,3.56-10.69,0-3.78-.92-6.98-2.75-9.62-1.83-2.63-4.48-4.55-7.94-5.75-3.46-1.2-10.98-1.8-22.54-1.8h-20.52Z" style="fill: #dfceb4;"/>
        <path d="M734.49,303.09v-124.86h25.42v103.65h63.2v21.21h-88.62Z" style="fill: #dfceb4;"/>
        <path d="M850.02,303.09v-125.89h93.34v21.3h-67.92v27.91h63.2v21.21h-63.2v34.26h70.33v21.21h-95.75Z" style="fill: #dfceb4;"/>
        <path d="M976.2,303.09v-125.89h53.5c13.45,0,23.23,1.13,29.33,3.39,6.1,2.26,10.98,6.28,14.64,12.07,3.66,5.78,5.5,12.4,5.5,19.84,0,9.45-2.78,17.25-8.33,23.4-5.55,6.15-13.85,10.03-24.9,11.64,5.5,3.21,10.03,6.73,13.61,10.56,3.58,3.84,8.4,10.65,14.47,20.44l15.37,24.56h-30.4l-18.38-27.39c-6.53-9.79-10.99-15.96-13.4-18.51-2.4-2.55-4.95-4.29-7.64-5.24-2.69-.94-6.96-1.42-12.79-1.42h-5.15v52.55h-25.42ZM1001.62,230.45h18.81c12.19,0,19.81-.52,22.84-1.55,3.03-1.03,5.41-2.8,7.13-5.32,1.72-2.52,2.58-5.67,2.58-9.45,0-4.24-1.13-7.66-3.39-10.26-2.26-2.6-5.45-4.25-9.58-4.94-2.06-.29-8.24-.43-18.55-.43h-19.84v31.94Z" style="fill: #dfceb4;"/>
      </g>
      <g>
        <path d="M319.4,385.41c0,.15.05.26.15.31.1.05.18.03.23-.08l1.91-1.61c1.02-.82,2.19-1.25,3.52-1.3h.23c1.22,0,2.35.36,3.37,1.07,8.52,6.28,14.95,11.4,19.29,15.38.82.82,1.22,1.81,1.22,2.99,0,1.28-.49,2.35-1.45,3.21l-1.15,1.15c-.87.77-1.86,1.15-2.99,1.15-.1,0-.2-.02-.31-.08-1.22-.05-2.27-.51-3.14-1.38-4.95-5-11.79-10.87-20.51-17.6-.05-.05-.13-.05-.23,0-.1.05-.15.13-.15.23v35.52c0,1.22-.45,2.28-1.34,3.18-.89.89-1.95,1.34-3.18,1.34h-1.22c-1.22,0-2.28-.45-3.18-1.34-.89-.89-1.34-1.95-1.34-3.18v-33.14c0-.1-.04-.18-.11-.23-.08-.05-.17-.02-.27.08-6.43,6.84-13.29,12.4-20.59,16.69-.72.41-1.48.61-2.3.61-.36,0-.74-.05-1.15-.15-1.22-.31-2.22-1-2.99-2.07-.36-.41-.69-.82-1-1.22-.51-.71-.77-1.45-.77-2.22,0-.25.03-.54.08-.84.2-1.07.79-1.89,1.76-2.45,5.97-3.32,11.52-7.48,16.65-12.48,5.13-5,9.4-10.26,12.82-15.77.1-.1.11-.22.04-.34-.08-.13-.17-.19-.27-.19h-26.18c-1.28,0-2.35-.43-3.21-1.3-.87-.87-1.3-1.94-1.3-3.21v-.54c0-1.22.43-2.28,1.3-3.18.87-.89,1.94-1.34,3.21-1.34h58.86c1.28,0,2.35.45,3.21,1.34.87.89,1.3,1.95,1.3,3.18v.54c0,1.28-.43,2.35-1.3,3.21-.87.87-1.94,1.3-3.21,1.3h-19.29c-.36,0-.64.18-.84.54-1.07,1.94-2.37,4.01-3.9,6.2-.2.31-.31.66-.31,1.07v6.97Z" style="fill: #dfceb4;"/>
        <path d="M424.86,403.09c0,.36.2.54.61.54h9.49c.36,0,.54-.18.54-.54v-1.61c0-.41-.18-.61-.54-.61h-2.99c-1.28,0-2.35-.43-3.21-1.3-.87-.87-1.3-1.94-1.3-3.21v-6.51c0-.66.23-1.22.69-1.68.46-.46,1.01-.69,1.65-.69s1.19.23,1.65.69c.46.46.69,1.02.69,1.68v5.59c0,.41.2.61.61.61h2.22c.36,0,.54-.2.54-.61v-5.51c0-.97.34-1.8,1.03-2.49s1.52-1.03,2.49-1.03,1.79.34,2.45,1.03,1,1.52,1,2.49v35.67c0,.92-.33,1.72-1,2.41s-1.48,1.03-2.45,1.03-1.8-.34-2.49-1.03-1.03-1.49-1.03-2.41v-7.42c0-.36-.18-.54-.54-.54h-2.22c-.41,0-.61.18-.61.54v7.73c0,.66-.23,1.22-.69,1.68-.46.46-1.01.69-1.65.69s-1.19-.23-1.65-.69c-.46-.46-.69-1.02-.69-1.68v-8.5c0-1.22.43-2.28,1.3-3.18.87-.89,1.94-1.34,3.21-1.34h2.99c.36,0,.54-.18.54-.54v-1.61c0-.41-.18-.61-.54-.61h-9.49c-.41,0-.61.2-.61.61v15.23c0,.82-.31,1.53-.92,2.14s-1.34.92-2.18.92-1.57-.31-2.18-.92-.92-1.33-.92-2.14v-15.23c0-.41-.18-.61-.54-.61h-9.49c-.36,0-.56.2-.61.61,0,.15-.01.41-.04.77-.03.36-.06.64-.12.84,0,.36.18.54.54.54h3.14c1.27,0,2.35.45,3.21,1.34.87.89,1.3,1.95,1.3,3.18v8.57c0,.61-.22,1.15-.65,1.61-.43.46-.97.69-1.61.69s-1.17-.23-1.61-.69c-.43-.46-.65-1-.65-1.61v-7.81c0-.36-.21-.54-.61-.54h-3.06c-.36,0-.59.18-.69.54-.56,2.96-1.43,5.56-2.6,7.81-.41.87-1.12,1.38-2.14,1.53h-.46c-.82,0-1.56-.26-2.22-.77-.46-.36-.92-.7-1.38-1.03-.46-.33-.74-.77-.84-1.3-.1-.54,0-1.06.31-1.57.05-.05.05-.09,0-.11-.05-.03-.1-.04-.15-.04-1.22.25-4.24.84-9.03,1.76-4.8.92-8.37,1.61-10.72,2.07-.31.05-.61.08-.92.08-.82,0-1.58-.23-2.3-.69-.97-.61-1.58-1.48-1.84-2.6-.05-.31-.08-.61-.08-.92,0-.77.2-1.48.61-2.14.66-.92,1.53-1.45,2.6-1.61,2.25-.36,4.24-.69,5.97-.99.36-.05.54-.28.54-.69v-20.05c0-.41-.18-.61-.54-.61h-4.98c-1.02,0-1.91-.37-2.68-1.11-.77-.74-1.15-1.65-1.15-2.72s.38-1.98,1.15-2.72c.76-.74,1.66-1.11,2.68-1.11h4.98c.36,0,.54-.2.54-.61v-4.52c0-.36-.18-.54-.54-.54h-3.83c-.56,0-1.06-.22-1.49-.65-.43-.43-.65-.93-.65-1.49v-.23h-.08c-.26.26-.49.23-.69-.08-.61-.87-1.35-1.76-2.22-2.68-.76-.82-1.15-1.76-1.15-2.83s.36-1.91,1.07-2.68c3.57-3.83,6.51-8.24,8.8-13.24.46-.97,1.11-1.73,1.95-2.3.84-.56,1.77-.84,2.79-.84,2.35,0,4.29.79,5.82,2.37,3.78,3.73,6.63,7.12,8.57,10.18.2.36.48.54.84.54h15.46c.41,0,.61-.2.61-.61v-1.76c0-.36-.21-.54-.61-.54h-10.95c-.87,0-1.61-.31-2.22-.92-.61-.61-.92-1.35-.92-2.22s.31-1.61.92-2.22,1.35-.92,2.22-.92h11.1c.31,0,.46-.15.46-.46,0-.97.34-1.8,1.03-2.49.69-.69,1.52-1.03,2.49-1.03h.77c.97,0,1.8.34,2.49,1.03.69.69,1.03,1.52,1.03,2.49,0,.31.15.46.46.46h10.41c1.22,0,2.28.43,3.18,1.3.89.87,1.34,1.94,1.34,3.21v4.21c0,.31.13.46.38.46h.15c.87,0,1.61.31,2.22.92s.92,1.35.92,2.22-.31,1.61-.92,2.22-1.35.92-2.22.92h-.15c-.26,0-.38.13-.38.38v4.29c0,1.28-.45,2.35-1.34,3.21-.89.87-1.95,1.3-3.18,1.3h-11.02c-.41,0-.61.2-.61.61v17.99ZM374.5,403.78c-.05-.2-.08-.43-.08-.69,0-.51.13-1,.38-1.45.41-.66,1-1.07,1.76-1.23.25-.05.48-.08.69-.08.51,0,1,.13,1.45.38.66.36,1.1.92,1.3,1.68.61,2.6,1.1,5.26,1.45,7.96v.46c0,.66-.18,1.28-.54,1.84-.51.72-1.2,1.17-2.07,1.38-.2.05-.41.08-.61.08-.46,0-.92-.15-1.38-.46-.61-.46-.94-1.07-1-1.84-.26-2.4-.71-5.08-1.38-8.04ZM381.08,375c-.05.1-.05.2,0,.31.05.1.13.15.23.15h13.32c.15,0,.27-.06.34-.19.08-.13.06-.24-.04-.34-1.89-3.37-4.08-6.58-6.58-9.64-.26-.31-.49-.28-.69.08-1.94,3.42-4.13,6.63-6.58,9.64ZM408.18,403.09c0,.36.18.54.54.54h9.41c.36,0,.54-.18.54-.54v-17.99c0-.41-.18-.61-.54-.61h-11.94c-.87,0-1.61-.31-2.22-.92s-.92-1.34-.92-2.18.31-1.57.92-2.18,1.35-.92,2.22-.92h11.02c.41,0,.61-.2.61-.61v-1.84c0-.36-.21-.54-.61-.54h-13.62c-1.02,0-1.9-.37-2.64-1.11-.74-.74-1.11-1.62-1.11-2.64,0-.1-.04-.17-.12-.19-.08-.02-.14-.01-.19.04l-3.37,3.9c0,.05.02.1.08.15.31,0,.57.1.8.31.23.2.34.46.34.77v2.68c0,1.02-.37,1.9-1.11,2.64s-1.65,1.11-2.72,1.11h-2.99c-.41,0-.61.18-.61.54v4.52c0,.41.2.61.61.61h3.75c1.02,0,1.91.37,2.68,1.11.76.74,1.15,1.65,1.15,2.72s-.38,1.98-1.15,2.72c-.77.74-1.66,1.11-2.68,1.11h-3.75c-.41,0-.61.2-.61.61v18.83c0,.36.2.51.61.46.82-.15,2.07-.38,3.75-.69.25-.05.54-.08.84-.08.87,0,1.66.28,2.37.84.97.72,1.5,1.66,1.61,2.83l.08.31c0,.05.02.09.08.11.05.03.1-.01.15-.11,1.33-3.47,1.99-8.39,1.99-14.77v-14.85c0-.92.33-1.71,1-2.37.66-.66,1.45-1,2.37-1s1.71.33,2.37,1c.66.66,1,1.45,1,2.37v5.82c0,.36.18.54.54.54h2.14c.41,0,.61-.18.61-.54v-5.66c0-.66.23-1.22.69-1.68.46-.46,1.01-.69,1.65-.69s1.17.23,1.61.69c.43.46.65,1.02.65,1.68v6.43c0,1.28-.43,2.35-1.3,3.21s-1.94,1.3-3.21,1.3h-2.83c-.36,0-.54.2-.54.61v1.61ZM396.16,410.37c-.21.71-.63,1.25-1.26,1.61-.64.36-1.31.46-2.03.31-.71-.15-1.25-.55-1.61-1.19-.36-.64-.46-1.31-.31-2.03.56-2.45,1.04-4.85,1.45-7.19.15-.82.56-1.44,1.22-1.88.66-.43,1.38-.55,2.14-.34.76.15,1.36.57,1.8,1.26.43.69.55,1.44.34,2.26-.87,3.67-1.45,6.07-1.76,7.19ZM426.24,366.12c-.41,0-.61.18-.61.54v1.76c0,.41.2.61.61.61h6.2c.41,0,.61-.2.61-.61v-1.76c0-.36-.21-.54-.61-.54h-6.2ZM432.44,378.29c.41,0,.61-.2.61-.61v-1.84c0-.36-.21-.54-.61-.54h-6.2c-.41,0-.61.18-.61.54v1.84c0,.41.2.61.61.61h6.2Z" style="fill: #dfceb4;"/>
        <path d="M532.62,358.62c1.22,0,2.28.43,3.18,1.3.89.87,1.34,1.94,1.34,3.21v56.33c0,2.19-.26,3.9-.76,5.13-.51,1.23-1.38,2.19-2.6,2.91-1.68.87-4.34,1.35-7.96,1.45h-.23c-1.12,0-2.12-.36-2.99-1.07-.97-.82-1.66-1.81-2.07-2.99-.1-.36-.15-.69-.15-.99,0-.61.2-1.17.61-1.68.56-.82,1.3-1.22,2.22-1.22h4.59c.61-.05,1.02-.19,1.22-.42.2-.23.31-.62.31-1.19v-52.05c0-.41-.18-.61-.54-.61h-24.11c-.36,0-.54.2-.54.61v57.86c0,1.07-.38,1.98-1.15,2.72-.77.74-1.67,1.11-2.72,1.11s-1.94-.37-2.68-1.11-1.11-1.65-1.11-2.72v-54.11c0-.1-.04-.17-.12-.19-.08-.03-.14-.01-.19.04l-3.52,4.29v.08c.15,0,.23.05.23.15v3.67c0,1.07-.37,1.98-1.11,2.72s-1.65,1.11-2.72,1.11h-3.14c-.36,0-.54.18-.54.54v4.67c0,.41.18.61.54.61h4.13c1.07,0,1.99.38,2.75,1.15.77.77,1.15,1.7,1.15,2.79s-.38,2.03-1.15,2.79c-.76.77-1.68,1.15-2.75,1.15h-4.13c-.36,0-.54.2-.54.61v18.14c0,.36.18.51.54.46.82-.15,2.6-.48,5.36-1,.25-.05.48-.08.69-.08.77,0,1.45.23,2.07.69.82.66,1.28,1.51,1.38,2.53v.38c0,.92-.28,1.79-.84,2.6-.66.87-1.53,1.4-2.6,1.61-5.46,1.17-11.97,2.47-19.52,3.9-.31.05-.61.08-.92.08-.82,0-1.58-.23-2.3-.69-1.02-.66-1.66-1.56-1.91-2.68-.05-.31-.08-.61-.08-.92,0-.77.23-1.48.69-2.14.61-.97,1.48-1.56,2.6-1.76,1.68-.25,3.8-.59,6.35-1,.36-.1.54-.33.54-.69v-19.44c0-.41-.18-.61-.54-.61h-5.43c-1.07,0-2-.38-2.79-1.15-.79-.77-1.19-1.7-1.19-2.79s.39-2.03,1.19-2.79c.79-.77,1.72-1.15,2.79-1.15h5.43c.36,0,.54-.2.54-.61v-4.67c0-.36-.18-.54-.54-.54h-3.9c-.66,0-1.22-.23-1.68-.69-.46-.46-.69-1.02-.69-1.68v-.15c0-.05-.03-.08-.08-.08-.2.2-.45.29-.73.27-.28-.03-.5-.14-.65-.34-.61-.77-1.28-1.56-1.99-2.37-.77-.82-1.15-1.79-1.15-2.91,0-1.02.38-1.94,1.15-2.76,3.57-3.72,6.56-8.01,8.96-12.86.46-1.07,1.17-1.91,2.14-2.53.97-.61,2.01-.92,3.14-.92,2.55,0,4.72.84,6.51,2.53,3.37,3.11,6.12,6.05,8.27,8.8.05.1.12.14.19.11.08-.02.12-.09.12-.19v-4.06c0-1.27.45-2.35,1.34-3.21.89-.87,1.95-1.3,3.18-1.3h31.61ZM468.55,403.86c-.05-.2-.08-.43-.08-.69,0-.51.13-1,.38-1.45.41-.71,1-1.17,1.76-1.38.25-.05.54-.08.84-.08.51,0,1,.13,1.45.38.71.41,1.17,1,1.38,1.76.66,2.5,1.2,5.05,1.61,7.65.05.2.08.38.08.54,0,.66-.2,1.3-.61,1.91-.51.72-1.2,1.2-2.07,1.45-.26.05-.49.08-.69.08-.51,0-1-.15-1.46-.46-.66-.46-1.05-1.07-1.15-1.84-.31-2.45-.79-5.08-1.46-7.88ZM475.59,374.85c-.05.1-.05.2,0,.31.05.1.13.15.23.15h14.39c.1,0,.19-.06.27-.19.08-.13.09-.24.04-.34-2.25-3.52-4.75-6.76-7.5-9.72-.26-.31-.49-.28-.69.08-1.89,3.32-4.13,6.56-6.74,9.72ZM492.43,410.44c-.2.77-.65,1.34-1.34,1.72-.69.38-1.42.47-2.18.27-.77-.2-1.34-.64-1.72-1.3-.38-.66-.5-1.38-.34-2.14.56-2.35,1.02-4.59,1.38-6.74.15-.87.59-1.56,1.3-2.07.51-.31,1.04-.46,1.61-.46.25,0,.48.03.69.08.87.2,1.53.69,1.99,1.45.31.51.46,1.05.46,1.61,0,.26-.03.54-.08.84-.92,3.62-1.51,5.87-1.76,6.74ZM521.82,414.8c0-.2-.1-.31-.31-.31h-9.64c-.31,0-.46.15-.46.46v1.53c0,.66-.23,1.22-.69,1.68-.46.46-1.02.69-1.68.69s-1.23-.23-1.68-.69c-.46-.46-.69-1.02-.69-1.68v-22.35c0-.61.23-1.15.69-1.61.46-.46,1.02-.69,1.68-.69s1.22.23,1.68.69c.46.46.69.99.69,1.61v12.94c0,.41.18.61.54.61h1.53c.41,0,.61-.2.61-.61v-18.06c0-.36-.21-.54-.61-.54h-4.21c-.97,0-1.79-.34-2.45-1.03-.66-.69-1-1.5-1-2.45s.33-1.75,1-2.41c.66-.66,1.48-1,2.45-1h14.77c.92,0,1.72.33,2.41,1,.69.66,1.03,1.47,1.03,2.41s-.34,1.76-1.03,2.45c-.69.69-1.49,1.03-2.41,1.03h-4.29c-.41,0-.61.18-.61.54v18.06c0,.41.2.61.61.61h1.46c.41,0,.61-.2.61-.61v-12.86c0-.66.23-1.22.69-1.68.46-.46,1.02-.69,1.68-.69s1.22.23,1.68.69c.46.46.69,1.02.69,1.68v20.51c0,.66-.23,1.22-.69,1.68-.46.46-1.02.69-1.68.69s-1.22-.23-1.68-.69c-.46-.46-.69-1-.69-1.61ZM507.13,371.94c-.26-.71-.22-1.38.12-1.99.33-.61.85-1.02,1.57-1.22.77-.2,1.49-.13,2.18.23.69.36,1.16.89,1.42,1.61.77,1.89,1.38,3.83,1.84,5.82.15.82.03,1.57-.38,2.26s-1.02,1.16-1.84,1.42c-.71.2-1.39.1-2.03-.31-.64-.41-1.03-1-1.19-1.76-.41-1.84-.97-3.85-1.68-6.05ZM520.6,370.95c.2-.87.69-1.56,1.45-2.07.51-.31,1.07-.46,1.68-.46.25,0,.51.03.77.08.87.2,1.5.72,1.91,1.53.25.46.38.92.38,1.38,0,.36-.08.71-.23,1.07-1.28,3.47-1.99,5.43-2.14,5.89-.31.71-.8,1.24-1.49,1.57-.69.33-1.42.4-2.18.19-.71-.2-1.25-.64-1.61-1.3-.36-.66-.41-1.35-.15-2.07.61-1.99,1.15-3.93,1.61-5.82Z" style="fill: #dfceb4;"/>
      </g>
      <g>
        <path d="M833.76,395.94c0,1.28-.45,2.35-1.34,3.21-.89.87-1.95,1.3-3.18,1.3h-9.57c-.41,0-.61.2-.61.61v1.53c0,1.12-.41,2.09-1.22,2.91-.82.82-1.8,1.23-2.95,1.23s-2.12-.41-2.91-1.23c-.79-.82-1.19-1.79-1.19-2.91v-41.87c0-1.27.43-2.35,1.3-3.21.87-.87,1.94-1.3,3.21-1.3h13.93c1.22,0,2.28.43,3.18,1.3.89.87,1.34,1.94,1.34,3.21v35.21ZM825.42,365.4c0-.41-.18-.61-.54-.61h-5.21c-.41,0-.61.2-.61.61v25.87c0,.41.2.61.61.61h5.21c.36,0,.54-.2.54-.61v-25.87ZM873.34,372.98c.36-.05.71-.08,1.07-.08.61,0,1.22.1,1.84.31l1.53.54c.81.31,1.45.84,1.91,1.61.36.56.54,1.17.54,1.84,0,.2-.03.43-.08.69-2.14,11.28-5.92,20.54-11.33,27.78-.26.31-.23.59.08.84,2.86,2.35,6.02,4.34,9.49,5.97,1.02.46,1.66,1.22,1.91,2.3.05.31.08.61.08.92,0,.71-.23,1.38-.69,1.99-.26.36-.51.71-.77,1.07-.76,1.07-1.73,1.81-2.91,2.22-.51.15-.99.23-1.45.23-.72,0-1.4-.18-2.07-.54-3.62-1.94-6.97-4.34-10.03-7.19-.31-.25-.59-.25-.84,0-3.17,2.7-6.66,4.98-10.49,6.81-.66.31-1.35.46-2.07.46-.51,0-1.02-.1-1.53-.31-1.22-.36-2.25-1.07-3.06-2.14-.15-.31-.33-.56-.54-.77-.46-.61-.69-1.28-.69-1.99,0-.25.03-.54.08-.84.26-1.02.87-1.73,1.84-2.14,3.78-1.63,7.2-3.67,10.26-6.12.26-.25.28-.54.08-.84-2.91-4.13-5.41-9.03-7.5-14.7-.05-.05-.12-.08-.19-.08s-.14.05-.19.15c-2.5,12.76-7.07,22.32-13.7,28.7-.87.77-1.84,1.15-2.91,1.15h-.38c-1.22-.1-2.3-.61-3.21-1.53-.05-.1-.13-.18-.23-.23-.77-.82-1.15-1.76-1.15-2.83,0-1.22.43-2.24,1.3-3.06,2.35-2.24,4.38-4.92,6.08-8.04,1.71-3.11,3.04-6.25,3.98-9.41.94-3.16,1.7-6.75,2.26-10.75.56-4,.93-7.69,1.11-11.06.18-3.37.27-7.14.27-11.33,0-.36-.21-.54-.61-.54h-1.07c-1.22,0-2.27-.43-3.14-1.3-.87-.87-1.3-1.91-1.3-3.14s.43-2.27,1.3-3.14c.87-.87,1.91-1.3,3.14-1.3h22.27c.1,0,.2-.02.3-.08.61-.1,1.2-.15,1.76-.15.31,0,.61.03.92.08l1.91.15c.92.1,1.66.51,2.22,1.22.46.56.69,1.2.69,1.91,0,.15-.03.31-.08.46-.61,4.75-1.43,9.98-2.45,15.69-.05.41.1.61.46.61h5.59c.15,0,.28-.03.38-.08ZM859.63,362.57c.05-.36-.13-.54-.54-.54h-8.19c-.36,0-.56.18-.61.54,0,1.33-.05,3.27-.15,5.82,0,.41.03.79.08,1.15,2.3,12.25,6.15,22.04,11.56,29.39.2.31.43.31.69,0,3.42-4.75,5.94-10.41,7.58-16.99.05-.15.03-.29-.08-.42-.1-.13-.23-.19-.38-.19h-4.06c-.15,0-.23.08-.23.23-.1.46-.33.83-.69,1.11-.36.28-.77.4-1.22.34l-2.76-.31c-1.12-.1-2.04-.61-2.76-1.53-.56-.71-.84-1.5-.84-2.37,0-.25.03-.51.08-.77.97-5.15,1.81-10.31,2.53-15.46Z" style="fill: #dfceb4;"/>
        <path d="M971.22,354.77c1.02,0,1.89.36,2.6,1.07.71.72,1.07,1.58,1.07,2.6s-.36,1.89-1.07,2.6c-.71.72-1.58,1.07-2.6,1.07h-8.65c-.15,0-.26.05-.31.15-.05.1-.05.2,0,.31.26.31.48.61.69.92.36.56.54,1.15.54,1.76,0,.41-.08.82-.23,1.22-.41,1.07-1.17,1.76-2.3,2.07-.51.15-.99.23-1.45.23-.77,0-1.51-.15-2.22-.46-1.17-.51-2.12-1.33-2.83-2.45-.66-1.07-1.4-2.17-2.22-3.29-.21-.31-.49-.46-.84-.46h-3.45c-.36,0-.66.13-.92.38-1.18,1.48-2.35,2.81-3.52,3.98-.31.26-.46.59-.46.99v3.06c0,.36.2.54.61.54h24.88c1.28,0,2.35.45,3.21,1.34.87.89,1.3,1.95,1.3,3.18v6.51c0,1.28-.43,2.35-1.3,3.21-.87.87-1.94,1.3-3.21,1.3s-2.35-.43-3.21-1.3c-.87-.87-1.3-1.94-1.3-3.21v-3.44c0-.41-.21-.61-.61-.61h-48.76c-.41,0-.61.2-.61.61v3.6c0,1.23-.42,2.26-1.26,3.1s-1.88,1.26-3.1,1.26-2.26-.42-3.1-1.26-1.26-1.88-1.26-3.1v-6.66c0-1.22.43-2.28,1.3-3.18.87-.89,1.94-1.34,3.21-1.34h23.73c.41,0,.61-.18.61-.54v-1.84c0-.87.29-1.59.88-2.18.59-.59,1.31-.88,2.18-.88.05-.1.05-.18,0-.23-.46-.25-.97-.51-1.53-.77-.46-.25-.71-.64-.77-1.15-.05-.51.1-.92.46-1.22.05-.05.06-.09.04-.11-.03-.03-.06-.04-.12-.04h-8.27c-.15,0-.26.05-.3.15-.05.1-.05.2,0,.31.15.26.28.51.38.77.3.51.46,1.05.46,1.61,0,.51-.1.99-.31,1.45-.51,1.02-1.33,1.71-2.45,2.07-.41.1-.84.15-1.3.15-.71,0-1.4-.18-2.07-.54-1.12-.56-1.94-1.4-2.45-2.53-.51-1.02-1.05-2.02-1.61-2.99-.21-.31-.49-.46-.84-.46h-.23c-.36,0-.64.15-.84.46-.97,1.28-1.94,2.5-2.91,3.67-.82.97-1.89,1.51-3.21,1.61-.15.05-.31.08-.46.08-1.12,0-2.14-.33-3.06-1h-.08c-.92-.61-1.43-1.48-1.53-2.6v-.46c0-.92.31-1.71.92-2.37,2.5-2.65,4.62-5.56,6.35-8.73.61-1.17,1.5-2.04,2.68-2.6.77-.36,1.5-.54,2.22-.54.46,0,.92.08,1.38.23l.76.23c.97.26,1.66.82,2.07,1.68.15.41.23.82.23,1.23,0,.46-.1.92-.31,1.38-.05.1-.05.19,0,.27s.13.11.23.11h12.48c1.22,0,2.28.45,3.18,1.34.89.89,1.34,1.95,1.34,3.18v.15c0,.15.05.24.15.27.1.03.18-.01.23-.11,1.94-2.04,3.62-4.31,5.05-6.81.66-1.17,1.58-2.04,2.76-2.6.77-.41,1.56-.61,2.37-.61.41,0,.82.05,1.22.15l.69.15c1.02.26,1.73.84,2.14,1.76.25.46.38.89.38,1.3,0,.51-.13,1-.38,1.45-.05.1-.05.19,0,.27s.15.11.31.11h18.52ZM926.97,398.78c-.41,0-.61.18-.61.54v2.45c0,.41.2.61.61.61h35.21c1.22,0,2.28.43,3.18,1.3.89.87,1.34,1.94,1.34,3.21v11.17c0,1.27-.45,2.35-1.34,3.21-.89.87-1.95,1.3-3.18,1.3h-2.91c-.51,0-.95-.18-1.3-.54-.36-.36-.54-.79-.54-1.3,0-.2-.08-.31-.23-.31h-30.62c-.15,0-.23.1-.23.31,0,.51-.18.94-.54,1.3-.36.36-.79.54-1.3.54h-2.6c-1.22,0-2.29-.43-3.18-1.3-.89-.87-1.34-1.91-1.34-3.14v-32.38c0-1.22.45-2.28,1.34-3.18.89-.89,1.95-1.34,3.18-1.34h34.29c1.23,0,2.28.45,3.18,1.34.89.89,1.34,1.95,1.34,3.18v8.5c0,1.22-.45,2.28-1.34,3.18-.89.89-1.95,1.34-3.18,1.34h-29.24ZM951.47,388.6c0-.36-.21-.54-.61-.54h-23.88c-.41,0-.61.18-.61.54v2.91c0,.41.2.61.61.61h23.88c.41,0,.61-.2.61-.61v-2.91ZM957.44,409.8c0-.41-.21-.61-.61-.61h-29.85c-.41,0-.61.2-.61.61v3.21c0,.36.2.54.61.54h29.85c.41,0,.61-.18.61-.54v-3.21Z" style="fill: #dfceb4;"/>
        <path d="M1051.42,375.89c0,.05.04.1.12.15.08.05.14.05.19,0,.81-.77,1.76-1.15,2.83-1.15h.08c1.07,0,1.99.36,2.76,1.07,4.34,3.88,7.83,7.4,10.48,10.56.71.92,1.07,1.91,1.07,2.98v.46c-.1,1.28-.64,2.37-1.61,3.29l-.15.23c-.77.71-1.63,1.07-2.6,1.07-.1,0-.23-.02-.38-.08-1.17-.1-2.12-.61-2.83-1.53-2.55-3.32-5.74-6.84-9.57-10.56-.05-.1-.13-.13-.23-.08-.1.05-.15.13-.15.23v35.52c0,1.27-.45,2.35-1.34,3.21-.89.87-1.95,1.3-3.18,1.3h-.23c-1.28,0-2.35-.43-3.21-1.3-.87-.87-1.3-1.94-1.3-3.21v-31.92c0-.1-.05-.17-.15-.19-.1-.02-.18.01-.23.11-3.27,3.83-6.84,7.22-10.71,10.18-.82.56-1.69.84-2.6.84-.26,0-.51-.02-.77-.08-1.22-.2-2.25-.82-3.06-1.84-1.18-1.53-2.22-2.78-3.14-3.75h-.23l-.23-.38v-.08c-.05-.05-.08-.1-.08-.15-.61-1.07-1.79-2.83-3.52-5.28-.05-.1-.13-.14-.23-.11-.1.03-.15.09-.15.19v32.38c0,1.22-.43,2.27-1.3,3.14-.87.87-1.91,1.3-3.14,1.3s-2.29-.43-3.18-1.3c-.89-.87-1.34-1.91-1.34-3.14v-25.41c0-.05-.03-.08-.08-.08-.05,0-.08.03-.08.08-1.79,4.9-3.7,9.13-5.74,12.71-.46.72-1.07,1.07-1.84,1.07h-.31c-.97-.1-1.68-.59-2.14-1.45-.1-.2-.21-.43-.31-.69-.56-1.07-.84-2.22-.84-3.44,0-1.48.38-2.86,1.15-4.13,3.93-6.28,6.94-13.57,9.03-21.89.05-.15.03-.29-.08-.42-.1-.13-.21-.19-.31-.19h-4.75c-1.17,0-2.19-.42-3.06-1.26-.87-.84-1.3-1.88-1.3-3.1s.43-2.26,1.3-3.1c.87-.84,1.89-1.26,3.06-1.26h5.74c.36,0,.54-.2.54-.61v-11.02c0-1.22.45-2.27,1.34-3.14.89-.87,1.95-1.3,3.18-1.3s2.27.43,3.14,1.3c.87.87,1.3,1.91,1.3,3.14v11.02c0,.41.2.61.61.61h4.21c1.17,0,2.19.42,3.06,1.26.87.84,1.3,1.88,1.3,3.1s-.44,2.26-1.3,3.1c-.87.84-1.89,1.26-3.06,1.26h-4.29c-.36,0-.54.19-.54.57s.15.68.46.88c1.33,1.22,3.24,3.06,5.74,5.51.92.92,1.43,2.04,1.53,3.37v.54c0,1.12-.31,2.14-.92,3.06l-1.15,1.61c-.05.05-.05.1,0,.15.05.05.1.05.15,0,4.59-2.86,8.73-6.44,12.4-10.75,3.67-4.31,6.71-9.1,9.11-14.35.05-.1.04-.22-.04-.34-.08-.13-.19-.19-.35-.19h-14.31c-1.22,0-2.27-.43-3.14-1.3-.87-.87-1.3-1.91-1.3-3.14s.43-2.26,1.3-3.1c.87-.84,1.91-1.26,3.14-1.26h34.75c1.22,0,2.27.42,3.14,1.26.87.84,1.3,1.88,1.3,3.1s-.43,2.27-1.3,3.14c-.87.87-1.91,1.3-3.14,1.3h-9.03c-.36,0-.61.18-.77.54-.82,2.09-1.81,4.26-2.99,6.51-.15.36-.23.71-.23,1.07v3.6Z" style="fill: #dfceb4;"/>
      </g>
    </g>
  </g>
</svg>