<?xml version="1.0" encoding="UTF-8"?>
<svg id="_圖層_2" data-name="圖層 2" xmlns="http://www.w3.org/2000/svg" width="689.8" height="238.45" viewBox="0 0 689.8 238.45">
  <g id="_設計" data-name="設計">
    <g>
      <g>
        <path d="M1.39,47.04l13.36-1.3c.8,4.48,2.44,7.78,4.89,9.88,2.46,2.1,5.78,3.15,9.95,3.15,4.42,0,7.75-.93,10-2.81,2.24-1.87,3.36-4.06,3.36-6.56,0-1.61-.47-2.98-1.42-4.11-.94-1.13-2.59-2.11-4.94-2.95-1.61-.56-5.27-1.55-10.99-2.97-7.36-1.82-12.52-4.07-15.49-6.73-4.17-3.74-6.26-8.3-6.26-13.68,0-3.46.98-6.7,2.95-9.72,1.96-3.02,4.79-5.31,8.49-6.89S23.44,0,28.67,0c8.54,0,14.96,1.87,19.27,5.61,4.31,3.74,6.58,8.74,6.8,14.98l-13.73.6c-.59-3.49-1.85-6.01-3.78-7.54-1.93-1.53-4.83-2.3-8.7-2.3s-7.11.82-9.37,2.46c-1.45,1.05-2.18,2.46-2.18,4.22,0,1.61.68,2.99,2.04,4.13,1.73,1.45,5.94,2.97,12.62,4.55s11.62,3.21,14.82,4.89c3.2,1.69,5.71,3.99,7.51,6.91,1.81,2.92,2.71,6.53,2.71,10.83,0,3.9-1.08,7.55-3.25,10.95-2.17,3.4-5.23,5.93-9.18,7.58-3.96,1.65-8.89,2.48-14.8,2.48-8.6,0-15.2-1.99-19.81-5.96-4.61-3.97-7.36-9.76-8.26-17.37Z" style="fill: #fff;"/>
        <path d="M88.29,69.16V12.66h-20.18V1.16h54.04v11.5h-20.13v56.5h-13.73Z" style="fill: #fff;"/>
        <path d="M135.77,69.16V1.16h50.42v11.5h-36.69v15.08h34.14v11.46h-34.14v18.51h37.99v11.46h-51.72Z" style="fill: #fff;"/>
        <path d="M203.88,69.16V1.16h50.42v11.5h-36.69v15.08h34.14v11.46h-34.14v18.51h37.99v11.46h-51.72Z" style="fill: #fff;"/>
        <path d="M272.37,69.16V1.72h13.73v55.99h34.14v11.46h-47.87Z" style="fill: #fff;"/>
        <path d="M331.29,47.04l13.36-1.3c.8,4.48,2.44,7.78,4.89,9.88,2.46,2.1,5.78,3.15,9.95,3.15,4.42,0,7.75-.93,10-2.81,2.24-1.87,3.36-4.06,3.36-6.56,0-1.61-.47-2.98-1.42-4.11-.94-1.13-2.59-2.11-4.94-2.95-1.61-.56-5.27-1.55-10.99-2.97-7.36-1.82-12.52-4.07-15.49-6.73-4.17-3.74-6.26-8.3-6.26-13.68,0-3.46.98-6.7,2.95-9.72,1.96-3.02,4.79-5.31,8.49-6.89s8.16-2.37,13.38-2.37c8.54,0,14.96,1.87,19.27,5.61,4.31,3.74,6.58,8.74,6.8,14.98l-13.73.6c-.59-3.49-1.85-6.01-3.78-7.54-1.93-1.53-4.83-2.3-8.7-2.3s-7.11.82-9.37,2.46c-1.45,1.05-2.18,2.46-2.18,4.22,0,1.61.68,2.99,2.04,4.13,1.73,1.45,5.94,2.97,12.62,4.55s11.62,3.21,14.82,4.89c3.2,1.69,5.71,3.99,7.51,6.91,1.81,2.92,2.71,6.53,2.71,10.83,0,3.9-1.08,7.55-3.25,10.95-2.17,3.4-5.23,5.93-9.18,7.58-3.96,1.65-8.89,2.48-14.8,2.48-8.6,0-15.2-1.99-19.81-5.96-4.61-3.97-7.36-9.76-8.26-17.37Z" style="fill: #fff;"/>
        <path d="M418.19,69.16V12.66h-20.18V1.16h54.04v11.5h-20.13v56.5h-13.73Z" style="fill: #fff;"/>
        <path d="M465.71,69.16V1.16h28.9c7.27,0,12.55.61,15.84,1.83,3.29,1.22,5.93,3.39,7.91,6.52,1.98,3.12,2.97,6.7,2.97,10.72,0,5.1-1.5,9.32-4.5,12.64-3,3.33-7.48,5.42-13.45,6.29,2.97,1.73,5.42,3.63,7.35,5.71,1.93,2.07,4.54,5.75,7.82,11.04l8.3,13.27h-16.42l-9.93-14.8c-3.53-5.29-5.94-8.62-7.24-10-1.3-1.38-2.67-2.32-4.13-2.83-1.45-.51-3.76-.77-6.91-.77h-2.78v28.39h-13.73ZM479.44,29.92h10.16c6.59,0,10.7-.28,12.34-.83,1.64-.56,2.92-1.51,3.85-2.88.93-1.36,1.39-3.06,1.39-5.1,0-2.29-.61-4.14-1.83-5.54-1.22-1.41-2.95-2.3-5.17-2.67-1.11-.15-4.45-.23-10.02-.23h-10.72v17.26Z" style="fill: #fff;"/>
        <path d="M600.35,69.16h-14.94l-5.94-15.45h-27.18l-5.61,15.45h-14.57L558.6,1.16h14.52l27.23,68ZM575.07,42.26l-9.37-25.23-9.18,25.23h18.55Z" style="fill: #fff;"/>
        <path d="M616.79,69.16L600.55,1.16h14.06l10.25,46.71,12.43-46.71h16.33l11.92,47.5,10.44-47.5h13.82l-16.51,68h-14.56l-13.54-50.84-13.5,50.84h-14.89Z" style="fill: #fff;"/>
        <path d="M20.18,169.16v-56.5H0v-11.5h54.04v11.5h-20.13v56.5h-13.73Z" style="fill: #fff;"/>
        <path d="M67.56,101.16h13.73v36.83c0,5.84.17,9.63.51,11.37.59,2.78,1.99,5.02,4.2,6.7,2.21,1.69,5.23,2.53,9.07,2.53s6.83-.8,8.81-2.39c1.98-1.59,3.17-3.55,3.57-5.87.4-2.32.6-6.17.6-11.55v-37.62h13.73v35.72c0,8.16-.37,13.93-1.11,17.3-.74,3.37-2.11,6.22-4.11,8.54-1.99,2.32-4.66,4.17-8,5.54s-7.7,2.06-13.08,2.06c-6.49,0-11.42-.75-14.77-2.25-3.36-1.5-6.01-3.45-7.96-5.84-1.95-2.4-3.23-4.91-3.85-7.54-.9-3.9-1.35-9.65-1.35-17.26v-36.27Z" style="fill: #fff;"/>
        <path d="M140.82,169.16v-68h20.55l12.34,46.39,12.2-46.39h20.6v68h-12.76v-53.53l-13.5,53.53h-13.22l-13.45-53.53v53.53h-12.76Z" style="fill: #fff;"/>
        <path d="M224.94,101.16h27.18c5.38,0,9.39.22,12.04.67,2.64.45,5.01,1.38,7.1,2.81,2.09,1.42,3.83,3.32,5.22,5.68,1.39,2.37,2.09,5.02,2.09,7.96,0,3.19-.86,6.11-2.57,8.77-1.72,2.66-4.04,4.66-6.98,5.98,4.14,1.21,7.33,3.26,9.56,6.17,2.23,2.91,3.34,6.33,3.34,10.25,0,3.09-.72,6.1-2.16,9.02-1.44,2.92-3.4,5.26-5.89,7-2.49,1.75-5.56,2.82-9.21,3.22-2.29.25-7.81.4-16.56.46h-23.15v-68ZM238.67,112.48v15.73h9c5.35,0,8.67-.08,9.97-.23,2.35-.28,4.2-1.09,5.54-2.44s2.02-3.11,2.02-5.31-.58-3.81-1.74-5.13c-1.16-1.31-2.88-2.11-5.17-2.39-1.36-.15-5.27-.23-11.74-.23h-7.89ZM238.67,139.52v18.18h12.71c4.95,0,8.09-.14,9.42-.42,2.04-.37,3.7-1.28,4.99-2.71,1.28-1.44,1.92-3.36,1.92-5.77,0-2.04-.5-3.77-1.48-5.2-.99-1.42-2.42-2.46-4.29-3.11s-5.93-.97-12.18-.97h-11.09Z" style="fill: #fff;"/>
        <path d="M298.62,169.16v-67.45h13.73v55.99h34.14v11.46h-47.87Z" style="fill: #fff;"/>
        <path d="M361.03,169.16v-68h50.42v11.5h-36.69v15.08h34.14v11.46h-34.14v18.51h37.99v11.46h-51.72Z" style="fill: #fff;"/>
        <path d="M429.19,169.16v-68h28.9c7.27,0,12.55.61,15.84,1.83,3.29,1.22,5.93,3.39,7.91,6.52,1.98,3.12,2.97,6.7,2.97,10.72,0,5.1-1.5,9.32-4.5,12.64-3,3.33-7.48,5.42-13.45,6.29,2.97,1.73,5.42,3.63,7.35,5.71,1.93,2.07,4.54,5.75,7.82,11.04l8.3,13.27h-16.42l-9.93-14.8c-3.53-5.29-5.94-8.62-7.24-10-1.3-1.38-2.67-2.32-4.13-2.83-1.45-.51-3.76-.77-6.91-.77h-2.78v28.39h-13.73ZM442.92,129.92h10.16c6.59,0,10.7-.28,12.34-.83,1.64-.56,2.92-1.51,3.85-2.88.93-1.36,1.39-3.06,1.39-5.1,0-2.29-.61-4.14-1.83-5.54-1.22-1.41-2.95-2.3-5.17-2.67-1.11-.15-4.45-.23-10.02-.23h-10.72v17.26Z" style="fill: #fff;"/>
      </g>
      <g>
        <path d="M26.73,217.26c0,.07.02.12.07.15.05.03.09.01.11-.04l.93-.78c.49-.4,1.06-.61,1.71-.63h.11c.59,0,1.14.17,1.63.52,4.13,3.04,7.25,5.53,9.35,7.46.4.4.59.88.59,1.45,0,.62-.24,1.14-.71,1.56l-.56.56c-.42.37-.9.56-1.45.56-.05,0-.1-.01-.15-.04-.59-.02-1.1-.25-1.52-.67-2.4-2.42-5.71-5.27-9.95-8.54-.02-.02-.06-.02-.11,0-.05.03-.07.06-.07.11v17.22c0,.59-.22,1.11-.65,1.54-.43.43-.95.65-1.54.65h-.59c-.59,0-1.11-.22-1.54-.65-.43-.43-.65-.95-.65-1.54v-16.07s-.02-.09-.06-.11c-.04-.02-.08-.01-.13.04-3.12,3.32-6.44,6.01-9.98,8.09-.35.2-.72.3-1.11.3-.17,0-.36-.02-.56-.07-.59-.15-1.08-.48-1.45-1-.17-.2-.33-.4-.48-.59-.25-.35-.37-.71-.37-1.08,0-.12.01-.26.04-.41.1-.52.38-.92.85-1.19,2.89-1.61,5.58-3.62,8.07-6.05,2.49-2.42,4.56-4.97,6.22-7.64.05-.05.06-.1.02-.17-.04-.06-.08-.09-.13-.09h-12.69c-.62,0-1.14-.21-1.56-.63-.42-.42-.63-.94-.63-1.56v-.26c0-.59.21-1.11.63-1.54.42-.43.94-.65,1.56-.65h28.54c.62,0,1.14.22,1.56.65.42.43.63.95.63,1.54v.26c0,.62-.21,1.14-.63,1.56-.42.42-.94.63-1.56.63h-9.35c-.17,0-.31.09-.41.26-.52.94-1.15,1.94-1.89,3.01-.1.15-.15.32-.15.52v3.38Z" style="fill: #fff;"/>
        <path d="M74.06,225.83c0,.17.1.26.3.26h4.6c.17,0,.26-.09.26-.26v-.78c0-.2-.09-.3-.26-.3h-1.45c-.62,0-1.14-.21-1.56-.63-.42-.42-.63-.94-.63-1.56v-3.15c0-.32.11-.59.33-.82s.49-.33.8-.33.58.11.8.33.33.5.33.82v2.71c0,.2.1.3.3.3h1.08c.17,0,.26-.1.26-.3v-2.67c0-.47.17-.87.5-1.21s.74-.5,1.21-.5.87.17,1.19.5c.32.33.48.74.48,1.21v17.29c0,.45-.16.83-.48,1.17-.32.33-.72.5-1.19.5s-.87-.17-1.21-.5-.5-.72-.5-1.17v-3.6c0-.17-.09-.26-.26-.26h-1.08c-.2,0-.3.09-.3.26v3.75c0,.32-.11.59-.33.82s-.49.33-.8.33-.58-.11-.8-.33-.33-.5-.33-.82v-4.12c0-.59.21-1.11.63-1.54.42-.43.94-.65,1.56-.65h1.45c.17,0,.26-.09.26-.26v-.78c0-.2-.09-.3-.26-.3h-4.6c-.2,0-.3.1-.3.3v7.38c0,.4-.15.74-.45,1.04s-.65.45-1.06.45-.76-.15-1.06-.45-.45-.64-.45-1.04v-7.38c0-.2-.09-.3-.26-.3h-4.6c-.17,0-.27.1-.3.3,0,.07,0,.2-.02.37-.01.17-.03.31-.06.41,0,.17.09.26.26.26h1.52c.62,0,1.14.22,1.56.65.42.43.63.95.63,1.54v4.16c0,.3-.11.56-.32.78-.21.22-.47.33-.78.33s-.57-.11-.78-.33c-.21-.22-.32-.48-.32-.78v-3.79c0-.17-.1-.26-.3-.26h-1.48c-.17,0-.28.09-.33.26-.27,1.44-.69,2.7-1.26,3.79-.2.42-.54.67-1.04.74h-.22c-.4,0-.75-.12-1.08-.37-.22-.17-.45-.34-.67-.5-.22-.16-.36-.37-.41-.63-.05-.26,0-.51.15-.76.02-.03.02-.04,0-.06-.02-.01-.05-.02-.07-.02-.59.12-2.05.41-4.38.85-2.33.45-4.06.78-5.2,1-.15.02-.3.04-.45.04-.4,0-.77-.11-1.11-.33-.47-.3-.77-.72-.89-1.26-.02-.15-.04-.3-.04-.45,0-.37.1-.72.3-1.04.32-.45.74-.71,1.26-.78,1.09-.17,2.05-.33,2.89-.48.17-.02.26-.14.26-.33v-9.72c0-.2-.09-.3-.26-.3h-2.41c-.5,0-.93-.18-1.3-.54-.37-.36-.56-.8-.56-1.32s.19-.96.56-1.32c.37-.36.8-.54,1.3-.54h2.41c.17,0,.26-.1.26-.3v-2.19c0-.17-.09-.26-.26-.26h-1.86c-.27,0-.51-.1-.72-.32-.21-.21-.32-.45-.32-.72v-.11h-.04c-.12.12-.24.11-.33-.04-.3-.42-.66-.85-1.08-1.3-.37-.4-.56-.85-.56-1.37s.17-.93.52-1.3c1.73-1.86,3.15-4,4.27-6.42.22-.47.54-.84.95-1.11.41-.27.86-.41,1.35-.41,1.14,0,2.08.38,2.82,1.15,1.83,1.81,3.22,3.45,4.16,4.94.1.17.23.26.41.26h7.5c.2,0,.3-.1.3-.3v-.85c0-.17-.1-.26-.3-.26h-5.31c-.42,0-.78-.15-1.08-.45s-.45-.66-.45-1.08.15-.78.45-1.08.66-.45,1.08-.45h5.38c.15,0,.22-.07.22-.22,0-.47.17-.87.5-1.21s.74-.5,1.21-.5h.37c.47,0,.87.17,1.21.5s.5.74.5,1.21c0,.15.07.22.22.22h5.05c.59,0,1.11.21,1.54.63.43.42.65.94.65,1.56v2.04c0,.15.06.22.19.22h.07c.42,0,.78.15,1.08.45s.45.66.45,1.08-.15.78-.45,1.08-.66.45-1.08.45h-.07c-.12,0-.19.06-.19.19v2.08c0,.62-.22,1.14-.65,1.56-.43.42-.95.63-1.54.63h-5.34c-.2,0-.3.1-.3.3v8.72ZM49.65,226.16c-.02-.1-.04-.21-.04-.33,0-.25.06-.48.19-.71.2-.32.48-.52.85-.59.12-.02.23-.04.33-.04.25,0,.48.06.71.19.32.17.53.45.63.82.3,1.26.53,2.55.71,3.86v.22c0,.32-.09.62-.26.89-.25.35-.58.57-1,.67-.1.03-.2.04-.3.04-.22,0-.45-.07-.67-.22-.3-.22-.46-.52-.48-.89-.12-1.16-.35-2.46-.67-3.9ZM52.84,212.21s-.02.1,0,.15c.02.05.06.07.11.07h6.46c.07,0,.13-.03.17-.09.04-.06.03-.12-.02-.17-.92-1.63-1.98-3.19-3.19-4.68-.12-.15-.24-.14-.33.04-.94,1.66-2,3.22-3.19,4.68ZM65.97,225.83c0,.17.09.26.26.26h4.56c.17,0,.26-.09.26-.26v-8.72c0-.2-.09-.3-.26-.3h-5.79c-.42,0-.78-.15-1.08-.45s-.45-.65-.45-1.06.15-.76.45-1.06.66-.45,1.08-.45h5.34c.2,0,.3-.1.3-.3v-.89c0-.17-.1-.26-.3-.26h-6.61c-.5,0-.92-.18-1.28-.54-.36-.36-.54-.79-.54-1.28,0-.05-.02-.08-.06-.09-.04-.01-.07,0-.09.02l-1.63,1.89s.01.05.04.07c.15,0,.28.05.39.15.11.1.17.22.17.37v1.3c0,.5-.18.92-.54,1.28-.36.36-.8.54-1.32.54h-1.45c-.2,0-.3.09-.3.26v2.19c0,.2.1.3.3.3h1.82c.49,0,.93.18,1.3.54.37.36.56.8.56,1.32s-.19.96-.56,1.32c-.37.36-.8.54-1.3.54h-1.82c-.2,0-.3.1-.3.3v9.13c0,.17.1.25.3.22.4-.07,1-.19,1.82-.33.12-.02.26-.04.41-.04.42,0,.8.14,1.15.41.47.35.73.8.78,1.37l.04.15s.01.04.04.06c.02.01.05,0,.07-.06.64-1.68.96-4.07.96-7.16v-7.2c0-.45.16-.83.48-1.15.32-.32.71-.48,1.15-.48s.83.16,1.15.48c.32.32.48.71.48,1.15v2.82c0,.17.09.26.26.26h1.04c.2,0,.3-.09.3-.26v-2.75c0-.32.11-.59.33-.82s.49-.33.8-.33.57.11.78.33c.21.22.32.5.32.82v3.12c0,.62-.21,1.14-.63,1.56-.42.42-.94.63-1.56.63h-1.37c-.17,0-.26.1-.26.3v.78ZM60.15,229.35c-.1.35-.3.61-.61.78-.31.17-.64.22-.98.15-.35-.07-.61-.27-.78-.58-.17-.31-.22-.64-.15-.98.27-1.19.51-2.35.71-3.49.07-.4.27-.7.59-.91.32-.21.67-.27,1.04-.17.37.07.66.28.87.61.21.33.27.7.17,1.09-.42,1.78-.71,2.94-.85,3.49ZM74.73,207.91c-.2,0-.3.09-.3.26v.85c0,.2.1.3.3.3h3.01c.2,0,.3-.1.3-.3v-.85c0-.17-.1-.26-.3-.26h-3.01ZM77.74,213.81c.2,0,.3-.1.3-.3v-.89c0-.17-.1-.26-.3-.26h-3.01c-.2,0-.3.09-.3.26v.89c0,.2.1.3.3.3h3.01Z" style="fill: #fff;"/>
        <path d="M122.51,204.27c.59,0,1.11.21,1.54.63.43.42.65.94.65,1.56v27.31c0,1.06-.12,1.89-.37,2.49-.25.59-.67,1.06-1.26,1.41-.82.42-2.1.66-3.86.71h-.11c-.54,0-1.03-.17-1.45-.52-.47-.4-.8-.88-1-1.45-.05-.17-.07-.33-.07-.48,0-.3.1-.57.3-.82.27-.4.63-.59,1.08-.59h2.23c.3-.02.49-.09.59-.2.1-.11.15-.3.15-.58v-25.23c0-.2-.09-.3-.26-.3h-11.69c-.17,0-.26.1-.26.3v28.05c0,.52-.19.96-.56,1.32-.37.36-.81.54-1.32.54s-.94-.18-1.3-.54c-.36-.36-.54-.8-.54-1.32v-26.24s-.02-.08-.06-.09c-.04-.01-.07,0-.09.02l-1.71,2.08v.04c.07,0,.11.03.11.07v1.78c0,.52-.18.96-.54,1.32-.36.36-.8.54-1.32.54h-1.52c-.17,0-.26.09-.26.26v2.26c0,.2.09.3.26.3h2c.52,0,.96.19,1.34.56s.56.82.56,1.35-.19.98-.56,1.35-.82.56-1.34.56h-2c-.17,0-.26.1-.26.3v8.79c0,.17.09.25.26.22.4-.07,1.26-.23,2.6-.48.12-.02.23-.04.33-.04.37,0,.71.11,1,.33.4.32.62.73.67,1.22v.19c0,.45-.14.87-.41,1.26-.32.42-.74.68-1.26.78-2.65.57-5.8,1.2-9.46,1.89-.15.02-.3.04-.45.04-.4,0-.77-.11-1.11-.33-.5-.32-.8-.75-.93-1.3-.02-.15-.04-.3-.04-.45,0-.37.11-.72.33-1.04.3-.47.72-.75,1.26-.85.82-.12,1.84-.28,3.08-.48.17-.05.26-.16.26-.33v-9.43c0-.2-.09-.3-.26-.3h-2.63c-.52,0-.97-.19-1.35-.56-.38-.37-.58-.82-.58-1.35s.19-.98.58-1.35c.38-.37.83-.56,1.35-.56h2.63c.17,0,.26-.1.26-.3v-2.26c0-.17-.09-.26-.26-.26h-1.89c-.32,0-.59-.11-.82-.33s-.33-.49-.33-.82v-.07s-.01-.04-.04-.04c-.1.1-.22.14-.35.13-.14-.01-.24-.07-.32-.17-.3-.37-.62-.75-.96-1.15-.37-.4-.56-.87-.56-1.41,0-.49.19-.94.56-1.34,1.73-1.81,3.18-3.88,4.34-6.23.22-.52.57-.93,1.04-1.22.47-.3.98-.45,1.52-.45,1.24,0,2.29.41,3.15,1.22,1.63,1.51,2.97,2.93,4.01,4.27.02.05.06.07.09.06.04-.01.06-.04.06-.09v-1.97c0-.62.22-1.14.65-1.56.43-.42.95-.63,1.54-.63h15.33ZM91.45,226.2c-.02-.1-.04-.21-.04-.33,0-.25.06-.48.19-.71.2-.35.48-.57.85-.67.12-.02.26-.04.41-.04.25,0,.48.06.71.19.35.2.57.48.67.85.32,1.21.58,2.45.78,3.71.02.1.04.19.04.26,0,.32-.1.63-.3.93-.25.35-.58.58-1,.71-.12.03-.24.04-.33.04-.25,0-.48-.07-.71-.22-.32-.22-.51-.52-.56-.89-.15-1.19-.38-2.46-.71-3.82ZM94.86,212.14s-.02.1,0,.15c.02.05.06.07.11.07h6.98s.09-.03.13-.09c.04-.06.04-.12.02-.17-1.09-1.71-2.3-3.28-3.64-4.71-.12-.15-.24-.14-.33.04-.92,1.61-2,3.18-3.27,4.71ZM103.02,229.39c-.1.37-.32.65-.65.83s-.69.23-1.06.13c-.37-.1-.65-.31-.83-.63-.19-.32-.24-.67-.17-1.04.27-1.14.49-2.23.67-3.27.07-.42.28-.75.63-1,.25-.15.51-.22.78-.22.12,0,.23.01.33.04.42.1.74.33.96.71.15.25.22.51.22.78,0,.12-.01.26-.04.41-.45,1.76-.73,2.85-.85,3.27ZM117.27,231.51c0-.1-.05-.15-.15-.15h-4.68c-.15,0-.22.07-.22.22v.74c0,.32-.11.59-.33.82s-.5.33-.82.33-.59-.11-.82-.33-.33-.49-.33-.82v-10.84c0-.3.11-.56.33-.78s.49-.33.82-.33.59.11.82.33.33.48.33.78v6.27c0,.2.09.3.26.3h.74c.2,0,.3-.1.3-.3v-8.76c0-.17-.1-.26-.3-.26h-2.04c-.47,0-.87-.17-1.19-.5-.32-.33-.48-.73-.48-1.19s.16-.85.48-1.17c.32-.32.72-.48,1.19-.48h7.16c.45,0,.83.16,1.17.48.33.32.5.71.5,1.17s-.17.85-.5,1.19-.72.5-1.17.5h-2.08c-.2,0-.3.09-.3.26v8.76c0,.2.1.3.3.3h.71c.2,0,.3-.1.3-.3v-6.23c0-.32.11-.59.33-.82s.49-.33.82-.33.59.11.82.33.33.5.33.82v9.95c0,.32-.11.59-.33.82s-.5.33-.82.33-.59-.11-.82-.33-.33-.48-.33-.78ZM110.15,210.73c-.12-.35-.11-.67.06-.96.16-.3.41-.49.76-.59.37-.1.72-.06,1.06.11.33.17.56.43.69.78.37.92.67,1.86.89,2.82.07.4.01.76-.19,1.09-.2.33-.5.56-.89.69-.35.1-.67.05-.98-.15-.31-.2-.5-.48-.58-.85-.2-.89-.47-1.87-.82-2.93ZM116.68,210.24c.1-.42.33-.75.71-1,.25-.15.52-.22.82-.22.12,0,.25.01.37.04.42.1.73.35.93.74.12.22.19.45.19.67,0,.17-.04.35-.11.52-.62,1.68-.96,2.63-1.04,2.86-.15.35-.39.6-.72.76-.33.16-.69.19-1.06.09-.35-.1-.61-.31-.78-.63-.17-.32-.2-.66-.07-1,.3-.96.56-1.9.78-2.82Z" style="fill: #fff;"/>
        <path d="M144.3,225.53c0,.62-.22,1.14-.65,1.56-.43.42-.95.63-1.54.63h-4.64c-.2,0-.3.1-.3.3v.74c0,.54-.2,1.01-.59,1.41-.4.4-.87.59-1.43.59s-1.03-.2-1.41-.59c-.38-.4-.58-.87-.58-1.41v-20.3c0-.62.21-1.14.63-1.56.42-.42.94-.63,1.56-.63h6.75c.59,0,1.11.21,1.54.63.43.42.65.94.65,1.56v17.07ZM140.26,210.73c0-.2-.09-.3-.26-.3h-2.52c-.2,0-.3.1-.3.3v12.54c0,.2.1.3.3.3h2.52c.17,0,.26-.1.26-.3v-12.54ZM163.49,214.4c.17-.02.35-.04.52-.04.3,0,.59.05.89.15l.74.26c.4.15.71.41.93.78.17.27.26.57.26.89,0,.1-.01.21-.04.33-1.04,5.47-2.87,9.96-5.49,13.47-.12.15-.11.29.04.41,1.39,1.14,2.92,2.1,4.6,2.89.49.22.8.59.93,1.11.02.15.04.3.04.45,0,.35-.11.67-.33.96-.12.17-.25.35-.37.52-.37.52-.84.88-1.41,1.08-.25.07-.48.11-.71.11-.35,0-.68-.09-1-.26-1.76-.94-3.38-2.1-4.86-3.49-.15-.12-.28-.12-.41,0-1.53,1.31-3.23,2.41-5.08,3.3-.32.15-.66.22-1,.22-.25,0-.5-.05-.74-.15-.59-.17-1.09-.52-1.48-1.04-.07-.15-.16-.27-.26-.37-.22-.3-.33-.62-.33-.96,0-.12.01-.26.04-.41.12-.49.42-.84.89-1.04,1.83-.79,3.49-1.78,4.97-2.97.12-.12.14-.26.04-.41-1.41-2-2.62-4.38-3.64-7.12-.02-.02-.06-.04-.09-.04s-.07.03-.09.07c-1.21,6.19-3.43,10.82-6.64,13.92-.42.37-.89.56-1.41.56h-.19c-.59-.05-1.11-.3-1.56-.74-.02-.05-.06-.09-.11-.11-.37-.4-.56-.85-.56-1.37,0-.59.21-1.09.63-1.48,1.14-1.09,2.12-2.39,2.95-3.9.83-1.51,1.47-3.03,1.93-4.56.46-1.53.82-3.27,1.09-5.21.27-1.94.45-3.73.54-5.36.09-1.63.13-3.46.13-5.49,0-.17-.1-.26-.3-.26h-.52c-.59,0-1.1-.21-1.52-.63-.42-.42-.63-.93-.63-1.52s.21-1.1.63-1.52c.42-.42.93-.63,1.52-.63h10.8s.1-.01.15-.04c.3-.05.58-.07.85-.07.15,0,.3.01.45.04l.93.07c.45.05.8.25,1.08.59.22.27.33.58.33.93,0,.07-.01.15-.04.22-.3,2.3-.69,4.84-1.19,7.61-.02.2.05.3.22.3h2.71c.07,0,.14-.01.19-.04ZM156.85,209.35c.02-.17-.06-.26-.26-.26h-3.97c-.17,0-.27.09-.3.26,0,.64-.02,1.58-.07,2.82,0,.2.01.38.04.56,1.11,5.94,2.98,10.69,5.6,14.25.1.15.21.15.33,0,1.66-2.3,2.88-5.05,3.67-8.24.02-.07.01-.14-.04-.2-.05-.06-.11-.09-.19-.09h-1.97c-.07,0-.11.04-.11.11-.05.22-.16.4-.33.54-.17.14-.37.19-.59.17l-1.34-.15c-.54-.05-.99-.3-1.34-.74-.27-.35-.41-.73-.41-1.15,0-.12.01-.25.04-.37.47-2.5.88-5,1.22-7.5Z" style="fill: #fff;"/>
        <path d="M207.15,205.57c.49,0,.92.17,1.26.52.35.35.52.77.52,1.26s-.17.92-.52,1.26c-.35.35-.77.52-1.26.52h-4.19c-.07,0-.12.03-.15.07s-.02.1,0,.15c.12.15.23.3.33.45.17.27.26.56.26.85,0,.2-.04.4-.11.59-.2.52-.57.85-1.11,1-.25.07-.48.11-.71.11-.37,0-.73-.07-1.08-.22-.57-.25-1.03-.64-1.37-1.19-.32-.52-.68-1.05-1.08-1.6-.1-.15-.24-.22-.41-.22h-1.67c-.17,0-.32.06-.45.19-.57.72-1.14,1.36-1.71,1.93-.15.12-.22.29-.22.48v1.48c0,.17.1.26.3.26h12.06c.62,0,1.14.22,1.56.65.42.43.63.95.63,1.54v3.15c0,.62-.21,1.14-.63,1.56-.42.42-.94.63-1.56.63s-1.14-.21-1.56-.63c-.42-.42-.63-.94-.63-1.56v-1.67c0-.2-.1-.3-.3-.3h-23.64c-.2,0-.3.1-.3.3v1.74c0,.59-.2,1.09-.61,1.5s-.91.61-1.5.61-1.09-.2-1.5-.61-.61-.91-.61-1.5v-3.23c0-.59.21-1.11.63-1.54.42-.43.94-.65,1.56-.65h11.5c.2,0,.3-.09.3-.26v-.89c0-.42.14-.77.43-1.06.28-.28.64-.43,1.06-.43.02-.05.02-.09,0-.11-.22-.12-.47-.25-.74-.37-.22-.12-.35-.31-.37-.56-.02-.25.05-.45.22-.59.02-.02.03-.04.02-.06-.01-.01-.03-.02-.06-.02h-4.01c-.07,0-.12.03-.15.07s-.02.1,0,.15c.07.12.14.25.19.37.15.25.22.51.22.78,0,.25-.05.48-.15.71-.25.5-.64.83-1.19,1-.2.05-.41.07-.63.07-.35,0-.68-.09-1-.26-.54-.27-.94-.68-1.19-1.22-.25-.49-.51-.98-.78-1.45-.1-.15-.24-.22-.41-.22h-.11c-.17,0-.31.07-.41.22-.47.62-.94,1.21-1.41,1.78-.4.47-.92.73-1.56.78-.07.03-.15.04-.22.04-.54,0-1.04-.16-1.48-.48h-.04c-.45-.3-.69-.72-.74-1.26v-.22c0-.45.15-.83.45-1.15,1.21-1.29,2.24-2.7,3.08-4.23.3-.57.73-.99,1.3-1.26.37-.17.73-.26,1.08-.26.22,0,.45.04.67.11l.37.11c.47.12.8.4,1,.82.07.2.11.4.11.59,0,.22-.05.45-.15.67-.02.05-.02.09,0,.13.02.04.06.06.11.06h6.05c.59,0,1.11.22,1.54.65.43.43.65.95.65,1.54v.07c0,.07.02.12.07.13.05.01.09,0,.11-.06.94-.99,1.76-2.09,2.45-3.3.32-.57.77-.99,1.34-1.26.37-.2.75-.3,1.15-.3.2,0,.4.03.59.07l.33.07c.49.12.84.41,1.04.85.12.22.19.43.19.63,0,.25-.06.48-.19.71-.02.05-.02.09,0,.13.02.04.07.06.15.06h8.98ZM185.7,226.91c-.2,0-.3.09-.3.26v1.19c0,.2.1.3.3.3h17.07c.59,0,1.11.21,1.54.63.43.42.65.94.65,1.56v5.42c0,.62-.22,1.14-.65,1.56-.43.42-.95.63-1.54.63h-1.41c-.25,0-.46-.09-.63-.26-.17-.17-.26-.38-.26-.63,0-.1-.04-.15-.11-.15h-14.84c-.07,0-.11.05-.11.15,0,.25-.09.46-.26.63-.17.17-.38.26-.63.26h-1.26c-.59,0-1.11-.21-1.54-.63-.43-.42-.65-.93-.65-1.52v-15.7c0-.59.22-1.11.65-1.54.43-.43.95-.65,1.54-.65h16.62c.59,0,1.11.22,1.54.65.43.43.65.95.65,1.54v4.12c0,.59-.22,1.11-.65,1.54-.43.43-.95.65-1.54.65h-14.18ZM197.57,221.97c0-.17-.1-.26-.3-.26h-11.58c-.2,0-.3.09-.3.26v1.41c0,.2.1.3.3.3h11.58c.2,0,.3-.1.3-.3v-1.41ZM200.47,232.25c0-.2-.1-.3-.3-.3h-14.47c-.2,0-.3.1-.3.3v1.56c0,.17.1.26.3.26h14.47c.2,0,.3-.09.3-.26v-1.56Z" style="fill: #fff;"/>
        <path d="M242.23,215.81s.02.05.06.07c.04.03.07.03.09,0,.4-.37.85-.56,1.37-.56h.04c.52,0,.96.17,1.34.52,2.1,1.88,3.8,3.59,5.08,5.12.35.45.52.93.52,1.45v.22c-.05.62-.31,1.15-.78,1.6l-.07.11c-.37.35-.79.52-1.26.52-.05,0-.11-.01-.19-.04-.57-.05-1.03-.3-1.37-.74-1.24-1.61-2.78-3.31-4.64-5.12-.02-.05-.06-.06-.11-.04-.05.03-.07.06-.07.11v17.22c0,.62-.22,1.14-.65,1.56-.43.42-.95.63-1.54.63h-.11c-.62,0-1.14-.21-1.56-.63-.42-.42-.63-.94-.63-1.56v-15.47s-.02-.08-.07-.09c-.05-.01-.09,0-.11.06-1.58,1.86-3.32,3.5-5.2,4.94-.4.27-.82.41-1.26.41-.12,0-.25-.01-.37-.04-.59-.1-1.09-.4-1.48-.89-.57-.74-1.08-1.35-1.52-1.82h-.11l-.11-.19v-.04s-.04-.05-.04-.07c-.3-.52-.87-1.37-1.71-2.56-.02-.05-.06-.07-.11-.06-.05.01-.07.04-.07.09v15.7c0,.59-.21,1.1-.63,1.52-.42.42-.93.63-1.52.63s-1.11-.21-1.54-.63c-.43-.42-.65-.93-.65-1.52v-12.32s-.01-.04-.04-.04-.04.01-.04.04c-.87,2.38-1.79,4.43-2.78,6.16-.22.35-.52.52-.89.52h-.15c-.47-.05-.82-.28-1.04-.71-.05-.1-.1-.21-.15-.33-.27-.52-.41-1.08-.41-1.67,0-.72.19-1.38.56-2,1.9-3.04,3.36-6.58,4.38-10.61.02-.07.01-.14-.04-.2-.05-.06-.1-.09-.15-.09h-2.3c-.57,0-1.06-.2-1.48-.61-.42-.41-.63-.91-.63-1.5s.21-1.09.63-1.5c.42-.41.92-.61,1.48-.61h2.78c.17,0,.26-.1.26-.3v-5.34c0-.59.22-1.1.65-1.52.43-.42.95-.63,1.54-.63s1.1.21,1.52.63c.42.42.63.93.63,1.52v5.34c0,.2.1.3.3.3h2.04c.57,0,1.06.2,1.48.61.42.41.63.91.63,1.5s-.21,1.09-.63,1.5c-.42.41-.92.61-1.48.61h-2.08c-.17,0-.26.09-.26.28s.07.33.22.43c.64.59,1.57,1.48,2.78,2.67.45.45.69.99.74,1.63v.26c0,.54-.15,1.04-.45,1.48l-.56.78s-.02.05,0,.07c.02.03.05.03.07,0,2.23-1.38,4.23-3.12,6.01-5.21,1.78-2.09,3.25-4.41,4.42-6.96.02-.05.02-.1-.02-.17-.04-.06-.09-.09-.17-.09h-6.94c-.59,0-1.1-.21-1.52-.63-.42-.42-.63-.93-.63-1.52s.21-1.09.63-1.5c.42-.41.93-.61,1.52-.61h16.85c.59,0,1.1.2,1.52.61.42.41.63.91.63,1.5s-.21,1.1-.63,1.52c-.42.42-.93.63-1.52.63h-4.38c-.17,0-.3.09-.37.26-.4,1.01-.88,2.07-1.45,3.15-.07.17-.11.35-.11.52v1.74Z" style="fill: #fff;"/>
      </g>
    </g>
  </g>
</svg>