<?xml version="1.0" encoding="UTF-8"?>
<svg id="_圖層_2" data-name="圖層 2" xmlns="http://www.w3.org/2000/svg" width="556" height="226.9" viewBox="0 0 556 226.9">
  <g id="_設計" data-name="設計">
    <g>
      <g>
        <path d="M0,47.04l13.36-1.3c.8,4.48,2.44,7.78,4.89,9.88,2.46,2.1,5.78,3.15,9.95,3.15,4.42,0,7.75-.93,10-2.81,2.24-1.87,3.36-4.06,3.36-6.56,0-1.61-.47-2.98-1.42-4.11-.94-1.13-2.59-2.11-4.94-2.95-1.61-.56-5.27-1.55-10.99-2.97-7.36-1.82-12.52-4.07-15.49-6.73-4.17-3.74-6.26-8.3-6.26-13.68,0-3.46.98-6.7,2.95-9.72,1.96-3.02,4.79-5.31,8.49-6.89S22.05,0,27.28,0c8.54,0,14.96,1.87,19.27,5.61,4.31,3.74,6.58,8.74,6.8,14.98l-13.73.6c-.59-3.49-1.85-6.01-3.78-7.54-1.93-1.53-4.83-2.3-8.7-2.3s-7.11.82-9.37,2.46c-1.45,1.05-2.18,2.46-2.18,4.22,0,1.61.68,2.99,2.04,4.13,1.73,1.45,5.94,2.97,12.62,4.55s11.62,3.21,14.82,4.89c3.2,1.69,5.71,3.99,7.51,6.91,1.81,2.92,2.71,6.53,2.71,10.83,0,3.9-1.08,7.55-3.25,10.95-2.17,3.4-5.23,5.93-9.18,7.58-3.96,1.65-8.89,2.48-14.8,2.48-8.6,0-15.2-1.99-19.81-5.96C3.65,60.43.9,54.64,0,47.04Z" style="fill: #fff;"/>
        <path d="M86.9,69.16V12.66h-20.18V1.16h54.04v11.5h-20.13v56.5h-13.73Z" style="fill: #fff;"/>
        <path d="M188.65,69.16h-14.94l-5.94-15.45h-27.18l-5.61,15.45h-14.57L146.9,1.16h14.52l27.23,68ZM163.37,42.26l-9.37-25.23-9.18,25.23h18.55Z" style="fill: #fff;"/>
        <path d="M200.26,69.16V1.16h13.73v68h-13.73Z" style="fill: #fff;"/>
        <path d="M231.96,69.16V1.16h13.36l27.83,45.41V1.16h12.76v68h-13.78l-27.42-44.35v44.35h-12.76Z" style="fill: #fff;"/>
        <path d="M305.55,69.16V1.72h13.73v55.99h34.14v11.46h-47.87Z" style="fill: #fff;"/>
        <path d="M367.96,69.16V1.16h50.42v11.5h-36.69v15.08h34.14v11.46h-34.14v18.51h37.99v11.46h-51.72Z" style="fill: #fff;"/>
        <path d="M432.59,47.04l13.36-1.3c.8,4.48,2.44,7.78,4.89,9.88,2.46,2.1,5.78,3.15,9.95,3.15,4.42,0,7.75-.93,10-2.81,2.24-1.87,3.36-4.06,3.36-6.56,0-1.61-.47-2.98-1.42-4.11-.94-1.13-2.59-2.11-4.94-2.95-1.61-.56-5.27-1.55-10.99-2.97-7.36-1.82-12.52-4.07-15.49-6.73-4.17-3.74-6.26-8.3-6.26-13.68,0-3.46.98-6.7,2.95-9.72,1.96-3.02,4.79-5.31,8.49-6.89s8.16-2.37,13.38-2.37c8.54,0,14.96,1.87,19.27,5.61,4.31,3.74,6.58,8.74,6.8,14.98l-13.73.6c-.59-3.49-1.85-6.01-3.78-7.54-1.93-1.53-4.83-2.3-8.7-2.3s-7.11.82-9.37,2.46c-1.45,1.05-2.18,2.46-2.18,4.22,0,1.61.68,2.99,2.04,4.13,1.73,1.45,5.94,2.97,12.62,4.55s11.62,3.21,14.82,4.89c3.2,1.69,5.71,3.99,7.51,6.91,1.81,2.92,2.71,6.53,2.71,10.83,0,3.9-1.08,7.55-3.25,10.95-2.17,3.4-5.23,5.93-9.18,7.58-3.96,1.65-8.89,2.48-14.8,2.48-8.6,0-15.2-1.99-19.81-5.96-4.61-3.97-7.36-9.76-8.26-17.37Z" style="fill: #fff;"/>
        <path d="M500.71,47.04l13.36-1.3c.8,4.48,2.44,7.78,4.89,9.88,2.46,2.1,5.78,3.15,9.95,3.15,4.42,0,7.75-.93,10-2.81,2.24-1.87,3.36-4.06,3.36-6.56,0-1.61-.47-2.98-1.42-4.11-.94-1.13-2.59-2.11-4.94-2.95-1.61-.56-5.27-1.55-10.99-2.97-7.36-1.82-12.52-4.07-15.49-6.73-4.17-3.74-6.26-8.3-6.26-13.68,0-3.46.98-6.7,2.95-9.72,1.96-3.02,4.79-5.31,8.49-6.89s8.16-2.37,13.38-2.37c8.54,0,14.96,1.87,19.27,5.61,4.31,3.74,6.58,8.74,6.8,14.98l-13.73.6c-.59-3.49-1.85-6.01-3.78-7.54-1.93-1.53-4.83-2.3-8.7-2.3s-7.11.82-9.37,2.46c-1.45,1.05-2.18,2.46-2.18,4.22,0,1.61.68,2.99,2.04,4.13,1.73,1.45,5.94,2.97,12.62,4.55s11.62,3.21,14.82,4.89c3.2,1.69,5.71,3.99,7.51,6.91,1.81,2.92,2.71,6.53,2.71,10.83,0,3.9-1.08,7.55-3.25,10.95-2.17,3.4-5.23,5.93-9.18,7.58-3.96,1.65-8.89,2.48-14.8,2.48-8.6,0-15.2-1.99-19.81-5.96-4.61-3.97-7.36-9.76-8.26-17.37Z" style="fill: #fff;"/>
        <path d="M0,147.04l13.36-1.3c.8,4.48,2.44,7.78,4.89,9.88,2.46,2.1,5.78,3.15,9.95,3.15,4.42,0,7.75-.93,10-2.81,2.24-1.87,3.36-4.06,3.36-6.56,0-1.61-.47-2.98-1.42-4.11-.94-1.13-2.59-2.11-4.94-2.95-1.61-.56-5.27-1.55-10.99-2.97-7.36-1.82-12.52-4.07-15.49-6.73-4.17-3.74-6.26-8.3-6.26-13.68,0-3.46.98-6.7,2.95-9.72,1.96-3.02,4.79-5.31,8.49-6.89s8.16-2.37,13.38-2.37c8.54,0,14.96,1.87,19.27,5.61,4.31,3.74,6.58,8.74,6.8,14.98l-13.73.6c-.59-3.49-1.85-6.01-3.78-7.54-1.93-1.53-4.83-2.3-8.7-2.3s-7.11.82-9.37,2.46c-1.45,1.05-2.18,2.46-2.18,4.22,0,1.61.68,2.99,2.04,4.13,1.73,1.45,5.94,2.97,12.62,4.55s11.62,3.21,14.82,4.89c3.2,1.69,5.71,3.99,7.51,6.91,1.81,2.92,2.71,6.53,2.71,10.83,0,3.9-1.08,7.55-3.25,10.95-2.17,3.4-5.23,5.93-9.18,7.58-3.96,1.65-8.89,2.48-14.8,2.48-8.6,0-15.2-1.99-19.81-5.96-4.61-3.97-7.36-9.76-8.26-17.37Z" style="fill: #fff;"/>
        <path d="M86.9,169.16v-56.5h-20.18v-11.5h54.04v11.5h-20.13v56.5h-13.73Z" style="fill: #fff;"/>
        <path d="M134.37,169.16v-68h50.42v11.5h-36.69v15.08h34.14v11.46h-34.14v18.51h37.99v11.46h-51.72Z" style="fill: #fff;"/>
        <path d="M202.49,169.16v-68h50.42v11.5h-36.69v15.08h34.14v11.46h-34.14v18.51h37.99v11.46h-51.72Z" style="fill: #fff;"/>
        <path d="M270.97,169.16v-67.45h13.73v55.99h34.14v11.46h-47.87Z" style="fill: #fff;"/>
      </g>
      <g>
        <path d="M2.07,219.58c-.38,0-.7-.14-.97-.41s-.41-.6-.41-.97v-12.56c0-.39.14-.72.41-.98s.6-.4.97-.4h5.27c.36,0,.66.12.91.38s.38.55.38.91-.12.66-.38.91-.55.38-.91.38h-3.63c-.12,0-.19.06-.19.19v11.18c0,.38-.13.7-.4.97s-.59.41-.98.41h-.07Z" style="fill: #fff;"/>
        <path d="M39.33,216.51c.09-.02.2-.02.3-.02.17,0,.35.03.54.09l.47.19c.25.09.43.26.54.49.06.14.09.28.09.42,0,.11-.02.22-.05.33-.62,1.77-1.5,3.3-2.62,4.59-.08.09-.07.17.02.23.83.52,1.74.95,2.74,1.29.31.11.51.31.59.61.03.09.05.19.05.28,0,.2-.06.39-.19.56l-.02.02c-.25.34-.56.58-.94.7-.19.06-.37.09-.54.09-.2,0-.4-.03-.59-.09-1.11-.44-2.12-1-3.02-1.69-.09-.06-.19-.06-.28,0-.83.62-1.72,1.16-2.67,1.59-.19.09-.38.14-.59.14-.17,0-.34-.03-.49-.09-.38-.12-.67-.35-.89-.68-.16-.22-.31-.42-.47-.61-.02-.03-.04-.04-.06-.02s-.04.04-.04.07v.4c0,.38-.14.7-.41.96s-.6.4-.97.4-.7-.13-.96-.4-.4-.59-.4-.96v-.4c0-.12-.05-.18-.16-.16-1.27.12-3.34.31-6.23.56h-.12c-.28,0-.54-.09-.77-.28-.25-.22-.39-.49-.42-.82-.02-.05-.02-.09-.02-.12,0-.3.1-.55.3-.77.22-.27.49-.41.82-.42.27-.02.5-.03.7-.05.11-.02.16-.08.16-.19v-6.96c0-.11-.05-.16-.16-.16h-.59c-.3,0-.56-.11-.79-.33s-.34-.48-.34-.8.11-.58.34-.8.49-.33.79-.33h19.1c.3,0,.56.11.79.33s.34.48.34.8-.11.58-.34.8-.49.33-.79.33h-9.7c-.11,0-.16.05-.16.16v8.44s.02.08.05.11.07.03.12.01c1.16-.41,2.19-.93,3.09-1.57.09-.06.1-.14.02-.23-.55-.67-1.03-1.4-1.45-2.18-.09-.16-.14-.32-.14-.49,0-.16.04-.31.12-.47.14-.33.39-.54.75-.63l.07-.02s.02,0,.02-.02,0-.02-.02-.02h-.94c-.3,0-.55-.11-.77-.32s-.33-.47-.33-.77.11-.56.33-.77.48-.32.77-.32h6.3s.09,0,.12-.02ZM38.06,205.12c.38,0,.7.14.97.41s.41.6.41.97v4.62c0,.38-.14.7-.41.97s-.6.41-.97.41h-13.01c-.38,0-.7-.14-.97-.41s-.41-.6-.41-.97v-4.62c0-.38.14-.7.41-.97s.6-.41.97-.41h13.01ZM28.48,215.81c0-.11-.06-.16-.19-.16h-2.77c-.11,0-.16.05-.16.16v.61c0,.12.05.19.16.19h2.77c.12,0,.19-.06.19-.19v-.61ZM25.52,218.6c-.11,0-.16.05-.16.16v.66c0,.12.05.19.16.19h2.77c.12,0,.19-.06.19-.19v-.66c0-.11-.06-.16-.19-.16h-2.77ZM25.52,221.58c-.11,0-.16.05-.16.16v.84c0,.11.05.16.16.16,1.28-.09,2.2-.17,2.77-.23.12,0,.19-.06.19-.19v-.59c0-.11-.06-.16-.19-.16h-2.77ZM36.42,207.94c.11,0,.16-.05.16-.16v-.63c0-.12-.05-.19-.16-.19h-9.84c-.11,0-.16.06-.16.19v.63c0,.11.05.16.16.16h9.84ZM36.42,210.68c.11,0,.16-.06.16-.19v-.66c0-.11-.05-.16-.16-.16h-9.84c-.11,0-.16.05-.16.16v.66c0,.12.05.19.16.19h9.84ZM37.99,218.88s.02-.09,0-.12-.05-.05-.09-.05h-2.88s-.08.02-.11.05-.02.07.01.12c.36.73.83,1.42,1.41,2.06.08.08.16.08.23,0,.56-.62,1.04-1.31,1.43-2.06Z" style="fill: #fff;"/>
        <path d="M50.94,213.68c.39,0,.72.14.98.41s.4.6.4.97v6.09c0,.12.03.23.09.33.89,1.39,2.55,2.13,4.97,2.23,1.2.05,2.46.07,3.77.07,2.11,0,4.34-.06,6.7-.19h.07c.28,0,.51.12.68.35.12.17.19.35.19.54,0,.09-.02.2-.05.3l-.05.14c-.12.41-.34.74-.66,1s-.67.39-1.08.41c-1.92.06-3.72.09-5.39.09-1.52,0-2.92-.02-4.22-.07-1.42-.06-2.62-.29-3.6-.68s-1.81-1.01-2.5-1.85c-.08-.09-.16-.1-.23-.02-.69.67-1.35,1.29-1.99,1.85-.2.19-.43.28-.68.28-.08,0-.16-.02-.23-.05-.34-.06-.59-.25-.73-.56l-.16-.35c-.11-.22-.16-.44-.16-.66,0-.16.02-.3.07-.45.11-.38.32-.68.63-.91.61-.42,1.18-.86,1.71-1.31.09-.08.14-.18.14-.3v-4.88c0-.11-.06-.16-.19-.16h-1.2c-.36,0-.67-.13-.93-.39s-.39-.57-.39-.93.13-.67.39-.93.57-.39.93-.39h2.7ZM52.11,207.7c.22.23.33.51.33.82,0,.06,0,.12-.02.19-.05.38-.23.68-.54.91l-.14.12c-.25.17-.51.26-.77.26-.08,0-.16,0-.23-.02-.36-.05-.66-.22-.89-.52-.5-.62-1.1-1.27-1.8-1.95-.23-.23-.35-.51-.35-.82,0-.39.15-.7.45-.91.3-.23.64-.35,1.03-.35h.05c.41.02.76.16,1.05.42.72.64,1.34,1.26,1.85,1.85ZM56.26,208.66c-.03-.09-.03-.18.01-.27s.11-.14.2-.15h-2.04c-.3,0-.55-.11-.77-.33s-.33-.48-.33-.79.11-.57.33-.79.48-.33.77-.33h4.85c.12,0,.19-.05.19-.16v-.09c0-.39.13-.72.4-.98s.59-.4.97-.4.71.13.97.4.4.59.4.98v.09c0,.11.06.16.19.16h5.2c.3,0,.55.11.77.33s.33.48.33.79-.11.57-.33.79-.48.33-.77.33h-1.5c-.11,0-.19.05-.23.14-.2.39-.44.85-.7,1.38-.03.03-.04.06-.01.09s.06.05.11.05h1.55c.39,0,.72.14.98.41s.4.6.4.97v8.93c0,.59-.07,1.05-.2,1.38s-.39.6-.76.82c-.44.2-1.05.33-1.85.38h-.09c-.34,0-.66-.12-.96-.35-.31-.25-.54-.57-.68-.96-.05-.12-.09-.26-.14-.4-.03-.11-.11-.16-.23-.16h-3.49s-.07.03-.07.09c0,.17-.06.32-.19.45s-.28.19-.47.19h-.33c-.27,0-.49-.09-.68-.28s-.28-.42-.28-.7v-2.91c0-.39.13-.72.4-.98s.59-.4.98-.4h.66c.11,0,.16-.06.16-.19v-.96c0-.12-.05-.19-.16-.19h-1.78c-.23,0-.44-.08-.61-.25s-.26-.37-.26-.61.09-.45.26-.61.38-.25.61-.25h1.78c.11,0,.16-.06.16-.19v-.89c0-.12-.05-.19-.16-.19h-3.09c-.11,0-.16.06-.16.19v9.19c0,.36-.13.66-.39.91s-.56.38-.91.38-.65-.12-.9-.38-.38-.55-.38-.91v-10.15c0-.38.14-.7.41-.97s.6-.41.97-.41h1.17s.09-.02.12-.05.04-.07.02-.12c-.09-.38-.23-.73-.4-1.08ZM59.26,209.74c.03.11.1.16.21.16h2.84c.12,0,.2-.05.23-.16.12-.3.3-.74.52-1.34.02-.05,0-.09-.02-.12s-.06-.05-.09-.05h-4.05s-.06.02-.08.05-.03.06-.01.09c.23.47.39.92.47,1.36ZM62.12,219.3c.11,0,.16-.06.16-.19v-.96c0-.12-.05-.19-.16-.19h-2.25c-.11,0-.16.06-.16.19v.96c0,.12.05.19.16.19h2.25ZM65.59,220.15v-7.9c0-.12-.06-.19-.19-.19h-3.21c-.12,0-.19.06-.19.19v.89c0,.12.06.19.19.19h1.78c.23,0,.44.08.61.25s.26.37.26.61-.09.45-.26.61-.38.25-.61.25h-1.78c-.12,0-.19.06-.19.19v.96c0,.12.06.19.19.19h.68c.39,0,.72.13.98.4s.4.59.4.98v2.6c0,.12.06.19.19.19h.77c.14-.02.24-.05.29-.11s.08-.15.08-.29Z" style="fill: #fff;"/>
        <path d="M81.89,205.52c.56-.75,1.28-1.12,2.16-1.12h.19c.89,0,1.63.37,2.23,1.1,1.09,1.38,2.35,2.63,3.77,3.77s2.89,2.08,4.41,2.81c.3.14.48.38.56.73.02.09.02.18.02.26,0,.23-.07.45-.21.63-.08.11-.16.23-.23.35-.22.31-.52.52-.89.63-.12.03-.25.05-.38.05-.23,0-.46-.06-.68-.19-.75-.44-1.52-.94-2.32-1.5-.03-.03-.06-.04-.09-.02s-.05.05-.05.09v.09c0,.38-.14.7-.41.97s-.6.41-.97.41h-9.19c-.38,0-.7-.14-.97-.41s-.41-.6-.41-.97v-.12s-.02-.08-.05-.09-.06,0-.09.02c-.73.53-1.52,1.05-2.37,1.55-.23.14-.47.21-.7.21-.12,0-.25-.02-.38-.05-.36-.09-.66-.3-.89-.61-.05-.05-.09-.1-.12-.16-.17-.2-.26-.43-.26-.68,0-.08,0-.16.02-.23.06-.33.24-.58.54-.75,1.52-.86,2.96-1.89,4.32-3.11s2.51-2.43,3.43-3.67ZM78.21,226.8c-.38,0-.7-.13-.97-.4s-.41-.59-.41-.98v-7.08c0-.38.14-.7.41-.97s.6-.41.97-.41h12.47c.38,0,.7.14.97.41s.41.6.41.97v7.08c0,.39-.14.72-.41.98s-.6.4-.97.4h-.77c-.22,0-.4-.08-.55-.23s-.22-.34-.22-.56c0-.06-.03-.09-.09-.09h-9.28c-.08,0-.12.03-.12.09,0,.22-.07.41-.22.56s-.33.23-.55.23h-.66ZM79.64,211.97s-.02.04-.01.06.03.04.06.04h9.33s.05-.01.06-.04,0-.04-.01-.06c-2-1.58-3.56-3.12-4.69-4.62-.02-.05-.05-.07-.09-.07s-.08.02-.09.07c-1.12,1.55-2.64,3.09-4.55,4.62ZM89.13,219.66c0-.11-.06-.16-.19-.16h-9.12c-.12,0-.19.05-.19.16v3.56c0,.12.06.19.19.19h9.12c.12,0,.19-.06.19-.19v-3.56Z" style="fill: #fff;"/>
        <path d="M104,205.76c.14-.36.38-.62.73-.8.22-.11.44-.16.66-.16.14,0,.28.02.42.07l.07.02c.36.11.62.34.77.68.09.17.14.35.14.54,0,.16-.03.31-.09.47-.52,1.22-1.08,2.38-1.69,3.49-.06.11-.09.22-.09.33v14.98c0,.38-.13.7-.4.96s-.59.4-.96.4-.7-.13-.97-.4-.41-.59-.41-.96v-10.73s-.01-.05-.04-.06-.04,0-.06.04c-.19.25-.38.5-.59.75-.17.2-.38.3-.63.3h-.16c-.31-.05-.54-.22-.68-.52l-.28-.52c-.16-.3-.23-.61-.23-.94,0-.06,0-.13.02-.21.03-.41.18-.77.45-1.08,1.62-1.91,2.97-4.12,4.03-6.66ZM118.88,211.48c.02-.11-.03-.16-.14-.16h-2.88c-.11,0-.16.05-.16.16v12.12c0,.72-.08,1.28-.23,1.69s-.45.73-.87.96c-.52.28-1.23.45-2.16.52h-.12c-.34,0-.65-.11-.91-.33-.33-.25-.55-.57-.68-.96l-.09-.28c-.05-.11-.07-.22-.07-.33,0-.19.05-.36.16-.52.17-.27.41-.4.73-.4h.98c.16,0,.27-.03.33-.08s.09-.16.09-.32v-12.07c0-.11-.05-.16-.16-.16h-2.44c-.12,0-.21.05-.26.14-.42.86-.88,1.66-1.36,2.39-.2.31-.49.48-.87.52-.05.02-.09.02-.14.02-.31,0-.59-.11-.84-.33-.06-.05-.12-.09-.16-.12-.28-.23-.45-.54-.49-.91-.02-.06-.02-.12-.02-.19,0-.3.09-.57.26-.82,1.16-1.66,2.11-3.73,2.86-6.21.11-.38.33-.66.66-.87.23-.14.48-.21.75-.21.09,0,.2.02.3.05h.09c.38.09.66.3.84.61.12.22.19.44.19.66,0,.12-.02.25-.05.38-.2.66-.44,1.35-.7,2.09-.02.03-.01.07.01.11s.06.06.11.06h8.13c.14-.03.28-.05.42-.05.12,0,.26,0,.4.02l.59.12c.28.06.51.21.68.45.12.17.19.37.19.59v.19c-.2,1.2-.41,2.32-.61,3.35-.08.33-.26.59-.54.77-.22.16-.46.23-.73.23-.06,0-.14,0-.23-.02-.33-.05-.59-.21-.8-.49-.16-.22-.23-.46-.23-.73,0-.06,0-.12.02-.19.06-.48.12-.96.16-1.43ZM108.61,216.4c.09-.38.3-.66.63-.87.23-.16.48-.23.73-.23.11,0,.21,0,.3.02l.07.02c.38.08.66.27.87.59.14.22.21.45.21.68,0,.11-.02.23-.07.35-.58,2.08-1.3,3.91-2.18,5.51-.19.31-.47.51-.84.59-.09.02-.19.02-.28.02-.27,0-.52-.08-.75-.23-.03-.02-.07-.03-.12-.05-.3-.19-.48-.46-.56-.82-.03-.11-.05-.22-.05-.33,0-.23.07-.46.21-.68.73-1.25,1.34-2.77,1.83-4.57ZM117.1,216.89c-.08-.16-.12-.31-.12-.47,0-.17.04-.34.12-.52.14-.33.38-.55.73-.66.17-.06.34-.09.49-.09.2,0,.4.04.59.12.36.16.62.41.77.75.77,1.75,1.35,3.5,1.76,5.25.03.12.05.24.05.35,0,.25-.07.5-.21.75-.2.34-.49.58-.87.7l-.12.05c-.12.05-.25.07-.38.07-.2,0-.4-.06-.59-.19-.31-.19-.51-.45-.59-.8-.36-1.72-.91-3.49-1.64-5.32Z" style="fill: #fff;"/>
        <path d="M141.04,207.89s0,.09.02.12.06.05.09.05h5.23c.38,0,.7.14.96.42.27.25.4.55.4.91,0,3.86-.19,7.73-.56,11.62-.2,2.16-.54,3.54-1.01,4.15-.31.42-.64.73-1,.91s-.79.33-1.3.42c-.45.06-1.08.09-1.88.09-.16,0-.33,0-.52-.02-.39,0-.73-.13-1.03-.4s-.51-.59-.63-.98c-.02-.06-.04-.12-.07-.19-.03-.11-.05-.21-.05-.3,0-.17.05-.34.14-.49.16-.23.38-.35.66-.35h.05c.64.03,1.38.05,2.2.05.42,0,.77-.13,1.05-.4.33-.38.59-1.52.77-3.42s.35-4.99.49-9.26c0-.11-.06-.16-.19-.16h-4.78c-.11,0-.19.05-.23.16-.39.88-.82,1.7-1.29,2.48-.19.31-.47.49-.84.54-.08.02-.16.02-.23.02-.28,0-.54-.09-.77-.26-.17-.12-.38-.26-.61-.4-.03-.03-.06-.04-.09-.01s-.05.05-.05.08v9.66c0,.38-.14.7-.41.97s-.6.41-.97.41h-4.85c-.12,0-.19.05-.19.16v.28c0,.36-.12.66-.38.91s-.55.38-.91.38-.66-.12-.91-.38-.38-.55-.38-.91v-15.14c0-.39.13-.72.4-.98s.59-.4.98-.4h1.15c.12,0,.2-.06.21-.19.2-.75.37-1.52.49-2.32.06-.38.24-.68.54-.91.23-.19.5-.28.8-.28.06,0,.13,0,.21.02l.38.05c.36.05.63.23.82.54.11.19.16.38.16.56,0,.12-.02.26-.07.4-.25.72-.49,1.38-.73,1.97-.02.03-.01.07.01.11s.06.06.11.06h2.16c.38,0,.7.13.97.4s.41.59.41.98v2.32s.01.05.04.06.04,0,.06-.04c1.11-1.64,2.04-3.72,2.79-6.23.11-.38.33-.66.66-.87.22-.14.45-.21.7-.21.11,0,.23.02.35.05.38.09.66.3.87.61.12.22.19.44.19.66,0,.12-.02.25-.07.38-.12.45-.3.97-.52,1.55ZM133.21,214.62c.11,0,.16-.06.16-.19v-3.52c0-.12-.05-.19-.16-.19h-3.47c-.12,0-.19.06-.19.19v3.52c0,.12.06.19.19.19h3.47ZM129.55,221.62c0,.11.06.16.19.16h3.47c.11,0,.16-.05.16-.16v-4.36c0-.12-.05-.19-.16-.19h-3.47c-.12,0-.19.06-.19.19v4.36ZM143.08,217.8c.14.23.21.47.21.7,0,.12-.02.24-.05.35-.09.38-.31.66-.66.87l-.07.05c-.2.12-.41.19-.63.19-.12,0-.25-.02-.38-.05-.34-.11-.61-.33-.8-.66-.52-.91-1.18-1.98-1.99-3.23-.12-.2-.19-.42-.19-.66,0-.09,0-.19.02-.28.08-.34.27-.6.56-.77.23-.12.47-.19.7-.19.11,0,.22,0,.33.02.34.08.62.27.84.56.86,1.22,1.55,2.25,2.09,3.09Z" style="fill: #fff;"/>
        <path d="M165.09,222.58c0,.12.06.19.19.19h7.73c.38,0,.7.14.97.41s.41.6.41.97v.02c0,.38-.14.7-.41.97s-.6.41-.97.41h-18.82c-.38,0-.7-.14-.97-.41s-.41-.6-.41-.97v-.02c0-.38.14-.7.41-.97s.6-.41.97-.41h7.71c.12,0,.19-.06.19-.19v-4.45c0-.12-.06-.19-.19-.19h-4.95c-.38,0-.7-.14-.97-.41s-.41-.6-.41-.97.14-.7.41-.97.6-.41.97-.41h4.95c.12,0,.19-.06.19-.19v-3.84c0-.12-.06-.19-.19-.19h-4.59c-.12,0-.22.05-.28.16-.45.84-.89,1.58-1.31,2.2-.22.31-.52.49-.91.54-.08.02-.15.02-.21.02-.31,0-.59-.09-.84-.26l-.23-.19c-.3-.19-.48-.46-.54-.82-.02-.08-.02-.16-.02-.23,0-.25.08-.49.23-.73.58-.78,1.12-1.69,1.62-2.72.55-1.12,1.01-2.28,1.38-3.47.11-.38.34-.66.68-.87.22-.14.46-.21.73-.21.11,0,.22.02.33.05l.23.05c.38.08.66.28.84.61.12.2.19.41.19.61,0,.14-.02.27-.07.4-.19.56-.41,1.2-.66,1.9-.02.05-.01.09.01.12s.06.05.11.05h3.35c.11,0,.16-.05.16-.16v-2.77c0-.38.14-.7.41-.97s.6-.41.97-.41h.23c.38,0,.7.14.97.41s.41.6.41.97v2.77c0,.11.06.16.19.16h6.52c.38,0,.7.14.97.41s.41.6.41.97v.02c0,.38-.14.7-.41.97s-.6.41-.97.41h-6.52c-.12,0-.19.06-.19.19v3.84c0,.12.06.19.19.19h5.6c.38,0,.7.14.97.41s.41.6.41.97-.14.7-.41.97-.6.41-.97.41h-5.6c-.12,0-.19.06-.19.19v4.45Z" style="fill: #fff;"/>
        <path d="M183.69,212.88c.34.17.55.45.63.82.03.09.05.2.05.3,0,.25-.08.48-.23.7l-.05.07c-.2.31-.49.51-.87.59-.11.03-.22.05-.33.05-.25,0-.49-.07-.73-.21-.56-.34-1.28-.76-2.16-1.24-.31-.16-.5-.41-.56-.75-.03-.09-.05-.18-.05-.26,0-.23.08-.45.23-.66.22-.31.51-.52.87-.61.14-.03.27-.05.4-.05.23,0,.46.05.68.16.88.44,1.58.8,2.11,1.08ZM182.33,225.35c-.2.31-.48.5-.84.56h-.21c-.28,0-.53-.09-.75-.26l-.26-.21c-.3-.25-.48-.56-.54-.94-.02-.08-.02-.16-.02-.23,0-.3.09-.58.26-.84,1.11-1.66,2.16-3.39,3.14-5.2.17-.3.43-.48.77-.54.06-.02.12-.02.19-.02.27,0,.5.09.7.28l.05.05c.31.28.5.62.56,1.03.03.11.05.22.05.33,0,.28-.07.55-.21.82-.97,1.84-1.93,3.57-2.88,5.18ZM184.86,206.37c.33.19.53.46.61.82.02.09.02.19.02.28,0,.25-.09.49-.26.73l-.07.07c-.22.31-.52.5-.89.56-.09.02-.19.02-.28.02-.28,0-.55-.08-.8-.23-.5-.31-1.19-.72-2.06-1.22-.31-.17-.5-.43-.56-.77-.02-.08-.02-.16-.02-.23,0-.25.08-.48.23-.68.23-.3.54-.49.91-.59.12-.02.24-.02.35-.02.25,0,.49.05.73.16.83.44,1.52.8,2.09,1.1ZM200.68,211.73c.27.27.4.59.4.96s-.13.7-.4.96-.59.4-.96.4h-4.55c-.12,0-.19.06-.19.19v2.67c0,.11.06.16.19.16h3.33c.38,0,.7.14.97.41s.41.6.41.97v6.84c0,.38-.13.7-.4.96s-.59.4-.96.4h-.59c-.22,0-.4-.07-.55-.22s-.22-.33-.22-.55c0-.06-.03-.09-.09-.09h-7.01c-.08,0-.12.04-.12.12,0,.23-.09.44-.26.61s-.38.26-.61.26h-.42c-.34,0-.64-.12-.9-.38s-.39-.55-.39-.91v-7.03c0-.38.14-.7.41-.97s.6-.41.97-.41h3.35c.11,0,.16-.05.16-.16v-2.67c0-.12-.05-.19-.16-.19h-4.85c-.38,0-.7-.13-.96-.4s-.4-.59-.4-.96.13-.7.4-.96.59-.4.96-.4h4.85c.11,0,.16-.06.16-.19v-2.46c0-.11-.05-.16-.16-.14-.95.14-2.03.27-3.23.4h-.14c-.3,0-.57-.09-.82-.26-.3-.22-.51-.51-.63-.87-.03-.11-.05-.23-.05-.35,0-.17.05-.34.14-.52.16-.28.4-.44.73-.47,3.5-.41,6.37-.96,8.6-1.66.23-.08.47-.12.7-.12.17,0,.34.02.52.07.42.09.77.29,1.05.59l.28.28c.17.17.26.37.26.59,0,.08,0,.16-.02.23-.08.31-.27.52-.56.61-1.11.36-2.37.67-3.77.94-.11.02-.16.09-.16.21v2.93c0,.12.06.19.19.19h4.55c.38,0,.7.13.96.4ZM197,223.22c.11,0,.16-.06.16-.19v-3.19c0-.11-.05-.16-.16-.16h-6.87c-.12,0-.19.05-.19.16v3.19c0,.12.06.19.19.19h6.87Z" style="fill: #fff;"/>
        <path d="M212.13,209.13c.89,0,1.47.02,1.73.07.23.03.43.14.59.34s.23.42.21.67c-.3,3.88-.93,7.06-1.9,9.56-.05.11-.02.2.07.28.59.48,1.1.94,1.52,1.36.31.3.47.66.47,1.1,0,.39-.12.73-.35,1.03l-.07.09c-.2.27-.48.41-.82.42h-.05c-.33,0-.61-.12-.84-.38-.31-.33-.68-.7-1.1-1.1-.09-.08-.17-.07-.23.02-.88,1.36-1.92,2.52-3.14,3.47-.22.16-.45.23-.7.23-.09,0-.19,0-.28-.02-.38-.08-.67-.27-.89-.59-.02-.03-.03-.05-.05-.07-.17-.22-.26-.46-.26-.73,0-.08,0-.15.02-.21.05-.34.21-.62.49-.84,1.02-.77,1.9-1.78,2.65-3.05.06-.09.05-.18-.05-.26-.25-.2-.61-.48-1.08-.82-.05-.03-.08-.02-.09.05-.05.16-.15.27-.3.34s-.31.07-.47-.01l-.56-.28c-.34-.19-.59-.45-.75-.8-.09-.22-.14-.45-.14-.68,0-.14.02-.28.05-.42.41-1.61.85-3.61,1.34-6,.03-.11-.02-.16-.14-.16h-.38c-.36,0-.67-.13-.93-.39s-.39-.57-.39-.93.13-.67.39-.93.57-.39.93-.39h.89c.11,0,.18-.05.21-.16.22-1.22.41-2.3.56-3.26.06-.36.24-.66.54-.89.27-.2.56-.3.89-.3h.12c.38.03.67.19.89.47.17.23.26.48.26.75,0,.06,0,.14-.02.23-.17.94-.37,1.94-.59,3-.02.11.04.16.16.16h1.59ZM211.85,211.94c.02-.12-.04-.19-.16-.19h-1.71c-.12,0-.2.05-.21.16-.27,1.33-.62,2.97-1.08,4.92-.03.11,0,.2.12.26.77.52,1.26.85,1.48,1.01.09.08.16.05.21-.07.61-1.67,1.06-3.7,1.36-6.09ZM226.24,213.87c.38,0,.69.13.95.4s.39.58.39.95-.13.68-.39.95-.57.4-.95.4h-3.77c-.11,0-.16.05-.16.16v6.87c0,.75-.09,1.32-.26,1.72s-.48.71-.94.93c-.62.28-1.5.45-2.62.49-.03.02-.05.02-.07.02-.38,0-.71-.12-1.01-.35-.33-.25-.56-.58-.7-.98-.03-.06-.05-.13-.07-.21-.05-.11-.07-.23-.07-.35,0-.16.05-.32.14-.49.17-.25.41-.38.73-.38h.02c.41.02.74.02,1.01.02.22,0,.38,0,.49-.02.2,0,.34-.03.41-.08s.11-.17.11-.34v-6.84c0-.11-.05-.16-.16-.16h-3.56c-.36,0-.67-.13-.94-.4s-.4-.58-.4-.95.13-.68.4-.95.58-.4.94-.4h3.56c.11,0,.16-.05.16-.16v-1.83c0-.22.08-.41.23-.56s.34-.23.56-.23c.06,0,.12-.02.16-.07.75-.78,1.46-1.66,2.13-2.65.02-.03.02-.06,0-.09s-.04-.05-.07-.05h-5.98c-.36,0-.67-.13-.93-.39s-.39-.57-.39-.94.13-.68.39-.94.57-.39.93-.39h7.99s.09,0,.14-.02c.11-.03.21-.05.3-.05.23,0,.45.07.63.21l.52.4c.27.2.42.46.47.77.02.08.02.15.02.21,0,.25-.08.48-.23.68-1.33,1.84-2.64,3.38-3.94,4.62-.08.08-.12.17-.12.28v1.03c0,.11.05.16.16.16h3.77Z" style="fill: #fff;"/>
        <path d="M251.86,215.86c.11-.03.22-.05.33-.05.19,0,.38.04.56.12l.45.14c.25.09.44.26.56.49.06.14.09.29.09.45,0,.09-.02.19-.05.28-.73,2.36-1.88,4.27-3.42,5.74s-3.47,2.6-5.77,3.4c-.17.05-.34.07-.49.07-.2,0-.41-.04-.61-.12-.38-.16-.66-.41-.87-.77-.11-.19-.16-.38-.16-.57s.06-.38.19-.54.29-.28.49-.34c1.39-.42,2.62-.98,3.68-1.69.09-.06.1-.14.02-.23-.52-.59-1.16-1.2-1.95-1.83-.09-.06-.19-.06-.28,0-.02,0-.03,0-.05.02-.22.12-.45.19-.68.19-.09,0-.19,0-.28-.02-.34-.08-.64-.25-.89-.52-.14-.17-.29-.33-.45-.47-.11-.09-.16-.22-.14-.38s.09-.27.23-.33v-.04s0-.01-.02-.01h-3.49c-.06,0-.09.03-.09.08s.02.1.07.13c.81.53,1.89,1.3,3.23,2.3.31.23.49.55.54.94.02.08.02.15.02.21,0,.3-.09.58-.28.84l-.05.07c-.2.28-.48.43-.82.45h-.07c-.33,0-.6-.12-.82-.38-.53-.58-1.1-1.16-1.71-1.76-.02-.02-.04-.02-.07-.01s-.05.03-.05.06v3.63c0,.38-.13.69-.39.95s-.57.39-.94.39-.68-.13-.95-.39-.4-.57-.4-.95v-3.52s-.01-.05-.04-.06-.04,0-.06.01c-.84,1.33-1.7,2.43-2.55,3.3-.19.17-.39.26-.61.26-.08,0-.16,0-.23-.02-.33-.09-.56-.3-.7-.61-.03-.08-.07-.16-.12-.26-.11-.23-.16-.48-.16-.75,0-.12.02-.25.05-.38.08-.39.27-.72.56-.98,1.09-.98,2.05-2.12,2.88-3.42.03-.03.04-.06.01-.09s-.05-.05-.08-.05h-1.9c-.34,0-.64-.12-.89-.36s-.38-.54-.38-.89.12-.65.38-.89.55-.36.89-.36h2.79c.11,0,.16-.06.16-.19v-1.1c0-.12-.05-.19-.16-.19h-2.04c-.39,0-.72-.13-.98-.4s-.4-.59-.4-.98v-6.77c0-.39.13-.72.4-.98s.59-.4.98-.4h7.31c.38,0,.7.13.97.4s.41.59.41.98v2.18s.02.05.05.07.06.02.09,0c1.34-.97,2.43-2.11,3.26-3.42.22-.33.5-.59.84-.77.27-.12.53-.19.8-.19.09,0,.2,0,.3.02l.12.02c.3.05.51.2.63.47.08.12.12.25.12.38,0,.14-.05.28-.14.42-.02.03-.02.06,0,.08s.04.04.07.04h1.99c.75,0,1.36.09,1.83.28.25.09.44.26.56.49.06.14.09.28.09.42,0,.11-.02.22-.05.33-.89,2.67-2.4,4.83-4.52,6.47-.03.02-.04.04-.04.07s.03.05.06.07h.09c.34.06.59.25.73.56.06.14.09.27.09.4,0,.17-.05.34-.14.49-.03.03-.05.07-.07.12-.03.03-.04.06-.01.09s.05.05.08.05h2.41ZM235.01,207.61c-.12,0-.19.05-.19.16v1.12c0,.11.06.16.19.16h1.15c.12,0,.19-.05.19-.16v-1.12c0-.11-.06-.16-.19-.16h-1.15ZM235.01,211.17c-.12,0-.19.06-.19.19v1.08c0,.12.06.19.19.19h1.15c.12,0,.19-.06.19-.19v-1.08c0-.12-.06-.19-.19-.19h-1.15ZM238.55,208.9c0,.11.05.16.16.16h1.31c.11,0,.16-.05.16-.16v-1.12c0-.11-.05-.16-.16-.16h-1.31c-.11,0-.16.05-.16.16v1.12ZM238.55,212.44c0,.12.05.19.16.19h1.31c.11,0,.16-.06.16-.19v-1.08c0-.12-.05-.19-.16-.19h-1.31c-.11,0-.16.06-.16.19v1.08ZM241.43,216.35c.39,0,.72.13.98.4s.4.59.4.98v.73s.02.08.05.09.07.02.12,0c1.44-.86,2.62-1.9,3.54-3.12.02-.03.02-.05,0-.07s-.03-.02-.05,0c-.42.2-.84.4-1.27.59-.2.08-.41.12-.61.12-.17,0-.34-.03-.52-.09-.38-.12-.69-.35-.94-.68-.17-.23-.34-.45-.52-.63h-.02c0,.14-.07.21-.21.21h-3.42c-.12,0-.19.06-.19.19v1.1c0,.12.06.19.19.19h2.46ZM242.7,210.56s-.04-.02-.06-.01-.04.03-.04.06v3.63s.02.08.05.11.07.04.12.04c1.48-.47,2.83-1.17,4.03-2.11.09-.08.1-.16.02-.23-.45-.48-1.04-1.01-1.76-1.57-.09-.06-.19-.06-.28,0-.11.11-.23.21-.38.3-.2.16-.43.23-.68.23h-.19c-.33-.05-.61-.2-.84-.45ZM249.96,208.38s.01-.06-.01-.09-.05-.05-.08-.05h-2.62c-.12,0-.23.04-.3.12-.02.03-.05.08-.11.14s-.09.1-.11.12c-.08.09-.07.17.02.23.66.47,1.26.95,1.8,1.45.09.08.18.07.26-.02.45-.61.84-1.24,1.15-1.9ZM250.53,218.3s.01-.07-.01-.11-.06-.06-.11-.06h-2.84c-.11,0-.21.05-.3.14-.05.05-.12.11-.21.2s-.16.15-.21.2c-.08.08-.07.16.02.23.75.56,1.4,1.11,1.95,1.64.08.08.16.07.23-.02.58-.66,1.07-1.4,1.48-2.23Z" style="fill: #fff;"/>
        <path d="M262.77,205.69c.16-.36.41-.62.75-.77.2-.09.41-.14.63-.14.14,0,.29.02.45.07h.02c.36.12.61.35.75.68.08.17.12.34.12.52s-.03.34-.09.52c-.52,1.14-1.05,2.21-1.62,3.21-.05.09-.07.2-.07.33v15.26c0,.38-.13.7-.4.96s-.59.4-.96.4-.7-.13-.96-.4-.4-.59-.4-.96v-11.13s-.02-.05-.05-.06-.05,0-.07.01c-.3.38-.61.75-.94,1.12-.17.19-.38.28-.63.28h-.16c-.33-.06-.56-.24-.7-.54-.08-.16-.16-.3-.23-.45-.14-.28-.21-.58-.21-.89v-.26c.05-.41.2-.76.47-1.05,1.72-1.91,3.16-4.14,4.31-6.7ZM279.08,217.78c.36,0,.67.13.93.39s.39.57.39.94-.13.68-.39.94-.57.39-.93.39h-4.92c-.11,0-.16.05-.16.16v4.8c0,.39-.14.72-.41.98s-.6.4-.97.4h-.12c-.38,0-.7-.13-.97-.4s-.41-.59-.41-.98v-4.8c0-.11-.06-.16-.19-.16h-4.8c-.36,0-.67-.13-.93-.39s-.39-.57-.39-.94.13-.68.39-.94.57-.39.93-.39h4.8c.12,0,.19-.05.19-.16v-2.91c0-.11-.06-.16-.19-.16h-3.84c-.36,0-.67-.13-.93-.39s-.39-.57-.39-.94.13-.68.39-.94.57-.39.93-.39h3.84c.12,0,.19-.05.19-.16v-5.67c0-.38.14-.7.41-.97s.6-.41.97-.41h.12c.38,0,.7.14.97.41s.41.6.41.97v5.67c0,.11.05.16.16.16h3.96c.36,0,.67.13.93.39s.39.57.39.94-.13.68-.39.94-.57.39-.93.39h-3.96c-.11,0-.16.05-.16.16v2.91c0,.11.05.16.16.16h4.92ZM269.71,209.2c.05.16.07.31.07.47,0,.2-.05.41-.16.63-.17.34-.45.59-.82.75-.14.06-.29.09-.45.09-.17,0-.35-.05-.54-.14-.31-.17-.52-.43-.63-.77-.25-.84-.57-1.72-.96-2.62-.08-.16-.12-.32-.12-.49,0-.14.03-.29.09-.45.12-.33.35-.55.68-.66.17-.06.34-.09.52-.09s.34.03.52.09c.34.12.59.35.75.68.42.86.77,1.7,1.05,2.51ZM276.6,206.69c.11-.36.34-.62.68-.8.19-.09.38-.14.59-.14.14,0,.29.02.45.07l.28.09c.34.12.59.36.73.7.08.16.12.31.12.47,0,.19-.05.37-.14.54-.5,1.05-.95,1.96-1.36,2.74-.17.31-.43.53-.77.66-.16.05-.31.07-.47.07-.17,0-.34-.03-.52-.09-.33-.12-.55-.35-.66-.68-.06-.14-.09-.29-.09-.45s.04-.32.12-.49c.39-.91.74-1.8,1.05-2.7Z" style="fill: #fff;"/>
        <path d="M289.56,224.37c-.43.44-.95.66-1.57.66s-1.14-.22-1.56-.66-.63-.98-.63-1.64.21-1.2.63-1.64.94-.66,1.56-.66,1.14.22,1.57.67.64.99.64,1.64-.21,1.19-.64,1.63ZM288.82,218.32c-.23.22-.51.33-.83.33s-.6-.11-.83-.33-.37-.49-.4-.82l-.42-7.71-.07-1.95c-.02-.38.11-.7.36-.97s.58-.41.97-.41h.77c.38,0,.7.14.96.41s.39.6.38.97l-.07,1.95-.45,7.71c-.02.33-.14.6-.38.82Z" style="fill: #fff;"/>
        <path d="M309.91,211.57c.38,0,.7.13.97.4s.41.59.41.98v12.56c0,.39-.14.72-.41.98s-.6.4-.97.4h-5.3c-.36,0-.66-.12-.91-.38s-.38-.55-.38-.91.12-.66.38-.91.55-.38.91-.38h3.63c.12,0,.19-.06.19-.19v-11.18c0-.39.13-.72.4-.98s.59-.4.98-.4h.09Z" style="fill: #fff;"/>
      </g>
    </g>
  </g>
</svg>