<?xml version="1.0" encoding="UTF-8"?>
<svg id="_圖層_2" data-name="圖層 2" xmlns="http://www.w3.org/2000/svg" width="155.61" height="154.99" viewBox="0 0 155.61 154.99">
  <g id="_設計" data-name="設計">
    <g>
      <path d="M92.55,9.18l2.28.43c-.08.78.03,1.41.34,1.87.31.47.81.8,1.5,1,.73.21,1.33.22,1.79.01.46-.2.75-.51.87-.93.08-.27.06-.52-.04-.75-.1-.23-.33-.47-.68-.73-.24-.17-.8-.51-1.68-1.02-1.13-.66-1.88-1.28-2.25-1.86-.51-.82-.64-1.68-.38-2.57.17-.57.49-1.06.96-1.47.47-.41,1.05-.65,1.74-.73s1.47,0,2.33.25c1.42.41,2.39,1.03,2.93,1.86.54.83.67,1.77.41,2.81l-2.31-.56c.07-.61-.02-1.08-.26-1.43-.25-.35-.69-.61-1.33-.8-.66-.19-1.22-.21-1.67-.04-.29.1-.48.3-.56.59-.08.27-.03.53.14.78.22.32.84.78,1.87,1.36,1.03.58,1.77,1.09,2.22,1.52.45.43.75.94.91,1.51.16.57.14,1.21-.07,1.93-.19.65-.54,1.2-1.06,1.66s-1.15.73-1.89.82c-.74.08-1.59-.02-2.57-.3-1.43-.41-2.42-1.06-3-1.94-.57-.88-.75-1.97-.53-3.28Z" style="fill: #c7b79f;"/>
      <path d="M107.34,18.58l4.53-8.64-3.08-1.62.92-1.76,8.26,4.33-.92,1.76-3.08-1.61-4.53,8.64-2.1-1.1Z" style="fill: #c7b79f;"/>
      <path d="M123.39,29.57l-2.02-1.61.86-2.72-3.67-2.92-2.42,1.48-1.97-1.57,10.89-6.34,1.96,1.56-3.63,12.11ZM122.87,23.22l1.45-4.42-3.95,2.42,2.51,1.99Z" style="fill: #c7b79f;"/>
      <path d="M126.04,32.6l8.73-7.85,1.58,1.76-8.72,7.85-1.59-1.76Z" style="fill: #c7b79f;"/>
      <path d="M130.96,38.26l9.91-6.3,1.24,1.95-4.04,8.26,6.62-4.21,1.18,1.86-9.91,6.3-1.28-2.01,3.92-8.1-6.46,4.11-1.18-1.86Z" style="fill: #c7b79f;"/>
      <path d="M138.23,50.88l10.9-4.09.83,2.22-9.05,3.4,2.07,5.52-1.85.7-2.9-7.74Z" style="fill: #c7b79f;"/>
      <path d="M142.24,62.89l11.59-1.85,1.37,8.6-1.96.31-1-6.25-2.57.41.93,5.82-1.95.31-.93-5.82-3.16.5,1.03,6.48-1.95.31-1.4-8.82Z" style="fill: #c7b79f;"/>
      <path d="M147.71,76.04l.12,2.31c-.78.1-1.36.36-1.74.76-.38.41-.59.97-.62,1.69-.04.76.1,1.34.4,1.75.3.4.67.61,1.1.63.28.01.52-.06.72-.21.2-.15.39-.43.55-.83.11-.27.31-.9.6-1.87.38-1.25.8-2.13,1.29-2.62.68-.69,1.48-1.01,2.41-.97.6.03,1.15.22,1.65.59s.88.87,1.12,1.52c.24.65.34,1.43.3,2.33-.07,1.47-.44,2.56-1.12,3.28-.68.71-1.56,1.06-2.64,1.05v-2.37c.62-.07,1.06-.27,1.34-.59.28-.32.44-.81.47-1.48.03-.69-.08-1.23-.35-1.64-.17-.26-.41-.4-.71-.41-.28-.01-.52.09-.73.32-.26.29-.56,1-.89,2.14-.33,1.14-.65,1.98-.96,2.52-.32.54-.73.95-1.25,1.24s-1.15.42-1.89.38c-.67-.03-1.29-.25-1.86-.65-.57-.4-.98-.95-1.23-1.65s-.36-1.55-.31-2.57c.07-1.48.47-2.6,1.19-3.37.72-.76,1.74-1.19,3.06-1.28Z" style="fill: #c7b79f;"/>
      <path d="M146.54,90.44l-.36,2.29c-.78-.06-1.4.07-1.86.39-.46.32-.78.83-.96,1.53-.19.74-.18,1.34.03,1.79.22.46.53.74.95.85.27.07.52.05.75-.06s.46-.34.71-.7c.16-.25.49-.81.97-1.71.62-1.15,1.22-1.92,1.8-2.3.81-.54,1.66-.69,2.56-.45.58.15,1.08.46,1.5.91s.68,1.03.78,1.72c.1.69.04,1.47-.19,2.34-.37,1.43-.96,2.42-1.77,2.98s-1.75.72-2.8.49l.5-2.32c.61.05,1.08-.05,1.42-.3.34-.26.59-.71.76-1.35.17-.67.17-1.22,0-1.67-.11-.29-.32-.47-.61-.55-.27-.07-.53-.02-.78.16-.32.23-.75.86-1.31,1.91-.55,1.05-1.04,1.8-1.46,2.26-.42.46-.91.78-1.48.96-.57.18-1.21.17-1.93-.02-.65-.17-1.21-.51-1.69-1.02-.47-.51-.76-1.13-.87-1.86s-.03-1.59.23-2.58c.37-1.44.99-2.45,1.86-3.05s1.95-.81,3.26-.62Z" style="fill: #c7b79f;"/>
      <path d="M138.99,111.45l-1.07,2.06c-.72-.31-1.35-.38-1.89-.22-.54.16-1,.54-1.39,1.14-.42.64-.59,1.21-.53,1.71.06.5.27.87.63,1.1.23.15.48.21.73.18.25-.03.55-.18.89-.44.23-.18.72-.62,1.46-1.31.96-.89,1.77-1.43,2.43-1.61.93-.25,1.79-.12,2.57.38.5.33.88.77,1.13,1.34.25.57.32,1.19.2,1.88s-.42,1.4-.92,2.16c-.8,1.24-1.68,1.99-2.62,2.26s-1.88.13-2.81-.42l1.2-2.04c.56.24,1.04.3,1.45.16s.79-.48,1.15-1.04c.38-.58.55-1.11.53-1.59-.02-.31-.15-.55-.41-.71-.23-.15-.5-.18-.79-.09-.37.11-.99.58-1.84,1.4-.86.82-1.56,1.38-2.1,1.68s-1.11.45-1.71.44c-.59-.01-1.2-.22-1.82-.62-.56-.37-.99-.87-1.28-1.5-.29-.63-.37-1.31-.23-2.04s.48-1.52,1.03-2.38c.81-1.25,1.72-2.01,2.73-2.31,1.01-.29,2.11-.15,3.29.44Z" style="fill: #c7b79f;"/>
      <path d="M125.71,122.9l6.97,6.83,2.44-2.49,1.42,1.39-6.53,6.66-1.42-1.39,2.43-2.48-6.97-6.83,1.66-1.69Z" style="fill: #c7b79f;"/>
      <path d="M118.32,129.78l6.59,9.71-7.2,4.89-1.12-1.64,5.24-3.56-1.46-2.15-4.88,3.31-1.11-1.64,4.88-3.31-1.79-2.64-5.43,3.68-1.11-1.64,7.39-5.02Z" style="fill: #c7b79f;"/>
      <path d="M106.73,137.01l4.45,10.86-8.05,3.3-.75-1.84,5.86-2.4-.99-2.41-5.45,2.24-.75-1.83,5.45-2.24-1.21-2.96-6.07,2.49-.75-1.83,8.26-3.39Z" style="fill: #c7b79f;"/>
      <path d="M93.85,141.67l2.17,11.44-2.33.44-1.8-9.5-5.79,1.1-.37-1.94,8.12-1.54Z" style="fill: #c7b79f;"/>
      <path d="M74.2,147.43l-2.32-.05c-.04-.79-.26-1.38-.63-1.79s-.92-.66-1.64-.75c-.76-.09-1.35,0-1.77.27s-.66.63-.71,1.06c-.03.28.02.52.16.73.14.21.4.42.79.61.26.13.87.37,1.82.74,1.22.46,2.06.96,2.52,1.47.64.73.9,1.55.79,2.47-.07.59-.31,1.13-.71,1.61-.4.48-.93.81-1.6,1-.67.19-1.45.24-2.34.13-1.46-.18-2.53-.63-3.19-1.36-.66-.73-.95-1.63-.86-2.71l2.37.18c.03.61.19,1.07.49,1.37.3.3.78.49,1.44.57.68.08,1.24,0,1.66-.23.27-.15.42-.38.46-.68.03-.28-.06-.53-.26-.75-.27-.29-.96-.63-2.07-1.04s-1.92-.79-2.44-1.14c-.51-.35-.9-.8-1.15-1.34-.25-.54-.33-1.18-.24-1.91.08-.67.34-1.27.78-1.81.44-.54,1.02-.91,1.73-1.11.71-.2,1.58-.24,2.59-.12,1.47.18,2.56.65,3.27,1.43.71.78,1.06,1.83,1.06,3.15Z" style="fill: #c7b79f;"/>
      <path d="M58.07,140.55l-3.08,9.26,3.3,1.1-.63,1.88-8.85-2.94.63-1.88,3.3,1.1,3.08-9.25,2.25.75Z" style="fill: #c7b79f;"/>
      <path d="M48.63,136.95l-5.92,10.14-4.31-2.52c-1.08-.63-1.82-1.18-2.2-1.65-.38-.47-.59-1.02-.61-1.66-.02-.64.14-1.26.49-1.86.44-.76,1.04-1.26,1.77-1.49s1.59-.16,2.55.23c-.29-.52-.49-1.01-.6-1.49-.11-.48-.18-1.25-.2-2.33l-.08-2.7,2.45,1.43.19,3.07c.07,1.09.13,1.8.21,2.12.07.32.2.58.37.78.17.2.49.44.96.72l.42.24,2.47-4.23,2.05,1.2ZM43.16,141.61l-1.51-.88c-.98-.57-1.62-.89-1.91-.95s-.57-.03-.82.09-.47.33-.65.64c-.2.34-.27.67-.21.99.06.32.24.6.54.85.15.12.64.42,1.47.91l1.6.93,1.5-2.57Z" style="fill: #c7b79f;"/>
      <path d="M28.63,121.96l1.89,1.75-1.06,2.65,3.44,3.19,2.52-1.3,1.84,1.71-11.33,5.5-1.84-1.7,4.54-11.8ZM28.68,128.34l-1.78,4.29,4.12-2.12-2.35-2.18Z" style="fill: #c7b79f;"/>
      <path d="M25.69,118.34l-8.19,8.87-1.35-2.01,5.71-5.96-7.89,2.71-1.57-2.34,5.66-6.28-7.81,3.07-1.33-1.98,11.34-4.18,1.4,2.09-5.98,6.83,8.59-2.96,1.43,2.13Z" style="fill: #c7b79f;"/>
      <path d="M8.69,90.86l.19-2.4c1.33.05,2.39.41,3.18,1.06s1.33,1.6,1.62,2.83c.35,1.52.12,2.89-.68,4.11-.81,1.22-2.11,2.04-3.91,2.46-1.9.44-3.5.3-4.78-.44-1.28-.74-2.11-1.91-2.48-3.51-.33-1.4-.18-2.63.45-3.7.37-.63.98-1.19,1.83-1.66l1.08,2.16c-.56.27-.96.66-1.21,1.17s-.29,1.07-.15,1.68c.2.85.66,1.46,1.39,1.85s1.78.42,3.14.1c1.45-.34,2.41-.84,2.91-1.5.49-.66.64-1.41.45-2.24-.14-.61-.46-1.1-.95-1.45-.49-.35-1.18-.53-2.06-.52Z" style="fill: #c7b79f;"/>
      <path d="M.15,83.17l-.04-2.37,6.36-.1c1.01-.02,1.66-.06,1.96-.12.48-.11.86-.36,1.15-.74.28-.39.42-.91.41-1.57-.01-.67-.16-1.18-.44-1.51-.28-.34-.62-.54-1.02-.6-.4-.06-1.07-.09-2-.07l-6.49.11-.04-2.37,6.17-.1c1.41-.02,2.41.03,2.99.14.58.12,1.08.35,1.49.68.41.34.73.79.98,1.37.25.57.38,1.32.39,2.25.02,1.12-.1,1.97-.35,2.56-.25.58-.58,1.05-.99,1.39-.41.34-.84.57-1.29.69-.67.17-1.66.26-2.97.28l-6.26.1Z" style="fill: #c7b79f;"/>
      <path d="M12.3,68.41l-11.5-2.36.77-3.73c.29-1.41.54-2.32.74-2.73.31-.62.8-1.1,1.47-1.42.67-.33,1.46-.39,2.38-.21.71.15,1.27.4,1.7.75.43.35.74.76.93,1.21s.29.89.3,1.32c0,.58-.11,1.39-.33,2.44l-.31,1.51,4.34.89-.48,2.32ZM3.22,64.13l3.26.67.26-1.27c.19-.92.25-1.54.2-1.87-.06-.33-.2-.61-.42-.84-.22-.23-.5-.38-.84-.45-.42-.09-.79-.03-1.11.16-.32.19-.56.47-.7.83-.11.27-.25.82-.42,1.65l-.23,1.12Z" style="fill: #c7b79f;"/>
      <path d="M14.77,47.13l.95-2.11c.74.26,1.37.3,1.9.12.53-.19.97-.59,1.33-1.22.38-.66.53-1.24.44-1.74-.09-.5-.32-.85-.69-1.07-.24-.14-.49-.19-.74-.14-.25.04-.54.21-.87.49-.22.19-.68.66-1.39,1.39-.91.95-1.68,1.53-2.34,1.74-.92.3-1.78.22-2.59-.24-.52-.3-.92-.72-1.2-1.28-.28-.55-.38-1.17-.3-1.86.08-.69.35-1.42.79-2.21.73-1.28,1.56-2.08,2.5-2.4.93-.32,1.87-.24,2.83.27l-1.09,2.11c-.57-.21-1.06-.24-1.45-.08-.39.16-.76.53-1.09,1.11-.34.6-.49,1.14-.44,1.61.03.31.18.54.45.69.24.14.5.15.79.05.37-.13.96-.63,1.76-1.5.81-.86,1.48-1.46,2.01-1.8.53-.33,1.09-.51,1.68-.53.59-.02,1.21.15,1.85.52.58.33,1.04.81,1.36,1.43.32.62.44,1.29.35,2.03-.09.73-.39,1.54-.9,2.43-.74,1.29-1.6,2.11-2.59,2.45-.99.35-2.09.26-3.31-.25Z" style="fill: #c7b79f;"/>
      <path d="M25.63,36.95l-8.77-7.8,5.79-6.5,1.48,1.32-4.21,4.73,1.94,1.73,3.92-4.4,1.48,1.31-3.92,4.4,2.39,2.12,4.36-4.9,1.48,1.31-5.93,6.67Z" style="fill: #c7b79f;"/>
      <path d="M35.05,27.09l-6.93-9.47,4.03-2.95c1.01-.74,1.81-1.19,2.39-1.36.58-.17,1.17-.13,1.77.1.59.23,1.1.63,1.51,1.19.52.71.74,1.45.66,2.22s-.49,1.52-1.23,2.25c.59-.06,1.12-.05,1.61.04s1.22.34,2.21.74l2.51,1-2.29,1.67-2.89-1.05c-1.03-.38-1.71-.6-2.03-.65-.32-.06-.61-.05-.86.03-.25.08-.6.28-1.04.6l-.39.28,2.89,3.96-1.91,1.4ZM32.97,20.22l1.42-1.04c.92-.67,1.46-1.13,1.63-1.37.17-.25.25-.51.24-.79,0-.28-.12-.57-.33-.85-.23-.32-.51-.51-.82-.58s-.64-.02-.99.16c-.17.09-.64.42-1.42.99l-1.49,1.09,1.76,2.4Z" style="fill: #c7b79f;"/>
      <path d="M47.22,19.08l-5.26-10.5,2.12-1.06,5.26,10.5-2.12,1.06Z" style="fill: #c7b79f;"/>
      <path d="M53.98,15.88l-3.5-11.2,8.31-2.6.59,1.9-6.04,1.89.78,2.48,5.62-1.76.59,1.89-5.62,1.76.95,3.05,6.26-1.96.59,1.89-8.52,2.67Z" style="fill: #c7b79f;"/>
      <path d="M66.17,8.57l2.27-.44c.21.76.55,1.3,1,1.62.46.32,1.04.45,1.76.38.76-.07,1.32-.29,1.67-.65s.51-.75.47-1.18c-.03-.28-.13-.5-.31-.68-.18-.18-.48-.32-.9-.42-.29-.07-.93-.18-1.94-.33-1.29-.19-2.22-.49-2.77-.9-.78-.57-1.21-1.32-1.3-2.25-.06-.59.06-1.17.35-1.72.29-.55.74-.99,1.35-1.32.61-.33,1.36-.54,2.26-.63,1.47-.14,2.6.08,3.4.65.8.57,1.27,1.39,1.42,2.46l-2.35.33c-.16-.59-.42-1-.77-1.23s-.87-.32-1.53-.25c-.69.07-1.21.26-1.57.58-.23.21-.33.46-.31.76.03.28.17.5.42.68.32.22,1.07.41,2.24.57s2.05.36,2.63.6c.58.24,1.05.59,1.41,1.06.36.47.57,1.08.64,1.82.06.67-.06,1.31-.38,1.93-.32.62-.8,1.11-1.45,1.46-.65.35-1.49.57-2.5.67-1.48.14-2.65-.09-3.5-.7-.86-.61-1.43-1.56-1.71-2.85Z" style="fill: #c7b79f;"/>
      <path d="M80.86,11.67l.14-2.25,2.25.14-.14,2.25-2.25-.14Z" style="fill: #c7b79f;"/>
    </g>
  </g>
</svg>