<?xml version="1.0" encoding="UTF-8"?>
<svg id="_圖層_2" data-name="圖層 2" xmlns="http://www.w3.org/2000/svg" width="490.33" height="237.25" viewBox="0 0 490.33 237.25">
  <g id="_設計" data-name="設計">
    <g>
      <g>
        <path d="M20.18,68V11.5H0V0h54.04v11.5h-20.13v56.5h-13.73Z" style="fill: #fff;"/>
        <path d="M67.7,68V0h28.9c7.27,0,12.55.61,15.84,1.83,3.29,1.22,5.93,3.39,7.91,6.52,1.98,3.12,2.97,6.7,2.97,10.72,0,5.1-1.5,9.32-4.5,12.64-3,3.32-7.48,5.42-13.45,6.29,2.97,1.73,5.42,3.63,7.35,5.71,1.93,2.07,4.54,5.75,7.82,11.04l8.3,13.27h-16.42l-9.93-14.8c-3.53-5.29-5.94-8.62-7.24-10-1.3-1.38-2.67-2.32-4.13-2.83-1.45-.51-3.76-.77-6.91-.77h-2.78v28.39h-13.73ZM81.43,28.76h10.16c6.59,0,10.7-.28,12.34-.83,1.64-.56,2.92-1.51,3.85-2.88.93-1.36,1.39-3.06,1.39-5.1,0-2.29-.61-4.14-1.83-5.54-1.22-1.41-2.95-2.3-5.17-2.67-1.11-.15-4.45-.23-10.02-.23h-10.72v17.26Z" style="fill: #fff;"/>
        <path d="M202.33,68h-14.94l-5.94-15.45h-27.18l-5.61,15.45h-14.57L160.58,0h14.52l27.23,68ZM177.05,41.1l-9.37-25.23-9.18,25.23h18.55Z" style="fill: #fff;"/>
        <path d="M224.66,68L200.35,0h14.89l17.21,50.33L249.11,0h14.57l-24.35,68h-14.66Z" style="fill: #fff;"/>
        <path d="M275.43,68V0h50.42v11.5h-36.69v15.08h34.14v11.46h-34.14v18.51h37.99v11.46h-51.72Z" style="fill: #fff;"/>
        <path d="M343.91,68V.56h13.73v55.99h34.14v11.46h-47.87Z" style="fill: #fff;"/>
        <path d="M20.18,168v-56.5H0v-11.5h54.04v11.5h-20.13v56.5h-13.73Z" style="fill: #fff;"/>
        <path d="M67.56,100h13.73v36.83c0,5.84.17,9.63.51,11.36.59,2.78,1.99,5.02,4.2,6.7,2.21,1.69,5.23,2.53,9.07,2.53s6.83-.8,8.81-2.39c1.98-1.59,3.17-3.55,3.57-5.87.4-2.32.6-6.17.6-11.55v-37.62h13.73v35.72c0,8.16-.37,13.93-1.11,17.3-.74,3.37-2.11,6.22-4.11,8.54-1.99,2.32-4.66,4.17-8,5.54-3.34,1.38-7.7,2.06-13.08,2.06-6.49,0-11.42-.75-14.77-2.25-3.36-1.5-6.01-3.45-7.96-5.84-1.95-2.4-3.23-4.91-3.85-7.54-.9-3.9-1.35-9.65-1.35-17.26v-36.27Z" style="fill: #fff;"/>
        <path d="M140.82,168v-68h20.55l12.34,46.39,12.2-46.39h20.6v68h-12.76v-53.53l-13.5,53.53h-13.22l-13.45-53.53v53.53h-12.76Z" style="fill: #fff;"/>
        <path d="M224.94,100h27.18c5.38,0,9.39.22,12.04.67,2.64.45,5.01,1.38,7.1,2.81,2.09,1.42,3.83,3.32,5.22,5.68,1.39,2.37,2.09,5.02,2.09,7.96,0,3.19-.86,6.11-2.57,8.77-1.72,2.66-4.04,4.65-6.98,5.98,4.14,1.21,7.33,3.26,9.56,6.17,2.23,2.91,3.34,6.32,3.34,10.25,0,3.09-.72,6.1-2.16,9.02-1.44,2.92-3.4,5.26-5.89,7-2.49,1.75-5.56,2.82-9.21,3.22-2.29.25-7.81.4-16.56.46h-23.15v-68ZM238.67,111.32v15.73h9c5.35,0,8.67-.08,9.97-.23,2.35-.28,4.2-1.09,5.54-2.44s2.02-3.11,2.02-5.31-.58-3.81-1.74-5.13c-1.16-1.31-2.88-2.11-5.17-2.39-1.36-.15-5.27-.23-11.74-.23h-7.89ZM238.67,138.36v18.18h12.71c4.95,0,8.09-.14,9.42-.42,2.04-.37,3.7-1.28,4.99-2.71,1.28-1.44,1.92-3.36,1.92-5.77,0-2.04-.5-3.77-1.48-5.2-.99-1.42-2.42-2.46-4.29-3.11s-5.93-.97-12.18-.97h-11.09Z" style="fill: #fff;"/>
        <path d="M298.62,168v-67.45h13.73v55.99h34.14v11.46h-47.87Z" style="fill: #fff;"/>
        <path d="M361.03,168v-68h50.42v11.5h-36.69v15.08h34.14v11.46h-34.14v18.51h37.99v11.46h-51.72Z" style="fill: #fff;"/>
        <path d="M429.19,168v-68h28.9c7.27,0,12.55.61,15.84,1.83,3.29,1.22,5.93,3.39,7.91,6.52,1.98,3.12,2.97,6.7,2.97,10.72,0,5.1-1.5,9.32-4.5,12.64-3,3.32-7.48,5.42-13.45,6.29,2.97,1.73,5.42,3.63,7.35,5.71,1.93,2.07,4.54,5.75,7.82,11.04l8.3,13.27h-16.42l-9.93-14.8c-3.53-5.29-5.94-8.62-7.24-10-1.3-1.38-2.67-2.32-4.13-2.83-1.45-.51-3.76-.77-6.91-.77h-2.78v28.39h-13.73ZM442.92,128.76h10.16c6.59,0,10.7-.28,12.34-.83,1.64-.56,2.92-1.51,3.85-2.88.93-1.36,1.39-3.06,1.39-5.1,0-2.29-.61-4.14-1.83-5.54-1.22-1.41-2.95-2.3-5.17-2.67-1.11-.15-4.45-.23-10.02-.23h-10.72v17.26Z" style="fill: #fff;"/>
      </g>
      <g>
        <path d="M26.73,216.1c0,.07.02.12.07.15.05.03.09.01.11-.04l.93-.78c.49-.4,1.06-.61,1.71-.63h.11c.59,0,1.14.17,1.63.52,4.13,3.04,7.25,5.53,9.35,7.46.4.4.59.88.59,1.45,0,.62-.24,1.14-.71,1.56l-.56.56c-.42.37-.9.56-1.45.56-.05,0-.1-.01-.15-.04-.59-.02-1.1-.25-1.52-.67-2.4-2.42-5.71-5.27-9.95-8.54-.02-.02-.06-.02-.11,0-.05.03-.07.06-.07.11v17.22c0,.59-.22,1.11-.65,1.54-.43.43-.95.65-1.54.65h-.59c-.59,0-1.11-.22-1.54-.65-.43-.43-.65-.95-.65-1.54v-16.07s-.02-.09-.06-.11c-.04-.02-.08-.01-.13.04-3.12,3.32-6.44,6.01-9.98,8.09-.35.2-.72.3-1.11.3-.17,0-.36-.02-.56-.07-.59-.15-1.08-.48-1.45-1-.17-.2-.33-.4-.48-.59-.25-.35-.37-.71-.37-1.08,0-.12.01-.26.04-.41.1-.52.38-.92.85-1.19,2.89-1.61,5.58-3.62,8.07-6.05,2.49-2.42,4.56-4.97,6.22-7.64.05-.05.06-.1.02-.17-.04-.06-.08-.09-.13-.09h-12.69c-.62,0-1.14-.21-1.56-.63-.42-.42-.63-.94-.63-1.56v-.26c0-.59.21-1.11.63-1.54.42-.43.94-.65,1.56-.65h28.54c.62,0,1.14.22,1.56.65.42.43.63.95.63,1.54v.26c0,.62-.21,1.14-.63,1.56-.42.42-.94.63-1.56.63h-9.35c-.17,0-.31.09-.41.26-.52.94-1.15,1.94-1.89,3.01-.1.15-.15.32-.15.52v3.38Z" style="fill: #fff;"/>
        <path d="M74.06,224.67c0,.17.1.26.3.26h4.6c.17,0,.26-.09.26-.26v-.78c0-.2-.09-.3-.26-.3h-1.45c-.62,0-1.14-.21-1.56-.63-.42-.42-.63-.94-.63-1.56v-3.15c0-.32.11-.59.33-.82s.49-.33.8-.33.58.11.8.33.33.5.33.82v2.71c0,.2.1.3.3.3h1.08c.17,0,.26-.1.26-.3v-2.67c0-.47.17-.87.5-1.21s.74-.5,1.21-.5.87.17,1.19.5c.32.33.48.74.48,1.21v17.29c0,.45-.16.83-.48,1.17-.32.33-.72.5-1.19.5s-.87-.17-1.21-.5-.5-.72-.5-1.17v-3.6c0-.17-.09-.26-.26-.26h-1.08c-.2,0-.3.09-.3.26v3.75c0,.32-.11.59-.33.82s-.49.33-.8.33-.58-.11-.8-.33-.33-.5-.33-.82v-4.12c0-.59.21-1.11.63-1.54.42-.43.94-.65,1.56-.65h1.45c.17,0,.26-.09.26-.26v-.78c0-.2-.09-.3-.26-.3h-4.6c-.2,0-.3.1-.3.3v7.38c0,.4-.15.74-.45,1.04s-.65.45-1.06.45-.76-.15-1.06-.45-.45-.64-.45-1.04v-7.38c0-.2-.09-.3-.26-.3h-4.6c-.17,0-.27.1-.3.3,0,.07,0,.2-.02.37-.01.17-.03.31-.06.41,0,.17.09.26.26.26h1.52c.62,0,1.14.22,1.56.65.42.43.63.95.63,1.54v4.16c0,.3-.11.56-.32.78-.21.22-.47.33-.78.33s-.57-.11-.78-.33c-.21-.22-.32-.48-.32-.78v-3.79c0-.17-.1-.26-.3-.26h-1.48c-.17,0-.28.09-.33.26-.27,1.44-.69,2.7-1.26,3.79-.2.42-.54.67-1.04.74h-.22c-.4,0-.75-.12-1.08-.37-.22-.17-.45-.34-.67-.5-.22-.16-.36-.37-.41-.63-.05-.26,0-.51.15-.76.02-.03.02-.04,0-.06-.02-.01-.05-.02-.07-.02-.59.12-2.05.41-4.38.85-2.33.45-4.06.78-5.2,1-.15.02-.3.04-.45.04-.4,0-.77-.11-1.11-.33-.47-.3-.77-.72-.89-1.26-.02-.15-.04-.3-.04-.45,0-.37.1-.72.3-1.04.32-.45.74-.71,1.26-.78,1.09-.17,2.05-.33,2.89-.48.17-.02.26-.14.26-.33v-9.72c0-.2-.09-.3-.26-.3h-2.41c-.5,0-.93-.18-1.3-.54-.37-.36-.56-.8-.56-1.32s.19-.96.56-1.32c.37-.36.8-.54,1.3-.54h2.41c.17,0,.26-.1.26-.3v-2.19c0-.17-.09-.26-.26-.26h-1.86c-.27,0-.51-.1-.72-.32-.21-.21-.32-.45-.32-.72v-.11h-.04c-.12.12-.24.11-.33-.04-.3-.42-.66-.85-1.08-1.3-.37-.4-.56-.85-.56-1.37s.17-.93.52-1.3c1.73-1.86,3.15-4,4.27-6.42.22-.47.54-.84.95-1.11.41-.27.86-.41,1.35-.41,1.14,0,2.08.38,2.82,1.15,1.83,1.81,3.22,3.45,4.16,4.94.1.17.23.26.41.26h7.5c.2,0,.3-.1.3-.3v-.85c0-.17-.1-.26-.3-.26h-5.31c-.42,0-.78-.15-1.08-.45s-.45-.66-.45-1.08.15-.78.45-1.08.66-.45,1.08-.45h5.38c.15,0,.22-.07.22-.22,0-.47.17-.87.5-1.21s.74-.5,1.21-.5h.37c.47,0,.87.17,1.21.5s.5.74.5,1.21c0,.15.07.22.22.22h5.05c.59,0,1.11.21,1.54.63.43.42.65.94.65,1.56v2.04c0,.15.06.22.19.22h.07c.42,0,.78.15,1.08.45s.45.66.45,1.08-.15.78-.45,1.08-.66.45-1.08.45h-.07c-.12,0-.19.06-.19.19v2.08c0,.62-.22,1.14-.65,1.56-.43.42-.95.63-1.54.63h-5.34c-.2,0-.3.1-.3.3v8.72ZM49.65,225c-.02-.1-.04-.21-.04-.33,0-.25.06-.48.19-.71.2-.32.48-.52.85-.59.12-.02.23-.04.33-.04.25,0,.48.06.71.19.32.17.53.45.63.82.3,1.26.53,2.55.71,3.86v.22c0,.32-.09.62-.26.89-.25.35-.58.57-1,.67-.1.03-.2.04-.3.04-.22,0-.45-.07-.67-.22-.3-.22-.46-.52-.48-.89-.12-1.16-.35-2.46-.67-3.9ZM52.84,211.05s-.02.1,0,.15c.02.05.06.07.11.07h6.46c.07,0,.13-.03.17-.09.04-.06.03-.12-.02-.17-.92-1.63-1.98-3.19-3.19-4.68-.12-.15-.24-.14-.33.04-.94,1.66-2,3.22-3.19,4.68ZM65.97,224.67c0,.17.09.26.26.26h4.56c.17,0,.26-.09.26-.26v-8.72c0-.2-.09-.3-.26-.3h-5.79c-.42,0-.78-.15-1.08-.45s-.45-.65-.45-1.06.15-.76.45-1.06.66-.45,1.08-.45h5.34c.2,0,.3-.1.3-.3v-.89c0-.17-.1-.26-.3-.26h-6.61c-.5,0-.92-.18-1.28-.54-.36-.36-.54-.79-.54-1.28,0-.05-.02-.08-.06-.09-.04-.01-.07,0-.09.02l-1.63,1.89s.01.05.04.07c.15,0,.28.05.39.15.11.1.17.22.17.37v1.3c0,.5-.18.92-.54,1.28-.36.36-.8.54-1.32.54h-1.45c-.2,0-.3.09-.3.26v2.19c0,.2.1.3.3.3h1.82c.49,0,.93.18,1.3.54.37.36.56.8.56,1.32s-.19.96-.56,1.32c-.37.36-.8.54-1.3.54h-1.82c-.2,0-.3.1-.3.3v9.13c0,.17.1.25.3.22.4-.07,1-.19,1.82-.33.12-.02.26-.04.41-.04.42,0,.8.14,1.15.41.47.35.73.8.78,1.37l.04.15s.01.04.04.06c.02.01.05,0,.07-.06.64-1.68.96-4.07.96-7.16v-7.2c0-.45.16-.83.48-1.15.32-.32.71-.48,1.15-.48s.83.16,1.15.48c.32.32.48.71.48,1.15v2.82c0,.17.09.26.26.26h1.04c.2,0,.3-.09.3-.26v-2.75c0-.32.11-.59.33-.82s.49-.33.8-.33.57.11.78.33c.21.22.32.5.32.82v3.12c0,.62-.21,1.14-.63,1.56-.42.42-.94.63-1.56.63h-1.37c-.17,0-.26.1-.26.3v.78ZM60.15,228.2c-.1.35-.3.61-.61.78-.31.17-.64.22-.98.15-.35-.07-.61-.27-.78-.58-.17-.31-.22-.64-.15-.98.27-1.19.51-2.35.71-3.49.07-.4.27-.7.59-.91.32-.21.67-.27,1.04-.17.37.07.66.28.87.61.21.33.27.7.17,1.09-.42,1.78-.71,2.94-.85,3.49ZM74.73,206.75c-.2,0-.3.09-.3.26v.85c0,.2.1.3.3.3h3.01c.2,0,.3-.1.3-.3v-.85c0-.17-.1-.26-.3-.26h-3.01ZM77.74,212.65c.2,0,.3-.1.3-.3v-.89c0-.17-.1-.26-.3-.26h-3.01c-.2,0-.3.09-.3.26v.89c0,.2.1.3.3.3h3.01Z" style="fill: #fff;"/>
        <path d="M122.51,203.11c.59,0,1.11.21,1.54.63.43.42.65.94.65,1.56v27.31c0,1.06-.12,1.89-.37,2.49-.25.59-.67,1.06-1.26,1.41-.82.42-2.1.66-3.86.71h-.11c-.54,0-1.03-.17-1.45-.52-.47-.4-.8-.88-1-1.45-.05-.17-.07-.33-.07-.48,0-.3.1-.57.3-.82.27-.4.63-.59,1.08-.59h2.23c.3-.02.49-.09.59-.2.1-.11.15-.3.15-.58v-25.23c0-.2-.09-.3-.26-.3h-11.69c-.17,0-.26.1-.26.3v28.05c0,.52-.19.96-.56,1.32-.37.36-.81.54-1.32.54s-.94-.18-1.3-.54c-.36-.36-.54-.8-.54-1.32v-26.24s-.02-.08-.06-.09c-.04-.01-.07,0-.09.02l-1.71,2.08v.04c.07,0,.11.03.11.07v1.78c0,.52-.18.96-.54,1.32-.36.36-.8.54-1.32.54h-1.52c-.17,0-.26.09-.26.26v2.26c0,.2.09.3.26.3h2c.52,0,.96.19,1.34.56s.56.82.56,1.35-.19.98-.56,1.35-.82.56-1.34.56h-2c-.17,0-.26.1-.26.3v8.79c0,.17.09.25.26.22.4-.07,1.26-.23,2.6-.48.12-.02.23-.04.33-.04.37,0,.71.11,1,.33.4.32.62.73.67,1.22v.19c0,.45-.14.87-.41,1.26-.32.42-.74.68-1.26.78-2.65.57-5.8,1.2-9.46,1.89-.15.02-.3.04-.45.04-.4,0-.77-.11-1.11-.33-.5-.32-.8-.75-.93-1.3-.02-.15-.04-.3-.04-.45,0-.37.11-.72.33-1.04.3-.47.72-.75,1.26-.85.82-.12,1.84-.28,3.08-.48.17-.05.26-.16.26-.33v-9.43c0-.2-.09-.3-.26-.3h-2.63c-.52,0-.97-.19-1.35-.56-.38-.37-.58-.82-.58-1.35s.19-.98.58-1.35c.38-.37.83-.56,1.35-.56h2.63c.17,0,.26-.1.26-.3v-2.26c0-.17-.09-.26-.26-.26h-1.89c-.32,0-.59-.11-.82-.33s-.33-.49-.33-.82v-.07s-.01-.04-.04-.04c-.1.1-.22.14-.35.13-.14-.01-.24-.07-.32-.17-.3-.37-.62-.75-.96-1.15-.37-.4-.56-.87-.56-1.41,0-.49.19-.94.56-1.34,1.73-1.81,3.18-3.88,4.34-6.23.22-.52.57-.93,1.04-1.22.47-.3.98-.45,1.52-.45,1.24,0,2.29.41,3.15,1.22,1.63,1.51,2.97,2.93,4.01,4.27.02.05.06.07.09.06.04-.01.06-.04.06-.09v-1.97c0-.62.22-1.14.65-1.56.43-.42.95-.63,1.54-.63h15.33ZM91.45,225.04c-.02-.1-.04-.21-.04-.33,0-.25.06-.48.19-.71.2-.35.48-.57.85-.67.12-.02.26-.04.41-.04.25,0,.48.06.71.19.35.2.57.48.67.85.32,1.21.58,2.45.78,3.71.02.1.04.19.04.26,0,.32-.1.63-.3.93-.25.35-.58.58-1,.71-.12.03-.24.04-.33.04-.25,0-.48-.07-.71-.22-.32-.22-.51-.52-.56-.89-.15-1.19-.38-2.46-.71-3.82ZM94.86,210.98s-.02.1,0,.15c.02.05.06.07.11.07h6.98s.09-.03.13-.09c.04-.06.04-.12.02-.17-1.09-1.71-2.3-3.28-3.64-4.71-.12-.15-.24-.14-.33.04-.92,1.61-2,3.18-3.27,4.71ZM103.02,228.23c-.1.37-.32.65-.65.83s-.69.23-1.06.13c-.37-.1-.65-.31-.83-.63-.19-.32-.24-.67-.17-1.04.27-1.14.49-2.23.67-3.27.07-.42.28-.75.63-1,.25-.15.51-.22.78-.22.12,0,.23.01.33.04.42.1.74.33.96.71.15.25.22.51.22.78,0,.12-.01.26-.04.41-.45,1.76-.73,2.85-.85,3.27ZM117.27,230.35c0-.1-.05-.15-.15-.15h-4.68c-.15,0-.22.07-.22.22v.74c0,.32-.11.59-.33.82s-.5.33-.82.33-.59-.11-.82-.33-.33-.49-.33-.82v-10.84c0-.3.11-.56.33-.78s.49-.33.82-.33.59.11.82.33.33.48.33.78v6.27c0,.2.09.3.26.3h.74c.2,0,.3-.1.3-.3v-8.76c0-.17-.1-.26-.3-.26h-2.04c-.47,0-.87-.17-1.19-.5-.32-.33-.48-.73-.48-1.19s.16-.85.48-1.17c.32-.32.72-.48,1.19-.48h7.16c.45,0,.83.16,1.17.48.33.32.5.71.5,1.17s-.17.85-.5,1.19-.72.5-1.17.5h-2.08c-.2,0-.3.09-.3.26v8.76c0,.2.1.3.3.3h.71c.2,0,.3-.1.3-.3v-6.23c0-.32.11-.59.33-.82s.49-.33.82-.33.59.11.82.33.33.5.33.82v9.95c0,.32-.11.59-.33.82s-.5.33-.82.33-.59-.11-.82-.33-.33-.48-.33-.78ZM110.15,209.57c-.12-.35-.11-.67.06-.96.16-.3.41-.49.76-.59.37-.1.72-.06,1.06.11.33.17.56.43.69.78.37.92.67,1.86.89,2.82.07.4.01.76-.19,1.09-.2.33-.5.56-.89.69-.35.1-.67.05-.98-.15-.31-.2-.5-.48-.58-.85-.2-.89-.47-1.87-.82-2.93ZM116.68,209.08c.1-.42.33-.75.71-1,.25-.15.52-.22.82-.22.12,0,.25.01.37.04.42.1.73.35.93.74.12.22.19.45.19.67,0,.17-.04.35-.11.52-.62,1.68-.96,2.63-1.04,2.86-.15.35-.39.6-.72.76-.33.16-.69.19-1.06.09-.35-.1-.61-.31-.78-.63-.17-.32-.2-.66-.07-1,.3-.96.56-1.9.78-2.82Z" style="fill: #fff;"/>
        <path d="M139.55,203.89c.25-.57.64-.99,1.19-1.26.35-.15.68-.22,1-.22.22,0,.46.04.71.11h.04c.57.2.98.56,1.22,1.08.12.3.19.58.19.85,0,.25-.06.51-.19.78-.82,1.88-1.67,3.62-2.56,5.23-.07.15-.11.32-.11.52v24.05c0,.59-.21,1.1-.63,1.52-.42.42-.93.63-1.52.63s-1.1-.21-1.52-.63c-.42-.42-.63-.93-.63-1.52v-17.44s-.02-.08-.07-.09c-.05-.01-.09,0-.11.02-.45.57-.85,1.09-1.22,1.56-.3.32-.64.48-1.04.48-.07,0-.16-.01-.26-.04-.5-.07-.87-.35-1.11-.82-.12-.25-.26-.51-.41-.78-.22-.45-.33-.92-.33-1.41v-.37c.07-.64.32-1.2.74-1.67,2.7-3.04,4.91-6.57,6.64-10.58ZM166.53,220.49c.4.41.59.89.59,1.45s-.2,1.04-.59,1.45c-.4.41-.88.61-1.45.61h-5.27c-.07,0-.12.03-.15.07s-.01.1.04.15c1.86,2.67,4.08,4.96,6.68,6.87.45.32.71.75.78,1.3v.19c0,.47-.16.88-.48,1.22-.1.12-.2.25-.3.37-.42.45-.92.72-1.48.82h-.33c-.45,0-.87-.15-1.26-.45-2.13-1.88-4.07-4.17-5.83-6.87-.02-.02-.06-.03-.09-.02-.04.01-.06.03-.06.06v7.35c0,.62-.22,1.14-.65,1.56-.43.42-.95.63-1.54.63h-.19c-.59,0-1.11-.21-1.54-.63-.43-.42-.65-.94-.65-1.56v-7.12s-.02-.08-.06-.09c-.04-.01-.07,0-.09.02-1.86,2.65-3.95,4.87-6.27,6.68-.4.27-.8.41-1.22.41-.12,0-.26-.01-.41-.04-.57-.1-1.06-.38-1.48-.85-.07-.1-.16-.2-.26-.3-.3-.35-.45-.74-.45-1.19,0-.07.01-.15.04-.22.05-.54.31-.96.78-1.26,2.75-1.83,5.11-4.12,7.09-6.87.05-.05.06-.1.02-.15-.04-.05-.08-.07-.13-.07h-5.46c-.57,0-1.05-.2-1.45-.61-.4-.41-.59-.89-.59-1.45s.2-1.04.59-1.45c.4-.41.88-.61,1.45-.61h7.61c.2,0,.3-.09.3-.26v-2.89c0-.17-.1-.26-.3-.26h-4.97c-.59,0-1.11-.22-1.54-.65-.43-.43-.65-.95-.65-1.54v-8.65c0-.62.22-1.14.65-1.56.43-.42.95-.63,1.54-.63h15.59c.59,0,1.11.21,1.54.63.43.42.65.94.65,1.56v8.65c0,.59-.22,1.11-.65,1.54-.43.43-.95.65-1.54.65h-5.49c-.17,0-.26.09-.26.26v2.89c0,.17.09.26.26.26h7.5c.57,0,1.05.2,1.45.61ZM149.87,207.38c-.17,0-.26.1-.26.3v4.53c0,.17.09.26.26.26h10.61c.17,0,.26-.09.26-.26v-4.53c0-.2-.09-.3-.26-.3h-10.61Z" style="fill: #fff;"/>
        <path d="M180.84,214.32c.52.3.83.75.93,1.37.02.15.04.29.04.41,0,.45-.14.87-.41,1.26l-.11.15c-.35.5-.82.78-1.41.85-.12.03-.24.04-.33.04-.45,0-.87-.14-1.26-.41-.82-.54-1.74-1.08-2.78-1.6-.47-.25-.78-.63-.93-1.15-.02-.17-.04-.33-.04-.48,0-.35.11-.67.33-.96.35-.52.82-.87,1.41-1.04.25-.07.48-.11.71-.11.35,0,.68.07,1,.22,1.04.47,1.99.95,2.86,1.45ZM179.5,223.96c.22-.49.61-.82,1.15-.96.15-.02.31-.04.48-.04.35,0,.68.11,1,.33l.04.04c.52.4.87.9,1.04,1.52.07.25.11.5.11.74,0,.37-.09.74-.26,1.11-1.21,2.85-2.46,5.55-3.75,8.13-.27.52-.69.85-1.26,1-.17.05-.35.07-.52.07-.37,0-.73-.11-1.08-.33l-.37-.22c-.5-.35-.82-.82-.96-1.41-.05-.2-.07-.38-.07-.56,0-.4.1-.78.3-1.15,1.41-2.52,2.8-5.28,4.16-8.28ZM182.91,204.3c.49.32.79.78.89,1.37.02.15.04.29.04.41,0,.45-.14.87-.41,1.26l-.11.15c-.32.47-.78.75-1.37.85h-.33c-.47,0-.89-.14-1.26-.41-.89-.59-1.84-1.16-2.86-1.71-.5-.27-.8-.67-.93-1.19-.05-.15-.07-.3-.07-.45,0-.37.11-.71.33-1,.37-.52.87-.85,1.48-1,.22-.05.45-.07.67-.07.37,0,.73.07,1.08.22,1.06.52,2.02,1.04,2.86,1.56ZM206.96,231.94c0,.17.09.26.26.26h.11c.52,0,.97.19,1.35.58.38.38.58.84.58,1.37s-.19.99-.58,1.37c-.38.38-.83.58-1.35.58h-23.01c-.54,0-1.01-.19-1.39-.58-.38-.38-.58-.84-.58-1.37s.19-.99.58-1.37c.38-.38.85-.58,1.39-.58h.93c.17,0,.26-.1.26-.3v-8.94c0-.62.22-1.14.65-1.56.43-.42.95-.63,1.54-.63h17.07c.59,0,1.11.21,1.54.63.43.42.65.94.65,1.56v8.98ZM203.32,203.41c.59,0,1.11.21,1.54.63.43.42.65.94.65,1.56v11.02c0,.62-.22,1.14-.65,1.56-.43.42-.95.63-1.54.63h-14.32c-.59,0-1.11-.21-1.54-.63-.43-.42-.65-.94-.65-1.56v-11.02c0-.62.22-1.14.65-1.56.43-.42.95-.63,1.54-.63h14.32ZM189.82,224.56c-.17,0-.26.1-.26.3v7.05c0,.2.09.3.26.3h1.6c.17,0,.26-.1.26-.3v-7.05c0-.2-.09-.3-.26-.3h-1.6ZM200.95,215.43c.17,0,.26-.09.26-.26v-8.16c0-.17-.09-.26-.26-.26h-9.8c-.17,0-.26.09-.26.26v5.75c0,.07.02.12.07.15.05.03.1.03.15,0,1.63-.94,2.76-2.41,3.38-4.42.12-.42.36-.75.71-1,.3-.22.61-.33.93-.33.07,0,.15.01.22.04.4.03.71.2.95.54.23.33.29.7.17,1.09-.07.2-.16.41-.26.63-.05.17-.01.32.11.45,1.06.87,1.94,1.62,2.63,2.26.27.25.41.56.41.95s-.14.71-.43.98c-.28.27-.62.4-1,.37-.38-.02-.71-.17-.98-.45-.54-.54-1.15-1.14-1.82-1.78-.12-.12-.24-.11-.33.04-.42.57-.87,1.08-1.34,1.52-.37.32-.79.48-1.26.48h-.33c-.57-.1-1.1-.37-1.6-.82-.05-.07-.11-.14-.19-.19-.02-.02-.06-.02-.11,0-.05.03-.07.06-.07.11v1.78c0,.17.09.26.26.26h9.8ZM197.16,224.86c0-.2-.1-.3-.3-.3h-1.56c-.2,0-.3.1-.3.3v7.05c0,.2.1.3.3.3h1.56c.2,0,.3-.1.3-.3v-7.05ZM202.69,224.86c0-.2-.09-.3-.26-.3h-1.63c-.17,0-.26.1-.26.3v7.05c0,.2.09.3.26.3h1.63c.17,0,.26-.1.26-.3v-7.05Z" style="fill: #fff;"/>
        <path d="M232.77,219.81c.4.4.59.88.59,1.45s-.2,1.05-.59,1.45c-.4.4-.88.59-1.45.59h-1.11c-.17,0-.26.1-.26.3v11.62c0,.57-.2,1.04-.59,1.43-.4.38-.87.58-1.41.58s-1.01-.19-1.41-.58c-.4-.38-.59-.86-.59-1.43v-11.62c0-.2-.09-.3-.26-.3h-2.63c-.2,0-.3.1-.3.3-.25,4.9-1.25,8.88-3.01,11.95-.27.47-.68.73-1.22.78h-.19c-.5,0-.93-.16-1.3-.48-.45-.37-.72-.84-.82-1.41-.02-.17-.04-.33-.04-.48,0-.4.1-.78.3-1.15,1.31-2.45,2.08-5.52,2.3-9.2.02-.2-.06-.3-.26-.3h-.96c-.57,0-1.05-.2-1.45-.59-.4-.4-.59-.88-.59-1.45s.2-1.05.59-1.45c.4-.4.88-.59,1.45-.59h1.04c.2,0,.3-.1.3-.3v-5.34c0-.17-.1-.26-.3-.26h-.52c-.54,0-1.01-.19-1.39-.58-.38-.38-.58-.85-.58-1.39s.19-1.01.58-1.41c.38-.4.85-.59,1.39-.59h1.11c.17,0,.25-.09.22-.26-.25-1.29-.69-2.73-1.34-4.34-.07-.2-.11-.41-.11-.63s.05-.46.15-.71c.2-.42.53-.71,1-.85.22-.07.43-.11.63-.11.27,0,.54.05.82.15.49.22.84.57,1.04,1.04.37.82.69,1.65.96,2.49.07.22.11.45.11.67,0,.35-.09.69-.26,1.04-.3.54-.74.92-1.34,1.11l-1,.33s-.04.01-.04.04.01.04.04.04h8.76s.04,0,.04-.02c0-.01-.01-.03-.04-.06l-.82-.22c-.54-.15-.94-.48-1.19-1-.15-.3-.22-.59-.22-.89,0-.22.04-.46.11-.71.3-.79.57-1.62.82-2.49.17-.59.52-1.05,1.04-1.37.35-.22.72-.33,1.11-.33.17,0,.35.03.52.07h.04c.54.12.95.45,1.22.96.12.27.19.53.19.78s-.05.5-.15.74c-.77,1.71-1.46,3.14-2.08,4.3-.02.05-.02.1,0,.15.02.05.07.07.15.07h1.41c.54,0,1.01.2,1.39.59.38.4.58.87.58,1.41s-.19,1.01-.58,1.39c-.38.38-.85.58-1.39.58h-.78c-.17,0-.26.09-.26.26v5.34c0,.2.09.3.26.3h1.11c.57,0,1.05.2,1.45.59ZM222.82,218.92c0,.2.1.3.3.3h2.56c.17,0,.26-.1.26-.3v-5.34c0-.17-.09-.26-.26-.26h-2.56c-.2,0-.3.09-.3.26v5.34ZM239.33,211.46c0,.2.09.3.26.3h5.94c.62,0,1.14.21,1.56.63.42.42.63.94.63,1.56l-.04,3.27c0,4.33.06,7.88.19,10.65.17,3.44.53,5.16,1.08,5.16.27,0,.45-1.26.52-3.79.02-.3.18-.49.46-.59.28-.1.53-.04.72.19.82.87,1.22,1.77,1.22,2.71,0,.1-.01.2-.04.3-.17,1.93-.5,3.31-.98,4.16-.48.84-1.24,1.26-2.28,1.26-.54,0-1.03-.15-1.47-.45-.43-.3-.8-.75-1.11-1.35-.31-.61-.59-1.27-.83-2-.25-.73-.45-1.63-.61-2.71-.16-1.08-.29-2.13-.39-3.15-.1-1.03-.18-2.25-.24-3.66-.06-1.41-.11-2.7-.13-3.88-.02-1.17-.04-2.55-.04-4.14,0-.2-.1-.3-.3-.3h-4.04c-.17,0-.27.1-.3.3l-.19,2.97c0,.07.02.13.07.17.05.04.11.04.19.02.25-.07.49-.11.74-.11.35,0,.68.09,1,.26.57.25.96.66,1.19,1.22.64,1.68,1.15,3.35,1.52,5.01.02.12.04.25.04.37,0,.32-.09.62-.26.89-.25.4-.59.66-1.04.78-.4.12-.77.07-1.11-.15-.35-.22-.57-.54-.67-.96-.35-1.78-.9-3.7-1.67-5.75,0-.02-.02-.03-.06-.02-.04.01-.06.03-.06.06-.2,3.66-.46,7.17-.78,10.54-.02.07,0,.14.06.19.06.05.12.06.17.04.32-.05.93-.14,1.82-.28.89-.14,1.6-.24,2.12-.32.07-.02.16-.04.26-.04.37,0,.71.11,1,.33.42.35.63.79.63,1.34,0,.45-.14.84-.41,1.19-.32.42-.73.68-1.22.78-2.18.45-4.86.98-8.05,1.6-.15.02-.3.04-.45.04-.4,0-.78-.11-1.15-.33-.5-.3-.82-.73-.96-1.3-.05-.17-.07-.33-.07-.48,0-.35.1-.67.3-.96.32-.47.74-.74,1.26-.82h.15c.17-.02.27-.14.3-.33.82-7.22,1.37-15.19,1.67-23.9,0-.2-.09-.3-.26-.3h-.52c-.57,0-1.05-.19-1.43-.58-.38-.38-.58-.85-.58-1.41s.19-1.03.58-1.43c.38-.4.86-.59,1.43-.59h13.51c.57,0,1.05.2,1.45.59.4.4.59.87.59,1.43s-.2,1.03-.59,1.41c-.4.38-.88.58-1.45.58h-8.39c-.17,0-.26.1-.26.3l-.19,3.53Z" style="fill: #fff;"/>
      </g>
    </g>
  </g>
</svg>