<?xml version="1.0" encoding="UTF-8"?>
<svg id="_圖層_2" data-name="圖層 2" xmlns="http://www.w3.org/2000/svg" width="1436.25" height="204.63" viewBox="0 0 1436.25 204.63">
  <g id="_設計" data-name="設計">
    <g>
      <g>
        <path d="M228.17,171.92h243.01c22.78,0,41.25-18.47,41.25-41.25v-54.34c0-22.78-18.47-41.25-41.25-41.25H74.89c-22.78,0-41.25,18.47-41.25,41.25v54.34c0,22.78,18.47,41.25,41.25,41.25h63.58l72.3,30.8c3.96,1.69,8.01-2.18,6.52-6.21l-9.11-24.59h19.99Z" style="fill: #fff; stroke: #4b4c4e; stroke-linecap: round; stroke-linejoin: round; stroke-width: 3px;"/>
        <g>
          <path d="M14.36,101H.04v-10.62h2.42v7.72h3.17v-7.19h2.41v7.19h3.9v-8h2.41v10.89Z" style="fill: #4b4c4e;"/>
          <path d="M14.36,87.3l-7.47-4.89L.04,86.84v-3.38l4.6-2.87L.04,77.78v-3.35l6.95,4.45,7.36-4.89v3.49l-4.95,3.17,4.95,3.18v3.47Z" style="fill: #4b4c4e;"/>
          <path d="M9.52,61.42l1.1-2.73c1.53.55,2.63,1.35,3.31,2.4s.96,2.35.85,3.88c-.14,1.9-.91,3.41-2.29,4.53-1.39,1.12-3.2,1.6-5.45,1.43-2.38-.18-4.18-.93-5.4-2.26-1.22-1.33-1.76-2.99-1.61-4.99.13-1.75.75-3.13,1.87-4.14.66-.6,1.57-1.02,2.74-1.26l.47,2.91c-.75.11-1.36.42-1.83.92-.47.5-.73,1.14-.79,1.9-.08,1.06.24,1.95.95,2.66.71.72,1.92,1.14,3.62,1.27,1.8.14,3.11-.09,3.93-.68.81-.59,1.26-1.41,1.34-2.45.06-.77-.14-1.44-.58-2.03-.45-.59-1.18-1.04-2.21-1.36Z" style="fill: #4b4c4e;"/>
          <path d="M15.9,55.62l-13.41-4.68.95-2.73,11.13,3.88,2.37-6.79,2.28.79-3.32,9.52Z" style="fill: #4b4c4e;"/>
          <path d="M8.7,35.35l1.62-2.39,6.42,4.35c1.02.69,1.7,1.11,2.04,1.25.55.23,1.11.25,1.66.06.56-.19,1.06-.61,1.51-1.28.46-.68.67-1.28.63-1.82-.04-.53-.24-.97-.6-1.32-.36-.34-1-.83-1.94-1.47l-6.55-4.45,1.62-2.39,6.22,4.22c1.42.96,2.38,1.71,2.88,2.24.5.53.83,1.1,1,1.72.17.62.17,1.3.02,2.05-.16.75-.55,1.59-1.19,2.52-.77,1.13-1.48,1.9-2.14,2.31-.66.41-1.31.64-1.96.69-.65.06-1.24-.02-1.77-.22-.78-.3-1.84-.91-3.16-1.81l-6.32-4.29Z" style="fill: #4b4c4e;"/>
          <path d="M26.08,27.94l1.96-2.03c.74.61,1.45.91,2.13.91s1.36-.28,2.02-.85c.71-.6,1.11-1.21,1.22-1.82.1-.61-.02-1.11-.36-1.51-.22-.26-.48-.41-.79-.46-.31-.05-.7.02-1.19.2-.33.13-1.06.47-2.17,1.03-1.43.71-2.56,1.06-3.4,1.04-1.18-.03-2.14-.47-2.87-1.34-.47-.55-.76-1.21-.86-1.96s.04-1.51.42-2.26c.38-.76.98-1.49,1.82-2.21,1.37-1.17,2.65-1.75,3.85-1.74s2.25.5,3.14,1.47l-2.12,1.97c-.57-.48-1.12-.71-1.64-.69-.52.02-1.09.29-1.71.82-.64.54-1.03,1.1-1.16,1.67-.09.37-.01.69.23.97.22.26.52.38.89.38.48,0,1.36-.34,2.64-1s2.3-1.07,3.04-1.24c.74-.17,1.46-.14,2.15.08.69.22,1.33.67,1.92,1.36.53.62.86,1.36.98,2.2.12.84-.03,1.66-.43,2.47-.41.81-1.08,1.61-2.03,2.42-1.38,1.17-2.71,1.76-3.99,1.75-1.28,0-2.51-.56-3.7-1.65Z" style="fill: #4b4c4e;"/>
          <path d="M41.06,22.26l-7.04-12.47,2.52-1.42,7.04,12.47-2.52,1.42Z" style="fill: #4b4c4e;"/>
          <path d="M50.46,17.78l-9.36-11.98,2.98-.99,6.77,8.92V2.57s2.9-.97,2.9-.97l-.36,15.2-2.93.97Z" style="fill: #4b4c4e;"/>
          <path d="M60.71,14.92l-.85-14.29,10.6-.63.14,2.42-7.71.46.19,3.17,7.17-.43.14,2.41-7.17.43.23,3.89,7.98-.47.14,2.41-10.87.65Z" style="fill: #4b4c4e;"/>
          <path d="M83,14.51V.2h9.81v2.42h-6.92v3.39h5.98v2.42h-5.98v6.08h-2.89Z" style="fill: #4b4c4e;"/>
          <path d="M97.02,14.51V.2h10.62v2.42h-7.72v3.17h7.19v2.41h-7.19v3.9h8v2.41h-10.89Z" style="fill: #4b4c4e;"/>
          <path d="M125.06,14.51h-3.14l-1.25-3.25h-5.72l-1.18,3.25h-3.07L116.27.2h3.06l5.73,14.32ZM119.74,8.85l-1.97-5.31-1.93,5.31h3.91Z" style="fill: #4b4c4e;"/>
          <path d="M130.14,14.51V2.62h-4.25V.2h11.38v2.42h-4.24v11.89h-2.89Z" style="fill: #4b4c4e;"/>
          <path d="M140.91.2h2.89v7.75c0,1.23.04,2.03.11,2.39.12.59.42,1.06.88,1.41s1.1.53,1.91.53,1.44-.17,1.86-.5.67-.75.75-1.24.13-1.3.13-2.43V.2h2.89v7.52c0,1.72-.08,2.93-.23,3.64s-.44,1.31-.86,1.8-.98.88-1.68,1.17-1.62.43-2.75.43c-1.37,0-2.4-.16-3.11-.47s-1.26-.73-1.67-1.23-.68-1.03-.81-1.59c-.19-.82-.28-2.03-.28-3.63V.2Z" style="fill: #4b4c4e;"/>
          <path d="M157.19,14.51V.2h6.08c1.53,0,2.64.13,3.33.39s1.25.71,1.67,1.37.62,1.41.62,2.26c0,1.07-.32,1.96-.95,2.66s-1.58,1.14-2.83,1.32c.62.36,1.14.76,1.55,1.2s.96,1.21,1.65,2.32l1.75,2.79h-3.46l-2.09-3.12c-.74-1.11-1.25-1.81-1.52-2.1s-.56-.49-.87-.6-.79-.16-1.46-.16h-.59v5.98h-2.89ZM160.08,6.25h2.14c1.39,0,2.25-.06,2.6-.18s.62-.32.81-.61.29-.64.29-1.07c0-.48-.13-.87-.39-1.17s-.62-.48-1.09-.56c-.23-.03-.94-.05-2.11-.05h-2.26v3.63Z" style="fill: #4b4c4e;"/>
          <path d="M173.43,14.51V.2h10.62v2.42h-7.72v3.17h7.19v2.41h-7.19v3.9h8v2.41h-10.89Z" style="fill: #4b4c4e;"/>
        </g>
        <g>
          <path d="M121.98,79.69c.26-.08.51-.11.74-.11.42,0,.81.13,1.19.4l1.64,1.02c.68.45,1.09,1.08,1.25,1.87.08.19.11.38.11.57,0,.57-.19,1.1-.57,1.59-2.91,3.96-6.7,7.55-11.38,10.76-.08.08-.1.16-.08.25.02.09.07.16.14.2,5.17,2.27,10.78,3.98,16.82,5.15.72.15,1.21.57,1.47,1.25.11.26.17.51.17.74,0,.42-.13.81-.4,1.19-.23.34-.45.66-.68.96-.57.87-1.3,1.49-2.21,1.87-.57.26-1.15.4-1.76.4-.34,0-.68-.04-1.02-.11-.34-.08-.91-.23-1.7-.45-.11-.04-.22-.02-.31.06-.09.08-.14.17-.14.28v17.33c0,.91-.32,1.69-.96,2.35-.64.66-1.44.99-2.38.99h-2.38c-.45,0-.85-.17-1.19-.51s-.51-.74-.51-1.19c0-.15-.06-.23-.17-.23h-20.56c-.15,0-.23.09-.23.28,0,.49-.19.92-.57,1.3-.38.38-.83.57-1.36.57h-1.76c-.94,0-1.74-.32-2.38-.96s-.96-1.44-.96-2.38v-17.62c0-.11-.05-.2-.14-.25-.09-.06-.2-.08-.31-.08-1.02.3-1.98.59-2.89.85-.34.08-.66.11-.96.11-.6,0-1.19-.15-1.76-.45-.83-.45-1.49-1.11-1.98-1.98-.04-.11-.09-.23-.17-.34-.23-.38-.34-.77-.34-1.19,0-.3.08-.62.23-.96.3-.72.83-1.15,1.59-1.3,6.31-1.4,12.21-3.32,17.73-5.78.08-.04.11-.1.11-.2s-.04-.18-.11-.25c-2.23-1.7-4.32-3.53-6.29-5.49-.19-.23-.4-.25-.62-.06-1.55,1.4-3.23,2.74-5.04,4.02-.64.42-1.32.62-2.04.62h-.57c-.91-.15-1.7-.57-2.38-1.25-.15-.15-.3-.28-.45-.4-.49-.53-.74-1.11-.74-1.76,0-.11.02-.23.06-.34.08-.79.45-1.42,1.13-1.87,5.66-3.47,10.25-7.72,13.76-12.74.57-.79,1.3-1.36,2.21-1.7.49-.15.96-.23,1.42-.23s.91.08,1.36.23l.23.06c.79.3,1.34.85,1.64,1.64.08.3.11.59.11.85,0,.49-.13.96-.4,1.42-.19.26-.36.51-.51.74-.08.08-.08.15-.03.23.06.08.12.11.2.11h17.84c.08,0,.15-.02.23-.06ZM91.51,106.59c0,.08.02.11.06.11h31.72s.07-.02.08-.06c.02-.04,0-.06-.03-.06-5.74-1.7-10.82-3.79-15.24-6.29-.26-.15-.51-.15-.74,0-4.57,2.42-9.86,4.51-15.86,6.29ZM96.89,119.79c0,.3.13.45.4.45h20.16c.26,0,.4-.15.4-.45v-6.4c0-.26-.13-.4-.4-.4h-20.16c-.26,0-.4.13-.4.4v6.4ZM116.31,85.97c.04-.08.04-.15,0-.23-.04-.08-.09-.11-.17-.11h-16.88c-.08,0-.13.04-.17.11-.04.08-.02.15.06.23,2.08,2.08,4.81,4.17,8.21,6.29.23.15.47.15.74,0,3.4-2.08,6.14-4.17,8.21-6.29Z" style="fill: #4b4c4e;"/>
          <path d="M165.44,96.06c1.51-1.74,3.32-2.61,5.44-2.61h.28c2.11,0,3.96.83,5.55,2.49,5.21,5.44,11.42,9.61,18.63,12.52.75.3,1.25.85,1.47,1.64.08.26.11.51.11.74,0,.49-.17.96-.51,1.42-.15.26-.32.53-.51.79-.49.79-1.19,1.32-2.1,1.59-.38.11-.74.17-1.08.17-.53,0-1.06-.11-1.59-.34-1.02-.53-2.06-1.08-3.12-1.64-.08-.04-.15-.03-.23.03-.08.06-.11.12-.11.2v11.89c0,.94-.33,1.74-.99,2.38-.66.64-1.44.96-2.35.96h-2.32c-.38,0-.7-.13-.96-.4s-.4-.59-.4-.96c0-.15-.06-.23-.17-.23h-18.75c-.11,0-.17.08-.17.23,0,.38-.14.71-.42.99s-.61.42-.99.42h-1.93c-.91,0-1.69-.32-2.35-.96-.66-.64-.99-1.44-.99-2.38v-11.44c0-.08-.04-.14-.11-.2-.08-.06-.15-.05-.23.03-1.02.57-2.02,1.1-3,1.59-.49.23-1,.34-1.53.34-.34,0-.7-.06-1.08-.17-.87-.26-1.57-.81-2.1-1.64-.08-.08-.15-.17-.23-.28-.3-.49-.45-1-.45-1.53,0-.23.04-.47.11-.74.19-.79.66-1.38,1.42-1.76,3.44-1.62,6.71-3.61,9.83-5.95,3.12-2.34,5.75-4.74,7.9-7.19ZM153.55,85.07c-.26,0-.4.15-.4.45v2.44c0,.91-.33,1.69-.99,2.35s-1.44.99-2.35.99h-.06c-.94,0-1.74-.33-2.38-.99-.64-.66-.96-1.44-.96-2.35v-5.78c0-.94.32-1.74.96-2.38s1.43-.96,2.38-.96h17.22c.26,0,.4-.15.4-.45v-.85c0-.94.33-1.74.99-2.38.66-.64,1.44-.96,2.35-.96h.4c.94,0,1.74.32,2.38.96.64.64.96,1.44.96,2.38v.85c0,.3.15.45.45.45h17.62c.94,0,1.74.32,2.38.96.64.64.96,1.44.96,2.38v5.78c0,.91-.32,1.69-.96,2.35-.64.66-1.44.99-2.38.99h-.4c-.91,0-1.69-.33-2.35-.99-.66-.66-.99-1.44-.99-2.35v-2.44c0-.3-.13-.45-.4-.45h-34.83ZM158.48,88.75c.68-.75,1.49-1.26,2.44-1.53.45-.15.91-.23,1.36-.23.49,0,1,.09,1.53.28l.34.11c.75.26,1.26.79,1.53,1.59.08.23.11.45.11.68,0,.53-.19,1-.57,1.42-2.76,3.29-6.06,6.23-9.91,8.84-.6.38-1.23.57-1.87.57-.23,0-.45-.02-.68-.06-.91-.19-1.68-.64-2.32-1.36-.15-.15-.28-.32-.4-.51-.42-.45-.62-1-.62-1.64v-.45c.15-.79.58-1.4,1.3-1.81,2.98-1.7,5.57-3.66,7.76-5.89ZM161.59,120.19c0,.3.15.45.45.45h18.18c.3,0,.45-.15.45-.45v-5.27c0-.3-.15-.45-.45-.45h-18.18c-.3,0-.45.15-.45.45v5.27ZM162.39,108.18s-.05.09-.03.17c.02.08.07.11.14.11h18.24s.07-.03.08-.08c.02-.06,0-.1-.03-.14-3.93-2.83-6.99-5.57-9.18-8.21-.19-.23-.38-.23-.57,0-2.19,2.76-5.08,5.48-8.67,8.16ZM177.28,91.87c-.68-.49-1.02-1.17-1.02-2.04,0-.68.26-1.26.79-1.76.75-.6,1.6-.94,2.55-1.02h.34c.79,0,1.55.23,2.27.68,3.74,2.38,6.87,4.61,9.4,6.68.68.57,1.02,1.28,1.02,2.15,0,.94-.36,1.72-1.08,2.32l-.17.11c-.68.57-1.45.85-2.32.85h-.17c-.91-.04-1.72-.36-2.44-.96-2.57-2.3-5.63-4.64-9.18-7.02Z" style="fill: #4b4c4e;"/>
          <path d="M238.14,121.49c0,.26.15.4.45.4h20.28c.68,0,1.26.25,1.76.74.49.49.74,1.08.74,1.78s-.25,1.28-.74,1.76c-.49.47-1.08.71-1.76.71h-47.75c-.68,0-1.27-.24-1.76-.71-.49-.47-.74-1.06-.74-1.76s.25-1.29.74-1.78,1.08-.74,1.76-.74h19.99c.3,0,.45-.13.45-.4v-1.25c0-.26-.15-.4-.45-.4h-15.07c-.64,0-1.18-.23-1.61-.68-.43-.45-.65-.98-.65-1.59s.22-1.12.65-1.56.97-.65,1.61-.65h15.07c.3,0,.45-.15.45-.45v-1.02c0-.26-.15-.4-.45-.4h-12.8c-.94,0-1.74-.33-2.38-.99-.64-.66-.96-1.44-.96-2.35v-8.16c0-.94.32-1.74.96-2.38s1.43-.96,2.38-.96h33.36c.94,0,1.74.32,2.38.96.64.64.96,1.44.96,2.38v8.16c0,.91-.32,1.69-.96,2.35-.64.66-1.44.99-2.38.99h-13.08c-.3,0-.45.13-.45.4v1.02c0,.3.15.45.45.45h15.29c.64,0,1.18.22,1.61.65.43.43.65.95.65,1.56s-.22,1.13-.65,1.59c-.43.45-.97.68-1.61.68h-15.29c-.3,0-.45.13-.45.4v1.25ZM258.75,91.98c.68,0,1.26.25,1.76.74.49.49.74,1.08.74,1.76s-.25,1.26-.74,1.73c-.49.47-1.08.71-1.76.71h-47.52c-.68,0-1.27-.24-1.76-.71-.49-.47-.74-1.05-.74-1.73s.25-1.26.74-1.76,1.08-.74,1.76-.74h47.52ZM250.37,75.89c.91,0,1.69.33,2.35.99.66.66.99,1.44.99,2.35v7.65c0,.94-.33,1.74-.99,2.38-.66.64-1.44.96-2.35.96h-31.04c-.91,0-1.69-.32-2.35-.96-.66-.64-.99-1.43-.99-2.38v-7.65c0-.91.33-1.69.99-2.35s1.44-.99,2.35-.99h31.04ZM221.88,102.29c-.3,0-.45.15-.45.45v1.19c0,.26.15.4.45.4h9.23c.3,0,.45-.13.45-.4v-1.19c0-.3-.15-.45-.45-.45h-9.23ZM221.43,109.37c0,.26.15.4.45.4h9.23c.3,0,.45-.13.45-.4v-1.19c0-.26-.15-.4-.45-.4h-9.23c-.3,0-.45.13-.45.4v1.19ZM246.29,81.39c.3,0,.45-.15.45-.45v-1.02c0-.26-.15-.4-.45-.4h-23.22c-.26,0-.4.13-.4.4v1.02c0,.3.13.45.4.45h23.22ZM246.29,86.71c.3,0,.45-.15.45-.45v-1.02c0-.3-.15-.45-.45-.45h-23.22c-.26,0-.4.15-.4.45v1.02c0,.3.13.45.4.45h23.22ZM247.88,104.33c.3,0,.45-.13.45-.4v-1.19c0-.3-.15-.45-.45-.45h-9.29c-.3,0-.45.15-.45.45v1.19c0,.26.15.4.45.4h9.29ZM247.88,109.76c.3,0,.45-.13.45-.4v-1.19c0-.26-.15-.4-.45-.4h-9.29c-.3,0-.45.13-.45.4v1.19c0,.26.15.4.45.4h9.29Z" style="fill: #4b4c4e;"/>
          <path d="M304.37,80.48c-.26-.45-.4-.92-.4-1.42,0-.34.06-.68.17-1.02.3-.83.87-1.42,1.7-1.76l.62-.23c.45-.19.91-.28,1.36-.28.42,0,.83.08,1.25.23.91.34,1.6.93,2.1,1.76,1.62,2.72,3.6,5.46,5.92,8.21,2.32,2.76,4.69,5.21,7.11,7.36.68.57,1.02,1.3,1.02,2.21,0,.83-.3,1.55-.91,2.15-.45.45-.89.91-1.3,1.36-.6.68-1.34,1.06-2.21,1.13h-.23c-.79,0-1.47-.28-2.04-.85-.26-.26-.6-.62-1.02-1.08-.08-.08-.14-.09-.2-.06-.06.04-.08.09-.08.17-.34,9.03-.75,15.44-1.22,19.26-.47,3.81-1.2,6.32-2.18,7.53-.68.87-1.43,1.5-2.24,1.9-.81.4-1.82.67-3.03.82-1.13.15-2.76.23-4.87.23h-.57c-.91,0-1.72-.32-2.44-.96-.72-.64-1.23-1.44-1.53-2.38-.08-.23-.15-.43-.23-.62-.08-.26-.11-.53-.11-.79,0-.42.13-.81.4-1.19.38-.6.91-.91,1.59-.91h.11c1.59.08,3.02.11,4.3.11,1.06,0,1.83-.26,2.32-.79.57-.6,1.02-2.29,1.36-5.07s.64-7.11.91-13c.04-.3-.09-.45-.4-.45h-10.59c-.26,0-.42.15-.45.45-.3,2.19-.68,4.17-1.13,5.95-.45,1.78-1.1,3.62-1.95,5.52-.85,1.91-1.88,3.63-3.09,5.18-1.21,1.55-2.74,3.04-4.59,4.47-1.85,1.43-3.96,2.72-6.34,3.85-.49.19-.96.28-1.42.28-.42,0-.81-.08-1.19-.23-.87-.3-1.59-.87-2.15-1.7-.23-.34-.45-.66-.68-.96-.34-.45-.51-.94-.51-1.47,0-.19.02-.4.06-.62.19-.75.64-1.28,1.36-1.59,2.49-1.02,4.62-2.22,6.37-3.6,1.76-1.38,3.14-2.91,4.16-4.59,1.02-1.68,1.79-3.33,2.32-4.96.53-1.62.94-3.47,1.25-5.55.04-.3-.09-.45-.4-.45h-6c-.94,0-1.74-.32-2.38-.96-.64-.64-.96-1.43-.96-2.38v-.28c0-.08-.04-.13-.11-.17-.08-.04-.13-.02-.17.06-.6.6-1.21,1.17-1.81,1.7-.64.57-1.36.85-2.15.85h-.28c-.91-.08-1.72-.45-2.44-1.13-.34-.3-.68-.62-1.02-.96-.6-.53-.91-1.19-.91-1.98,0-.91.34-1.62,1.02-2.15,5.51-4.42,9.87-9.97,13.08-16.65.42-.87,1.04-1.51,1.87-1.93.53-.23,1.08-.34,1.64-.34.34,0,.68.04,1.02.11l1.02.28c.83.26,1.43.79,1.81,1.59.19.42.28.81.28,1.19,0,.42-.09.83-.28,1.25-2.64,5.44-5.91,10.4-9.8,14.9-.08.04-.09.09-.06.17.04.08.09.11.17.11h30.47c.08,0,.13-.04.17-.11.04-.08.04-.13,0-.17-3.85-4.53-7.27-9.38-10.25-14.56Z" style="fill: #4b4c4e;"/>
          <path d="M350.61,99.82c-.57.59-1.27.88-2.1.88s-1.54-.29-2.12-.88c-.59-.58-.88-1.29-.88-2.12v-2.04c0-.08-.04-.12-.11-.14-.08-.02-.13,0-.17.03-1.25,1.59-2.55,2.98-3.91,4.19-.49.45-1.06.68-1.7.68-.15,0-.28-.02-.4-.06-.79-.11-1.47-.47-2.04-1.08-.45-.49-.68-1.04-.68-1.64,0-.11.02-.23.06-.34.08-.75.42-1.34,1.02-1.76,2.15-1.62,4.08-3.55,5.78-5.78.04-.08.04-.15,0-.23-.04-.08-.09-.11-.17-.11h-4.19c-.76,0-1.4-.26-1.93-.79-.53-.53-.79-1.16-.79-1.9s.26-1.37.79-1.9,1.17-.79,1.93-.79h6.06c.3,0,.45-.15.45-.45v-5.72c0-.83.29-1.54.88-2.12s1.29-.88,2.12-.88,1.53.29,2.1.88c.57.59.85,1.29.85,2.12v5.72c0,.3.15.45.45.45h6.23c.72,0,1.34.26,1.87.79.53.53.79,1.16.79,1.9s-.26,1.37-.79,1.9-1.15.79-1.87.79h-6.12s-.07.03-.08.08c-.02.06,0,.08.03.08,1.7.91,4.06,2.27,7.08,4.08.68.42,1.09,1.04,1.25,1.87.04.19.06.36.06.51,0,.6-.19,1.15-.57,1.64-.49.64-1.13,1-1.93,1.08h-.34c-.68,0-1.28-.21-1.81-.62-.87-.75-2.17-1.79-3.91-3.12-.04-.08-.1-.09-.2-.06-.09.04-.14.11-.14.23v2.49c0,.83-.28,1.54-.85,2.12ZM358.49,117.92c.79.6,1.19,1.42,1.19,2.44,0,.83-.3,1.55-.91,2.15l-.91,1.02s-.04.08,0,.11.08.04.11,0c2.76-1.28,5.3-2.87,7.65-4.76.79-.6,1.66-.96,2.61-1.08h.45c.79,0,1.53.21,2.21.62.83.53,1.25,1.27,1.25,2.21,0,.76-.3,1.36-.91,1.81-1.96,1.62-4.13,3.1-6.51,4.42-.6.3-1.23.45-1.87.45-.3,0-.59-.02-.85-.06-.94-.19-1.78-.64-2.49-1.36-.72-.68-1.4-1.28-2.04-1.81-.04-.08-.08-.08-.11,0-.38.38-.77.38-1.19,0-1.47-1.36-3.68-3.13-6.63-5.32-.19-.15-.36-.09-.51.17-1.66,2.87-4.25,5.27-7.76,7.19-.49.26-.96.4-1.42.4-.34,0-.68-.06-1.02-.17-.79-.26-1.47-.77-2.04-1.53-.34-.45-.51-.94-.51-1.47,0-.19.04-.38.11-.57.15-.75.57-1.32,1.25-1.7,4-2.23,6.42-5.19,7.25-8.89.08-.3-.04-.45-.34-.45h-5.32c-.79,0-1.48-.28-2.07-.85-.59-.57-.88-1.26-.88-2.1s.29-1.53.88-2.1c.58-.57,1.27-.85,2.07-.85h5.66c.3,0,.45-.15.45-.45v-.4c0-.87.3-1.6.91-2.21s1.33-.91,2.18-.91,1.58.3,2.18.91c.6.6.91,1.34.91,2.21v.4c0,.3.15.45.45.45h6.29c.83,0,1.53.28,2.1.85s.85,1.27.85,2.1-.28,1.53-.85,2.1-1.27.85-2.1.85h-6.46c-.3,0-.47.15-.51.45v.23c-.08.3.02.53.28.68,2.57,1.66,4.87,3.27,6.91,4.81ZM343.53,79.52c.11.3.17.62.17.96s-.08.7-.23,1.08c-.34.64-.87,1.11-1.59,1.42-.26.11-.53.17-.79.17-.34,0-.68-.09-1.02-.28-.6-.3-1.04-.79-1.3-1.47-.23-.68-.51-1.36-.85-2.04-.15-.34-.23-.68-.23-1.02,0-.26.04-.53.11-.79.23-.6.64-1.02,1.25-1.25.34-.15.7-.23,1.08-.23.3,0,.62.06.96.17.68.26,1.19.7,1.53,1.3.34.68.64,1.34.91,1.98ZM354.52,77.99c.26-.79.75-1.38,1.47-1.76.45-.26.92-.4,1.42-.4.26,0,.53.02.79.06.75.23,1.28.68,1.59,1.36.11.3.17.6.17.91,0,.38-.09.76-.28,1.13-.49.94-.93,1.74-1.3,2.38-.34.6-.83,1.02-1.47,1.25-.34.15-.68.23-1.02.23-.3,0-.6-.06-.91-.17-.6-.19-1.02-.57-1.25-1.13s-.23-1.13,0-1.7c.26-.72.53-1.43.79-2.15ZM363.13,89.37c0-.94.33-1.74.99-2.38.66-.64,1.44-.96,2.35-.96h3.46c.26,0,.43-.15.51-.45.19-.64.4-1.6.62-2.89.08-.26-.04-.4-.34-.4h-6.34c-.79,0-1.47-.28-2.04-.85s-.85-1.25-.85-2.07.28-1.5.85-2.07,1.25-.85,2.04-.85h21.64c.83,0,1.53.28,2.1.85s.85,1.26.85,2.07-.28,1.5-.85,2.07-1.27.85-2.1.85h-7.02c-.26,0-.45.13-.57.4-.53,1.25-.93,2.23-1.19,2.95-.04.08-.03.16.03.25.06.09.14.14.25.14h6.63c.94,0,1.74.32,2.38.96.64.64.96,1.44.96,2.38v23.85c0,.94-.32,1.74-.96,2.38s-1.44.96-2.38.96h-17.67c-.91,0-1.69-.32-2.35-.96-.66-.64-.99-1.43-.99-2.38v-23.85ZM380.52,94.7c.3,0,.45-.13.45-.4v-2.72c0-.26-.15-.4-.45-.4h-10.76c-.26,0-.4.13-.4.4v2.72c0,.26.13.4.4.4h10.76ZM380.52,103.02c.3,0,.45-.15.45-.45v-2.66c0-.3-.15-.45-.45-.45h-10.76c-.26,0-.4.15-.4.45v2.66c0,.3.13.45.4.45h10.76ZM380.52,111.46c.3,0,.45-.13.45-.4v-2.83c0-.26-.15-.4-.45-.4h-10.76c-.26,0-.4.13-.4.4v2.83c0,.26.13.4.4.4h10.76ZM378.26,122.17c-.57-.42-.85-.98-.85-1.7,0-.75.32-1.34.96-1.76.72-.49,1.52-.74,2.41-.74s1.69.25,2.41.74c.91.64,1.76,1.27,2.58,1.9.81.62,1.58,1.24,2.29,1.84.57.49.85,1.09.85,1.81,0,.91-.38,1.62-1.13,2.15-.64.45-1.34.68-2.1.68h-.4c-.87-.08-1.66-.43-2.38-1.08-1.28-1.17-2.83-2.46-4.64-3.85Z" style="fill: #4b4c4e;"/>
          <path d="M406.71,124.09c-1.51,0-2.77-.53-3.77-1.59-1-1.06-1.5-2.38-1.5-3.96s.5-2.91,1.5-3.96c1-1.06,2.26-1.59,3.77-1.59s2.78.53,3.79,1.59c1.02,1.06,1.53,2.38,1.53,3.96s-.51,2.91-1.53,3.96-2.29,1.59-3.79,1.59Z" style="fill: #4b4c4e;"/>
          <path d="M431.32,124.09c-1.51,0-2.77-.53-3.77-1.59-1-1.06-1.5-2.38-1.5-3.96s.5-2.91,1.5-3.96c1-1.06,2.26-1.59,3.77-1.59s2.78.53,3.79,1.59c1.02,1.06,1.53,2.38,1.53,3.96s-.51,2.91-1.53,3.96-2.29,1.59-3.79,1.59Z" style="fill: #4b4c4e;"/>
          <path d="M455.92,124.09c-1.51,0-2.77-.53-3.77-1.59-1-1.06-1.5-2.38-1.5-3.96s.5-2.91,1.5-3.96c1-1.06,2.26-1.59,3.77-1.59s2.78.53,3.79,1.59c1.02,1.06,1.53,2.38,1.53,3.96s-.51,2.91-1.53,3.96-2.29,1.59-3.79,1.59Z" style="fill: #4b4c4e;"/>
        </g>
      </g>
      <g>
        <g>
          <path d="M1084.19,84.34l-2.68-11.24h2.32l1.69,7.72,2.05-7.72h2.7l1.97,7.85,1.72-7.85h2.28l-2.73,11.24h-2.41l-2.24-8.4-2.23,8.4h-2.46Z" style="fill: #fff;"/>
          <path d="M1098.6,84.34v-11.24h2.27v11.24h-2.27Z" style="fill: #fff;"/>
          <path d="M1106.81,84.34v-9.33h-3.33v-1.9h8.93v1.9h-3.33v9.33h-2.27Z" style="fill: #fff;"/>
          <path d="M1115.13,84.34v-11.24h2.27v4.42h4.45v-4.42h2.27v11.24h-2.27v-4.91h-4.45v4.91h-2.27Z" style="fill: #fff;"/>
          <path d="M1132.87,78.79c0-1.14.17-2.1.51-2.88.26-.57.6-1.08,1.05-1.54.44-.46.93-.79,1.45-1.01.7-.3,1.51-.44,2.42-.44,1.66,0,2.98.51,3.97,1.54.99,1.03,1.49,2.46,1.49,4.28s-.49,3.23-1.48,4.26c-.99,1.02-2.3,1.54-3.96,1.54s-3-.51-3.99-1.53-1.48-2.42-1.48-4.21ZM1135.21,78.72c0,1.27.29,2.24.88,2.89.59.66,1.33.99,2.24.99s1.65-.33,2.23-.98.87-1.63.87-2.93-.28-2.25-.85-2.88c-.57-.63-1.31-.95-2.25-.95s-1.69.32-2.26.96c-.57.64-.86,1.61-.86,2.9Z" style="fill: #fff;"/>
          <path d="M1146.34,78.79c0-1.14.17-2.1.51-2.88.26-.57.6-1.08,1.05-1.54.44-.46.93-.79,1.45-1.01.7-.3,1.51-.44,2.42-.44,1.66,0,2.98.51,3.97,1.54.99,1.03,1.49,2.46,1.49,4.28s-.49,3.23-1.48,4.26c-.99,1.02-2.3,1.54-3.96,1.54s-3-.51-3.99-1.53-1.48-2.42-1.48-4.21ZM1148.67,78.72c0,1.27.29,2.24.88,2.89.59.66,1.33.99,2.24.99s1.65-.33,2.23-.98.87-1.63.87-2.93-.28-2.25-.85-2.88c-.57-.63-1.31-.95-2.25-.95s-1.69.32-2.26.96c-.57.64-.86,1.61-.86,2.9Z" style="fill: #fff;"/>
          <path d="M1160.32,84.34v-11.14h2.27v9.25h5.64v1.89h-7.91Z" style="fill: #fff;"/>
          <path d="M1181.24,84.34h-2.47l-.98-2.55h-4.49l-.93,2.55h-2.41l4.38-11.24h2.4l4.5,11.24ZM1177.06,79.9l-1.55-4.17-1.52,4.17h3.07Z" style="fill: #fff;"/>
          <path d="M1183.7,73.11h4.49c.89,0,1.55.04,1.99.11.44.07.83.23,1.17.46.35.23.63.55.86.94.23.39.34.83.34,1.31,0,.53-.14,1.01-.42,1.45-.28.44-.67.77-1.15.99.68.2,1.21.54,1.58,1.02.37.48.55,1.04.55,1.69,0,.51-.12,1.01-.36,1.49-.24.48-.56.87-.97,1.16-.41.29-.92.47-1.52.53-.38.04-1.29.07-2.74.08h-3.82v-11.24ZM1185.97,74.98v2.6h1.49c.88,0,1.43-.01,1.65-.04.39-.05.69-.18.92-.4s.33-.51.33-.88-.1-.63-.29-.85c-.19-.22-.48-.35-.85-.39-.22-.03-.87-.04-1.94-.04h-1.3ZM1185.97,79.45v3h2.1c.82,0,1.34-.02,1.56-.07.34-.06.61-.21.82-.45s.32-.56.32-.95c0-.34-.08-.62-.25-.86-.16-.24-.4-.41-.71-.51-.31-.11-.98-.16-2.01-.16h-1.83Z" style="fill: #fff;"/>
          <path d="M1196.22,82.19h2.15v1.54c0,.62-.05,1.12-.16,1.48s-.31.68-.61.97-.68.51-1.14.67l-.42-.89c.43-.14.74-.34.93-.59.18-.25.28-.59.29-1.03h-1.04v-2.15Z" style="fill: #fff;"/>
          <path d="M1207.45,84.34v-11.24h2.27v11.24h-2.27Z" style="fill: #fff;"/>
          <path d="M1213.16,84.34v-11.24h2.21l4.6,7.5v-7.5h2.11v11.24h-2.28l-4.53-7.33v7.33h-2.11Z" style="fill: #fff;"/>
          <path d="M1234.01,84.34v-4.73l-4.12-6.51h2.66l2.64,4.45,2.59-4.45h2.61l-4.13,6.52v4.71h-2.26Z" style="fill: #fff;"/>
          <path d="M1242.32,78.79c0-1.14.17-2.1.51-2.88.26-.57.6-1.08,1.05-1.54.44-.46.93-.79,1.45-1.01.7-.3,1.51-.44,2.42-.44,1.66,0,2.98.51,3.97,1.54.99,1.03,1.49,2.46,1.49,4.28s-.49,3.23-1.48,4.26c-.99,1.02-2.3,1.54-3.96,1.54s-3-.51-3.99-1.53-1.48-2.42-1.48-4.21ZM1244.66,78.72c0,1.27.29,2.24.88,2.89.59.66,1.33.99,2.24.99s1.65-.33,2.23-.98.87-1.63.87-2.93-.28-2.25-.85-2.88c-.57-.63-1.31-.95-2.25-.95s-1.69.32-2.26.96c-.57.64-.86,1.61-.86,2.9Z" style="fill: #fff;"/>
          <path d="M1256.23,73.11h2.27v6.08c0,.97.03,1.59.08,1.88.1.46.33.83.69,1.11s.87.42,1.5.42,1.13-.13,1.46-.39c.33-.26.52-.59.59-.97s.1-1.02.1-1.91v-6.22h2.27v5.9c0,1.35-.06,2.3-.18,2.86-.12.56-.35,1.03-.68,1.41-.33.38-.77.69-1.32.92s-1.27.34-2.16.34c-1.07,0-1.89-.12-2.44-.37-.55-.25-.99-.57-1.31-.97-.32-.4-.53-.81-.64-1.25-.15-.64-.22-1.59-.22-2.85v-5.99Z" style="fill: #fff;"/>
          <path d="M1268.85,84.34v-11.24h4.77c1.2,0,2.07.1,2.62.3.54.2.98.56,1.31,1.08.33.52.49,1.11.49,1.77,0,.84-.25,1.54-.74,2.09-.5.55-1.24.9-2.22,1.04.49.29.9.6,1.21.94s.75.95,1.29,1.82l1.37,2.19h-2.71l-1.64-2.44c-.58-.87-.98-1.42-1.2-1.65-.21-.23-.44-.38-.68-.47-.24-.08-.62-.13-1.14-.13h-.46v4.69h-2.27ZM1271.12,77.86h1.68c1.09,0,1.77-.05,2.04-.14.27-.09.48-.25.64-.48s.23-.51.23-.84c0-.38-.1-.68-.3-.92-.2-.23-.49-.38-.85-.44-.18-.03-.74-.04-1.66-.04h-1.77v2.85Z" style="fill: #fff;"/>
          <path d="M1287.05,84.34v-11.24h8.33v1.9h-6.06v2.49h5.64v1.89h-5.64v3.06h6.28v1.89h-8.55Z" style="fill: #fff;"/>
          <path d="M1301.64,84.34l-4.02-11.24h2.46l2.84,8.32,2.75-8.32h2.41l-4.02,11.24h-2.42Z" style="fill: #fff;"/>
          <path d="M1310.5,84.34v-11.24h8.33v1.9h-6.06v2.49h5.64v1.89h-5.64v3.06h6.28v1.89h-8.55Z" style="fill: #fff;"/>
          <path d="M1322.23,84.34v-11.24h4.77c1.2,0,2.07.1,2.62.3.54.2.98.56,1.31,1.08.33.52.49,1.11.49,1.77,0,.84-.25,1.54-.74,2.09-.5.55-1.24.9-2.22,1.04.49.29.9.6,1.21.94s.75.95,1.29,1.82l1.37,2.19h-2.71l-1.64-2.44c-.58-.87-.98-1.42-1.2-1.65-.21-.23-.44-.38-.68-.47-.24-.08-.62-.13-1.14-.13h-.46v4.69h-2.27ZM1324.5,77.86h1.68c1.09,0,1.77-.05,2.04-.14.27-.09.48-.25.64-.48s.23-.51.23-.84c0-.38-.1-.68-.3-.92-.2-.23-.49-.38-.85-.44-.18-.03-.74-.04-1.66-.04h-1.77v2.85Z" style="fill: #fff;"/>
          <path d="M1337.18,84.34v-4.73l-4.12-6.51h2.66l2.64,4.45,2.59-4.45h2.61l-4.13,6.52v4.71h-2.26Z" style="fill: #fff;"/>
          <path d="M1345.95,73.11h4.15c.94,0,1.65.07,2.14.21.66.19,1.22.54,1.69,1.03.47.5.83,1.1,1.07,1.82s.37,1.6.37,2.66c0,.92-.12,1.72-.35,2.39-.28.82-.68,1.48-1.2,1.99-.39.38-.92.68-1.59.9-.5.16-1.17.24-2.01.24h-4.27v-11.24ZM1348.21,75.01v7.44h1.69c.63,0,1.09-.04,1.37-.11.37-.09.67-.25.92-.47.24-.22.44-.58.59-1.08.15-.5.23-1.19.23-2.06s-.08-1.54-.23-2-.37-.83-.64-1.09c-.28-.26-.62-.44-1.05-.53-.32-.07-.94-.11-1.86-.11h-1.02Z" style="fill: #fff;"/>
          <path d="M1368.68,84.34h-2.47l-.98-2.55h-4.49l-.93,2.55h-2.41l4.38-11.24h2.4l4.5,11.24ZM1364.5,79.9l-1.55-4.17-1.52,4.17h3.07Z" style="fill: #fff;"/>
          <path d="M1372.65,84.34v-4.73l-4.12-6.51h2.66l2.64,4.45,2.59-4.45h2.61l-4.13,6.52v4.71h-2.26Z" style="fill: #fff;"/>
          <path d="M1379.66,84.34v-2.15h2.15v2.15h-2.15Z" style="fill: #fff;"/>
          <path d="M1092.73,109.85h-2.47l-.98-2.55h-4.49l-.93,2.55h-2.41l4.38-11.24h2.4l4.5,11.24ZM1088.55,105.4l-1.55-4.17-1.52,4.17h3.07Z" style="fill: #fff;"/>
          <path d="M1100.28,109.85v-11.14h2.27v9.25h5.64v1.89h-7.91Z" style="fill: #fff;"/>
          <path d="M1110.99,109.85v-11.24h2.27v11.24h-2.27Z" style="fill: #fff;"/>
          <path d="M1116.7,109.85v-11.24h7.7v1.9h-5.43v2.66h4.69v1.9h-4.69v4.77h-2.27Z" style="fill: #fff;"/>
          <path d="M1127.52,109.85v-11.24h8.33v1.9h-6.06v2.49h5.64v1.89h-5.64v3.06h6.28v1.89h-8.55Z" style="fill: #fff;"/>
          <path d="M1138.67,106.19l2.21-.21c.13.74.4,1.29.81,1.63s.95.52,1.64.52c.73,0,1.28-.15,1.65-.46.37-.31.56-.67.56-1.08,0-.27-.08-.49-.23-.68-.16-.19-.43-.35-.82-.49-.27-.09-.87-.25-1.82-.49-1.22-.3-2.07-.67-2.56-1.11-.69-.62-1.03-1.37-1.03-2.26,0-.57.16-1.11.49-1.61.32-.5.79-.88,1.4-1.14s1.35-.39,2.21-.39c1.41,0,2.47.31,3.18.93s1.09,1.44,1.12,2.47l-2.27.1c-.1-.58-.31-.99-.62-1.25s-.8-.38-1.44-.38-1.18.13-1.55.41c-.24.17-.36.41-.36.7,0,.27.11.49.34.68.29.24.98.49,2.08.75,1.1.26,1.92.53,2.45.81.53.28.94.66,1.24,1.14.3.48.45,1.08.45,1.79,0,.64-.18,1.25-.54,1.81-.36.56-.86.98-1.52,1.25-.65.27-1.47.41-2.44.41-1.42,0-2.51-.33-3.27-.98-.76-.66-1.22-1.61-1.36-2.87Z" style="fill: #fff;"/>
          <path d="M1153.5,109.85v-9.33h-3.33v-1.9h8.93v1.9h-3.33v9.33h-2.27Z" style="fill: #fff;"/>
          <path d="M1164.77,109.85v-4.73l-4.12-6.51h2.66l2.64,4.45,2.59-4.45h2.61l-4.13,6.52v4.71h-2.26Z" style="fill: #fff;"/>
          <path d="M1173.6,109.85v-11.14h2.27v9.25h5.64v1.89h-7.91Z" style="fill: #fff;"/>
          <path d="M1184.38,109.85v-11.24h8.33v1.9h-6.06v2.49h5.64v1.89h-5.64v3.06h6.28v1.89h-8.55Z" style="fill: #fff;"/>
          <path d="M1208.91,105.72l2.2.7c-.34,1.23-.9,2.14-1.68,2.73-.78.6-1.78.89-2.98.89-1.49,0-2.72-.51-3.68-1.53-.96-1.02-1.44-2.41-1.44-4.18,0-1.87.48-3.32,1.45-4.36.96-1.03,2.23-1.55,3.81-1.55,1.37,0,2.49.41,3.35,1.22.51.48.89,1.17,1.15,2.07l-2.25.54c-.13-.58-.41-1.04-.83-1.38-.42-.34-.93-.51-1.54-.51-.83,0-1.51.3-2.03.9s-.78,1.57-.78,2.9c0,1.42.25,2.43.77,3.04.51.6,1.17.9,1.99.9.6,0,1.12-.19,1.56-.58.43-.38.75-.99.94-1.81Z" style="fill: #fff;"/>
          <path d="M1214.32,109.85v-11.24h4.77c1.2,0,2.07.1,2.62.3.54.2.98.56,1.31,1.08.33.52.49,1.11.49,1.77,0,.84-.25,1.54-.74,2.09-.5.55-1.24.9-2.22,1.04.49.29.9.6,1.21.94s.75.95,1.29,1.82l1.37,2.19h-2.71l-1.64-2.44c-.58-.87-.98-1.42-1.2-1.65-.21-.23-.44-.38-.68-.47-.24-.08-.62-.13-1.14-.13h-.46v4.69h-2.27ZM1216.59,103.37h1.68c1.09,0,1.77-.05,2.04-.14.27-.09.48-.25.64-.48s.23-.51.23-.84c0-.38-.1-.68-.3-.92-.2-.23-.49-.38-.85-.44-.18-.03-.74-.04-1.66-.04h-1.77v2.85Z" style="fill: #fff;"/>
          <path d="M1237.04,109.85h-2.47l-.98-2.55h-4.49l-.93,2.55h-2.41l4.38-11.24h2.4l4.5,11.24ZM1232.86,105.4l-1.55-4.17-1.52,4.17h3.07Z" style="fill: #fff;"/>
          <path d="M1239.51,109.85v-11.24h7.7v1.9h-5.43v2.66h4.69v1.9h-4.69v4.77h-2.27Z" style="fill: #fff;"/>
          <path d="M1252.87,109.85v-9.33h-3.33v-1.9h8.93v1.9h-3.33v9.33h-2.27Z" style="fill: #fff;"/>
          <path d="M1261.18,109.85v-11.24h8.33v1.9h-6.06v2.49h5.64v1.89h-5.64v3.06h6.28v1.89h-8.55Z" style="fill: #fff;"/>
          <path d="M1272.9,98.61h4.15c.94,0,1.65.07,2.14.21.66.19,1.22.54,1.69,1.03.47.5.83,1.1,1.07,1.82s.37,1.6.37,2.66c0,.92-.12,1.72-.35,2.39-.28.82-.68,1.48-1.2,1.99-.39.38-.92.68-1.59.9-.5.16-1.17.24-2.01.24h-4.27v-11.24ZM1275.17,100.51v7.44h1.69c.63,0,1.09-.04,1.37-.11.37-.09.67-.25.92-.47.24-.22.44-.58.59-1.08.15-.5.23-1.19.23-2.06s-.08-1.54-.23-2-.37-.83-.64-1.09c-.28-.26-.62-.44-1.05-.53-.32-.07-.94-.11-1.86-.11h-1.02Z" style="fill: #fff;"/>
          <path d="M1290.54,106.19l2.21-.21c.13.74.4,1.29.81,1.63s.95.52,1.64.52c.73,0,1.28-.15,1.65-.46.37-.31.56-.67.56-1.08,0-.27-.08-.49-.23-.68-.16-.19-.43-.35-.82-.49-.27-.09-.87-.25-1.82-.49-1.22-.3-2.07-.67-2.56-1.11-.69-.62-1.03-1.37-1.03-2.26,0-.57.16-1.11.49-1.61.32-.5.79-.88,1.4-1.14s1.35-.39,2.21-.39c1.41,0,2.47.31,3.18.93s1.09,1.44,1.12,2.47l-2.27.1c-.1-.58-.31-.99-.62-1.25s-.8-.38-1.44-.38-1.18.13-1.55.41c-.24.17-.36.41-.36.7,0,.27.11.49.34.68.29.24.98.49,2.08.75,1.1.26,1.92.53,2.45.81.53.28.94.66,1.24,1.14.3.48.45,1.08.45,1.79,0,.64-.18,1.25-.54,1.81-.36.56-.86.98-1.52,1.25-.65.27-1.47.41-2.44.41-1.42,0-2.51-.33-3.27-.98-.76-.66-1.22-1.61-1.36-2.87Z" style="fill: #fff;"/>
          <path d="M1302.38,104.3c0-1.14.17-2.1.51-2.88.26-.57.6-1.08,1.05-1.54.44-.46.93-.79,1.45-1.01.7-.3,1.51-.44,2.42-.44,1.66,0,2.98.51,3.97,1.54.99,1.03,1.49,2.46,1.49,4.28s-.49,3.23-1.48,4.26c-.99,1.02-2.3,1.54-3.96,1.54s-3-.51-3.99-1.53-1.48-2.42-1.48-4.21ZM1304.72,104.22c0,1.27.29,2.24.88,2.89.59.66,1.33.99,2.24.99s1.65-.33,2.23-.98.87-1.63.87-2.93-.28-2.25-.85-2.88c-.57-.63-1.31-.95-2.25-.95s-1.69.32-2.26.96c-.57.64-.86,1.61-.86,2.9Z" style="fill: #fff;"/>
          <path d="M1316.32,109.85v-11.24h7.7v1.9h-5.43v2.66h4.69v1.9h-4.69v4.77h-2.27Z" style="fill: #fff;"/>
          <path d="M1329.68,109.85v-9.33h-3.33v-1.9h8.93v1.9h-3.33v9.33h-2.27Z" style="fill: #fff;"/>
          <path d="M1353.16,109.85h-2.47l-.98-2.55h-4.49l-.93,2.55h-2.41l4.38-11.24h2.4l4.5,11.24ZM1348.98,105.4l-1.55-4.17-1.52,4.17h3.07Z" style="fill: #fff;"/>
          <path d="M1355.64,109.85v-11.24h2.21l4.6,7.5v-7.5h2.11v11.24h-2.28l-4.53-7.33v7.33h-2.11Z" style="fill: #fff;"/>
          <path d="M1368.2,98.61h4.15c.94,0,1.65.07,2.14.21.66.19,1.22.54,1.69,1.03.47.5.83,1.1,1.07,1.82s.37,1.6.37,2.66c0,.92-.12,1.72-.35,2.39-.28.82-.68,1.48-1.2,1.99-.39.38-.92.68-1.59.9-.5.16-1.17.24-2.01.24h-4.27v-11.24ZM1370.47,100.51v7.44h1.69c.63,0,1.09-.04,1.37-.11.37-.09.67-.25.92-.47.24-.22.44-.58.59-1.08.15-.5.23-1.19.23-2.06s-.08-1.54-.23-2-.37-.83-.64-1.09c-.28-.26-.62-.44-1.05-.53-.32-.07-.94-.11-1.86-.11h-1.02Z" style="fill: #fff;"/>
          <path d="M1388.94,109.85v-9.33h-3.33v-1.9h8.93v1.9h-3.33v9.33h-2.27Z" style="fill: #fff;"/>
          <path d="M1397.27,109.85v-11.24h4.77c1.2,0,2.07.1,2.62.3.54.2.98.56,1.31,1.08.33.52.49,1.11.49,1.77,0,.84-.25,1.54-.74,2.09-.5.55-1.24.9-2.22,1.04.49.29.9.6,1.21.94s.75.95,1.29,1.82l1.37,2.19h-2.71l-1.64-2.44c-.58-.87-.98-1.42-1.2-1.65-.21-.23-.44-.38-.68-.47-.24-.08-.62-.13-1.14-.13h-.46v4.69h-2.27ZM1399.53,103.37h1.68c1.09,0,1.77-.05,2.04-.14.27-.09.48-.25.64-.48s.23-.51.23-.84c0-.38-.1-.68-.3-.92-.2-.23-.49-.38-.85-.44-.18-.03-.74-.04-1.66-.04h-1.77v2.85Z" style="fill: #fff;"/>
          <path d="M1409.83,98.61h2.27v6.08c0,.97.03,1.59.08,1.88.1.46.33.83.69,1.11s.87.42,1.5.42,1.13-.13,1.46-.39c.33-.26.52-.59.59-.97s.1-1.02.1-1.91v-6.22h2.27v5.9c0,1.35-.06,2.3-.18,2.86-.12.56-.35,1.03-.68,1.41-.33.38-.77.69-1.32.92s-1.27.34-2.16.34c-1.07,0-1.89-.12-2.44-.37-.55-.25-.99-.57-1.31-.97-.32-.4-.53-.81-.64-1.25-.15-.64-.22-1.59-.22-2.85v-5.99Z" style="fill: #fff;"/>
          <path d="M1422.44,109.85v-11.24h8.33v1.9h-6.06v2.49h5.64v1.89h-5.64v3.06h6.28v1.89h-8.55Z" style="fill: #fff;"/>
          <path d="M1434.1,107.7h2.15v1.54c0,.62-.05,1.12-.16,1.48s-.31.68-.61.97-.68.51-1.14.67l-.42-.89c.43-.14.74-.34.93-.59.18-.25.28-.59.29-1.03h-1.04v-2.15Z" style="fill: #fff;"/>
          <path d="M1082.59,135.35v-11.24h8.33v1.9h-6.06v2.49h5.64v1.89h-5.64v3.06h6.28v1.89h-8.55Z" style="fill: #fff;"/>
          <path d="M1094.34,135.35v-11.24h2.21l4.6,7.5v-7.5h2.11v11.24h-2.28l-4.53-7.33v7.33h-2.11Z" style="fill: #fff;"/>
          <path d="M1110.96,124.12h2.26v7.11c0,.93-.08,1.65-.25,2.15-.22.65-.62,1.18-1.2,1.58-.58.4-1.34.59-2.28.59-1.11,0-1.96-.31-2.56-.93s-.9-1.53-.9-2.73l2.14-.25c.03.64.12,1.1.28,1.36.25.4.62.61,1.12.61s.86-.14,1.07-.43c.21-.29.31-.89.31-1.8v-7.26Z" style="fill: #fff;"/>
          <path d="M1116.44,129.81c0-1.14.17-2.1.51-2.88.26-.57.6-1.08,1.05-1.54.44-.46.93-.79,1.45-1.01.7-.3,1.51-.44,2.42-.44,1.66,0,2.98.51,3.97,1.54.99,1.03,1.49,2.46,1.49,4.28s-.49,3.23-1.48,4.26c-.99,1.02-2.3,1.54-3.96,1.54s-3-.51-3.99-1.53-1.48-2.42-1.48-4.21ZM1118.77,129.73c0,1.27.29,2.24.88,2.89.59.66,1.33.99,2.24.99s1.65-.33,2.23-.98.87-1.63.87-2.93-.28-2.25-.85-2.88c-.57-.63-1.31-.95-2.25-.95s-1.69.32-2.26.96c-.57.64-.86,1.61-.86,2.9Z" style="fill: #fff;"/>
          <path d="M1133.31,135.35v-4.73l-4.12-6.51h2.66l2.64,4.45,2.59-4.45h2.61l-4.13,6.52v4.71h-2.26Z" style="fill: #fff;"/>
          <path d="M1147.42,135.35v-11.24h8.33v1.9h-6.06v2.49h5.64v1.89h-5.64v3.06h6.28v1.89h-8.55Z" style="fill: #fff;"/>
          <path d="M1162.01,135.35l-4.02-11.24h2.46l2.84,8.32,2.75-8.32h2.41l-4.02,11.24h-2.42Z" style="fill: #fff;"/>
          <path d="M1170.87,135.35v-11.24h8.33v1.9h-6.06v2.49h5.64v1.89h-5.64v3.06h6.28v1.89h-8.55Z" style="fill: #fff;"/>
          <path d="M1182.6,135.35v-11.24h4.77c1.2,0,2.07.1,2.62.3.54.2.98.56,1.31,1.08.33.52.49,1.11.49,1.77,0,.84-.25,1.54-.74,2.09-.5.55-1.24.9-2.22,1.04.49.29.9.6,1.21.94s.75.95,1.29,1.82l1.37,2.19h-2.71l-1.64-2.44c-.58-.87-.98-1.42-1.2-1.65-.21-.23-.44-.38-.68-.47-.24-.08-.62-.13-1.14-.13h-.46v4.69h-2.27ZM1184.87,128.87h1.68c1.09,0,1.77-.05,2.04-.14.27-.09.48-.25.64-.48s.23-.51.23-.84c0-.38-.1-.68-.3-.92-.2-.23-.49-.38-.85-.44-.18-.03-.74-.04-1.66-.04h-1.77v2.85Z" style="fill: #fff;"/>
          <path d="M1197.55,135.35v-4.73l-4.12-6.51h2.66l2.64,4.45,2.59-4.45h2.61l-4.13,6.52v4.71h-2.26Z" style="fill: #fff;"/>
          <path d="M1214.19,135.35v-9.33h-3.33v-1.9h8.93v1.9h-3.33v9.33h-2.27Z" style="fill: #fff;"/>
          <path d="M1222.43,135.35v-11.24h2.27v11.24h-2.27Z" style="fill: #fff;"/>
          <path d="M1228.09,135.35v-11.24h3.4l2.04,7.66,2.02-7.66h3.4v11.24h-2.11v-8.84l-2.23,8.84h-2.18l-2.22-8.84v8.84h-2.11Z" style="fill: #fff;"/>
          <path d="M1242.45,135.35v-11.24h8.33v1.9h-6.06v2.49h5.64v1.89h-5.64v3.06h6.28v1.89h-8.55Z" style="fill: #fff;"/>
          <path d="M1254.1,133.2h2.15v1.54c0,.62-.05,1.12-.16,1.48s-.31.68-.61.97-.68.51-1.14.67l-.42-.89c.43-.14.74-.34.93-.59.18-.25.28-.59.29-1.03h-1.04v-2.15Z" style="fill: #fff;"/>
          <path d="M1269.46,124.12h2.26v7.11c0,.93-.08,1.65-.25,2.15-.22.65-.62,1.18-1.2,1.58-.58.4-1.34.59-2.28.59-1.11,0-1.96-.31-2.56-.93s-.9-1.53-.9-2.73l2.14-.25c.03.64.12,1.1.28,1.36.25.4.62.61,1.12.61s.86-.14,1.07-.43c.21-.29.31-.89.31-1.8v-7.26Z" style="fill: #fff;"/>
          <path d="M1275.38,124.12h2.27v6.08c0,.97.03,1.59.08,1.88.1.46.33.83.69,1.11s.87.42,1.5.42,1.13-.13,1.46-.39c.33-.26.52-.59.59-.97s.1-1.02.1-1.91v-6.22h2.27v5.9c0,1.35-.06,2.3-.18,2.86-.12.56-.35,1.03-.68,1.41-.33.38-.77.69-1.32.92s-1.27.34-2.16.34c-1.07,0-1.89-.12-2.44-.37-.55-.25-.99-.57-1.31-.97-.32-.4-.53-.81-.64-1.25-.15-.64-.22-1.59-.22-2.85v-5.99Z" style="fill: #fff;"/>
          <path d="M1287.41,131.7l2.21-.21c.13.74.4,1.29.81,1.63s.95.52,1.64.52c.73,0,1.28-.15,1.65-.46.37-.31.56-.67.56-1.08,0-.27-.08-.49-.23-.68-.16-.19-.43-.35-.82-.49-.27-.09-.87-.25-1.82-.49-1.22-.3-2.07-.67-2.56-1.11-.69-.62-1.03-1.37-1.03-2.26,0-.57.16-1.11.49-1.61.32-.5.79-.88,1.4-1.14s1.35-.39,2.21-.39c1.41,0,2.47.31,3.18.93s1.09,1.44,1.12,2.47l-2.27.1c-.1-.58-.31-.99-.62-1.25s-.8-.38-1.44-.38-1.18.13-1.55.41c-.24.17-.36.41-.36.7,0,.27.11.49.34.68.29.24.98.49,2.08.75,1.1.26,1.92.53,2.45.81.53.28.94.66,1.24,1.14.3.48.45,1.08.45,1.79,0,.64-.18,1.25-.54,1.81-.36.56-.86.98-1.52,1.25-.65.27-1.47.41-2.44.41-1.42,0-2.51-.33-3.27-.98-.76-.66-1.22-1.61-1.36-2.87Z" style="fill: #fff;"/>
          <path d="M1302.24,135.35v-9.33h-3.33v-1.9h8.93v1.9h-3.33v9.33h-2.27Z" style="fill: #fff;"/>
          <path d="M1316.17,124.12h4.49c.89,0,1.55.04,1.99.11.44.07.83.23,1.17.46.35.23.63.55.86.94.23.39.34.83.34,1.31,0,.53-.14,1.01-.42,1.45-.28.44-.67.77-1.15.99.68.2,1.21.54,1.58,1.02.37.48.55,1.04.55,1.69,0,.51-.12,1.01-.36,1.49-.24.48-.56.87-.97,1.16-.41.29-.92.47-1.52.53-.38.04-1.29.07-2.74.08h-3.82v-11.24ZM1318.44,125.99v2.6h1.49c.88,0,1.43-.01,1.65-.04.39-.05.69-.18.92-.4s.33-.51.33-.88-.1-.63-.29-.85c-.19-.22-.48-.35-.85-.39-.22-.03-.87-.04-1.94-.04h-1.3ZM1318.44,130.46v3h2.1c.82,0,1.34-.02,1.56-.07.34-.06.61-.21.82-.45s.32-.56.32-.95c0-.34-.08-.62-.25-.86-.16-.24-.4-.41-.71-.51-.31-.11-.98-.16-2.01-.16h-1.83Z" style="fill: #fff;"/>
          <path d="M1328.76,135.35v-11.24h8.33v1.9h-6.06v2.49h5.64v1.89h-5.64v3.06h6.28v1.89h-8.55Z" style="fill: #fff;"/>
          <path d="M1340.41,135.35v-11.24h2.27v11.24h-2.27Z" style="fill: #fff;"/>
          <path d="M1346.12,135.35v-11.24h2.21l4.6,7.5v-7.5h2.11v11.24h-2.28l-4.53-7.33v7.33h-2.11Z" style="fill: #fff;"/>
          <path d="M1363.92,131.22v-1.89h4.89v4.48c-.48.46-1.16.87-2.07,1.21-.9.35-1.82.52-2.74.52-1.17,0-2.2-.25-3.07-.74s-1.53-1.2-1.97-2.12-.66-1.92-.66-2.99c0-1.17.25-2.21.74-3.12.49-.91,1.21-1.61,2.15-2.09.72-.37,1.62-.56,2.69-.56,1.4,0,2.48.29,3.27.88.78.58,1.29,1.39,1.51,2.42l-2.25.42c-.16-.55-.46-.99-.89-1.31s-.98-.48-1.64-.48c-.99,0-1.78.31-2.36.94-.58.63-.88,1.56-.88,2.8,0,1.33.3,2.33.89,3s1.37,1,2.33,1c.47,0,.95-.09,1.43-.28.48-.19.89-.41,1.23-.68v-1.43h-2.6Z" style="fill: #fff;"/>
          <path d="M1380.44,135.35v-4.73l-4.12-6.51h2.66l2.64,4.45,2.59-4.45h2.61l-4.13,6.52v4.71h-2.26Z" style="fill: #fff;"/>
          <path d="M1388.75,129.81c0-1.14.17-2.1.51-2.88.26-.57.6-1.08,1.05-1.54.44-.46.93-.79,1.45-1.01.7-.3,1.51-.44,2.42-.44,1.66,0,2.98.51,3.97,1.54.99,1.03,1.49,2.46,1.49,4.28s-.49,3.23-1.48,4.26c-.99,1.02-2.3,1.54-3.96,1.54s-3-.51-3.99-1.53-1.48-2.42-1.48-4.21ZM1391.09,129.73c0,1.27.29,2.24.88,2.89.59.66,1.33.99,2.24.99s1.65-.33,2.23-.98.87-1.63.87-2.93-.28-2.25-.85-2.88c-.57-.63-1.31-.95-2.25-.95s-1.69.32-2.26.96c-.57.64-.86,1.61-.86,2.9Z" style="fill: #fff;"/>
          <path d="M1402.66,124.12h2.27v6.08c0,.97.03,1.59.08,1.88.1.46.33.83.69,1.11s.87.42,1.5.42,1.13-.13,1.46-.39c.33-.26.52-.59.59-.97s.1-1.02.1-1.91v-6.22h2.27v5.9c0,1.35-.06,2.3-.18,2.86-.12.56-.35,1.03-.68,1.41-.33.38-.77.69-1.32.92s-1.27.34-2.16.34c-1.07,0-1.89-.12-2.44-.37-.55-.25-.99-.57-1.31-.97-.32-.4-.53-.81-.64-1.25-.15-.64-.22-1.59-.22-2.85v-5.99Z" style="fill: #fff;"/>
          <path d="M1415.25,135.35v-2.15h2.15v2.15h-2.15Z" style="fill: #fff;"/>
        </g>
        <path d="M1098.95,32.13c0,.07-.04.14-.08.3h-1.7c-2.5,0-5.01,0-7.51,0-5.05,0-8.29-3.06-8.57-8.1-.13-2.23.16-4.38,1.43-6.29,1.47-2.22,3.67-3.17,6.22-3.41,1.92-.19,3.81-.04,5.59.77,3.17,1.45,4.46,4.14,4.59,7.42.12,3.1.03,6.2.03,9.31Z" style="fill: #fff;"/>
      </g>
    </g>
  </g>
</svg>