<?xml version="1.0" encoding="UTF-8"?>
<svg id="_圖層_2" data-name="圖層 2" xmlns="http://www.w3.org/2000/svg" width="206.08" height="85.04" viewBox="0 0 206.08 85.04">
  <g id="_設計" data-name="設計">
    <path d="M65.68,20.91c-.07,3.09-.53,6.08-1.62,8.95-2.08,5.48-5.97,9.09-11.58,10.73-5.03,1.47-10.14,1.48-15.18.05-5.97-1.69-10.05-5.52-11.99-11.44-1.87-5.7-1.83-11.45.15-17.11,1.89-5.4,5.66-9.03,11.1-10.77,5.46-1.74,11.02-1.77,16.47,0,6.8,2.22,10.63,7.15,12,14.06.36,1.81.44,3.68.65,5.52ZM44.68,33.01c3.55-.03,6.73-.81,9.2-3.42,2.25-2.37,2.97-5.3,3.05-8.46.16-6.93-3.45-11.4-10.14-12.28-3.63-.48-7.15,0-10.13,2.4-4.78,3.85-5.47,12.99-1.35,17.91,2.46,2.94,5.81,3.81,9.38,3.85Z" style="fill: #fff;"/>
    <path d="M154.48,41.5V.18h6.87v16.35c1.41-.29,2.64-.66,3.9-.8,3.91-.42,7.7-.04,10.91,2.52,3.34,2.67,4.33,6.39,4.32,10.46,0,3.82-.96,7.31-3.94,9.95-2.13,1.9-4.71,2.82-7.51,2.88-4.67.11-9.35.04-14.02.04-.14,0-.29-.04-.53-.08ZM164.81,34.69c.8,0,1.59.02,2.39,0,4.47-.13,6.73-2.74,6.23-7.17-.35-3.05-2.57-4.91-5.92-4.93-3.37-.02-5.68,1.76-5.97,4.83-.2,2.15-.14,4.32-.12,6.48,0,.27.48.72.78.76.86.1,1.74.04,2.61.04Z" style="fill: #fff;"/>
    <path d="M146.12,41.59h-2.47c-3.65,0-7.29,0-10.94,0-7.35,0-12.07-4.45-12.48-11.79-.18-3.24.23-6.37,2.08-9.16,2.15-3.23,5.35-4.61,9.06-4.97,2.79-.27,5.56-.06,8.14,1.13,4.61,2.11,6.49,6.03,6.68,10.81.18,4.51.04,9.04.04,13.56,0,.11-.05.21-.11.43ZM139.23,34.48c0-1.82,0-3.64,0-5.46,0-4.49-2.41-6.72-6.88-6.39-2.99.22-4.92,2.27-5.17,5.49-.25,3.21,1.42,5.93,4.32,6.29,2.49.31,5.05.06,7.73.06Z" style="fill: #fff;"/>
    <path d="M84.25,41.71c-1.28-.15-2.58-.2-3.83-.48-5.45-1.21-8.84-5.37-9.16-11.15-.13-2.37.03-4.7.85-6.96,1.21-3.32,3.47-5.58,6.8-6.71,3.29-1.11,6.65-1.16,9.98-.21,4.92,1.4,8.01,5.35,8.28,10.65.09,1.88.03,3.82-.37,5.65-1.19,5.44-5.26,8.74-10.83,9.06-.57.03-1.14,0-1.71,0,0,.05,0,.09-.01.14ZM84.24,22.58c-3.8,0-6.02,2.23-6.02,6.03,0,3.76,2.29,6.06,6.03,6.07,3.7,0,6.06-2.36,6.06-6.07,0-3.74-2.31-6.03-6.06-6.03Z" style="fill: #fff;"/>
    <path d="M111.77,41.54h-6.76V.19h6.76v41.34Z" style="fill: #fff;"/>
    <g>
      <path d="M30.63,78.03c.07-.01.13-.02.2-.02.2,0,.37.06.53.18.22.17.34.39.37.66v.1c0,.26-.07.49-.21.7-.17.23-.4.39-.68.47-1.63.4-3.27.8-4.94,1.19-.1.01-.2.02-.27.02-.22,0-.42-.06-.61-.18-.27-.17-.45-.4-.53-.7v-.04c-.03-.09-.04-.18-.04-.27,0-.2.06-.38.18-.57.17-.26.4-.42.7-.49.34-.07.81-.16,1.43-.27.1-.01.16-.07.16-.18v-3.67c0-.09-.05-.14-.16-.14h-.9c-.3,0-.56-.11-.77-.32s-.32-.47-.32-.77.11-.56.32-.77.47-.32.77-.32h.9c.1,0,.16-.05.16-.14v-3.09c0-.11-.05-.16-.16-.16h-1.09c-.3,0-.56-.11-.77-.32s-.32-.48-.32-.78.11-.57.32-.78.47-.32.77-.32h4.8c.3,0,.56.11.77.32s.32.47.32.78-.11.57-.32.78-.47.32-.77.32h-1.11c-.09,0-.14.05-.14.16v3.09c0,.09.05.14.14.14h1.5s.07-.01.08-.04c.01-.03.01-.05,0-.08-.03-.04-.05-.08-.06-.12-.12-.2-.18-.4-.18-.62,0-.08,0-.16.02-.23.05-.3.2-.54.45-.72.75-.56,1.47-1.21,2.16-1.96.68-.75,1.27-1.51,1.75-2.29.18-.29.42-.52.7-.68.29-.17.59-.25.9-.25.7,0,1.26.3,1.68.9,1.24,1.76,2.62,3.14,4.14,4.16.25.17.41.4.49.7.01.09.02.18.02.25,0,.21-.05.4-.16.59-.03.04-.05.08-.08.12-.16.27-.38.45-.68.53-.08.01-.16.02-.25.02-.2,0-.38-.07-.55-.2-.86-.64-1.69-1.38-2.48-2.23-.79-.85-1.45-1.67-1.95-2.48-.03-.03-.06-.04-.09-.04s-.06.01-.07.04c-.56.91-1.28,1.83-2.15,2.75-.87.92-1.79,1.72-2.75,2.38-.1.08-.22.1-.34.06s-.22-.12-.28-.23c-.01,0-.02,0-.02.02v.7c0,.31-.11.58-.34.81-.23.23-.5.34-.81.34h-.64c-.09,0-.14.04-.14.14v3.2c0,.1.05.14.14.12l1.29-.25ZM39.91,77.46c.2-.27.45-.46.76-.57.14-.04.29-.06.43-.06.17,0,.33.03.49.1.29.12.48.31.57.59.04.1.06.21.06.31,0,.17-.05.34-.16.51-1.75,2.5-4.47,4.36-8.18,5.57-.13.04-.26.06-.39.06-.18,0-.36-.03-.53-.1-.31-.13-.56-.34-.74-.62-.04-.05-.08-.11-.12-.16-.09-.14-.14-.29-.14-.45,0-.08.01-.16.04-.25.08-.25.24-.4.49-.47,3.4-.91,5.87-2.4,7.42-4.45ZM36.1,71.72c.23-.21.5-.35.78-.41.1-.03.21-.04.31-.04.18,0,.36.03.53.1.23.1.38.27.45.51.01.06.02.13.02.2,0,.17-.07.32-.2.45-.94,1.02-2.05,1.92-3.34,2.71-.2.12-.4.18-.61.18-.08,0-.16,0-.25-.02-.3-.07-.55-.21-.76-.45-.14-.16-.21-.33-.21-.53v-.14c.04-.25.17-.43.39-.55,1.15-.61,2.11-1.28,2.89-2.01ZM38.06,74.38c.21-.23.46-.39.76-.47.12-.03.23-.04.35-.04.18,0,.36.03.53.1.26.12.42.3.49.57.01.08.02.15.02.21,0,.18-.06.35-.18.51-1.38,1.64-3.14,3.04-5.29,4.2-.18.1-.37.16-.57.16-.12,0-.23-.02-.33-.06-.31-.08-.57-.25-.78-.51-.01,0-.02,0-.02-.02-.13-.16-.2-.33-.2-.53,0-.05,0-.11.02-.18.05-.26.2-.45.45-.57,1.95-.91,3.54-2.04,4.75-3.38Z" style="fill: #fff;"/>
      <path d="M48.91,74.48c-.05.22-.18.38-.37.49-.12.05-.23.08-.35.08-.09,0-.18-.01-.27-.04-.21-.08-.36-.22-.47-.43-.07-.13-.1-.26-.1-.39,0-.08.01-.16.04-.25.29-1.04.51-2.27.66-3.67.03-.21.12-.38.27-.5.16-.12.33-.17.53-.15.22.03.4.12.53.29.13.17.19.36.18.57-.12,1.42-.33,2.75-.64,4ZM63.44,71.7c0,.09.05.14.14.14h1.39c.3,0,.55.1.76.31.21.21.31.46.31.76s-.1.55-.31.76c-.21.21-.46.31-.76.31h-9.67c-.3,0-.56-.11-.77-.32s-.32-.48-.32-.79c0-.03-.02-.05-.05-.07s-.06-.02-.09,0l-.1.06c-.14.06-.28.1-.42.1s-.27-.03-.4-.1c-.27-.13-.46-.34-.55-.62-.14-.44-.32-.93-.53-1.45,0-.01,0-.02-.03-.02s-.03,0-.03.02v12.25c0,.31-.11.58-.33.8-.22.22-.49.33-.8.33s-.58-.11-.79-.33c-.21-.22-.32-.49-.32-.8v-16.33c0-.31.11-.58.32-.8.21-.22.48-.33.79-.33s.58.11.8.33c.22.22.33.49.33.8v2.62c0,.06.03.08.1.06.12-.05.23-.08.35-.08s.23.02.33.06c.22.09.38.25.49.47.4.91.7,1.71.9,2.38.01,0,.02,0,.02-.02,0-.09.04-.17.11-.24.07-.07.15-.11.24-.11h1.91c.1,0,.16-.05.16-.14v-1.6c0-.09-.05-.14-.16-.14h-.74c-.29,0-.53-.1-.74-.3-.21-.2-.31-.45-.31-.73s.1-.54.31-.74c.21-.21.46-.31.74-.31h.74c.1,0,.16-.05.16-.14v-1c0-.33.11-.6.33-.82.22-.22.49-.33.81-.33s.59.11.82.33c.23.22.34.49.34.82v1c0,.09.05.14.14.14h1.91c.09,0,.14-.05.14-.14v-1c0-.33.11-.6.34-.82.23-.22.5-.33.81-.33h.02c.31,0,.58.11.81.33.23.22.34.49.34.82v1c0,.09.05.14.14.14h.94c.29,0,.53.1.74.31.21.21.31.46.31.74s-.1.53-.31.73c-.21.2-.46.3-.74.3h-.94c-.09,0-.14.04-.14.14v1.6ZM56.72,84.24c-.31,0-.58-.11-.8-.33-.22-.22-.33-.5-.33-.82v-6.84c0-.31.11-.58.33-.81.22-.23.5-.34.82-.34l7.03-.02c.31,0,.58.11.81.34.23.23.34.5.34.81v6.84c0,.32-.11.6-.34.82-.23.22-.5.33-.81.33h-.62c-.18,0-.33-.06-.46-.19-.12-.12-.19-.28-.19-.46,0-.05-.03-.08-.08-.08h-4.45c-.07,0-.1.03-.1.08,0,.18-.06.34-.19.47-.12.13-.28.2-.46.2h-.51ZM62.5,77.19c0-.11-.05-.16-.16-.16h-4.32c-.1,0-.16.05-.16.16v1.04c0,.09.05.14.16.14h4.32c.1,0,.16-.05.16-.14v-1.04ZM57.87,81.45c0,.1.05.16.16.16h4.32c.1,0,.16-.05.16-.16v-1.05c0-.11-.05-.16-.16-.16h-4.32c-.1,0-.16.05-.16.16v1.05ZM59.06,69.96c-.09,0-.14.04-.14.14v1.6c0,.09.05.14.14.14h1.91c.09,0,.14-.05.14-.14v-1.6c0-.09-.05-.14-.14-.14h-1.91Z" style="fill: #fff;"/>
      <path d="M74.47,84.96c-.1.05-.21.08-.31.08-.12,0-.23-.03-.35-.08-.22-.11-.38-.27-.47-.51-.04-.09-.06-.19-.06-.29,0-.12.03-.23.08-.35.1-.22.26-.38.47-.49,1.02-.48,1.6-1.13,1.76-1.95,0-.03-.01-.05-.04-.08-.03-.03-.05-.04-.08-.04h-.08c-.53,0-.99-.16-1.36-.48-.37-.32-.56-.75-.56-1.3s.19-.98.58-1.31c.38-.33.85-.49,1.4-.49.69,0,1.22.24,1.59.72.37.48.56,1.15.56,2.01,0,1-.27,1.9-.82,2.71s-1.32,1.42-2.3,1.85Z" style="fill: #fff;"/>
      <path d="M96.35,72.31c.09,0,.14-.05.14-.16v-1.13s0-.06-.03-.07c-.02,0-.04,0-.07,0-.08.08-.14.14-.2.2-.25.22-.53.33-.84.33h-.02c-.33-.01-.62-.12-.9-.33-.05-.04-.1-.08-.14-.12-.22-.17-.33-.4-.33-.68s.11-.52.33-.7c1.05-.87,1.95-1.9,2.68-3.09.17-.29.41-.5.72-.62.17-.08.35-.12.55-.12.12,0,.24.02.37.06l.12.04c.29.08.49.26.61.55.05.12.08.23.08.35,0,.14-.04.29-.12.45-.05.08-.1.16-.16.25-.03.03-.03.05,0,.08.02.03.04.04.07.04h10.8c.29,0,.53.1.74.31.21.21.31.46.31.74s-.1.53-.31.74c-.21.21-.46.31-.74.31h-.68c-.09,0-.14.04-.14.14v2.27c0,.1.05.16.14.16h1.41c.29,0,.53.1.74.31.21.21.31.46.31.75s-.1.54-.31.74c-.21.2-.46.3-.74.3h-1.41c-.09,0-.14.05-.14.16v2.25c0,.09.05.14.14.14h1.11c.3,0,.55.1.75.31.2.21.3.46.3.75s-.1.54-.3.75c-.2.21-.45.31-.75.31h-15.25c-.3,0-.55-.11-.75-.31-.2-.21-.3-.46-.3-.75s.1-.54.3-.75c.2-.21.45-.31.75-.31h1.17c.09,0,.14-.05.14-.14v-2.25c0-.11-.05-.16-.14-.16h-1.46c-.3,0-.55-.1-.76-.3-.21-.2-.31-.45-.31-.74s.1-.54.31-.75c.21-.21.46-.31.76-.31h1.46ZM96.61,83.36c-.2.27-.46.46-.8.55-.13.03-.26.04-.39.04-.21,0-.41-.04-.61-.12l-.12-.06c-.26-.11-.42-.29-.49-.57-.01-.07-.02-.14-.02-.21,0-.18.06-.36.18-.53.42-.56.78-1.19,1.09-1.88.13-.31.34-.55.62-.7.2-.11.4-.16.61-.16.09,0,.19.01.29.04l.06.02c.31.08.54.25.68.53.09.16.14.31.14.47,0,.12-.03.24-.08.37-.33.81-.72,1.54-1.17,2.21ZM98.74,69.75c-.09,0-.14.04-.14.14v2.27c0,.1.05.16.14.16h1.15c.1,0,.16-.05.16-.16v-2.27c0-.09-.05-.14-.16-.14h-1.15ZM98.74,74.42c-.09,0-.14.05-.14.16v2.25c0,.09.05.14.14.14h1.15c.1,0,.16-.05.16-.14v-2.25c0-.11-.05-.16-.16-.16h-1.15ZM99.61,81.31c-.01-.05-.02-.11-.02-.16,0-.25.08-.47.23-.66.18-.25.42-.38.72-.41.05-.01.1-.02.16-.02.25,0,.48.08.68.23.26.18.42.43.47.74.08.53.14,1.04.2,1.5v.14c0,.26-.08.5-.25.72-.21.25-.48.4-.8.45h-.04c-.05.01-.1.02-.16.02-.25,0-.46-.08-.64-.23-.23-.21-.36-.46-.39-.76-.04-.51-.09-1.03-.16-1.56ZM102.02,72.15c0,.1.05.16.16.16h1.17c.1,0,.16-.05.16-.16v-2.27c0-.09-.05-.14-.16-.14h-1.17c-.1,0-.16.04-.16.14v2.27ZM103.5,74.57c0-.11-.05-.16-.16-.16h-1.17c-.1,0-.16.05-.16.16v2.25c0,.09.05.14.16.14h1.17c.1,0,.16-.05.16-.14v-2.25ZM103.76,81.31c-.03-.11-.04-.2-.04-.29,0-.18.05-.35.14-.51.16-.26.38-.41.66-.45.08-.03.16-.04.25-.04.23,0,.46.06.66.2.3.16.5.39.61.7.18.53.34,1.05.49,1.54.03.1.04.2.04.29,0,.2-.06.38-.18.57-.17.26-.41.42-.72.47l-.12.04c-.08.01-.16.02-.23.02-.22,0-.43-.07-.62-.21-.26-.17-.42-.41-.49-.72-.12-.5-.27-1.03-.45-1.6ZM106.86,72.31c.09,0,.14-.05.14-.16v-2.27c0-.09-.05-.14-.14-.14h-1.23c-.1,0-.16.04-.16.14v2.27c0,.1.05.16.16.16h1.23ZM106.86,76.96c.09,0,.14-.05.14-.14v-2.25c0-.11-.05-.16-.14-.16h-1.23c-.1,0-.16.05-.16.16v2.25c0,.09.05.14.16.14h1.23ZM107.99,81.1c-.09-.14-.14-.3-.14-.47,0-.09.01-.19.04-.29.1-.27.29-.46.57-.55l.08-.02c.16-.05.32-.08.49-.08s.33.03.49.08c.34.12.61.31.8.59.52.75.96,1.44,1.31,2.05.08.14.12.29.12.45,0,.13-.02.25-.06.37-.12.27-.33.46-.62.57l-.25.08c-.13.05-.26.08-.39.08-.17,0-.34-.04-.51-.12-.3-.13-.53-.34-.68-.62-.34-.64-.75-1.34-1.23-2.11Z" style="fill: #fff;"/>
      <path d="M125.31,75.84c0,.32-.11.6-.33.82-.22.22-.5.33-.82.33h-4.26c-.09,0-.14.05-.16.16-.13,2.53-.54,4.56-1.23,6.09-.12.26-.33.42-.62.47-.05.01-.11.02-.18.02-.22,0-.42-.07-.61-.21-.01-.01-.03-.03-.06-.04-.25-.2-.41-.44-.49-.74-.04-.13-.06-.25-.06-.37,0-.18.04-.37.12-.55.61-1.5.92-3.68.92-6.54v-3.93c0-.31.11-.58.34-.81.23-.23.5-.34.81-.34h5.47c.33,0,.6.11.82.34.22.23.33.5.33.81v4.49ZM124.65,66.55c.3,0,.55.1.76.31.21.21.31.46.31.76s-.1.55-.31.76c-.21.21-.46.31-.76.31h-6.68c-.3,0-.56-.11-.77-.31-.21-.21-.32-.46-.32-.76s.11-.55.32-.76c.21-.21.47-.31.77-.31h6.68ZM123.02,72.46c0-.09-.05-.14-.16-.14h-2.93c-.09,0-.14.04-.14.14v2.25c0,.1.05.16.14.16h2.93c.1,0,.16-.05.16-.16v-2.25ZM134,72.31c.33,0,.6.11.82.33.22.22.33.49.33.81s-.11.59-.33.82c-.22.23-.5.34-.82.34h-.47c-.1,0-.16.04-.16.14v8.34c0,.32-.11.6-.33.82-.22.22-.5.33-.82.33h-.06c-.31,0-.58-.11-.81-.33-.23-.22-.34-.5-.34-.82v-8.34c0-.09-.05-.14-.14-.14h-2.03c-.09,0-.14.04-.16.14-.23,3.64-1.17,6.51-2.81,8.59-.18.22-.42.33-.7.33h-.02c-.3,0-.57-.11-.8-.33-.03-.03-.05-.05-.06-.06-.23-.21-.36-.46-.39-.74-.01-.05-.02-.11-.02-.16,0-.23.08-.45.23-.64.5-.65.91-1.36,1.23-2.13.33-.77.56-1.56.7-2.37.14-.81.24-1.55.29-2.21.05-.66.08-1.38.08-2.18v-4.36c0-.3.11-.54.33-.72.17-.13.36-.2.57-.2.07,0,.14,0,.21.02l.37.1c.1.01.2,0,.29-.02,1.43-.42,2.68-.88,3.73-1.39.25-.12.51-.18.78-.18.07,0,.13,0,.2.02.35.03.65.15.9.37l.35.31c.18.14.27.32.27.55,0,.04,0,.08-.02.12-.04.26-.18.44-.43.55-1.5.62-3.2,1.17-5.1,1.64-.09.03-.14.08-.14.18v2.3c0,.1.05.16.14.16h5.12Z" style="fill: #fff;"/>
      <path d="M150.09,73.11s.01.06.04.08c.03.01.05,0,.06-.02l.49-.41c.26-.21.56-.32.9-.33h.06c.31,0,.6.09.86.27,2.17,1.6,3.82,2.91,4.92,3.93.21.21.31.46.31.76,0,.32-.12.6-.37.82l-.29.29c-.22.2-.48.29-.76.29-.03,0-.05,0-.08-.02-.31-.01-.58-.13-.8-.35-1.26-1.28-3.01-2.77-5.23-4.49-.01-.01-.03-.01-.06,0-.03.01-.04.03-.04.06v9.06c0,.31-.11.58-.34.81-.23.23-.5.34-.81.34h-.31c-.31,0-.58-.12-.81-.34-.23-.23-.34-.5-.34-.81v-8.46s0-.05-.03-.06c-.02-.01-.04,0-.07.02-1.64,1.74-3.39,3.16-5.25,4.26-.18.1-.38.16-.59.16-.09,0-.19-.01-.29-.04-.31-.08-.57-.25-.76-.53-.09-.11-.18-.21-.25-.31-.13-.18-.2-.37-.2-.57,0-.07,0-.14.02-.21.05-.27.2-.48.45-.62,1.52-.85,2.94-1.91,4.25-3.18,1.31-1.28,2.4-2.62,3.27-4.02.03-.03.03-.06,0-.09-.02-.03-.04-.05-.07-.05h-6.68c-.33,0-.6-.11-.82-.33-.22-.22-.33-.5-.33-.82v-.14c0-.31.11-.58.33-.81.22-.23.5-.34.82-.34h15.02c.33,0,.6.11.82.34.22.23.33.5.33.81v.14c0,.32-.11.6-.33.82-.22.22-.5.33-.82.33h-4.92c-.09,0-.16.04-.21.14-.27.49-.61,1.02-1,1.58-.05.08-.08.17-.08.27v1.78Z" style="fill: #fff;"/>
      <path d="M171,68.19s0,.07,0,.1c.02.03.04.04.07.04h8.46c.31,0,.58.11.81.33.23.22.34.49.34.81s-.11.59-.34.81c-.23.22-.5.33-.81.33h-9.41c-.09,0-.16.04-.2.14-.69,1.41-1.42,2.63-2.19,3.67-.07.09-.1.18-.1.27v8.38c0,.32-.11.6-.34.82-.23.22-.5.33-.81.33h-.12c-.31,0-.58-.11-.81-.33-.23-.22-.34-.5-.34-.82v-5.66s-.01-.05-.04-.06c-.03-.01-.05,0-.06.02-.23.21-.48.41-.74.61-.16.13-.33.2-.53.2-.08,0-.16-.01-.23-.04-.29-.07-.5-.23-.64-.51-.04-.09-.08-.18-.12-.25-.1-.2-.16-.4-.16-.61,0-.11.01-.2.04-.29.07-.31.22-.57.47-.78,1.56-1.24,2.89-2.89,3.98-4.96.01-.03.01-.05,0-.08-.01-.03-.04-.04-.08-.04h-3.05c-.31,0-.58-.11-.81-.33-.23-.22-.34-.49-.34-.81s.11-.59.34-.81c.23-.22.5-.33.81-.33h4.1c.1,0,.17-.05.2-.14.2-.55.37-1.06.53-1.54.09-.3.27-.54.55-.7.2-.11.4-.16.61-.16.09,0,.18,0,.27.02l.27.08c.3.06.53.23.68.51.09.17.14.34.14.51,0,.1-.02.22-.06.35-.1.29-.22.6-.35.94ZM176.02,76.98c-.09,0-.14.05-.14.16v4.26c0,.1.05.16.14.16h3.5c.31,0,.58.11.79.32s.32.47.32.77-.11.56-.32.77-.48.32-.79.32h-9.77c-.31,0-.58-.11-.79-.32s-.32-.47-.32-.77.11-.56.32-.77.48-.32.79-.32h3.59c.09,0,.14-.05.14-.16v-4.26c0-.11-.05-.16-.14-.16h-2.83c-.3,0-.56-.11-.77-.32s-.32-.47-.32-.77.11-.56.32-.77.47-.32.77-.32h2.83c.09,0,.14-.05.14-.16v-2.01c0-.33.11-.6.34-.82.23-.22.5-.33.81-.33h.1c.31,0,.58.11.81.33.23.22.34.49.34.82v2.01c0,.1.05.16.14.16h2.71c.31,0,.58.11.79.32s.32.47.32.77-.11.56-.32.77-.48.32-.79.32h-2.71Z" style="fill: #fff;"/>
    </g>
    <path d="M2.88,66.15l7.87,16.83c.17.34-.35.64-.55.3,0,0-9.95-15.7-9.95-15.7-1.08-1.8,1.69-3.32,2.63-1.44h0Z" style="fill: #fff;"/>
    <path d="M205.84,67.6l-9.95,15.7c-.2.33-.73.04-.55-.3,0,0,7.87-16.83,7.87-16.83.94-1.88,3.71-.37,2.63,1.44h0Z" style="fill: #fff;"/>
  </g>
</svg>