<?xml version="1.0" encoding="UTF-8"?>
<svg id="_喇뒨쏛_2" data-name="喇뒨쏛 2" xmlns="http://www.w3.org/2000/svg" width="33.22" height="33.22" viewBox="0 0 33.22 33.22">
  <g id="_傍쇋뺃" data-name="傍쇋뺃">
    <g>
      <path d="M16.61,33.22C7.45,33.22,0,25.77,0,16.61S7.45,0,16.61,0s16.61,7.45,16.61,16.61-7.45,16.61-16.61,16.61ZM16.61,1.28C8.15,1.28,1.28,8.15,1.28,16.61s6.88,15.33,15.33,15.33,15.33-6.88,15.33-15.33S25.06,1.28,16.61,1.28Z" style="fill: #d6a18e;"/>
      <path d="M13.65,16.61v-4.23c0-.42.45-.68.81-.47l3.67,2.12,3.67,2.12c.36.21.36.73,0,.94l-3.67,2.12-3.67,2.12c-.36.21-.81-.05-.81-.47v-4.23Z" style="fill: #d6a18e;"/>
    </g>
  </g>
</svg>