<?xml version="1.0" encoding="UTF-8"?>
<svg id="_喇뒨쏛_2" data-name="喇뒨쏛 2" xmlns="http://www.w3.org/2000/svg" width="1298.68" height="1296.46" viewBox="0 0 1298.68 1296.46">
  <g id="_傍쇋뺃" data-name="傍쇋뺃">
    <path d="M1289.76,526.39c-24.29-175.74-96.23-324.74-249.54-424.66-78.18-50.95-162.75-78.41-251.14-92.06C725.83-.1,661.64-2.3,597.81,2.32c-31.24,2.26-62.44,4.68-93.24,9.67C284.36,47.64,123.75,161.17,46.88,375.98c-58.87,164.51-60.84,332.72-14.1,500.47,54.6,195.93,180.05,325.25,374.98,385.44,127.81,39.46,258.75,42.86,389.23,21.67,231.55-37.6,393.2-162.62,465.44-391.12,37.81-119.61,44.43-242.36,27.33-366.05Z" style="fill: #ededed;"/>
  </g>
</svg>