<?xml version="1.0" encoding="UTF-8"?>
<svg id="_喇뒨쏛_2" data-name="喇뒨쏛 2" xmlns="http://www.w3.org/2000/svg" width="635.87" height="169.43" viewBox="0 0 635.87 169.43">
  <g id="_傍쇋뺃" data-name="傍쇋뺃">
    <g style="opacity: .1;">
      <g>
        <path d="M169.54,84.94c-.28,12.55-2.15,24.7-6.58,36.36-8.45,22.25-24.27,36.92-47.03,43.57-20.43,5.97-41.18,6.02-61.65.21-24.26-6.88-40.84-22.43-48.72-46.49-7.58-23.14-7.44-46.51.6-69.5C13.83,27.16,29.15,12.41,51.25,5.35c22.19-7.08,44.77-7.21,66.91.03,27.63,9.03,43.2,29.04,48.74,57.11,1.45,7.37,1.79,14.96,2.63,22.44ZM84.25,134.08c14.43-.12,27.34-3.29,37.39-13.88,9.12-9.62,12.08-21.53,12.37-34.37.64-28.17-14.01-46.3-41.21-49.9-14.74-1.95-29.06.03-41.14,9.76-19.41,15.63-22.22,52.78-5.5,72.76,10,11.95,23.61,15.47,38.09,15.64Z" style="fill: #dbdbdc;"/>
        <path d="M530.28,168.59V.73h27.89v66.4c5.71-1.2,10.72-2.69,15.82-3.23,15.9-1.69,31.29-.16,44.33,10.24,13.58,10.83,17.59,25.96,17.55,42.48-.04,15.5-3.92,29.68-15.99,40.44-8.65,7.71-19.14,11.44-30.5,11.7-18.98.45-37.98.15-56.97.16-.59,0-1.17-.18-2.14-.33ZM572.25,140.93c3.24,0,6.48.08,9.71-.01,18.14-.51,27.34-11.12,25.3-29.12-1.41-12.41-10.46-19.95-24.04-20.04-13.67-.1-23.08,7.16-24.23,19.63-.81,8.72-.59,17.54-.5,26.31.01,1.09,1.94,2.93,3.15,3.08,3.5.42,7.07.15,10.62.15Z" style="fill: #dbdbdc;"/>
        <path d="M496.31,168.96h-10.02c-14.81,0-29.62.01-44.44,0-29.88-.03-49.03-18.09-50.68-47.91-.73-13.18.93-25.9,8.45-37.21,8.72-13.13,21.73-18.71,36.79-20.18,11.33-1.11,22.57-.24,33.08,4.57,18.71,8.57,26.36,24.49,27.13,43.9.72,18.33.17,36.72.16,55.08,0,.43-.22.85-.46,1.76ZM468.33,140.07c0-7.39,0-14.78,0-22.18,0-18.23-9.78-27.31-27.96-25.95-12.15.91-19.97,9.21-21,22.3-1.03,13.05,5.76,24.08,17.55,25.57,10.12,1.27,20.53.26,31.41.26Z" style="fill: #dbdbdc;"/>
        <path d="M244.98,169.43c-5.19-.62-10.47-.8-15.55-1.93-22.15-4.93-35.92-21.83-37.2-45.29-.53-9.62.13-19.08,3.45-28.26,4.9-13.5,14.09-22.69,27.61-27.27,13.36-4.53,27.02-4.7,40.54-.86,19.99,5.69,32.55,21.73,33.62,43.27.38,7.62.14,15.54-1.49,22.95-4.85,22.11-21.36,35.52-43.99,36.79-2.31.13-4.63.02-6.94.02-.02.19-.04.38-.06.58ZM244.96,91.75c-15.44.03-24.46,9.07-24.45,24.5,0,15.29,9.29,24.64,24.48,24.65,15.04.01,24.6-9.57,24.6-24.66,0-15.2-9.37-24.51-24.63-24.49Z" style="fill: #dbdbdc;"/>
        <path d="M356.81,168.74h-27.46V.79h27.46v167.96Z" style="fill: #dbdbdc;"/>
      </g>
    </g>
  </g>
</svg>