<?xml version="1.0" encoding="UTF-8"?>
<svg id="_喇뒨쏛_2" data-name="喇뒨쏛 2" xmlns="http://www.w3.org/2000/svg" width="33.22" height="33.22" viewBox="0 0 33.22 33.22">
  <g id="_傍쇋뺃" data-name="傍쇋뺃">
    <g>
      <g>
        <path d="M16.33,9.49c-4.03,0-7.31,3.28-7.31,7.32s3.28,7.31,7.31,7.31,7.32-3.28,7.32-7.31-3.28-7.32-7.32-7.32ZM16.33,21.74c-2.72,0-4.94-2.21-4.94-4.94s2.21-4.94,4.94-4.94,4.94,2.21,4.94,4.94-2.21,4.94-4.94,4.94Z" style="fill: #d6a18e;"/>
        <path d="M23.61,8c-.68,0-1.24.56-1.24,1.24s.56,1.24,1.24,1.24,1.24-.56,1.24-1.24-.56-1.24-1.24-1.24Z" style="fill: #d6a18e;"/>
      </g>
      <path d="M16.61,33.22C7.45,33.22,0,25.77,0,16.61S7.45,0,16.61,0s16.61,7.45,16.61,16.61-7.45,16.61-16.61,16.61ZM16.61,1.28C8.16,1.28,1.28,8.15,1.28,16.61s6.88,15.33,15.33,15.33,15.33-6.88,15.33-15.33S25.06,1.28,16.61,1.28Z" style="fill: #d6a18e;"/>
    </g>
  </g>
</svg>