<?xml version="1.0" encoding="UTF-8"?>
<svg id="_喇뒨쏛_2" data-name="喇뒨쏛 2" xmlns="http://www.w3.org/2000/svg" width="33.22" height="33.22" viewBox="0 0 33.22 33.22">
  <g id="_傍쇋뺃" data-name="傍쇋뺃">
    <g>
      <g>
        <path d="M16.87,15.87c0,.08,0,.17,0,.25,0,1.27,0,2.55,0,3.82,0,.43-.21.73-.58.86-.37.12-.81,0-1.03-.32-.11-.16-.19-.38-.19-.57-.01-2.19-.01-4.38,0-6.58,0-.2.08-.43.19-.6.35-.51,1.01-.5,1.41.02.49.64.96,1.28,1.44,1.92.62.82,1.23,1.64,1.85,2.46.04.06.09.11.18.22,0-.15,0-.23,0-.31,0-1.27,0-2.53,0-3.8,0-.37.17-.64.5-.79.34-.15.67-.1.95.15.21.19.28.43.28.71,0,1.84,0,3.69,0,5.53,0,.37,0,.74,0,1.11,0,.44-.21.7-.63.83-.37.12-.73,0-.98-.33-.46-.62-.9-1.25-1.36-1.87-.64-.88-1.27-1.76-1.91-2.64-.02-.03-.05-.06-.07-.09-.02,0-.03.01-.05.02Z" style="fill: #d6a18e;"/>
        <path d="M24.85,14.11v1.57c.09,0,.17.01.25.01.73,0,1.47,0,2.2,0,.44,0,.79.3.86.7.08.41-.15.88-.53,1.03-.13.05-.28.07-.43.07-.69,0-1.39,0-2.08,0-.08,0-.17,0-.26,0v1.52c.09,0,.17,0,.25,0,.71,0,1.42,0,2.13,0,.54,0,.93.4.93.94,0,.52-.36.87-.93.87-1.07,0-2.15,0-3.22,0-.58,0-.91-.34-.91-.93,0-2.2,0-4.4,0-6.6,0-.59.34-.94.93-.94,1.07,0,2.15,0,3.22,0,.45,0,.75.22.88.62.11.36-.01.77-.33.95-.17.1-.39.16-.59.16-.7.02-1.4,0-2.11,0-.08,0-.16,0-.26,0Z" style="fill: #d6a18e;"/>
        <path d="M7.91,19.03h.27c.71,0,1.42,0,2.13,0,.52,0,.92.4.92.93,0,.51-.37.88-.9.88-1.1,0-2.21,0-3.31,0-.54,0-.92-.39-.92-.91,0-2.21,0-4.42,0-6.62,0-.47.27-.8.71-.9.43-.1.84.08,1,.46.07.16.09.36.09.54,0,1.78,0,3.55,0,5.33,0,.09,0,.18,0,.3Z" style="fill: #d6a18e;"/>
        <path d="M12.03,16.6c0-1.13,0-2.25,0-3.38,0-.42.32-.76.78-.83.42-.07.81.13.95.52.05.13.08.27.08.41,0,2.2,0,4.4,0,6.59,0,.48-.27.83-.69.92-.4.09-.88-.14-1.04-.51-.06-.13-.08-.28-.08-.43,0-1.1,0-2.19,0-3.29h0Z" style="fill: #d6a18e;"/>
      </g>
      <path d="M16.61,33.22C7.45,33.22,0,25.77,0,16.61S7.45,0,16.61,0s16.61,7.45,16.61,16.61-7.45,16.61-16.61,16.61ZM16.61,1.28C8.15,1.28,1.28,8.15,1.28,16.61s6.88,15.33,15.33,15.33,15.33-6.88,15.33-15.33S25.06,1.28,16.61,1.28Z" style="fill: #d6a18e;"/>
    </g>
  </g>
</svg>