<?xml version="1.0" encoding="UTF-8"?>
<svg id="_喇뒨쏛_2" data-name="喇뒨쏛 2" xmlns="http://www.w3.org/2000/svg" width="33.22" height="33.22" viewBox="0 0 33.22 33.22">
  <g id="_傍쇋뺃" data-name="傍쇋뺃">
    <g>
      <path d="M18.46,10.89c.07-.07.32-.24,1.02-.24.39,0,.82.04,1.27.12l.7.12.6-3.38-.7-.13c-2.25-.42-4.05-.28-5.14.42-.7.45-1.2,1.05-1.49,1.79-.2.53-.3,1.27-.3,2.27v.72h-2.09v3.2h2.09v9.87h3.79v-9.87h2.72v-3.2h-2.72v-.53c0-.87.2-1.11.24-1.15Z" style="fill: #d6a18e;"/>
      <path d="M16.61,33.22C7.45,33.22,0,25.77,0,16.61S7.45,0,16.61,0s16.61,7.45,16.61,16.61-7.45,16.61-16.61,16.61ZM16.61,1.28C8.15,1.28,1.28,8.15,1.28,16.61s6.88,15.33,15.33,15.33,15.33-6.88,15.33-15.33S25.06,1.28,16.61,1.28Z" style="fill: #d6a18e;"/>
    </g>
  </g>
</svg>