<?xml version="1.0" encoding="UTF-8"?>
<svg id="_圖層_2" data-name="圖層 2" xmlns="http://www.w3.org/2000/svg" width="209.05" height="90.79" viewBox="0 0 209.05 90.79">
  <g id="_設計" data-name="設計">
    <g>
      <g>
        <path d="M34.67,56.32c-.41.43-.91.64-1.5.64s-1.09-.21-1.51-.64-.62-.96-.62-1.61.21-1.2.62-1.64.92-.66,1.51-.66,1.09.22,1.5.66c.41.44.62.98.62,1.64s-.21,1.18-.62,1.61Z" style="fill: #fff;"/>
        <path d="M59.88,54.2s-.04,0-.04.02,0,.03,0,.04l.37.25c.2.13.3.32.3.56s-.09.42-.28.55c-.79.52-1.66,1.03-2.61,1.53-.03.01-.05.03-.05.06s.01.05.03.06c1.03.7,2.2,1.22,3.52,1.56.18.04.29.16.35.33.05.18.03.34-.08.5-.14.22-.33.38-.56.48-.13.07-.27.1-.42.1-.09,0-.18-.01-.28-.03-1.52-.44-2.81-1.1-3.88-1.98-1.23-1.01-2.2-2.31-2.92-3.92-.03-.08-.09-.12-.18-.12h-1.96c-.08,0-.12.04-.12.12v3.82c0,.09.04.13.12.12l3.27-.51h.12c.14,0,.27.04.38.13.17.13.25.31.25.53,0,.17-.06.32-.17.46-.12.16-.28.25-.47.28-2.05.35-4.09.69-6.13,1.01-.06.01-.11.02-.15.02-.16,0-.3-.04-.45-.13-.18-.12-.29-.28-.33-.48-.02-.07-.03-.13-.03-.18,0-.13.04-.25.12-.37.11-.17.27-.27.46-.3.3-.04.72-.11,1.26-.18.08-.01.12-.06.12-.13v-4.08c0-.08-.04-.12-.12-.12h-2.09c-.19,0-.35-.07-.49-.21-.14-.14-.21-.3-.21-.5s.07-.36.21-.5.3-.21.49-.21h2.09c.09,0,.13-.04.13-.13v-6.26c0-.27.1-.5.29-.69.19-.19.42-.29.69-.29h8.87c.19,0,.35.06.47.19s.19.29.19.47-.06.35-.19.47-.29.19-.47.19h-8.12c-.08,0-.12.04-.12.13v.9c0,.09.04.13.12.13h7.67c.18,0,.33.06.45.18.12.12.18.27.18.45s-.06.33-.18.45-.27.18-.45.18h-7.67c-.08,0-.12.04-.12.13v.93c0,.08.04.12.12.12h7.67c.18,0,.33.06.45.18s.18.27.18.44-.06.32-.18.44c-.12.12-.27.18-.45.18h-7.67c-.08,0-.12.04-.12.13v.93c0,.09.04.13.12.13h9.8c.19,0,.35.07.49.21s.21.3.21.5-.07.36-.21.5c-.14.14-.3.21-.49.21h-1.1ZM59.61,54.28s.03-.03.02-.05c-.01-.02-.03-.03-.05-.03h-4.58s-.04.01-.06.03-.01.05,0,.08c.4.73.87,1.38,1.43,1.94.05.06.12.06.2.02,1.29-.73,2.31-1.39,3.04-1.99Z" style="fill: #fff;"/>
        <path d="M72.02,47.38c.2,0,.37.07.51.21s.21.31.21.51-.07.37-.21.51-.31.21-.51.21h-7.07c-.2,0-.37-.07-.51-.21-.14-.14-.21-.31-.21-.51s.07-.37.21-.51c.14-.14.31-.21.51-.21h2.57c.09,0,.13-.04.13-.13v-1.21c0-.22.08-.41.22-.56s.33-.22.55-.22.4.08.55.22.22.33.22.56v1.21c0,.09.04.13.13.13h2.69ZM65.84,49.95c.1-.2.25-.35.45-.45.12-.07.25-.1.38-.1.08,0,.15.01.22.03.2.04.34.16.43.35.04.09.07.18.07.27s-.02.18-.07.27c-.43.92-.96,1.75-1.58,2.51-.13.17-.3.25-.51.27h-.07c-.19,0-.36-.06-.51-.18-.18-.13-.27-.32-.27-.55,0-.17.06-.32.18-.45.5-.58.92-1.23,1.28-1.96ZM71.15,57.44c.11.16.17.32.17.5,0,.04,0,.09-.02.13-.03.24-.14.44-.32.6-.14.11-.3.17-.46.17h-.12c-.21-.03-.38-.14-.51-.32-.28-.4-.6-.82-.98-1.28-.04-.06-.09-.05-.15.02-.79,1.17-1.69,2.18-2.72,3.02-.17.12-.34.18-.53.18h-.12c-.23-.03-.43-.14-.6-.32-.1-.1-.16-.22-.18-.35-.01-.06-.02-.11-.02-.15,0-.09.02-.17.05-.25.06-.13.14-.24.25-.32,1.07-.79,2-1.8,2.79-3.04.04-.07.04-.13-.02-.18-.51-.53-1.06-1.06-1.64-1.59-.14-.12-.22-.28-.22-.46,0-.2.08-.36.23-.48.17-.13.35-.2.56-.2.22,0,.41.07.56.2.44.39.86.76,1.25,1.11.06.06.1.04.13-.03.19-.4.37-.83.53-1.29.07-.22.2-.39.4-.5.13-.08.28-.12.43-.12.07,0,.13,0,.2.02.21.05.37.18.48.37.07.11.1.23.1.35,0,.09-.02.17-.05.25-.25.73-.55,1.44-.9,2.12-.03.08-.02.14.03.2.55.6,1.01,1.15,1.38,1.64ZM79.55,48.47c.14.14.22.32.22.52s-.07.38-.22.52-.32.22-.53.22h-.18c-.08,0-.12.04-.13.12-.39,2.62-1.02,4.75-1.91,6.39-.03.08-.03.15.02.22.64,1.08,1.41,1.94,2.29,2.56.18.12.28.29.3.5v.1c0,.17-.06.32-.17.46-.16.19-.34.3-.56.35-.06.01-.11.02-.17.02-.17,0-.32-.05-.46-.15-.83-.63-1.56-1.43-2.17-2.41-.04-.07-.09-.07-.13-.02-.82,1.01-1.81,1.85-2.97,2.54-.13.07-.26.1-.38.1-.08,0-.16-.01-.25-.03-.21-.07-.38-.19-.5-.38-.09-.12-.13-.25-.13-.4,0-.06,0-.12.02-.18.06-.2.17-.35.35-.45,1.26-.7,2.28-1.6,3.06-2.71.04-.07.05-.14.02-.22-.46-1.07-.87-2.31-1.21-3.7,0-.02-.01-.03-.03-.03s-.04.01-.05.03c-.14.29-.29.55-.43.78-.1.19-.26.29-.48.32h-.07c-.19,0-.35-.07-.48-.2-.17-.16-.27-.34-.32-.56v-.17c0-.17.04-.33.13-.48.03-.04.07-.1.1-.17.01-.02.01-.04,0-.05-.01-.01-.02-.01-.03,0l-.27.17c-.14.08-.29.12-.45.12-.09,0-.18-.02-.27-.05-.24-.08-.44-.23-.58-.45-.24-.42-.54-.86-.88-1.31-.08-.1-.12-.21-.12-.33v-.13c.03-.17.13-.29.28-.38.13-.07.27-.1.42-.1.04,0,.09,0,.15.02.2.03.37.13.5.28.58.71,1.01,1.35,1.29,1.93.01.03.03.05.06.05s.05-.01.06-.03c.75-1.44,1.33-3.35,1.74-5.75.03-.22.14-.39.32-.51.14-.11.29-.17.45-.17.04,0,.09,0,.13.02.22.03.39.14.51.32.1.13.15.28.15.43,0,.06,0,.11-.02.15-.11.62-.25,1.28-.42,1.98-.02.08.01.12.1.12h3.79c.21,0,.39.07.53.22ZM77.13,49.87c.01-.09-.02-.13-.1-.13h-2.22c-.07,0-.11.03-.13.09-.02.06-.03.13-.02.21.3,1.69.7,3.18,1.2,4.47.01.02.03.03.05.03s.04-.01.05-.03c.53-1.23.92-2.77,1.18-4.63Z" style="fill: #fff;"/>
        <path d="M85.6,45.93c.09-.2.23-.34.43-.43.11-.05.23-.08.35-.08.08,0,.16.01.25.03.2.07.34.19.43.38.04.1.07.2.07.3,0,.09-.02.18-.07.28-.38.88-.81,1.75-1.29,2.62-.04.08-.07.16-.07.23v10.73c0,.2-.07.37-.22.52s-.32.22-.53.22-.39-.07-.53-.22-.22-.32-.22-.52v-8.43s0-.04-.02-.04-.03,0-.04.03c-.29.39-.59.76-.9,1.11-.12.13-.27.2-.43.2h-.1c-.22-.03-.38-.15-.48-.35-.11-.19-.17-.39-.17-.6,0-.04,0-.09.02-.15.02-.27.12-.49.3-.68,1.31-1.44,2.38-3.16,3.22-5.15ZM97.3,53.55c.14.14.21.31.21.51s-.07.36-.21.5c-.14.14-.31.21-.51.21h-2.91s-.04.01-.06.04c-.02.03-.01.05,0,.08.43.67.95,1.32,1.54,1.93s1.22,1.14,1.88,1.59c.17.12.26.29.28.5.01.03.02.07.02.1,0,.17-.06.32-.18.45-.16.18-.35.28-.58.32-.04.01-.09.02-.13.02-.17,0-.33-.06-.48-.17-1.2-.95-2.26-2.16-3.2-3.64,0-.01-.01-.01-.03,0-.02,0-.03.01-.03.03v4c0,.22-.08.41-.23.56-.16.16-.34.23-.56.23s-.4-.08-.56-.23c-.16-.16-.23-.34-.23-.56v-3.9s0-.04-.03-.04c-.02,0-.03,0-.04,0-1,1.47-2.13,2.66-3.39,3.55-.14.1-.3.15-.46.15-.06,0-.11,0-.17-.02-.22-.03-.41-.14-.56-.33-.11-.13-.17-.28-.17-.43v-.1c.03-.21.13-.37.3-.48.67-.42,1.33-.94,1.96-1.56s1.18-1.27,1.66-1.96c.01-.02.01-.05,0-.08-.01-.03-.03-.04-.07-.04h-3c-.2,0-.37-.07-.51-.21-.14-.14-.21-.3-.21-.5s.07-.36.21-.51c.14-.14.31-.22.51-.22h3.85c.08,0,.12-.04.12-.12v-1.61c0-.08-.04-.12-.12-.12h-2.41c-.27,0-.5-.1-.69-.29-.19-.19-.29-.42-.29-.69v-3.59c0-.27.1-.5.29-.69.19-.19.42-.29.69-.29h6.84c.27,0,.5.1.69.29s.29.42.29.69v3.59c0,.27-.1.5-.29.69s-.42.29-.69.29h-2.61c-.09,0-.13.04-.13.12v1.61c0,.08.04.12.13.12h3.75c.2,0,.37.07.51.22ZM89.44,47.34c-.09,0-.13.04-.13.12v2.49c0,.09.04.13.13.13h5.48c.08,0,.12-.04.12-.13v-2.49c0-.08-.04-.12-.12-.12h-5.48Z" style="fill: #fff;"/>
        <path d="M102.36,53.37c.09-.19.23-.3.43-.35.06-.01.11-.02.15-.02.13,0,.26.05.38.15.18.13.29.32.35.55.01.07.02.14.02.22,0,.14-.03.28-.1.42-.61,1.25-1.26,2.46-1.94,3.64-.12.19-.29.3-.51.35-.06.02-.11.03-.17.03-.16,0-.3-.05-.43-.15-.19-.13-.3-.32-.35-.55-.01-.06-.02-.12-.02-.18,0-.16.04-.31.13-.46.72-1.13,1.41-2.34,2.06-3.64ZM103.25,47.96c.18.13.28.32.3.55.01.04.02.08.02.12,0,.19-.06.36-.18.51-.13.17-.3.26-.51.28h-.08c-.19,0-.35-.06-.5-.18-.48-.39-1.08-.82-1.81-1.31-.17-.11-.26-.27-.28-.46-.01-.03-.02-.07-.02-.12,0-.14.05-.28.15-.4.13-.17.3-.27.51-.3.06-.01.11-.02.17-.02.14,0,.29.04.43.12.7.43,1.3.84,1.81,1.21ZM107.19,49.44c.17-.03.33-.03.48.02l.23.05c.14.04.25.12.33.24.08.12.11.24.08.37-.56,3.71-1.77,6.46-3.62,8.25-.13.13-.28.2-.45.2-.03,0-.07,0-.12-.02-.21-.03-.38-.14-.51-.32-.12-.16-.18-.33-.18-.51,0-.24.09-.45.27-.61.67-.65,1.26-1.5,1.77-2.55.5-1.05.89-2.21,1.17-3.48.02-.08-.01-.12-.1-.12h-1.86c-.21,0-.39-.08-.54-.22s-.22-.33-.22-.54.08-.39.22-.54.33-.22.54-.22h2.51ZM113.35,49.05c.14-.19.33-.3.55-.35.05-.01.12-.02.18-.02.15,0,.3.04.43.13.19.1.3.25.33.46.01.04.02.09.02.13,0,.16-.06.3-.17.43-.82.94-1.74,1.89-2.77,2.84-.06.05-.07.12-.03.18.83,1.82,1.88,3.18,3.14,4.1.19.13.29.31.32.53v.1c0,.19-.06.35-.18.5-.16.19-.35.3-.58.35-.06.01-.11.02-.15.02-.18,0-.34-.06-.5-.18-1.45-1.25-2.61-3.18-3.47-5.78,0-.01,0-.01-.02,0-.01,0-.02.01-.02.03v6.21c0,.45-.06.81-.17,1.06-.11.25-.3.45-.56.58-.37.2-.95.32-1.76.35h-.05c-.23,0-.45-.07-.65-.22-.21-.16-.36-.36-.45-.61-.03-.08-.05-.16-.05-.23,0-.1.03-.21.1-.32.11-.17.26-.25.45-.25l1.15.02c.14,0,.24-.03.3-.08.05-.06.08-.16.08-.3v-12.73c0-.23.08-.43.23-.58s.34-.23.56-.23.41.08.57.23c.16.16.24.35.24.58v2.06c0,.08,0,.16.02.25.23,1.08.5,2.07.8,2.96,0,.02.02.04.05.04s.05,0,.07-.02c.79-.79,1.45-1.53,1.99-2.23Z" style="fill: #fff;"/>
        <path d="M121.3,45.93c.09-.2.23-.34.43-.43.11-.05.23-.08.35-.08.08,0,.16.01.25.03.2.07.34.19.43.38.04.1.07.2.07.3,0,.09-.02.18-.07.28-.38.88-.81,1.75-1.29,2.62-.04.08-.07.16-.07.23v10.73c0,.2-.07.37-.22.52s-.32.22-.53.22-.39-.07-.53-.22-.22-.32-.22-.52v-8.43s0-.04-.02-.04-.03,0-.04.03c-.29.39-.59.76-.9,1.11-.12.13-.27.2-.43.2h-.1c-.22-.03-.38-.15-.48-.35-.11-.19-.17-.39-.17-.6,0-.04,0-.09.02-.15.02-.27.12-.49.3-.68,1.31-1.44,2.38-3.16,3.22-5.15ZM133,53.55c.14.14.21.31.21.51s-.07.36-.21.5c-.14.14-.31.21-.51.21h-2.91s-.04.01-.06.04c-.02.03-.01.05,0,.08.43.67.95,1.32,1.54,1.93s1.22,1.14,1.88,1.59c.17.12.26.29.28.5.01.03.02.07.02.1,0,.17-.06.32-.18.45-.16.18-.35.28-.58.32-.04.01-.09.02-.13.02-.17,0-.33-.06-.48-.17-1.2-.95-2.26-2.16-3.2-3.64,0-.01-.01-.01-.03,0-.02,0-.03.01-.03.03v4c0,.22-.08.41-.23.56-.16.16-.34.23-.56.23s-.4-.08-.56-.23c-.16-.16-.23-.34-.23-.56v-3.9s0-.04-.03-.04c-.02,0-.03,0-.04,0-1,1.47-2.13,2.66-3.39,3.55-.14.1-.3.15-.46.15-.06,0-.11,0-.17-.02-.22-.03-.41-.14-.56-.33-.11-.13-.17-.28-.17-.43v-.1c.03-.21.13-.37.3-.48.67-.42,1.33-.94,1.96-1.56s1.18-1.27,1.66-1.96c.01-.02.01-.05,0-.08-.01-.03-.03-.04-.07-.04h-3c-.2,0-.37-.07-.51-.21-.14-.14-.21-.3-.21-.5s.07-.36.21-.51c.14-.14.31-.22.51-.22h3.85c.08,0,.12-.04.12-.12v-1.61c0-.08-.04-.12-.12-.12h-2.41c-.27,0-.5-.1-.69-.29-.19-.19-.29-.42-.29-.69v-3.59c0-.27.1-.5.29-.69.19-.19.42-.29.69-.29h6.84c.27,0,.5.1.69.29s.29.42.29.69v3.59c0,.27-.1.5-.29.69s-.42.29-.69.29h-2.61c-.09,0-.13.04-.13.12v1.61c0,.08.04.12.13.12h3.75c.2,0,.37.07.51.22ZM125.14,47.34c-.09,0-.13.04-.13.12v2.49c0,.09.04.13.13.13h5.48c.08,0,.12-.04.12-.13v-2.49c0-.08-.04-.12-.12-.12h-5.48Z" style="fill: #fff;"/>
        <path d="M138.65,50.93c.19.12.3.29.33.51.01.05.02.1.02.15,0,.17-.05.33-.15.48-.12.17-.29.27-.51.3-.03.01-.07.02-.12.02-.17,0-.32-.06-.46-.17-.48-.32-1.01-.63-1.59-.93-.17-.09-.27-.22-.32-.4-.02-.06-.03-.11-.03-.17,0-.12.04-.24.13-.35.12-.18.29-.29.5-.35.09-.02.17-.03.25-.03.12,0,.24.03.37.08.6.27,1.13.55,1.59.85ZM138.27,54.92c.09-.19.23-.3.42-.35.06-.01.11-.02.17-.02.13,0,.25.04.37.12.18.14.29.33.35.55.03.09.05.18.05.27,0,.13-.03.26-.1.38-.56,1.32-1.18,2.63-1.86,3.93-.1.21-.26.34-.48.4-.07.01-.13.02-.2.02-.14,0-.28-.04-.42-.13-.2-.12-.33-.3-.38-.53-.01-.08-.02-.15-.02-.22,0-.16.04-.3.12-.45.7-1.25,1.36-2.57,1.99-3.97ZM139.55,46.51c.19.12.29.29.32.51.01.04.02.08.02.12,0,.19-.06.35-.18.5-.12.18-.29.28-.5.3h-.1c-.18,0-.34-.05-.48-.17-.45-.34-.98-.67-1.58-1-.18-.09-.29-.23-.33-.42-.01-.05-.02-.1-.02-.15,0-.13.04-.25.13-.37.13-.17.3-.28.5-.33.08-.02.16-.03.23-.03.13,0,.26.03.38.08.62.31,1.16.63,1.61.95ZM150.09,58.77c0,.08.04.12.12.12h.3c.19,0,.35.07.49.21s.21.3.21.5-.07.36-.21.49c-.14.13-.3.2-.49.2h-10.58c-.19,0-.35-.07-.49-.2-.14-.13-.21-.3-.21-.49s.07-.36.21-.5.3-.21.49-.21h.63c.08,0,.12-.04.12-.12v-4.05c0-.27.1-.5.29-.69s.42-.29.69-.29h7.46c.27,0,.5.1.69.29.19.19.29.42.29.69v4.05ZM148.5,45.92c.27,0,.5.09.69.28.19.19.29.42.29.7v4.75c0,.28-.1.51-.29.7-.19.19-.42.28-.69.28h-6.24c-.27,0-.5-.09-.69-.28-.19-.19-.29-.42-.29-.7v-4.75c0-.28.1-.51.29-.7.19-.19.42-.28.69-.28h6.24ZM142.24,55.08c-.09,0-.13.04-.13.12v3.57c0,.08.04.12.13.12h1.1c.08,0,.12-.04.12-.12v-3.57c0-.08-.04-.12-.12-.12h-1.1ZM147.82,51.43c.08,0,.12-.04.12-.13v-4.04c0-.08-.04-.12-.12-.12h-4.96c-.09,0-.13.04-.13.12v4.04c0,.09.04.13.13.13h4.96ZM147.27,50.08c.11.1.16.22.16.37,0,.14-.06.26-.17.35-.1.1-.22.14-.37.13-.14-.01-.27-.07-.37-.17-.31-.33-.71-.71-1.2-1.13-.06-.05-.11-.05-.15.02-.33.5-.72.91-1.16,1.25-.12.08-.25.1-.39.08-.14-.02-.26-.09-.36-.22-.08-.09-.11-.2-.1-.32.01-.13.07-.22.17-.29.73-.56,1.23-1.32,1.5-2.26.04-.15.13-.28.26-.37s.27-.13.42-.11c.14.01.26.08.35.2.09.12.11.25.07.4-.06.2-.12.39-.2.56-.03.08-.02.14.05.18.56.45,1.06.9,1.49,1.33ZM146.03,55.2c0-.08-.04-.12-.13-.12h-1.13c-.08,0-.12.04-.12.12v3.57c0,.08.04.12.12.12h1.13c.09,0,.13-.04.13-.12v-3.57ZM148.58,55.2c0-.08-.04-.12-.12-.12h-1.13c-.09,0-.13.04-.13.12v3.57c0,.08.04.12.13.12h1.13c.08,0,.12-.04.12-.12v-3.57Z" style="fill: #fff;"/>
        <path d="M34.67,86.32c-.41.43-.91.64-1.5.64s-1.09-.21-1.51-.64-.62-.96-.62-1.61.21-1.2.62-1.64.92-.66,1.51-.66,1.09.22,1.5.66c.41.44.62.98.62,1.64s-.21,1.18-.62,1.61Z" style="fill: #fff;"/>
        <path d="M61.33,77.51c.15.14.22.32.22.52s-.08.38-.22.52c-.15.14-.32.22-.52.22h-8.22c-.08,0-.13.04-.17.12-.22.45-.48.95-.78,1.48-.01.02-.01.04,0,.07.01.02.03.03.07.03h6.91c.27,0,.5.1.69.29s.29.42.29.69v7.49c0,.44-.06.79-.17,1.03s-.32.43-.61.55c-.38.16-1.1.24-2.16.25-.23,0-.44-.07-.61-.22-.18-.16-.3-.34-.38-.56-.07-.18-.04-.34.07-.5.11-.16.25-.23.43-.22h1.51c.14,0,.24-.03.3-.08.05-.05.08-.14.08-.27v-1.33c0-.09-.04-.13-.13-.13h-6.39c-.09,0-.13.04-.13.13v2.41c0,.21-.07.39-.22.55s-.33.23-.55.23-.4-.08-.56-.23-.23-.34-.23-.55v-6.89s-.01-.04-.03-.04c-.02,0-.04,0-.05.03-.58.66-1.18,1.25-1.83,1.76-.14.11-.3.17-.46.17h-.12c-.22-.03-.4-.14-.55-.32-.12-.14-.18-.3-.18-.48,0-.24.09-.44.28-.58,1.46-1.16,2.72-2.75,3.77-4.75.01-.03,0-.06,0-.08-.02-.02-.04-.03-.06-.03h-3.15c-.2,0-.37-.07-.51-.22-.14-.14-.22-.32-.22-.52s.07-.38.22-.52c.14-.14.32-.22.51-.22h3.8c.08,0,.13-.04.17-.12.16-.4.3-.8.43-1.21.07-.22.21-.39.42-.51.13-.08.28-.12.43-.12.07,0,.13,0,.2.02.21.06.37.18.48.37.07.12.1.24.1.37,0,.08-.01.16-.03.25-.11.32-.21.6-.3.85-.01.02,0,.05,0,.08s.04.04.07.04h7.59c.2,0,.37.07.52.22ZM57.92,83.32c.09,0,.13-.04.13-.12v-1.23c0-.09-.04-.13-.13-.13h-6.39c-.09,0-.13.04-.13.13v1.23c0,.08.04.12.13.12h6.39ZM51.39,86.01c0,.08.04.12.13.12h6.39c.09,0,.13-.04.13-.12v-1.23c0-.09-.04-.13-.13-.13h-6.39c-.09,0-.13.04-.13.13v1.23Z" style="fill: #fff;"/>
        <path d="M72.02,77.38c.2,0,.37.07.51.21s.21.31.21.51-.07.37-.21.51-.31.21-.51.21h-7.07c-.2,0-.37-.07-.51-.21-.14-.14-.21-.31-.21-.51s.07-.37.21-.51c.14-.14.31-.21.51-.21h2.57c.09,0,.13-.04.13-.13v-1.21c0-.22.08-.41.22-.56s.33-.22.55-.22.4.08.55.22.22.33.22.56v1.21c0,.09.04.13.13.13h2.69ZM65.84,79.95c.1-.2.25-.35.45-.45.12-.07.25-.1.38-.1.08,0,.15.01.22.03.2.04.34.16.43.35.04.09.07.18.07.27s-.02.18-.07.27c-.43.92-.96,1.75-1.58,2.51-.13.17-.3.25-.51.27h-.07c-.19,0-.36-.06-.51-.18-.18-.13-.27-.32-.27-.55,0-.17.06-.32.18-.45.5-.58.92-1.23,1.28-1.96ZM71.15,87.44c.11.16.17.32.17.5,0,.04,0,.09-.02.13-.03.24-.14.44-.32.6-.14.11-.3.17-.46.17h-.12c-.21-.03-.38-.14-.51-.32-.28-.4-.6-.82-.98-1.28-.04-.06-.09-.05-.15.02-.79,1.17-1.69,2.18-2.72,3.02-.17.12-.34.18-.53.18h-.12c-.23-.03-.43-.14-.6-.32-.1-.1-.16-.22-.18-.35-.01-.06-.02-.11-.02-.15,0-.09.02-.17.05-.25.06-.13.14-.24.25-.32,1.07-.79,2-1.8,2.79-3.04.04-.07.04-.13-.02-.18-.51-.53-1.06-1.06-1.64-1.59-.14-.12-.22-.28-.22-.46,0-.2.08-.36.23-.48.17-.13.35-.2.56-.2.22,0,.41.07.56.2.44.39.86.76,1.25,1.11.06.06.1.04.13-.03.19-.4.37-.83.53-1.29.07-.22.2-.39.4-.5.13-.08.28-.12.43-.12.07,0,.13,0,.2.02.21.05.37.18.48.37.07.11.1.23.1.35,0,.09-.02.17-.05.25-.25.73-.55,1.44-.9,2.12-.03.08-.02.14.03.2.55.6,1.01,1.15,1.38,1.64ZM79.55,78.47c.14.14.22.32.22.52s-.07.38-.22.52-.32.22-.53.22h-.18c-.08,0-.12.04-.13.12-.39,2.62-1.02,4.75-1.91,6.39-.03.08-.03.15.02.22.64,1.08,1.41,1.94,2.29,2.56.18.12.28.29.3.5v.1c0,.17-.06.32-.17.46-.16.19-.34.3-.56.35-.06.01-.11.02-.17.02-.17,0-.32-.05-.46-.15-.83-.63-1.56-1.43-2.17-2.41-.04-.07-.09-.07-.13-.02-.82,1.01-1.81,1.85-2.97,2.54-.13.07-.26.1-.38.1-.08,0-.16-.01-.25-.03-.21-.07-.38-.19-.5-.38-.09-.12-.13-.25-.13-.4,0-.06,0-.12.02-.18.06-.2.17-.35.35-.45,1.26-.7,2.28-1.6,3.06-2.71.04-.07.05-.14.02-.22-.46-1.07-.87-2.31-1.21-3.7,0-.02-.01-.03-.03-.03s-.04.01-.05.03c-.14.29-.29.55-.43.78-.1.19-.26.29-.48.32h-.07c-.19,0-.35-.07-.48-.2-.17-.16-.27-.34-.32-.56v-.17c0-.17.04-.33.13-.48.03-.04.07-.1.1-.17.01-.02.01-.04,0-.05-.01-.01-.02-.01-.03,0l-.27.17c-.14.08-.29.12-.45.12-.09,0-.18-.02-.27-.05-.24-.08-.44-.23-.58-.45-.24-.42-.54-.86-.88-1.31-.08-.1-.12-.21-.12-.33v-.13c.03-.17.13-.29.28-.38.13-.07.27-.1.42-.1.04,0,.09,0,.15.02.2.03.37.13.5.28.58.71,1.01,1.35,1.29,1.93.01.03.03.05.06.05s.05-.01.06-.03c.75-1.44,1.33-3.35,1.74-5.75.03-.22.14-.39.32-.51.14-.11.29-.17.45-.17.04,0,.09,0,.13.02.22.03.39.14.51.32.1.13.15.28.15.43,0,.06,0,.11-.02.15-.11.62-.25,1.28-.42,1.98-.02.08.01.12.1.12h3.79c.21,0,.39.07.53.22ZM77.13,79.87c.01-.09-.02-.13-.1-.13h-2.22c-.07,0-.11.03-.13.09-.02.06-.03.13-.02.21.3,1.69.7,3.18,1.2,4.47.01.02.03.03.05.03s.04-.01.05-.03c.53-1.23.92-2.77,1.18-4.63Z" style="fill: #fff;"/>
        <path d="M86.3,75.88s.07-.02.12-.02c.09,0,.17.02.25.07l.33.18c.14.09.25.21.32.37s.07.32.02.47c-.49,1.56-.92,2.86-1.29,3.89-.02.08-.01.15.03.22.83,1.06,1.25,2.21,1.25,3.45,0,1.01-.22,1.68-.66,2.01-.24.18-.54.29-.9.33-.1.01-.22.02-.35.03h-.02c-.18,0-.34-.07-.48-.2-.13-.13-.23-.3-.28-.5-.04-.16-.02-.3.08-.43.09-.13.22-.2.37-.2h.1c.21,0,.37-.05.46-.15.22-.16.33-.51.33-1.08-.02-.84-.28-1.65-.76-2.42-.23-.39-.35-.78-.35-1.16,0-.19.03-.38.08-.57.24-.8.5-1.71.78-2.76.01-.03,0-.06,0-.08-.02-.02-.04-.03-.08-.03h-1.48c-.08,0-.12.04-.12.12v12.67c0,.19-.07.35-.2.48s-.29.2-.48.2-.35-.07-.48-.2-.2-.29-.2-.48v-13.23c0-.28.1-.51.29-.7.19-.19.42-.28.69-.28h2.64ZM96.18,82.68c.28,0,.51.1.7.29.19.19.28.42.28.69v5.58c0,.34-.04.61-.12.81-.08.19-.22.35-.42.47-.28.12-.71.19-1.31.22h-.02c-.19,0-.35-.06-.5-.18-.16-.12-.27-.28-.33-.48-.06-.16-.04-.3.05-.42.09-.13.21-.19.37-.19h.12c.23,0,.39,0,.48-.02.15,0,.23-.07.23-.22v-3.02c0-.09-.04-.13-.12-.13h-1.43c-.5,0-.83-.08-1-.25s-.26-.5-.26-1v-.78c0-.09-.04-.13-.12-.13h-.76c-.08,0-.12.04-.13.13-.17.99-.62,1.69-1.36,2.11-.12.07-.25.1-.38.1-.29,0-.59-.16-.91-.48-.01-.01-.03-.01-.05,0-.02,0-.03.02-.03.04v4.25c0,.2-.07.37-.21.51-.14.14-.31.21-.51.21s-.37-.07-.51-.21-.21-.31-.21-.51v-6.39c0-.27.1-.5.29-.69s.42-.29.69-.29h7.47ZM88.07,77.12c-.13-.13-.19-.28-.19-.46s.06-.34.19-.46c.13-.13.29-.19.47-.19h7.99c.18,0,.33.06.46.19.13.13.19.28.19.46s-.06.34-.19.46c-.13.13-.28.19-.46.19h-7.99c-.19,0-.35-.06-.47-.19ZM95.28,78.14c.28,0,.51.1.7.29.19.19.28.42.28.69v1.71c0,.28-.09.51-.28.7-.19.19-.42.28-.7.28h-5.53c-.28,0-.51-.09-.7-.28-.19-.19-.28-.42-.28-.7v-1.71c0-.27.09-.5.28-.69.19-.19.42-.29.7-.29h5.53ZM89.29,83.9c-.09,0-.13.04-.13.13v1.51s.01.06.04.07.05.03.07.03c.49-.16.85-.36,1.09-.61s.4-.59.49-1c.02-.09-.01-.13-.1-.13h-1.46ZM94.72,86.91c.11.11.16.24.16.39s-.05.28-.16.39-.24.17-.39.17h-1.16c-.08,0-.12.04-.12.12v1.79c0,.18-.06.33-.19.45s-.28.18-.45.18-.32-.06-.44-.18c-.12-.12-.18-.27-.18-.45v-1.79c0-.08-.04-.12-.13-.12h-1.08c-.16,0-.29-.06-.4-.17-.11-.11-.17-.24-.17-.39s.06-.28.17-.39c.11-.11.24-.17.4-.17h3.75c.15,0,.28.06.39.17ZM94.53,80.73c.09,0,.13-.04.13-.13v-1.25c0-.08-.04-.12-.13-.12h-4.15c-.08,0-.12.04-.12.12v1.25c0,.09.04.13.12.13h4.15ZM95.65,85.1s.05-.02.07,0v-1.06c0-.09-.04-.13-.12-.13h-1.58c-.08,0-.12.04-.12.13v.78c0,.14.02.23.07.27.04.03.15.05.32.05h1.06c.17,0,.27-.01.3-.03Z" style="fill: #fff;"/>
        <path d="M104.05,81.58c-.07-.13-.07-.27-.02-.42s.15-.25.29-.31c.16-.07.31-.07.46-.02.16.05.28.15.37.3.48.85.84,1.65,1.08,2.41.06.17.04.33-.03.5-.08.17-.2.29-.38.37-.14.07-.29.06-.44,0-.15-.07-.25-.18-.29-.34-.02-.07-.05-.14-.08-.22-.02-.07-.07-.1-.13-.1l-.88.07c-.08,0-.12.04-.12.13v6.14c0,.2-.07.37-.21.51-.14.14-.3.21-.5.21s-.36-.07-.5-.21-.21-.31-.21-.51v-6.06c0-.09-.04-.13-.13-.12-.64.03-1.22.07-1.74.1h-.05c-.18,0-.33-.06-.46-.18-.17-.14-.25-.33-.25-.55,0-.16.06-.29.17-.42.12-.14.28-.22.46-.23h.37c.09-.01.16-.05.2-.12.33-.44.61-.82.83-1.13.04-.08.04-.15,0-.22-.41-.58-.94-1.18-1.58-1.83-.13-.13-.21-.29-.22-.47s.03-.35.14-.49l.07-.08c.09-.12.21-.19.35-.21s.27.02.38.12c.03.02.06.02.08-.02.41-.75.77-1.53,1.1-2.32.08-.19.21-.33.4-.42.1-.04.2-.07.3-.07.09,0,.18.02.27.05.18.08.3.21.38.4.02.08.03.16.03.23,0,.1-.02.21-.07.32-.59,1.1-1.09,1.96-1.51,2.61-.04.07-.04.13.02.2.27.29.48.54.65.75.06.07.11.06.15-.02.45-.75.86-1.47,1.23-2.16.09-.18.23-.3.42-.37.09-.03.17-.05.25-.05.11,0,.22.03.32.08.17.08.28.21.33.38.02.07.03.13.03.2,0,.11-.03.22-.1.32-1.02,1.63-1.96,3-2.82,4.12-.01.02-.01.04,0,.07.01.02.03.03.05.03.61-.01,1.23-.04,1.88-.08.03-.01.06-.03.07-.05.01-.02.01-.05,0-.08-.12-.27-.24-.51-.37-.75ZM100.53,85.56c.02-.18.11-.32.26-.43s.32-.15.51-.12c.18.03.33.13.45.28.08.12.12.25.12.38v.13c-.2,1.2-.46,2.21-.78,3.04-.06.17-.17.28-.35.33s-.34.04-.5-.05c-.17-.08-.28-.2-.35-.37-.07-.17-.07-.34,0-.51.27-.73.48-1.63.65-2.69ZM104.41,85.68c-.07-.14-.06-.29,0-.44.07-.15.18-.25.32-.29.17-.06.33-.05.48.02.16.07.27.19.33.34.28.67.5,1.31.66,1.91.06.17.04.33-.05.49-.09.16-.22.27-.38.32s-.32.04-.46-.04-.24-.21-.28-.37c-.18-.64-.39-1.29-.63-1.94ZM109.58,89.32h3.45c.37,0,.62-.09.75-.27s.24-.56.29-1.14c.01-.17.09-.29.24-.37s.31-.09.47-.02c.2.09.36.22.48.4.1.13.15.28.15.45,0,.03,0,.07-.02.12-.12.84-.35,1.42-.67,1.74-.33.32-.87.47-1.63.47h-3.64c-.99,0-1.66-.15-2.01-.46-.35-.3-.53-.89-.53-1.77v-6.94s-.02-.04-.05-.03c-.07.02-.13.03-.2.03-.14,0-.27-.07-.37-.22-.05-.08-.12-.16-.18-.25-.08-.09-.12-.19-.12-.32v-.12c.03-.17.13-.29.28-.37,1.22-.62,2.1-1.53,2.64-2.74.01-.02,0-.05,0-.07s-.04-.04-.07-.04h-1.88c-.2,0-.37-.07-.5-.2s-.2-.3-.2-.49.07-.36.2-.49.3-.2.5-.2h6.82c.27,0,.49.1.66.3.15.17.23.36.23.58v.1c-.09.92-.19,1.61-.3,2.07-.11.46-.25.78-.43.95-.23.25-.57.4-1.01.43-.24.02-.55.03-.93.03h-.05c-.19,0-.36-.07-.51-.2-.15-.13-.26-.3-.32-.5-.03-.14,0-.28.08-.41.09-.13.2-.19.35-.17.21.01.44.02.7.02.22,0,.38-.05.48-.15.17-.14.3-.66.42-1.54.01-.09-.03-.13-.12-.13h-2.34c-.09,0-.14.04-.17.12-.45,1.2-1.16,2.2-2.12,3.01-.02.01-.03.03-.02.05.01.02.02.03.03.03h5.48c.28,0,.51.09.7.28s.28.42.28.7v3.97c0,.19-.07.35-.21.5s-.31.22-.51.22h-.18c-.14,0-.27-.05-.37-.16-.11-.1-.16-.23-.16-.37,0-.04-.02-.07-.07-.07h-4.9c-.09,0-.13.04-.13.12v2.67c0,.37.07.6.22.71.15.11.48.16.99.16ZM110.21,82.11c0-.09-.04-.13-.13-.13h-1.58c-.09,0-.13.04-.13.13v2.04c0,.09.04.13.13.13h1.58c.09,0,.13-.04.13-.13v-2.04ZM113.35,84.29c.08,0,.12-.04.12-.13v-2.04c0-.09-.04-.13-.12-.13h-1.69c-.09,0-.13.04-.13.13v2.04c0,.09.04.13.13.13h1.69Z" style="fill: #fff;"/>
        <path d="M125.47,80.93c.19.12.3.29.33.51.01.05.02.1.02.15,0,.17-.05.33-.15.48-.12.17-.29.27-.51.3-.03.01-.07.02-.12.02-.17,0-.32-.06-.46-.17-.48-.32-1.01-.63-1.59-.93-.17-.09-.27-.22-.32-.4-.02-.06-.03-.11-.03-.17,0-.12.04-.24.13-.35.12-.18.29-.29.5-.35.09-.02.17-.03.25-.03.12,0,.24.03.37.08.6.27,1.13.55,1.59.85ZM125.09,84.92c.09-.19.23-.3.42-.35.06-.01.11-.02.17-.02.13,0,.25.04.37.12.18.14.29.33.35.55.03.09.05.18.05.27,0,.13-.03.26-.1.38-.56,1.32-1.18,2.63-1.86,3.93-.1.21-.26.34-.48.4-.07.01-.13.02-.2.02-.14,0-.28-.04-.42-.13-.2-.12-.33-.3-.38-.53-.01-.08-.02-.15-.02-.22,0-.16.04-.3.12-.45.7-1.25,1.36-2.57,1.99-3.97ZM126.37,76.52c.19.12.29.29.32.51.01.04.02.08.02.12,0,.19-.06.35-.18.5-.12.18-.29.28-.5.3h-.1c-.18,0-.34-.05-.48-.17-.45-.34-.98-.67-1.58-1-.18-.09-.29-.23-.33-.42-.01-.05-.02-.1-.02-.15,0-.13.04-.25.13-.37.13-.17.3-.28.5-.33.08-.02.16-.03.23-.03.13,0,.26.03.38.08.62.31,1.16.63,1.61.95ZM136.91,88.77c0,.08.04.12.12.12h.3c.19,0,.35.07.49.21s.21.3.21.5-.07.36-.21.49c-.14.13-.3.2-.49.2h-10.58c-.19,0-.35-.07-.49-.2-.14-.13-.21-.3-.21-.49s.07-.36.21-.5.3-.21.49-.21h.63c.08,0,.12-.04.12-.12v-4.05c0-.27.1-.5.29-.69s.42-.29.69-.29h7.46c.27,0,.5.1.69.29.19.19.29.42.29.69v4.05ZM135.32,75.92c.27,0,.5.09.69.28.19.19.29.42.29.7v4.75c0,.28-.1.51-.29.7-.19.19-.42.28-.69.28h-6.24c-.27,0-.5-.09-.69-.28-.19-.19-.29-.42-.29-.7v-4.75c0-.28.1-.51.29-.7.19-.19.42-.28.69-.28h6.24ZM129.06,85.08c-.09,0-.13.04-.13.12v3.57c0,.08.04.12.13.12h1.1c.08,0,.12-.04.12-.12v-3.57c0-.08-.04-.12-.12-.12h-1.1ZM134.64,81.43c.08,0,.12-.04.12-.13v-4.04c0-.08-.04-.12-.12-.12h-4.96c-.09,0-.13.04-.13.12v4.04c0,.09.04.13.13.13h4.96ZM134.09,80.08c.11.1.16.22.16.37,0,.14-.06.26-.17.35-.1.1-.22.14-.37.13-.14-.01-.27-.07-.37-.17-.31-.33-.71-.71-1.2-1.13-.06-.05-.11-.05-.15.02-.33.5-.72.91-1.16,1.25-.12.08-.25.1-.39.08-.14-.02-.26-.09-.36-.22-.08-.09-.11-.2-.1-.32.01-.13.07-.22.17-.29.73-.56,1.23-1.32,1.5-2.26.04-.15.13-.28.26-.37s.27-.13.42-.11c.14.01.26.08.35.2.09.12.11.25.07.4-.06.2-.12.39-.2.56-.03.08-.02.14.05.18.56.45,1.06.9,1.49,1.33ZM132.85,85.2c0-.08-.04-.12-.13-.12h-1.13c-.08,0-.12.04-.12.12v3.57c0,.08.04.12.12.12h1.13c.09,0,.13-.04.13-.12v-3.57ZM135.4,85.2c0-.08-.04-.12-.12-.12h-1.13c-.09,0-.13.04-.13.12v3.57c0,.08.04.12.13.12h1.13c.08,0,.12-.04.12-.12v-3.57Z" style="fill: #fff;"/>
        <path d="M143.22,78.18c-.09,0-.13.04-.13.13v3.25c0,1.55-.1,3.07-.29,4.55-.19,1.48-.55,2.8-1.07,3.95-.09.18-.23.29-.43.33-.06.01-.11.02-.15.02-.14,0-.28-.04-.4-.12-.18-.12-.29-.29-.35-.5-.03-.09-.05-.17-.05-.25,0-.12.03-.24.08-.35.46-1.05.77-2.22.92-3.5s.22-2.66.22-4.14v-3.82c0-.27.09-.5.28-.69s.42-.29.7-.29h5.01c.09,0,.13-.04.13-.12v-.65c0-.23.08-.43.24-.59s.35-.24.58-.24.42.08.58.24.24.36.24.59v.65c0,.08.04.12.12.12h5.36c.2,0,.37.07.51.21.14.14.21.3.21.5s-.07.36-.21.5c-.14.14-.31.21-.51.21h-11.61ZM153.17,84.77s.09-.02.13-.02c.12,0,.24.03.35.1l.27.13c.13.08.22.19.27.33.04.14.03.28-.05.42-.65,1.08-1.58,2-2.79,2.76-.02.01-.03.03-.03.05s.02.04.04.05c1.06.33,2.29.59,3.67.76.17.02.28.12.35.28.03.07.05.13.05.2,0,.09-.03.18-.1.27-.13.21-.31.37-.53.48-.17.09-.34.13-.51.13-.06,0-.11,0-.17-.02-1.68-.27-3.17-.68-4.47-1.25-.08-.03-.16-.03-.23,0-1.36.55-3.01.97-4.93,1.25-.04.01-.09.02-.13.02-.16,0-.3-.04-.45-.13-.19-.12-.33-.28-.43-.48-.03-.08-.05-.15-.05-.22s.02-.15.05-.22c.08-.16.2-.24.37-.27,1.52-.18,2.85-.45,4-.81.02-.01.04-.03.04-.05s0-.04-.03-.05c-.69-.46-1.28-.99-1.79-1.56-.12-.14-.16-.3-.11-.47.05-.17.16-.29.32-.36.01,0,.02,0,.02-.02s0-.02-.02-.02h-1.88c-.18,0-.33-.06-.45-.18s-.18-.27-.18-.45.06-.33.18-.46c.12-.13.27-.19.45-.19h8.77ZM152.82,82.91c0,.28-.1.51-.29.7s-.42.28-.69.28h-4.77c-.27,0-.5-.09-.69-.28-.19-.19-.29-.42-.29-.7v-1.61c0-.09-.04-.13-.12-.13h-1.74c-.18,0-.33-.06-.46-.18-.13-.12-.19-.27-.19-.46s.06-.33.19-.46c.13-.12.28-.18.46-.18h1.74c.08,0,.12-.04.12-.13v-.42c0-.21.08-.39.22-.53.15-.14.33-.22.53-.22s.38.07.52.22.22.32.22.53v.42c0,.09.04.13.13.13h3.42c.09,0,.13-.04.13-.13v-.4c0-.21.07-.39.22-.54s.33-.22.54-.22.39.08.55.22c.15.15.23.33.23.54v.4c0,.09.04.13.12.13h1.84c.18,0,.33.06.45.18.12.12.18.27.18.46s-.06.33-.18.46c-.12.12-.27.18-.45.18h-1.84c-.08,0-.12.04-.12.13v1.61ZM152.02,86.15s.01-.04,0-.07c-.01-.02-.03-.03-.05-.03h-4.73s-.04.01-.05.03c-.01.02,0,.04.02.07.56.65,1.32,1.22,2.28,1.69.07.03.14.03.22-.02.97-.49,1.75-1.05,2.32-1.68ZM151.28,81.3c0-.09-.04-.13-.13-.13h-3.42c-.09,0-.13.04-.13.13v1.25c0,.08.04.12.13.12h3.42c.09,0,.13-.04.13-.12v-1.25Z" style="fill: #fff;"/>
        <path d="M172.17,84.39c0,.28-.1.51-.29.7s-.42.28-.69.28h-4.45c-.09,0-.14.04-.17.13-.21.94-.64,1.76-1.29,2.46-.05.06-.04.1.03.13.93.34,2.01.59,3.24.74s2.71.24,4.43.27c.18,0,.32.08.42.25.04.09.07.18.07.27,0,.08-.02.16-.05.23-.1.24-.25.44-.45.58-.18.14-.38.22-.6.22h-.05c-1.87-.09-3.47-.24-4.8-.46-1.33-.22-2.5-.57-3.52-1.05-.08-.03-.15-.03-.22,0-.96.59-2.23,1.07-3.8,1.46-.08.02-.16.03-.25.03-.16,0-.3-.03-.45-.08-.23-.11-.42-.27-.56-.48-.11-.16-.13-.32-.07-.5s.19-.29.38-.33c1.28-.27,2.37-.61,3.25-1.03.03-.01.05-.03.05-.06s-.01-.05-.03-.06c-.53-.42-1.01-.92-1.44-1.51-.08-.1-.12-.21-.12-.33,0-.06,0-.11.02-.17.07-.19.19-.32.37-.38.11-.04.23-.07.35-.07.09,0,.18.01.27.03.2.07.37.18.51.35.4.45.85.86,1.36,1.21.07.04.13.04.2-.02.5-.48.85-1.05,1.06-1.73.01-.02,0-.05,0-.08-.02-.03-.04-.04-.08-.04h-3.79c-.28,0-.51-.09-.7-.28s-.28-.42-.28-.7v-4.73c0-.28.09-.51.28-.7.19-.19.42-.28.7-.28h4.05c.08,0,.12-.04.12-.13v-.96c0-.09-.04-.13-.12-.13h-5.81c-.2,0-.37-.07-.51-.21-.14-.14-.21-.31-.21-.51s.07-.37.21-.51c.14-.14.31-.21.51-.21h13.27c.2,0,.37.07.51.21s.21.31.21.51-.07.37-.21.51-.31.21-.51.21h-5.56c-.09,0-.13.04-.13.13v.96c0,.09.04.13.13.13h4.23c.27,0,.5.09.69.28.19.19.29.42.29.7v4.73ZM161.64,79.97c-.08,0-.12.04-.12.12v1.2c0,.09.04.13.12.13h3.42c.08,0,.12-.04.12-.13v-1.2c0-.08-.04-.12-.12-.12h-3.42ZM161.52,83.95c0,.08.04.12.12.12h3.37c.09,0,.14-.04.15-.12.01-.16.02-.39.02-.71v-.48c0-.09-.04-.13-.12-.13h-3.42c-.08,0-.12.04-.12.13v1.2ZM170.47,84.07c.09,0,.13-.04.13-.12v-1.2c0-.09-.04-.13-.13-.13h-3.52c-.09,0-.13.04-.13.13v.5c0,.31,0,.54-.02.7-.01.08.03.12.12.12h3.55ZM170.61,80.08c0-.08-.04-.12-.13-.12h-3.52c-.09,0-.13.04-.13.12v1.2c0,.09.04.13.13.13h3.52c.09,0,.13-.04.13-.13v-1.2Z" style="fill: #fff;"/>
        <path d="M180.32,82.64c.07-.02.13-.03.2-.03.11,0,.22.03.32.1.17.1.26.25.28.45.01.04.02.08.02.12,0,.17-.04.32-.13.46-.11.18-.27.29-.46.35l-.91.3c-.08.02-.12.07-.12.15v4.42c0,.4-.05.71-.14.94-.09.23-.25.4-.47.52-.31.17-.79.26-1.44.28h-.03c-.2,0-.38-.07-.55-.2s-.28-.31-.35-.53c-.06-.18-.03-.34.08-.49.1-.15.25-.22.42-.21h.75c.1,0,.17-.02.22-.07s.07-.13.07-.25v-3.97s-.01-.06-.04-.08c-.03-.02-.05-.02-.08,0l-1.08.33c-.08.02-.15.03-.22.03-.12,0-.24-.03-.37-.1-.18-.1-.29-.25-.35-.46-.01-.07-.02-.13-.02-.18,0-.14.04-.28.12-.42.11-.19.27-.31.48-.37.5-.14.97-.28,1.43-.42.08-.02.12-.07.12-.15v-3.11c0-.08-.04-.12-.13-.12h-1.2c-.2,0-.37-.07-.51-.22-.14-.14-.22-.32-.22-.52s.07-.38.22-.51.32-.21.51-.21h1.2c.09,0,.13-.04.13-.13v-2.42c0-.2.07-.37.22-.51.14-.14.32-.22.51-.22s.37.07.51.22c.14.14.22.32.22.51v2.42c0,.09.04.13.13.13h.76c.21,0,.38.07.52.21.14.14.21.31.21.51s-.07.38-.21.52c-.14.14-.31.22-.52.22h-.76c-.09,0-.13.04-.13.12v2.69s.01.06.04.07c.03.02.05.03.07.03l.7-.22ZM191.32,80.73c.14.14.21.32.21.51s-.07.37-.21.51c-.14.14-.31.21-.52.21h-1.25c-.09,0-.13.04-.13.13v1.39c0,.09.04.13.13.13h1.15c.2,0,.37.07.51.21.14.14.22.31.22.51s-.07.37-.22.51c-.14.14-.32.22-.51.22h-1.15c-.09,0-.13.04-.13.12v3.82c0,.44-.05.78-.16,1-.11.23-.29.4-.56.52-.35.14-.97.23-1.84.25h-.02c-.22,0-.42-.07-.58-.22-.19-.14-.32-.33-.38-.56-.06-.18-.03-.34.07-.49.11-.15.25-.22.42-.21.29.01.53.02.74.02s.36,0,.47-.02c.13-.01.22-.04.27-.08.04-.04.07-.13.07-.25v-3.79c0-.08-.04-.12-.13-.12h-5.5c-.2,0-.37-.07-.51-.22-.14-.14-.21-.32-.21-.51s.07-.37.21-.51.31-.21.51-.21h5.5c.09,0,.13-.04.13-.13v-1.39c0-.09-.04-.13-.13-.13h-5.68c-.2,0-.37-.07-.51-.21-.14-.14-.21-.31-.21-.51s.07-.37.21-.51c.14-.14.31-.22.51-.22h3.49c.09,0,.13-.04.13-.12v-1.59c0-.08-.04-.12-.13-.12h-2.69c-.2,0-.37-.07-.51-.22-.14-.14-.21-.32-.21-.51s.07-.37.21-.51c.14-.14.31-.21.51-.21h2.69c.09,0,.13-.04.13-.13v-1.11c0-.21.07-.39.22-.54s.33-.22.53-.22.38.08.53.22.22.33.22.54v1.11c0,.09.04.13.12.13h2.64c.2,0,.37.07.51.21.14.14.22.31.22.51s-.07.37-.22.51-.32.22-.51.22h-2.64c-.08,0-.12.04-.12.12v1.59c0,.08.04.12.12.12h3.44c.21,0,.38.07.52.22ZM183.09,86.63c-.08-.11-.12-.23-.12-.37,0-.04,0-.09.02-.13.03-.18.13-.32.3-.42.13-.07.27-.1.4-.1.06,0,.11,0,.17.02.21.03.38.13.5.3.44.56.81,1.11,1.11,1.64.08.12.12.24.12.37,0,.08-.01.16-.03.23-.07.21-.19.37-.38.48-.11.07-.23.1-.35.1-.08,0-.15-.01-.22-.03-.2-.07-.35-.19-.45-.37-.28-.55-.63-1.13-1.06-1.73Z" style="fill: #fff;"/>
        <path d="M203.5,77.81c.07-.02.13-.03.2-.03.11,0,.22.03.32.08l.32.13c.17.08.29.2.37.37.08.17.09.34.05.51-.38,1.36-.84,2.59-1.38,3.69-.04.08-.05.15-.02.22.55,1.33,1.29,2.53,2.21,3.61.92,1.08,1.96,1.93,3.12,2.55.2.11.32.27.35.48.01.04.02.09.02.13,0,.17-.06.32-.17.45-.17.21-.37.34-.61.4-.09.02-.17.03-.25.03-.16,0-.31-.04-.46-.12-2.14-1.27-3.85-3.21-5.13-5.83-.01-.03-.03-.05-.06-.05s-.05.01-.06.03c-1.65,2.59-3.78,4.57-6.39,5.93-.16.08-.32.12-.48.12-.09,0-.18-.01-.27-.03-.25-.07-.48-.21-.66-.42-.11-.13-.17-.28-.17-.45v-.13c.04-.22.17-.38.37-.46,1.89-.92,3.54-2.17,4.94-3.77s2.44-3.5,3.13-5.71c0-.03,0-.06-.03-.08-.02-.02-.04-.03-.07-.03h-3.77c-.09,0-.15.03-.18.1-.9,1.66-1.89,3.05-2.99,4.17-.18.18-.39.27-.65.27v-.02c-.25,0-.49-.08-.7-.25-.19-.16-.28-.35-.28-.6,0-.21.08-.39.25-.55,1.74-1.63,3.08-3.81,4.03-6.54.09-.23.24-.41.45-.53.16-.08.31-.12.46-.12.08,0,.16,0,.23.02.23.06.4.19.51.4.07.12.1.24.1.37,0,.09-.02.18-.05.28-.17.46-.34.9-.51,1.29-.01.02,0,.05,0,.08s.04.04.07.04h3.77s.04,0,.07-.02Z" style="fill: #fff;"/>
      </g>
      <g>
        <path d="M34.97,13.13c-.42,0-.78-.15-1.07-.45-.29-.3-.43-.65-.43-1.05v-4.21s-.01-.03-.04-.04c-.03,0-.05,0-.06.01-.19.19-.4.28-.63.28h-.13c-.29-.03-.52-.18-.69-.43-.03-.03-.06-.08-.08-.13-.19-.27-.28-.58-.28-.91,0-.42.14-.79.41-1.12.95-1.12,1.73-2.41,2.34-3.88.14-.34.36-.58.66-.74.2-.1.41-.15.61-.15.12,0,.24,0,.36.03.32.1.56.3.71.58.08.17.13.34.13.51,0,.14-.03.27-.08.41-.08.22-.17.43-.25.63-.02.05-.02.09,0,.13s.05.05.1.05h1.24c.12,0,.2-.06.25-.18.15-.27.29-.55.41-.84.15-.36.4-.62.74-.79.22-.14.46-.2.71-.2.1,0,.2,0,.3.03.3.07.52.25.66.53.05.12.08.24.08.36,0,.17-.05.33-.15.48-.12.19-.22.34-.3.46-.02.03-.02.07,0,.1.02.03.05.05.1.05h1.55c.27,0,.5.1.7.29.19.19.29.42.29.69s-.1.49-.29.69-.43.29-.7.29h-1.8c-.14,0-.2.06-.2.18v.58c0,.14.07.2.2.2h2.16c.07,0,.1.03.1.1h.03c1.12-1.2,2.05-2.69,2.79-4.47.13-.32.36-.57.69-.74.19-.1.39-.15.61-.15.12,0,.24.02.36.05.32.08.56.28.71.58.08.17.13.34.13.51,0,.14-.03.27-.08.41-.1.22-.2.42-.28.61-.02.05-.01.09.01.13s.05.05.09.05h1.07c.12,0,.2-.06.25-.18.14-.29.26-.57.38-.84.14-.36.36-.63.69-.81.24-.14.48-.2.74-.2.08,0,.18,0,.28.03.3.07.52.25.66.53.05.12.08.25.08.38,0,.15-.04.3-.13.44s-.19.31-.3.5c-.02.03-.02.07,0,.1s.05.05.1.05h2.29c.27,0,.5.1.7.29s.29.42.29.69-.1.49-.29.69c-.19.2-.43.29-.7.29h-2.29c-.14,0-.2.06-.2.18v.58c0,.14.07.2.2.2h1.68c.25,0,.47.09.65.27s.27.39.27.65-.09.47-.27.66c-.18.19-.39.28-.65.28h-1.68c-.14,0-.2.06-.2.18v.58c0,.12.07.18.2.18h1.68c.25,0,.47.09.65.27s.27.39.27.65-.09.47-.27.65-.39.27-.65.27h-1.68c-.14,0-.2.07-.2.2v.58c0,.14.07.2.2.2h2.56c.27,0,.5.09.7.28.19.19.29.42.29.69s-.1.5-.29.7c-.19.19-.43.29-.7.29h-7.9c-.41,0-.76-.15-1.05-.45-.3-.3-.44-.65-.44-1.05v-4.16s-.01-.05-.04-.06c-.03,0-.05,0-.06.01-.19.24-.43.36-.74.36h-.08c-.32-.02-.58-.16-.79-.43-.1-.12-.2-.24-.28-.36-.02-.02-.03-.02-.05,0,0,.12-.04.22-.11.3-.08.08-.17.13-.29.13h-1.85c-.14,0-.2.06-.2.18v.58c0,.12.07.18.2.18h1.35c.25,0,.47.09.65.27s.27.39.27.65-.09.47-.27.65-.39.27-.65.27h-1.35c-.14,0-.2.07-.2.2v.58c0,.14.07.2.2.2h2.06c.27,0,.5.09.69.28.19.19.28.42.28.69s-.09.5-.28.7c-.19.19-.42.29-.69.29h-7.42ZM49.98,14.22c.1-.02.19-.03.28-.03.24,0,.46.06.66.18l.61.38c.29.17.47.42.53.74.02.08.03.17.03.25,0,.24-.08.45-.23.63-1.13,1.49-2.58,2.76-4.34,3.81-.03.02-.05.04-.04.08,0,.03.03.05.06.05,1.9.42,3.96.74,6.2.94.32.03.55.19.69.48.05.12.08.24.08.36,0,.17-.05.33-.15.48s-.19.3-.28.46c-.25.39-.58.69-.96.89-.32.17-.65.25-.99.25h-.25c-3.2-.41-6.02-1.06-8.46-1.96-.12-.05-.24-.05-.36,0-2.47.85-5.42,1.48-8.84,1.9-.08.02-.16.03-.23.03-.34,0-.66-.09-.96-.28-.37-.24-.64-.56-.81-.96-.02-.02-.03-.03-.03-.05-.07-.15-.1-.3-.1-.46,0-.17.04-.33.13-.48.17-.32.42-.49.76-.51,2.34-.24,4.44-.58,6.32-1.02.03,0,.06-.02.06-.05,0-.03,0-.06-.04-.08-.86-.54-1.64-1.12-2.34-1.73-.22-.2-.33-.44-.33-.71v-.2c.07-.36.27-.61.61-.76l.08-.05s.02-.01.01-.04-.02-.04-.04-.04h-3.12c-.36,0-.66-.12-.9-.37s-.37-.54-.37-.88.12-.63.37-.88.55-.37.9-.37h15.64c.05,0,.1,0,.15-.03ZM37.46,5.56c.14,0,.2-.07.2-.2v-.58c0-.12-.07-.18-.2-.18h-1.19c-.14,0-.2.06-.2.18v.58c0,.14.07.2.2.2h1.19ZM37.46,8.35c.14,0,.2-.06.2-.18v-.58c0-.12-.07-.18-.2-.18h-1.19c-.14,0-.2.06-.2.18v.58c0,.12.07.18.2.18h1.19ZM37.46,11.17c.14,0,.2-.07.2-.2v-.58c0-.13-.07-.2-.2-.2h-1.19c-.14,0-.2.07-.2.2v.58c0,.14.07.2.2.2h1.19ZM47.31,16.86s.04-.04.03-.08c-.02-.03-.04-.05-.08-.05h-7.8s-.05.02-.06.05c0,.03,0,.06.01.08,1.05.81,2.34,1.53,3.86,2.16.12.03.24.03.36-.03,1.47-.61,2.7-1.32,3.68-2.13ZM48.61,5.56c.12,0,.18-.07.18-.2v-.58c0-.12-.06-.18-.18-.18h-1.22c-.12,0-.18.06-.18.18v.58c0,.14.06.2.18.2h1.22ZM48.61,8.35c.12,0,.18-.06.18-.18v-.58c0-.12-.06-.18-.18-.18h-1.22c-.12,0-.18.06-.18.18v.58c0,.12.06.18.18.18h1.22ZM48.61,11.17c.12,0,.18-.07.18-.2v-.58c0-.13-.06-.2-.18-.2h-1.22c-.12,0-.18.07-.18.2v.58c0,.14.06.2.18.2h1.22Z" style="fill: #fff;"/>
        <path d="M79.54,1.09c.41,0,.76.14,1.05.43s.44.64.44,1.07v3.07c0,.42-.15.78-.44,1.07-.3.29-.65.43-1.05.43h-1.07v.03c.05.02.09.06.11.11.03.06.01.11-.04.17-.34.39-.61.69-.81.89-.03.03-.04.07-.03.1.02.03.04.05.08.05h1.75c.41,0,.76.14,1.05.43.3.29.44.64.44,1.07v4.01c0,.41-.15.76-.44,1.05s-.65.44-1.05.44h-13.03c-.42,0-.78-.15-1.07-.44s-.43-.65-.43-1.05v-4.01c0-.42.14-.78.43-1.07.29-.29.64-.43,1.07-.43h1.25s.06-.02.08-.05c.02-.03.02-.07,0-.1-.14-.25-.29-.48-.46-.69-.07-.08-.09-.18-.06-.28s.09-.17.19-.2v-.03h-3.1c-.14,0-.2.07-.2.2v1.35c0,1.62-.05,3.16-.15,4.6-.1,1.44-.34,3.07-.71,4.89s-.88,3.39-1.52,4.71c-.17.36-.46.58-.86.66-.12.02-.23.03-.33.03-.27,0-.53-.08-.79-.23-.05-.02-.1-.04-.15-.08-.34-.19-.57-.47-.69-.86-.05-.15-.08-.3-.08-.46,0-.22.06-.44.18-.66.44-.91.8-1.92,1.09-3.01s.5-2.23.62-3.4.21-2.22.25-3.12c.04-.91.06-1.92.06-3.06V2.59c0-.42.15-.78.44-1.07s.65-.43,1.05-.43h16.91ZM64.4,3.43c-.14,0-.2.06-.2.18v1.04c0,.12.07.18.2.18h13.33c.14,0,.2-.06.2-.18v-1.04c0-.12-.07-.18-.2-.18h-13.33ZM67.55,24.27c-.42,0-.78-.14-1.07-.43-.29-.29-.43-.64-.43-1.07v-4.98c0-.42.14-.78.43-1.07.29-.29.64-.43,1.07-.43h11.07c.41,0,.76.14,1.05.43s.44.64.44,1.07v4.98c0,.42-.15.78-.44,1.07s-.65.43-1.05.43h-1.02c-.17,0-.31-.06-.43-.18s-.18-.26-.18-.43c0-.05-.03-.08-.08-.08h-7.79c-.05,0-.08.03-.08.08,0,.17-.06.31-.18.43-.12.12-.26.18-.43.18h-.89ZM68.06,10.21c-.14,0-.2.07-.2.2v.61c0,.12.07.18.2.18h3.2c.13,0,.2-.06.2-.18v-.61c0-.13-.07-.2-.2-.2h-3.2ZM68.06,12.82c-.14,0-.2.06-.2.18v.63c0,.12.07.18.2.18h3.2c.13,0,.2-.06.2-.18v-.63c0-.12-.07-.18-.2-.18h-3.2ZM77,18.36c0-.14-.07-.2-.2-.2h-7.57c-.12,0-.18.07-.18.2v.58c0,.12.06.18.18.18h7.57c.14,0,.2-.06.2-.18v-.58ZM69.05,21.56c0,.14.06.2.18.2h7.57c.14,0,.2-.07.2-.2v-.63c0-.12-.07-.18-.2-.18h-7.57c-.12,0-.18.06-.18.18v.63ZM70.68,8.3c.05.14.14.2.28.2h3.55c.13,0,.24-.06.3-.18.36-.46.6-.79.74-.99.03-.03.04-.07.03-.11-.02-.04-.05-.06-.1-.06h-5.31s-.06.02-.08.05c-.02.03-.02.07,0,.1.25.34.45.67.58.99ZM77.81,11.2c.14,0,.2-.06.2-.18v-.61c0-.13-.07-.2-.2-.2h-3.33c-.14,0-.2.07-.2.2v.61c0,.12.07.18.2.18h3.33ZM77.81,13.81c.14,0,.2-.06.2-.18v-.63c0-.12-.07-.18-.2-.18h-3.33c-.14,0-.2.06-.2.18v.63c0,.12.07.18.2.18h3.33Z" style="fill: #fff;"/>
        <path d="M109.12,17.37c.25.25.38.55.38.9s-.13.65-.38.9-.55.38-.89.38h-5.48s-.03,0-.04.03c0,.02,0,.03.01.03,2.12.73,4.01,1.42,5.69,2.08.32.12.5.35.53.69.02.05.03.09.03.13,0,.27-.12.49-.36.66l-.28.23c-.36.27-.76.43-1.22.48-.1.02-.19.03-.28.03-.36,0-.7-.08-1.04-.23-1.42-.64-2.98-1.29-4.67-1.93-.32-.12-.52-.35-.58-.69-.02-.07-.03-.14-.03-.2,0-.25.09-.47.28-.63l.56-.53s.02-.06.01-.09c0-.03-.03-.04-.06-.04h-7.31s-.05.01-.06.04c0,.03,0,.05.01.06l1.04.71c.27.19.41.44.41.76,0,.39-.16.66-.48.81-1.58.78-3.28,1.45-5.1,2.01-.22.05-.43.08-.63.08-.22,0-.44-.03-.66-.1-.44-.12-.82-.35-1.14-.69-.17-.17-.25-.36-.25-.56,0-.08,0-.17.03-.25.08-.3.28-.5.58-.58,2.27-.63,4.12-1.35,5.56-2.18.03-.02.05-.04.04-.06,0-.03-.03-.04-.06-.04h-5.59c-.36,0-.66-.13-.91-.38s-.38-.55-.38-.9.13-.65.38-.9.56-.38.91-.38h20.57c.34,0,.63.13.89.38ZM96.07,5.54c.12,0,.18-.07.18-.2v-.71c0-.12-.06-.18-.18-.18h-7.62c-.36,0-.66-.13-.91-.38s-.38-.56-.38-.91.13-.66.38-.91.56-.38.91-.38h7.62c.12,0,.18-.06.18-.18v-.18c0-.42.15-.78.44-1.07.3-.29.65-.43,1.05-.43h.23c.42,0,.78.14,1.07.43.29.29.43.64.43,1.07v.18c0,.12.07.18.2.18h7.97c.36,0,.66.13.91.38s.38.56.38.91-.13.66-.38.91-.56.38-.91.38h-7.97c-.14,0-.2.06-.2.18v.71c0,.14.07.2.2.2h4.95c.41,0,.76.14,1.05.43.3.29.44.64.44,1.07v7.44c0,.42-.15.78-.44,1.07s-.65.43-1.05.43h-12.95c-.42,0-.78-.14-1.07-.43s-.43-.64-.43-1.07v-7.44c0-.42.14-.78.43-1.07.29-.29.64-.43,1.07-.43h4.39ZM102.78,8.43c.14,0,.2-.06.2-.18v-.71c0-.13-.07-.2-.2-.2h-9.42c-.12,0-.18.07-.18.2v.71c0,.12.06.18.18.18h9.42ZM102.78,11.3c.14,0,.2-.06.2-.18v-.71c0-.13-.07-.2-.2-.2h-9.42c-.12,0-.18.07-.18.2v.71c0,.12.06.18.18.18h9.42ZM102.78,14.19c.14,0,.2-.07.2-.2v-.79c0-.12-.07-.18-.2-.18h-9.42c-.12,0-.18.06-.18.18v.79c0,.14.06.2.18.2h9.42Z" style="fill: #fff;"/>
        <path d="M126.73,20.57c0,.14.07.2.2.2h8.28c.39,0,.72.14,1,.41s.42.6.42.99-.14.72-.42.99-.61.41-1,.41h-19.93c-.39,0-.72-.14-.99-.41s-.41-.6-.41-.99.14-.72.41-.99.6-.41.99-.41h8.1c.12,0,.18-.07.18-.2v-3.48c0-.14-.06-.2-.18-.2h-5.38c-.39,0-.72-.14-.99-.41s-.41-.6-.41-.98.14-.71.41-.98.6-.41.99-.41h15.03c.37,0,.69.14.96.41s.41.6.41.98-.14.71-.41.98-.59.41-.96.41h-6.09c-.14,0-.2.07-.2.2v3.48ZM126.47,5.33c0-.13-.06-.2-.18-.2h-2.16c-.12,0-.19.07-.2.2-.12,1.03-.3,1.93-.56,2.68-.25.75-.63,1.47-1.14,2.16s-1.2,1.28-2.07,1.79-1.96.94-3.26,1.3c-.15.05-.3.08-.46.08-.24,0-.48-.06-.74-.18-.39-.19-.7-.47-.94-.86-.02-.03-.03-.07-.05-.1-.12-.17-.18-.35-.18-.53,0-.12.02-.24.05-.36.12-.3.34-.5.66-.58,1.05-.25,1.92-.55,2.6-.88s1.22-.73,1.61-1.21c.39-.47.68-.96.86-1.46.19-.5.33-1.11.43-1.84.02-.13-.04-.2-.18-.2h-3.2c-.12,0-.18.07-.18.2v1.32c0,.42-.15.78-.44,1.07-.3.29-.65.43-1.05.43h-.05c-.42,0-.78-.14-1.07-.43-.29-.29-.43-.64-.43-1.07v-2.82c0-.42.14-.78.43-1.07s.64-.43,1.07-.43h7.72c.12,0,.18-.07.18-.2v-.63c0-.42.15-.78.44-1.07.3-.29.65-.43,1.05-.43h.18c.42,0,.78.14,1.07.43.29.29.43.64.43,1.07v.63c0,.14.07.2.2.2h7.95c.42,0,.78.14,1.07.43s.43.64.43,1.07v2.39c0,.41-.14.76-.43,1.05-.29.3-.64.44-1.07.44h-.2c-.41,0-.76-.15-1.05-.44-.3-.3-.44-.65-.44-1.05v-.89c0-.13-.06-.2-.18-.2h-3.3c-.12,0-.18.07-.18.2v3.91c0,.36.06.58.18.67.12.09.38.14.79.14h2.31c.37,0,.61-.16.71-.48.1-.32.29-.56.56-.71.17-.08.34-.13.51-.13.14,0,.26.03.38.08.41.15.72.4.94.74.15.24.23.48.23.74,0,.12-.02.24-.05.36-.22.76-.55,1.29-1,1.59-.45.3-1.1.44-1.97.44h-3.1c-1.42,0-2.37-.24-2.83-.71-.47-.47-.7-1.37-.7-2.69v-3.94Z" style="fill: #fff;"/>
        <path d="M147.3,10.36c-.08-.17-.13-.34-.13-.51,0-.13.02-.26.05-.38.1-.3.3-.52.61-.66.17-.07.35-.1.53-.1.14,0,.27.02.41.05.32.12.57.32.74.61.61,1.15,1.09,2.23,1.45,3.22.05.15.08.31.08.46,0,.19-.04.37-.13.56-.17.34-.42.59-.76.76-.15.07-.3.1-.46.1s-.3-.03-.46-.1c-.29-.15-.48-.39-.58-.71-.03-.1-.1-.14-.2-.13l-1.14.08c-.12,0-.18.07-.18.2v9.12c0,.39-.13.71-.39.98s-.58.39-.96.39-.71-.13-.98-.39-.41-.59-.41-.98v-8.91c0-.14-.06-.2-.18-.18-.59.03-1.36.08-2.31.15h-.1c-.34,0-.63-.11-.89-.33-.29-.24-.45-.55-.48-.94v-.13c0-.3.1-.58.3-.84.24-.27.54-.41.91-.43l.38-.03c.12,0,.22-.05.3-.15.37-.47.69-.91.96-1.29.08-.1.08-.21,0-.33-.52-.74-1.22-1.57-2.08-2.49-.27-.27-.42-.59-.46-.96v-.15c0-.3.08-.59.25-.86l.33-.46c.1-.15.25-.24.44-.27s.37.02.52.14c.05.05.08.05.1,0,.49-.98.95-2.01,1.37-3.1.15-.37.41-.64.76-.81.2-.1.41-.15.61-.15.17,0,.33.03.48.1.36.12.61.36.76.71.05.15.08.3.08.46,0,.2-.05.4-.15.58-.86,1.62-1.58,2.89-2.16,3.81-.07.1-.06.2.03.3.2.24.42.5.66.79.08.1.16.1.23,0,.59-.91,1.14-1.85,1.65-2.82.19-.36.47-.61.84-.76.19-.07.36-.1.53-.1.2,0,.4.04.58.13.34.14.57.38.69.74.03.14.05.26.05.38,0,.22-.07.43-.2.63-1.46,2.2-2.81,4.1-4.06,5.69-.03.03-.04.07-.03.1.02.03.05.05.1.05l2.23-.13c.05,0,.08-.02.1-.05.02-.03.02-.08,0-.13-.08-.19-.17-.36-.25-.53ZM141.23,16.48c.05-.34.21-.62.48-.84.22-.15.46-.23.71-.23h.23c.36.07.64.25.86.53.17.24.25.5.25.79v.2c-.24,1.61-.55,3-.94,4.19-.1.32-.32.54-.66.66-.14.05-.28.08-.43.08-.19,0-.36-.04-.53-.13-.32-.15-.55-.39-.69-.71-.07-.19-.1-.37-.1-.56,0-.15.02-.3.05-.46.32-.96.58-2.14.76-3.53ZM147.6,16.89c-.05-.14-.08-.27-.08-.41,0-.15.04-.31.13-.48.14-.29.36-.48.66-.58.14-.05.27-.08.41-.08.19,0,.37.04.56.13.3.14.52.36.66.69.32.83.61,1.68.86,2.54.05.14.08.26.08.38,0,.22-.06.43-.18.63-.17.32-.42.54-.76.66-.14.05-.26.08-.38.08-.19,0-.37-.05-.56-.15-.29-.17-.47-.42-.56-.76-.22-.81-.5-1.69-.84-2.64ZM164.23,3.76c.27.27.41.6.41.99s-.14.72-.41.99c-.27.27-.6.41-.99.41h-4.11c-.12,0-.18.07-.18.2v2.44c0,.14.06.2.18.2h3.5c.39,0,.72.14,1,.41.28.27.42.6.42.99s-.14.72-.42,1-.61.42-1,.42h-10.18c-.39,0-.72-.14-.99-.42-.27-.28-.41-.61-.41-1s.13-.72.41-.99.6-.41.99-.41h3.17c.12,0,.18-.07.18-.2v-2.44c0-.13-.06-.2-.18-.2h-3.91c-.39,0-.72-.13-.99-.41-.27-.27-.41-.6-.41-.99s.13-.72.41-.99c.27-.27.6-.41.99-.41h3.91c.12,0,.18-.07.18-.2v-1.65c0-.42.15-.78.44-1.07.3-.29.65-.43,1.05-.43h.15c.41,0,.76.14,1.05.43s.44.64.44,1.07v1.65c0,.14.06.2.18.2h4.11c.39,0,.72.14.99.41ZM153.27,24.25c-.39,0-.72-.14-1-.42s-.42-.61-.42-1v-7.34c0-.42.15-.78.44-1.07.3-.29.65-.43,1.05-.43h8.63c.42,0,.78.14,1.07.43s.43.64.43,1.07v7.24c0,.42-.14.78-.43,1.07s-.64.43-1.07.43h-.53c-.27,0-.5-.09-.69-.28s-.28-.41-.28-.66c0-.08-.03-.13-.1-.13h-5.56c-.08,0-.13.04-.13.13,0,.27-.09.5-.28.69-.19.19-.42.28-.69.28h-.46ZM160.48,16.94c0-.14-.06-.2-.18-.2h-5.43c-.12,0-.18.07-.18.2v3.28c0,.14.06.2.18.2h5.43c.12,0,.18-.07.18-.2v-3.28Z" style="fill: #fff;"/>
        <path d="M176.35,13c.2.32.3.68.3,1.07,0,.44-.13.84-.38,1.19-.15.22-.36.33-.61.33h-.1c-.29-.03-.5-.19-.63-.46-.25-.56-.53-1.15-.84-1.78-.02-.03-.03-.05-.05-.04-.02,0-.03.02-.03.04v9.5c0,.39-.14.72-.42.99s-.61.41-1,.41-.72-.14-.99-.41-.41-.6-.41-.99v-8.12s0-.03-.03-.04-.03,0-.03.01c-.49,1.41-1.01,2.62-1.55,3.66-.14.25-.34.38-.61.38h-.08c-.3-.03-.53-.19-.69-.46,0-.02,0-.03-.03-.05-.2-.42-.3-.84-.3-1.24,0-.44.13-.89.38-1.35,1.17-2.12,2.05-4.54,2.64-7.26.03-.12-.02-.18-.15-.18h-1.27c-.39,0-.72-.14-1-.42s-.42-.61-.42-1,.14-.72.42-1,.61-.42,1-.42h1.52c.12,0,.18-.07.18-.2V1.4c0-.39.14-.72.41-.99s.6-.41.99-.41.72.14,1,.41.42.6.42.99v3.76c0,.14.06.2.18.2h.99c.39,0,.72.14,1,.42.28.28.42.61.42,1s-.14.72-.42,1c-.28.28-.61.42-1,.42h-.99c-.12,0-.18.07-.18.2v.84c0,.12.03.23.1.33.56.81,1.3,1.96,2.24,3.43ZM191.03,17.93c.3,0,.57.11.79.33s.33.49.33.8-.11.58-.33.8-.48.33-.79.33h-.13c-.1,0-.15.06-.15.18v.94c0,.68-.08,1.19-.24,1.54s-.45.63-.88.85c-.52.22-1.34.35-2.44.38h-.05c-.34,0-.65-.11-.94-.33-.29-.24-.49-.53-.61-.89-.03-.1-.05-.2-.05-.3,0-.17.05-.34.15-.51.17-.24.41-.36.71-.36h1.04c.17,0,.28-.03.34-.09s.09-.17.09-.32v-.89c0-.14-.06-.2-.18-.2h-6.93c-.12,0-.18.07-.18.2v2.29c0,.39-.14.72-.41.99-.27.27-.6.41-.99.41s-.72-.14-.99-.41c-.27-.27-.41-.6-.41-.99v-2.31c0-.12-.06-.18-.18-.18h-.28c-.3,0-.57-.11-.79-.33-.22-.22-.33-.49-.33-.8s.11-.58.33-.8c.22-.22.48-.33.79-.33h.28c.12,0,.18-.06.18-.18v-4.82c0-.41.15-.76.44-1.05s.65-.44,1.05-.44h3.3c.13,0,.2-.06.2-.18v-.61c0-.13-.07-.2-.2-.2h-4.82c-.3,0-.56-.11-.77-.32-.21-.21-.32-.47-.32-.77s.11-.56.32-.77.47-.32.77-.32h1.96c.12,0,.18-.06.18-.18v-.71c0-.13-.06-.2-.18-.2h-.91c-.29,0-.53-.1-.74-.3s-.3-.45-.3-.74.1-.53.3-.74.45-.3.74-.3h.91c.12,0,.18-.06.18-.18v-.69c0-.13-.06-.2-.18-.2h-1.42c-.3,0-.56-.1-.76-.3s-.3-.45-.3-.75.1-.55.3-.76.46-.32.76-.32h1.42c.12,0,.18-.06.18-.18v-.28c0-.39.14-.72.42-1s.62-.42,1.02-.42.74.14,1.02.42.42.61.42,1v.28c0,.12.06.18.18.18h2.49c.12,0,.18-.06.18-.18v-.25c0-.41.14-.75.43-1.03s.63-.42,1.03-.42.74.14,1.02.42.42.62.42,1.03v.25c0,.12.07.18.2.18h1.65c.29,0,.54.11.75.32s.32.47.32.76-.11.55-.32.75-.46.3-.75.3h-1.65c-.14,0-.2.07-.2.2v.69c0,.12.07.18.2.18h1.24c.29,0,.53.1.74.3s.3.45.3.74-.1.53-.3.74-.45.3-.74.3h-1.24c-.14,0-.2.07-.2.2v.71c0,.12.07.18.2.18h2.08c.3,0,.56.11.77.32.21.21.32.47.32.77s-.11.56-.32.77c-.21.21-.47.32-.77.32h-5.03c-.14,0-.2.07-.2.2v.61c0,.12.07.18.2.18h3.48c.42,0,.78.15,1.07.44.29.3.43.65.43,1.05v4.85c0,.1.05.15.15.15h.13ZM182.8,13.76c0-.14-.07-.2-.2-.2h-1.83c-.12,0-.18.07-.18.2v.74c0,.12.06.18.18.18h1.83c.13,0,.2-.06.2-.18v-.74ZM180.77,16.68c-.12,0-.18.07-.18.2v.86c0,.12.06.18.18.18h1.83c.13,0,.2-.06.2-.18v-.86c0-.14-.07-.2-.2-.2h-1.83ZM182.95,4.01c-.12,0-.18.07-.18.2v.69c0,.12.06.18.18.18h2.49c.12,0,.18-.06.18-.18v-.69c0-.13-.06-.2-.18-.2h-2.49ZM182.95,7.16c-.12,0-.18.07-.18.2v.71c0,.12.06.18.18.18h2.49c.12,0,.18-.06.18-.18v-.71c0-.13-.06-.2-.18-.2h-2.49ZM187.88,13.76c0-.14-.06-.2-.18-.2h-1.93c-.14,0-.2.07-.2.2v.74c0,.12.07.18.2.18h1.93c.12,0,.18-.06.18-.18v-.74ZM185.57,17.75c0,.12.07.18.2.18h1.93c.12,0,.18-.06.18-.18v-.86c0-.14-.06-.2-.18-.2h-1.93c-.14,0-.2.07-.2.2v.86Z" style="fill: #fff;"/>
      </g>
      <path d="M18.22,21.45c0,.07-.04.15-.08.3h-1.73c-2.55,0-5.1,0-7.66,0-5.15,0-8.45-3.12-8.73-8.26-.13-2.27.16-4.46,1.46-6.41,1.5-2.26,3.74-3.23,6.34-3.48,1.95-.19,3.89-.04,5.7.79,3.23,1.48,4.54,4.22,4.67,7.56.12,3.16.03,6.33.03,9.49Z" style="fill: #fff;"/>
    </g>
  </g>
</svg>