<?xml version="1.0" encoding="UTF-8"?>
<svg id="_圖層_2" data-name="圖層 2" xmlns="http://www.w3.org/2000/svg" width="216.13" height="92.73" viewBox="0 0 216.13 92.73">
  <g id="_設計" data-name="設計">
    <g>
      <g>
        <path d="M33.26,58.25c-.41.43-.91.64-1.5.64s-1.09-.21-1.51-.64-.62-.96-.62-1.61.21-1.2.62-1.64.92-.66,1.51-.66,1.09.22,1.5.66.62.98.62,1.64-.21,1.18-.62,1.61Z" style="fill: #fff;"/>
        <path d="M59.97,53.69c.15.15.22.33.22.53s-.07.38-.22.53-.33.22-.54.22h-2.08c-.09,0-.14.04-.17.12-.5,1.64-1.23,2.98-2.21,4.02-.06.06-.04.1.03.13,1.44.6,2.66,1.17,3.65,1.73.2.11.32.28.35.5v.12c0,.18-.07.34-.2.48-.18.19-.39.29-.65.32-.06.01-.11.02-.15.02-.21,0-.4-.06-.58-.17-.98-.59-2.24-1.21-3.75-1.86-.08-.03-.15-.03-.22.02-1.46.99-3.5,1.72-6.11,2.19-.07.01-.13.02-.2.02-.17,0-.33-.04-.5-.12-.23-.12-.42-.29-.55-.5-.11-.17-.13-.33-.05-.51.08-.17.2-.27.38-.31,2.22-.3,3.98-.8,5.28-1.49.02-.01.03-.03.03-.05s-.01-.04-.03-.05c-.77-.3-1.65-.61-2.64-.95-.06-.02-.1,0-.13.05-.1.17-.24.29-.42.37-.11.04-.22.07-.33.07-.08,0-.15-.01-.23-.03l-.17-.03c-.21-.06-.35-.18-.43-.38-.03-.09-.05-.17-.05-.25,0-.11.03-.22.08-.33.48-.82,1.02-1.82,1.64-2.99.02-.03.02-.06,0-.08s-.04-.03-.07-.03h-3.01c-.21,0-.39-.08-.54-.22s-.22-.33-.22-.53.07-.38.22-.53.33-.22.54-.22h3.8c.08,0,.13-.04.17-.12.33-.65.62-1.23.86-1.74.11-.22.28-.39.5-.5.14-.08.3-.12.46-.12.08,0,.15.01.23.03.21.04.36.17.45.37.04.09.07.18.07.28s-.02.2-.07.3c-.22.44-.45.9-.68,1.38-.01.02,0,.05,0,.07s.04.04.06.04h7.59c.21,0,.39.07.54.22ZM47.38,50.22c-.09,0-.13.04-.13.13v1.36c0,.22-.08.41-.23.57s-.34.24-.56.24-.41-.08-.57-.24-.24-.35-.24-.57v-1.98c0-.27.1-.5.29-.69s.42-.29.69-.29h5.06c.09,0,.13-.04.13-.12v-.71c0-.23.08-.43.24-.6.16-.17.36-.25.59-.25s.43.08.6.25.25.37.25.6v.71c0,.08.04.12.13.12h5.21c.27,0,.5.1.69.29.19.19.29.42.29.69v1.94c0,.23-.08.43-.25.6-.17.17-.37.25-.6.25s-.43-.08-.59-.25c-.16-.17-.24-.37-.24-.6v-1.33c0-.09-.04-.13-.13-.13h-10.63ZM55.4,55.09s0-.06-.02-.08-.05-.03-.08-.03h-4.23c-.08,0-.14.04-.18.12-.35.69-.74,1.41-1.15,2.16-.03.07-.01.11.07.13,1.2.35,2.33.74,3.4,1.15.08.03.14.02.2-.03.92-.89,1.58-2.02,1.99-3.4Z" style="fill: #fff;"/>
        <path d="M64.21,53.53c.02-.21.12-.38.3-.5.12-.09.25-.13.4-.13h.15c.22.05.4.17.53.35.11.14.17.3.17.48,0,.04,0,.08-.02.12-.29,2.18-.74,3.87-1.36,5.06-.1.2-.27.33-.5.38-.08.02-.15.03-.22.03-.16,0-.3-.04-.45-.12-.2-.12-.32-.29-.37-.51-.02-.07-.03-.14-.03-.22,0-.14.04-.28.12-.42.61-1.12,1.03-2.63,1.28-4.53ZM67.2,52.3c0-.23.08-.43.24-.59.16-.16.35-.24.58-.24s.42.08.58.24c.16.16.24.36.24.59v7.42c0,.4.06.66.19.77.13.12.41.17.84.17h2.76c.45,0,.75-.21.9-.63.12-.32.22-.96.28-1.93.01-.18.1-.3.26-.38s.32-.08.49,0c.22.1.4.24.53.43.11.17.17.34.17.53v.1c-.11,1.2-.31,2.02-.6,2.47-.33.56-.97.85-1.91.85h-3.04c-.97,0-1.64-.17-1.98-.5s-.52-.96-.52-1.89v-7.42ZM68.03,48.3c-.18-.08-.29-.21-.33-.4-.01-.05-.02-.1-.02-.15,0-.13.04-.25.13-.37.15-.18.35-.3.58-.37.1-.02.19-.03.28-.03.13,0,.27.02.4.07.73.29,1.49.63,2.29,1.03.74.38,1.39.74,1.96,1.1.2.12.32.3.37.53.01.06.02.11.02.15,0,.18-.06.34-.17.48-.14.19-.33.3-.56.33-.06.01-.11.02-.15.02-.18,0-.35-.05-.51-.15-.52-.35-1.15-.72-1.88-1.1-.82-.44-1.62-.82-2.41-1.15ZM74.52,53.53c-.09-.12-.13-.25-.13-.38,0-.06.01-.12.03-.18.04-.2.16-.35.35-.45.13-.07.28-.1.43-.1.07,0,.14,0,.22.02.23.05.42.18.55.37.53.76,1.02,1.59,1.48,2.47.4.8.71,1.53.93,2.21.03.1.05.21.05.32,0,.13-.03.27-.1.4-.11.23-.28.4-.51.51-.1.04-.2.07-.3.07s-.2-.02-.3-.07c-.2-.09-.34-.24-.42-.46-.2-.67-.49-1.42-.88-2.22-.42-.91-.89-1.74-1.4-2.49Z" style="fill: #fff;"/>
        <path d="M93.45,57.79c.18-.11.38-.17.6-.17.2,0,.39.06.56.17.13.11.2.25.2.42s-.07.3-.22.39c-.74.46-1.49.87-2.24,1.23-.02.01-.03.03-.03.06s.01.05.03.06c.89.59,1.93,1.04,3.14,1.34.18.04.29.15.34.32s.02.32-.07.46c-.13.2-.31.34-.53.43-.12.06-.25.08-.38.08-.09,0-.18-.01-.27-.03-2.92-.87-5.01-2.62-6.28-5.23-.01-.02-.02-.03-.04-.03s-.03,0-.04.02c-.6.48-1.31.92-2.12,1.34-.07.03-.1.09-.1.18v1.78c0,.08.04.11.12.1,1.21-.16,2.21-.29,3.02-.4.17-.02.32.02.45.12.13.11.2.25.22.42.01.18-.04.33-.16.47-.12.14-.26.22-.44.26-1.98.28-3.96.55-5.93.81-.04.01-.08.02-.12.02-.14,0-.28-.04-.4-.13-.14-.11-.23-.26-.27-.45-.03-.18,0-.34.11-.48s.25-.23.42-.25c.44-.04.89-.1,1.33-.17.08-.01.12-.06.12-.13v-1.31s-.01-.06-.03-.08c-.02-.02-.05-.02-.08,0-.74.28-1.5.5-2.27.68-.08.02-.15.03-.22.03-.12,0-.25-.03-.38-.08-.19-.09-.35-.22-.48-.38-.1-.12-.12-.25-.07-.4s.15-.23.29-.27c1.86-.39,3.45-.94,4.77-1.64.01-.01.02-.03.02-.04s-.01-.02-.03-.02h-4.53c-.18,0-.33-.06-.45-.18-.12-.12-.18-.27-.18-.44s.06-.32.18-.43c.12-.12.27-.17.45-.17h6.08c.09,0,.13-.04.13-.13v-.28c0-.22.08-.41.23-.56.15-.16.34-.23.56-.23s.41.08.56.23c.15.16.23.34.23.56v.28c0,.09.04.13.13.13h5.99c.18,0,.33.06.45.17.12.12.18.26.18.43s-.06.32-.18.44c-.12.12-.27.18-.45.18h-5.45s-.04.01-.05.04c-.01.03-.01.05,0,.08.38.61.8,1.15,1.28,1.61.07.06.14.06.22.02.77-.41,1.47-.82,2.09-1.25ZM85.04,52.86c0-.08-.04-.12-.12-.12h-1.31c-.09,0-.14.04-.15.12-.21,1.22-.74,2.1-1.58,2.64-.17.1-.33.12-.5.07s-.31-.15-.43-.31c-.1-.12-.14-.26-.12-.42.02-.16.09-.29.22-.37.48-.35.79-.89.95-1.61.01-.08-.02-.12-.1-.12h-.45c-.17,0-.31-.06-.43-.17-.12-.12-.18-.26-.18-.43s.06-.32.18-.43c.12-.12.27-.17.43-.17h3.47c.08,0,.12-.04.12-.12v-.86c0-.08-.04-.12-.12-.12h-1.88s-.05.01-.05.03c0,.08-.03.15-.08.21s-.13.09-.22.09h-.37c-.19,0-.35-.07-.48-.2s-.2-.29-.2-.46v-2.11c0-.19.07-.35.2-.48s.29-.2.48-.2.35.07.47.2.19.29.19.48v1.06c0,.09.04.13.13.13h1.79c.08,0,.12-.04.12-.13v-1.23c0-.2.07-.37.22-.51.14-.14.32-.22.52-.22s.38.07.52.22c.14.14.22.32.22.51v6.86c0,.21-.07.39-.22.53-.14.14-.32.22-.52.22s-.38-.07-.52-.22c-.14-.14-.22-.32-.22-.53v-1.83ZM90.53,53.13c.08,0,.12-.04.12-.12v-2.23c0-.08-.04-.12-.12-.12h-2.71c-.19,0-.35-.07-.48-.2s-.2-.29-.2-.47.07-.34.2-.47.29-.2.48-.2h2.71c.08,0,.12-.04.12-.12v-1.33c0-.22.08-.41.23-.56.15-.15.34-.22.56-.22s.4.08.55.22.22.33.22.56v1.33c0,.08.04.12.13.12h2.79c.19,0,.35.07.47.2.13.13.19.29.19.47s-.06.34-.19.47c-.13.13-.29.2-.47.2h-2.79c-.09,0-.13.04-.13.12v2.23c0,.08.04.12.13.12h2.44c.18,0,.33.07.46.2s.2.29.2.48-.07.35-.2.47c-.13.13-.29.19-.46.19h-6.57c-.19,0-.35-.06-.47-.19-.13-.13-.19-.29-.19-.47s.06-.35.19-.48c.13-.13.28-.2.47-.2h2.32Z" style="fill: #fff;"/>
        <path d="M110.96,57.01c.27,0,.5.09.69.28.19.19.29.42.29.7v2.84c0,.08.04.12.13.12h1.08c.2,0,.37.07.51.21.14.14.21.31.21.51s-.07.37-.21.5c-.14.13-.31.2-.51.2h-13.83c-.2,0-.37-.07-.51-.2-.14-.13-.21-.3-.21-.5s.07-.37.21-.51c.14-.14.31-.21.51-.21h1.25c.08,0,.12-.04.12-.12v-2.84c0-.28.1-.51.29-.7s.42-.28.69-.28h9.3ZM104.1,52.98c0-.08-.04-.12-.13-.12h-2.39c-.09,0-.14.04-.15.12-.2,1.45-.59,2.65-1.18,3.6-.11.18-.28.28-.5.3-.03.01-.06.02-.08.02-.19,0-.35-.06-.5-.18-.18-.13-.29-.3-.33-.51-.01-.06-.02-.11-.02-.17,0-.14.04-.28.12-.42.7-1.18,1.05-2.78,1.05-4.8v-.96c0-.27.1-.5.29-.69s.42-.29.69-.29h5.2c.08,0,.11-.04.1-.12-.08-.52-.12-.84-.12-.96,0-.18.07-.33.2-.46.14-.15.32-.23.53-.23.22,0,.42.08.58.22s.26.33.28.56c.03.3.07.59.12.88.01.08.06.12.15.12h2.12s.04,0,.05-.02c.01-.02,0-.04-.02-.06-.24-.24-.54-.5-.88-.76-.11-.09-.16-.21-.16-.36s.07-.26.19-.32c.18-.11.35-.17.53-.17.19,0,.37.07.55.2.3.21.59.44.86.68.12.1.17.23.16.4s-.09.29-.22.38c-.01,0-.01,0,0,.02,0,.01.01.02.02.02h1.66c.19,0,.35.07.48.21s.2.3.2.49-.07.35-.2.48-.29.2-.48.2h-4.58s-.06.01-.07.04-.02.06,0,.09c.25.86.58,1.67.98,2.42.03.08.08.09.15.03.52-.51.97-1.05,1.34-1.61.12-.18.28-.31.48-.4.11-.04.23-.07.35-.07.09,0,.18.02.27.05.18.06.3.17.37.34.07.17.06.34-.04.51-.54.84-1.2,1.63-1.98,2.36-.07.05-.07.11-.02.17.63.7,1.23,1.05,1.81,1.05.18,0,.31-.09.41-.27.09-.18.17-.48.22-.91.02-.16.1-.27.25-.33.14-.07.28-.06.42.02.2.11.35.25.46.43.08.14.12.29.12.43,0,.05,0,.1-.02.15-.13.77-.35,1.3-.65,1.58-.28.27-.69.4-1.25.4h-.05c-1.05,0-2.02-.51-2.91-1.53-.06-.07-.12-.07-.18-.02-.55.39-1.11.74-1.68,1.06-.13.07-.27.1-.42.1-.08,0-.15,0-.22-.02-.22-.06-.4-.17-.55-.35-.13-.13-.18-.29-.15-.48s.14-.32.32-.4c.71-.34,1.32-.71,1.84-1.1.07-.04.08-.11.05-.18-.6-1.02-1.05-2.16-1.36-3.44-.02-.09-.07-.13-.15-.13h-4.75c-.09,0-.13.04-.13.13v1.1c-.01.08.03.12.12.12h2.96c.27,0,.49.1.68.3.18.18.27.39.27.63,0,.66-.07,1.37-.2,2.11-.07.44-.18.75-.33.91-.21.25-.54.4-.98.43-.2.03-.48.05-.85.05h-.3c-.18-.01-.33-.08-.46-.19-.13-.12-.23-.27-.28-.46-.03-.13,0-.26.07-.37s.2-.17.34-.17c.3.02.55.03.75.03.21,0,.37-.05.46-.15.13-.16.23-.74.3-1.74ZM102.27,58.28c-.09,0-.13.04-.13.12v2.44c0,.08.04.12.13.12h1.51c.09,0,.13-.04.13-.12v-2.44c0-.08-.04-.12-.13-.12h-1.51ZM107.14,58.39c0-.08-.04-.12-.12-.12h-1.54c-.08,0-.12.04-.12.12v2.44c0,.08.04.12.12.12h1.54c.08,0,.12-.04.12-.12v-2.44ZM110.41,58.39c0-.08-.04-.12-.13-.12h-1.56c-.09,0-.13.04-.13.12v2.44c0,.08.04.12.13.12h1.56c.09,0,.13-.04.13-.12v-2.44Z" style="fill: #fff;"/>
        <path d="M128.41,48.8c.16-.05.3-.03.45.07l.35.22c.16.1.25.24.28.42s0,.35-.1.49c-.9,1.25-2.09,2.38-3.59,3.39-.02.01-.03.03-.02.06,0,.03.02.05.04.06,1.68.83,3.48,1.45,5.38,1.86.2.03.33.14.4.33.02.07.03.13.03.2,0,.12-.03.23-.1.33-.16.22-.35.39-.6.5-.16.07-.31.1-.46.1-.1,0-.19-.01-.28-.03-2.13-.53-4.08-1.32-5.88-2.36-.08-.04-.15-.04-.22,0-1.92,1.05-4.05,1.87-6.39,2.46-.08.01-.15.02-.22.02-.14,0-.29-.03-.43-.1-.2-.1-.36-.25-.48-.46-.04-.1-.07-.2-.07-.3,0-.07.01-.14.03-.22.08-.19.2-.3.38-.33,2.04-.48,3.94-1.15,5.71-2.03.03-.01.05-.03.05-.06s-.01-.05-.03-.07c-.79-.55-1.55-1.22-2.29-1.99-.06-.05-.12-.05-.18,0-.58.52-1.16.99-1.74,1.41-.17.11-.34.17-.53.17-.03,0-.07,0-.12-.02-.24-.03-.45-.13-.61-.3-.13-.13-.2-.28-.2-.45,0-.24.1-.43.3-.55,1.75-1.08,3.15-2.41,4.22-3.98.13-.19.31-.32.53-.4.11-.04.22-.07.33-.07.1,0,.2.02.32.07.19.07.32.19.38.38.03.07.05.13.05.2,0,.12-.04.24-.12.35-.13.19-.27.37-.4.55-.01.02-.01.04,0,.07.01.02.03.03.05.03h5.78ZM119.86,62.74c-.22,0-.41-.08-.56-.23-.15-.16-.23-.34-.23-.56v-4.4c0-.27.09-.5.28-.69.19-.19.42-.29.7-.29h8.15c.28,0,.51.1.7.29.19.19.28.42.28.69v4.3c0,.23-.08.43-.25.6s-.37.25-.6.25h-.25c-.15,0-.29-.06-.41-.17s-.17-.26-.17-.42c0-.04-.03-.07-.08-.07h-6.67c-.06,0-.08.03-.08.08,0,.18-.06.33-.18.45-.12.12-.27.18-.45.18h-.17ZM127.5,58.13c0-.09-.04-.13-.13-.13h-6.57c-.09,0-.13.04-.13.13v2.37c0,.09.04.13.13.13h6.57c.09,0,.13-.04.13-.13v-2.37ZM121.39,50.17s-.06.01-.07.03c-.02.02-.01.04,0,.07.76.83,1.69,1.58,2.77,2.26.07.04.13.04.2,0,1.16-.73,2.1-1.48,2.81-2.26.02-.02.03-.04.02-.07-.01-.02-.03-.03-.05-.03h-5.68Z" style="fill: #fff;"/>
        <path d="M149.27,50.35c.15.15.23.33.23.55s-.08.4-.23.55c-.16.15-.34.22-.55.22h-3.89c-.08,0-.12.04-.12.13.13,1.77.34,3.35.63,4.75s.64,2.5,1.06,3.31c.42.81.87,1.22,1.35,1.22.34,0,.56-.77.66-2.31.01-.17.1-.28.26-.35.16-.07.31-.05.44.05.22.14.39.32.51.53.1.17.15.34.15.53v.13c-.14,1.17-.38,1.98-.7,2.42-.32.44-.81.66-1.46.66s-1.28-.28-1.82-.85c-.54-.56-.99-1.36-1.35-2.37s-.66-2.17-.89-3.45c-.23-1.28-.4-2.7-.51-4.28,0-.09-.04-.13-.13-.13h-7.72c-.21,0-.39-.07-.55-.22-.16-.15-.23-.33-.23-.55s.08-.4.23-.55c.15-.15.34-.22.55-.22h7.62c.08,0,.12-.04.12-.12-.03-1.07-.05-1.74-.05-1.99,0-.22.08-.42.23-.58.17-.17.37-.25.61-.25s.44.08.6.25.24.37.24.6c0,.62.02,1.28.05,1.98,0,.08.04.12.12.12h3.98c.21,0,.39.08.55.22ZM139.57,55.47c-.09,0-.13.04-.13.12v3.98c0,.09.04.12.13.1.71-.12,1.57-.29,2.59-.51h.13c.13,0,.26.04.38.12.17.13.25.31.25.53,0,.18-.06.34-.17.48-.12.17-.28.27-.48.32-1.58.37-3.76.85-6.52,1.46-.07.01-.13.02-.2.02-.15,0-.3-.04-.45-.13-.2-.12-.33-.29-.4-.51-.02-.07-.03-.14-.03-.22,0-.13.04-.26.12-.38.12-.19.29-.3.51-.35.28-.04,1.09-.19,2.44-.45.08-.01.12-.06.12-.13v-4.32c0-.08-.04-.12-.12-.12h-1.94c-.21,0-.39-.08-.54-.22s-.22-.33-.22-.54.07-.39.22-.54.33-.22.54-.22h5.86c.21,0,.39.07.54.22s.22.33.22.54-.07.39-.22.54-.33.22-.54.22h-2.09ZM146.03,48.46c-.13-.11-.2-.25-.21-.42,0-.17.06-.31.19-.42.16-.13.33-.2.53-.22h.05c.18,0,.34.06.5.17.49.35.92.7,1.3,1.05.13.13.2.29.2.48,0,.21-.08.39-.23.53-.14.13-.3.2-.48.2-.02,0-.04,0-.05-.02-.21-.01-.39-.09-.53-.23-.38-.38-.8-.75-1.26-1.11Z" style="fill: #fff;"/>
        <path d="M164.11,51.54c-.08,0-.12.04-.12.13v1.86c0,.41.04.88.12,1.42.08.54.22,1.16.42,1.87s.51,1.42.95,2.14c.43.72.95,1.34,1.54,1.88.18.16.28.34.32.56v.13c0,.18-.05.34-.15.5-.13.19-.31.3-.53.35h-.15c-.17,0-.32-.06-.45-.17-.58-.52-1.08-1.15-1.51-1.89s-.74-1.41-.93-1.99c-.19-.59-.32-1.14-.4-1.66,0-.01,0-.02-.02-.02s-.02,0-.02.02c-.09.51-.24,1.06-.46,1.65-.22.59-.58,1.26-1.06,2.02-.49.75-1.05,1.39-1.69,1.91-.13.11-.28.17-.43.17-.06,0-.11,0-.15-.02-.22-.04-.39-.16-.51-.35-.1-.13-.15-.28-.15-.45v-.13c.03-.21.14-.38.32-.51.54-.43,1.03-.94,1.45-1.51.43-.58.76-1.13,1-1.67.24-.54.43-1.09.58-1.67s.25-1.07.3-1.47c.05-.4.07-.77.07-1.1v-1.86c0-.09-.04-.13-.13-.13h-.71c-.09,0-.14.04-.17.12-.31.82-.65,1.54-1.01,2.16-.13.23-.34.37-.61.42-.06.01-.12.02-.18.02-.2,0-.38-.06-.55-.17-.07-.03-.13-.07-.18-.12-.02-.01-.04-.01-.07,0-.02.01-.03.03-.03.07v2.14c0,.27-.1.5-.29.69-.19.19-.42.29-.69.29h-3.09c-.08,0-.12.04-.12.13v2.49s.01.06.03.08c.02.02.05.03.08.02.73-.2,1.43-.4,2.09-.6.08-.02.1-.07.07-.15-.1-.21-.21-.43-.32-.65-.08-.17-.08-.33-.02-.5s.18-.28.35-.35c.09-.03.18-.05.27-.05.1,0,.19.02.28.07.19.07.33.19.42.37.39.75.71,1.45.96,2.09.03.09.05.18.05.27,0,.1-.02.21-.07.32-.09.19-.23.32-.42.4-.09.03-.17.05-.25.05-.1,0-.2-.02-.3-.07-.18-.09-.29-.23-.35-.42-.01-.03-.02-.07-.03-.1-.02-.07-.07-.09-.15-.07-1.51.51-2.86.96-4.05,1.34-.09.02-.18.03-.27.03-.11,0-.23-.03-.35-.08-.2-.1-.34-.25-.42-.45-.02-.08-.03-.16-.03-.25,0-.11.03-.22.08-.32.09-.18.24-.29.45-.35.11-.03.23-.07.35-.1.08-.01.12-.06.12-.15v-8.29s0-.04-.02-.04-.03,0-.04,0c-.12.1-.26.15-.42.15h-.08c-.19-.02-.35-.11-.48-.27-.11-.13-.17-.28-.17-.45,0-.2.07-.37.22-.5,1.01-.85,1.84-1.86,2.51-3.02.25-.44.63-.66,1.11-.66s.95.17,1.31.51c.74.7,1.37,1.33,1.88,1.91.12.14.18.31.18.5,0,.24-.08.44-.25.6-.13.12-.29.18-.46.18h-.05c-.2-.01-.37-.09-.5-.25-.64-.81-1.25-1.49-1.83-2.06-.06-.05-.11-.05-.15.02-.66,1.07-1.46,2.06-2.39,2.96-.02.01-.03.03-.02.05.01.02.03.03.05.03h1.63c.09,0,.13-.04.13-.12v-.63c0-.2.07-.37.21-.51.14-.14.3-.21.5-.21s.36.07.5.21c.14.14.21.31.21.51v.63c0,.08.04.12.12.12h.93c.27,0,.5.1.69.29.19.19.29.42.29.69v.76s0,.04.02.04.03,0,.04,0c.93-1.33,1.61-3.16,2.04-5.48.04-.21.15-.38.32-.5.14-.11.3-.17.46-.17.03,0,.07,0,.12.02.22.03.39.14.51.32.09.12.13.26.13.42,0,.06,0,.11-.02.15-.13.64-.29,1.27-.46,1.89-.01.03,0,.06.02.08.02.02.05.03.08.03h4.17c.14-.04.29-.05.45-.02l.32.08c.14.04.26.13.35.25.06.1.08.2.08.3,0,.04,0,.09-.02.13-.28,1.32-.59,2.44-.95,3.35-.07.18-.18.3-.35.37-.09.04-.18.07-.28.07-.08,0-.16-.02-.23-.05-.18-.06-.3-.17-.37-.33-.07-.17-.08-.33-.02-.5.18-.59.35-1.28.51-2.09.01-.08-.02-.12-.1-.12h-1.51ZM157.4,52.8c0-.08-.04-.12-.13-.12h-2.54c-.08,0-.12.04-.12.12v.85c0,.08.04.12.12.12h2.54c.09,0,.13-.04.13-.12v-.85ZM154.61,55.89c0,.08.04.12.12.12h2.54c.09,0,.13-.04.13-.12v-.9c0-.08-.04-.12-.13-.12h-2.54c-.08,0-.12.04-.12.12v.9Z" style="fill: #fff;"/>
        <path d="M171.83,62.49c-.14.14-.32.22-.53.22s-.39-.07-.53-.22-.22-.32-.22-.53v-5.73c0-.27.1-.5.29-.69.19-.19.42-.29.69-.29h4.2c.27,0,.5.1.69.29.19.19.29.42.29.69v5.58c0,.21-.08.39-.23.55-.16.16-.34.23-.55.23h-.12c-.19,0-.35-.07-.48-.2s-.2-.29-.2-.48c0-.06-.03-.08-.08-.08h-2.91c-.07,0-.1.03-.1.1v.03c0,.21-.07.39-.22.53ZM175.14,56.9c0-.08-.04-.12-.12-.12h-2.84c-.09,0-.13.04-.13.12v3.29c0,.09.04.13.13.13h2.84c.08,0,.12-.04.12-.13v-3.29ZM181.48,47.82c.27,0,.5.09.69.28.19.19.29.42.29.7v3.84c0,.27-.1.5-.29.69-.19.19-.42.29-.69.29h-7.55c-.27,0-.5-.1-.69-.29-.19-.19-.29-.42-.29-.69v-3.84c0-.28.1-.51.29-.7.19-.19.42-.28.69-.28h7.55ZM180.72,52.1c.09,0,.13-.04.13-.13v-2.51c0-.09-.04-.13-.13-.13h-6.13c-.08,0-.12.04-.12.13v2.51c0,.09.04.13.12.13h6.13ZM178.38,56.23c0-.27.1-.5.29-.69.19-.19.42-.29.69-.29h4.5c.28,0,.51.1.7.29.19.19.28.42.28.69v5.59c0,.22-.08.41-.23.56-.16.16-.34.23-.55.23h-.08c-.2,0-.37-.07-.51-.21-.14-.14-.21-.31-.21-.51,0-.06-.03-.08-.1-.08h-3.17c-.07,0-.1.03-.1.1v.02c0,.21-.07.39-.22.54s-.33.22-.53.22-.38-.07-.53-.22-.22-.33-.22-.54v-5.71ZM179.89,60.19c0,.09.04.13.13.13h3.1c.09,0,.13-.04.13-.13v-3.29c0-.08-.04-.12-.13-.12h-3.1c-.09,0-.13.04-.13.12v3.29Z" style="fill: #fff;"/>
        <path d="M196.59,61.07c-.3.28-.66.42-1.1.42s-.8-.14-1.1-.42-.45-.63-.45-1.06.15-.79.45-1.07.66-.42,1.1-.42.8.14,1.1.42.45.64.45,1.07-.15.79-.45,1.06ZM196.01,56.95c-.14.13-.32.2-.51.2s-.37-.07-.51-.2c-.14-.13-.22-.3-.23-.5l-.45-5.56-.02-1.26c-.01-.27.08-.5.27-.69.19-.19.42-.29.68-.29h.55c.27,0,.49.1.68.29.19.19.28.42.27.69l-.02,1.26-.46,5.56c-.01.2-.09.37-.23.5Z" style="fill: #fff;"/>
        <path d="M33.26,88.26c-.41.43-.91.64-1.5.64s-1.09-.21-1.51-.64-.62-.96-.62-1.61.21-1.2.62-1.64.92-.66,1.51-.66,1.09.22,1.5.66.62.98.62,1.64-.21,1.18-.62,1.61Z" style="fill: #fff;"/>
        <path d="M49.78,87.48c.18-.06.34-.03.5.07.15.11.24.25.27.44v.1c0,.17-.04.32-.13.46-.11.17-.27.28-.46.33-1.7.51-3.07.9-4.1,1.18-.07.02-.13.03-.2.03-.13,0-.26-.03-.38-.1-.18-.11-.29-.27-.33-.48-.01-.06-.02-.12-.02-.18,0-.13.04-.27.12-.4.11-.18.27-.29.48-.35.48-.11.92-.22,1.34-.33.08-.01.12-.06.12-.15v-3.44c0-.09-.04-.13-.13-.13h-1.01c-.19,0-.35-.07-.49-.2-.14-.13-.21-.3-.21-.49s.07-.36.21-.5c.14-.14.3-.21.49-.21h1.01c.09,0,.13-.04.13-.12v-3.22c0-.08-.04-.12-.13-.12h-1.18c-.19,0-.35-.07-.49-.21-.14-.14-.21-.3-.21-.5s.07-.36.21-.49c.14-.13.3-.2.49-.2h3.95c.19,0,.35.07.49.2.14.13.21.3.21.49s-.07.36-.21.5c-.14.14-.3.21-.49.21h-1.1c-.08,0-.12.04-.12.12v3.22c0,.08.04.12.12.12h.83c.2,0,.37.07.5.21s.2.3.2.5-.07.36-.2.49-.3.2-.5.2h-.83c-.08,0-.12.04-.12.13v3.05s.01.04.03.07c.02.02.05.03.08.02.12-.03.54-.14,1.26-.33ZM58.52,88.38c.15-.12.33-.18.53-.18h.03c.19,0,.36.06.51.17.14.1.22.24.22.41s-.07.3-.22.39c-.51.34-1.02.65-1.54.91-.08.03-.08.08-.02.13.54.41,1.11.74,1.71,1,.17.07.27.19.32.37.01.06.02.11.02.15,0,.12-.04.23-.12.33-.16.19-.34.32-.56.38-.08.03-.16.05-.25.05-.13,0-.27-.03-.4-.1-1.54-.8-2.75-2.03-3.64-3.69-.03-.06-.07-.06-.12-.03-.04.04-.07.09-.07.16v3.14c0,.21-.07.39-.22.53-.14.14-.32.22-.52.22s-.38-.07-.52-.22c-.14-.14-.22-.32-.22-.53v-1.96s-.01-.04-.03-.05c-.02-.01-.04-.01-.07,0-.89.6-1.82,1.11-2.81,1.54-.11.04-.22.07-.33.07-.09,0-.17-.01-.25-.03-.2-.06-.37-.17-.51-.35-.08-.09-.12-.19-.12-.3,0-.04,0-.09.02-.13.03-.16.13-.26.28-.32,1.65-.63,3.1-1.46,4.37-2.47.02-.01.03-.03.02-.05-.01-.02-.03-.03-.05-.03h-1.81c-.28,0-.51-.09-.7-.28-.19-.19-.28-.42-.28-.7v-1.79c0-.28.09-.51.28-.7.19-.19.42-.28.7-.28h6.29c.27,0,.5.09.69.28.19.19.29.42.29.7v1.79c0,.28-.1.51-.29.7-.19.19-.42.28-.69.28h-2.27s-.04.01-.06.03-.02.05,0,.08c.24.44.55.87.91,1.28.06.06.12.06.2.02.4-.24.83-.55,1.3-.91ZM50.76,83.33c-.18,0-.33-.06-.46-.19-.13-.13-.19-.28-.19-.46s.06-.33.19-.46c.13-.13.28-.19.46-.19h9.08c.18,0,.33.06.46.19.13.13.19.28.19.46s-.06.33-.19.46c-.13.13-.28.19-.46.19h-9.08ZM58.78,77.65c.27,0,.5.09.69.28.19.19.29.42.29.7v1.66c0,.27-.1.5-.29.69-.19.19-.42.29-.69.29h-6.91c-.27,0-.5-.1-.69-.29-.19-.19-.29-.42-.29-.69v-1.66c0-.28.1-.51.29-.7.19-.19.42-.28.69-.28h6.91ZM53.4,80.14c.08,0,.12-.04.12-.12v-1.15c0-.09-.04-.13-.12-.13h-1.08c-.09,0-.13.04-.13.13v1.15c0,.08.04.12.13.12h1.08ZM52.69,85.27c-.08,0-.12.04-.12.13v1.18c0,.08.04.12.12.12h5.15c.08,0,.12-.04.12-.12v-1.18c0-.09-.04-.13-.12-.13h-5.15ZM55.83,80.14c.09,0,.13-.04.13-.12v-1.15c0-.09-.04-.13-.13-.13h-1.13c-.08,0-.12.04-.12.13v1.15c0,.08.04.12.12.12h1.13ZM58.3,80.14c.08,0,.12-.04.12-.12v-1.15c0-.09-.04-.13-.12-.13h-1.15c-.09,0-.13.04-.13.13v1.15c0,.08.04.12.13.12h1.15Z" style="fill: #fff;"/>
        <path d="M66.34,77.87c.09-.2.23-.34.43-.43.11-.05.23-.08.35-.08.08,0,.16.01.25.03.2.07.34.19.43.38.04.1.07.2.07.3,0,.09-.02.18-.07.28-.38.88-.81,1.75-1.3,2.62-.04.08-.07.16-.07.23v10.73c0,.2-.07.37-.22.52-.14.15-.32.22-.53.22s-.39-.07-.53-.22-.22-.32-.22-.52v-8.43s0-.04-.02-.04-.03,0-.04.03c-.29.39-.59.76-.9,1.11-.12.13-.27.2-.43.2h-.1c-.22-.03-.38-.15-.48-.35-.11-.19-.17-.39-.17-.6,0-.04,0-.09.02-.15.02-.27.12-.49.3-.68,1.31-1.44,2.38-3.16,3.22-5.15ZM78.04,85.49c.14.14.21.31.21.51s-.07.36-.21.5c-.14.14-.31.21-.51.21h-2.91s-.04.01-.06.04c-.02.03-.01.05,0,.08.43.67.95,1.32,1.54,1.93.6.61,1.22,1.14,1.88,1.59.17.12.26.29.28.5.01.03.02.07.02.1,0,.17-.06.32-.18.45-.16.18-.35.28-.58.32-.04.01-.09.02-.13.02-.17,0-.33-.06-.48-.17-1.2-.95-2.26-2.16-3.2-3.64,0-.01-.01-.01-.03,0-.02,0-.03.01-.03.03v4c0,.22-.08.41-.23.56s-.34.23-.56.23-.4-.08-.56-.23c-.16-.16-.23-.34-.23-.56v-3.9s0-.04-.02-.04c-.02,0-.03,0-.04,0-1,1.47-2.12,2.66-3.39,3.55-.14.1-.3.15-.46.15-.06,0-.11,0-.17-.02-.22-.03-.41-.14-.56-.33-.11-.13-.17-.28-.17-.43v-.1c.03-.21.13-.37.3-.48.67-.42,1.33-.94,1.96-1.56s1.18-1.27,1.66-1.96c.01-.02.01-.05,0-.08-.01-.03-.03-.04-.07-.04h-3c-.2,0-.37-.07-.51-.21-.14-.14-.21-.3-.21-.5s.07-.36.21-.51c.14-.14.31-.22.51-.22h3.85c.08,0,.12-.04.12-.12v-1.61c0-.08-.04-.12-.12-.12h-2.41c-.27,0-.5-.1-.69-.29-.19-.19-.29-.42-.29-.69v-3.59c0-.27.1-.5.29-.69.19-.19.42-.29.69-.29h6.84c.27,0,.5.1.69.29.19.19.29.42.29.69v3.59c0,.27-.1.5-.29.69-.19.19-.42.29-.69.29h-2.61c-.09,0-.13.04-.13.12v1.61c0,.08.04.12.13.12h3.75c.2,0,.37.07.51.22ZM70.18,79.28c-.09,0-.13.04-.13.12v2.49c0,.09.04.13.13.13h5.48c.08,0,.12-.04.12-.13v-2.49c0-.08-.04-.12-.12-.12h-5.48Z" style="fill: #fff;"/>
        <path d="M83.04,82.92c.09,0,.13-.04.13-.12v-1.51s-.01-.04-.03-.04c-.02,0-.04,0-.05,0-.19.2-.38.39-.58.58-.18.16-.38.23-.61.23s-.46-.07-.65-.22c-.17-.13-.25-.3-.25-.51,0-.2.08-.37.23-.5,1.01-.84,1.85-1.85,2.52-3.02.12-.21.29-.36.5-.45.13-.05.27-.08.4-.08.09,0,.18.01.27.03.2.06.34.18.42.38.04.08.07.16.07.25,0,.1-.03.2-.08.3-.12.21-.25.42-.38.61-.01.02-.01.05,0,.08.01.03.03.04.07.04h9.63c.19,0,.35.07.49.2.14.13.21.3.21.49s-.07.36-.21.49c-.14.13-.3.2-.49.2h-.85c-.09,0-.13.04-.13.13v2.31c0,.08.04.12.13.12h1.46c.19,0,.35.07.5.21.14.14.22.31.22.51s-.07.37-.22.51c-.14.14-.31.21-.5.21h-1.46c-.09,0-.13.04-.13.13v2.29c0,.09.04.13.13.13h1.21c.2,0,.37.07.51.21.14.14.21.31.21.51s-.07.37-.21.51c-.14.14-.31.21-.51.21h-13.17c-.2,0-.37-.07-.51-.21-.14-.14-.21-.31-.21-.51s.07-.37.21-.51c.14-.14.31-.21.51-.21h1.21c.09,0,.13-.04.13-.13v-2.29c0-.09-.04-.13-.13-.13h-1.48c-.19,0-.35-.07-.5-.21-.14-.14-.22-.31-.22-.51s.07-.37.22-.51c.14-.14.31-.21.5-.21h1.48ZM82.75,92.13c-.14.19-.34.3-.6.35-.08.02-.15.03-.23.03-.17,0-.32-.03-.46-.1-.17-.08-.27-.21-.32-.4v-.12c0-.14.04-.27.13-.38.45-.53.84-1.16,1.16-1.89.09-.21.23-.37.43-.46.13-.08.27-.12.4-.12.08,0,.15.01.22.03.21.04.37.16.46.35.06.1.08.21.08.32,0,.09-.02.17-.07.25-.33.82-.74,1.53-1.21,2.14ZM84.72,80.36c-.08,0-.12.04-.12.13v2.31c0,.08.04.12.12.12h1.33c.09,0,.13-.04.13-.12v-2.31c0-.09-.04-.13-.13-.13h-1.33ZM84.72,84.34c-.08,0-.12.04-.12.13v2.29c0,.09.04.13.12.13h1.33c.09,0,.13-.04.13-.13v-2.29c0-.09-.04-.13-.13-.13h-1.33ZM85.82,90.1s-.02-.08-.02-.12c0-.16.05-.29.15-.42.12-.17.28-.25.46-.27.03-.01.07-.02.1-.02.17,0,.32.06.46.17.18.12.28.28.32.48.1.56.18,1.1.23,1.59v.1c0,.18-.06.34-.18.5-.14.17-.33.27-.55.3h-.1c-.17,0-.32-.05-.45-.15-.16-.14-.24-.32-.25-.51-.04-.55-.11-1.11-.18-1.66ZM87.51,82.8c0,.08.04.12.12.12h1.41c.08,0,.12-.04.12-.12v-2.31c0-.09-.04-.13-.12-.13h-1.41c-.08,0-.12.04-.12.13v2.31ZM89.15,84.48c0-.09-.04-.13-.12-.13h-1.41c-.08,0-.12.04-.12.13v2.29c0,.09.04.13.12.13h1.41c.08,0,.12-.04.12-.13v-2.29ZM89.35,90.09c-.02-.07-.03-.14-.03-.22,0-.1.03-.2.08-.3.09-.17.23-.27.43-.3.04-.01.09-.02.15-.02.17,0,.32.04.46.12.19.11.33.27.42.46.22.56.4,1.11.55,1.64.02.07.03.13.03.2,0,.13-.04.26-.12.38-.12.19-.29.3-.51.33-.04.01-.09.02-.15.02-.16,0-.3-.04-.43-.13-.19-.12-.31-.29-.37-.5-.13-.55-.3-1.12-.51-1.69ZM92.06,82.92c.08,0,.12-.04.12-.12v-2.31c0-.09-.04-.13-.12-.13h-1.44c-.08,0-.12.04-.12.13v2.31c0,.08.04.12.12.12h1.44ZM92.06,86.9c.08,0,.12-.04.12-.13v-2.29c0-.09-.04-.13-.12-.13h-1.44c-.08,0-.12.04-.12.13v2.29c0,.09.04.13.12.13h1.44ZM92.94,89.92c-.08-.1-.12-.21-.12-.32,0-.07.01-.13.03-.18.06-.19.18-.31.37-.37.11-.04.22-.07.33-.07s.23.02.35.07c.22.07.4.19.55.38.54.72.99,1.38,1.34,1.98.08.12.12.24.12.35,0,.09-.02.18-.07.27-.08.2-.22.34-.43.42-.11.03-.22.05-.32.05-.12,0-.24-.02-.37-.07-.22-.09-.39-.24-.5-.45-.37-.66-.8-1.35-1.3-2.06Z" style="fill: #fff;"/>
        <path d="M113.85,87.19c.12.12.17.26.17.42s-.06.31-.17.43-.26.18-.42.18h-1.94c-.09,0-.14.04-.15.12,0,.09,0,.21-.02.35s-.03.27-.04.39c-.01.12-.02.22-.03.31-.01.08.03.12.12.12h1.36c.17,0,.31.06.42.17s.17.26.17.42-.06.31-.17.42-.26.17-.42.17h-1.56c-.08,0-.13.04-.15.12-.13.63-.3,1.06-.51,1.28-.17.19-.35.32-.56.4-.2.08-.46.13-.77.17-.21.02-.49.03-.85.03-.3,0-.64-.01-1.03-.03-.17,0-.31-.06-.44-.17-.13-.11-.22-.25-.27-.43-.03-.12-.01-.24.06-.34.07-.11.17-.15.29-.14.48.02,1,.03,1.58.03h.08c.27,0,.45-.07.56-.2.12-.11.22-.31.3-.6,0-.02,0-.05-.02-.08-.02-.03-.04-.04-.07-.04h-7.55c-.07,0-.11.03-.13.1,0,.02,0,.06-.02.1-.06.21-.18.38-.37.51-.15.11-.33.17-.53.17h-.07c-.2-.01-.35-.09-.46-.25-.08-.12-.12-.24-.12-.37,0-.06,0-.11.02-.17.19-.72.39-1.54.6-2.46.01-.08-.02-.12-.1-.12h-1.56c-.17,0-.31-.06-.42-.18s-.17-.27-.17-.43.06-.31.17-.42.26-.17.42-.17h1.83c.09,0,.14-.04.15-.12.08-.4.16-.84.25-1.31.06-.28.19-.51.42-.69.22-.18.47-.27.75-.27h8.18c.27,0,.49.1.66.3.17.18.25.39.25.63,0,.09-.02.53-.07,1.33-.01.09.03.13.12.13h1.84c.17,0,.31.06.42.17ZM113,82.68c.17,0,.3.05.42.17.11.11.17.25.17.42s-.06.3-.17.42c-.11.11-.25.17-.42.17h-13.48c-.17,0-.3-.06-.42-.17-.11-.11-.17-.25-.17-.42s.06-.3.17-.42c.11-.11.25-.17.42-.17h5.78c.09,0,.13-.04.13-.13v-.78c0-.09-.04-.13-.13-.13h-4.03c-.15,0-.29-.05-.4-.17-.11-.11-.17-.24-.17-.4s.06-.29.17-.4c.11-.11.24-.17.4-.17h4.03c.09,0,.13-.04.13-.13v-.68c0-.09-.04-.13-.13-.13h-5.05c-.17,0-.3-.05-.42-.17-.11-.11-.17-.25-.17-.42s.06-.3.17-.42c.11-.11.25-.17.42-.17h5.05c.09,0,.13-.04.13-.13v-.4c0-.21.07-.39.22-.54s.33-.22.55-.22.4.08.55.22.22.33.22.54v.4c0,.09.04.13.13.13h5.36c.17,0,.31.06.42.17.12.11.17.25.17.42s-.06.3-.17.42c-.12.11-.26.17-.42.17h-5.36c-.09,0-.13.04-.13.13v.68c0,.09.04.13.13.13h4.3c.16,0,.29.06.4.17.11.11.17.24.17.4s-.06.29-.17.4c-.11.11-.24.17-.4.17h-4.3c-.09,0-.13.04-.13.13v.78c0,.09.04.13.13.13h5.89ZM105.18,88.34c.02-.08-.01-.12-.1-.12h-2.71c-.09,0-.14.04-.15.12-.12.5-.2.85-.25,1.05-.01.08.02.12.1.12h2.81c.08,0,.13-.04.15-.12.04-.28.09-.62.15-1.05ZM102.87,85.8c-.09,0-.14.04-.15.13l-.2.95c-.01.09.02.13.1.13h2.64c.09,0,.14-.04.15-.13.04-.4.08-.71.12-.95.01-.09-.02-.13-.1-.13h-2.56ZM106.47,89.39c-.02.08.01.12.1.12h2.99c.09,0,.14-.04.15-.12.04-.32.08-.67.12-1.05.01-.08-.02-.12-.1-.12h-2.94c-.08,0-.13.04-.15.12-.02.11-.04.23-.06.35s-.04.25-.06.38c-.02.13-.04.24-.05.32ZM106.86,86.88c-.01.09.02.13.1.13h2.86c.08,0,.12-.04.13-.13.01-.22.03-.54.05-.95,0-.09-.04-.13-.12-.13h-2.74c-.09,0-.14.04-.15.13-.01.09-.03.24-.07.46s-.06.38-.07.49Z" style="fill: #fff;"/>
        <path d="M130.39,86.32c0,.28-.1.51-.29.7-.19.19-.42.28-.69.28h-4.45c-.09,0-.14.04-.17.13-.21.94-.64,1.76-1.29,2.46-.06.06-.04.1.03.13.93.34,2.01.59,3.24.74s2.71.24,4.43.27c.18,0,.32.08.42.25.04.09.07.18.07.27,0,.08-.02.16-.05.23-.1.24-.25.44-.45.58-.18.14-.38.22-.6.22h-.05c-1.87-.09-3.47-.24-4.8-.46s-2.5-.57-3.52-1.05c-.08-.03-.15-.03-.22,0-.96.59-2.23,1.07-3.8,1.46-.08.02-.16.03-.25.03-.15,0-.3-.03-.45-.08-.23-.11-.42-.27-.56-.48-.11-.16-.13-.32-.07-.5s.19-.29.38-.33c1.28-.27,2.37-.61,3.25-1.03.03-.01.05-.03.05-.06s-.01-.05-.03-.06c-.53-.42-1.01-.92-1.44-1.51-.08-.1-.12-.21-.12-.33,0-.06,0-.11.02-.17.07-.19.19-.32.37-.38.11-.04.23-.07.35-.07.09,0,.18.01.27.03.2.07.37.18.52.35.4.45.85.86,1.36,1.21.07.04.13.04.2-.02.5-.48.85-1.05,1.06-1.73.01-.02,0-.05,0-.08-.02-.03-.04-.04-.07-.04h-3.79c-.28,0-.51-.09-.7-.28s-.28-.42-.28-.7v-4.73c0-.28.09-.51.28-.7.19-.19.42-.28.7-.28h4.05c.08,0,.12-.04.12-.13v-.96c0-.09-.04-.13-.12-.13h-5.81c-.2,0-.37-.07-.51-.21-.14-.14-.21-.31-.21-.51s.07-.37.21-.51c.14-.14.31-.21.51-.21h13.27c.2,0,.37.07.51.21.14.14.21.31.21.51s-.07.37-.21.51c-.14.14-.31.21-.51.21h-5.56c-.09,0-.13.04-.13.13v.96c0,.09.04.13.13.13h4.23c.27,0,.5.09.69.28.19.19.29.42.29.7v4.73ZM119.86,81.9c-.08,0-.12.04-.12.12v1.2c0,.09.04.13.12.13h3.42c.08,0,.12-.04.12-.13v-1.2c0-.08-.04-.12-.12-.12h-3.42ZM119.74,85.89c0,.08.04.12.12.12h3.37c.09,0,.14-.04.15-.12.01-.16.02-.39.02-.71v-.48c0-.09-.04-.13-.12-.13h-3.42c-.08,0-.12.04-.12.13v1.2ZM128.69,86c.09,0,.13-.04.13-.12v-1.2c0-.09-.04-.13-.13-.13h-3.52c-.09,0-.13.04-.13.13v.5c0,.31,0,.54-.02.7-.01.08.03.12.12.12h3.55ZM128.82,82.02c0-.08-.04-.12-.13-.12h-3.52c-.09,0-.13.04-.13.12v1.2c0,.09.04.13.13.13h3.52c.09,0,.13-.04.13-.13v-1.2Z" style="fill: #fff;"/>
        <path d="M149.22,83.69c.15.15.22.33.22.53s-.07.38-.22.53-.33.22-.54.22h-2.08c-.09,0-.14.04-.17.12-.5,1.64-1.23,2.98-2.21,4.02-.06.06-.04.1.03.13,1.44.6,2.66,1.17,3.65,1.73.2.11.32.28.35.5v.12c0,.18-.07.34-.2.48-.18.19-.39.29-.65.32-.06.01-.11.02-.15.02-.21,0-.4-.06-.58-.17-.98-.59-2.24-1.21-3.75-1.86-.08-.03-.15-.03-.22.02-1.46.99-3.5,1.72-6.11,2.19-.07.01-.13.02-.2.02-.17,0-.33-.04-.5-.12-.23-.12-.42-.29-.55-.5-.11-.17-.13-.33-.05-.51.08-.17.2-.27.38-.31,2.22-.3,3.98-.8,5.28-1.49.02-.01.03-.03.03-.05s-.01-.04-.03-.05c-.77-.3-1.65-.61-2.64-.95-.06-.02-.1,0-.13.05-.1.17-.24.29-.42.37-.11.04-.22.07-.33.07-.08,0-.15-.01-.23-.03l-.17-.03c-.21-.06-.35-.18-.43-.38-.03-.09-.05-.17-.05-.25,0-.11.03-.22.08-.33.48-.82,1.02-1.82,1.64-2.99.02-.03.02-.06,0-.08s-.04-.03-.07-.03h-3.01c-.21,0-.39-.08-.54-.22s-.22-.33-.22-.53.07-.38.22-.53.33-.22.54-.22h3.8c.08,0,.13-.04.17-.12.33-.65.62-1.23.86-1.74.11-.22.28-.39.5-.5.14-.08.3-.12.46-.12.08,0,.15.01.23.03.21.04.36.17.45.37.04.09.07.18.07.28s-.02.2-.07.3c-.22.44-.45.9-.68,1.38-.01.02,0,.05,0,.07s.04.04.06.04h7.59c.21,0,.39.07.54.22ZM136.63,80.23c-.09,0-.13.04-.13.13v1.36c0,.22-.08.41-.23.57s-.34.24-.56.24-.41-.08-.57-.24-.24-.35-.24-.57v-1.98c0-.27.1-.5.29-.69s.42-.29.69-.29h5.06c.09,0,.13-.04.13-.12v-.71c0-.23.08-.43.24-.6.16-.17.36-.25.59-.25s.43.08.6.25.25.37.25.6v.71c0,.08.04.12.13.12h5.21c.27,0,.5.1.69.29.19.19.29.42.29.69v1.94c0,.23-.08.43-.25.6-.17.17-.37.25-.6.25s-.43-.08-.59-.25c-.16-.17-.24-.37-.24-.6v-1.33c0-.09-.04-.13-.13-.13h-10.63ZM144.65,85.09s0-.06-.02-.08-.05-.03-.08-.03h-4.23c-.08,0-.14.04-.18.12-.35.69-.74,1.41-1.15,2.16-.03.07-.01.11.07.13,1.2.35,2.33.74,3.4,1.15.08.03.14.02.2-.03.92-.89,1.58-2.02,1.99-3.4Z" style="fill: #fff;"/>
        <path d="M153.47,83.53c.02-.21.12-.38.3-.5.12-.09.25-.13.4-.13h.15c.22.05.4.17.53.35.11.14.17.3.17.48,0,.04,0,.08-.02.12-.29,2.18-.74,3.87-1.36,5.06-.1.2-.27.33-.5.38-.08.02-.15.03-.22.03-.16,0-.3-.04-.45-.12-.2-.12-.32-.29-.37-.51-.02-.07-.03-.14-.03-.22,0-.14.04-.28.12-.42.61-1.12,1.03-2.63,1.28-4.53ZM156.46,82.3c0-.23.08-.43.24-.59.16-.16.35-.24.58-.24s.42.08.58.24c.16.16.24.36.24.59v7.42c0,.4.06.66.19.77.13.12.41.17.84.17h2.76c.45,0,.75-.21.9-.63.12-.32.22-.96.28-1.93.01-.18.1-.3.26-.38s.32-.08.49,0c.22.1.4.24.53.43.11.17.17.34.17.53v.1c-.11,1.2-.31,2.02-.6,2.47-.33.56-.97.85-1.91.85h-3.04c-.97,0-1.64-.17-1.98-.5s-.52-.96-.52-1.89v-7.42ZM157.29,78.3c-.18-.08-.29-.21-.33-.4-.01-.05-.02-.1-.02-.15,0-.13.04-.25.13-.37.15-.18.35-.3.58-.37.1-.02.19-.03.28-.03.13,0,.27.02.4.07.73.29,1.49.63,2.29,1.03.74.38,1.39.74,1.96,1.1.2.12.32.3.37.53.01.06.02.11.02.15,0,.18-.06.34-.17.48-.14.19-.33.3-.56.33-.06.01-.11.02-.15.02-.18,0-.35-.05-.51-.15-.52-.35-1.15-.72-1.88-1.1-.82-.44-1.62-.82-2.41-1.15ZM163.78,83.53c-.09-.12-.13-.25-.13-.38,0-.06.01-.12.03-.18.04-.2.16-.35.35-.45.13-.07.28-.1.43-.1.07,0,.14,0,.22.02.23.05.42.18.55.37.53.76,1.02,1.59,1.48,2.47.4.8.71,1.53.93,2.21.03.1.05.21.05.32,0,.13-.03.27-.1.4-.11.23-.28.4-.51.51-.1.04-.2.07-.3.07s-.2-.02-.3-.07c-.2-.09-.34-.24-.42-.46-.2-.67-.49-1.42-.88-2.22-.42-.91-.89-1.74-1.4-2.49Z" style="fill: #fff;"/>
      </g>
      <g>
        <path d="M51,5.76c.41,0,.76.15,1.05.44.3.3.44.65.44,1.05v13.41c0,.86-.11,1.53-.32,1.99-.21.47-.6.83-1.16,1.08-.68.3-1.84.47-3.48.51h-.03c-.42,0-.8-.14-1.12-.41-.34-.27-.58-.62-.71-1.04-.02-.1-.04-.19-.08-.28-.05-.14-.08-.26-.08-.38,0-.19.06-.37.18-.56.19-.27.45-.41.79-.41h2.18c.24,0,.4-.04.5-.13.09-.08.14-.23.14-.43v-4.47s-.02-.05-.05-.06c-.03,0-.06,0-.08.01-.25.27-.5.57-.74.89-.27.34-.61.54-1.02.61-.1.02-.19.03-.28.03-.3,0-.58-.09-.84-.28-1.9-1.44-3.32-3.44-4.27-5.99-.02-.03-.04-.05-.08-.05s-.05.02-.05.05c-1,2.73-2.53,4.81-4.6,6.25-.25.17-.52.25-.81.25-.1,0-.21-.02-.33-.05-.41-.08-.75-.3-1.02-.63-.14-.19-.27-.36-.41-.51-.02-.02-.04-.02-.08-.01-.03,0-.05.03-.05.06v6.07c0,.42-.14.78-.43,1.07-.29.29-.64.43-1.07.43h-.15c-.41,0-.76-.14-1.05-.43-.3-.29-.44-.64-.44-1.07V7.26c0-.41.15-.76.44-1.05.3-.3.65-.44,1.05-.44h7.52c.14,0,.19-.07.18-.2-.05-.37-.1-.91-.15-1.6,0-.14-.07-.2-.2-.2h-2.84c-.37,0-.69-.13-.95-.39-.26-.26-.39-.58-.39-.95s.13-.69.39-.95c.26-.26.58-.39.95-.39h4.21c.42,0,.78.14,1.08.43.3.29.46.64.5,1.07.07,1,.18,2.01.33,3.02.03.12.11.18.23.18h7.16ZM34.85,8.79c-.14,0-.2.06-.2.18v6.42s.02.06.06.09c.04.03.08.02.11-.01,2.34-1.34,3.94-3.5,4.82-6.5.02-.05,0-.09-.03-.13-.03-.03-.08-.05-.13-.05h-4.65ZM49.33,8.96c0-.12-.07-.18-.2-.18h-4.54c-.05,0-.09.02-.11.05-.03.03-.03.08-.01.13.95,2.88,2.51,4.95,4.7,6.22.03.02.07.02.11,0,.04-.02.06-.05.06-.1v-6.12Z" style="fill: #fff;"/>
        <path d="M81.04,5.04c.21.21.32.47.32.77s-.11.56-.32.77c-.21.21-.47.32-.77.32h-2.36c-.12,0-.18.07-.18.2v.38c0,.24.02.39.06.44.04.06.15.09.32.09h.84c.15,0,.25-.04.3-.13.22-.32.45-.48.69-.48.07,0,.13,0,.18.03.08.03.16.06.23.08.29.08.51.25.67.48.16.24.18.47.06.71-.25.59-.85.89-1.78.89h-1.62c-.98,0-1.63-.14-1.94-.43-.31-.29-.47-.85-.47-1.7v-.36c0-.13-.07-.2-.2-.2h-.81c-.12,0-.19.06-.23.18-.3,1.41-1,2.44-2.08,3.1-.03.02-.05.04-.04.06,0,.03.03.04.06.04h6.55c.22,0,.41.08.56.23s.23.34.23.56-.08.41-.23.57c-.15.16-.34.24-.56.24h-6.12c-.32,0-.59-.11-.81-.34-.22-.23-.33-.5-.33-.83v-.05c0-.07-.03-.08-.08-.05-.19.07-.37.07-.56,0-.19-.07-.34-.19-.46-.36-.1-.15-.23-.31-.38-.48-.02-.03-.04-.04-.08-.03-.03.02-.05.03-.05.05v2.64c-.02.12.04.18.18.18h10.51c.22,0,.41.08.57.24.16.16.24.36.24.58s-.08.42-.24.58c-.16.16-.35.24-.57.24h-10.59c-.14,0-.2.06-.2.18-.24,3.5-.87,6.35-1.9,8.53-.17.34-.45.55-.84.63-.12.03-.23.05-.33.05-.27,0-.53-.08-.79-.23-.2-.14-.41-.25-.61-.36-.12-.05-.21-.03-.28.08-.14.22-.32.41-.56.56-.41.27-.97.44-1.7.51h-.15c-.34,0-.65-.12-.94-.36-.32-.25-.53-.59-.64-1.02-.03-.1-.05-.2-.05-.3,0-.22.08-.43.23-.63.2-.29.47-.43.81-.43l.36.03c.25,0,.38-.14.38-.43v-5.21c0-.14-.07-.2-.2-.2h-1.42c-.14,0-.2.07-.2.2-.19,2.84-.56,5.22-1.12,7.13-.08.3-.29.51-.61.61-.12.05-.25.08-.38.08-.19,0-.36-.05-.53-.15-.34-.19-.58-.45-.71-.79-.1-.2-.15-.42-.15-.63,0-.14.02-.27.05-.41.69-2.54,1.04-6.34,1.04-11.4V2.41c0-.42.14-.78.43-1.07.29-.29.64-.43,1.07-.43h3.89c.42,0,.78.14,1.07.43.29.29.43.64.43,1.07v3.91s.02.06.05.08c.03.02.07.02.1,0,1.49-1.42,2.71-3.11,3.66-5.08.19-.39.47-.69.84-.89.27-.15.56-.23.86-.23.1,0,.2,0,.3.03l.38.05c.27.05.47.19.6.43s.14.48.04.74c-.03.08,0,.13.08.13h3.71c.24-.08.47-.06.69.08l.63.43c.27.17.45.42.53.74.02.08.03.18.03.28,0,.2-.06.4-.18.58-.12.2-.3.5-.56.89-.02.03-.02.07,0,.1.02.03.05.05.1.05h3.23c.3,0,.56.11.77.32ZM60.84,12.64c0,.14.07.2.2.2h1.29c.14,0,.2-.07.2-.2v-2.84c0-.12-.07-.18-.2-.18h-1.27c-.14,0-.2.06-.2.18v.51c0,1.02,0,1.79-.03,2.34ZM62.54,3.88c0-.14-.07-.2-.2-.2h-1.27c-.14,0-.2.07-.2.2v2.72c0,.14.07.2.2.2h1.27c.14,0,.2-.07.2-.2v-2.72ZM65.33,8.1s-.07-.02-.1-.01c-.03,0-.05.04-.05.09v13.51s0,.05.03.05.03,0,.05-.03c.69-1.46,1.16-3.06,1.38-4.82s.34-3.67.34-5.74v-2.41s0-.03-.03-.04c-.02,0-.03,0-.05.01-.17.15-.36.22-.58.19-.22-.03-.4-.13-.55-.3-.14-.18-.29-.34-.44-.5ZM69.85,6.91c-.14,0-.2.07-.2.2v1.8s.02.06.06.09c.04.03.08.03.11.01.97-.41,1.58-1.05,1.85-1.93.02-.03.01-.07-.01-.11-.03-.04-.06-.06-.11-.06h-1.7ZM71.42,24.3c-.37,0-.69-.13-.94-.38s-.38-.57-.38-.94v-1.83c0-.42.14-.78.43-1.07.29-.29.64-.43,1.07-.43h7.31c.42,0,.78.14,1.07.43.29.29.43.64.43,1.07v1.75c0,.37-.13.69-.39.96-.26.27-.59.41-.98.41h-.99c-.1,0-.19-.04-.27-.11s-.11-.17-.11-.27c0-.03-.02-.05-.05-.05h-4.85s-.05.02-.05.05c0,.12-.04.22-.11.29s-.17.11-.29.11h-.89ZM74.34,3.78c.02-.05.02-.09,0-.13-.02-.03-.05-.05-.1-.05h-3.17c-.14,0-.23.05-.28.15-.05.07-.11.16-.17.27-.06.11-.12.21-.18.29-.06.08-.11.17-.17.25-.02.03-.02.07,0,.1.02.03.04.05.08.05h3.28c.12,0,.21-.05.28-.15.12-.2.26-.46.43-.79ZM79.09,15.01c.22,0,.41.08.57.23.16.15.24.34.24.56s-.08.41-.24.57c-.16.16-.35.24-.57.24h-7.69c-.22,0-.41-.08-.57-.24-.16-.16-.24-.35-.24-.57s.08-.41.24-.56c.16-.15.35-.23.57-.23h7.69ZM71.4,18.92c-.22,0-.41-.08-.57-.23-.16-.15-.24-.34-.24-.57s.08-.42.24-.57c.16-.15.35-.23.57-.23h7.69c.22,0,.41.08.57.23.16.15.24.34.24.57s-.08.42-.24.57c-.16.15-.35.23-.57.23h-7.69ZM77.67,21.43c0-.14-.07-.2-.2-.2h-4.54c-.14,0-.2.07-.2.2v.63c0,.12.07.18.2.18h4.54c.14,0,.2-.06.2-.18v-.63Z" style="fill: #fff;"/>
        <path d="M106.72,3.02c.41,0,.76.15,1.05.44.3.3.44.65.44,1.05,0,5.76-.09,10.35-.28,13.79-.12,2.37-.37,3.86-.76,4.47-.25.42-.53.73-.84.93s-.69.34-1.14.44c-.44.08-1.03.13-1.78.13h-.18c-.39-.02-.73-.15-1.03-.41-.3-.25-.5-.58-.62-.99-.03-.1-.05-.2-.05-.3,0-.17.06-.34.18-.51.17-.24.4-.36.69-.36h.03c.51.02.95.03,1.32.03s.66-.17.86-.51c.29-.39.48-1.65.58-3.8s.18-6.01.23-11.62c0-.12-.06-.18-.18-.18h-8.91c-.12,0-.21.05-.28.15-.42.78-.85,1.47-1.29,2.08-.24.34-.57.54-.99.61h-.25c-.32,0-.63-.09-.91-.28-.22-.13-.42-.25-.61-.36-.1-.07-.18-.04-.23.08-.05.15-.12.35-.22.6-.09.25-.15.41-.17.5-.05.12-.03.23.05.33,1.18,1.54,1.78,3.24,1.78,5.1,0,1.66-.38,2.77-1.14,3.33-.37.24-.86.42-1.47.53-.1,0-.21,0-.33.03h-.1c-.34,0-.63-.12-.89-.36-.29-.25-.47-.58-.56-.96-.03-.08-.05-.17-.05-.25,0-.2.07-.4.2-.58.17-.25.41-.41.74-.46.19-.02.35-.08.48-.2.27-.2.41-.69.41-1.45,0-1.15-.3-2.26-.91-3.33-.37-.63-.56-1.24-.56-1.85,0-.27.03-.53.1-.79.29-1.02.63-2.37,1.02-4.06.03-.12,0-.18-.13-.18h-1.65c-.14,0-.2.07-.2.2v18.87c0,.37-.13.69-.39.95-.26.26-.58.39-.94.39s-.68-.13-.94-.39c-.26-.26-.39-.58-.39-.95V2.62c0-.42.14-.78.43-1.07.29-.29.64-.43,1.07-.43h4.09s.07,0,.1-.03c.25-.07.5-.03.74.1l.66.38c.29.17.49.41.61.71.08.19.13.36.13.53,0,.15-.03.3-.08.43-.54,1.78-.92,3-1.14,3.66,0,.02,0,.03.03.04.02,0,.03,0,.05-.01,1.3-1.56,2.34-3.43,3.1-5.61.14-.36.36-.63.69-.81.22-.14.45-.2.69-.2.12,0,.23.02.33.05.36.08.63.29.81.61.08.17.13.36.13.56,0,.14-.03.27-.08.41-.12.32-.24.63-.36.94-.02.03-.01.07.01.1s.05.05.09.05h9.14ZM101.77,19.65c0-.05-.03-.08-.1-.08h-5.08c-.12,0-.18.06-.18.18v.28c0,.3-.11.56-.33.77s-.48.32-.79.32-.56-.11-.77-.32c-.21-.21-.32-.47-.32-.77v-4.04c0-.3.11-.57.32-.79.21-.22.47-.33.77-.33s.57.11.79.33.33.48.33.79v1.19c0,.14.06.2.18.2h1.14c.12,0,.18-.07.18-.2v-2.92c0-.12-.06-.18-.18-.18h-2.72c-.3,0-.56-.11-.77-.33-.21-.22-.32-.48-.32-.79s.11-.56.32-.78c.21-.21.47-.32.77-.32h2.72c.12,0,.18-.07.18-.2v-1.52c0-.12-.06-.18-.18-.18h-.23c-.12,0-.21.05-.28.15-.2.27-.4.53-.58.79-.19.24-.44.37-.76.41h-.1c-.27,0-.52-.08-.74-.25-.24-.17-.37-.4-.41-.69-.02-.05-.03-.1-.03-.15,0-.22.08-.42.23-.61.58-.73,1.08-1.56,1.52-2.49.14-.3.36-.54.66-.71.22-.12.45-.18.69-.18.07,0,.14,0,.23.03.3.05.52.2.66.46.08.15.13.3.13.43,0,.12-.03.25-.08.38-.03.03-.06.07-.06.1,0,.03,0,.07.01.1.02.03.04.05.08.05h4.09c.3,0,.56.11.77.32.21.21.32.47.32.77s-.11.56-.32.77c-.21.21-.47.32-.77.32h-2.23c-.12,0-.18.06-.18.18v1.52c0,.14.06.2.18.2h2.67c.3,0,.56.11.77.32.21.21.32.47.32.78s-.11.57-.32.79c-.21.22-.47.33-.77.33h-2.67c-.12,0-.18.06-.18.18v2.92c0,.14.06.2.18.2h1.04c.14,0,.2-.07.2-.2v-1.12c0-.3.11-.57.32-.79.21-.22.47-.33.77-.33s.57.11.79.33c.22.22.33.48.33.79v3.2c0,.3-.11.56-.33.77-.22.21-.48.32-.79.32h-.38c-.2,0-.37-.07-.51-.2-.14-.14-.2-.3-.2-.51Z" style="fill: #fff;"/>
        <path d="M131.33,21.38h1.4c.2,0,.35-.09.43-.27s.15-.53.2-1.05c.03-.3.19-.53.46-.69.15-.08.31-.13.48-.13.14,0,.27.03.41.08.39.17.7.42.94.76.19.25.28.53.28.84,0,.08,0,.17-.03.25-.19,1.05-.49,1.77-.91,2.17-.42.4-1.07.6-1.93.6h-2.31c-1.2,0-2.02-.23-2.46-.7-.44-.47-.66-1.34-.66-2.63v-2.92c0-.12-.07-.18-.2-.18h-4.6s-.03.01-.04.04c0,.03,0,.04.04.04.63.32,1.2.64,1.73.96.34.22.52.53.56.94v.13c0,.36-.12.66-.36.91l-.1.1s-.04.07-.03.1c.02.03.04.05.08.05l.81-.03s0-.03.03-.03c.32,0,.6.11.83.34s.34.5.34.83c0,.37-.14.69-.41.94-.25.25-.56.39-.91.41-.85.03-4.78.17-11.81.41h-.05c-.36,0-.66-.12-.91-.36-.29-.27-.43-.61-.43-1.02,0-.3.1-.58.3-.81.25-.25.56-.39.91-.41.78-.02,1.41-.03,1.9-.05.12,0,.19-.06.23-.18.56-1.98,1.06-4.17,1.5-6.58.03-.12-.02-.18-.15-.18h-3.43c-.34,0-.63-.12-.86-.36-.24-.24-.36-.53-.36-.86s.12-.63.36-.86c.24-.24.52-.36.86-.36h20.75c.34,0,.63.12.86.36.24.24.36.53.36.86s-.12.63-.36.86c-.24.24-.52.36-.86.36h-13.84c-.12,0-.19.06-.23.18l-.15.86c-.03.14.02.2.15.2h9.09c.42,0,.78.14,1.07.43.29.29.43.64.43,1.07v3.76c0,.36.03.58.1.66.07.08.24.13.51.13ZM118.79,6.68c.1-.02.2-.03.3-.03.2,0,.41.07.61.2.27.19.43.45.48.79v.18c0,.29-.08.56-.25.81-.19.29-.46.48-.81.58-1.02.27-2.69.71-5.03,1.32-.12.03-.24.05-.36.05-.24,0-.47-.06-.69-.18-.34-.2-.56-.48-.66-.84-.03-.13-.05-.26-.05-.38,0-.22.06-.43.18-.63.2-.32.48-.52.84-.61,1.64-.36,3.45-.78,5.43-1.27ZM118.03,1.93c.34,0,.63.12.88.37.25.25.37.54.37.89s-.12.64-.37.89c-.25.25-.54.37-.88.37h-4.09c-.34,0-.63-.12-.88-.37-.25-.25-.37-.54-.37-.89s.12-.64.37-.89c.25-.25.54-.37.88-.37h4.09ZM118.74,20.77s0,.07.03.11c.03.04.08.06.13.06l4.49-.13s.05-.01.06-.04c0-.03,0-.05-.01-.09-.54-.37-1.14-.75-1.8-1.14-.32-.2-.51-.48-.56-.84-.02-.07-.03-.14-.03-.2,0-.29.11-.54.33-.76l.1-.1s.02-.04.01-.08c0-.03-.04-.05-.09-.05h-1.7c-.14,0-.22.06-.25.18-.02.08-.06.29-.14.62s-.13.56-.15.7-.07.33-.13.57c-.06.25-.11.46-.15.63-.04.18-.09.36-.14.55ZM125.87,4.47c0-.12-.07-.18-.2-.18h-1.4c-.14,0-.24.05-.3.15-.47.68-.99,1.3-1.55,1.88-.25.25-.55.38-.89.38h-.1c-.39-.03-.73-.19-1.02-.46-.29-.25-.43-.57-.43-.94,0-.32.13-.6.38-.84.93-.91,1.67-1.96,2.21-3.12.19-.39.46-.69.81-.91.27-.17.57-.25.89-.25.08,0,.17,0,.25.03.37.05.65.24.84.56.1.19.15.36.15.53,0,.15-.03.3-.1.46-.02.03-.03.07-.03.1-.02.03-.02.07,0,.11.02.04.05.06.1.06h7.01s.07,0,.1-.03c.15-.03.3-.05.46-.05s.3.02.43.05l.71.15c.3.07.52.25.66.53.1.15.15.31.15.48,0,.12-.03.24-.08.36-.29.73-.58,1.41-.86,2.06-.15.37-.42.64-.79.81-.24.1-.47.15-.71.15-.15,0-.3-.02-.43-.05-.36-.08-.62-.3-.79-.63-.1-.19-.15-.37-.15-.56,0-.15.03-.3.1-.46.05-.13.1-.26.15-.38,0-.05-.01-.09-.04-.13-.03-.03-.06-.05-.09-.05h-2.23c-.12,0-.18.06-.18.18v.38c0,.27.08.56.23.88.15.31.41.67.79,1.07.37.4.95.79,1.74,1.18.79.39,1.73.73,2.83,1.02.32.07.54.26.66.58.05.12.08.24.08.36,0,.17-.05.34-.15.51-.24.37-.56.64-.96.81-.22.08-.45.13-.69.13-.17,0-.34-.03-.51-.08-1.44-.41-2.62-.96-3.54-1.68-.92-.71-1.55-1.43-1.89-2.16-.02-.03-.04-.05-.08-.05s-.06.02-.08.05c-.34.71-.99,1.43-1.96,2.15-.97.72-2.18,1.28-3.66,1.69-.14.05-.28.08-.43.08-.22,0-.44-.05-.66-.15-.36-.17-.64-.42-.86-.76-.12-.15-.18-.31-.18-.48,0-.1.03-.21.08-.33.1-.27.3-.45.58-.53,1.07-.27,1.99-.61,2.78-1.02s1.37-.82,1.75-1.23c.38-.41.66-.79.83-1.12.17-.33.25-.62.25-.88v-.41Z" style="fill: #fff;"/>
        <path d="M147.64,13.05s-.02.07,0,.1.04.05.08.05h12.7c.41,0,.75.14,1.02.43.24.27.36.58.36.91v.15c-.27,2.64-.56,4.62-.86,5.94s-.68,2.19-1.12,2.62c-.52.58-1.23.91-2.11.99-.42.05-1.04.08-1.85.08-.39,0-.73-.13-1.03-.39-.3-.26-.5-.59-.62-.98-.02-.1-.03-.2-.03-.3,0-.19.05-.36.15-.53.17-.24.39-.36.66-.36h.05c.34.02.73.03,1.18.03s.77-.11.98-.33c.58-.54,1.02-2.33,1.35-5.36.02-.14-.04-.2-.18-.2h-1.85c-.12,0-.2.06-.25.18-1.15,2.89-2.74,5.36-4.77,7.39-.3.29-.67.43-1.09.43s-.81-.14-1.17-.41c-.02-.03-.04-.06-.08-.08-.29-.22-.43-.52-.43-.91,0-.36.13-.64.38-.86,1.68-1.51,3-3.36,3.96-5.56.02-.03.01-.07-.01-.11s-.06-.06-.11-.06h-1.85c-.12,0-.21.06-.28.18-1.61,2.64-3.74,4.91-6.4,6.8-.29.2-.6.3-.94.3-.08,0-.16,0-.23-.03-.42-.05-.8-.23-1.12-.53-.03-.05-.08-.1-.13-.15-.22-.2-.33-.46-.33-.76v-.13c.03-.36.2-.63.51-.81,2.07-1.27,3.77-2.83,5.13-4.7.03-.03.04-.07.01-.11s-.06-.06-.09-.06h-1.88c-.12,0-.23.05-.33.15-.85.8-1.73,1.52-2.64,2.18-.3.2-.63.3-.96.3-.07,0-.14,0-.23-.03-.42-.05-.8-.23-1.12-.53-.05-.05-.1-.09-.15-.13-.22-.22-.33-.48-.33-.79,0-.42.17-.74.51-.94,1.95-1.24,3.56-2.69,4.82-4.37.02-.02.02-.05,0-.09-.02-.04-.04-.06-.08-.06h-.61c-.41,0-.76-.14-1.05-.43-.3-.29-.44-.64-.44-1.07V2.59c0-.42.15-.78.44-1.07.3-.29.65-.43,1.05-.43h14.12c.41,0,.76.14,1.05.43.3.29.44.64.44,1.07v7.52c0,.42-.15.78-.44,1.07-.3.29-.65.43-1.05.43h-9.52c-.12,0-.21.06-.28.18-.25.41-.55.83-.89,1.27ZM145.96,3.58c-.14,0-.2.06-.2.18v1.24c0,.12.07.18.2.18h10.54c.12,0,.18-.06.18-.18v-1.24c0-.12-.06-.18-.18-.18h-10.54ZM145.96,7.52c-.14,0-.2.06-.2.18v1.27c0,.12.07.18.2.18h10.54c.12,0,.18-.06.18-.18v-1.27c0-.12-.06-.18-.18-.18h-10.54Z" style="fill: #fff;"/>
        <path d="M170.85,8.51c.36.22.57.54.63.96.02.08.03.16.03.23,0,.32-.1.62-.3.89l-.05.08c-.24.32-.56.51-.96.56-.07.02-.14.03-.23.03-.3,0-.59-.09-.86-.28-.49-.32-1.02-.64-1.6-.96-.34-.17-.55-.43-.63-.79-.02-.1-.03-.2-.03-.3,0-.24.08-.46.23-.66.25-.34.58-.57.96-.69.17-.03.33-.05.48-.05.24,0,.47.05.71.15.59.27,1.13.55,1.63.84ZM169.53,15.46c.14-.36.38-.59.74-.71.14-.05.26-.08.38-.08.22,0,.42.06.61.18.37.24.63.57.79.99.08.22.13.43.13.63s-.03.41-.1.61c-.58,1.73-1.26,3.56-2.06,5.51-.15.37-.41.63-.79.76-.15.05-.3.08-.43.08-.22,0-.44-.06-.66-.18l-.18-.1c-.36-.22-.6-.53-.74-.94-.05-.17-.08-.34-.08-.51,0-.22.05-.44.15-.66.81-1.83,1.56-3.69,2.23-5.59ZM171.84,1.73c.36.24.57.56.63.96v.25c0,.32-.1.62-.3.89l-.05.08c-.24.32-.55.5-.94.53-.07.02-.14.03-.2.03-.32,0-.62-.1-.89-.3-.51-.36-1.04-.69-1.6-1.02-.32-.19-.52-.46-.61-.81-.03-.1-.05-.2-.05-.3,0-.24.08-.47.25-.69.25-.34.58-.56.99-.66.15-.03.3-.05.43-.05.25,0,.5.06.74.18.58.3,1.11.61,1.6.91ZM190.05,17.19c.19.2.28.44.28.71,0,.05,0,.11-.03.18-.05.34-.22.61-.51.81-.24.15-.48.23-.74.23-.07,0-.14,0-.23-.03-.34-.05-.63-.21-.86-.48-.07-.08-.16-.13-.28-.13-.52.02-1.3.05-2.32.09-1.02.04-1.78.07-2.27.09-.14,0-.2.06-.2.18v3.91c0,.42-.14.78-.43,1.07-.29.29-.64.43-1.07.43h-.03c-.41,0-.76-.14-1.05-.43-.3-.29-.44-.64-.44-1.07v-3.78c0-.14-.06-.2-.18-.2-.32.02-1.16.05-2.5.09s-2.33.07-2.96.09h-.05c-.34,0-.63-.12-.89-.36-.29-.25-.43-.58-.43-.96,0-.3.11-.58.33-.81.22-.25.51-.38.86-.38.95-.02,2.03-.03,3.25-.05.12,0,.23-.03.33-.1l.36-.25c.05-.02.08-.05.08-.09s-.02-.08-.05-.11c-.91-.63-1.85-1.19-2.79-1.7-.29-.14-.46-.36-.51-.69-.02-.05-.03-.11-.03-.18,0-.22.08-.42.25-.61.27-.29.59-.46.96-.53.12-.03.24-.05.36-.05.24,0,.47.06.71.18.03.02.07.03.1.05.1.05.19.03.28-.05.66-.69,1.21-1.32,1.65-1.88.02-.03.02-.06,0-.09-.02-.03-.04-.04-.08-.04l-4.72.61c-.05.02-.11.03-.18.03-.27,0-.52-.08-.74-.25-.27-.2-.44-.47-.51-.81v-.2c0-.25.08-.48.23-.69.2-.27.47-.42.81-.46.88-.08,1.5-.14,1.85-.18.14-.02.2-.08.2-.2v-1.02c0-.13-.07-.2-.2-.2h-1.17c-.27,0-.51-.1-.71-.29-.2-.19-.3-.43-.3-.71s.1-.52.3-.71c.2-.19.44-.29.71-.29h1.17c.14,0,.2-.06.2-.18v-.79c0-.14-.07-.2-.2-.2h-1.45c-.3,0-.56-.1-.76-.3s-.3-.45-.3-.75.1-.55.3-.75.46-.3.76-.3h1.47c.12,0,.18-.06.18-.18v-.05c0-.37.13-.69.39-.95.26-.26.58-.39.96-.39s.7.13.96.39c.26.26.39.58.39.95v.05c0,.12.06.18.18.18h1.32c.29,0,.54.1.75.3.21.2.32.45.32.75s-.11.55-.32.75c-.21.2-.46.3-.75.3h-1.3c-.14,0-.2.07-.2.2v.79c0,.12.07.18.2.18h1.09c.27,0,.5.1.7.29.19.2.29.43.29.71s-.1.52-.29.71c-.19.2-.43.29-.7.29h-1.09c-.14,0-.2.07-.2.2v.74c0,.12.07.17.2.15l1.07-.13h.15c.29,0,.55.1.79.3.27.24.41.53.41.89,0,.02.02.03.05.04.03,0,.06,0,.08-.01,1.05-1.13,1.67-2.88,1.85-5.23,0-.12-.05-.18-.15-.18h-.15c-.34,0-.63-.12-.86-.36-.24-.24-.36-.52-.36-.85s.12-.61.36-.85c.24-.24.52-.36.86-.36h5.69c.41,0,.75.14,1.02.43.27.29.41.63.41,1.02,0,2.03-.08,3.84-.25,5.43-.1,1.08-.29,1.79-.56,2.13-.36.47-.86.75-1.52.84-.22.05-.52.08-.89.1h-.08c-.37,0-.71-.13-1.02-.41-.32-.27-.55-.63-.69-1.07-.07-.25-.15-.48-.25-.69-.02-.03-.04-.05-.08-.05s-.06.02-.08.05c-.25.51-.54.97-.86,1.4-.25.32-.6.48-1.04.48h-.03c-.42,0-.8-.13-1.12-.38-.22-.15-.42-.29-.61-.41-.12-.07-.24-.09-.36-.08l-.61.08s-.06.02-.06.05c0,.03,0,.05.04.05l.63.33c.32.17.51.43.56.79v.15c0,.3-.11.56-.33.76-.52.46-.97.84-1.35,1.14-.1.08-.1.16,0,.23.27.15.56.33.86.53.1.08.2.08.3,0,.9-.69,1.7-1.35,2.41-1.98.32-.29.69-.46,1.12-.53.12-.02.24-.03.36-.03.3,0,.6.07.89.2.3.14.48.37.53.71v.13c0,.29-.11.52-.33.69-1.2.96-2.5,1.91-3.88,2.84-.02.02-.02.04-.01.08,0,.03.02.05.04.05l3.63-.1s.05-.02.06-.05c0-.03,0-.06-.03-.08s-.05-.03-.06-.05c-.2-.19-.3-.41-.3-.66,0-.32.14-.57.41-.74.27-.19.57-.28.89-.28h.1c.36.02.67.14.94.38,1.07.88,1.96,1.7,2.67,2.46ZM175.2,20.34c.56-.44,1.12-.66,1.68-.66.27,0,.54.05.81.15.34.12.55.35.63.69.02.08.03.16.03.23,0,.24-.1.45-.3.63-.75.69-1.56,1.35-2.44,1.96-.34.2-.69.3-1.04.3h-.18c-.42-.03-.82-.19-1.19-.48-.24-.19-.36-.42-.36-.71,0-.37.16-.65.48-.84.69-.41,1.32-.83,1.88-1.27ZM184.77,21.2c-.27-.19-.41-.43-.41-.74s.12-.54.36-.71c.32-.22.68-.34,1.07-.36h.1c.36,0,.69.09.99.28,1,.63,1.87,1.22,2.62,1.78.25.2.38.47.38.79,0,.39-.15.69-.46.91-.3.2-.63.3-.99.3-.03,0-.07,0-.1-.03-.41-.02-.77-.15-1.09-.41-.75-.63-1.57-1.24-2.46-1.83ZM187.41,3.83c0-.14-.06-.2-.18-.2h-1.19c-.12,0-.19.07-.2.2-.17,1.95-.52,3.53-1.07,4.75-.02.03-.01.07.01.11.03.04.05.06.09.06.59.05,1.07.08,1.42.08.29,0,.52-.09.69-.28.22-.36.36-1.93.43-4.72Z" style="fill: #fff;"/>
        <path d="M214.63,1.09c.41,0,.76.14,1.05.43.3.29.44.64.44,1.07v3.07c0,.42-.15.78-.44,1.07-.3.29-.65.43-1.05.43h-1.07v.03c.05.02.09.06.11.11.03.06.01.11-.04.17-.34.39-.61.69-.81.89-.03.03-.04.07-.03.1.02.03.04.05.08.05h1.75c.41,0,.76.14,1.05.43.3.29.44.64.44,1.07v4.01c0,.41-.15.76-.44,1.05-.3.3-.65.44-1.05.44h-13.03c-.42,0-.78-.15-1.07-.44-.29-.3-.43-.65-.43-1.05v-4.01c0-.42.14-.78.43-1.07.29-.29.64-.43,1.07-.43h1.24s.06-.02.08-.05.02-.07,0-.1c-.14-.25-.29-.48-.46-.69-.07-.08-.09-.18-.06-.28s.09-.17.19-.2v-.03h-3.1c-.14,0-.2.07-.2.2v1.35c0,1.62-.05,3.16-.15,4.6-.1,1.44-.34,3.07-.71,4.89-.37,1.82-.88,3.39-1.52,4.71-.17.36-.46.58-.86.66-.12.02-.23.03-.33.03-.27,0-.53-.08-.79-.23-.05-.02-.1-.04-.15-.08-.34-.19-.57-.47-.69-.86-.05-.15-.08-.3-.08-.46,0-.22.06-.44.18-.66.44-.91.8-1.92,1.09-3.01.29-1.09.5-2.23.62-3.4s.21-2.22.25-3.12c.04-.91.06-1.92.06-3.06V2.59c0-.42.15-.78.44-1.07s.65-.43,1.05-.43h16.91ZM199.5,3.43c-.14,0-.2.06-.2.18v1.04c0,.12.07.18.2.18h13.33c.14,0,.2-.06.2-.18v-1.04c0-.12-.07-.18-.2-.18h-13.33ZM202.65,24.27c-.42,0-.78-.14-1.07-.43-.29-.29-.43-.64-.43-1.07v-4.98c0-.42.14-.78.43-1.07.29-.29.64-.43,1.07-.43h11.07c.41,0,.76.14,1.05.43s.44.64.44,1.07v4.98c0,.42-.15.78-.44,1.07s-.65.43-1.05.43h-1.02c-.17,0-.31-.06-.43-.18-.12-.12-.18-.26-.18-.43,0-.05-.03-.08-.08-.08h-7.8c-.05,0-.08.03-.08.08,0,.17-.06.31-.18.43-.12.12-.26.18-.43.18h-.89ZM203.16,10.21c-.14,0-.2.07-.2.2v.61c0,.12.07.18.2.18h3.2c.14,0,.2-.06.2-.18v-.61c0-.13-.07-.2-.2-.2h-3.2ZM203.16,12.82c-.14,0-.2.06-.2.18v.63c0,.12.07.18.2.18h3.2c.14,0,.2-.06.2-.18v-.63c0-.12-.07-.18-.2-.18h-3.2ZM212.1,18.36c0-.14-.07-.2-.2-.2h-7.57c-.12,0-.18.07-.18.2v.58c0,.12.06.18.18.18h7.57c.14,0,.2-.06.2-.18v-.58ZM204.15,21.56c0,.14.06.2.18.2h7.57c.14,0,.2-.07.2-.2v-.63c0-.12-.07-.18-.2-.18h-7.57c-.12,0-.18.06-.18.18v.63ZM205.77,8.3c.05.14.14.2.28.2h3.56c.14,0,.24-.06.3-.18.36-.46.6-.79.74-.99.03-.03.04-.07.03-.11-.02-.04-.05-.06-.1-.06h-5.31s-.06.02-.08.05-.02.07,0,.1c.25.34.45.67.58.99ZM212.91,11.2c.14,0,.2-.06.2-.18v-.61c0-.13-.07-.2-.2-.2h-3.33c-.14,0-.2.07-.2.2v.61c0,.12.07.18.2.18h3.33ZM212.91,13.81c.14,0,.2-.06.2-.18v-.63c0-.12-.07-.18-.2-.18h-3.33c-.14,0-.2.06-.2.18v.63c0,.12.07.18.2.18h3.33Z" style="fill: #fff;"/>
      </g>
      <path d="M18.22,21.45c0,.07-.04.15-.08.3h-1.73c-2.55,0-5.1,0-7.66,0-5.15,0-8.45-3.12-8.73-8.26-.13-2.27.16-4.46,1.46-6.41,1.5-2.26,3.74-3.23,6.34-3.48,1.95-.19,3.89-.04,5.7.79,3.23,1.48,4.54,4.22,4.67,7.56.12,3.16.03,6.33.03,9.49Z" style="fill: #fff;"/>
    </g>
  </g>
</svg>