<?xml version="1.0" encoding="UTF-8"?>
<svg id="_圖層_2" data-name="圖層 2" xmlns="http://www.w3.org/2000/svg" width="308.18" height="90.18" viewBox="0 0 308.18 90.18">
  <g id="_設計" data-name="設計">
    <g>
      <g>
        <path d="M34.24,55.69c-.41.43-.91.64-1.5.64s-1.09-.21-1.51-.64-.62-.96-.62-1.61.21-1.2.62-1.64.92-.66,1.51-.66,1.09.22,1.5.66c.41.44.62.98.62,1.64s-.21,1.18-.62,1.61Z" style="fill: #fff;"/>
        <path d="M60.89,46.88c.15.14.22.32.22.52s-.08.38-.22.52c-.15.14-.32.22-.52.22h-8.22c-.08,0-.13.04-.17.12-.22.45-.48.95-.78,1.48-.01.02-.01.04,0,.07.01.02.03.03.07.03h6.91c.27,0,.5.1.69.29s.29.42.29.69v7.49c0,.44-.06.79-.17,1.03s-.32.43-.61.55c-.38.16-1.1.24-2.16.25-.23,0-.44-.07-.61-.22-.18-.16-.3-.34-.38-.56-.07-.18-.04-.34.07-.5.11-.16.25-.23.43-.22h1.51c.14,0,.24-.03.3-.08.05-.05.08-.14.08-.27v-1.33c0-.09-.04-.13-.13-.13h-6.39c-.09,0-.13.04-.13.13v2.41c0,.21-.07.39-.22.55s-.33.23-.55.23-.4-.08-.56-.23-.23-.34-.23-.55v-6.89s-.01-.04-.03-.04c-.02,0-.04,0-.05.03-.58.66-1.18,1.25-1.83,1.76-.14.11-.3.17-.46.17h-.12c-.22-.03-.4-.14-.55-.32-.12-.14-.18-.3-.18-.48,0-.24.09-.44.28-.58,1.46-1.16,2.72-2.75,3.77-4.75.01-.03,0-.06,0-.08-.02-.02-.04-.03-.06-.03h-3.15c-.2,0-.37-.07-.51-.22-.14-.14-.22-.32-.22-.52s.07-.38.22-.52c.14-.14.32-.22.51-.22h3.8c.08,0,.13-.04.17-.12.16-.4.3-.8.43-1.21.07-.22.21-.39.42-.51.13-.08.28-.12.43-.12.07,0,.13,0,.2.02.21.06.37.18.48.37.07.12.1.24.1.37,0,.08-.01.16-.03.25-.11.32-.21.6-.3.85-.01.02,0,.05,0,.08s.04.04.07.04h7.59c.2,0,.37.07.52.22ZM57.48,52.69c.09,0,.13-.04.13-.12v-1.23c0-.09-.04-.13-.13-.13h-6.39c-.09,0-.13.04-.13.13v1.23c0,.08.04.12.13.12h6.39ZM50.96,55.38c0,.08.04.12.13.12h6.39c.09,0,.13-.04.13-.12v-1.23c0-.09-.04-.13-.13-.13h-6.39c-.09,0-.13.04-.13.13v1.23Z" style="fill: #fff;"/>
        <path d="M71.58,46.75c.2,0,.37.07.51.21s.21.31.21.51-.07.37-.21.51-.31.21-.51.21h-7.07c-.2,0-.37-.07-.51-.21-.14-.14-.21-.31-.21-.51s.07-.37.21-.51c.14-.14.31-.21.51-.21h2.57c.09,0,.13-.04.13-.13v-1.21c0-.22.08-.41.22-.56s.33-.22.55-.22.4.08.55.22.22.33.22.56v1.21c0,.09.04.13.13.13h2.69ZM65.4,49.32c.1-.2.25-.35.45-.45.12-.07.25-.1.38-.1.08,0,.15.01.22.03.2.04.34.16.43.35.04.09.07.18.07.27s-.02.18-.07.27c-.43.92-.96,1.75-1.58,2.51-.13.17-.3.25-.51.27h-.07c-.19,0-.36-.06-.51-.18-.18-.13-.27-.32-.27-.55,0-.17.06-.32.18-.45.5-.58.92-1.23,1.28-1.96ZM70.72,56.81c.11.16.17.32.17.5,0,.04,0,.09-.02.13-.03.24-.14.44-.32.6-.14.11-.3.17-.46.17h-.12c-.21-.03-.38-.14-.51-.32-.28-.4-.6-.82-.98-1.28-.04-.06-.09-.05-.15.02-.79,1.17-1.69,2.18-2.72,3.02-.17.12-.34.18-.53.18h-.12c-.23-.03-.43-.14-.6-.32-.1-.1-.16-.22-.18-.35-.01-.06-.02-.11-.02-.15,0-.09.02-.17.05-.25.06-.13.14-.24.25-.32,1.07-.79,2-1.8,2.79-3.04.04-.07.04-.13-.02-.18-.51-.53-1.06-1.06-1.64-1.59-.14-.12-.22-.28-.22-.46,0-.2.08-.36.23-.48.17-.13.35-.2.56-.2.22,0,.41.07.56.2.44.39.86.76,1.25,1.11.06.06.1.04.13-.03.19-.4.37-.83.53-1.29.07-.22.2-.39.4-.5.13-.08.28-.12.43-.12.07,0,.13,0,.2.02.21.05.37.18.48.37.07.11.1.23.1.35,0,.09-.02.17-.05.25-.25.73-.55,1.44-.9,2.12-.03.08-.02.14.03.2.55.6,1.01,1.15,1.38,1.64ZM79.12,47.85c.14.14.22.32.22.52s-.07.38-.22.52-.32.22-.53.22h-.18c-.08,0-.12.04-.13.12-.39,2.62-1.02,4.75-1.91,6.39-.03.08-.03.15.02.22.64,1.08,1.41,1.94,2.29,2.56.18.12.28.29.3.5v.1c0,.17-.06.32-.17.46-.16.19-.34.3-.56.35-.06.01-.11.02-.17.02-.17,0-.32-.05-.46-.15-.83-.63-1.56-1.43-2.17-2.41-.04-.07-.09-.07-.13-.02-.82,1.01-1.81,1.85-2.97,2.54-.13.07-.26.1-.38.1-.08,0-.16-.01-.25-.03-.21-.07-.38-.19-.5-.38-.09-.12-.13-.25-.13-.4,0-.06,0-.12.02-.18.06-.2.17-.35.35-.45,1.26-.7,2.28-1.6,3.06-2.71.04-.07.05-.14.02-.22-.46-1.07-.87-2.31-1.21-3.7,0-.02-.01-.03-.03-.03s-.04.01-.05.03c-.14.29-.29.55-.43.78-.1.19-.26.29-.48.32h-.07c-.19,0-.35-.07-.48-.2-.17-.16-.27-.34-.32-.56v-.17c0-.17.04-.33.13-.48.03-.04.07-.1.1-.17.01-.02.01-.04,0-.05-.01-.01-.02-.01-.03,0l-.27.17c-.14.08-.29.12-.45.12-.09,0-.18-.02-.27-.05-.24-.08-.44-.23-.58-.45-.24-.42-.54-.86-.88-1.31-.08-.1-.12-.21-.12-.33v-.13c.03-.17.13-.29.28-.38.13-.07.27-.1.42-.1.04,0,.09,0,.15.02.2.03.37.13.5.28.58.71,1.01,1.35,1.29,1.93.01.03.03.05.06.05s.05-.01.06-.03c.75-1.44,1.33-3.35,1.74-5.75.03-.22.14-.39.32-.51.14-.11.29-.17.45-.17.04,0,.09,0,.13.02.22.03.39.14.51.32.1.13.15.28.15.43,0,.06,0,.11-.02.15-.11.62-.25,1.28-.42,1.98-.02.08.01.12.1.12h3.79c.21,0,.39.07.53.22ZM76.69,49.24c.01-.09-.02-.13-.1-.13h-2.22c-.07,0-.11.03-.13.09-.02.06-.03.13-.02.21.3,1.69.7,3.18,1.2,4.47.01.02.03.03.05.03s.04-.01.05-.03c.53-1.23.92-2.77,1.18-4.63Z" style="fill: #fff;"/>
        <path d="M86.38,45.24c.13-.03.26-.02.38.05l.37.22c.16.09.27.22.33.39s.07.35,0,.52c-.54,1.58-1.02,2.89-1.44,3.92-.03.08-.02.15.03.22.92,1.06,1.38,2.24,1.38,3.54,0,1.06-.24,1.75-.73,2.08-.22.19-.53.31-.93.37-.12.01-.27.02-.43.03h-.03c-.2,0-.37-.07-.51-.2-.16-.14-.26-.33-.32-.55-.04-.17-.02-.32.08-.46.1-.14.23-.21.4-.21h.17c.23-.02.42-.08.55-.17.22-.16.33-.51.33-1.08,0-.85-.28-1.69-.83-2.51-.25-.37-.38-.74-.38-1.11,0-.19.03-.38.1-.56.16-.48.45-1.46.9-2.94.01-.03,0-.06-.02-.08-.02-.02-.05-.03-.08-.03h-1.79c-.09,0-.13.04-.13.12v12.62c0,.21-.07.39-.22.53s-.32.22-.52.22-.38-.07-.52-.22-.22-.32-.22-.53v-13.17c0-.28.1-.51.29-.7.19-.19.42-.28.69-.28h3.07s.04,0,.05-.02ZM96.8,47.53c.14.14.22.32.22.52s-.07.38-.22.52-.32.22-.53.22h-4.7c-.08,0-.12.04-.12.12-.04,1.11-.08,1.8-.12,2.09,0,.08.04.12.12.12h3.74c.27,0,.5.09.7.28.18.19.27.4.27.65,0,.76-.07,2.1-.22,4.02-.07.94-.15,1.68-.25,2.23-.1.55-.23.93-.4,1.14-.18.21-.36.36-.55.45-.19.09-.42.15-.7.18-.23.03-.59.05-1.08.05h-.35c-.23,0-.44-.08-.61-.24-.18-.16-.3-.36-.37-.59-.06-.18-.03-.34.07-.49.11-.15.25-.22.42-.21.34.02.73.03,1.16.03h.05c.23,0,.42-.08.56-.23.15-.19.28-.71.38-1.58s.19-2.24.27-4.13c0-.09-.04-.13-.12-.13h-3.12c-.08,0-.12.04-.13.13-.21,1.58-.6,2.95-1.15,4.11-.56,1.16-1.4,2.12-2.53,2.88-.13.09-.28.13-.43.13-.06,0-.11,0-.17-.02-.21-.04-.39-.16-.55-.33-.09-.09-.14-.19-.17-.32v-.12c0-.09.01-.17.03-.25.06-.11.13-.2.23-.27.5-.33.93-.7,1.3-1.11.37-.41.67-.87.91-1.39s.43-1.01.59-1.5c.16-.49.27-1.07.36-1.74.08-.68.14-1.29.17-1.83s.06-1.22.08-2.02c0-.08-.04-.12-.13-.12h-1.68c-.21,0-.39-.07-.53-.22s-.22-.32-.22-.52.07-.38.22-.52c.14-.14.32-.22.53-.22h3.14c.09,0,.13-.04.13-.13v-1.89c0-.21.07-.39.22-.54s.33-.22.55-.22.4.08.55.22.22.33.22.54v1.89c0,.09.04.13.12.13h3.27c.21,0,.39.07.53.22Z" style="fill: #fff;"/>
        <path d="M108.71,57.21c0,.09.04.13.13.13h5.2c.22,0,.41.08.56.23.15.16.23.34.23.56s-.08.41-.23.56c-.16.16-.34.23-.56.23h-13.68c-.22,0-.41-.08-.56-.23s-.23-.34-.23-.56.08-.41.23-.56.34-.23.56-.23h1.34c.08,0,.12-.04.12-.13v-8.6c0-.23.08-.43.24-.59.16-.16.35-.24.58-.24s.42.08.58.24c.16.16.24.36.24.59v8.6c0,.09.04.13.13.13h3.32c.08,0,.12-.04.12-.13v-12.15c0-.23.08-.43.25-.6s.36-.25.59-.25.42.08.59.25.25.37.25.6v4.48c0,.08.04.12.13.12h4.38c.22,0,.41.08.56.23s.23.34.23.56-.08.4-.23.56c-.16.15-.34.23-.56.23h-4.38c-.09,0-.13.04-.13.13v5.84Z" style="fill: #fff;"/>
        <path d="M123.06,51.6c.17.18.25.39.25.63,0,.2-.06.38-.18.53-.1.16-.24.23-.42.22-.18,0-.33-.08-.44-.24-.23-.33-.46-.65-.7-.96-.02-.02-.04-.03-.06-.02-.02.01-.03.02-.03.03v7.57c0,.21-.07.39-.22.54s-.33.22-.54.22-.39-.07-.53-.22-.22-.33-.22-.54v-6.54s0-.02-.02-.03c-.01,0-.02,0-.03,0-.48,1.43-1.01,2.63-1.61,3.6-.09.16-.22.22-.41.21s-.32-.1-.41-.26c-.12-.22-.18-.44-.18-.66s.08-.47.23-.71c.44-.7.86-1.52,1.25-2.47.39-.95.71-1.88.94-2.81,0-.03,0-.06-.02-.08-.02-.02-.04-.03-.08-.03h-1.41c-.2,0-.37-.07-.52-.22-.15-.14-.22-.32-.22-.53s.08-.39.22-.53c.15-.14.32-.22.52-.22h1.61c.09,0,.13-.04.13-.13v-2.67c0-.2.07-.37.22-.52s.32-.22.53-.22.39.08.54.22.22.32.22.52v2.67c0,.09.04.13.12.13h1.28c.21,0,.39.07.53.22s.22.32.22.53-.07.39-.22.53c-.14.14-.32.22-.53.22h-1.28c-.08,0-.12.04-.12.12v.22c0,.09.03.16.1.22.35.32.85.81,1.48,1.46ZM128.77,50.29s.01.04.03.05c.02.01.04,0,.05-.02.2-.18.43-.27.7-.27h.02c.25,0,.48.09.66.27.98.88,1.79,1.71,2.42,2.47.12.16.18.33.18.51,0,.25-.09.47-.28.65-.13.12-.28.18-.45.18h-.08c-.2-.02-.37-.12-.5-.28-.71-.92-1.59-1.87-2.66-2.86-.02-.01-.04-.01-.07,0-.02,0-.03.02-.03.04v8.32c0,.22-.08.41-.23.56-.16.16-.34.23-.56.23s-.4-.08-.56-.23c-.16-.16-.23-.34-.23-.56v-7.57s-.01-.02-.03-.03c-.02-.01-.04,0-.05.02-.82,1.01-1.74,1.89-2.77,2.66-.15.1-.32.15-.48.15h-.17c-.23-.04-.43-.16-.58-.35-.11-.14-.17-.3-.17-.48v-.12c.03-.22.14-.39.33-.51.99-.66,1.87-1.47,2.67-2.43.79-.96,1.44-2.01,1.95-3.15.01-.03,0-.06,0-.08-.02-.02-.04-.03-.06-.03h-3.72c-.21,0-.39-.07-.53-.22-.14-.15-.22-.33-.22-.54s.07-.39.22-.53c.14-.14.32-.22.53-.22h7.94c.21,0,.39.07.54.22.15.14.22.32.22.53s-.08.39-.22.54-.33.22-.54.22h-2.22c-.08,0-.13.04-.17.12-.27.62-.54,1.17-.81,1.66-.04.08-.07.16-.07.23v.86Z" style="fill: #fff;"/>
        <path d="M148.53,58.16c0,.08.04.12.12.12h1.26c.18,0,.33.06.46.19s.19.28.19.46-.06.33-.19.45c-.13.12-.28.18-.46.18h-13.98c-.18,0-.33-.06-.46-.18-.13-.12-.19-.27-.19-.45s.06-.33.19-.46.28-.19.46-.19h1.31c.08,0,.12-.04.12-.12v-1.99c0-.28.1-.51.29-.7.19-.19.42-.28.69-.28h9.21c.27,0,.5.09.69.28s.29.42.29.7v1.99ZM136.54,54.52c-.19.01-.35-.05-.49-.17-.14-.13-.21-.28-.22-.46s.04-.33.16-.46.26-.2.44-.2h1.94c.09,0,.16-.03.22-.08.35-.4.68-.81.98-1.25.01-.02.01-.04,0-.07-.01-.02-.03-.03-.05-.03h-3.47c-.16,0-.29-.06-.41-.17-.12-.11-.17-.25-.17-.41s.06-.3.17-.42.25-.17.41-.17h5.91c.09,0,.13-.04.13-.12v-.76c0-.09-.04-.13-.13-.13h-4.43c-.16,0-.29-.06-.4-.17-.11-.11-.17-.25-.17-.41s.06-.3.17-.42.24-.17.4-.17h4.45c.08,0,.12-.04.12-.12v-.12c0-.22.08-.41.22-.56s.33-.22.55-.22.4.08.55.22.22.33.22.56v.12c0,.08.04.12.12.12h4.62c.15,0,.29.06.4.17.11.12.17.25.17.42s-.06.3-.17.41-.24.17-.4.17h-4.6c-.09,0-.13.04-.13.13v.76c0,.08.04.12.13.12h6.08c.15,0,.29.06.41.17s.17.25.17.42-.06.3-.17.41c-.12.11-.25.17-.41.17h-3.09s-.03,0-.03.02,0,.03.02.04c1.06.59,2.05,1.23,2.97,1.93.15.12.23.28.23.48,0,.19-.07.35-.22.48-.17.13-.36.2-.58.2s-.4-.07-.58-.2c-.16-.12-.33-.25-.51-.4-.07-.04-.14-.07-.22-.07-4.56.12-8.32.2-11.29.23ZM140.54,47.78c-.16.16-.34.23-.56.23s-.4-.08-.56-.23c-.16-.15-.23-.34-.23-.56v-.13c0-.08-.04-.12-.12-.12h-2.96c-.18,0-.33-.06-.45-.18-.12-.12-.18-.27-.18-.46s.06-.34.18-.46.27-.19.45-.19h2.94c.09,0,.13-.04.13-.12v-.23c0-.21.08-.39.23-.55.16-.15.34-.23.56-.23s.4.08.56.23c.16.16.23.34.23.55v.23c0,.08.04.12.12.12h3.97c.09,0,.13-.04.13-.12v-.22c0-.22.08-.41.23-.56s.34-.23.56-.23.41.08.56.23c.15.16.23.34.23.56v.22c0,.08.04.12.13.12h3.02c.18,0,.33.06.46.19.13.13.19.28.19.46s-.06.33-.19.46c-.13.12-.28.18-.46.18h-3.04c-.08,0-.12.04-.12.12v.13c0,.22-.08.41-.23.56s-.34.23-.56.23-.41-.08-.56-.23c-.16-.15-.23-.34-.23-.56v-.13c0-.08-.04-.12-.12-.12h-3.99c-.08,0-.12.04-.12.12v.13c0,.22-.08.41-.23.56ZM138.95,56.36c-.09,0-.13.04-.13.12v1.68c0,.08.04.12.13.12h1.59c.09,0,.13-.04.13-.12v-1.68c0-.08-.04-.12-.13-.12h-1.59ZM145.39,51.85s.01,0,0-.03-.01-.02-.02-.02h-3.69c-.09,0-.16.03-.22.1-.35.42-.72.84-1.11,1.25-.01.01-.01.03,0,.05s.03.03.05.03c1.26-.01,3.2-.03,5.81-.05.02,0,.04,0,.04-.03s0-.03,0-.04c-.29-.17-.56-.32-.81-.46-.14-.09-.22-.22-.23-.38-.01-.17.05-.3.18-.42ZM143.83,56.48c0-.08-.04-.12-.12-.12h-1.64c-.08,0-.12.04-.12.12v1.68c0,.08.04.12.12.12h1.64c.08,0,.12-.04.12-.12v-1.68ZM147,56.48c0-.08-.04-.12-.13-.12h-1.63c-.09,0-.13.04-.13.12v1.68c0,.08.04.12.13.12h1.63c.09,0,.13-.04.13-.12v-1.68Z" style="fill: #fff;"/>
        <path d="M155.66,51.13c.28,0,.51.1.7.29.19.19.28.42.28.69v4.33c0,.09.02.17.07.23.71,1.04,2.01,1.6,3.9,1.68.83.04,1.71.07,2.64.07,1.41,0,2.93-.04,4.57-.13.19-.01.33.06.43.22.08.1.12.21.12.32,0,.06-.01.12-.03.18-.08.23-.21.43-.4.58-.19.16-.4.23-.63.23-1.42.04-2.73.07-3.93.07-1,0-1.92-.02-2.77-.05-1.05-.03-1.94-.2-2.67-.49-.73-.29-1.35-.75-1.86-1.35-.06-.07-.11-.07-.17-.02-.46.44-.99.92-1.56,1.44-.12.11-.27.17-.43.17-.04,0-.09,0-.13-.02-.22-.04-.38-.16-.48-.35-.07-.14-.1-.29-.1-.45,0-.09.01-.18.03-.27.07-.23.2-.43.4-.58.49-.37.96-.75,1.41-1.15.07-.06.1-.12.1-.2v-3.85c0-.09-.04-.13-.12-.13h-1.2c-.2,0-.37-.07-.51-.22-.14-.14-.22-.32-.22-.51s.07-.37.22-.51c.14-.14.32-.22.51-.22h1.84ZM156.62,47.03c.11.14.17.3.17.48v.12c-.03.23-.14.42-.33.56-.13.1-.28.15-.43.15-.04,0-.09,0-.13-.02-.21-.03-.38-.14-.51-.32-.43-.54-.96-1.1-1.59-1.68-.14-.12-.22-.27-.22-.45,0-.2.08-.36.25-.48.17-.12.35-.18.56-.18h.03c.22,0,.42.07.58.22.65.55,1.2,1.08,1.63,1.59ZM159.66,56.86c-.27,0-.5-.09-.69-.28-.19-.19-.29-.42-.29-.7v-5.86s-.01-.04-.03-.05c-.02-.01-.04,0-.05.02-.2.21-.38.39-.53.55-.16.14-.33.22-.53.22h-.07c-.23-.01-.43-.11-.6-.28-.14-.16-.22-.34-.22-.55,0-.23.08-.43.25-.58,1.18-1.1,2.14-2.43,2.87-4,.1-.21.26-.37.48-.46.12-.07.25-.1.4-.1.08,0,.16.01.25.03.21.07.36.19.45.38.04.1.07.2.07.3s-.02.2-.07.3c-.18.39-.38.78-.6,1.18-.02.02-.02.04,0,.07.02.02.04.03.06.03h2.11c.08,0,.13-.03.17-.1.21-.48.39-.95.55-1.41.08-.24.22-.43.43-.55.14-.1.3-.15.48-.15.05,0,.12,0,.18.02.22.04.38.17.48.37.05.11.08.22.08.32s-.02.19-.07.28c-.19.4-.37.78-.55,1.13-.01.02-.01.04,0,.07.01.02.03.03.07.03h2.52c.18,0,.33.07.46.2s.2.29.2.48-.07.35-.2.47-.29.19-.46.19h-2.77c-.09,0-.13.04-.13.13v1.23c0,.08.04.12.13.12h2.36c.18,0,.33.07.46.2s.2.29.2.46-.07.33-.2.46c-.13.13-.29.19-.46.19h-2.36c-.09,0-.13.04-.13.13v1.23c0,.08.04.12.13.12h2.31c.18,0,.33.06.46.19.13.13.19.28.19.46s-.06.34-.19.46c-.13.13-.28.19-.46.19h-2.31c-.09,0-.13.04-.13.13v1.28c0,.08.04.12.13.12h3.05c.19,0,.35.07.48.2s.2.29.2.48-.07.35-.2.47c-.13.13-.29.19-.48.19h-7.89ZM162.71,49.89c.09,0,.13-.04.13-.12v-1.23c0-.09-.04-.13-.13-.13h-2.36c-.09,0-.13.04-.13.13v1.23c0,.08.04.12.13.12h2.36ZM162.71,52.68c.09,0,.13-.04.13-.12v-1.23c0-.09-.04-.13-.13-.13h-2.36c-.09,0-.13.04-.13.13v1.23c0,.08.04.12.13.12h2.36ZM162.71,55.52c.09,0,.13-.04.13-.12v-1.28c0-.09-.04-.13-.13-.13h-2.36c-.09,0-.13.04-.13.13v1.28c0,.08.04.12.13.12h2.36Z" style="fill: #fff;"/>
        <path d="M175.81,48.39c.18-.04.35-.04.51.02l.3.1c.16.06.27.16.35.3.08.14.1.3.07.46-.4,1.97-1.01,3.7-1.84,5.18-.74,1.31-1.59,2.37-2.54,3.2-.17.13-.35.2-.56.2-.03,0-.07,0-.1-.02-.24-.02-.46-.13-.65-.32-.16-.14-.23-.32-.23-.53,0-.23.09-.42.27-.56.76-.62,1.44-1.38,2.04-2.29.76-1.16,1.34-2.51,1.74-4.03.01-.03,0-.06-.02-.08-.02-.02-.05-.03-.08-.03h-3.15c-.22,0-.41-.08-.56-.23-.16-.16-.23-.34-.23-.57s.08-.41.23-.56c.16-.15.34-.23.56-.23h3.9ZM184.02,47.55c.15-.19.35-.3.6-.33.05-.01.1-.02.15-.02.19,0,.37.06.53.17.2.13.31.32.33.56v.08c0,.2-.07.37-.22.51-1.37,1.45-2.65,2.63-3.82,3.54-.07.05-.08.12-.03.18,1.16,1.97,2.56,3.43,4.2,4.37.19.11.3.28.35.5v.13c0,.18-.06.34-.17.48-.18.21-.39.35-.65.42-.08.02-.16.03-.23.03-.17,0-.33-.05-.5-.15-2.09-1.36-3.76-3.55-5.01-6.56-.01-.01-.02-.02-.03-.02-.01,0-.02,0-.02.02v6.16c0,.51-.07.9-.2,1.18-.13.28-.35.49-.66.63-.43.18-1.2.28-2.31.32h-.03c-.25,0-.48-.08-.68-.23-.21-.17-.36-.38-.45-.65-.03-.08-.05-.16-.05-.23,0-.12.04-.24.12-.35.11-.17.27-.25.48-.25h.68c.18.01.33.02.46.02.25,0,.42,0,.5-.02.32,0,.48-.14.48-.42v-12.62c0-.23.08-.43.24-.59s.36-.24.59-.24.43.08.59.24.24.36.24.59v2.08c0,.08.01.16.03.23.3,1.13.71,2.27,1.23,3.42.03.08.08.09.15.03,1.21-1.08,2.24-2.16,3.1-3.22Z" style="fill: #fff;"/>
        <path d="M34.24,85.7c-.41.43-.91.64-1.5.64s-1.09-.21-1.51-.64-.62-.96-.62-1.61.21-1.2.62-1.64.92-.66,1.51-.66,1.09.22,1.5.66c.41.44.62.98.62,1.64s-.21,1.18-.62,1.61Z" style="fill: #fff;"/>
        <path d="M60.2,80.34c.27,0,.49.09.68.28s.28.41.28.66c0,1.92-.09,3.92-.28,6.01-.1,1.14-.25,1.86-.46,2.16-.14.2-.29.34-.45.43-.16.09-.35.15-.6.18-.21.03-.5.05-.88.05h-.05c-.2,0-.38-.07-.53-.21-.16-.14-.26-.31-.32-.52-.06-.2-.12-.38-.18-.53-.01-.03,0-.06,0-.09.02-.03.04-.04.08-.02.01,0,.02,0,.02-.02l-.05-.15c-.03-.09-.09-.13-.17-.12-.76.08-2.6.26-5.51.55-.19.02-.35-.02-.49-.14-.14-.12-.22-.26-.24-.44s.03-.33.14-.47c.12-.14.26-.21.44-.22.25-.02,1.13-.09,2.62-.2.08-.01.12-.06.12-.13v-1.06c0-.09-.04-.13-.12-.13h-1.61c-.27,0-.5-.09-.69-.28-.19-.19-.29-.42-.29-.7v-2.27s0-.02-.02-.03c-.01,0-.02,0-.02,0-.09.08-.19.12-.32.12s-.23-.04-.32-.12c-.19-.17-.36-.31-.51-.43-.02-.01-.04-.01-.07,0s-.03.03-.03.05v1.13c0,3.03-.29,4.95-.86,5.76-.23.31-.55.5-.96.58-.3.07-.66.11-1.08.12h-.02c-.21,0-.39-.08-.55-.23-.17-.16-.28-.34-.35-.56-.04-.18-.02-.34.08-.48s.24-.22.42-.22h.23c.23,0,.43,0,.58-.02.22-.03.39-.13.5-.28.34-.42.51-1.99.51-4.7v-.03s0-.04-.02-.04c-.02,0-.03,0-.04.03-.52.72-1.05,1.34-1.58,1.88-.13.12-.28.18-.45.18-.02,0-.05,0-.08-.02-.2-.02-.37-.11-.51-.27-.12-.14-.18-.31-.18-.5,0-.22.08-.4.23-.55.99-.86,1.8-1.88,2.46-3.05.03-.08.04-.16.03-.23-.09-.65-.22-1.26-.38-1.81-.01-.02-.03-.04-.06-.04-.03,0-.05,0-.08.02-.28.29-.58.58-.91.88-.14.12-.3.18-.48.18h-.05c-.2-.01-.38-.09-.53-.23-.14-.13-.22-.29-.22-.48s.07-.34.22-.46c.45-.39.9-.83,1.34-1.33.06-.07.06-.13.02-.2-.3-.54-.69-1.07-1.18-1.59-.13-.13-.19-.29-.17-.47s.1-.33.24-.43.3-.16.48-.16h.07c.2.01.37.09.5.23.4.41.74.81,1.03,1.21.01.03.03.05.07.05s.06-.02.07-.05c.24-.33.46-.67.66-1.03.11-.18.27-.3.46-.37.08-.02.16-.03.23-.03.12,0,.24.03.35.08.19.1.32.25.38.45.02.07.03.13.03.2,0,.12-.04.24-.12.37-.34.58-.75,1.16-1.21,1.76-.06.07-.07.13-.03.2.49,1.13.78,2.47.88,4.04,0,.02.01.04.03.05.02.01.04.01.07,0,.86-.73,1.57-1.61,2.11-2.64.01-.02.01-.04,0-.07-.01-.02-.03-.03-.07-.03h-.15c-.28,0-.51-.1-.7-.29s-.28-.42-.28-.69v-2.16c0-.28.09-.51.28-.7.19-.19.42-.28.7-.28h7.46c.27,0,.5.09.69.28.19.19.29.42.29.7v2.16c0,.27-.1.5-.29.69s-.42.29-.69.29h-5.48c-.08,0-.13.03-.17.1-.12.27-.25.53-.4.8-.02.03-.02.06,0,.08.02.02.04.03.07.03h6.38ZM58.58,88.79h.05c.22,0,.38-.08.48-.25.14-.2.26-.81.35-1.82.09-1.01.17-2.67.23-4.99.01-.08-.03-.12-.12-.12h-6.62c-.08,0-.14.03-.2.1-.27.33-.56.67-.9,1.01-.02.02-.03.04-.02.07.01.02.03.03.05.03h2.39c.07,0,.1-.04.1-.12v-.17c0-.18.06-.33.18-.45.12-.12.27-.18.44-.18s.32.06.44.18.18.27.18.45v.17c0,.08.03.12.1.12h1.66c.27,0,.5.09.69.28s.29.42.29.7v1.41c0,.28-.1.51-.29.7s-.42.28-.69.28h-1.64c-.08,0-.12.04-.12.13v.96c0,.08.04.11.12.1l1.11-.1c.07,0,.08-.03.06-.08s-.05-.1-.07-.13c-.07-.13-.08-.27-.03-.4s.14-.22.27-.27c.15-.06.31-.06.46,0,.15.06.27.16.35.3.35.62.62,1.23.81,1.83.03.12-.01.21-.13.25ZM52.83,76.42c-.08,0-.12.04-.12.12v1.44c0,.09.04.13.12.13h1.16c.09,0,.13-.04.13-.13v-1.44c0-.08-.04-.12-.13-.12h-1.16ZM52.88,85.04c0,.09.04.13.12.13h1.26c.08,0,.12-.04.12-.13v-1.05c0-.09-.04-.13-.12-.13h-1.26c-.08,0-.12.04-.12.13v1.05ZM55.41,76.42c-.09,0-.13.04-.13.12v1.44c0,.09.04.13.13.13h1.21c.08,0,.12-.04.12-.13v-1.44c0-.08-.04-.12-.12-.12h-1.21ZM55.74,83.86c-.08,0-.12.04-.12.13v1.05c0,.09.04.13.12.13h1.23c.09,0,.13-.04.13-.13v-1.05c0-.09-.04-.13-.13-.13h-1.23ZM58.01,76.42c-.08,0-.12.04-.12.12v1.44c0,.09.04.13.12.13h1.26c.08,0,.12-.04.12-.13v-1.44c0-.08-.04-.12-.12-.12h-1.26Z" style="fill: #fff;"/>
        <path d="M76.64,81.1c.18-.14.38-.22.61-.22h.02c.23,0,.43.07.6.22.17.13.25.3.25.5,0,.22-.09.4-.27.53-.84.61-1.69,1.16-2.56,1.64-.08.04-.09.1-.05.17.87,1.41,1.95,2.46,3.24,3.17.19.1.3.25.33.46.01.04.02.09.02.13,0,.16-.06.3-.17.43-.16.2-.35.33-.58.4-.09.02-.17.03-.23.03-.16,0-.3-.04-.45-.13-2.45-1.5-4.18-4.24-5.21-8.22,0-.01,0-.02-.02-.02-.01,0-.02,0-.03.02-.42.35-.9.69-1.44,1.01-.07.03-.07.08-.02.13.74.67,1.33,1.44,1.76,2.3.43.86.67,1.66.73,2.42.02.19.03.37.03.55,0,.55-.07,1.06-.22,1.53-.19.63-.49,1.1-.9,1.39-.3.23-.59.4-.87.49-.28.09-.63.14-1.04.14-.21,0-.43,0-.66-.02-.22,0-.42-.08-.59-.23-.17-.16-.29-.35-.34-.58-.06-.18-.03-.33.08-.47.1-.14.24-.2.41-.19.27.01.53.02.8.02.51,0,.88-.12,1.11-.35.25-.18.44-.49.55-.95.06-.25.08-.53.08-.83,0-.22-.02-.45-.05-.7,0-.02-.01-.04-.04-.05s-.05-.01-.08,0c-.82.63-1.76,1.24-2.81,1.82-1.06.58-2.09,1.07-3.11,1.45-.11.04-.22.07-.32.07s-.21-.02-.32-.07c-.21-.08-.38-.22-.5-.42-.06-.1-.08-.2-.08-.3,0-.07.01-.13.03-.2.07-.18.18-.29.35-.35,1.16-.37,2.32-.85,3.48-1.46,1.16-.61,2.11-1.24,2.86-1.89.07-.06.08-.12.03-.2-.1-.21-.21-.43-.33-.65-.04-.07-.1-.08-.17-.03-1.31.89-2.82,1.68-4.53,2.37-.1.03-.2.05-.3.05s-.19-.02-.28-.05c-.2-.08-.35-.21-.46-.38-.1-.14-.12-.3-.07-.46s.17-.28.33-.33c.81-.25,1.64-.58,2.48-.97.85-.39,1.55-.78,2.1-1.17.07-.06.07-.11.02-.17-.15-.17-.3-.31-.45-.43-.07-.06-.14-.06-.22-.02-1,.46-2.09.88-3.27,1.25-.09.02-.18.03-.27.03-.12,0-.24-.02-.35-.07-.2-.08-.36-.21-.48-.4-.1-.13-.12-.28-.07-.45s.17-.27.33-.32c1.9-.49,3.49-1.1,4.75-1.83.02-.01.03-.03.03-.04,0-.02-.02-.02-.04-.02h-2.32c-.19,0-.35-.07-.48-.2s-.2-.29-.2-.48.07-.35.2-.48.29-.2.48-.2h7.95c.19,0,.35.07.48.2s.2.29.2.48-.07.35-.2.48-.29.2-.48.2h-1.71s-.04.01-.07.03c-.02.02-.03.05-.02.08.22.77.49,1.52.81,2.22.03.07.09.08.17.03.73-.48,1.4-.97,2.01-1.48ZM66.18,77.42c-.09,0-.13.04-.13.12v1.2c0,.21-.07.39-.22.55-.15.16-.33.23-.55.23s-.4-.08-.56-.23c-.16-.15-.23-.34-.23-.55v-1.78c0-.28.1-.51.29-.7.19-.19.42-.28.69-.28h5.08c.09,0,.13-.04.13-.13v-.48c0-.22.08-.41.24-.57.16-.16.35-.24.57-.24s.41.08.57.24.24.35.24.57v.48c0,.09.04.13.13.13h5.18c.27,0,.5.09.69.28.19.19.29.42.29.7v1.76c0,.22-.08.41-.23.56s-.34.23-.56.23-.41-.08-.56-.23c-.16-.15-.23-.34-.23-.56v-1.18c0-.08-.04-.12-.13-.12h-10.69Z" style="fill: #fff;"/>
        <path d="M96.39,85.19c.18,0,.33.06.46.18.13.12.19.27.19.45s-.06.33-.19.46c-.13.13-.28.19-.46.19h-3.15c-.09,0-.13.04-.13.12v1.98c0,.39-.05.69-.16.9s-.31.37-.61.48c-.38.13-1.07.2-2.08.2-.2,0-.38-.07-.55-.2s-.29-.3-.37-.5c-.05-.16-.04-.3.05-.44.09-.14.22-.21.38-.21.34.01.63.02.85.02.27,0,.46,0,.6-.02s.22-.04.27-.08c.04-.04.07-.11.07-.21v-1.93c0-.08-.04-.12-.12-.12h-5.4s-.04,0-.04.02c0,.02,0,.03,0,.04.62.4,1.17.81,1.66,1.25.16.13.23.3.23.5,0,.22-.08.4-.25.55-.15.13-.33.2-.53.2h-.03c-.21-.01-.4-.09-.56-.25-.4-.37-.86-.75-1.39-1.15-.19-.14-.28-.34-.28-.58,0-.2.08-.37.23-.51.01-.01.01-.03,0-.04s-.02-.02-.03-.02h-2.69c-.18,0-.33-.06-.46-.19-.13-.13-.19-.28-.19-.46s.06-.33.19-.45c.13-.12.28-.18.46-.18h9.08c.08,0,.12-.04.12-.13v-.61c0-.08-.04-.12-.12-.12-3.22.08-6.02.13-8.4.17-.17.01-.31-.04-.43-.16s-.18-.26-.18-.42c-.01-.17.04-.31.15-.42s.25-.17.42-.17c.91,0,2.72-.01,5.45-.03.09,0,.13-.04.13-.12v-.55c0-.09-.04-.13-.13-.13h-3.95c-.28,0-.51-.09-.7-.28-.19-.19-.28-.42-.28-.7v-2.76c0-.27.09-.5.28-.69s.42-.29.7-.29h3.95c.09,0,.13-.04.13-.12v-.55c0-.09-.04-.13-.13-.13h-5.63c-.18,0-.32-.06-.44-.17s-.17-.26-.17-.43.06-.32.17-.43.26-.17.44-.17h5.63c.09,0,.13-.04.13-.13v-.3c0-.21.08-.39.22-.54s.33-.22.55-.22.4.08.55.22.22.33.22.54v.3c0,.09.04.13.13.13h5.53c.17,0,.31.06.43.17.12.12.18.26.18.43s-.06.32-.18.43c-.12.12-.27.17-.43.17h-5.53c-.09,0-.13.04-.13.13v.55c0,.08.04.12.13.12h4.12c.28,0,.51.1.7.29.19.19.28.42.28.69v2.76c0,.28-.09.51-.28.7-.19.19-.42.28-.7.28h-.46s-.03,0-.03.02,0,.03.02.03c.73.33,1.4.7,2.01,1.11.13.09.2.22.22.38.01.17-.04.3-.17.42-.13.12-.29.19-.47.19-.18,0-.35-.04-.51-.14-.08-.06-.17-.12-.27-.18-.08-.04-.16-.07-.23-.07l-1.23.02c-.09.01-.13.06-.13.13v.66c0,.09.04.13.13.13h3.15ZM85.11,78.79c-.08,0-.12.04-.12.12v.61c0,.08.04.12.12.12h3.32c.09,0,.13-.04.13-.12v-.61c0-.08-.04-.12-.13-.12h-3.32ZM85,81.37c0,.09.04.13.12.13h3.32c.09,0,.13-.04.13-.13v-.63c0-.09-.04-.13-.13-.13h-3.32c-.08,0-.12.04-.12.13v.63ZM93.8,78.91c0-.08-.04-.12-.12-.12h-3.44c-.09,0-.13.04-.13.12v.61c0,.08.04.12.13.12h3.44c.08,0,.12-.04.12-.12v-.61ZM93.68,81.5c.08,0,.12-.04.12-.13v-.63c0-.09-.04-.13-.12-.13h-3.44c-.09,0-.13.04-.13.13v.63c0,.09.04.13.13.13h3.44ZM90.25,82.48c-.09,0-.13.04-.13.13v.55c0,.08.04.12.13.12l2.47-.03s.03,0,.03-.03,0-.02-.02-.02c-.17-.08-.33-.16-.5-.23-.1-.03-.16-.1-.17-.2s.01-.18.09-.25c.01,0,.01-.01,0-.03h-1.91Z" style="fill: #fff;"/>
        <path d="M104.68,76.69c-.09.02-.13.07-.13.15v2.61c0,.09.04.13.13.13h2.22c.2,0,.37.07.51.22.14.14.22.32.22.51s-.07.37-.22.51-.32.22-.51.22h-2.22c-.09,0-.13.04-.13.13v.86c0,.09.03.15.1.2.54.4,1.33,1.05,2.37,1.94.18.16.28.35.3.58.01.04.02.08.02.12,0,.19-.05.36-.17.51-.11.17-.27.25-.46.27h-.07c-.18,0-.33-.07-.45-.2-.51-.53-1.02-1.05-1.54-1.56-.02-.01-.04-.01-.07,0-.02,0-.03.02-.03.04v5.41c0,.22-.07.41-.22.56s-.33.22-.55.22-.4-.07-.55-.22-.22-.33-.22-.56v-5.84s0-.03-.02-.03-.03,0-.03.02c-.74,1.53-1.51,2.79-2.31,3.79-.11.12-.25.18-.42.18h-.1c-.2-.03-.35-.14-.45-.32-.1-.19-.15-.38-.15-.58v-.13c.03-.25.13-.48.3-.66.53-.61,1.05-1.32,1.54-2.14s.92-1.64,1.26-2.46c.01-.02,0-.05,0-.08-.02-.03-.04-.04-.08-.04h-2.22c-.2,0-.37-.07-.51-.22-.14-.14-.22-.32-.22-.51s.07-.37.22-.51c.14-.14.32-.22.51-.22h2.56c.08,0,.12-.04.12-.13v-2.27c0-.09-.04-.12-.12-.1-.79.16-1.55.28-2.31.38h-.1c-.14,0-.28-.04-.42-.12-.16-.11-.27-.25-.33-.43-.06-.15-.05-.3.03-.44.07-.14.18-.22.34-.26,2.31-.38,4.14-.8,5.5-1.28.14-.05.29-.08.45-.08.09,0,.18.01.28.03.24.06.45.17.61.35.1.11.15.23.15.37,0,.04,0,.09-.02.15-.04.19-.16.32-.35.38-.59.19-1.27.38-2.04.56ZM108.85,76.79c.15-.15.33-.22.54-.22s.39.08.54.22.22.33.22.54v7.82c0,.21-.08.39-.22.54s-.33.22-.54.22-.39-.08-.54-.22-.22-.33-.22-.54v-7.82c0-.21.07-.39.22-.54ZM112.7,75.66c0-.22.08-.41.23-.56s.34-.23.56-.23.4.08.56.23c.15.16.23.34.23.56v12.49c0,.49-.06.86-.19,1.12-.13.26-.34.46-.64.59-.44.18-1.22.27-2.34.28h-.02c-.24,0-.46-.07-.65-.22-.2-.16-.34-.35-.43-.6-.02-.08-.03-.15-.03-.22,0-.11.04-.22.12-.32.11-.17.26-.25.45-.25h.02c.42.01.78.02,1.08.02h.61c.17,0,.28-.03.35-.09.07-.06.1-.17.1-.32v-12.49Z" style="fill: #fff;"/>
        <path d="M123.11,77.35c.18,0,.33.06.45.18s.18.27.18.44-.06.32-.18.45c-.12.13-.27.19-.45.19h-5.23c-.18,0-.33-.06-.45-.19s-.18-.28-.18-.45.06-.32.18-.44c.12-.12.27-.18.45-.18h5.23ZM122.14,84.22c.28,0,.51.09.7.28s.28.42.28.7v3.04c0,.27-.09.5-.28.69-.19.19-.42.29-.7.29h-2.69c-.06,0-.08.02-.08.07,0,.18-.06.33-.18.46-.12.13-.27.19-.45.19h-.05c-.19,0-.35-.07-.48-.2s-.2-.29-.2-.48v-4.05c0-.28.1-.51.29-.7.19-.19.42-.28.69-.28h3.15ZM122.29,79.66c.23,0,.43.08.6.25s.25.37.25.61c0,.02.01.04.03.05.02.01.04.01.07,0,.66-.46,1.11-.99,1.34-1.57s.35-1.23.35-1.93v-1.03c0-.28.09-.51.28-.7.19-.19.42-.28.7-.28h3.5c.27,0,.5.09.69.28.19.19.29.42.29.7v3c0,.2.01.33.04.38.03.06.1.08.22.08h.66c.11,0,.19-.07.23-.21.04-.14.08-.43.1-.87.01-.15.08-.27.22-.34s.27-.08.42,0c.2.08.36.21.48.38.1.14.15.29.15.45v.1c-.08.7-.22,1.18-.44,1.45s-.54.4-.99.4h-1.08c-.6,0-1-.12-1.22-.37s-.32-.72-.32-1.42v-2.47c0-.08-.04-.12-.12-.12h-2.21c-.08,0-.12.04-.12.12v.5c0,1.69-.46,3.02-1.4,3.97-.19.17-.4.25-.63.25h-.08c-.27-.02-.51-.13-.73-.32-.17-.13-.3-.24-.42-.32-.02-.01-.03,0-.03.02,0,.05-.02.1-.06.14-.04.04-.09.06-.14.06h-4.28c-.17,0-.31-.06-.43-.18-.12-.12-.18-.27-.18-.43s.06-.31.18-.43c.12-.12.27-.18.43-.18h3.64ZM118.66,83.16c-.17,0-.31-.06-.43-.18s-.18-.27-.18-.44.06-.32.18-.44c.12-.12.27-.18.43-.18h3.87c.17,0,.31.06.43.18.12.12.18.27.18.44s-.06.32-.18.44-.27.18-.43.18h-3.87ZM122.48,75.11c.17,0,.31.06.43.18.12.12.18.27.18.44s-.06.32-.18.43-.27.17-.43.17h-3.74c-.18,0-.33-.06-.45-.17s-.18-.26-.18-.43.06-.32.18-.44c.12-.12.27-.18.45-.18h3.74ZM121.75,85.62c0-.09-.04-.13-.12-.13h-2.14c-.08,0-.12.04-.12.13v2.19c0,.09.04.13.12.13h2.14c.08,0,.12-.04.12-.13v-2.19ZM130.76,81.8c.05-.01.11-.02.17-.02.11,0,.22.02.33.07l.27.1c.14.05.25.15.32.29.07.14.09.28.04.42-.54,1.73-1.38,3.18-2.52,4.35-.06.07-.05.12.02.17.84.56,1.78,1.02,2.81,1.36.18.06.29.18.35.37.02.06.03.11.03.17,0,.12-.04.24-.12.35-.16.2-.35.34-.58.43-.12.04-.24.07-.37.07-.11,0-.22-.02-.33-.05-1.12-.42-2.11-.97-2.99-1.64-.07-.06-.13-.06-.2-.02-.94.7-2.01,1.26-3.21,1.68-.1.03-.2.05-.3.05-.12,0-.24-.03-.35-.08-.22-.09-.39-.24-.51-.45-.07-.11-.1-.22-.1-.33,0-.12.04-.24.12-.35.08-.1.18-.17.3-.2,1.04-.33,2-.79,2.87-1.38.08-.04.09-.1.03-.17-.72-.79-1.32-1.65-1.81-2.61-.05-.09-.08-.18-.08-.28,0-.08.02-.16.07-.25.08-.18.21-.3.4-.37.09-.02.17-.03.25-.03.11,0,.22.03.33.08.2.08.35.21.45.4.41.77.92,1.47,1.54,2.09.05.06.12.06.18,0,.77-.76,1.38-1.65,1.81-2.66.01-.02,0-.05,0-.08-.02-.03-.04-.04-.06-.04h-5.25c-.2,0-.37-.07-.51-.21-.14-.14-.22-.31-.22-.51s.07-.37.22-.51.32-.22.51-.22h6.09Z" style="fill: #fff;"/>
        <path d="M141.26,77.35c.17,0,.31.06.44.18.13.12.19.27.19.44s-.06.32-.19.45c-.13.13-.27.19-.44.19h-5.53c-.18,0-.33-.06-.45-.19s-.18-.28-.18-.45.06-.32.18-.44c.12-.12.27-.18.45-.18h5.53ZM140.21,84.22c.27,0,.5.09.69.28.19.19.29.42.29.7v3.04c0,.27-.1.5-.29.69-.19.19-.42.29-.69.29h-2.87c-.06,0-.08.02-.08.07,0,.18-.06.33-.18.46-.12.13-.27.19-.45.19h-.07c-.19,0-.35-.07-.49-.21s-.21-.3-.21-.49v-4.03c0-.28.1-.51.29-.7.19-.19.42-.28.69-.28h3.37ZM136.51,80.89c-.17,0-.31-.06-.43-.18-.12-.12-.18-.27-.18-.43s.06-.31.18-.43c.12-.12.27-.18.43-.18h4.12c.17,0,.31.06.43.18.12.12.18.27.18.43s-.06.31-.18.43-.27.18-.43.18h-4.12ZM136.51,83.16c-.17,0-.31-.06-.43-.18s-.18-.27-.18-.44.06-.32.18-.44c.12-.12.27-.18.43-.18h4.1c.18,0,.33.06.45.18.12.12.18.27.18.44s-.06.32-.18.44c-.12.12-.27.18-.45.18h-4.1ZM140.63,75.11c.18,0,.33.06.45.18s.18.27.18.44-.06.32-.18.43c-.12.12-.27.17-.45.17h-4c-.18,0-.33-.06-.45-.17s-.18-.26-.18-.43.06-.32.18-.44c.12-.12.27-.18.45-.18h4ZM139.78,85.62c0-.09-.04-.13-.13-.13h-2.26c-.09,0-.13.04-.13.13v2.19c0,.09.04.13.13.13h2.26c.09,0,.13-.04.13-.13v-2.19ZM150.11,80.26c.22,0,.41.08.56.23.15.15.22.34.22.56s-.08.4-.22.55-.33.22-.56.22h-2.76c-.09,0-.13.04-.13.13v7.39c0,.22-.08.41-.23.56-.16.16-.34.23-.56.23s-.41-.08-.56-.23c-.16-.16-.23-.34-.23-.56v-7.39c0-.09-.04-.13-.13-.13h-2.87c-.22,0-.41-.08-.56-.22-.15-.15-.23-.33-.23-.55s.08-.4.23-.56.34-.23.56-.23h2.87c.09,0,.13-.04.13-.13v-4.73c0-.22.08-.41.23-.56s.34-.23.56-.23.41.08.56.23c.15.16.23.34.23.56v4.73c0,.09.04.13.13.13h2.76Z" style="fill: #fff;"/>
        <path d="M157.08,83.94c-.37,0-.67-.13-.92-.39-.25-.26-.37-.58-.37-.97s.12-.73.37-1,.56-.4.92-.4.69.13.95.4.38.6.38,1-.13.71-.38.97c-.25.26-.57.39-.95.39Z" style="fill: #fff;"/>
        <path d="M178.39,85.19c.18,0,.33.06.46.18.13.12.19.27.19.45s-.06.33-.19.46c-.13.13-.28.19-.46.19h-3.15c-.09,0-.13.04-.13.12v1.98c0,.39-.05.69-.16.9s-.31.37-.61.48c-.38.13-1.07.2-2.08.2-.2,0-.38-.07-.55-.2s-.29-.3-.37-.5c-.05-.16-.04-.3.05-.44.09-.14.22-.21.38-.21.34.01.63.02.85.02.27,0,.46,0,.6-.02s.22-.04.27-.08c.04-.04.07-.11.07-.21v-1.93c0-.08-.04-.12-.12-.12h-5.4s-.04,0-.04.02c0,.02,0,.03,0,.04.62.4,1.17.81,1.66,1.25.16.13.23.3.23.5,0,.22-.08.4-.25.55-.15.13-.33.2-.53.2h-.03c-.21-.01-.4-.09-.56-.25-.4-.37-.86-.75-1.39-1.15-.19-.14-.28-.34-.28-.58,0-.2.08-.37.23-.51.01-.01.01-.03,0-.04s-.02-.02-.03-.02h-2.69c-.18,0-.33-.06-.46-.19-.13-.13-.19-.28-.19-.46s.06-.33.19-.45c.13-.12.28-.18.46-.18h9.08c.08,0,.12-.04.12-.13v-.61c0-.08-.04-.12-.12-.12-3.22.08-6.02.13-8.4.17-.17.01-.31-.04-.43-.16s-.18-.26-.18-.42c-.01-.17.04-.31.15-.42s.25-.17.42-.17c.91,0,2.72-.01,5.45-.03.09,0,.13-.04.13-.12v-.55c0-.09-.04-.13-.13-.13h-3.95c-.28,0-.51-.09-.7-.28-.19-.19-.28-.42-.28-.7v-2.76c0-.27.09-.5.28-.69s.42-.29.7-.29h3.95c.09,0,.13-.04.13-.12v-.55c0-.09-.04-.13-.13-.13h-5.63c-.18,0-.32-.06-.44-.17s-.17-.26-.17-.43.06-.32.17-.43.26-.17.44-.17h5.63c.09,0,.13-.04.13-.13v-.3c0-.21.08-.39.22-.54s.33-.22.55-.22.4.08.55.22.22.33.22.54v.3c0,.09.04.13.13.13h5.53c.17,0,.31.06.43.17.12.12.18.26.18.43s-.06.32-.18.43c-.12.12-.27.17-.43.17h-5.53c-.09,0-.13.04-.13.13v.55c0,.08.04.12.13.12h4.12c.28,0,.51.1.7.29.19.19.28.42.28.69v2.76c0,.28-.09.51-.28.7-.19.19-.42.28-.7.28h-.46s-.03,0-.03.02,0,.03.02.03c.73.33,1.4.7,2.01,1.11.13.09.2.22.22.38.01.17-.04.3-.17.42-.13.12-.29.19-.47.19-.18,0-.35-.04-.51-.14-.08-.06-.17-.12-.27-.18-.08-.04-.16-.07-.23-.07l-1.23.02c-.09.01-.13.06-.13.13v.66c0,.09.04.13.13.13h3.15ZM167.11,78.79c-.08,0-.12.04-.12.12v.61c0,.08.04.12.12.12h3.32c.09,0,.13-.04.13-.12v-.61c0-.08-.04-.12-.13-.12h-3.32ZM167,81.37c0,.09.04.13.12.13h3.32c.09,0,.13-.04.13-.13v-.63c0-.09-.04-.13-.13-.13h-3.32c-.08,0-.12.04-.12.13v.63ZM175.8,78.91c0-.08-.04-.12-.12-.12h-3.44c-.09,0-.13.04-.13.12v.61c0,.08.04.12.13.12h3.44c.08,0,.12-.04.12-.12v-.61ZM175.68,81.5c.08,0,.12-.04.12-.13v-.63c0-.09-.04-.13-.12-.13h-3.44c-.09,0-.13.04-.13.13v.63c0,.09.04.13.13.13h3.44ZM172.25,82.48c-.09,0-.13.04-.13.13v.55c0,.08.04.12.13.12l2.47-.03s.03,0,.03-.03,0-.02-.02-.02c-.17-.08-.33-.16-.5-.23-.1-.03-.16-.1-.17-.2s.01-.18.09-.25c.01,0,.01-.01,0-.03h-1.91Z" style="fill: #fff;"/>
        <path d="M186.68,76.69c-.09.02-.13.07-.13.15v2.61c0,.09.04.13.13.13h2.22c.2,0,.37.07.51.22.14.14.22.32.22.51s-.07.37-.22.51-.32.22-.51.22h-2.22c-.09,0-.13.04-.13.13v.86c0,.09.03.15.1.2.54.4,1.33,1.05,2.37,1.94.18.16.28.35.3.58.01.04.02.08.02.12,0,.19-.05.36-.17.51-.11.17-.27.25-.46.27h-.07c-.18,0-.33-.07-.45-.2-.51-.53-1.02-1.05-1.54-1.56-.02-.01-.04-.01-.07,0-.02,0-.03.02-.03.04v5.41c0,.22-.07.41-.22.56s-.33.22-.55.22-.4-.07-.55-.22-.22-.33-.22-.56v-5.84s0-.03-.02-.03-.03,0-.03.02c-.74,1.53-1.51,2.79-2.31,3.79-.11.12-.25.18-.42.18h-.1c-.2-.03-.35-.14-.45-.32-.1-.19-.15-.38-.15-.58v-.13c.03-.25.13-.48.3-.66.53-.61,1.05-1.32,1.54-2.14s.92-1.64,1.26-2.46c.01-.02,0-.05,0-.08-.02-.03-.04-.04-.08-.04h-2.22c-.2,0-.37-.07-.51-.22-.14-.14-.22-.32-.22-.51s.07-.37.22-.51c.14-.14.32-.22.51-.22h2.56c.08,0,.12-.04.12-.13v-2.27c0-.09-.04-.12-.12-.1-.79.16-1.55.28-2.31.38h-.1c-.14,0-.28-.04-.42-.12-.16-.11-.27-.25-.33-.43-.06-.15-.05-.3.03-.44.07-.14.18-.22.34-.26,2.31-.38,4.14-.8,5.5-1.28.14-.05.29-.08.45-.08.09,0,.18.01.28.03.24.06.45.17.61.35.1.11.15.23.15.37,0,.04,0,.09-.02.15-.04.19-.16.32-.35.38-.59.19-1.27.38-2.04.56ZM190.85,76.79c.15-.15.33-.22.54-.22s.39.08.54.22.22.33.22.54v7.82c0,.21-.08.39-.22.54s-.33.22-.54.22-.39-.08-.54-.22-.22-.33-.22-.54v-7.82c0-.21.07-.39.22-.54ZM194.69,75.66c0-.22.08-.41.23-.56s.34-.23.56-.23.4.08.56.23c.15.16.23.34.23.56v12.49c0,.49-.06.86-.19,1.12-.13.26-.34.46-.64.59-.44.18-1.22.27-2.34.28h-.02c-.24,0-.46-.07-.65-.22-.2-.16-.34-.35-.43-.6-.02-.08-.03-.15-.03-.22,0-.11.04-.22.12-.32.11-.17.26-.25.45-.25h.02c.42.01.78.02,1.08.02h.61c.17,0,.28-.03.35-.09.07-.06.1-.17.1-.32v-12.49Z" style="fill: #fff;"/>
        <path d="M201.82,83.53c-.01.09.02.13.1.13h2.04c.27,0,.49.09.68.28.16.18.23.38.23.61,0,1-.12,2.19-.37,3.57-.13.74-.31,1.24-.53,1.49-.3.3-.68.46-1.15.5-.21.02-.5.03-.88.03h-.23c-.2,0-.38-.07-.53-.21-.16-.14-.27-.31-.33-.52-.04-.14-.02-.28.07-.42s.21-.19.37-.18c.27.01.57.02.91.02.24,0,.43-.06.56-.17.28-.28.5-1.47.66-3.59.01-.08-.03-.12-.12-.12h-1.71c-.08,0-.12.03-.13.1-.02.08-.04.14-.05.2-.06.2-.17.35-.33.46-.13.08-.27.12-.42.12-.04,0-.09,0-.15-.02-.19-.03-.33-.13-.43-.28-.07-.11-.1-.23-.1-.35,0-.07,0-.13.02-.18.23-.89.43-1.73.6-2.52.02-.08-.01-.12-.1-.12h-.55c-.19,0-.35-.07-.49-.21-.14-.14-.21-.3-.21-.49s.07-.35.21-.49.3-.21.49-.21h5.01c.19,0,.35.07.49.21.14.14.21.3.21.49s-.07.35-.21.49-.3.21-.49.21h-2.79c-.08,0-.13.04-.15.12-.08.44-.15.79-.22,1.03ZM204.01,75.14c.28,0,.51.09.7.28.19.19.28.42.28.7v2.87c0,.27-.09.5-.28.69s-.42.29-.7.29h-3.02c-.27,0-.5-.1-.69-.29-.19-.19-.29-.42-.29-.69v-2.87c0-.28.1-.51.29-.7.19-.19.42-.28.69-.28h3.02ZM203.41,78.68c.08,0,.12-.04.12-.13v-1.99c0-.08-.04-.12-.12-.12h-1.86c-.09,0-.13.04-.13.12v1.99c0,.09.04.13.13.13h1.86ZM207.65,79.09c-.08,0-.12.04-.12.13v2.96c0,1.36-.1,2.69-.31,3.98-.21,1.29-.58,2.43-1.14,3.43-.09.17-.23.27-.42.3h-.12c-.14,0-.28-.05-.42-.15-.15-.11-.26-.27-.32-.46-.01-.07-.02-.13-.02-.18,0-.13.03-.25.1-.37.48-.9.79-1.89.96-2.99.16-1.1.24-2.28.24-3.55v-3.35c0-.28.09-.51.28-.7.19-.19.42-.28.7-.28h2.14c.08,0,.12-.04.12-.13v-2.42c0-.2.07-.37.22-.52s.33-.22.54-.22.39.08.53.22c.14.15.22.32.22.52v.18c0,.08.04.12.13.12h2.59c.18,0,.33.06.45.19.12.13.18.28.18.46s-.06.33-.18.45-.27.18-.45.18h-2.59c-.09,0-.13.04-.13.13v.71c0,.09.04.13.13.13h2.77s.03,0,.05-.02c.14-.04.29-.04.43,0l.27.07c.13.03.24.11.32.22.08.12.1.24.08.37-.12.74-.26,1.42-.42,2.04-.03.17-.12.29-.27.38-.15.09-.3.11-.46.07s-.29-.13-.38-.27c-.09-.14-.13-.3-.11-.48.07-.33.12-.67.15-1.01.01-.09-.03-.13-.12-.13h-2.34c-.09,0-.13.04-.13.13v.95c0,.09.04.13.13.12l1.13-.1c.15-.01.29.03.41.12s.19.21.21.36c.02.14-.01.27-.11.39s-.21.18-.36.19l-1.28.13c-.09.01-.13.05-.13.13v.42c0,.19.03.31.09.36s.2.08.42.08h1.38c.12,0,.22-.02.28-.07.07-.04.11-.14.13-.28.03-.14.11-.25.24-.32s.26-.08.41-.03c.18.05.32.16.42.31s.13.31.08.49c-.09.39-.24.65-.44.8s-.52.22-.94.22h-1.76c-.69,0-1.14-.1-1.37-.31-.23-.2-.34-.62-.34-1.24v-.28c0-.08-.04-.12-.12-.12l-.81.1c-.16.01-.29-.03-.41-.12-.12-.09-.19-.22-.21-.37-.02-.14.01-.27.11-.39s.21-.19.36-.21l.96-.08c.08-.01.12-.06.12-.13v-1.1c0-.09-.04-.13-.12-.13h-1.66ZM208.58,84.8c.01-.19.08-.35.22-.48s.3-.2.49-.2.35.07.47.21c.13.14.19.3.17.47-.09,1.22-.28,2.23-.56,3.03-.29.8-.76,1.46-1.43,1.98-.12.08-.25.12-.38.12-.04,0-.09,0-.15-.02-.19-.04-.35-.15-.48-.32-.09-.12-.13-.25-.13-.4v-.08c.02-.18.11-.32.25-.43.51-.41.88-.92,1.1-1.54.22-.61.37-1.4.43-2.35ZM212.88,88.49h.46c.19,0,.32-.03.38-.1.09-.04.16-.16.22-.33.02-.22.04-.54.05-.96,0-.13.06-.23.18-.3.12-.07.24-.07.37,0,.18.1.32.23.42.4.09.14.13.3.13.46,0,.42-.05.87-.15,1.34-.11.3-.3.53-.56.7-.22.14-.53.22-.91.22h-.95c-.5,0-.85-.12-1.06-.35-.14-.12-.24-.27-.28-.46-.04-.18-.07-.49-.07-.92v-3.39c0-.19.07-.35.2-.48s.29-.2.48-.2.35.07.48.2.2.29.2.48v3.34c0,.13.03.22.08.25.09.07.2.1.33.1Z" style="fill: #fff;"/>
        <path d="M224.55,81.96c-.25.26-.56.39-.93.39s-.68-.13-.93-.39c-.25-.26-.37-.58-.37-.97s.12-.73.37-1,.56-.4.93-.4.68.13.93.4.37.6.37,1-.12.71-.37.97ZM224.55,88.64c-.25.25-.56.38-.93.38s-.68-.13-.93-.38-.37-.58-.37-.97.12-.72.37-1c.25-.27.56-.41.93-.41s.68.14.93.41c.25.27.37.6.37,1s-.12.72-.37.97Z" style="fill: #fff;"/>
        <path d="M234.83,88.55c-.17.17-.38.26-.62.26s-.45-.09-.63-.26c-.18-.17-.27-.38-.27-.62v-10.66c0-.27.1-.5.29-.69.19-.19.42-.29.69-.29h.32c.29,0,.55.09.8.26s.42.4.51.67l1.96,5.4c.1.3.24.73.42,1.29.18.56.31.96.39,1.2.01.03.03.05.06.05s.05-.02.06-.05c.09-.25.22-.66.39-1.22.17-.56.31-.98.41-1.27l1.94-5.4c.09-.28.25-.5.5-.67.24-.17.51-.26.8-.26h.33c.27,0,.5.1.69.29s.29.42.29.69v10.63c0,.25-.09.47-.27.65s-.4.27-.66.27-.47-.09-.65-.27c-.18-.18-.27-.39-.27-.65v-5.28c0-.69.08-1.96.25-3.84,0-.02-.01-.03-.03-.03s-.03.01-.03.03l-1,2.86-1.98,5.4c-.05.17-.16.3-.32.41-.15.11-.32.16-.51.16s-.35-.05-.5-.16c-.15-.1-.26-.24-.32-.41l-1.98-5.4-.98-2.86s-.01-.03-.04-.03-.04.01-.03.03c.16,2.09.23,3.37.23,3.84v5.31c0,.24-.09.45-.26.62Z" style="fill: #fff;"/>
        <path d="M254.77,76.87c.19.13.28.33.28.58,0,.21-.07.39-.22.55-.13.16-.32.23-.55.23h-.03c-.21,0-.4-.05-.56-.17-.43-.28-.88-.42-1.34-.42-.86,0-1.57.37-2.11,1.1s-.84,1.92-.9,3.54c0,.02,0,.04.03.05.02.01.04,0,.06-.02.35-.41.77-.74,1.25-.98.48-.24.94-.37,1.39-.37,1.08,0,1.94.33,2.57,1,.63.67.95,1.65.95,2.95,0,1.21-.36,2.19-1.09,2.95-.73.76-1.61,1.14-2.67,1.14-1.26,0-2.3-.53-3.1-1.59s-1.21-2.61-1.21-4.63c0-1.16.13-2.19.39-3.08.26-.89.61-1.6,1.06-2.12.45-.52.95-.91,1.49-1.16.55-.25,1.14-.38,1.78-.38.95,0,1.79.27,2.52.81ZM251.81,87.53c.56,0,1.03-.24,1.39-.71.37-.47.55-1.1.55-1.88s-.17-1.44-.52-1.88-.86-.65-1.54-.65c-.84,0-1.59.45-2.26,1.36-.04.07-.06.14-.05.22.1,1.18.36,2.07.78,2.66s.97.88,1.64.88Z" style="fill: #fff;"/>
        <path d="M259.42,88.81c-.22,0-.41-.08-.57-.23-.16-.16-.24-.35-.24-.57s.08-.42.24-.57c.16-.16.35-.23.57-.23h1.79c.09,0,.13-.04.13-.13v-8.45c0-.09-.04-.13-.13-.13h-1.49c-.17,0-.31-.06-.43-.17s-.18-.26-.18-.44.06-.33.17-.47.25-.23.43-.27c.56-.13,1.05-.29,1.46-.48.52-.23.99-.35,1.39-.35.21,0,.39.07.53.22.14.14.22.32.22.53v10.03c0,.09.04.13.12.13h1.53c.22,0,.41.08.56.23.16.16.23.35.23.57s-.08.42-.23.57c-.15.16-.34.23-.56.23h-5.53Z" style="fill: #fff;"/>
        <path d="M272.52,89.02c-1.26,0-2.25-.55-2.97-1.66s-1.08-2.73-1.08-4.86.36-3.72,1.08-4.81,1.71-1.64,2.97-1.64,2.24.55,2.96,1.64c.72,1.1,1.09,2.7,1.09,4.8s-.36,3.74-1.09,4.86c-.73,1.11-1.71,1.67-2.96,1.67ZM270.93,86.28c.39.8.92,1.2,1.59,1.2s1.21-.4,1.59-1.2.58-2.06.58-3.79c0-3.27-.72-4.9-2.17-4.9s-2.17,1.63-2.17,4.9c0,1.73.19,2.99.58,3.79Z" style="fill: #fff;"/>
        <path d="M279.75,88.22c-.2-.14-.3-.34-.3-.58,0-.21.07-.39.22-.55.13-.16.31-.24.53-.25h.07c.2,0,.38.06.55.17.44.28.92.42,1.44.42.82,0,1.49-.37,2.03-1.11s.84-1.93.91-3.55c0-.02-.01-.04-.03-.04-.02,0-.04,0-.05,0-.37.42-.79.75-1.26,1s-.95.37-1.41.37c-1.07,0-1.93-.33-2.56-1-.63-.67-.95-1.64-.95-2.91s.36-2.21,1.08-2.97,1.6-1.15,2.64-1.15c1.27,0,2.31.52,3.12,1.55.81,1.04,1.21,2.54,1.21,4.52,0,1.18-.13,2.23-.38,3.14-.25.91-.6,1.63-1.05,2.17-.44.54-.93.94-1.48,1.2-.54.26-1.12.39-1.74.39-.99,0-1.85-.27-2.59-.8ZM282.77,82.68c.85,0,1.63-.48,2.32-1.43.04-.07.06-.14.05-.22-.1-1.16-.37-2.03-.8-2.61-.43-.58-.99-.86-1.68-.86-.55,0-1.01.24-1.37.71-.36.47-.54,1.1-.54,1.9s.17,1.41.52,1.85c.35.44.84.66,1.49.66Z" style="fill: #fff;"/>
        <path d="M291.01,88.81c-.22,0-.41-.08-.57-.23-.16-.16-.24-.35-.24-.57s.08-.42.24-.57c.16-.16.35-.23.57-.23h1.79c.09,0,.13-.04.13-.13v-8.45c0-.09-.04-.13-.13-.13h-1.49c-.17,0-.31-.06-.43-.17s-.18-.26-.18-.44.06-.33.17-.47.25-.23.43-.27c.56-.13,1.05-.29,1.46-.48.52-.23.99-.35,1.39-.35.21,0,.39.07.53.22.14.14.22.32.22.53v10.03c0,.09.04.13.12.13h1.53c.22,0,.41.08.56.23.16.16.23.35.23.57s-.08.42-.23.57c-.15.16-.34.23-.56.23h-5.53Z" style="fill: #fff;"/>
        <path d="M304.12,89.02c-1.17,0-2.15-.31-2.92-.94-.77-.62-1.16-1.42-1.16-2.38,0-.76.21-1.43.62-1.99s.94-1.02,1.58-1.36c.02-.01.03-.03.03-.06s-.01-.05-.03-.07c-1.1-.79-1.64-1.75-1.64-2.89,0-.97.33-1.76,1-2.35.67-.59,1.52-.89,2.56-.89s1.93.3,2.57.91c.64.61.96,1.41.96,2.41,0,.58-.16,1.12-.47,1.64s-.69.94-1.14,1.27c-.02.02-.03.05-.03.07s.01.05.03.06c1.38.81,2.08,1.91,2.08,3.3,0,.94-.38,1.72-1.13,2.34-.75.62-1.73.93-2.92.93ZM304.16,87.61c.64,0,1.16-.17,1.56-.52s.6-.81.6-1.39c0-.3-.05-.57-.17-.81-.11-.24-.24-.45-.39-.61s-.37-.33-.66-.51c-.29-.17-.56-.31-.79-.42-.23-.1-.55-.25-.96-.42-.02-.01-.05-.02-.08-.02-.04,0-.08.02-.12.05-.42.31-.75.68-1,1.12-.24.44-.37.91-.37,1.42,0,.62.23,1.13.68,1.52.45.39,1.02.59,1.69.59ZM304.82,81.8c.08.03.14.02.2-.03.7-.68,1.05-1.42,1.05-2.24,0-.6-.17-1.08-.51-1.46-.34-.38-.81-.56-1.41-.56-.52,0-.95.17-1.29.5-.34.33-.51.78-.51,1.33,0,.6.21,1.08.64,1.45.43.37,1.04.71,1.83,1.02Z" style="fill: #fff;"/>
      </g>
      <g>
        <path d="M38.04,1.65c.27-.07.53-.03.76.1l.69.41c.32.17.54.42.66.76.08.19.13.37.13.56,0,.14-.03.28-.08.43-.8,2.54-1.46,4.5-1.98,5.89-.03.12-.02.23.05.33,1.24,1.56,1.85,3.29,1.85,5.21,0,1.71-.4,2.84-1.19,3.4-.39.3-.9.5-1.52.58-.08.02-.19.03-.3.03-.05.02-.09.03-.13.03-.34,0-.64-.12-.91-.36-.3-.29-.51-.63-.61-1.04-.02-.1-.03-.19-.03-.28,0-.2.07-.41.2-.61.19-.25.44-.41.76-.46.19-.03.35-.1.48-.2.3-.22.46-.72.46-1.5,0-1.17-.33-2.31-.99-3.43-.37-.61-.56-1.22-.56-1.83,0-.27.03-.54.1-.81.37-1.27.74-2.69,1.09-4.27.03-.12-.02-.18-.15-.18h-1.9c-.14,0-.2.07-.2.2v18.76c0,.41-.14.75-.42,1.03s-.62.42-1.02.42-.74-.14-1.02-.42-.42-.62-.42-1.03V3.17c0-.42.14-.78.43-1.07s.64-.43,1.07-.43h4.6s.07,0,.1-.03ZM54.35,5.14c.28.28.42.61.42,1s-.14.72-.42,1-.61.42-1,.42h-6.55c-.14,0-.2.07-.2.2-.02.71-.05,1.61-.1,2.69-.02.14.04.2.18.2h5.43c.41,0,.75.14,1.04.43.29.29.43.63.43,1.02,0,2.66-.16,5.43-.48,8.3-.17,1.59-.44,2.63-.81,3.12-.29.36-.59.62-.9.79s-.7.29-1.16.36c-.44.07-1.07.1-1.88.1-.42,0-.79-.14-1.1-.43-.31-.29-.53-.64-.65-1.07-.02-.07-.03-.14-.05-.23-.03-.1-.05-.2-.05-.3,0-.2.06-.39.18-.56.19-.25.42-.38.71-.38h.08c.42.02.82.03,1.19.03.41,0,.71-.13.91-.38.24-.24.42-.95.55-2.13s.23-3.08.32-5.69c0-.12-.07-.18-.2-.18h-3.81c-.14,0-.21.06-.23.18-.32,2.34-.91,4.35-1.75,6.04-.85,1.69-2.11,3.12-3.78,4.29-.25.15-.51.23-.76.23-.12,0-.24-.02-.36-.05-.39-.08-.72-.3-.99-.63-.03-.03-.06-.07-.08-.1-.2-.24-.3-.5-.3-.79v-.18c.05-.36.22-.64.51-.86.71-.47,1.33-1.01,1.87-1.6s.97-1.25,1.31-1.98c.34-.73.62-1.44.84-2.15.22-.7.39-1.54.51-2.5.12-.97.2-1.85.24-2.64.04-.79.07-1.78.09-2.95.02-.13-.04-.2-.18-.2h-1.93c-.41,0-.75-.14-1.03-.42s-.42-.61-.42-1,.14-.72.42-1,.62-.42,1.03-.42h4.14c.13,0,.2-.07.2-.2v-2.46c0-.42.14-.78.43-1.07.29-.29.64-.43,1.07-.43h.05c.42,0,.78.14,1.07.43s.43.64.43,1.07v2.46c0,.14.07.2.2.2h4.34c.39,0,.72.14,1,.42Z" style="fill: #fff;"/>
        <path d="M62.6,10.64c.42,0,.78.15,1.07.44.29.3.43.65.43,1.05v6.6c0,.14.03.25.1.36.96,1.51,2.76,2.31,5.38,2.41,1.3.05,2.67.08,4.09.08,2.29,0,4.71-.07,7.26-.2h.08c.3,0,.55.13.74.38.14.19.2.38.2.58,0,.1-.02.21-.05.33-.02.05-.03.1-.05.15-.14.44-.37.8-.71,1.08s-.73.43-1.17.44c-2.08.07-4.03.1-5.84.1-1.64,0-3.17-.03-4.57-.08-1.54-.07-2.84-.31-3.9-.74-1.06-.42-1.96-1.09-2.7-2.01-.08-.1-.17-.11-.25-.03-.75.73-1.46,1.4-2.16,2.01-.22.2-.47.3-.74.3-.08,0-.17-.02-.25-.05-.37-.07-.63-.27-.79-.61l-.18-.38c-.12-.24-.18-.47-.18-.71,0-.17.03-.33.08-.48.12-.41.35-.74.69-.99.66-.46,1.28-.93,1.85-1.42.1-.08.15-.19.15-.33v-5.28c0-.12-.07-.18-.2-.18h-1.29c-.39,0-.72-.14-1-.42-.28-.28-.42-.61-.42-1s.14-.72.42-1,.61-.42,1-.42h2.92ZM63.87,4.16c.24.25.36.55.36.89,0,.07,0,.14-.03.2-.05.41-.25.74-.58.99l-.15.13c-.27.19-.55.28-.84.28-.08,0-.17,0-.25-.03-.39-.05-.71-.24-.96-.56-.54-.68-1.19-1.38-1.96-2.11-.25-.25-.38-.55-.38-.89,0-.42.16-.75.48-.99.32-.25.69-.38,1.12-.38h.05c.44.02.82.17,1.14.46.78.69,1.45,1.36,2.01,2.01ZM68.34,19.58c-.42,0-.78-.14-1.07-.43-.29-.29-.43-.64-.43-1.07v-8.25s-.02-.06-.05-.08c-.03-.02-.06-.02-.08,0l-.2.2c-.25.25-.56.38-.92.38h-.1c-.41-.03-.75-.2-1.04-.51-.07-.08-.14-.16-.23-.23-.25-.29-.38-.61-.38-.96,0-.42.15-.78.46-1.07,1.62-1.54,2.96-3.39,4.01-5.56.19-.39.47-.68.86-.86.24-.12.47-.18.71-.18.15,0,.31.03.48.08l.18.05c.39.12.67.36.84.71.08.17.13.35.13.53s-.05.36-.15.53c-.19.41-.39.81-.61,1.22-.02.05-.02.09,0,.13.02.03.05.05.1.05h2.59c.12,0,.2-.06.25-.18.2-.56.41-1.16.61-1.8.12-.41.36-.72.74-.94.25-.17.53-.25.84-.25.1,0,.2,0,.3.03l.46.08c.37.08.64.3.81.63.08.15.13.31.13.48s-.04.34-.13.51c-.25.51-.47.93-.63,1.27-.03.05-.04.09-.01.13s.06.05.11.05h3.1c.36,0,.66.13.91.38s.38.56.38.93-.13.67-.38.93-.56.38-.91.38h-3.66c-.12,0-.18.06-.18.18v1.27c0,.12.06.18.18.18h3c.36,0,.66.12.9.37.25.25.37.54.37.89s-.12.64-.37.88c-.25.24-.55.36-.9.36h-3c-.12,0-.18.07-.18.2v1.32c0,.14.06.2.18.2h2.89c.36,0,.66.12.9.37.25.25.37.54.37.88s-.12.63-.37.88-.55.37-.9.37h-2.89c-.12,0-.18.07-.18.2v1.37c0,.14.06.2.18.2h4.09c.37,0,.69.13.94.38s.38.56.38.91-.13.66-.38.91-.57.38-.94.38h-12.11ZM73.01,8.51c.13,0,.2-.06.2-.18v-1.27c0-.12-.07-.18-.2-.18h-3c-.12,0-.18.06-.18.18v1.27c0,.12.06.18.18.18h3ZM73.01,12.72c.13,0,.2-.07.2-.2v-1.32c0-.13-.07-.2-.2-.2h-3c-.12,0-.18.07-.18.2v1.32c0,.14.06.2.18.2h3ZM73.01,16.99c.13,0,.2-.07.2-.2v-1.37c0-.14-.07-.2-.2-.2h-3c-.12,0-.18.07-.18.2v1.37c0,.14.06.2.18.2h3Z" style="fill: #fff;"/>
        <path d="M92.77,6.3c.14-.02.27-.03.41-.03.19,0,.38.03.58.1l.58.2c.3.12.53.32.69.61.12.2.18.42.18.63,0,.08,0,.18-.03.28-.61,3.01-1.52,5.67-2.72,7.97-1.05,2.05-2.27,3.71-3.66,4.98-.27.24-.58.36-.91.36h-.15c-.41-.03-.76-.2-1.07-.51l-.25-.25-.15-.15c-.27-.24-.41-.54-.41-.91s.14-.68.43-.91c2.44-2.08,4.18-5.1,5.23-9.07.02-.05,0-.09-.03-.13-.03-.03-.07-.05-.1-.05h-3.99c-.41,0-.76-.15-1.05-.44-.3-.3-.44-.65-.44-1.05v-.1c0-.41.15-.76.44-1.05.3-.3.65-.44,1.05-.44h5.23c.05,0,.09,0,.13-.03ZM105.41,5.21c.25-.32.58-.52.99-.58.08-.02.17-.03.25-.03.32,0,.61.09.86.28l.46.3c.32.24.5.55.53.94v.13c0,.34-.12.63-.36.89-1.93,1.98-3.79,3.67-5.59,5.08-.1.08-.12.18-.05.28,1.69,2.79,3.71,4.89,6.04,6.3.3.19.48.46.53.81.02.07.03.14.03.2,0,.27-.1.52-.3.74-.17.19-.33.38-.48.58-.25.34-.58.56-.99.66-.1.02-.21.03-.33.03-.27,0-.53-.08-.79-.23-2.84-2-5.15-4.94-6.91-8.84,0-.02-.01-.03-.04-.03s-.04.02-.04.05v7.47c0,.93-.11,1.65-.34,2.17s-.61.9-1.16,1.16c-.73.37-1.96.6-3.68.69h-.08c-.39,0-.74-.13-1.04-.38-.34-.27-.58-.62-.74-1.04-.07-.22-.14-.44-.23-.66-.05-.12-.08-.25-.08-.38,0-.17.05-.34.15-.51.19-.29.44-.43.76-.43h.03c.66.02,1.46.03,2.41.03.47,0,.71-.21.71-.63V1.5c0-.41.15-.76.44-1.05.3-.3.65-.44,1.05-.44h.28c.41,0,.76.15,1.05.44.3.3.44.65.44,1.05v2.89c0,.12.02.24.05.36.49,1.83,1.06,3.45,1.7,4.88.05.12.13.14.23.05,1.66-1.56,3.06-3.05,4.19-4.47Z" style="fill: #fff;"/>
        <path d="M117.33,21.69v1.92h-2.63v-7.98c-.31.47-.65.91-.99,1.33-.1-.83-.65-2.81-1.09-3.69,1.64-2.16,2.7-5.33,3.38-8.76h-2.94V1.69h9.78v2.81h-4c-.36,1.77-.81,3.56-1.38,5.25h4.58v11.93h-4.71ZM119.46,12.46h-2.13v6.53h2.13v-6.53ZM136.83,5.21c-1.72,10.22-6.4,16.64-12.64,19.73-.44-.7-1.53-1.95-2.26-2.44,2.99-1.35,5.54-3.35,7.51-6.08-1.04-1.09-2.47-2.34-3.77-3.48-.31.47-.65.91-.99,1.3-.52-.52-1.77-1.53-2.47-2,2.5-2.65,4.29-7.07,5.28-11.67l2.99.57c-.26,1.17-.6,2.31-.94,3.46h4.73l.57-.1,1.98.73ZM128.54,7.36c-.42,1.12-.91,2.16-1.43,3.17,1.33,1.04,2.78,2.26,3.95,3.33.96-1.92,1.74-4.06,2.29-6.5h-4.81Z" style="fill: #fff;"/>
        <path d="M163.01,10.68c-.25.26-.57.39-.94.39s-.69-.13-.95-.39c-.26-.26-.39-.57-.39-.93v-.86s-.02-.06-.05-.08c-.03-.02-.07-.02-.1,0-.8.75-1.56,1.35-2.29,1.83-.1.07-.11.14-.03.23,1.39,1.24,3,2.22,4.82,2.95.34.13.57.38.69.74.03.14.05.26.05.38,0,.22-.06.42-.18.61v.03c-.22.37-.52.63-.91.76-.17.07-.34.1-.51.1-.22,0-.44-.05-.66-.15-2.15-1.07-3.89-2.31-5.23-3.73-.08-.08-.17-.08-.25,0-.61.71-1.39,1.42-2.35,2.13-.96.71-1.97,1.34-3.03,1.88-.2.08-.42.13-.63.13-.17,0-.34-.03-.51-.08-.39-.15-.69-.41-.89-.76-.17-.27-.34-.53-.51-.79,0-.02-.02-.02-.05-.01-.03,0-.05.02-.05.04v6.6c0,.69-.06,1.24-.19,1.64s-.38.71-.75.95c-.41.27-.97.44-1.7.51h-.15c-.34,0-.65-.12-.94-.36-.32-.25-.53-.59-.63-1.02-.03-.1-.05-.2-.05-.3,0-.22.08-.43.23-.63.2-.29.47-.43.81-.43l.36.03c.25,0,.38-.14.38-.43v-5.21c0-.14-.07-.2-.2-.2h-1.42c-.14,0-.2.07-.2.2-.19,2.84-.56,5.22-1.12,7.13-.08.3-.29.51-.61.61-.12.05-.25.08-.38.08-.19,0-.36-.05-.53-.15-.34-.19-.58-.45-.71-.79-.1-.2-.15-.42-.15-.63,0-.14.02-.27.05-.41.69-2.54,1.04-6.34,1.04-11.4V2.97c0-.42.14-.78.43-1.07s.64-.43,1.07-.43h3.88c.42,0,.78.14,1.07.43.29.29.43.64.43,1.07v3c0,.05.02.08.06.1.04.02.08.02.11,0,.59-.37,1.15-.82,1.68-1.35.41-.41.85-.61,1.32-.61.19,0,.38.03.58.1.27.1.44.29.52.56.08.27.02.52-.17.74-.51.53-1.02,1-1.55,1.42-.29.22-.6.33-.94.33-.07,0-.14,0-.2-.03-.42-.05-.8-.23-1.14-.53l-.13-.13s-.07-.02-.1-.01c-.03,0-.05.04-.05.09v7.87c0,.05.02.09.06.11.04.03.08.03.11.01,1.05-.39,2.08-.91,3.09-1.55,1.01-.64,1.87-1.33,2.6-2.06.02-.02.02-.03.01-.05,0-.02-.02-.03-.04-.03-.22,0-.41-.08-.57-.23-.16-.15-.24-.35-.24-.58v-1.02s-.02-.06-.05-.08c-.03-.02-.06,0-.08.03-.69.73-1.42,1.37-2.18,1.93-.22.15-.46.23-.71.23h-.18c-.32-.05-.6-.19-.84-.43-.2-.2-.29-.44-.27-.72s.16-.5.39-.67c.64-.46,1.21-.95,1.7-1.47.27-.29.59-.48.96-.58.17-.05.34-.08.51-.08.19,0,.38.03.58.1.03.02.07.01.1-.01.03-.03.05-.05.05-.09v-3.5c0-.14-.07-.2-.2-.2h-2.72c-.32,0-.6-.11-.83-.34s-.34-.5-.34-.83.11-.6.34-.83.5-.34.83-.34h4.01c.42,0,.78.15,1.07.44.29.3.43.65.43,1.05v3.02c0,.05.02.08.06.1.04.02.08.02.11,0,.58-.34,1.12-.74,1.65-1.19.42-.37.85-.56,1.29-.56.2,0,.42.04.63.13.27.1.44.29.5.56.06.27-.01.5-.22.69-.46.44-.94.85-1.45,1.22-.29.2-.61.3-.96.3h-.2c-.41-.05-.78-.22-1.12-.51-.05-.05-.1-.09-.15-.13-.03-.03-.07-.04-.1-.03-.03.02-.05.04-.05.08v3.48c0,.12.07.18.2.18h1.12s.05,0,.06-.03c0-.02,0-.03-.01-.05-.19-.19-.27-.41-.24-.67.03-.26.15-.47.37-.62.54-.37,1.02-.76,1.45-1.17.27-.25.58-.42.94-.51.14-.03.27-.05.41-.05.2,0,.41.04.61.13.03,0,.07,0,.1-.03.03-.02.05-.04.05-.08v-3.22c0-.14-.07-.2-.2-.2h-2.87c-.32,0-.6-.11-.83-.34s-.34-.5-.34-.83.11-.6.34-.83.5-.34.83-.34h4.24c.42,0,.78.15,1.07.44s.43.65.43,1.05v7.01c0,.36-.13.67-.38.93ZM143.71,13.2c0,.14.07.2.2.2h1.29c.14,0,.2-.07.2-.2v-2.84c0-.12-.07-.18-.2-.18h-1.27c-.14,0-.2.06-.2.18v.51c0,1.02,0,1.79-.03,2.34ZM145.42,4.44c0-.14-.07-.2-.2-.2h-1.27c-.14,0-.2.07-.2.2v2.72c0,.14.07.2.2.2h1.27c.14,0,.2-.07.2-.2v-2.72ZM159.23,19.35c.49-.37.99-.56,1.5-.56.27,0,.54.06.81.18.3.12.48.34.53.66.02.07.03.13.03.18,0,.24-.09.44-.28.61-2.22,1.84-5.52,3.23-9.9,4.16-.12.03-.24.05-.36.05-.24,0-.47-.06-.71-.18-.36-.17-.64-.42-.86-.74-.17-.24-.2-.49-.1-.75s.3-.42.58-.47c3.88-.66,6.8-1.71,8.76-3.15ZM157.35,16.89c.41-.29.81-.43,1.22-.43.25,0,.51.05.76.17s.4.3.44.57-.05.49-.27.66c-1.66,1.29-3.81,2.36-6.45,3.22-.15.05-.3.08-.46.08s-.3-.03-.46-.08c-.3-.1-.57-.28-.79-.53-.17-.17-.22-.37-.17-.6.06-.23.21-.38.44-.44,2.35-.71,4.26-1.58,5.71-2.62ZM155.12,14.85c.39-.29.78-.43,1.17-.43.24,0,.47.05.71.15s.38.28.43.53-.03.47-.23.63c-1.05.86-2.29,1.65-3.73,2.36-.2.08-.41.13-.61.13-.1,0-.2,0-.28-.03-.3-.05-.58-.19-.81-.41-.17-.15-.25-.34-.23-.57.02-.23.13-.39.36-.5,1.27-.61,2.34-1.24,3.22-1.88Z" style="fill: #fff;"/>
        <path d="M185.77,9.5c-.1-.07-.22-.1-.36-.1h-9.39c-.12,0-.18.06-.18.18v.69c0,.14.06.2.18.2h8.84c.27,0,.5.1.7.29.19.2.29.43.29.71s-.1.52-.29.71c-.19.2-.43.29-.7.29h-8.84c-.12,0-.18.06-.18.18v.66c0,.13.06.2.18.2h8.81c.27,0,.51.1.71.29.2.19.3.44.3.72s-.1.53-.3.74-.44.3-.71.3h-8.81c-.12,0-.18.06-.18.18v.69c0,.14.06.2.18.2h13.53c.36,0,.66.12.91.37s.38.55.38.9-.13.66-.38.91-.56.38-.91.38h-3.76s-.05.02-.06.05,0,.06.01.08c.61.56,1.18,1.11,1.73,1.65s1.03,1.06,1.47,1.55c.19.22.28.47.28.74,0,.08,0,.17-.03.25-.08.37-.3.64-.63.81l-.15.08c-.25.12-.52.18-.79.18-.14,0-.28-.02-.43-.05-.42-.08-.77-.3-1.04-.63-.07-.07-.13-.14-.18-.2-.08-.1-.19-.15-.3-.15-4.57.32-9.36.63-14.37.94-.03.02-.07.03-.1.03-.34,0-.63-.11-.89-.33-.29-.25-.46-.57-.51-.94v-.15c0-.3.1-.58.3-.81.24-.27.53-.42.89-.43l1.29-.05c.14-.02.23-.08.28-.18.3-.69.6-1.44.89-2.23.02-.05.01-.09-.01-.13s-.06-.05-.11-.05h-4.09c-.36,0-.66-.13-.91-.38s-.38-.56-.38-.91.13-.66.38-.9.56-.37.91-.37h3.22c.14,0,.2-.07.2-.2v-6.2s-.02-.06-.05-.09-.07-.02-.1.01c-.76.49-1.53.95-2.31,1.37-.24.12-.47.18-.71.18-.15,0-.3-.03-.46-.08-.39-.1-.72-.33-.99-.69h-.03c-.17-.22-.25-.46-.25-.71,0-.08,0-.16.03-.23.07-.36.25-.61.56-.76,2.08-1.02,3.83-2.23,5.26-3.66.02-.03.02-.07,0-.1-.02-.03-.04-.05-.08-.05h-4.09c-.36,0-.65-.12-.89-.37-.24-.25-.36-.54-.36-.88s.12-.63.36-.88.53-.37.89-.37h6.09c.14,0,.24-.05.31-.15.19-.29.36-.58.51-.89.22-.39.52-.69.89-.89.29-.17.59-.25.91-.25.1,0,.2,0,.3.03l.23.05c.37.05.65.25.84.58.08.17.13.33.13.5s-.04.33-.13.5c-.07.12-.14.24-.2.36-.02.03-.01.07.01.11s.05.06.09.06h9.9c.36,0,.65.12.89.37s.36.54.36.88-.12.63-.36.88c-.24.25-.53.37-.89.37h-4.04s-.06.02-.08.05c-.02.03,0,.06.03.08,1.46,1.35,3.12,2.46,5,3.33.3.14.49.37.56.71.02.08.03.17.03.25,0,.24-.08.46-.25.66-.02.03-.03.06-.05.08-.29.34-.63.57-1.04.69-.15.03-.3.05-.43.05-.25,0-.51-.06-.76-.18-.86-.47-1.7-1.02-2.51-1.65ZM175.87,21.46c-.02.05-.01.09.01.13s.05.05.09.05l7.62-.38s.05-.02.06-.05c0-.03,0-.07-.01-.1-.15-.15-.3-.3-.43-.43-.17-.17-.25-.37-.25-.61v-.15c.05-.3.21-.52.48-.63.02-.02.02-.04,0-.08h-6.22c-.12,0-.2.06-.25.18-.42.83-.79,1.52-1.09,2.08ZM181.83,5.59c-.08-.1-.19-.15-.3-.15h-3.76c-.14,0-.24.05-.3.15-.37.47-.76.92-1.17,1.35-.02.03-.02.07-.01.1,0,.03.04.05.09.05h6.53s.06-.02.08-.05c.02-.03,0-.07-.03-.1-.42-.46-.8-.91-1.12-1.35Z" style="fill: #fff;"/>
      </g>
      <path d="M18.22,22.01c0,.07-.04.15-.08.3h-1.73c-2.55,0-5.1,0-7.66,0-5.15,0-8.45-3.12-8.73-8.26-.13-2.27.16-4.46,1.46-6.41,1.5-2.26,3.74-3.23,6.34-3.48,1.95-.19,3.89-.04,5.7.79,3.23,1.48,4.54,4.22,4.67,7.56.12,3.16.03,6.33.03,9.49Z" style="fill: #fff;"/>
    </g>
  </g>
</svg>