<?xml version="1.0" encoding="UTF-8"?>
<svg id="_圖層_2" data-name="圖層 2" xmlns="http://www.w3.org/2000/svg" width="210.77" height="186.48" xmlns:xlink="http://www.w3.org/1999/xlink" viewBox="0 0 210.77 186.48">
  <defs>
    <clipPath id="clippath">
      <path d="M1.22,160.43h20.68s167.71,0,167.71,0c11.24,0,20.36-12.17,20.36-27.18V63.54c0-15.01-9.11-27.18-20.36-27.18H28.58c-11.24,0-20.36,12.17-20.36,27.18v62.96c0,11.94-2.42,23.66-7,33.92h0Z" style="fill: none;"/>
    </clipPath>
  </defs>
  <g id="_設計" data-name="設計">
    <g>
      <path d="M1.22,160.43h20.68s167.71,0,167.71,0c11.24,0,20.36-12.17,20.36-27.18V63.54c0-15.01-9.11-27.18-20.36-27.18H28.58c-11.24,0-20.36,12.17-20.36,27.18v62.96c0,11.94-2.42,23.66-7,33.92h0Z" style="fill: #4b4c4e; stroke: #fff; stroke-miterlimit: 10; stroke-width: 1.59px;"/>
      <g style="clip-path: url(#clippath);">
        <g>
          <path d="M166.03,112.87c15.77,4.19,25.83,10.53,25.83,17.64,0,12.61-31.71,22.84-70.84,22.84s-70.84-10.22-70.84-22.84c0-8.09,13.06-15.2,32.76-19.26" style="fill: none; stroke: #fff; stroke-linecap: round; stroke-linejoin: round; stroke-width: 2.89px;"/>
          <path d="M191.3,141.44c-4.42,11.24-34.2,19.93-70.27,19.93s-67.49-9.18-70.58-20.87" style="fill: none; stroke: #fff; stroke-linecap: round; stroke-linejoin: round; stroke-width: 2.89px;"/>
          <path d="M155.07,118.51c18.1,3.2,31.39,8.88,35.48,15.62" style="fill: none; stroke: #fff; stroke-linecap: round; stroke-linejoin: round; stroke-width: 2.89px;"/>
          <path d="M51.55,134.07c4.61-7.5,20.6-13.67,41.93-16.58" style="fill: none; stroke: #fff; stroke-linecap: round; stroke-linejoin: round; stroke-width: 2.89px;"/>
          <path d="M138.15,123.01c22.91,1.83,41.41,7.26,49.43,14.32" style="fill: none; stroke: #fff; stroke-linecap: round; stroke-linejoin: round; stroke-width: 2.89px;"/>
          <path d="M53.92,137.84c8.08-7.69,28.5-13.54,53.66-15.09" style="fill: none; stroke: #fff; stroke-linecap: round; stroke-linejoin: round; stroke-width: 2.89px;"/>
          <path d="M85.6,150.28c10.42-1.94,22.52-3.06,35.43-3.06s24,1.02,34.13,2.82" style="fill: none; stroke: #fff; stroke-linecap: round; stroke-linejoin: round; stroke-width: 2.89px;"/>
          <line x1="191.86" y1="128.42" x2="190.16" y2="184" style="fill: none; stroke: #fff; stroke-linecap: round; stroke-linejoin: round; stroke-width: 2.89px;"/>
          <line x1="50.19" y1="128.42" x2="51.97" y2="185.04" style="fill: none; stroke: #fff; stroke-linecap: round; stroke-linejoin: round; stroke-width: 2.89px;"/>
        </g>
        <g>
          <ellipse cx="120.51" cy="62.7" rx="60.12" ry="71.52" transform="translate(26.95 161.19) rotate(-73.96)" style="fill: none; stroke: #fff; stroke-linecap: round; stroke-linejoin: round; stroke-width: 3.23px;"/>
          <ellipse cx="120.31" cy="63.4" rx="46.47" ry="55.28" transform="translate(26.13 161.5) rotate(-73.96)" style="fill: none; stroke: #fff; stroke-linecap: round; stroke-linejoin: round; stroke-width: 1.8px;"/>
          <ellipse cx="120.98" cy="61.09" rx="6.92" ry="7.97" transform="translate(28.83 160.47) rotate(-73.96)" style="fill: none; stroke: #fff; stroke-linecap: round; stroke-linejoin: round; stroke-width: 3.6px;"/>
        </g>
      </g>
    </g>
  </g>
</svg>