<?xml version="1.0" encoding="UTF-8"?>
<svg id="_圖層_2" data-name="圖層 2" xmlns="http://www.w3.org/2000/svg" width="252.62" height="101.88" viewBox="0 0 252.62 101.88">
  <g id="_設計" data-name="設計">
    <g>
      <path d="M6.58,28.94h22.1v25.81h-6.9v-2.61h-8.64v2.9h-6.55v-26.1ZM13.13,35.55v9.98h8.64v-9.98h-8.64ZM48.57,24.13H14.58V3.13h33.99v21ZM41.55,9.74h-20.3v7.83h20.3v-7.83ZM56.4,28.94v25.87h-6.96v-2.67h-9.22v2.9h-6.61v-26.1h22.79ZM49.44,45.53v-9.98h-9.22v9.98h9.22Z" style="fill: #1d7068;"/>
      <path d="M82.04.93h5.68v21h-9.86v1.97c0,1.45,0,3.02-.06,4.58h9.74v26.62h-6.32v-20.76h-3.65c-.46,7.13-1.57,14.79-3.83,20.65-1.39-.58-4.35-1.51-6.03-1.91,3.42-8.41,3.94-21.05,3.94-29.12V2.38h6.21v13.75h4.18V.93ZM122.17,43.96h-8.7v11.02h-6.15v-11.02h-18.44v-6.09h5.45c-.75-.7-1.68-1.39-2.38-1.86,2.44-1.62,4.35-3.42,5.8-5.34h-7.19V6.79h8.06c.93-1.91,1.8-4.12,2.32-5.86l7.66,1.04c-.93,1.74-1.86,3.36-2.73,4.81h13.92v23.9h-15.14c-1.33,2.49-3.13,4.99-5.51,7.19h8.18v-5.97h6.15v5.97h8.76l-.06,6.09ZM96.88,16.12h5.16v-3.89h-5.16v3.89ZM100.77,25.23c.58-1.45.87-2.78,1.1-4h-4.99v4h3.89ZM113.18,21.23h-5.28c-.17,1.16-.52,2.49-.99,4h6.26v-4ZM113.18,12.24h-5.05v3.89h5.05v-3.89Z" style="fill: #1d7068;"/>
      <path d="M151.98,43.44c-6.38,2.26-13.34,4.47-18.91,6.26l-1.57-7.02c2.03-.52,4.41-1.16,7.08-1.91v-13.63h-5.86v-6.32h5.86v-10.21h-6.38v-6.44h19.14v6.44h-6.21v10.21h5.22v6.32h-5.22v11.6c1.91-.58,3.83-1.16,5.68-1.8l1.16,6.5ZM186.44,46.98v6.26h-37.29v-6.26h16.01v-5.51h-12.01v-6.21h12.01v-4.99h-11.6V3.31h30.28v26.97h-11.66v4.99h12.3v6.21h-12.3v5.51h14.27ZM159.76,13.98h5.97v-4.81h-5.97v4.81ZM159.76,24.42h5.97v-4.99h-5.97v4.99ZM177.27,9.16h-5.74v4.81h5.74v-4.81ZM177.27,19.43h-5.74v4.99h5.74v-4.99Z" style="fill: #1d7068;"/>
      <path d="M211.32,16.36c-3.65,1.97-7.6,3.6-11.77,4.99-.87-1.62-2.84-4.41-4.23-5.63,11.08-3.02,20.65-8.53,25.23-15.72l6.15,2.38c-.29.41-.52.87-.81,1.28,5.74,4.81,15.6,9.4,24.07,11.83-1.57,1.39-3.65,4.12-4.7,5.92-3.83-1.39-7.95-3.31-11.89-5.45v3.36h-22.04v-2.96ZM196.06,50.17c2.03-4.06,4.23-9.86,5.39-14.73l6.09,2.38c-1.33,4.64-3.19,11.02-4.99,15.25l-6.5-2.9ZM240.72,24.71c-2.2,4.06-6.21,9.16-9.4,12.41-1.33-1.04-3.65-2.49-5.28-3.25,1.68-1.62,3.48-3.83,4.87-5.92h-27.26v-5.8h31.44l1.04-.29,4.58,2.84ZM242.12,33.58c2.49,5.05,5.92,11.77,7.6,15.89l-6.84,2.55c-.7-1.97-1.74-4.7-3.02-7.54-.93,7.77-3.02,9.74-9.45,9.74h-11.14c-8.12,0-10.21-1.97-10.21-8.24v-9.98h6.96v9.86c0,1.8.58,2.09,3.94,2.09h10.03c2.78,0,3.19-.87,3.6-6.67,1.33.99,4,1.97,5.92,2.44-1.22-2.78-2.55-5.57-3.65-8.06l6.26-2.09ZM220.83,30.68c2.84,3.31,6.84,8.06,8.82,10.96l-6.03,3.48c-1.74-2.96-5.57-7.83-8.41-11.43l5.63-3.02ZM229.88,13.8c-2.78-1.74-5.39-3.6-7.71-5.57-2.03,2.09-4.23,3.89-6.67,5.57h14.38Z" style="fill: #1d7068;"/>
    </g>
    <g>
      <path d="M22.98,101.49h-5.03l-2-5.2H6.8l-1.89,5.2H0l8.92-22.91h4.89l9.17,22.91ZM14.47,92.42l-3.16-8.5-3.09,8.5h6.25Z" style="fill: #1d7068;"/>
      <path d="M27.05,78.58h9.16c1.81,0,3.16.08,4.05.23.89.15,1.69.47,2.39.95.7.48,1.29,1.12,1.76,1.91s.7,1.69.7,2.68c0,1.07-.29,2.06-.87,2.95-.58.9-1.36,1.57-2.35,2.02,1.4.41,2.47,1.1,3.22,2.08.75.98,1.12,2.13,1.12,3.45,0,1.04-.24,2.05-.73,3.04s-1.15,1.77-1.98,2.36c-.84.59-1.87.95-3.1,1.09-.77.08-2.63.14-5.58.16h-7.8v-22.91ZM31.68,82.39v5.3h3.03c1.8,0,2.92-.03,3.36-.08.79-.09,1.41-.37,1.87-.82s.68-1.05.68-1.79-.2-1.28-.59-1.73c-.39-.44-.97-.71-1.74-.8-.46-.05-1.78-.08-3.95-.08h-2.66ZM31.68,91.5v6.12h4.28c1.67,0,2.72-.05,3.17-.14.69-.12,1.25-.43,1.68-.91s.65-1.13.65-1.95c0-.69-.17-1.27-.5-1.75-.33-.48-.82-.83-1.45-1.05s-2-.33-4.1-.33h-3.73Z" style="fill: #1d7068;"/>
      <path d="M50.81,90.17c0-2.33.35-4.29,1.05-5.88.52-1.17,1.23-2.21,2.13-3.14.9-.93,1.89-1.61,2.96-2.06,1.43-.6,3.07-.91,4.94-.91,3.38,0,6.07,1.05,8.1,3.14,2.03,2.09,3.04,5.01,3.04,8.73s-1.01,6.59-3.02,8.68c-2.01,2.09-4.7,3.13-8.06,3.13s-6.12-1.04-8.12-3.12c-2.01-2.08-3.02-4.94-3.02-8.59ZM55.58,90.02c0,2.59.6,4.56,1.8,5.9,1.2,1.34,2.72,2.01,4.56,2.01s3.36-.66,4.54-1.99c1.18-1.33,1.77-3.32,1.77-5.98s-.58-4.58-1.73-5.88c-1.15-1.29-2.68-1.94-4.59-1.94s-3.44.65-4.61,1.96c-1.17,1.31-1.75,3.28-1.75,5.91Z" style="fill: #1d7068;"/>
      <path d="M78.21,78.58h4.62v12.41c0,1.97.06,3.25.17,3.83.2.94.67,1.69,1.41,2.26.74.57,1.76.85,3.05.85s2.3-.27,2.97-.8c.67-.54,1.07-1.2,1.2-1.98.13-.78.2-2.08.2-3.89v-12.67h4.62v12.03c0,2.75-.12,4.69-.38,5.83-.25,1.14-.71,2.09-1.38,2.88s-1.57,1.4-2.7,1.87-2.59.7-4.41.7c-2.19,0-3.85-.25-4.98-.76-1.13-.5-2.02-1.16-2.68-1.97-.66-.81-1.09-1.65-1.3-2.54-.3-1.31-.45-3.25-.45-5.81v-12.22Z" style="fill: #1d7068;"/>
      <path d="M108.1,101.49v-19.03h-6.8v-3.88h18.2v3.88h-6.78v19.03h-4.62Z" style="fill: #1d7068;"/>
      <path d="M133.65,90.17c0-2.33.35-4.29,1.05-5.88.52-1.17,1.23-2.21,2.13-3.14.9-.93,1.89-1.61,2.96-2.06,1.43-.6,3.07-.91,4.94-.91,3.38,0,6.08,1.05,8.1,3.14s3.04,5.01,3.04,8.73-1,6.59-3.02,8.68c-2.01,2.09-4.7,3.13-8.06,3.13s-6.11-1.04-8.12-3.12-3.02-4.94-3.02-8.59ZM138.41,90.02c0,2.59.6,4.56,1.8,5.9,1.2,1.34,2.72,2.01,4.56,2.01s3.36-.66,4.54-1.99,1.77-3.32,1.77-5.98-.58-4.58-1.73-5.88c-1.15-1.29-2.68-1.94-4.59-1.94s-3.44.65-4.61,1.96c-1.17,1.31-1.75,3.28-1.75,5.91Z" style="fill: #1d7068;"/>
      <path d="M160.14,90.17c0-2.33.35-4.29,1.05-5.88.52-1.17,1.23-2.21,2.13-3.14.9-.93,1.89-1.61,2.96-2.06,1.43-.6,3.07-.91,4.94-.91,3.38,0,6.07,1.05,8.1,3.14,2.03,2.09,3.04,5.01,3.04,8.73s-1.01,6.59-3.02,8.68c-2.01,2.09-4.7,3.13-8.06,3.13s-6.12-1.04-8.12-3.12c-2.01-2.08-3.02-4.94-3.02-8.59ZM164.9,90.02c0,2.59.6,4.56,1.8,5.9,1.2,1.34,2.72,2.01,4.56,2.01s3.36-.66,4.54-1.99c1.18-1.33,1.77-3.32,1.77-5.98s-.58-4.58-1.73-5.88c-1.15-1.29-2.68-1.94-4.59-1.94s-3.44.65-4.61,1.96c-1.17,1.31-1.75,3.28-1.75,5.91Z" style="fill: #1d7068;"/>
      <path d="M187.69,101.49v-22.72h4.62v18.86h11.5v3.86h-16.12Z" style="fill: #1d7068;"/>
      <path d="M229.37,101.49h-5.03l-2-5.2h-9.16l-1.89,5.2h-4.91l8.92-22.91h4.89l9.17,22.91ZM220.85,92.42l-3.16-8.5-3.09,8.5h6.25Z" style="fill: #1d7068;"/>
      <path d="M233.44,78.58h9.16c1.81,0,3.16.08,4.05.23.89.15,1.69.47,2.39.95.7.48,1.29,1.12,1.76,1.91s.7,1.69.7,2.68c0,1.07-.29,2.06-.87,2.95-.58.9-1.36,1.57-2.35,2.02,1.4.41,2.47,1.1,3.22,2.08.75.98,1.12,2.13,1.12,3.45,0,1.04-.24,2.05-.73,3.04s-1.15,1.77-1.98,2.36c-.84.59-1.87.95-3.1,1.09-.77.08-2.63.14-5.58.16h-7.8v-22.91ZM238.06,82.39v5.3h3.03c1.8,0,2.92-.03,3.36-.08.79-.09,1.41-.37,1.87-.82s.68-1.05.68-1.79-.2-1.28-.59-1.73c-.39-.44-.97-.71-1.74-.8-.46-.05-1.78-.08-3.95-.08h-2.66ZM238.06,91.5v6.12h4.28c1.67,0,2.72-.05,3.17-.14.69-.12,1.25-.43,1.68-.91.43-.48.65-1.13.65-1.95,0-.69-.17-1.27-.5-1.75-.33-.48-.81-.83-1.45-1.05-.63-.22-2-.33-4.1-.33h-3.73Z" style="fill: #1d7068;"/>
    </g>
  </g>
</svg>