<?xml version="1.0" encoding="UTF-8"?>
<svg id="_圖層_2" data-name="圖層 2" xmlns="http://www.w3.org/2000/svg" width="532.78" height="235.54" viewBox="0 0 532.78 235.54">
  <g id="_設計" data-name="設計">
    <g>
      <path d="M2.63,225.15c-1.57,0-2.6-1.23-2.63-2.58,0-1.37,1.01-2.72,2.63-2.72s2.6,1.32,2.6,2.72-.98,2.58-2.6,2.58Z" style="fill: #f4f4f2;"/>
      <path d="M38.14,223.36c-.45,2.46-1.23,5.01-2.3,7,.56.31,1.23.87,2.35,1.54,1.99,1.2,4.51,1.4,7.81,1.4,3.61,0,8.15-.28,11.26-.59-.25.56-.56,1.54-.59,2.16-2.1.14-7.42.31-10.72.31-3.67,0-6.13-.31-8.21-1.54-1.12-.67-2.13-1.62-2.77-1.62s-1.57,1.76-2.38,3.53l-1.43-1.88c.76-1.09,1.54-2.07,2.24-2.69l-.06-.03c1.2-1.6,2.07-4,2.6-6.22h-3.64c.78-1.65,1.71-4.03,2.44-6.24h-3.14v-1.88h5.82c-.7,2.02-1.6,4.37-2.38,6.3h1.54l.34-.08,1.2.53ZM34.97,215.27c-.42-1.23-1.18-3.22-1.76-4.7l1.85-.5c.62,1.46,1.43,3.36,1.85,4.56l-1.93.64ZM56.67,227.56h-18.26v-1.65h4.84v-2.58h-3.78v-1.62h3.78v-2.02h1.93v2.02h4.54v-2.02h1.93v2.02h3.89v1.62h-3.89v2.58h5.01v1.65ZM46.56,216.98c-.14.48-.31,1.15-.39,1.51-5.54.98-6.3,1.15-6.78,1.43-.11-.48-.5-1.26-.73-1.65.31-.2.73-.53.73-1.6v-5.71h7.48v4.7h-5.8v2.13l5.49-.81ZM46.26,228.29c-1.51,1.43-3.81,2.86-5.74,3.81-.36-.36-1.09-1.04-1.57-1.29,2.02-.81,4.14-1.96,5.46-3.14l1.85.62ZM41.08,212.36v1.88h4v-1.88h-4ZM45.19,225.91h4.54v-2.58h-4.54v2.58ZM50.62,219.22c-1.9,0-2.38-.7-2.38-2.58v-5.66h7.62v4.7h-5.88v1.01c0,.76.11,1.01.73,1.01h3.61c.53,0,1.34-.03,1.76-.11.03.45.11,1.09.17,1.48-.36.11-1.15.14-1.88.14h-3.75ZM54.26,232.01c-1.2-1.06-3.36-2.38-5.4-3.42l1.34-.98c2.16,1.01,4.51,2.35,5.88,3.42l-1.82.98ZM49.98,212.39v1.88h4.06v-1.88h-4.06Z" style="fill: #f4f4f2;"/>
      <path d="M71.37,223.56c-.95.34-1.88.67-2.8.95v8.34c0,1.15-.28,1.71-.98,2.04-.64.34-1.71.39-3.47.39-.08-.53-.34-1.37-.62-1.96,1.2.06,2.32.06,2.63.03.34,0,.48-.11.48-.48v-7.7c-1.09.39-2.16.73-3.14,1.04l-.5-1.99c1.01-.28,2.27-.67,3.64-1.12v-5.71h-3.36v-1.93h3.36v-5.57h1.96v5.57h2.83v1.93h-2.83v5.1l2.52-.84.28,1.9ZM88.42,231.59h-7.48v3.84h-1.99v-3.84h-7.59v-1.62h7.59v-2.02h-6.64v-1.62h3.7c-.22-.67-.59-1.57-.95-2.27l1.6-.39h-4.9v-1.65h7.2v-1.96h-5.99v-1.6h5.99v-1.65h-6.3v-5.91h15.06v5.91h-6.78v1.65h6.19v1.6h-6.19v1.96h7.11v1.65h-4.45l1.65.45c-.42.76-.87,1.54-1.26,2.21h3.44v1.62h-6.5v2.02h7.48v1.62ZM77.03,212.41h-2.66v2.91h2.66v-2.91ZM76.8,223.67c.42.81.95,1.88,1.09,2.58l-.28.08h4.51c.39-.81.9-1.88,1.18-2.66h-6.5ZM78.68,215.33h2.8v-2.91h-2.8v2.91ZM83.13,215.33h2.83v-2.91h-2.83v2.91Z" style="fill: #f4f4f2;"/>
      <path d="M95.12,222.94c0-6.58,3.61-10.58,8.76-10.58s8.76,4,8.76,10.58-3.61,10.7-8.76,10.7-8.76-4.12-8.76-10.7ZM109.98,222.94c0-5.15-2.44-8.32-6.1-8.32s-6.1,3.16-6.1,8.32,2.41,8.43,6.1,8.43,6.1-3.3,6.1-8.43Z" style="fill: #f4f4f2;"/>
      <path d="M119.53,222.94c0-6.58,3.61-10.58,8.76-10.58s8.76,4,8.76,10.58-3.61,10.7-8.76,10.7-8.76-4.12-8.76-10.7ZM134.4,222.94c0-5.15-2.44-8.32-6.1-8.32s-6.1,3.16-6.1,8.32,2.41,8.43,6.1,8.43,6.1-3.3,6.1-8.43Z" style="fill: #f4f4f2;"/>
      <path d="M145.12,212.75h2.6v18.31h8.96v2.21h-11.56v-20.52Z" style="fill: #f4f4f2;"/>
      <path d="M173.43,227h-7.5l-1.99,6.27h-2.63l6.97-20.52h2.88l6.97,20.52h-2.74l-1.96-6.27ZM172.79,224.93l-.98-3.14c-.76-2.32-1.4-4.56-2.07-6.94h-.11c-.64,2.41-1.32,4.62-2.04,6.94l-1.01,3.14h6.22Z" style="fill: #f4f4f2;"/>
      <path d="M184.66,212.75h6.1c4.17,0,7.06,1.4,7.06,5.01,0,2.04-1.09,3.84-3.02,4.45v.14c2.46.48,4.2,2.1,4.2,4.9,0,4.03-3.19,6.02-7.78,6.02h-6.55v-20.52ZM190.31,221.49c3.53,0,4.96-1.32,4.96-3.39,0-2.41-1.65-3.3-4.84-3.3h-3.16v6.69h3.05ZM190.85,231.2c3.53,0,5.6-1.26,5.6-4.03,0-2.55-2.02-3.7-5.6-3.7h-3.58v7.73h3.58Z" style="fill: #f4f4f2;"/>
      <path d="M207.98,226.53c2.16-.9,3.39-2.21,3.53-4.12-.17.03-.31.03-.48.03-1.15,0-2.1-.67-2.1-1.99s.98-2.02,2.13-2.02c1.54,0,2.38,1.26,2.38,3.22,0,3.02-1.9,5.32-4.84,6.36l-.62-1.48Z" style="fill: #f4f4f2;"/>
      <path d="M228.17,224.79v8.01c0,1.12-.25,1.65-.92,1.99-.64.34-1.68.42-3.28.39-.08-.5-.34-1.37-.59-1.93,1.09.03,2.07.03,2.38,0,.34,0,.45-.08.45-.45v-7.25l-2.74,1.06-.59-2.02c.95-.28,2.1-.67,3.33-1.15v-6.05h-3.05v-1.93h3.05v-5.6h1.96v5.6h2.3v1.93h-2.3v5.35l2.21-.84.36,1.88-2.58,1.01ZM241.55,225.52c1.65,2.66,4.31,5.12,6.94,6.38-.45.39-1.12,1.09-1.43,1.62-2.52-1.46-5.1-4.06-6.86-6.86v8.76h-2.04v-8.62c-1.74,2.94-4.23,5.43-7,6.86-.28-.5-.9-1.2-1.32-1.6,2.8-1.26,5.46-3.72,7.06-6.55h-5.57v-1.88h6.83v-3.02h2.04v3.02h7.73v1.88h-6.38ZM238.2,213.98c-.31,4.03-1.46,6.19-6.13,7.31-.17-.45-.67-1.2-1.09-1.57,4.17-.9,5.04-2.49,5.29-5.74h1.93ZM233.46,216.42h-1.93v-5.04h15.85v4.93h-2.04v-3.11h-11.87v3.22ZM246.15,218.77c.45,0,1.2-.03,1.6-.14.06.5.11,1.29.2,1.76-.39.11-1.09.14-1.74.14h-3.11c-2.04,0-2.52-.67-2.52-2.72v-3.86h1.88v3.89c0,.73.11.92.62.92h3.08Z" style="fill: #f4f4f2;"/>
      <path d="M263.25,230.14c-1.82,1.76-4.45,3.61-6.66,4.73-.34-.36-1.12-1.04-1.6-1.37,2.3-1.01,4.79-2.58,6.33-4.09l1.93.73ZM268.6,227.95v5.04c0,1.09-.25,1.62-1.15,1.96-.9.31-2.27.34-4.31.34-.11-.62-.45-1.37-.76-1.93,1.71.06,3.19.06,3.61.03.48-.03.59-.11.59-.45v-4.87c-8.09.53-9.16.64-9.91.87-.08-.36-.34-1.32-.56-1.79.92-.11,2.16-.5,3.78-1.18.87-.31,2.86-1.15,5.15-2.27-5.15.34-5.91.45-6.36.62-.08-.36-.36-1.32-.56-1.79.56-.08,1.2-.34,2.02-.76.76-.36,3.25-1.71,5.24-3.25h-8.29v3.42h-1.96v-5.21h10.98v-2.6h-10.7v-1.82h10.7v-2.46h2.13v2.46h10.7v1.82h-10.7v2.6h11.06v5.21h-2.04v-3.42h-10.64l.84.64c-1.74,1.26-3.67,2.41-5.6,3.33l6.24-.36c1.34-.7,2.69-1.48,3.92-2.27l1.46,1.26c-3.78,2.27-7.73,4.17-11.62,5.63l12.18-.64c-.76-.73-1.54-1.46-2.27-2.04l1.48-.92c1.96,1.6,4.45,3.95,5.63,5.46l-1.57,1.09c-.45-.62-1.09-1.37-1.85-2.18l-6.86.45ZM272.44,229.27c2.32,1.2,5.32,3.05,6.89,4.34l-1.65,1.18c-1.43-1.26-4.42-3.19-6.8-4.48l1.57-1.04Z" style="fill: #f4f4f2;"/>
      <path d="M292.29,214.54c-1.37,2.21-2.91,4.23-4.42,5.74-.45-.34-1.32-.92-1.85-1.23,2.58-2.24,4.98-5.82,6.44-9.35l2.04.59c-.36.78-.73,1.6-1.15,2.38h17.25v1.88h-18.31ZM307.58,225.46c-.11,1.82-.2,3.3-.34,4.48h3.36v1.85h-3.58c-.22,1.4-.5,2.16-.81,2.6-.53.67-1.12.92-1.96,1.01-.81.06-2.21.03-3.58-.06-.03-.48-.25-1.18-.53-1.65,1.43.11,2.72.14,3.25.11.5,0,.76-.06,1.04-.39.2-.22.39-.76.56-1.62h-15.99c.31-1.71.7-3.95,1.06-6.33h-3.95v-1.9h4.23c.28-2.16.59-4.31.78-6.19h16.74s-.03.76-.03,1.01c-.06,1.96-.14,3.67-.2,5.18h3.92v1.9h-3.98ZM305.2,229.94c.11-1.15.22-2.63.34-4.54h-13.41c-.22,1.62-.48,3.19-.7,4.54h8.65c-1.18-1.09-3.22-2.46-5.01-3.39l1.18-1.15c1.9.9,4.2,2.35,5.32,3.5l-.95,1.04h4.59ZM292.96,219.22c-.2,1.43-.39,2.91-.62,4.4h8.4c-1.09-1.01-3.16-2.35-4.98-3.14l1.18-1.18c1.82.78,3.98,2.07,5.1,3.08l-1.2,1.23h4.79c.06-1.32.11-2.74.17-4.4h-12.82Z" style="fill: #f4f4f2;"/>
      <path d="M343.22,221.23v2.27h-25.42v-2.27h25.42Z" style="fill: #f4f4f2;"/>
      <path d="M358.68,226.83c-.45-.78-1.6-2.32-2.55-3.47v11.98h-2.02v-12.38c-1.15,2.83-2.63,5.63-4.06,7.34-.2-.59-.7-1.4-1.04-1.9,1.76-1.96,3.7-5.57,4.82-8.76h-4.28v-1.96h4.56v-4.26c-1.37.28-2.8.5-4.09.7-.11-.48-.39-1.15-.64-1.62,3.14-.5,6.8-1.32,8.88-2.24l1.43,1.57c-1.01.42-2.24.81-3.56,1.12v4.73h3.5v1.96h-3.5v1.71c.87.73,3.25,3.19,3.81,3.84l-1.26,1.65ZM375,233.11v1.74h-16.66v-1.74h7.67v-2.18h-6.08v-1.68h6.08v-1.99h-5.77v-8.93h5.77v-1.88h-6.94v-1.71h6.94v-1.88c-2.02.14-4.09.22-5.96.28-.03-.45-.28-1.18-.48-1.57,4.65-.2,10.44-.67,13.58-1.37l1.26,1.57c-1.76.39-4,.7-6.41.92v2.04h6.47v1.71h-6.47v1.88h5.91v8.93h-5.91v1.99h6.05v1.68h-6.05v2.18h7ZM362.09,222.07h3.92v-2.18h-3.92v2.18ZM366.01,225.69v-2.24h-3.92v2.24h3.92ZM368,219.89v2.18h4.03v-2.18h-4.03ZM372.03,223.45h-4.03v2.24h4.03v-2.24Z" style="fill: #f4f4f2;"/>
      <path d="M406.19,232.52v2.02h-24.81v-2.02h11.34v-7.11h-8.32v-2.02h8.32v-6.1h-6.58c-.9,1.76-1.88,3.3-2.94,4.56-.39-.34-1.32-.95-1.88-1.23,2.3-2.46,4.09-6.33,5.18-10.3l2.1.45c-.45,1.54-.95,3.05-1.57,4.48h5.68v-5.38h2.13v5.38h10.02v2.04h-10.02v6.1h8.99v2.02h-8.99v7.11h11.34Z" style="fill: #f4f4f2;"/>
      <path d="M417.79,222.35c-1.15-.78-3.44-2.13-5.15-3.02l1.15-1.51c1.62.81,3.95,2.04,5.18,2.83l-1.18,1.71ZM413.31,233.64c1.51-2.1,3.67-5.8,5.29-8.96l1.51,1.37c-1.46,2.94-3.42,6.41-5.07,8.99l-1.74-1.4ZM419.19,214.77c-1.15-.81-3.47-2.16-5.18-3.08l1.15-1.48c1.71.81,4.06,2.1,5.24,2.88l-1.2,1.68ZM430.39,220v4.59h5.85v10.67h-1.99v-1.04h-9.97v1.18h-1.9v-10.81h6.02v-4.59h-8.06v-2.02h8.06v-4.54c-2.04.31-4.17.56-6.16.76-.08-.5-.36-1.29-.56-1.76,4.82-.5,10.44-1.37,13.55-2.49l1.65,1.62c-1.82.62-4.09,1.15-6.5,1.57v4.84h7.67v2.02h-7.67ZM434.25,226.53h-9.97v5.77h9.97v-5.77Z" style="fill: #f4f4f2;"/>
      <path d="M452.62,226.08c-.39-.9-1.37-2.63-2.21-4.03v13.33h-1.9v-13.08c-.92,3.05-2.13,5.99-3.42,7.81-.22-.53-.73-1.32-1.06-1.79,1.74-2.32,3.44-6.69,4.26-10.5h-3.7v-1.93h3.92v-6.05h1.9v6.05h3.19v1.93h-3.19v1.76c.78,1.04,2.88,4.2,3.36,4.96l-1.15,1.54ZM459.65,227.81c-1.01,3.39-3.39,5.74-6.05,6.97-.22-.42-.76-1.06-1.12-1.37,1.99-.81,3.89-2.44,4.87-4.48h-4v-1.51h4.82l.34-.08,1.15.48ZM460.63,214.6h-6.41v-1.54h3.61c-.36-.78-1.01-1.79-1.54-2.58l1.54-.64c.7.9,1.43,2.07,1.82,2.88l-.76.34h5.04l-.45-.17c.59-.87,1.29-2.18,1.68-3.05l1.85.59c-.62.95-1.23,1.9-1.79,2.63h4.09v1.54h-6.66v1.76h5.8v1.54h-5.8v1.82h7v1.65h-9.3c1.96.59,4.17,1.46,5.43,2.18l-1.12,1.34c-1.4-.81-4.12-1.96-6.24-2.58l.81-.95h-5.71v-1.65h7.11v-1.82h-5.29v-1.54h5.29v-1.76ZM469.28,226.3c-1.34,1.12-2.97,2.41-4.28,3.28,1.4,1.54,3.19,2.77,5.15,3.47-.39.36-.98,1.04-1.26,1.57-2.52-1.12-4.7-3.11-6.27-5.57v4.28c0,.98-.2,1.51-.92,1.79-.73.31-1.88.31-3.61.31-.08-.48-.34-1.23-.56-1.71h2.72c.31,0,.42-.08.42-.39v-7.5h-5.1v-1.51h7.06v1.65c.39.87.87,1.71,1.46,2.49,1.23-.98,2.74-2.35,3.64-3.33l1.57,1.18Z" style="fill: #f4f4f2;"/>
      <path d="M485.83,211.24c-2.18,1.6-5.8,3-9.13,3.89-.22-.45-.67-1.09-1.06-1.48,3.3-.84,6.92-2.27,8.93-3.7l1.26,1.29ZM487.31,215.86c-1.12,1.2-2.63,2.35-4.31,3.39,3.98,4.93,3.67,13.22,1.62,15.09-.78.81-1.51,1.06-2.72,1.09-.56,0-1.4-.03-2.24-.06,0-.56-.14-1.32-.45-1.85.9.08,1.76.11,2.24.11.7,0,1.18-.06,1.65-.59.73-.64,1.23-2.86,1.04-5.46-2.07,1.99-4.9,3.98-7.31,5.18-.22-.45-.73-1.18-1.15-1.54,2.8-1.12,6.3-3.53,8.18-5.74-.14-.7-.34-1.46-.59-2.16-1.74,1.51-4.2,3.08-6.13,4.06-.25-.45-.7-1.15-1.09-1.51,2.13-.87,4.96-2.52,6.58-4.03-.31-.62-.67-1.2-1.09-1.74-1.43.78-2.97,1.54-4.51,2.13-.25-.36-.7-1.01-1.09-1.4,1.04-.42,2.07-.87,3.14-1.4-.5-1.06-1.29-2.38-2.13-3.42l1.43-.67c.84,1.01,1.68,2.24,2.18,3.3.7-.42,1.4-.84,2.04-1.26-.39-.95-1.04-2.04-1.71-2.94l1.37-.67c.64.78,1.26,1.79,1.68,2.66.78-.59,1.43-1.18,2.02-1.79l1.34,1.2ZM499.1,233.22c.59,0,.67-.5.76-3.56.39.34,1.18.62,1.68.76-.14,3.58-.62,4.51-2.21,4.51h-2.18c-1.88,0-2.3-.59-2.3-2.52v-7.9h-2.41c-.31,5.32-1.32,8.88-5.66,10.92-.25-.5-.81-1.29-1.26-1.62,3.89-1.68,4.7-4.68,4.96-9.3h-2.8v-11.34h4.62c.34-1.06.62-2.38.76-3.36l2.38.34c-.36,1.04-.73,2.13-1.06,3.02h5.85v11.34h-3.44v7.92c0,.7.11.78.67.78h1.65ZM489.66,217.99h8.51v-3.08h-8.51v3.08ZM489.66,222.77h8.51v-3.14h-8.51v3.14Z" style="fill: #f4f4f2;"/>
      <path d="M530.18,225.15c-1.57,0-2.6-1.23-2.63-2.58,0-1.37,1.01-2.72,2.63-2.72s2.6,1.32,2.6,2.72-.98,2.58-2.6,2.58Z" style="fill: #f4f4f2;"/>
    </g>
    <g>
      <g>
        <path d="M197.08,47.85v5.57h-42.63v-5.57h17.57v-3.36h-12.3v-4.18c-1.04,1.33-2.2,2.49-3.31,3.54-.41-1.22-1.74-4.12-2.73-5.74-.7,6.03-2.38,12.7-6.21,17.4-1.04-1.28-3.89-3.71-5.34-4.47,4.7-5.8,5.16-14.04,5.16-20.01v-10.32h7.83c-.93-.99-2.09-2.03-2.9-2.67,4.18-.64,8.76-1.45,13.22-2.49-3.65-.93-7.42-1.74-10.85-2.38l3.25-2.49h-9.97v-5.39h20.18c-.7-1.1-1.51-2.15-2.21-3.02l4.64-2.26c1.33,1.51,2.9,3.54,3.89,5.28h20.07v5.39h-8.41l2.78,1.74c-2.09.99-4.52,1.97-7.13,2.9,3.42.93,6.55,1.86,9.16,2.73l-3.25,2.67h8.53v5.51h-42.11v4.87c0,1.86-.06,3.89-.29,6.09,2.78-2.73,5.16-6.44,6.61-10.44l5.86,1.74c-.29.75-.58,1.51-.93,2.32h6.73v-3.54h6.79v3.54h14.33v5.39h-14.33v3.02h12.64v5.28h-12.64v3.36h18.27ZM172.02,39.21v-3.02h-9.45c-.64,1.04-1.28,2.03-1.97,3.02h11.43ZM183.85,20.71c-2.84-.99-6.32-1.97-9.98-2.96-4.18,1.1-8.41,2.09-12.47,2.96h22.45ZM162.97,10.67c3.65.81,7.48,1.68,11.31,2.61,2.78-.75,5.45-1.68,7.6-2.61h-18.91Z" style="fill: #fff;"/>
        <path d="M208.91,28.71h22.1v25.81h-6.9v-2.61h-8.64v2.9h-6.55v-26.1ZM215.46,35.32v9.98h8.64v-9.98h-8.64ZM250.9,23.9h-33.99V2.9h33.99v21ZM243.88,9.51h-20.3v7.83h20.3v-7.83ZM258.73,28.71v25.87h-6.96v-2.67h-9.22v2.9h-6.61v-26.1h22.79ZM251.77,45.3v-9.98h-9.22v9.98h9.22Z" style="fill: #fff;"/>
        <path d="M289.64,39.67c-3.42,4.41-8.58,9.16-12.76,12.06-1.39-1.28-4.29-3.54-6.03-4.58,4.41-2.38,9.05-6.32,11.83-10.03l6.96,2.55ZM301.3,33.75v13.51c0,3.36-.7,5.1-3.25,6.21-2.49,1.04-5.74,1.1-10.03,1.1-.35-2.03-1.51-4.93-2.49-6.73,2.96.12,6.5.12,7.48.12.99-.06,1.28-.23,1.28-.93v-12.7c-13.34,1.1-15.83,1.45-17.8,2.2-.29-1.22-1.28-4.41-1.97-6.09,2.32-.29,4.52-1.28,8.18-3.13,1.74-.81,4.87-2.44,8.7-4.7-9.11.58-11.02.93-12.3,1.45-.29-1.33-1.28-4.23-1.97-5.92,1.39-.17,2.73-.99,4.41-2.2,1.28-.75,4.23-2.96,7.25-5.74-4.47.29-8.87.52-13.17.64-.12-1.74-.99-4.47-1.62-6.03,14.15-.52,30.28-2.03,40.08-4.35l4.87,5.68c-5.97,1.45-13.11,2.49-20.59,3.25-2.96,2.9-6.32,5.63-9.74,8.06l11.6-.58c2.84-1.97,5.63-4.06,8.18-6.26l4.99,4.47c-6.84,5.39-14.38,10.03-21.87,13.8l17.46-1.22c-1.1-1.22-2.2-2.38-3.31-3.42l5.22-2.73c4.41,4,9.11,9.45,11.37,13.17l-5.39,3.25c-.87-1.45-2.09-3.25-3.6-5.16l-11.95.99ZM310,36.83c4.46,3.13,10.32,7.66,13.17,10.85l-6.09,4.06c-2.55-3.07-8.18-7.89-12.7-11.19l5.63-3.71Z" style="fill: #fff;"/>
        <path d="M335.29,3.25h30.16v6.61h-15.49c-.52,2.15-1.04,4.23-1.68,6.26h10.67l1.16-.23,4.35,1.28c-2.78,20.24-11.08,31.96-24.36,38.11-.93-1.74-2.73-4.47-4.12-5.86,5.28-2.03,9.8-5.39,13.28-9.98-1.8-1.97-4.7-4.29-6.84-6.09l4.06-5.28c1.91,1.51,4.64,3.6,6.61,5.28,1.57-3.25,2.84-6.9,3.77-10.9h-10.73c-1.86,4.64-4.06,8.7-6.73,11.95-1.04-1.28-3.71-3.77-5.22-4.76,4.18-4.64,7.13-11.95,8.82-19.78h-7.71V3.25ZM374.9,40.02h-6.79V6.79h6.79v33.23ZM386.97,1.16v45.53c0,3.77-.75,5.51-2.96,6.61-2.2,1.04-5.45,1.28-10.15,1.22-.29-1.86-1.28-4.76-2.2-6.61,2.96.12,6.09.12,7.02.06.99,0,1.33-.29,1.33-1.28V1.16h6.96Z" style="fill: #fff;"/>
      </g>
      <g>
        <path d="M127.5,101.25h-5.03l-2-5.2h-9.16l-1.89,5.2h-4.91l8.92-22.91h4.89l9.17,22.91ZM118.98,92.19l-3.16-8.5-3.09,8.5h6.25Z" style="fill: #fff;"/>
        <path d="M131.67,101.25v-22.72h4.62v18.86h11.5v3.86h-16.12Z" style="fill: #fff;"/>
        <path d="M152.82,101.25v-22.72h4.62v18.86h11.5v3.86h-16.12Z" style="fill: #fff;"/>
        <path d="M198.41,92.83l4.48,1.42c-.69,2.5-1.83,4.36-3.43,5.57-1.6,1.21-3.63,1.82-6.09,1.82-3.04,0-5.54-1.04-7.5-3.12-1.96-2.08-2.94-4.92-2.94-8.52,0-3.81.98-6.77,2.95-8.88s4.56-3.16,7.77-3.16c2.8,0,5.08.83,6.83,2.48,1.04.98,1.82,2.39,2.34,4.22l-4.58,1.09c-.27-1.19-.84-2.12-1.7-2.81s-1.9-1.03-3.13-1.03c-1.7,0-3.08.61-4.13,1.83-1.06,1.22-1.59,3.19-1.59,5.92,0,2.9.52,4.96,1.56,6.19,1.04,1.23,2.4,1.84,4.06,1.84,1.23,0,2.29-.39,3.17-1.17.88-.78,1.52-2.01,1.91-3.69Z" style="fill: #fff;"/>
        <path d="M207.53,89.94c0-2.33.35-4.29,1.05-5.88.52-1.17,1.23-2.21,2.13-3.14.9-.93,1.89-1.61,2.96-2.06,1.43-.6,3.07-.91,4.94-.91,3.38,0,6.08,1.05,8.1,3.14,2.03,2.09,3.04,5.01,3.04,8.73s-1,6.59-3.02,8.68c-2.01,2.09-4.7,3.13-8.06,3.13s-6.11-1.04-8.12-3.12c-2.01-2.08-3.02-4.94-3.02-8.59ZM212.29,89.78c0,2.59.6,4.56,1.8,5.9,1.2,1.34,2.72,2.01,4.56,2.01s3.36-.66,4.54-1.99c1.18-1.33,1.77-3.32,1.77-5.98s-.58-4.58-1.73-5.88c-1.15-1.29-2.68-1.94-4.59-1.94s-3.44.65-4.61,1.96c-1.17,1.31-1.75,3.28-1.75,5.91Z" style="fill: #fff;"/>
        <path d="M235.08,101.25v-22.72h4.62v18.86h11.5v3.86h-16.12Z" style="fill: #fff;"/>
        <path d="M256.23,101.25v-22.72h4.62v18.86h11.5v3.86h-16.12Z" style="fill: #fff;"/>
        <path d="M277.25,101.25v-22.91h16.98v3.88h-12.36v5.08h11.5v3.86h-11.5v6.23h12.8v3.86h-17.42Z" style="fill: #fff;"/>
        <path d="M314.85,92.83l4.48,1.42c-.69,2.5-1.83,4.36-3.43,5.57-1.6,1.21-3.63,1.82-6.09,1.82-3.04,0-5.54-1.04-7.5-3.12-1.96-2.08-2.94-4.92-2.94-8.52,0-3.81.98-6.77,2.95-8.88s4.56-3.16,7.77-3.16c2.8,0,5.08.83,6.83,2.48,1.04.98,1.82,2.39,2.34,4.22l-4.58,1.09c-.27-1.19-.84-2.12-1.7-2.81s-1.9-1.03-3.13-1.03c-1.7,0-3.08.61-4.13,1.83-1.06,1.22-1.59,3.19-1.59,5.92,0,2.9.52,4.96,1.56,6.19,1.04,1.23,2.4,1.84,4.06,1.84,1.23,0,2.29-.39,3.17-1.17.88-.78,1.52-2.01,1.91-3.69Z" style="fill: #fff;"/>
        <path d="M330.06,101.25v-19.03h-6.8v-3.88h18.2v3.88h-6.78v19.03h-4.62Z" style="fill: #fff;"/>
        <path d="M345.91,101.25v-22.91h4.62v22.91h-4.62Z" style="fill: #fff;"/>
        <path d="M355.6,89.94c0-2.33.35-4.29,1.05-5.88.52-1.17,1.23-2.21,2.13-3.14.9-.93,1.89-1.61,2.96-2.06,1.43-.6,3.07-.91,4.94-.91,3.38,0,6.07,1.05,8.1,3.14,2.03,2.09,3.04,5.01,3.04,8.73s-1.01,6.59-3.02,8.68c-2.01,2.09-4.7,3.13-8.06,3.13s-6.12-1.04-8.12-3.12c-2.01-2.08-3.02-4.94-3.02-8.59ZM360.37,89.78c0,2.59.6,4.56,1.8,5.9,1.2,1.34,2.72,2.01,4.56,2.01s3.36-.66,4.54-1.99c1.18-1.33,1.77-3.32,1.77-5.98s-.58-4.58-1.73-5.88c-1.15-1.29-2.68-1.94-4.59-1.94s-3.44.65-4.61,1.96c-1.17,1.31-1.75,3.28-1.75,5.91Z" style="fill: #fff;"/>
        <path d="M383.08,101.25v-22.91h4.5l9.38,15.3v-15.3h4.3v22.91h-4.64l-9.23-14.94v14.94h-4.3Z" style="fill: #fff;"/>
        <path d="M406.57,93.8l4.5-.44c.27,1.51.82,2.62,1.65,3.33.83.71,1.95,1.06,3.35,1.06,1.49,0,2.61-.31,3.37-.95.75-.63,1.13-1.37,1.13-2.21,0-.54-.16-1-.48-1.38-.32-.38-.87-.71-1.66-.99-.54-.19-1.78-.52-3.7-1-2.48-.61-4.22-1.37-5.22-2.27-1.41-1.26-2.11-2.8-2.11-4.61,0-1.17.33-2.26.99-3.27.66-1.02,1.61-1.79,2.86-2.32,1.24-.53,2.75-.8,4.51-.8,2.88,0,5.04.63,6.49,1.89,1.45,1.26,2.22,2.94,2.29,5.05l-4.62.2c-.2-1.18-.62-2.02-1.27-2.54-.65-.52-1.63-.77-2.93-.77s-2.4.28-3.16.83c-.49.35-.73.83-.73,1.42,0,.54.23,1.01.69,1.39.58.49,2,1,4.25,1.53s3.91,1.08,4.99,1.65c1.08.57,1.92,1.34,2.53,2.33s.91,2.2.91,3.65c0,1.31-.37,2.54-1.09,3.69-.73,1.15-1.76,2-3.09,2.55-1.33.56-3,.84-4.98.84-2.9,0-5.12-.67-6.67-2.01-1.55-1.34-2.48-3.29-2.78-5.85Z" style="fill: #fff;"/>
      </g>
    </g>
    <line x1="266.43" y1="142.82" x2="266.43" y2="182.27" style="fill: none; stroke: #fff; stroke-miterlimit: 10; stroke-width: 1.5px;"/>
  </g>
</svg>