<?xml version="1.0" encoding="UTF-8"?>
<svg id="_圖層_2" data-name="圖層 2" xmlns="http://www.w3.org/2000/svg" width="208.92" height="90.23" viewBox="0 0 208.92 90.23">
  <g id="_設計" data-name="設計">
    <g>
      <path d="M103.31,72.93h83.41c11.78,0,21.33-9.55,21.33-21.33v-29.41c0-11.78-9.55-21.33-21.33-21.33H22.19C10.41.86.86,10.41.86,22.19v29.41c0,11.78,9.55,21.33,21.33,21.33h33.88l38.08,16.22c2.08.89,4.22-1.15,3.43-3.27l-4.8-12.95h10.53Z" style="fill: #fff; stroke: #1d7068; stroke-miterlimit: 10; stroke-width: 1.73px;"/>
      <g>
        <path d="M29.45,35.46h.03s.07-.04.09,0c.55.62,1.52,1.88,2.93,3.78.27.39.41.83.41,1.32,0,.55-.18,1.03-.53,1.44l-.06.09c-.2.25-.45.38-.76.38h-.18c-.39-.06-.66-.26-.82-.62-.31-.66-.64-1.34-1-2.02-.02-.02-.04-.02-.07-.01s-.04.02-.04.04v8.41c0,.43-.15.8-.45,1.11-.3.31-.67.47-1.11.47s-.82-.16-1.13-.47c-.31-.31-.47-.68-.47-1.11v-6.83s-.01-.06-.03-.06c-.02,0-.04,0-.06.03-.55,1.5-1.09,2.76-1.64,3.78-.16.27-.38.41-.67.41h-.09c-.35-.04-.61-.21-.76-.53-.08-.18-.16-.36-.23-.56-.22-.41-.32-.83-.32-1.26,0-.57.18-1.13.53-1.7,1.04-1.74,1.95-3.8,2.75-6.18.02-.04.01-.08-.01-.13s-.07-.07-.13-.07h-1.41c-.47,0-.86-.16-1.19-.48s-.48-.71-.48-1.17.16-.85.48-1.17.72-.48,1.19-.48h1.85c.16,0,.23-.08.23-.23v-.85c0-.14-.07-.2-.21-.18l-.56.15c-.12.02-.23.03-.35.03-.29,0-.58-.1-.85-.29-.35-.27-.57-.63-.64-1.08-.18-1.25-.45-2.54-.82-3.87-.1-.31-.07-.61.09-.89.16-.28.39-.47.7-.57.12-.02.23-.03.35-.03.21,0,.41.05.59.15.31.16.52.4.62.73.55,1.78.9,3.48,1.05,5.1h.03v-6.36c0-.43.16-.8.47-1.11.31-.31.69-.47,1.13-.47s.81.16,1.11.47c.3.31.45.68.45,1.11v5.83s0,.03.03.04c.02,0,.04,0,.06-.01.37-1.33.7-2.81,1-4.45.08-.39.28-.7.62-.94.23-.16.48-.23.73-.23.1,0,.21,0,.32.03.37.08.65.29.85.64.14.2.21.41.21.64,0,.14-.03.27-.09.41-.53,1.76-.93,3.05-1.2,3.87-.18.45-.48.79-.91,1.03-.27.12-.55.18-.82.18-.18,0-.36-.02-.56-.06-.06-.02-.11-.01-.16.01-.05.03-.07.07-.07.13v.88c0,.16.08.23.23.23h.97c.47,0,.86.16,1.19.48s.48.71.48,1.16-.16.83-.48,1.16-.72.48-1.19.48h-1.03c-.12,0-.18.05-.18.15v.15ZM43.14,31.33c0,.14.08.21.23.21h5.6c.35,0,.65.13.91.38.25.25.38.56.38.92s-.13.66-.38.91c-.25.24-.56.37-.91.37h-14.56c-.35,0-.66-.12-.91-.37-.25-.24-.38-.55-.38-.91s.13-.67.38-.92c.25-.25.56-.38.91-.38h5.16c.16,0,.23-.07.23-.21v-.88c0-.16-.08-.23-.23-.23h-3.69c-.33,0-.61-.11-.83-.34-.22-.22-.34-.5-.34-.83s.11-.62.34-.85c.22-.23.5-.35.83-.35h3.69c.16,0,.23-.07.23-.21v-.76c0-.16-.08-.23-.23-.23h-4.31c-.35,0-.66-.12-.91-.37-.25-.24-.38-.54-.38-.89s.13-.65.38-.91c.25-.25.56-.38.91-.38h4.31c.16,0,.23-.07.23-.21v-.23c0-.47.16-.86.48-1.19s.72-.48,1.19-.48.86.16,1.19.48.48.72.48,1.19v.23c0,.14.08.21.23.21h4.89c.35,0,.65.13.91.38.25.25.38.56.38.91s-.13.65-.38.89c-.25.24-.56.37-.91.37h-4.89c-.16,0-.23.08-.23.23v.76c0,.14.08.21.23.21h4.34c.31,0,.59.12.82.35s.35.52.35.85-.12.61-.35.83-.51.34-.82.34h-4.34c-.16,0-.23.08-.23.23v.88ZM46.83,35.31c.47,0,.87.17,1.22.51.34.34.51.75.51,1.22v9.7c0,.74-.1,1.32-.29,1.73-.2.41-.54.73-1.03.97-.61.27-1.55.43-2.84.47h-.06c-.39,0-.75-.13-1.08-.38-.33-.27-.57-.62-.7-1.05-.04-.12-.06-.23-.06-.35,0-.2.06-.38.18-.56.19-.29.46-.44.79-.44l.47.03c.35,0,.62,0,.79-.03.19,0,.33-.03.4-.1.07-.07.1-.19.1-.37v-1.03c0-.16-.07-.23-.21-.23h-6.8c-.16,0-.23.08-.23.23v2.7c0,.45-.16.83-.47,1.16-.31.32-.7.48-1.16.48s-.85-.16-1.16-.48c-.31-.32-.47-.71-.47-1.16v-11.28c0-.47.17-.87.5-1.22.33-.34.74-.51,1.23-.51h10.37ZM45.22,38.07c0-.16-.07-.23-.21-.23h-6.8c-.16,0-.23.08-.23.23v1.03c0,.16.08.23.23.23h6.8c.14,0,.21-.08.21-.23v-1.03ZM37.98,42.87c0,.16.08.23.23.23h6.8c.14,0,.21-.08.21-.23v-1.03c0-.16-.07-.23-.21-.23h-6.8c-.16,0-.23.08-.23.23v1.03Z" style="fill: #1d7068;"/>
        <path d="M69.66,41.35s-.06,0-.06.03,0,.04.03.06l.76.26c.37.12.6.36.67.73v.21c0,.29-.13.53-.38.7-1.31.92-2.81,1.74-4.51,2.46-.02.02-.03.04-.03.07s.02.04.06.04c.64.16,1.39.24,2.23.26,1.19.06,2.68.09,4.48.09h1.9c2.66-.04,5.04-.12,7.15-.23h.06c.35,0,.64.15.88.44.14.21.21.44.21.67,0,.12-.02.24-.06.38v.03c-.16.51-.43.92-.82,1.25-.39.32-.83.49-1.32.51-2.44.1-4.73.15-6.86.15-2.01,0-3.89-.04-5.62-.12-1.82-.08-3.34-.36-4.57-.85s-2.28-1.27-3.13-2.34c-.1-.12-.2-.13-.29-.03-.82.86-1.6,1.64-2.34,2.34-.23.23-.52.35-.85.35-.08,0-.17,0-.26-.03-.41-.08-.71-.31-.91-.7l-.15-.29c-.16-.29-.23-.6-.23-.91,0-.16.03-.32.09-.5.12-.47.37-.86.76-1.17.76-.57,1.42-1.1,1.99-1.61.1-.1.15-.22.15-.38v-6.18c0-.14-.07-.21-.21-.21h-1.23c-.45,0-.83-.16-1.16-.48s-.48-.71-.48-1.16.16-.83.48-1.16.71-.48,1.16-.48h3.02c.49,0,.9.17,1.23.51.33.34.5.75.5,1.22v7.65c0,.16.04.29.12.41.76,1.21,1.94,2.03,3.54,2.46.02,0,.04,0,.06-.03.02-.02.02-.04,0-.06-.29-.27-.63-.58-1-.91-.23-.2-.35-.43-.35-.7,0-.06,0-.12.03-.18.06-.35.25-.6.59-.73,1.5-.55,2.67-1.11,3.49-1.7.04-.02.05-.05.04-.09-.01-.04-.03-.06-.07-.06h-4.16c-.37,0-.68-.13-.94-.38-.25-.25-.38-.56-.38-.92s.13-.67.38-.94c.25-.26.57-.4.94-.4h3.34c.16,0,.23-.07.23-.21v-1.55c0-.14-.08-.21-.23-.21h-2.49c-.35,0-.66-.13-.91-.4-.25-.26-.38-.57-.38-.92s.13-.66.38-.92c.25-.26.56-.4.91-.4h2.55c.12,0,.18-.06.18-.18,0-.39.14-.72.41-1,.27-.27.6-.41,1-.41h.47c.39,0,.72.14,1,.41.27.27.41.61.41,1,0,.12.07.18.21.18h3.11c.12,0,.18-.06.18-.18,0-.39.14-.72.41-1,.27-.27.6-.41,1-.41h.59c.39,0,.72.14,1,.41.27.27.41.61.41,1,0,.12.06.18.18.18h2.64c.35,0,.65.13.91.4.25.26.38.57.38.92s-.13.66-.38.92c-.25.26-.56.4-.91.4h-2.61c-.14,0-.21.07-.21.21v1.55c0,.14.07.21.21.21h3.52c.37,0,.68.13.94.4.25.26.38.58.38.94s-.13.67-.38.92c-.25.25-.57.38-.94.38h-4.31s-.06.01-.06.04,0,.04.03.04c1.54.74,2.92,1.48,4.13,2.23.27.16.41.38.41.67,0,.43-.2.71-.59.85l-.38.15c-.37.14-.73.21-1.08.21-.66,0-1.3-.21-1.9-.64-.74-.51-1.51-.99-2.31-1.44-.33-.2-.5-.48-.5-.85s.16-.64.47-.82l.59-.32s.03-.04.03-.07-.02-.04-.06-.04h-6.53ZM61.46,26.11c.21.27.32.58.32.91,0,.12-.01.24-.03.38-.12.47-.38.83-.79,1.08l-.15.09c-.27.18-.56.26-.85.26-.12,0-.25-.02-.38-.06-.45-.1-.81-.34-1.08-.73-.53-.76-1.18-1.57-1.96-2.43-.23-.27-.35-.59-.35-.94v-.18c.04-.43.24-.76.62-1,.35-.23.73-.35,1.14-.35.06,0,.13,0,.21.03.51.04.93.23,1.26.59.82.84,1.5,1.62,2.05,2.34ZM68.78,26.32c.16,0,.23-.07.23-.21v-.82c0-.16-.08-.23-.23-.23h-4.31c-.31,0-.58-.11-.81-.32-.22-.21-.34-.48-.34-.79s.11-.58.34-.81c.22-.22.49-.34.81-.34h5.8c.49,0,.9.17,1.23.51.33.34.5.75.5,1.22v2.34c0,.47-.17.87-.5,1.22-.33.34-.74.51-1.23.51h-3.37c-.14,0-.21.08-.21.23v.41c0,.31.05.51.16.6.11.09.36.13.75.13h2.29c.29,0,.5-.07.62-.21.27-.37.56-.56.85-.56.1,0,.19.02.28.06s.19.07.31.09c.37.14.65.36.85.67.12.18.18.36.18.56,0,.12-.03.24-.09.38-.22.51-.53.86-.94,1.05s-.96.29-1.64.29h-3.16c-1.31,0-2.2-.21-2.68-.64-.48-.43-.72-1.24-.72-2.43v-1.2c0-.47.17-.87.51-1.22.34-.34.75-.51,1.22-.51h3.31ZM71.36,36.75c-.16,0-.23.07-.23.21v1.55c0,.14.08.21.23.21h3.05c.14,0,.21-.07.21-.21v-1.55c0-.14-.07-.21-.21-.21h-3.05ZM78.63,26.32c.16,0,.23-.07.23-.21v-.82c0-.16-.08-.23-.23-.23h-4.48c-.31,0-.58-.11-.79-.32-.22-.21-.32-.48-.32-.79s.11-.58.32-.81c.21-.22.48-.34.79-.34h6.01c.47,0,.87.17,1.22.51.34.34.51.75.51,1.22v2.34c0,.47-.17.87-.51,1.22-.34.34-.75.51-1.22.51h-3.43c-.14,0-.21.08-.21.23v.38c0,.31.05.52.16.62.11.1.35.15.72.15h2.43c.29,0,.49-.07.59-.21.31-.39.62-.59.91-.59.1,0,.19.02.28.06s.18.07.28.09c.37.14.66.36.88.67.12.18.18.36.18.56,0,.14-.03.27-.09.41-.22.51-.53.86-.94,1.05s-.98.29-1.7.29h-3.22c-1.35,0-2.25-.21-2.71-.64-.46-.43-.69-1.24-.69-2.43v-1.2c0-.47.17-.87.51-1.22.34-.34.75-.51,1.22-.51h3.31Z" style="fill: #1d7068;"/>
        <path d="M96.36,35.23c.12-.04.23-.06.35-.06.27,0,.53.09.76.26.35.23.56.56.62.97.02.1.03.19.03.26,0,.35-.11.69-.32,1.03-.25.37-.61.62-1.05.76-.39.12-.69.21-.91.26-.14.04-.21.14-.21.29v6.91c0,.9-.09,1.6-.28,2.11-.19.51-.51.89-.98,1.14-.63.39-1.54.62-2.75.7h-.12c-.43,0-.82-.15-1.17-.44-.39-.31-.66-.72-.79-1.23-.02-.06-.04-.11-.06-.15-.04-.14-.06-.26-.06-.38,0-.25.09-.49.26-.7.21-.33.53-.5.94-.5h.23c.39,0,.66,0,.82-.03.19,0,.33-.04.41-.12.08-.08.12-.22.12-.44v-5.95s-.03-.08-.07-.12c-.05-.04-.09-.05-.13-.03l-1.46.38c-.16.04-.3.06-.44.06-.29,0-.58-.08-.85-.23-.39-.23-.63-.59-.73-1.05l-.03-.06c-.02-.14-.03-.27-.03-.41,0-.31.09-.62.26-.91.25-.39.62-.64,1.08-.76.53-.12,1.25-.28,2.17-.5.16-.04.23-.13.23-.26v-4.98c0-.14-.08-.21-.23-.21h-1.61c-.45,0-.83-.16-1.16-.48s-.48-.71-.48-1.16.16-.83.48-1.16.71-.48,1.16-.48h1.61c.16,0,.23-.07.23-.21v-3.72c0-.47.17-.87.5-1.2.33-.33.73-.5,1.2-.5s.87.17,1.22.5c.34.33.51.73.51,1.2v3.72c0,.14.07.21.21.21h.47c.45,0,.83.16,1.14.48.31.32.47.71.47,1.16s-.16.83-.47,1.16c-.31.32-.69.48-1.14.48h-.47c-.14,0-.21.07-.21.21v4.13c0,.06.02.1.06.13.04.03.09.04.15.04l.53-.15ZM114.7,45.19c.45,0,.83.16,1.14.48s.47.7.47,1.14-.16.82-.47,1.14-.69.48-1.14.48h-10.99c-.12,0-.18.06-.18.18,0,.35-.13.65-.38.91-.25.25-.57.38-.94.38h-.38c-.49,0-.9-.17-1.23-.5-.33-.33-.5-.73-.5-1.2v-13.95s-.01-.06-.04-.07-.05,0-.07.03c-.02.03-.05.06-.09.1-.23.29-.54.44-.91.44h-.12c-.43-.02-.77-.21-1.03-.59-.08-.12-.16-.23-.23-.35-.27-.37-.41-.79-.41-1.26,0-.51.16-.97.47-1.38,1.6-2.05,2.91-4.6,3.93-7.65.16-.45.44-.8.85-1.05.29-.18.6-.26.91-.26.14,0,.27.02.41.06l.06.03c.47.1.82.35,1.05.76.14.25.21.51.21.76,0,.18-.03.35-.09.53-.31.92-.67,1.86-1.08,2.81-.02.06-.01.11.01.15s.07.06.13.06h2.84c.16,0,.26-.07.32-.21.45-1.17.86-2.35,1.23-3.54.14-.45.42-.8.85-1.05.29-.2.61-.29.94-.29.12,0,.24.02.38.06l.38.06c.45.1.78.34,1,.73.1.21.15.43.15.64,0,.2-.04.39-.12.59-.49,1.11-.91,2.05-1.26,2.81-.02.06-.01.11.01.15s.06.06.1.06h3.31c.43,0,.8.16,1.11.47s.47.68.47,1.11-.16.8-.47,1.11-.68.47-1.11.47h-3.66c-.16,0-.23.07-.23.21v2.34c0,.16.08.23.23.23h2.96c.41,0,.76.15,1.05.44s.44.64.44,1.05-.15.76-.44,1.05-.64.44-1.05.44h-2.96c-.16,0-.23.08-.23.23v2.46c0,.16.08.23.23.23h2.96c.41,0,.76.15,1.05.44s.44.64.44,1.05-.15.76-.44,1.05-.64.44-1.05.44h-2.96c-.16,0-.23.07-.23.21v2.55c0,.14.08.21.23.21h4.16ZM106.79,33.32c.16,0,.23-.08.23-.23v-2.34c0-.14-.08-.21-.23-.21h-3.05c-.14,0-.21.07-.21.21v2.34c0,.16.07.23.21.23h3.05ZM106.79,39.24c.16,0,.23-.08.23-.23v-2.46c0-.16-.08-.23-.23-.23h-3.05c-.14,0-.21.08-.21.23v2.46c0,.16.07.23.21.23h3.05ZM103.75,42.23c-.14,0-.21.07-.21.21v2.55c0,.14.07.21.21.21h3.05c.16,0,.23-.07.23-.21v-2.55c0-.14-.08-.21-.23-.21h-3.05Z" style="fill: #1d7068;"/>
        <path d="M132.58,37.42c-.14,0-.22.07-.26.21l-.15.67c-.04.14.02.21.18.21h15.12c.31,0,.58.11.81.32s.34.48.34.79-.11.58-.34.81-.49.34-.81.34h-15.67c-.14,0-.22.07-.26.21l-.15.62c-.02.06-.01.11.01.16s.07.07.13.07h14.97c.47,0,.86.17,1.17.5.29.31.44.66.44,1.05v.15c-.14,1.62-.3,2.86-.5,3.71s-.45,1.43-.76,1.74c-.47.51-1.09.79-1.88.85-.43.06-.98.09-1.64.09-.37,0-.7-.13-.98-.38s-.48-.58-.6-.97c-.08-.29-.03-.57.13-.82s.41-.37.72-.35h.67c.39,0,.66-.08.82-.23.29-.31.52-1.25.67-2.81.02-.16-.05-.23-.21-.23h-3.25s-.07.02-.09.06,0,.08.03.12c.31.35.61.73.88,1.14.14.2.21.4.21.62,0,.1-.02.21-.06.32-.12.33-.34.58-.67.73-.18.1-.36.15-.56.15-.14,0-.28-.03-.44-.09-.33-.12-.6-.33-.79-.64l-.18-.29c-.16-.23-.23-.48-.23-.73,0-.14.02-.27.06-.41.12-.39.37-.67.76-.85l.06-.03s.03-.01.03-.04,0-.04-.03-.04h-9.55s-.06.02-.06.06c-.08.27-.25.39-.53.35l-1.2-.09c-.41-.04-.73-.23-.97-.59-.16-.23-.23-.48-.23-.73,0-.14.02-.27.06-.41.43-1.54.82-3.23,1.17-5.07.04-.14-.02-.21-.18-.21h-1.67c-.16,0-.23.08-.23.23-.18,4.32-.89,7.82-2.14,10.52-.18.39-.49.63-.94.73-.14.04-.26.06-.38.06-.31,0-.61-.09-.88-.26-.39-.23-.65-.57-.79-1-.06-.18-.09-.36-.09-.56,0-.23.06-.48.18-.73,1.19-2.62,1.79-6.42,1.79-11.4v-4.86c0-.49.17-.9.5-1.23s.74-.5,1.23-.5h8.06c.12,0,.18-.06.18-.18,0-.35.12-.65.37-.89s.54-.37.89-.37h.79c.35,0,.65.12.89.37s.37.54.37.89c0,.12.06.18.18.18h10.2c.31,0,.59.12.82.35s.35.52.35.85-.12.62-.35.85-.51.35-.82.35h-7.06c-.14,0-.21.07-.21.21v.79c0,.16.07.23.21.23h5.27c.49,0,.9.17,1.23.5s.5.74.5,1.23v1.9c0,.49-.17.9-.5,1.23s-.74.5-1.23.5h-12.92ZM142.52,23.3c0,.12.06.18.18.18h4.63c.37,0,.7.14.98.41s.42.61.42,1-.14.72-.42,1-.61.41-.98.41h-4.63c-.12,0-.18.06-.18.18,0,.39-.14.72-.41.98s-.61.4-1,.4h-.79c-.37,0-.69-.13-.97-.4s-.41-.59-.41-.98c0-.12-.06-.18-.18-.18h-6.65c-.12,0-.18.06-.18.18,0,.39-.13.72-.4.98s-.59.4-.98.4h-.76c-.39,0-.72-.13-1-.4s-.41-.59-.41-.98c0-.12-.06-.18-.18-.18h-4.66c-.39,0-.73-.14-1.01-.41s-.42-.61-.42-1,.14-.72.42-1,.62-.41,1.01-.41h4.66c.12,0,.18-.06.18-.18,0-.39.14-.72.41-.98s.61-.4,1-.4h.76c.39,0,.72.13.98.4s.4.59.4.98c0,.12.06.18.18.18h6.65c.12,0,.18-.06.18-.18,0-.39.14-.72.41-.98s.6-.4.97-.4h.79c.39,0,.72.13,1,.4s.41.59.41.98ZM128.37,49c-.29.31-.65.49-1.08.53h-.18c-.37,0-.71-.11-1.03-.32-.33-.21-.5-.52-.5-.91,0-.33.12-.62.35-.85.43-.49.82-1.04,1.17-1.64.2-.33.48-.58.85-.73.18-.08.35-.12.53-.12s.35.04.53.12c.37.16.62.41.76.76.08.16.12.32.12.5,0,.2-.05.38-.15.56-.43.82-.89,1.52-1.38,2.11ZM130.5,31.04c0-.14-.07-.21-.21-.21h-3.11c-.16,0-.23.07-.23.21v.79c0,.16.08.23.23.23h3.11c.14,0,.21-.08.21-.23v-.79ZM126.96,35.02v.23c0,.16.08.23.23.23h3.11c.14,0,.21-.08.21-.23v-1c0-.16-.07-.23-.21-.23h-3.11c-.16,0-.23.08-.23.23v.76ZM131.35,46.59c-.02-.08-.03-.15-.03-.21,0-.27.09-.53.26-.76.2-.29.48-.47.85-.53h.21c.29,0,.57.09.82.26.31.21.5.51.56.88.1.53.18,1.05.23,1.58v.15c0,.33-.11.63-.32.91-.25.29-.58.47-.97.53-.08.02-.15.03-.21.03-.29,0-.55-.11-.76-.32-.29-.23-.45-.54-.47-.91-.04-.53-.1-1.06-.18-1.61ZM136.77,32.06c.14,0,.21-.08.21-.23v-.79c0-.14-.07-.21-.21-.21h-3.05c-.16,0-.23.07-.23.21v.79c0,.16.08.23.23.23h3.05ZM133.49,35.26c0,.16.08.23.23.23h3.05c.14,0,.21-.08.21-.23v-1c0-.16-.07-.23-.21-.23h-3.05c-.16,0-.23.08-.23.23v1ZM135.43,46.48c-.06-.16-.09-.3-.09-.44,0-.18.04-.34.12-.5.14-.31.37-.52.7-.62.14-.04.28-.06.44-.06.2,0,.4.04.62.12.33.16.58.4.73.73.2.43.37.87.53,1.32.04.16.06.3.06.44,0,.2-.05.4-.15.62-.2.33-.48.56-.85.67-.12.04-.24.06-.38.06-.21,0-.42-.06-.62-.18-.31-.2-.53-.47-.64-.82-.14-.43-.29-.88-.47-1.35ZM143.78,34.26c0-.16-.08-.23-.23-.23h-3.31c-.14,0-.21.08-.21.23v1c0,.16.07.23.21.23h3.31c.16,0,.23-.08.23-.23v-1Z" style="fill: #1d7068;"/>
        <path d="M158.26,47.74c-.78,0-1.43-.27-1.95-.82s-.78-1.23-.78-2.05.26-1.5.78-2.05,1.17-.82,1.95-.82,1.44.27,1.96.82.79,1.23.79,2.05-.26,1.5-.79,2.05-1.18.82-1.96.82Z" style="fill: #1d7068;"/>
        <path d="M170.99,47.74c-.78,0-1.43-.27-1.95-.82s-.78-1.23-.78-2.05.26-1.5.78-2.05,1.17-.82,1.95-.82,1.44.27,1.96.82.79,1.23.79,2.05-.26,1.5-.79,2.05-1.18.82-1.96.82Z" style="fill: #1d7068;"/>
        <path d="M183.71,47.74c-.78,0-1.43-.27-1.95-.82s-.78-1.23-.78-2.05.26-1.5.78-2.05,1.17-.82,1.95-.82,1.44.27,1.96.82.79,1.23.79,2.05-.26,1.5-.79,2.05-1.18.82-1.96.82Z" style="fill: #1d7068;"/>
      </g>
    </g>
  </g>
</svg>