<?xml version="1.0" encoding="UTF-8"?>
<svg id="_圖層_2" data-name="圖層 2" xmlns="http://www.w3.org/2000/svg" width="1651.75" height="782.01" viewBox="0 0 1651.75 782.01">
  <g id="_背景" data-name="背景">
    <g style="opacity: .5;">
      <g>
        <path d="M1209.02,528.7c-26.07-13.74-53.03-27.95-79.27-41.78,36.25-91.06,36.24-102.4-1.61-185.78,30.73-15.37,61.78-30.91,92.01-46.03-43.83-21.56-82.03-58.98-81.42-115.47.35-32.23,13.57-69.68,33.31-95.28,46.86-60.76,134.85-58.14,193.3,1.98-35.23,54.46-39.26,111.16,5.57,174.46-32.63,17.03-62.31,32.52-93.33,48.71,44.2,26.09,77.77,61.58,79.19,120.26,1.4,57.74-28.65,94.98-73.09,124.52,28.23,15.23,55.04,29.7,85.84,46.33-39.07,59.95-44.06,116.65-4.82,171.67-45.04,59.55-129,66.38-184.07,16.31-68.39-62.17-58-137.79,28.38-219.9Z" style="fill: #fff;"/>
        <path d="M917.4,528.29c-26.01-14.51-50.54-28.2-77.97-43.51,37.46-60.44,42.49-118.51-2.05-182.11,31.93-16.51,61.49-31.79,90.66-46.88-55.54-25.94-90.55-70.11-84.87-136.8,4.36-51.18,30.79-91.19,80.14-109.11,53.07-19.27,102.91-11.58,147.91,34.15-37.01,56-40.96,114.32,4.32,176.21-31.1,16.95-58.07,31.65-87.73,47.82,45.55,26.47,80.62,61.49,82.34,119.4,1.75,59.06-26.74,99.24-76.88,127.73,25.93,14.64,51.02,28.81,81.26,45.89-40.37,59.8-43.96,117.99-4.29,173.45-55.84,60.77-143.21,61.95-194.41,5.09-58.03-64.44-42.56-143.63,41.57-211.32Z" style="fill: #fff;"/>
        <path d="M1413.63,302.35c34.98-17.45,62.68-31.26,91.12-45.45-58.98-31.31-95-80.19-82.08-152.09,9.08-50.51,40.58-85.31,91.27-99.29,51.84-14.3,95.25-.55,133.69,42.07-36.73,54.57-35.93,111.15,4.12,173.32-30.14,16.41-58.34,31.76-85.78,46.7,109.73,74.73,112.27,170.75,6.04,248.47,25.19,14.12,50.75,28.44,79.12,44.35-37.68,61.18-42.62,119.19-2.55,175-60.34,60.74-148,60.41-198.02,1.23-53.83-63.69-36.06-146.75,45.32-207.77-24.8-13.91-49.43-27.72-79.66-44.68,39.75-59.21,44.2-117.46-2.58-181.86Z" style="fill: #fff;"/>
      </g>
      <g>
        <path d="M371.65,528.7c-26.07-13.74-53.03-27.95-79.27-41.78,36.25-91.06,36.24-102.4-1.61-185.78,30.73-15.37,61.78-30.91,92.01-46.03-43.83-21.56-82.03-58.98-81.42-115.47.35-32.23,13.57-69.68,33.31-95.28,46.86-60.76,134.85-58.14,193.3,1.98-35.23,54.46-39.26,111.16,5.57,174.46-32.63,17.03-62.31,32.52-93.33,48.71,44.2,26.09,77.77,61.58,79.19,120.26,1.4,57.74-28.65,94.98-73.09,124.52,28.23,15.23,55.04,29.7,85.84,46.33-39.07,59.95-44.06,116.65-4.82,171.67-45.04,59.55-129,66.38-184.07,16.31-68.39-62.17-58-137.79,28.38-219.9Z" style="fill: #fff;"/>
        <path d="M80.02,528.29c-26.01-14.51-50.54-28.2-77.97-43.51,37.46-60.44,42.49-118.51-2.05-182.11,31.93-16.51,61.49-31.79,90.66-46.88C35.12,229.85.11,185.68,5.79,118.99,10.15,67.81,36.58,27.8,85.93,9.88,139-9.38,188.84-1.7,233.84,44.03c-37.01,56-40.96,114.32,4.32,176.21-31.1,16.95-58.07,31.65-87.73,47.82,45.55,26.47,80.62,61.49,82.34,119.4,1.75,59.06-26.74,99.24-76.88,127.73,25.93,14.64,51.02,28.81,81.26,45.89-40.37,59.8-43.96,117.99-4.29,173.45-55.84,60.77-143.21,61.95-194.41,5.09-58.03-64.44-42.56-143.63,41.57-211.32Z" style="fill: #fff;"/>
        <path d="M576.26,302.35c34.98-17.45,62.68-31.26,91.12-45.45-58.98-31.31-95-80.19-82.08-152.09,9.08-50.51,40.58-85.31,91.27-99.29,51.84-14.3,95.25-.55,133.69,42.07-36.73,54.57-35.93,111.15,4.12,173.32-30.14,16.41-58.34,31.76-85.78,46.7,109.73,74.73,112.27,170.75,6.04,248.47,25.19,14.12,50.75,28.44,79.12,44.35-37.68,61.18-42.62,119.19-2.55,175-60.34,60.74-148,60.41-198.02,1.23-53.83-63.69-36.06-146.75,45.32-207.77-24.8-13.91-49.43-27.72-79.66-44.68,39.75-59.21,44.2-117.46-2.58-181.86Z" style="fill: #fff;"/>
      </g>
    </g>
  </g>
</svg>