<?xml version="1.0" encoding="UTF-8"?>
<svg id="_圖層_2" data-name="圖層 2" xmlns="http://www.w3.org/2000/svg" width="287.77" height="118.57" viewBox="0 0 287.77 118.57">
  <g id="_設計" data-name="設計">
    <g>
      <path d="M1.52,112.98c-.44,0-.8-.15-1.09-.45-.29-.3-.43-.66-.43-1.08s.14-.8.41-1.1c.28-.31.65-.47,1.11-.47s.82.15,1.09.46c.27.31.4.69.4,1.13,0,.42-.13.77-.4,1.05-.28.3-.64.45-1.08.45,0,0-.01,0-.01-.01Z" style="fill: #f4f4f2;"/>
      <path d="M23.95,114.21s-.03,0-.03.01,0,.02.01.03l.38.13c.19.06.3.18.34.37v.1c0,.15-.06.26-.19.35-.65.46-1.41.87-2.26,1.23,0,0-.01.02-.01.04,0,.01,0,.02.03.02.32.08.69.12,1.11.13.6.03,1.34.04,2.24.04h.95c1.33-.02,2.52-.06,3.57-.12h.03c.18,0,.32.07.44.22.07.11.1.22.1.34,0,.06,0,.12-.03.19h0c-.08.27-.21.48-.41.64-.2.16-.42.25-.66.26-1.22.05-2.36.07-3.43.07-1.01,0-1.94-.02-2.81-.06-.91-.04-1.67-.18-2.29-.42s-1.14-.63-1.57-1.17c-.05-.06-.1-.06-.15-.01-.41.43-.8.82-1.17,1.17-.12.12-.26.18-.42.18-.04,0-.08,0-.13-.01-.21-.04-.36-.16-.45-.35l-.07-.15c-.08-.15-.12-.3-.12-.45,0-.08.01-.16.04-.25.06-.23.19-.43.38-.59.38-.28.71-.55,1-.81.05-.05.07-.11.07-.19v-3.09c0-.07-.03-.1-.1-.1h-.62c-.22,0-.42-.08-.58-.24-.16-.16-.24-.35-.24-.58s.08-.42.24-.58c.16-.16.35-.24.58-.24h1.51c.24,0,.45.09.62.26.17.17.25.37.25.61v3.82c0,.08.02.15.06.21.38.61.97,1.02,1.77,1.23,0,0,.02,0,.03-.01s0-.02,0-.03c-.15-.14-.31-.29-.5-.45-.12-.1-.18-.21-.18-.35,0-.03,0-.06.01-.09.03-.18.13-.3.29-.37.75-.27,1.33-.56,1.74-.85.02,0,.03-.02.02-.04s-.02-.03-.04-.03h-2.08c-.19,0-.34-.06-.47-.19s-.19-.28-.19-.46.06-.34.19-.47c.13-.13.28-.2.47-.2h1.67c.08,0,.12-.03.12-.1v-.78c0-.07-.04-.1-.12-.1h-1.25c-.18,0-.33-.07-.45-.2-.13-.13-.19-.29-.19-.46s.06-.33.19-.46c.13-.13.28-.2.45-.2h1.27c.06,0,.09-.03.09-.09,0-.2.07-.36.21-.5s.3-.21.5-.21h.23c.2,0,.36.07.5.21s.21.3.21.5c0,.06.03.09.1.09h1.55c.06,0,.09-.03.09-.09,0-.2.07-.36.21-.5s.3-.21.5-.21h.29c.2,0,.36.07.5.21s.21.3.21.5c0,.06.03.09.09.09h1.32c.18,0,.33.07.45.2.13.13.19.29.19.46s-.06.33-.19.46c-.13.13-.28.2-.45.2h-1.3c-.07,0-.1.03-.1.1v.78c0,.07.03.1.1.1h1.76c.19,0,.34.07.47.2.13.13.19.29.19.47s-.06.33-.19.46-.28.19-.47.19h-2.15s-.03,0-.03.02c0,.02,0,.02.01.02.77.37,1.46.74,2.07,1.11.14.08.21.19.21.34,0,.21-.1.36-.29.42l-.19.07c-.19.07-.37.1-.54.1-.33,0-.65-.11-.95-.32-.37-.25-.76-.49-1.16-.72-.17-.1-.25-.24-.25-.42s.08-.32.23-.41l.29-.16s.01-.02.01-.04c0-.01,0-.02-.03-.02h-3.27ZM19.85,106.59c.11.14.16.29.16.45,0,.06,0,.12-.01.19-.06.23-.19.42-.4.54l-.07.04c-.14.09-.28.13-.42.13-.06,0-.12,0-.19-.03-.22-.05-.41-.17-.54-.37-.26-.38-.59-.79-.98-1.22-.12-.14-.18-.29-.18-.47v-.09c.02-.21.12-.38.31-.5.18-.12.37-.18.57-.18.03,0,.06,0,.1.01.25.02.46.12.63.29.41.42.75.81,1.03,1.17ZM23.51,106.69c.08,0,.12-.03.12-.1v-.41c0-.08-.04-.12-.12-.12h-2.15c-.16,0-.29-.05-.4-.16s-.17-.24-.17-.4.06-.29.17-.4.25-.17.4-.17h2.9c.24,0,.45.09.62.26s.25.37.25.61v1.17c0,.23-.08.44-.25.61-.17.17-.37.26-.62.26h-1.68c-.07,0-.1.04-.1.12v.21c0,.16.03.26.08.3.05.04.18.07.37.07h1.14c.15,0,.25-.03.31-.1.14-.19.28-.28.42-.28.05,0,.1,0,.14.03s.1.03.15.04c.19.07.33.18.42.34.06.09.09.18.09.28,0,.06-.01.12-.04.19-.11.25-.26.43-.47.53s-.48.15-.82.15h-1.58c-.65,0-1.1-.11-1.34-.32s-.36-.62-.36-1.22v-.6c0-.23.09-.44.26-.61s.37-.26.61-.26h1.66ZM24.8,111.91c-.08,0-.12.03-.12.1v.78c0,.07.04.1.12.1h1.52c.07,0,.1-.03.1-.1v-.78c0-.07-.03-.1-.1-.1h-1.52ZM28.44,106.69c.08,0,.12-.03.12-.1v-.41c0-.08-.04-.12-.12-.12h-2.24c-.16,0-.29-.05-.4-.16s-.16-.24-.16-.4.05-.29.16-.4.24-.17.4-.17h3c.23,0,.44.09.61.26s.26.37.26.61v1.17c0,.23-.09.44-.26.61-.17.17-.37.26-.61.26h-1.71c-.07,0-.1.04-.1.12v.19c0,.16.03.26.08.31s.17.07.36.07h1.22c.15,0,.24-.03.29-.1.16-.2.31-.29.45-.29.05,0,.1,0,.14.03s.09.03.14.04c.19.07.33.18.44.34.06.09.09.18.09.28,0,.07-.01.14-.04.21-.11.25-.26.43-.47.53s-.49.15-.85.15h-1.61c-.67,0-1.13-.11-1.35-.32s-.34-.62-.34-1.22v-.6c0-.23.09-.44.26-.61s.37-.26.61-.26h1.66Z" style="fill: #f4f4f2;"/>
      <path d="M37.51,111c.07-.02.14-.03.21-.03.13,0,.25.04.37.12.19.12.29.28.32.5v.13c0,.18-.05.34-.15.5-.13.21-.3.34-.51.41-.21.06-.4.11-.57.16-.07.02-.1.06-.1.13v3.69c0,.43-.04.76-.12,1s-.24.42-.46.57c-.28.18-.69.28-1.23.31h-.06c-.21,0-.41-.07-.59-.22-.19-.16-.31-.36-.38-.6,0-.06-.01-.12-.01-.18,0-.13.04-.25.12-.37.13-.17.29-.25.48-.25.18,0,.3,0,.38-.01.09,0,.15-.02.19-.05.04-.03.06-.1.06-.2v-3.21s0-.05-.03-.07c-.02-.02-.04-.02-.07,0-.15.04-.31.09-.48.15-.08.02-.16.03-.23.03-.14,0-.27-.04-.41-.12-.21-.13-.33-.3-.38-.53v-.03c-.02-.07-.03-.13-.03-.19,0-.17.04-.32.13-.45.13-.21.31-.34.54-.4.1-.02.24-.05.43-.1s.33-.08.43-.1c.07-.02.1-.07.1-.15v-2.37c0-.07-.03-.1-.1-.1h-.64c-.22,0-.42-.08-.58-.24-.16-.16-.24-.35-.24-.58s.08-.42.24-.58c.16-.16.35-.24.58-.24h.64c.07,0,.1-.03.1-.1v-1.9c0-.22.08-.42.24-.57s.35-.23.58-.23.42.08.57.23.23.35.23.57v1.9c0,.07.04.1.12.1h.42c.23,0,.43.08.59.24.16.16.23.35.23.58s-.08.42-.23.58c-.16.16-.35.24-.59.24h-.42c-.08,0-.12.03-.12.1v1.95s.01.05.04.07c.02.01.05.02.07,0l.34-.09ZM47.53,111.12c.13.13.2.29.2.47s-.07.34-.2.47c-.13.13-.29.2-.46.2h-.73c-.07,0-.12.03-.16.1-.21.35-.4.66-.54.92,0,.03,0,.05,0,.07s.03.03.05.03h1.22c.18,0,.33.06.46.19s.2.28.2.47-.07.34-.2.47-.29.19-.46.19h-2.92c-.07,0-.1.04-.1.12v.47c0,.07.03.1.1.1h2.58c.19,0,.34.06.46.19s.18.28.18.45-.06.33-.18.45-.28.19-.46.19h-2.58c-.07,0-.1.04-.1.12v.92c0,.23-.08.43-.25.6s-.37.25-.6.25-.43-.08-.6-.25-.25-.37-.25-.6v-.92c0-.08-.03-.12-.1-.12h-2.45c-.18,0-.33-.06-.45-.19s-.19-.28-.19-.45.06-.33.19-.45.28-.19.45-.19h2.45c.07,0,.1-.03.1-.1v-.47c0-.08-.03-.12-.1-.12h-2.81c-.19,0-.34-.06-.47-.19s-.19-.28-.19-.47.06-.34.19-.47.28-.19.47-.19h1.17s.05-.01.07-.04c.02-.02.02-.05.01-.07-.05-.18-.11-.37-.18-.57-.03-.1-.02-.19.03-.28s.12-.14.22-.16h0s-1.45-.01-1.45-.01c-.19,0-.34-.07-.48-.2-.13-.13-.2-.29-.2-.47s.07-.34.2-.47c.13-.13.29-.2.48-.2h2.93c.07,0,.1-.04.1-.12v-.47c0-.07-.03-.1-.1-.1h-2.23c-.18,0-.32-.06-.45-.19s-.18-.28-.18-.45.06-.32.18-.45.27-.18.45-.18h2.23c.07,0,.1-.04.1-.12v-.37c0-.07-.03-.1-.1-.1h-2.18c-.23,0-.44-.08-.61-.26s-.26-.37-.26-.61v-1.63c0-.24.09-.45.26-.62s.37-.25.61-.25h6.53c.24,0,.45.08.62.25s.25.37.25.62v1.63c0,.23-.08.44-.25.61s-.37.26-.62.26h-2.45c-.07,0-.1.03-.1.1v.37c0,.08.03.12.1.12h2.46c.18,0,.32.06.45.18s.18.27.18.45-.06.33-.18.45-.27.19-.45.19h-2.46c-.07,0-.1.03-.1.1v.47c0,.08.03.12.1.12h3.08c.18,0,.33.07.46.2ZM41.2,107.19c.08,0,.12-.04.12-.12v-.76c0-.08-.04-.12-.12-.12h-.66c-.08,0-.12.04-.12.12v.76c0,.08.04.12.12.12h.66ZM44.16,113.39c-.07-.02-.09-.06-.06-.12.13-.31.24-.62.34-.91,0-.02,0-.04,0-.07-.01-.02-.04-.04-.07-.04h-2.46s-.05.01-.07.04c-.01.03-.01.05,0,.07.1.25.18.47.23.66.02.08,0,.15-.03.22s-.1.11-.19.13h0s2.3.01,2.3.01ZM42.78,106.19c-.08,0-.12.04-.12.12v.76c0,.08.04.12.12.12h.69c.07,0,.1-.04.1-.12v-.76c0-.08-.03-.12-.1-.12h-.69ZM45.03,106.19c-.07,0-.1.04-.1.12v.76c0,.08.03.12.1.12h.72c.07,0,.1-.04.1-.12v-.76c0-.08-.03-.12-.1-.12h-.72Z" style="fill: #f4f4f2;"/>
      <path d="M59.59,115.83c-.91,1.04-2.11,1.57-3.6,1.57s-2.68-.52-3.6-1.57-1.37-2.46-1.37-4.23.45-3.17,1.36-4.19,2.11-1.52,3.6-1.52,2.7.51,3.6,1.52,1.36,2.41,1.36,4.19-.46,3.19-1.37,4.23ZM54.03,114.43c.49.7,1.15,1.05,1.97,1.05s1.48-.35,1.97-1.05.73-1.65.73-2.83-.24-2.11-.73-2.79c-.49-.68-1.15-1.02-1.98-1.02s-1.49.34-1.97,1.02c-.48.68-.73,1.61-.73,2.79s.24,2.12.73,2.83Z" style="fill: #f4f4f2;"/>
      <path d="M73.08,115.83c-.91,1.04-2.11,1.57-3.6,1.57s-2.68-.52-3.6-1.57-1.37-2.46-1.37-4.23.45-3.17,1.36-4.19,2.11-1.52,3.6-1.52,2.7.51,3.6,1.52,1.36,2.41,1.36,4.19-.46,3.19-1.37,4.23ZM67.52,114.43c.49.7,1.15,1.05,1.97,1.05s1.48-.35,1.97-1.05.73-1.65.73-2.83-.24-2.11-.73-2.79c-.49-.68-1.15-1.02-1.98-1.02s-1.49.34-1.97,1.02c-.48.68-.73,1.61-.73,2.79s.24,2.12.73,2.83Z" style="fill: #f4f4f2;"/>
      <path d="M79.43,117.19c-.23,0-.44-.08-.61-.26s-.26-.37-.26-.61v-9.38c0-.23.09-.44.26-.61.17-.17.37-.26.61-.26h.5c.23,0,.44.09.61.26.17.17.26.37.26.61v8.28c0,.07.03.1.1.1h3.53c.23,0,.44.09.61.26s.26.37.26.61v.13c0,.23-.09.44-.26.61s-.37.26-.61.26h-5Z" style="fill: #f4f4f2;"/>
      <path d="M95.93,117.19c-.25,0-.48-.08-.69-.23s-.34-.36-.41-.6l-.51-1.9c-.02-.08-.07-.12-.15-.12h-3.38c-.07,0-.11.04-.13.12l-.53,1.9c-.07.24-.2.44-.4.6s-.43.23-.68.23h-.53c-.21,0-.39-.09-.51-.26-.08-.11-.12-.22-.12-.35,0-.07,0-.14.03-.21l3.03-9.46c.08-.24.22-.44.42-.59.21-.15.44-.23.7-.23h.88c.25,0,.49.08.7.23.21.15.35.35.43.59l3.05,9.46c.02.07.03.14.03.21,0,.13-.04.24-.13.35-.13.18-.29.26-.5.26h-.6ZM91.2,112.51s0,.06,0,.08c.01.03.04.04.07.04h2.42s.05-.01.07-.04c.02-.02.02-.05.01-.08l-.31-1.1c-.13-.44-.3-1.09-.53-1.96-.22-.86-.37-1.41-.44-1.65,0-.02,0-.03-.03-.03s-.03,0-.04.03c-.28,1.19-.6,2.39-.94,3.6l-.29,1.1Z" style="fill: #f4f4f2;"/>
      <path d="M101.5,117.19c-.23,0-.44-.08-.61-.26s-.26-.37-.26-.61v-9.38c0-.23.09-.44.26-.61.17-.17.37-.26.61-.26h2.81c2.68,0,4.01.91,4.01,2.74,0,.52-.13,1-.4,1.45s-.62.76-1.06.94c-.03,0-.04.01-.04.04s0,.04.03.04c.62.16,1.12.45,1.49.89s.56,1.02.56,1.73c0,1.07-.4,1.89-1.19,2.44-.79.55-1.83.83-3.11.83h-3.11ZM102.86,110.5c0,.07.03.1.1.1h1.19c.68,0,1.19-.13,1.52-.38s.5-.61.5-1.07-.16-.83-.49-1.04-.83-.32-1.5-.32h-1.22c-.07,0-.1.03-.1.1v2.61ZM102.86,115.38c0,.07.03.1.1.1h1.44c1.56,0,2.34-.56,2.34-1.68,0-.54-.2-.93-.59-1.17s-.98-.37-1.76-.37h-1.44c-.07,0-.1.04-.1.12v3Z" style="fill: #f4f4f2;"/>
      <path d="M113.44,113.58c1.17-.38,1.84-1.02,1.94-1.81-.04.01-.1.01-.17.01-.75,0-1.42-.48-1.42-1.33s.67-1.35,1.47-1.35c1.06,0,1.62.79,1.62,2.05,0,1.7-1.1,3.09-2.96,3.63l-.48-1.2Z" style="fill: #f4f4f2;"/>
      <path d="M125.12,111c.07-.02.14-.03.21-.03.13,0,.25.04.37.12.19.12.29.28.32.5v.13c0,.18-.05.34-.15.5-.13.21-.3.34-.51.41-.21.06-.4.11-.57.16-.07.02-.1.06-.1.13v3.69c0,.43-.04.76-.12,1s-.24.42-.46.57c-.28.18-.69.28-1.23.31h-.06c-.21,0-.41-.07-.59-.22-.19-.16-.31-.36-.38-.6,0-.06-.01-.12-.01-.18,0-.13.04-.25.12-.37.13-.17.29-.25.48-.25.18,0,.3,0,.38-.01.09,0,.15-.02.19-.05.04-.03.06-.1.06-.2v-3.21s0-.05-.03-.07c-.02-.02-.04-.02-.07,0-.15.04-.31.09-.48.15-.08.02-.16.03-.23.03-.14,0-.27-.04-.41-.12-.21-.13-.33-.3-.38-.53v-.03c-.02-.07-.03-.13-.03-.19,0-.17.04-.32.13-.45.13-.21.31-.34.54-.4.1-.02.24-.05.43-.1s.33-.08.43-.1c.07-.02.1-.07.1-.15v-2.37c0-.07-.03-.1-.1-.1h-.64c-.22,0-.42-.08-.58-.24-.16-.16-.24-.35-.24-.58s.08-.42.24-.58c.16-.16.35-.24.58-.24h.64c.07,0,.1-.03.1-.1v-1.9c0-.22.08-.42.24-.57s.35-.23.58-.23.42.08.57.23.23.35.23.57v1.9c0,.07.04.1.12.1h.42c.23,0,.43.08.59.24.16.16.23.35.23.58s-.08.42-.23.58c-.16.16-.35.24-.59.24h-.42c-.08,0-.12.03-.12.1v1.95s.01.05.04.07c.02.01.05.02.07,0l.34-.09ZM134.93,112.46c.16.16.23.34.23.56s-.08.41-.23.56-.34.23-.56.23h-1.77s-.03,0-.04.03,0,.04,0,.06c.66.87,1.44,1.6,2.31,2.18.18.12.27.28.29.5,0,.03.01.06.01.09,0,.18-.06.33-.18.45-.02.03-.04.05-.07.07-.16.2-.35.31-.59.35-.05,0-.1.01-.15.01-.18,0-.34-.06-.5-.18-.74-.6-1.44-1.34-2.09-2.24,0-.02-.02-.03-.04-.02-.01,0-.02.02-.02.04v2.45c0,.24-.08.45-.25.62s-.37.25-.62.25h-.04c-.23,0-.44-.08-.61-.25s-.26-.37-.26-.62v-2.46s0-.03-.02-.04-.03,0-.04.02c-.72,1-1.56,1.81-2.52,2.45-.15.1-.3.15-.47.15-.07,0-.14,0-.21-.03-.23-.05-.43-.17-.59-.37,0-.02-.02-.03-.03-.04-.11-.13-.16-.27-.16-.42,0-.04,0-.08.01-.12.04-.21.15-.36.32-.47,1.06-.6,1.95-1.39,2.67-2.37.02-.02.02-.04.01-.06s-.03-.03-.06-.03h-1.68c-.22,0-.41-.08-.56-.23s-.23-.34-.23-.56.08-.41.23-.56.34-.23.56-.23h2.65c.07,0,.1-.03.1-.1v-.51c0-.24.09-.45.26-.62s.37-.25.61-.25h.72s.03,0,.04-.03,0-.03-.01-.04c-.24-.23-.37-.72-.37-1.46v-1.38c0-.21.08-.4.23-.56s.34-.23.56-.23.41.08.56.23.23.34.23.56v1.36c0,.19.02.3.06.34.04.04.13.07.26.07h.72c.1,0,.17-.02.21-.07s.08-.15.11-.31c.02-.17.1-.29.25-.37.09-.05.18-.07.26-.07.06,0,.12.01.19.04.21.08.38.21.5.38.09.13.13.26.13.41,0,.05,0,.1-.01.15-.1.48-.26.81-.48.98s-.54.26-.96.26h-1.19c-.46,0-.8-.05-1.03-.16-.03,0-.05,0-.07,0-.02.02-.03.03-.03.05v1.22c0,.07.04.1.12.1h2.71c.21,0,.4.08.56.23ZM128,106.69c-.08,0-.12.04-.12.12v.67c0,.21-.07.38-.22.53-.15.15-.32.23-.53.23s-.39-.08-.53-.23c-.15-.15-.22-.33-.22-.53v-1.44c0-.24.08-.45.25-.62s.37-.25.62-.25h7.03c.23,0,.44.08.61.25s.26.37.26.62v1.32c0,.21-.08.4-.23.56s-.34.23-.56.23-.4-.08-.56-.23-.23-.34-.23-.56v-.56c0-.08-.03-.12-.1-.12h-5.45ZM128.56,107.86c.04-.23.14-.43.31-.58.17-.15.36-.23.59-.23s.4.08.56.23c.13.14.19.29.19.47,0,.03,0,.06-.01.1-.11.85-.34,1.53-.71,2.04-.37.51-.97.92-1.81,1.24-.1.03-.19.04-.28.04-.11,0-.22-.02-.34-.07-.21-.09-.37-.23-.5-.42-.07-.09-.1-.19-.1-.29,0-.06,0-.11.03-.16.06-.18.17-.29.34-.34.58-.21.99-.46,1.25-.78s.42-.73.5-1.26Z" style="fill: #f4f4f2;"/>
      <path d="M150.12,114.89s-.11-.07-.19-.07l-3.65.12c-.08,0-.12.04-.12.12v2.58c0,.24-.08.45-.25.62s-.37.25-.62.25h-.03c-.24,0-.45-.08-.62-.25s-.25-.37-.25-.62v-2.52c0-.08-.04-.11-.12-.1-1.58.04-3.12.08-4.63.12h-.01c-.21,0-.4-.07-.56-.22-.19-.17-.28-.37-.28-.62,0-.2.07-.37.22-.51.15-.16.33-.23.54-.23.93,0,1.75,0,2.46-.01.08,0,.15-.01.22-.04.12-.07.28-.17.48-.29.02,0,.03-.03.03-.05,0-.02,0-.05-.03-.07-.52-.38-1.1-.76-1.74-1.14-.2-.11-.29-.27-.29-.48,0-.16.06-.29.19-.4l.1-.09c.15-.13.32-.21.51-.23h.1c.15,0,.29.03.42.1.05.03.09.02.13-.01.46-.37.88-.76,1.27-1.16,0,0,.01-.02,0-.04s-.02-.03-.04-.03h-2.78c-.08,0-.12.03-.12.1v.67c0,.23-.08.43-.25.59-.17.16-.37.24-.6.24s-.43-.08-.59-.24c-.16-.16-.24-.36-.24-.59v-1.41c0-.23.08-.44.25-.61s.37-.26.62-.26h4.58c.07,0,.1-.03.1-.1v-.7c0-.07-.03-.1-.1-.1h-4.56c-.21,0-.4-.08-.54-.23-.15-.15-.22-.33-.22-.54s.07-.39.22-.54.33-.22.54-.22h4.56c.07,0,.1-.04.1-.12v-.19c0-.24.09-.45.26-.62s.37-.25.61-.25h.03c.24,0,.45.08.62.25s.25.37.25.62v.19c0,.08.04.12.12.12h4.66c.21,0,.4.07.54.22s.22.33.22.54-.07.39-.22.54c-.15.15-.33.23-.54.23h-4.66c-.08,0-.12.03-.12.1v.7c0,.07.04.1.12.1h4.75c.24,0,.45.09.62.26s.25.37.25.61v1.38c0,.24-.08.45-.25.62s-.37.25-.62.25h-.03c-.24,0-.45-.08-.62-.25s-.25-.37-.25-.62v-.64c0-.07-.04-.1-.12-.1h-4.79s-.01,0-.01,0v.02c.1.04.15.11.17.22s-.02.2-.09.28c-.59.51-1.19.99-1.8,1.44-.02,0-.03.03-.03.06s0,.05.03.06c.27.18.52.34.73.5.06.04.12.04.19,0,.79-.53,1.52-1.06,2.18-1.6.21-.17.43-.26.69-.29.05,0,.1-.01.15-.01.21,0,.4.05.59.15l.07.04c.19.11.28.27.28.5,0,.18-.07.32-.22.42-1,.72-2.06,1.42-3.18,2.08-.02,0-.03.02-.02.04,0,.02.02.02.04.02.87,0,1.97-.02,3.3-.04.02,0,.03,0,.04-.02,0-.02,0-.03,0-.04-.12-.09-.24-.18-.37-.26-.16-.11-.23-.26-.23-.45,0-.17.07-.3.21-.41.18-.14.38-.21.6-.22h.04c.21,0,.39.06.56.18.94.62,1.72,1.18,2.34,1.7.16.13.23.29.23.5,0,.22-.09.41-.26.54-.17.14-.36.21-.57.21h-.04c-.23,0-.43-.09-.6-.25-.02,0-.04-.02-.06-.04ZM141.19,115.67c.31-.23.63-.35.95-.35.17,0,.34.03.51.1l.07.03c.19.07.3.2.35.4,0,.05.01.09.01.13,0,.15-.06.27-.19.37-.69.61-1.48,1.16-2.36,1.66-.17.09-.34.13-.53.13-.06,0-.12,0-.18-.01-.25-.04-.48-.15-.67-.34l-.09-.09c-.12-.11-.18-.23-.18-.38v-.1c.03-.19.14-.32.32-.4.75-.34,1.41-.72,1.96-1.14ZM147.75,116.37c-.17-.1-.25-.25-.25-.45,0-.18.07-.31.22-.41.21-.14.43-.21.69-.22h.06c.22,0,.44.05.64.16.86.48,1.61.94,2.24,1.38.18.12.26.28.26.48,0,.22-.09.4-.28.53l-.04.03c-.2.13-.41.19-.63.19h-.06c-.25-.02-.48-.1-.69-.25-.62-.46-1.34-.94-2.17-1.44Z" style="fill: #f4f4f2;"/>
      <path d="M169.01,111.97c.16.16.23.34.23.56s-.08.41-.23.56-.34.23-.56.23h-1.3c-.07,0-.11.03-.12.1-.06.88-.09,1.35-.1,1.41,0,.07.02.1.1.1h.79c.21,0,.4.08.55.23s.23.34.23.56-.08.4-.23.55c-.15.15-.33.23-.55.23h-.97c-.08,0-.12.03-.13.1-.1.56-.22.94-.37,1.14-.17.22-.35.39-.54.49-.2.1-.43.17-.7.21s-.62.06-1.04.06h-.26c-.2,0-.37-.07-.52-.21s-.26-.31-.33-.52c-.05-.16-.03-.3.07-.43.09-.13.22-.19.37-.18.21,0,.41.01.59.01h.26c.14,0,.24-.01.32-.04s.14-.09.21-.19c.05-.09.1-.2.15-.34,0-.03,0-.05,0-.07s-.04-.03-.07-.03h-6.06s-.08.02-.09.06c-.02.16-.09.28-.21.37s-.25.13-.41.12l-.41-.03c-.22,0-.41-.11-.56-.29-.11-.14-.16-.29-.16-.45,0-.05,0-.1.01-.15.17-.91.31-1.81.44-2.71,0-.07-.02-.1-.09-.1h-1.17c-.21,0-.4-.08-.56-.23s-.23-.34-.23-.56.08-.41.23-.56.34-.23.56-.23h1.39c.08,0,.12-.03.13-.1.13-1.03.21-1.77.25-2.23,0-.02,0-.03-.02-.04-.01,0-.03,0-.04,0-.1.13-.2.25-.31.38-.16.19-.36.29-.6.31-.04,0-.07.01-.1.01-.21,0-.41-.06-.57-.18-.08-.06-.16-.11-.25-.16-.18-.12-.27-.28-.29-.5v-.07c0-.18.06-.33.19-.47.94-.97,1.74-2.13,2.4-3.5.11-.22.27-.39.5-.48.14-.07.28-.1.42-.1.09,0,.18,0,.26.03l.21.06c.22.07.39.21.48.41.05.1.07.2.07.29,0,.11-.03.21-.09.32-.04.08-.08.16-.12.25,0,.02,0,.04,0,.06s.03.03.06.03h7.73c.21,0,.4.08.56.23s.23.34.23.56-.08.41-.23.56-.34.23-.56.23h-8.67c-.07,0-.12.03-.16.09-.11.18-.28.43-.51.76,0,.02,0,.04,0,.06s.02.03.04.03h7.78c.23,0,.43.09.6.26.17.16.25.35.25.57,0,.16-.03.89-.09,2.2,0,.07.03.1.1.1h1.25c.21,0,.4.08.56.23ZM160.98,113.33s0-.02,0-.04c0-.01-.02-.02-.03-.02h-1.63c-.08,0-.12.03-.13.1s-.04.28-.09.64-.1.63-.12.82c0,.07.02.1.09.1h3.06s.03,0,.04-.02c0-.02,0-.03,0-.04-.32-.24-.67-.48-1.05-.7-.16-.09-.25-.22-.28-.4v-.09c0-.14.05-.26.16-.37ZM161.18,110.22s.01-.02,0-.04c0-.01-.02-.02-.04-.02h-1.44c-.07,0-.11.03-.12.1-.03.17-.06.41-.1.73s-.07.55-.09.7c0,.07.02.1.1.1h2.77s.02,0,.03-.02c0-.01,0-.03-.01-.04-.32-.23-.65-.45-1-.64-.16-.09-.25-.22-.28-.4v-.1c0-.14.05-.26.16-.37ZM163.48,114.89s-.01.02,0,.03.01.01.02.01h1.57c.08,0,.12-.03.12-.1.05-.78.08-1.27.09-1.46,0-.07-.02-.1-.1-.1h-2.89s-.02,0-.02.02c0,.02,0,.02,0,.02.43.23.82.48,1.17.75.14.1.21.24.21.42,0,.16-.05.29-.16.41ZM163.61,111.73s-.01.03,0,.04.02.01.04.01h1.58c.08,0,.12-.03.12-.1.02-.32.04-.8.06-1.42,0-.07-.04-.1-.12-.1h-2.81s-.03,0-.04.02c0,.02,0,.02.02.02.4.21.77.44,1.11.69.15.1.22.24.22.44,0,.16-.06.29-.18.4Z" style="fill: #f4f4f2;"/>
      <path d="M172.35,110.91c0-.23.09-.44.26-.61.17-.17.37-.26.61-.26h12.07c.23,0,.44.09.61.26.17.17.26.37.26.61v.21c0,.23-.08.44-.26.61s-.37.26-.61.26h-12.07c-.23,0-.44-.08-.61-.26s-.26-.37-.26-.61v-.21Z" style="fill: #f4f4f2;"/>
      <path d="M199.7,116.73c0,.07.03.1.1.1h2.72c.2,0,.36.07.5.21.14.14.21.31.21.5s-.07.36-.21.5-.3.21-.5.21h-7.66c-.2,0-.36-.07-.5-.21s-.21-.31-.21-.5.07-.36.21-.5c.14-.14.3-.21.5-.21h3c.08,0,.12-.03.12-.1v-.45c0-.08-.04-.12-.12-.12h-2.2c-.19,0-.34-.07-.48-.2-.13-.13-.2-.29-.2-.48s.07-.34.2-.48c.13-.13.29-.2.48-.2h2.2c.08,0,.12-.03.12-.1v-.47c0-.08-.04-.12-.12-.12h-1.9c-.23,0-.44-.08-.61-.25s-.26-.37-.26-.62v-.35s0-.02-.02-.02c-.01,0-.03,0-.04,0l-.41.57c-.12.15-.26.22-.44.22,0,0-.02,0-.04-.01-.2,0-.35-.1-.45-.28-.13-.21-.27-.42-.42-.66,0,0-.02-.01-.04,0s-.02.01-.02.02v4.88c0,.24-.08.45-.25.62s-.37.25-.61.25-.44-.08-.62-.25-.26-.37-.26-.62v-4.41s0-.02-.01-.02-.01,0-.01,0c-.35.83-.72,1.55-1.11,2.17-.08.14-.2.21-.35.21-.02,0-.04,0-.07-.01-.18-.02-.31-.11-.4-.28-.02-.05-.04-.1-.07-.15-.1-.2-.15-.41-.15-.63v-.1c.02-.26.1-.5.25-.7.62-.91,1.18-1.99,1.66-3.24,0-.03,0-.05,0-.07s-.03-.03-.05-.03h-.97c-.23,0-.43-.08-.59-.24-.16-.16-.24-.36-.24-.59s.08-.43.24-.59.36-.25.59-.25h1.2c.07,0,.1-.03.1-.1v-1.52c0-.07-.03-.1-.1-.09-.36.07-.69.13-1,.18-.05,0-.09.01-.13.01-.16,0-.3-.04-.44-.13-.17-.12-.29-.27-.37-.47-.02-.08-.03-.15-.03-.22,0-.1.02-.2.07-.29.08-.17.21-.26.4-.29,1.24-.24,2.28-.51,3.12-.81.15-.05.29-.07.44-.07.1,0,.2.01.31.04.25.06.46.18.63.37l.04.07c.11.11.16.23.16.37,0,.06,0,.11-.03.16-.05.21-.18.34-.38.41-.28.09-.57.17-.86.25-.07.02-.1.07-.1.15v1.89c0,.07.04.1.12.1h.66c.23,0,.43.08.59.25s.24.36.24.59-.08.42-.24.59c-.16.16-.36.24-.59.24h-.66c-.08,0-.12.04-.12.12v.21c0,.08.03.14.09.19.2.18.48.46.86.85s.67.7.86.92c.02.02.04.02.05.01s.02-.02.02-.04v-2.65c0-.23.08-.44.26-.61s.37-.26.61-.26h1.9c.08,0,.12-.03.12-.1v-.4c0-.08-.04-.12-.12-.12h-2.56c-.2,0-.36-.07-.5-.21s-.21-.3-.21-.49.07-.35.21-.48c.14-.13.3-.2.5-.2h2.56c.08,0,.12-.04.12-.12v-.41c0-.07-.04-.1-.12-.1-.67.03-1.35.05-2.02.07h-.01c-.19,0-.36-.06-.51-.18-.15-.13-.25-.29-.32-.5,0-.05-.01-.1-.01-.16,0-.1.03-.2.09-.29.09-.14.21-.21.38-.22,2.29-.09,4.15-.24,5.58-.45.08,0,.16-.01.23-.01.18,0,.35.03.51.1.24.1.44.24.6.44.07.1.1.2.1.31,0,.07,0,.13-.03.19-.07.19-.2.29-.4.32-.68.1-1.44.18-2.26.25-.07,0-.1.05-.1.12v.53c0,.08.03.12.1.12h2.43c.19,0,.35.07.48.2.14.13.21.29.21.48s-.07.35-.21.49-.3.21-.48.21h-2.43c-.07,0-.1.04-.1.12v.4c0,.07.03.1.1.1h2.01c.24,0,.45.09.62.26s.25.37.25.61v3.3c0,.24-.08.45-.25.62s-.37.25-.62.25h-2.01c-.07,0-.1.04-.1.12v.47c0,.07.03.1.1.1h2.2c.19,0,.34.07.48.2.13.13.2.29.2.48s-.07.34-.2.48c-.13.13-.29.2-.48.2h-2.2c-.07,0-.1.04-.1.12v.45ZM196.75,110.34c-.07,0-.1.04-.1.12v.51c0,.07.03.1.1.1h1.11c.08,0,.12-.03.12-.1v-.51c0-.08-.04-.12-.12-.12h-1.11ZM196.65,112.79c0,.07.03.1.1.1h1.11c.08,0,.12-.03.12-.1v-.56c0-.07-.04-.1-.12-.1h-1.11c-.07,0-.1.03-.1.1v.56ZM201.07,110.46c0-.08-.04-.12-.12-.12h-1.16c-.07,0-.1.04-.1.12v.51c0,.07.03.1.1.1h1.16c.08,0,.12-.03.12-.1v-.51ZM200.96,112.89c.08,0,.12-.03.12-.1v-.56c0-.07-.04-.1-.12-.1h-1.16c-.07,0-.1.03-.1.1v.56c0,.07.03.1.1.1h1.16Z" style="fill: #f4f4f2;"/>
      <path d="M214.1,115.88c0,.08.04.12.12.12h4.83c.23,0,.44.09.61.26.17.17.26.37.26.61h0c0,.25-.09.45-.26.62s-.37.26-.61.26h-11.76c-.23,0-.44-.09-.61-.26s-.26-.37-.26-.61h0c0-.25.08-.45.26-.62.17-.17.37-.26.61-.26h4.82c.08,0,.12-.04.12-.12v-2.78c0-.08-.04-.12-.12-.12h-3.09c-.23,0-.44-.08-.61-.26s-.26-.37-.26-.61.08-.44.26-.61c.17-.17.37-.26.61-.26h3.09c.08,0,.12-.04.12-.12v-2.4c0-.08-.04-.12-.12-.12h-2.87c-.08,0-.14.03-.18.1-.28.53-.56.99-.82,1.38-.14.2-.33.31-.57.34-.05,0-.09.01-.13.01-.2,0-.37-.05-.53-.16l-.15-.12c-.19-.12-.3-.29-.34-.51,0-.05-.01-.1-.01-.15,0-.16.05-.31.15-.45.36-.49.7-1.05,1.01-1.7.34-.7.63-1.43.86-2.17.07-.23.21-.42.42-.54.14-.09.29-.13.45-.13.07,0,.14,0,.21.03l.15.03c.23.05.41.18.53.38.08.13.12.25.12.38,0,.09-.01.17-.04.25-.12.35-.25.75-.41,1.19,0,.03,0,.05,0,.07s.04.03.07.03h2.09c.07,0,.1-.03.1-.1v-1.73c0-.23.08-.44.26-.61s.37-.26.61-.26h.15c.23,0,.44.09.61.26s.26.37.26.61v1.73c0,.07.04.1.12.1h4.07c.23,0,.44.09.61.26s.26.37.26.61h0c0,.25-.09.45-.26.62s-.37.26-.61.26h-4.07c-.08,0-.12.04-.12.12v2.4c0,.08.04.12.12.12h3.5c.23,0,.44.09.61.26.17.17.26.37.26.61s-.09.44-.26.61-.37.26-.61.26h-3.5c-.08,0-.12.04-.12.12v2.78Z" style="fill: #f4f4f2;"/>
      <path d="M226.17,109.81c.21.11.35.28.4.51.02.06.03.12.03.19,0,.16-.05.3-.15.44l-.03.04c-.13.2-.31.32-.54.37-.07.02-.14.03-.21.03-.16,0-.31-.04-.45-.13-.35-.21-.8-.47-1.35-.78-.2-.1-.31-.25-.35-.47-.02-.06-.03-.11-.03-.16,0-.15.05-.28.15-.41.14-.2.32-.32.54-.38.09-.02.17-.03.25-.03.15,0,.29.03.42.1.55.27.99.5,1.32.67ZM225.32,117.6c-.13.2-.3.31-.53.35h-.13c-.18,0-.33-.05-.47-.16l-.16-.13c-.19-.16-.3-.35-.34-.59,0-.05-.01-.1-.01-.15,0-.19.05-.36.16-.53.69-1.04,1.35-2.12,1.96-3.25.11-.19.27-.3.48-.34.04,0,.08-.01.12-.01.17,0,.31.06.44.18l.03.03c.2.18.31.39.35.64.02.07.03.14.03.21,0,.18-.04.35-.13.51-.61,1.15-1.21,2.23-1.8,3.24ZM226.9,105.74c.21.12.33.29.38.51,0,.06.01.12.01.18,0,.16-.05.31-.16.45l-.04.04c-.14.2-.32.31-.56.35-.06,0-.12.01-.18.01-.18,0-.34-.05-.5-.15-.31-.2-.74-.45-1.29-.76-.2-.11-.31-.27-.35-.48,0-.05-.01-.1-.01-.15,0-.16.05-.3.15-.42.15-.19.34-.31.57-.37.08,0,.15-.01.22-.01.16,0,.31.03.45.1.52.27.95.5,1.3.69ZM236.79,109.09c.17.17.25.37.25.6s-.08.43-.25.6-.37.25-.6.25h-2.84c-.08,0-.12.04-.12.12v1.67c0,.07.04.1.12.1h2.08c.23,0,.44.09.61.26s.26.37.26.61v4.28c0,.23-.08.43-.25.6s-.37.25-.6.25h-.37c-.14,0-.25-.05-.34-.14-.09-.09-.14-.21-.14-.34,0-.04-.02-.06-.06-.06h-4.38s-.07.02-.07.07c0,.15-.05.27-.16.38s-.23.16-.38.16h-.26c-.21,0-.4-.08-.56-.23s-.24-.35-.24-.57v-4.39c0-.23.08-.44.26-.61s.37-.26.61-.26h2.09c.07,0,.1-.03.1-.1v-1.67c0-.08-.03-.12-.1-.12h-3.03c-.23,0-.43-.08-.6-.25s-.25-.37-.25-.6.08-.43.25-.6.37-.25.6-.25h3.03c.07,0,.1-.04.1-.12v-1.54c0-.07-.03-.1-.1-.09-.6.09-1.27.17-2.02.25h-.09c-.19,0-.36-.05-.51-.16-.19-.14-.32-.32-.4-.54-.02-.07-.03-.14-.03-.22,0-.11.03-.21.09-.32.1-.18.25-.27.45-.29,2.19-.25,3.98-.6,5.38-1.04.15-.05.29-.07.44-.07.11,0,.21.01.32.04.26.06.48.18.66.37l.18.18c.11.11.16.23.16.37,0,.05,0,.1-.01.15-.05.2-.17.32-.35.38-.69.22-1.48.42-2.36.59-.07,0-.1.05-.1.13v1.83c0,.08.04.12.12.12h2.84c.23,0,.43.08.6.25ZM234.49,116.27c.07,0,.1-.04.1-.12v-1.99c0-.07-.03-.1-.1-.1h-4.29c-.08,0-.12.03-.12.1v1.99c0,.08.04.12.12.12h4.29Z" style="fill: #f4f4f2;"/>
      <path d="M245,111.83c.13.2.19.41.19.63,0,.24-.07.47-.22.67-.09.13-.21.19-.35.19-.02,0-.04,0-.06-.01-.17,0-.29-.09-.37-.25-.15-.31-.3-.63-.45-.95,0,0-.02-.01-.03,0s-.01.01-.01.02v5.55c0,.22-.08.42-.24.57s-.35.23-.58.23-.42-.08-.57-.23-.23-.35-.23-.57v-4.69s0-.02-.01-.02c0,0-.01,0-.01,0-.28.81-.58,1.51-.89,2.11-.08.15-.2.22-.35.22h-.04c-.18-.02-.3-.11-.38-.26,0,0-.01-.02-.01-.03-.13-.24-.19-.48-.19-.72,0-.25.07-.51.22-.78.67-1.22,1.18-2.62,1.52-4.19.02-.07,0-.1-.09-.1h-.73c-.22,0-.42-.08-.58-.24-.16-.16-.24-.35-.24-.58s.08-.42.24-.58c.16-.16.35-.24.58-.24h.88c.07,0,.1-.04.1-.12v-2.17c0-.22.08-.42.23-.57s.35-.23.57-.23.42.08.58.23.24.35.24.57v2.17c0,.08.03.12.1.12h.57c.22,0,.42.08.58.24.16.16.24.35.24.58s-.08.42-.24.58c-.16.16-.35.24-.58.24h-.57c-.07,0-.1.04-.1.12v.44c0,.07.02.13.06.19.27.38.69,1,1.25,1.86ZM247.38,114.05c.16-.03.3-.01.44.04l.28.1c.14.06.24.15.3.29.06.13.07.27.02.42-.48,1.27-1.25,2.27-2.31,2.99-.12.08-.24.12-.38.12-.06,0-.12,0-.18-.01-.2-.05-.36-.16-.5-.32-.09-.11-.13-.23-.13-.37,0-.04,0-.08.01-.12.03-.18.12-.32.28-.42.57-.37,1.03-.84,1.38-1.42.02-.02.02-.04,0-.06s-.03-.03-.05-.03h-.92c-.17,0-.31-.06-.42-.18s-.18-.26-.18-.42.06-.31.18-.42.26-.18.42-.18h1.76ZM252.07,113.27c.17-.16.37-.24.6-.26h.07c.21,0,.39.06.56.18.16.12.23.28.23.48s-.08.37-.25.48c-.55.38-1.03.71-1.45.98-.07.04-.07.08-.01.13.49.49,1.04.89,1.64,1.2.18.1.28.24.32.44.02.05.03.09.03.13,0,.15-.05.28-.15.4-.16.19-.35.31-.57.37-.07.02-.14.03-.21.03-.16,0-.3-.04-.44-.13-.74-.49-1.4-1.12-1.96-1.89,0-.02-.02-.03-.04-.02-.02,0-.03.02-.03.04v1.05c0,.39-.04.69-.13.9s-.26.37-.51.49c-.29.14-.73.21-1.3.23h-.03c-.2,0-.38-.06-.54-.19-.17-.14-.28-.32-.35-.54-.02-.06-.03-.12-.03-.18,0-.11.03-.21.09-.29.1-.15.24-.22.42-.22.24,0,.41,0,.48-.01.1,0,.16-.01.2-.04s.05-.09.05-.18v-3.19c0-.08-.04-.12-.12-.12h-1.74c-.17,0-.31-.06-.42-.18s-.18-.26-.18-.43.06-.32.18-.43.26-.18.42-.18h2.89s.02,0,.02-.01,0-.02,0-.03c-.53-.21-1.02-.39-1.46-.54-.13-.05-.21-.14-.25-.26s0-.24.09-.34c0,0,0-.02,0-.04,0-.01-.01-.02-.02-.02h-2.33c-.19,0-.34-.06-.47-.19s-.19-.28-.19-.46.06-.33.19-.46.28-.19.47-.19h2.8c.08,0,.12-.03.12-.1v-.37c0-.08-.04-.12-.12-.12h-1.89c-.17,0-.31-.06-.42-.18s-.18-.26-.18-.42.06-.31.18-.43.26-.18.42-.18h1.89c.08,0,.12-.03.12-.1v-.34c0-.08-.04-.12-.12-.12h-2.4c-.18,0-.32-.06-.45-.18-.12-.12-.18-.27-.18-.44s.06-.32.18-.45.27-.19.45-.19h.85s.04,0,.05-.03.02-.04,0-.06c-.08-.16-.17-.32-.26-.5-.06-.1-.09-.2-.09-.29,0-.07.01-.13.04-.19.06-.18.17-.29.34-.35.1-.04.2-.06.31-.06.09,0,.18.01.28.04.2.06.35.18.45.35.14.21.25.4.35.59.05.09.06.18.02.28s-.1.17-.2.21h0s2.33.01,2.33.01h.01c-.07-.03-.12-.08-.15-.15s-.02-.13.01-.19c.1-.18.2-.37.29-.57.11-.21.27-.37.48-.47.13-.07.26-.1.4-.1.09,0,.17.01.25.04.2.06.33.18.4.37.02.07.03.13.03.19,0,.12-.04.22-.12.32-.12.17-.23.32-.35.47,0,.02,0,.04,0,.06s.02.03.04.03h1.11c.18,0,.33.06.45.19s.18.28.18.45-.06.32-.18.44c-.12.12-.27.18-.45.18h-2.56c-.08,0-.12.04-.12.12v.34c0,.07.04.1.12.1h2.23c.17,0,.31.06.42.18s.18.27.18.43-.06.31-.18.42-.26.18-.42.18h-2.23c-.08,0-.12.04-.12.12v.37c0,.07.04.1.12.1h2.8c.18,0,.33.06.45.19s.19.28.19.46-.06.33-.19.46-.28.19-.45.19h-2.97s-.02,0-.02.01,0,.02,0,.03c.44.16.82.31,1.14.45.17.07.26.2.29.38,0,.04.01.07.01.1,0,.14-.05.26-.15.37-.14.16-.31.25-.51.28-.06,0-.12.01-.18.01-.15,0-.28-.03-.41-.09l-.06-.03s-.04,0-.06,0c-.02.01-.03.03-.03.05v.54c0,.08.02.15.06.22.11.23.25.48.42.73.04.06.09.07.15.03.36-.29.7-.6,1.03-.91Z" style="fill: #f4f4f2;"/>
      <path d="M261.1,104.85c.14-.07.28-.1.44-.1.06,0,.12,0,.18.03.22.04.41.14.54.29.11.12.16.25.16.41v.1c-.03.2-.13.34-.31.42-1.04.55-2.3,1.01-3.79,1.39-.08.02-.15.03-.22.03-.14,0-.27-.03-.41-.1-.21-.1-.37-.24-.5-.44-.06-.09-.09-.18-.09-.28,0-.07.01-.13.04-.19.06-.18.17-.28.34-.32,1.36-.32,2.56-.74,3.62-1.25ZM268.93,116.84h.5c.1,0,.17-.07.21-.2.04-.13.07-.41.09-.83,0-.18.08-.31.23-.4.09-.04.18-.06.26-.06.07,0,.14.01.22.04.22.1.41.24.54.44.11.16.16.32.16.5,0,.04,0,.08-.01.13-.1.72-.26,1.22-.48,1.49s-.57.41-1.03.41h-.98c-.63,0-1.06-.14-1.27-.42s-.32-.81-.32-1.58v-3.75c0-.07-.04-.1-.12-.1h-.56c-.07,0-.11.03-.12.1-.07,1.33-.25,2.42-.55,3.27-.3.86-.83,1.57-1.59,2.13-.14.09-.27.13-.41.13-.07,0-.14,0-.21-.03-.22-.06-.41-.19-.56-.4-.14-.19-.27-.35-.41-.5-.05-.05-.09-.04-.13.03-.08.18-.17.32-.28.44-.22.27-.47.47-.73.59s-.59.19-.97.2h-.31c-.22,0-.42-.09-.58-.24-.16-.15-.27-.34-.33-.58,0-.05-.01-.1-.01-.15,0-.12.03-.23.1-.34.11-.14.24-.21.41-.21h.01c.13,0,.24.01.35.01.18,0,.32-.03.44-.08.12-.05.22-.16.32-.31.23-.28.36-.85.38-1.71,0-.02,0-.03-.03-.04s-.04,0-.06,0c-.4.35-.83.69-1.3,1.02-.46.33-.93.62-1.38.87-.12.07-.23.1-.35.1-.08,0-.16,0-.23-.03-.2-.06-.36-.18-.48-.37-.08-.11-.12-.22-.12-.35,0-.05,0-.1.03-.16.04-.19.15-.32.32-.4.62-.29,1.22-.65,1.82-1.06s1.12-.84,1.54-1.27c.05-.05.07-.11.06-.19-.04-.17-.08-.33-.13-.5-.02-.07-.06-.08-.12-.03-.67.55-1.42,1.05-2.23,1.52-.12.07-.24.1-.37.1-.07,0-.14,0-.21-.03-.2-.06-.36-.18-.48-.35-.07-.11-.1-.22-.1-.34,0-.05,0-.1.01-.15.04-.19.14-.32.31-.4,1.01-.47,1.87-1,2.58-1.58.06-.05.07-.1.03-.16-.06-.11-.11-.2-.16-.26-.04-.06-.09-.07-.16-.04-.5.27-1.01.52-1.52.73-.11.05-.22.07-.34.07-.09,0-.18-.01-.26-.04-.2-.07-.36-.19-.48-.37-.08-.1-.12-.21-.12-.32,0-.05,0-.1.01-.15.05-.18.15-.3.31-.37,1.5-.64,2.8-1.4,3.88-2.26,0,0,.01,0,0-.01s-.01,0-.02,0l-.38.19c-.1.05-.2.07-.29.07-.09,0-.18-.02-.26-.06-.19-.07-.32-.2-.41-.38-.02-.04-.04-.08-.07-.13-.05-.09-.07-.18-.07-.28,0-.06,0-.12.03-.18.05-.16.15-.27.29-.34.1-.06.2-.09.31-.09.07,0,.13,0,.19.03.18.05.31.15.41.29.17.26.29.49.37.69.02.06.05.07.1.03.02,0,.03-.02.04-.03.16-.13.33-.19.53-.19h.01c.21,0,.38.07.53.22.14.14.21.3.21.5,0,.21-.08.38-.23.51-.39.34-.83.67-1.33,1-.06.05-.07.1-.03.16.35.49.64,1.05.87,1.68.23.63.38,1.24.46,1.84.06.45.09.88.09,1.3,0,.15,0,.29-.01.44-.03.56-.11,1.04-.23,1.46,0,0,0,.02,0,.04.01.01.03.02.05,0,.73-.41,1.23-.94,1.5-1.6.27-.66.44-1.54.5-2.66,0-.07-.03-.1-.1-.1h-.32c-.23,0-.44-.08-.61-.26-.17-.17-.26-.37-.26-.61v-4.58c0-.23.09-.44.26-.61.17-.17.37-.26.61-.26h1.36c.08,0,.13-.03.15-.1.07-.27.13-.54.18-.79.05-.24.17-.44.35-.59.17-.13.35-.19.54-.19.04,0,.07,0,.1.01l.31.03c.21.02.39.12.51.31.08.12.12.24.12.37,0,.08-.01.16-.04.23-.08.23-.15.44-.22.62,0,.03,0,.05,0,.07s.04.03.07.03h1.88c.24,0,.45.09.62.26.17.17.25.37.25.61v4.58c0,.23-.08.44-.25.61-.17.17-.37.26-.62.26h-.72c-.07,0-.1.03-.1.1v3.74c0,.21.01.35.04.4s.08.08.18.08ZM259.51,108.33c.06.11.09.21.09.31,0,.08-.01.16-.04.23-.07.19-.2.32-.38.41-.09.04-.18.06-.26.06-.08,0-.16-.01-.23-.04-.18-.07-.3-.19-.38-.37-.07-.14-.15-.28-.23-.44-.05-.1-.07-.2-.07-.29,0-.06,0-.12.01-.18.06-.17.16-.28.31-.35.11-.05.21-.07.32-.07.08,0,.15,0,.22.03.19.05.33.16.42.32.09.13.17.25.23.38ZM265.14,107.64c-.07,0-.1.03-.1.1v.86c0,.07.03.1.1.1h3.4c.07,0,.1-.03.1-.1v-.86c0-.07-.03-.1-.1-.1h-3.4ZM265.14,110.03c-.07,0-.1.03-.1.1v.86c0,.07.03.1.1.1h3.4c.07,0,.1-.03.1-.1v-.86c0-.07-.03-.1-.1-.1h-3.4Z" style="fill: #f4f4f2;"/>
      <path d="M286.28,112.98c-.44,0-.8-.15-1.09-.45-.29-.3-.43-.66-.43-1.08s.14-.8.41-1.1c.28-.31.65-.47,1.11-.47s.82.15,1.09.46c.27.31.4.69.4,1.13,0,.42-.13.77-.4,1.05-.28.3-.64.45-1.08.45,0,0-.01,0-.01-.01Z" style="fill: #f4f4f2;"/>
    </g>
    <g>
      <path d="M142.75,72.93h83.41c11.78,0,21.33-9.55,21.33-21.33v-29.41c0-11.78-9.55-21.33-21.33-21.33H61.64c-11.78,0-21.33,9.55-21.33,21.33v29.41c0,11.78,9.55,21.33,21.33,21.33h33.88l38.08,16.22c2.08.89,4.22-1.15,3.43-3.27l-4.8-12.95h10.53Z" style="fill: #fff; stroke: #1d7068; stroke-miterlimit: 10; stroke-width: 1.73px;"/>
      <g>
        <path d="M88.06,31.59c.39,0,.73.14,1.01.42.28.28.42.62.42,1.03s-.14.74-.42,1.03c-.28.28-.62.42-1.01.42h-20.16c-.16,0-.23.07-.23.21v1.93c0,5.14-.8,9.21-2.4,12.22-.2.37-.53.59-1,.64h-.18c-.37,0-.71-.13-1.03-.38-.02-.02-.05-.04-.09-.06-.37-.31-.61-.69-.7-1.14-.04-.16-.06-.3-.06-.44,0-.31.08-.62.23-.91,1.17-2.36,1.76-5.68,1.76-9.96v-3.28c0-.47.17-.87.5-1.22.33-.34.74-.51,1.23-.51h1.82s.07-.01.09-.04c.02-.03.02-.06,0-.1-.1-.2-.15-.38-.15-.56,0-.14.03-.28.09-.44.16-.33.41-.53.76-.59,1.39-.23,2.71-.5,3.96-.79.04,0,.06-.01.06-.04s-.02-.05-.06-.07c-.98-.25-1.89-.48-2.72-.67-.33-.08-.53-.28-.6-.62-.07-.33.03-.6.31-.79.02-.02.02-.04.01-.07-.01-.03-.02-.04-.04-.04h-4.07c-.39,0-.72-.14-.98-.41s-.4-.61-.4-1,.13-.72.4-1,.59-.41.98-.41h8.38c.16,0,.23-.07.23-.21v-.06c0-.49.17-.9.5-1.23.33-.33.74-.5,1.23-.5h.09c.49,0,.9.17,1.23.5.33.33.5.74.5,1.23v.06c0,.14.08.21.23.21h8.88c.39,0,.72.14,1,.41.27.27.41.61.41,1s-.14.72-.41,1c-.27.27-.61.41-1,.41h-3.37s-.03,0-.03.03c.14.08.21.19.22.34,0,.15-.05.26-.19.34-.8.47-1.69.91-2.67,1.32-.04.02-.06.05-.06.09s.02.06.06.06c.88.27,1.75.56,2.61.85.37.12.59.37.64.76.02.06.03.13.03.21,0,.27-.12.51-.35.7v.03s-.05.04-.03.07c.02.03.05.04.09.04h4.45ZM77.04,39.8c0-.14-.08-.21-.23-.21h-4.45c-.16,0-.27.06-.35.18-.22.31-.43.61-.64.88-.27.35-.64.55-1.11.59h-.15c-.39,0-.75-.12-1.08-.35-.33-.23-.52-.56-.56-.97v-.18c0-.33.12-.63.35-.91.7-.84,1.31-1.79,1.82-2.84.19-.43.5-.75.91-.97.25-.14.53-.21.82-.21.14,0,.28.02.44.06h.09c.39.1.68.32.88.67.1.2.15.39.15.59,0,.16-.04.32-.12.5-.02.04-.01.08.01.12s.06.06.1.06h2.9c.16,0,.23-.08.23-.23v-.03c0-.47.17-.87.51-1.22.34-.34.75-.51,1.22-.51h.03c.47,0,.87.17,1.22.51.34.34.51.75.51,1.22v.03c0,.16.07.23.21.23h5.65c.39,0,.72.13,1,.4.27.26.41.59.41.98s-.14.72-.41,1c-.27.27-.61.41-1,.41h-5.65c-.14,0-.21.07-.21.21v1.49c0,.14.07.21.21.21h4.8c.37,0,.69.13.95.4s.4.59.4.97-.13.7-.4.97-.58.4-.95.4h-4.8c-.14,0-.21.07-.21.21v1.85c0,.14.07.21.21.21h7.09c.39,0,.73.14,1.01.42.28.28.42.62.42,1.03s-.14.74-.42,1.03c-.28.28-.62.42-1.01.42h-18.19c-.39,0-.73-.14-1.01-.42-.28-.28-.42-.62-.42-1.03s.14-.74.42-1.03c.28-.28.62-.42,1.01-.42h7.18c.16,0,.23-.07.23-.21v-1.85c0-.14-.08-.21-.23-.21h-4.72c-.37,0-.69-.13-.95-.4s-.4-.59-.4-.97.13-.7.4-.97.58-.4.95-.4h4.72c.16,0,.23-.07.23-.21v-1.49ZM71.74,31.56s-.03,0-.03.01,0,.01.03.01h9.23s.03,0,.03-.03-.01-.03-.03-.03c-1.25-.43-2.56-.86-3.93-1.29-.14-.04-.27-.03-.41.03-1.56.47-3.19.9-4.89,1.29ZM79.56,26.85s.03-.04.03-.06-.01-.03-.03-.03h-6.8s-.03,0-.03.01,0,.01.03.01c1,.25,2.29.59,3.9,1,.14.04.27.04.41,0,.84-.27,1.67-.59,2.49-.94Z" style="fill: #1d7068;"/>
        <path d="M97.71,49.93c-.47,0-.87-.17-1.2-.5-.33-.33-.5-.73-.5-1.2v-10.08c0-.47.17-.87.5-1.22.33-.34.74-.51,1.23-.51h7.97c.47,0,.87.17,1.22.51.34.34.51.75.51,1.22v9.9c0,.47-.17.87-.51,1.22-.34.34-.75.51-1.22.51h-.64c-.33,0-.62-.12-.85-.35s-.35-.52-.35-.85c0-.1-.05-.15-.15-.15h-4.16c-.12,0-.18.06-.18.18,0,.35-.13.66-.38.92-.25.26-.57.4-.94.4h-.35ZM103.86,40.09c0-.16-.07-.23-.21-.23h-4.04c-.16,0-.23.08-.23.23v4.72c0,.14.08.21.23.21h4.04c.14,0,.21-.07.21-.21v-4.72ZM115.99,23.1c.49,0,.9.17,1.23.5.33.33.5.74.5,1.23v7.38c0,.49-.17.9-.5,1.23-.33.33-.74.5-1.23.5h-14.12c-.47,0-.87-.17-1.22-.5-.34-.33-.51-.74-.51-1.23v-7.38c0-.49.17-.9.51-1.23.34-.33.75-.5,1.22-.5h14.12ZM113.88,30.57c.14,0,.21-.08.21-.23v-3.6c0-.16-.07-.23-.21-.23h-10.08c-.14,0-.21.08-.21.23v3.6c0,.16.07.23.21.23h10.08ZM109.98,38.16c0-.47.17-.87.5-1.22.33-.34.74-.51,1.23-.51h8.32c.49,0,.9.17,1.23.51.33.34.5.75.5,1.22v9.93c0,.47-.17.87-.5,1.22-.33.34-.74.51-1.23.51h-.64c-.33,0-.62-.12-.86-.35-.24-.23-.37-.53-.37-.88,0-.1-.05-.15-.15-.15h-4.45c-.1,0-.15.06-.15.18,0,.35-.13.66-.4.92s-.58.4-.95.4h-.38c-.47,0-.87-.17-1.2-.5-.33-.33-.5-.73-.5-1.2v-10.08ZM113.41,44.81c0,.14.07.21.21.21h4.34c.14,0,.21-.07.21-.21v-4.72c0-.16-.07-.23-.21-.23h-4.34c-.14,0-.21.08-.21.23v4.72Z" style="fill: #1d7068;"/>
        <path d="M154.88,38.92c.25.29.38.62.38.97,0,.1,0,.19-.03.26-.06.47-.29.84-.7,1.11l-.29.21c-.31.2-.63.29-.97.29-.12,0-.23,0-.35-.03-.45-.08-.83-.31-1.14-.7-.14-.16-.28-.33-.44-.53-.08-.12-.2-.17-.35-.15-.8.02-1.99.06-3.57.13s-2.75.11-3.52.13c-.16.02-.23.1-.23.23v7.35c0,.49-.17.9-.5,1.23-.33.33-.74.5-1.23.5h-.35c-.47,0-.87-.17-1.22-.5-.34-.33-.51-.74-.51-1.23v-7.24c0-.14-.07-.21-.21-.21-1.8.06-4.9.15-9.32.26h-.06c-.45,0-.85-.16-1.2-.47s-.56-.71-.62-1.2v-.26c0-.41.14-.77.41-1.08.31-.33.7-.51,1.17-.53,1.23-.02,2.68-.04,4.34-.06.14,0,.26-.04.38-.12.55-.37,1.11-.79,1.7-1.26.12-.08.12-.17,0-.26-1.29-1.15-2.8-2.32-4.54-3.52-.39-.25-.59-.62-.59-1.11,0-.35.14-.66.41-.94l.09-.09c.35-.31.75-.49,1.2-.53.08-.02.16-.03.23-.03.37,0,.71.1,1.03.29.12.08.22.07.32-.03.88-.88,1.67-1.75,2.37-2.61.02-.04.02-.08,0-.12-.02-.04-.05-.06-.09-.06-1.6.08-3.33.14-5.19.18h-.03c-.45,0-.85-.15-1.2-.44-.37-.31-.63-.7-.76-1.17-.04-.12-.06-.24-.06-.38,0-.25.08-.49.23-.7.23-.33.56-.51.97-.53,7.48-.21,13.63-.72,18.46-1.52.18-.02.35-.03.53-.03.35,0,.69.06,1.03.18.51.18.93.47,1.26.88l.29.35c.18.2.26.41.26.64,0,.12-.02.23-.06.35-.14.37-.4.6-.79.67-2.71.49-6.01.88-9.87,1.17v.03c.06.04.07.08.03.12-1.48,1.74-3.03,3.35-4.63,4.83-.12.1-.12.19,0,.26.84.59,1.49,1.08,1.96,1.49.12.1.23.1.35,0,1.99-1.72,3.76-3.39,5.3-5.01.35-.37.77-.61,1.26-.7.14-.02.26-.03.38-.03.37,0,.71.09,1.03.26l.38.21c.39.21.62.54.67.97.02.06.03.13.03.21,0,.33-.13.62-.38.88-2.4,2.34-5.11,4.66-8.12,6.94-.04.04-.05.07-.04.1,0,.03.03.04.07.04,2.56-.04,5.14-.1,7.73-.18.04,0,.06-.02.07-.06s0-.07-.01-.09c-.25-.25-.51-.49-.76-.7-.27-.27-.41-.6-.41-.97,0-.49.2-.86.59-1.11l.03-.03c.37-.23.78-.35,1.23-.35h.18c.53.04.99.22,1.38.56,1.86,1.64,3.39,3.15,4.6,4.54ZM133.11,43.11c.37-.37.81-.62,1.32-.73.21-.06.42-.09.62-.09.29,0,.58.05.85.15l.44.15c.41.16.67.44.79.85.02.12.03.22.03.32,0,.27-.1.53-.29.76-1.35,1.43-2.86,2.76-4.54,4.01-.39.27-.81.41-1.26.41h-.12c-.51-.04-.97-.21-1.38-.53-.16-.12-.31-.23-.47-.35-.29-.23-.44-.53-.44-.88,0-.43.18-.76.53-1,1.46-.92,2.77-1.94,3.93-3.08ZM146.82,44.72c-.33-.25-.5-.59-.5-1s.17-.76.5-1l.15-.09c.43-.29.9-.45,1.41-.47h.03c.53,0,1,.15,1.41.44,1.76,1.21,3.23,2.33,4.42,3.37.31.27.47.61.47,1,0,.51-.21.91-.62,1.2l-.41.29c-.33.23-.7.35-1.11.35-.08,0-.15,0-.21-.03-.49-.04-.92-.23-1.29-.59-1.13-1.05-2.55-2.22-4.25-3.49Z" style="fill: #1d7068;"/>
        <path d="M163.21,26.56c-.45,0-.84-.16-1.17-.48s-.5-.71-.5-1.17.17-.85.5-1.17.72-.48,1.17-.48h11.48c.47,0,.86.16,1.19.48s.48.71.48,1.17-.16.85-.48,1.17-.72.48-1.19.48h-4.66c-.14,0-.22.08-.26.23-.25.88-.56,1.84-.91,2.87-.02.06-.01.11.01.15s.07.06.13.06h3.46c.98,0,1.74.09,2.29.26.33.12.59.31.76.59.14.23.21.47.21.7,0,.08,0,.16-.03.23-1.43,8.14-4.55,13.96-9.38,17.43-.31.21-.64.32-1,.32-.12,0-.22,0-.32-.03-.47-.08-.89-.29-1.26-.64-.06-.08-.13-.15-.21-.21-.2-.2-.32-.42-.37-.67s-.03-.5.06-.75.25-.43.48-.57c1.99-1.33,3.66-3.07,5.01-5.21.08-.12.06-.22-.06-.32-.88-.74-2.15-1.66-3.81-2.75-.12-.08-.22-.06-.32.06-.16.21-.32.43-.5.64-.29.37-.67.56-1.14.56h-.03c-.47,0-.88-.17-1.23-.5s-.53-.75-.53-1.26c0-.41.13-.78.38-1.11,2.01-2.44,3.54-5.72,4.6-9.84.02-.06,0-.11-.03-.16s-.08-.07-.12-.07h-2.72ZM171.88,33.35c.04-.14-.02-.21-.18-.21h-3.98c-.16,0-.26.07-.32.21-.25.59-.56,1.21-.91,1.88-.08.12-.05.21.09.29,1.74,1.07,2.96,1.87,3.66,2.37.14.1.22.08.26-.06.55-1.39,1.01-2.88,1.38-4.48ZM178.97,25.24c.47,0,.87.17,1.22.51s.51.75.51,1.22v13.04c0,.47-.17.87-.51,1.22s-.75.51-1.22.51h-.06c-.49,0-.9-.17-1.23-.51s-.5-.75-.5-1.22v-13.04c0-.47.17-.87.5-1.22s.74-.51,1.23-.51h.06ZM184.16,24.21c0-.47.17-.87.51-1.22s.75-.51,1.22-.51h.09c.49,0,.9.17,1.23.51s.5.75.5,1.22v21.5c0,1-.12,1.76-.35,2.3s-.65.94-1.26,1.22c-.84.41-2.2.63-4.07.67h-.03c-.47,0-.9-.16-1.29-.47s-.66-.71-.82-1.2c-.04-.1-.07-.2-.09-.29-.06-.14-.09-.27-.09-.41,0-.23.07-.46.21-.67.23-.31.55-.47.94-.47h2.52c.29-.02.5-.08.62-.18s.18-.27.18-.53v-21.47Z" style="fill: #1d7068;"/>
        <path d="M197.7,47.74c-.78,0-1.43-.27-1.95-.82s-.78-1.23-.78-2.05.26-1.5.78-2.05,1.17-.82,1.95-.82,1.44.27,1.96.82.79,1.23.79,2.05-.26,1.5-.79,2.05-1.18.82-1.96.82Z" style="fill: #1d7068;"/>
        <path d="M210.43,47.74c-.78,0-1.43-.27-1.95-.82s-.78-1.23-.78-2.05.26-1.5.78-2.05,1.17-.82,1.95-.82,1.44.27,1.96.82.79,1.23.79,2.05-.26,1.5-.79,2.05-1.18.82-1.96.82Z" style="fill: #1d7068;"/>
        <path d="M223.16,47.74c-.78,0-1.43-.27-1.95-.82s-.78-1.23-.78-2.05.26-1.5.78-2.05,1.17-.82,1.95-.82,1.44.27,1.96.82.79,1.23.79,2.05-.26,1.5-.79,2.05-1.18.82-1.96.82Z" style="fill: #1d7068;"/>
      </g>
    </g>
  </g>
</svg>