<?xml version="1.0" encoding="UTF-8"?>
<svg id="_喇뒨쏛_2" data-name="喇뒨쏛 2" xmlns="http://www.w3.org/2000/svg" width="375" height="700" viewBox="0 0 375 700">
  <g id="_傍쇋뺃" data-name="傍쇋뺃">
    <g>
      <rect width="375" height="700" style="fill: #ededed;"/>
      <g>
        <path d="M270.21,404.42c-58.12-43.67-128.36-50.96-197.66-.85-39.97-25.92-67.76-94.33-50-157.47,18.08-64.29,73.89-108.5,142.91-113.01,61.67-4.03,124.7,37.15,148.72,97.15,24.55,61.31,7.47,130.33-43.96,174.18Z" style="fill: #d6a18e; opacity: .1;"/>
        <path d="M100.18,462.46c.05,10.03-8.13,18.29-18.17,18.36-10.18.07-18.11-7.88-18.14-18.17-.02-10.38,7.74-18.33,17.95-18.36,10.12-.03,18.31,8.08,18.36,18.17Z" style="fill: #d6a18e; opacity: .1;"/>
        <path d="M214.1,496.49c33.1,24.87,73.11,29.02,112.57.48,22.77,14.76,38.59,53.73,28.48,89.68-10.3,36.61-42.08,61.79-81.39,64.36-35.12,2.29-71.02-21.16-84.7-55.33-13.98-34.92-4.26-74.23,25.04-99.2Z" style="fill: #d6a18e; opacity: .1;"/>
        <path d="M336,111.43c.05,11.19-9.06,20.4-20.26,20.48-11.35.08-20.2-8.79-20.23-20.27-.03-11.58,8.64-20.44,20.01-20.48,11.29-.03,20.42,9.01,20.47,20.26Z" style="fill: #d6a18e; opacity: .1;"/>
      </g>
    </g>
  </g>
</svg>