<?xml version="1.0" encoding="UTF-8"?>
<svg id="_圖層_2" data-name="圖層 2" xmlns="http://www.w3.org/2000/svg" width="173.94" height="173.84" viewBox="0 0 173.94 173.84">
  <g id="_設計" data-name="設計">
    <g>
      <path d="M109.03,10.12l.54-1.85,4.79,1.38-1.27,4.38c-.6.32-1.38.52-2.37.6-.98.09-1.93,0-2.83-.26-1.15-.33-2.08-.86-2.8-1.59-.72-.73-1.16-1.61-1.33-2.63s-.1-2.06.2-3.12c.33-1.15.87-2.09,1.6-2.85.74-.75,1.64-1.23,2.7-1.44.81-.16,1.74-.09,2.79.21,1.37.4,2.35.99,2.95,1.79s.87,1.73.8,2.8l-2.33-.23c0-.58-.17-1.1-.5-1.53-.34-.44-.83-.75-1.47-.93-.97-.28-1.83-.2-2.58.25-.75.45-1.3,1.28-1.65,2.49-.38,1.31-.37,2.37.02,3.19.39.82,1.06,1.37,2,1.64.46.13.96.18,1.48.13s.99-.15,1.4-.32l.4-1.4-2.54-.74Z" style="fill: #1d7068;"/>
      <path d="M117.79,11.47c.52-1.04,1.11-1.84,1.78-2.4.49-.41,1.04-.72,1.65-.93s1.21-.3,1.79-.26c.77.05,1.58.28,2.41.69,1.51.75,2.49,1.82,2.93,3.21s.25,2.92-.58,4.59c-.82,1.66-1.92,2.73-3.28,3.22-1.37.49-2.8.36-4.31-.39-1.53-.76-2.51-1.83-2.94-3.2-.44-1.38-.25-2.88.56-4.52ZM119.96,12.46c-.58,1.16-.75,2.17-.51,3.04.24.87.77,1.5,1.6,1.91.83.41,1.65.45,2.48.12.83-.33,1.53-1.09,2.12-2.28.58-1.18.76-2.18.53-3.01-.23-.83-.77-1.46-1.62-1.89-.85-.42-1.69-.47-2.5-.15-.81.33-1.51,1.08-2.1,2.26Z" style="fill: #1d7068;"/>
      <path d="M139.26,26.73l1.27-1.46,3.76,3.27-3,3.44c-.67.04-1.47-.11-2.4-.45-.93-.33-1.75-.81-2.46-1.43-.9-.79-1.53-1.66-1.87-2.62s-.38-1.95-.1-2.94c.28-1,.77-1.91,1.5-2.74.78-.9,1.67-1.54,2.65-1.91.99-.37,2-.43,3.06-.17.8.2,1.62.65,2.44,1.37,1.07.93,1.71,1.89,1.93,2.86.21.97.06,1.93-.46,2.88l-2.01-1.18c.25-.53.31-1.06.19-1.6-.12-.54-.44-1.03-.94-1.46-.76-.66-1.58-.95-2.45-.86-.87.09-1.72.61-2.55,1.56-.89,1.03-1.33,1.99-1.32,2.9s.38,1.69,1.12,2.33c.37.32.79.56,1.29.74.49.18.96.28,1.4.3l.95-1.1-2-1.74Z" style="fill: #1d7068;"/>
      <path d="M146.61,31.63c.91-.73,1.78-1.21,2.62-1.43.62-.16,1.25-.21,1.89-.15s1.22.23,1.73.51c.68.37,1.32.91,1.9,1.64,1.06,1.32,1.5,2.7,1.31,4.14-.18,1.45-1,2.75-2.45,3.92-1.44,1.16-2.88,1.67-4.33,1.54-1.44-.13-2.69-.85-3.75-2.16-1.07-1.33-1.51-2.71-1.33-4.14s.98-2.72,2.4-3.87ZM148.17,33.44c-1.01.81-1.59,1.66-1.74,2.55-.15.89.07,1.69.65,2.41.58.72,1.31,1.1,2.2,1.14.89.04,1.85-.35,2.88-1.18,1.02-.82,1.61-1.66,1.75-2.51.14-.85-.08-1.65-.68-2.39-.6-.74-1.33-1.14-2.21-1.18s-1.83.35-2.85,1.17Z" style="fill: #1d7068;"/>
      <path d="M153.67,51.47l10.28-4.83.98,2.09-8.54,4.01,2.44,5.21-1.75.82-3.43-7.3Z" style="fill: #1d7068;"/>
      <path d="M158,61.49l10.84-3.69.74,2.19-10.84,3.69-.74-2.19Z" style="fill: #1d7068;"/>
      <path d="M159.83,67.03l11.19-2.46,1.69,7.67-1.89.42-1.19-5.41-2.65.58,1.03,4.67-1.89.42-1.03-4.67-4.75,1.04-.5-2.26Z" style="fill: #1d7068;"/>
      <path d="M161.95,77.77l11.43-.76.56,8.47-1.93.13-.41-6.17-2.53.17.38,5.74-1.93.13-.38-5.74-3.11.21.42,6.38-1.93.13-.57-8.69Z" style="fill: #1d7068;"/>
      <path d="M165.32,101.37l1.9.34-.87,4.91-4.49-.8c-.38-.56-.66-1.32-.85-2.29-.19-.97-.2-1.92-.04-2.84.21-1.18.64-2.16,1.29-2.95s1.47-1.32,2.47-1.6,2.04-.32,3.12-.13c1.17.21,2.17.64,3,1.29s1.4,1.5,1.72,2.53c.25.79.27,1.72.08,2.8-.25,1.4-.74,2.44-1.46,3.12-.73.68-1.63,1.04-2.7,1.09l-.02-2.34c.58-.06,1.07-.28,1.47-.66s.66-.9.77-1.56c.18-.99,0-1.84-.52-2.54-.53-.7-1.41-1.16-2.65-1.38-1.34-.24-2.4-.12-3.17.36-.78.48-1.25,1.2-1.42,2.16-.08.48-.08.97.03,1.48.1.51.26.96.46,1.36l1.43.25.46-2.61Z" style="fill: #1d7068;"/>
      <path d="M164.9,110.2c1.09.41,1.95.91,2.57,1.51.46.45.82.96,1.1,1.55.28.58.43,1.17.45,1.75.04.77-.11,1.6-.43,2.47-.59,1.58-1.55,2.67-2.88,3.25-1.33.58-2.88.55-4.62-.09-1.73-.64-2.92-1.62-3.54-2.92s-.65-2.75-.07-4.32c.59-1.6,1.55-2.69,2.87-3.27,1.32-.58,2.84-.55,4.55.08ZM164.14,112.46c-1.22-.45-2.24-.51-3.08-.18-.84.33-1.41.92-1.74,1.79-.32.86-.27,1.69.14,2.47s1.25,1.41,2.49,1.87c1.23.46,2.25.53,3.05.21.81-.32,1.37-.92,1.71-1.81.33-.89.29-1.73-.12-2.5-.41-.77-1.23-1.39-2.47-1.85Z" style="fill: #1d7068;"/>
      <path d="M151.98,133.18l1.58,1.11-2.86,4.08-3.74-2.62c-.11-.67-.04-1.48.19-2.44.24-.96.62-1.82,1.17-2.59.69-.98,1.49-1.69,2.42-2.13s1.9-.58,2.92-.41c1.02.17,1.98.57,2.88,1.2.98.68,1.7,1.5,2.17,2.44.47.94.63,1.95.49,3.02-.11.82-.48,1.68-1.11,2.57-.82,1.16-1.7,1.9-2.65,2.21s-1.92.26-2.91-.16l.97-2.13c.55.19,1.09.2,1.61.02.52-.18.97-.54,1.36-1.09.58-.83.78-1.67.6-2.53-.18-.86-.79-1.65-1.82-2.37-1.11-.78-2.12-1.12-3.02-1.01s-1.64.56-2.2,1.36c-.28.4-.48.85-.6,1.36-.12.51-.18.98-.15,1.42l1.19.83,1.52-2.17Z" style="fill: #1d7068;"/>
      <path d="M147.88,140.99c.82.83,1.39,1.65,1.7,2.45.23.6.34,1.22.35,1.87s-.1,1.24-.32,1.78c-.29.72-.77,1.4-1.43,2.06-1.2,1.19-2.52,1.77-3.98,1.74-1.46-.03-2.84-.71-4.16-2.03-1.3-1.31-1.97-2.69-1.99-4.14s.56-2.77,1.76-3.95c1.21-1.2,2.54-1.79,3.98-1.76,1.45.03,2.81.69,4.1,1.98ZM146.25,142.72c-.91-.92-1.82-1.41-2.72-1.46s-1.67.25-2.33.9-.96,1.42-.91,2.31c.05.89.54,1.8,1.48,2.74.92.93,1.82,1.42,2.68,1.48.86.05,1.63-.26,2.31-.93.68-.67.99-1.45.94-2.32s-.53-1.78-1.46-2.71Z" style="fill: #1d7068;"/>
      <path d="M128.88,150.1l5.88,9.72-1.98,1.2-4.88-8.07-4.92,2.98-1-1.65,6.9-4.18Z" style="fill: #1d7068;"/>
      <path d="M119.38,155.46l4.81,10.39-2.1.97-4.81-10.39,2.1-.97Z" style="fill: #1d7068;"/>
      <path d="M114.04,157.87l3.62,10.86-7.45,2.49-.61-1.84,5.25-1.75-.86-2.57-4.54,1.51-.61-1.84,4.54-1.51-1.54-4.62,2.19-.73Z" style="fill: #1d7068;"/>
      <path d="M103.59,161.11l1.95,11.29-8.37,1.44-.33-1.91,6.09-1.05-.43-2.5-5.67.98-.33-1.9,5.67-.98-.53-3.07-6.31,1.09-.33-1.9,8.58-1.48Z" style="fill: #1d7068;"/>
      <path d="M74.36,166.22l-.28,1.91-4.93-.73.67-4.51c.55-.39,1.3-.7,2.26-.92s1.91-.26,2.84-.12c1.19.18,2.18.58,2.99,1.21.81.63,1.36,1.44,1.67,2.43s.38,2.03.22,3.12c-.17,1.18-.58,2.19-1.21,3.04-.63.84-1.46,1.44-2.49,1.79-.78.27-1.71.32-2.8.16-1.41-.21-2.46-.67-3.16-1.37-.7-.71-1.09-1.6-1.16-2.67l2.33-.09c.08.58.31,1.06.71,1.45.39.39.92.63,1.58.73,1,.15,1.84-.05,2.53-.6s1.12-1.44,1.3-2.69c.2-1.34.05-2.4-.45-3.16-.5-.76-1.23-1.21-2.2-1.36-.48-.07-.97-.05-1.48.07s-.96.28-1.34.5l-.21,1.44,2.62.39Z" style="fill: #1d7068;"/>
      <path d="M65.5,166.05c-.38,1.1-.85,1.98-1.44,2.61-.43.47-.94.85-1.51,1.14-.58.29-1.15.46-1.73.5-.77.06-1.6-.06-2.48-.36-1.6-.54-2.71-1.47-3.33-2.79-.62-1.32-.63-2.86-.04-4.62.59-1.75,1.54-2.96,2.82-3.62s2.73-.73,4.32-.19c1.61.55,2.73,1.47,3.35,2.78s.63,2.82.05,4.55ZM63.22,165.36c.42-1.23.45-2.25.1-3.08-.35-.83-.96-1.39-1.84-1.68-.87-.3-1.7-.23-2.47.21-.77.44-1.37,1.29-1.8,2.54-.42,1.24-.46,2.26-.13,3.06.34.8.96,1.35,1.86,1.65.9.31,1.74.24,2.5-.19.76-.43,1.36-1.27,1.78-2.52Z" style="fill: #1d7068;"/>
      <path d="M42.19,153.79l-1.06,1.61-4.16-2.75,2.51-3.81c.66-.12,1.48-.08,2.44.13.96.21,1.84.57,2.63,1.09,1,.66,1.73,1.45,2.2,2.35.47.91.63,1.88.49,2.91-.14,1.03-.51,2-1.12,2.92-.66,1-1.45,1.74-2.38,2.24-.93.5-1.93.69-3.01.57-.82-.09-1.69-.43-2.6-1.03-1.19-.78-1.95-1.64-2.29-2.58s-.31-1.91.07-2.91l2.15.91c-.17.56-.17,1.1.03,1.61.19.52.57.96,1.12,1.33.84.56,1.69.73,2.54.53.85-.21,1.62-.83,2.32-1.89.75-1.13,1.06-2.15.93-3.05-.13-.9-.6-1.62-1.42-2.16-.4-.27-.86-.45-1.37-.56-.51-.11-.99-.15-1.43-.11l-.8,1.21,2.21,1.46Z" style="fill: #1d7068;"/>
      <path d="M34.26,149.91c-.8.84-1.61,1.43-2.41,1.77-.59.24-1.21.38-1.85.4-.65.02-1.24-.07-1.78-.27-.73-.27-1.43-.73-2.1-1.37-1.22-1.16-1.84-2.47-1.85-3.93-.01-1.46.62-2.86,1.91-4.21,1.27-1.34,2.64-2.04,4.08-2.1,1.45-.06,2.78.48,4,1.64,1.23,1.17,1.86,2.48,1.87,3.93.01,1.45-.61,2.83-1.87,4.15ZM32.48,148.32c.89-.94,1.36-1.86,1.38-2.76.03-.9-.29-1.66-.96-2.3s-1.44-.92-2.33-.84c-.89.07-1.79.59-2.7,1.55-.91.95-1.37,1.86-1.4,2.72-.03.87.3,1.63.99,2.28s1.47.95,2.34.88c.87-.07,1.76-.58,2.67-1.54Z" style="fill: #1d7068;"/>
      <path d="M24.63,131.17l-9.55,6.16-1.25-1.94,7.92-5.11-3.12-4.83,1.62-1.05,4.37,6.78Z" style="fill: #1d7068;"/>
      <path d="M19,121.81l-10.25,5.1-1.03-2.07,10.25-5.1,1.03,2.07Z" style="fill: #1d7068;"/>
      <path d="M16.45,116.57l-10.76,3.93-2.7-7.37,1.82-.67,1.9,5.2,2.55-.93-1.64-4.49,1.82-.67,1.64,4.49,4.57-1.67.79,2.17Z" style="fill: #1d7068;"/>
      <path d="M12.91,106.23l-11.23,2.27-1.68-8.32,1.9-.38,1.22,6.06,2.49-.5-1.14-5.64,1.89-.38,1.14,5.64,3.06-.62-1.27-6.27,1.89-.38,1.73,8.54Z" style="fill: #1d7068;"/>
      <path d="M7.95,71.07l-1.89-.38.97-4.89,4.47.89c.37.57.63,1.34.8,2.31s.17,1.92-.02,2.84c-.23,1.17-.68,2.15-1.35,2.93s-1.5,1.29-2.51,1.55c-1,.26-2.04.28-3.12.06-1.17-.23-2.16-.68-2.97-1.35-.81-.67-1.37-1.53-1.67-2.57-.23-.79-.24-1.73-.03-2.8.28-1.39.79-2.43,1.53-3.09.74-.67,1.65-1.01,2.73-1.03l-.03,2.34c-.58.05-1.08.26-1.48.63-.41.37-.67.89-.8,1.54-.2.99-.04,1.84.47,2.55.51.71,1.39,1.19,2.62,1.43,1.33.26,2.39.17,3.18-.29.79-.46,1.27-1.17,1.46-2.13.09-.48.1-.97,0-1.48s-.24-.97-.43-1.37l-1.43-.28-.52,2.6Z" style="fill: #1d7068;"/>
      <path d="M8.56,62.22c-1.08-.43-1.93-.95-2.54-1.57-.45-.46-.8-.98-1.07-1.57s-.4-1.17-.42-1.76c-.02-.77.14-1.6.48-2.46.62-1.57,1.6-2.63,2.95-3.19,1.35-.56,2.89-.49,4.62.19,1.72.68,2.88,1.68,3.48,3,.6,1.32.59,2.76-.02,4.33-.62,1.58-1.61,2.65-2.94,3.21-1.34.55-2.85.5-4.55-.17ZM9.37,59.98c1.21.48,2.23.56,3.07.25.84-.31,1.43-.9,1.77-1.75.34-.86.31-1.68-.09-2.48-.4-.79-1.22-1.43-2.45-1.92-1.22-.48-2.24-.57-3.05-.28-.81.3-1.39.89-1.74,1.78-.35.89-.33,1.72.07,2.5s1.2,1.42,2.43,1.9Z" style="fill: #1d7068;"/>
      <path d="M21.94,39.54l-1.56-1.14,2.94-4.02,3.68,2.69c.09.67.01,1.48-.24,2.43s-.66,1.81-1.22,2.57c-.71.97-1.53,1.66-2.46,2.08-.93.42-1.91.54-2.93.35-1.02-.19-1.97-.61-2.86-1.26-.96-.7-1.67-1.53-2.12-2.48s-.59-1.96-.43-3.03c.13-.82.51-1.67,1.16-2.55.84-1.15,1.74-1.87,2.69-2.16s1.92-.22,2.91.21l-1.01,2.11c-.55-.2-1.09-.22-1.61-.05-.53.17-.99.52-1.38,1.06-.6.82-.81,1.65-.65,2.51.17.86.76,1.66,1.77,2.41,1.1.8,2.1,1.16,3,1.08.91-.09,1.65-.52,2.22-1.32.29-.39.5-.84.63-1.34.13-.51.19-.98.18-1.42l-1.17-.86-1.56,2.14Z" style="fill: #1d7068;"/>
      <path d="M26.21,31.79c-.81-.84-1.35-1.67-1.65-2.49-.21-.6-.32-1.23-.31-1.87,0-.65.13-1.24.36-1.77.31-.71.8-1.39,1.47-2.03,1.22-1.17,2.56-1.72,4.02-1.66,1.46.06,2.83.76,4.11,2.11,1.28,1.34,1.91,2.73,1.9,4.18,0,1.45-.62,2.75-1.84,3.92-1.23,1.18-2.57,1.73-4.02,1.68-1.45-.06-2.8-.75-4.05-2.07ZM27.88,30.09c.9.94,1.79,1.44,2.69,1.51s1.68-.21,2.34-.85c.67-.64.99-1.4.96-2.29-.03-.89-.5-1.81-1.42-2.77-.91-.95-1.79-1.46-2.65-1.53s-1.64.22-2.33.88c-.69.66-1.02,1.42-.99,2.3.03.88.5,1.79,1.41,2.74Z" style="fill: #1d7068;"/>
      <path d="M45.38,23.08l-5.68-9.83,2-1.16,4.72,8.16,4.98-2.88.97,1.67-6.98,4.03Z" style="fill: #1d7068;"/>
      <path d="M55,17.92l-4.6-10.49,2.12-.93,4.6,10.49-2.12.93Z" style="fill: #1d7068;"/>
      <path d="M60.37,15.62l-3.4-10.94,7.5-2.33.58,1.85-5.29,1.65.8,2.59,4.57-1.42.58,1.85-4.57,1.42,1.45,4.65-2.21.69Z" style="fill: #1d7068;"/>
      <path d="M70.89,12.6l-1.72-11.32,8.4-1.27.29,1.92-6.11.93.38,2.51,5.69-.86.29,1.91-5.69.86.47,3.08,6.33-.96.29,1.91-8.61,1.3Z" style="fill: #1d7068;"/>
    </g>
  </g>
</svg>