<?xml version="1.0" encoding="UTF-8"?>
<svg id="_圖層_2" data-name="圖層 2" xmlns="http://www.w3.org/2000/svg" width="257.85" height="69.9" viewBox="0 0 257.85 69.9">
  <g id="_設計" data-name="設計">
    <g>
      <path d="M14.36,7.94c.21.18.32.41.32.7,0,.24-.09.46-.27.65l-.03.02c-.19.19-.42.28-.68.28s-.5-.09-.7-.28c-.38-.33-.85-.73-1.41-1.2-.06-.06-.11-.05-.15.02-.14.23-.29.44-.43.63-.17.21-.39.33-.68.37h-.12c-.23,0-.45-.07-.65-.2-.14-.09-.28-.17-.42-.25-.01,0-.02,0-.03.02-.01.01-.01.02,0,.03.66.86,1.48,1.67,2.44,2.42.96.75,1.99,1.36,3.07,1.85.21.1.34.26.38.48.01.06.02.11.02.17,0,.16-.06.3-.17.43-.09.11-.18.23-.27.35-.18.22-.4.37-.66.45-.1.02-.19.03-.28.03-.17,0-.33-.04-.48-.13-1.69-.93-3.22-2.18-4.57-3.75-.01-.02-.03-.03-.05-.02-.02.01-.03.03-.03.05v3.83c0,.28-.09.51-.28.7-.19.19-.42.28-.7.28h-.17c-.27,0-.5-.09-.69-.28s-.29-.42-.29-.7v-3.74s0-.04-.03-.05-.03,0-.04.02c-1.33,1.52-2.83,2.74-4.52,3.67-.17.08-.33.12-.5.12-.09,0-.18-.01-.28-.03-.27-.07-.49-.21-.66-.43-.07-.08-.13-.16-.2-.23-.11-.13-.17-.28-.17-.45,0-.06,0-.11.02-.17.05-.23.19-.4.4-.5,1.2-.56,2.32-1.28,3.36-2.16s1.9-1.82,2.55-2.82c.04-.07.07-.14.07-.23v-3.67c0-.09-.04-.13-.12-.13H1.2c-.28,0-.51-.09-.7-.28-.19-.19-.28-.42-.28-.7v-.02c0-.28.09-.51.28-.7.19-.19.42-.28.7-.28h5.08c.08,0,.12-.04.12-.13v-.98c0-.28.1-.51.29-.7s.42-.28.69-.28h.17c.28,0,.51.09.7.28.19.19.28.42.28.7v.98c0,.09.04.13.13.13h5.3c.28,0,.51.09.7.28.19.19.28.42.28.7v.02c0,.28-.09.51-.28.7-.19.19-.42.28-.7.28h-5.3c-.09,0-.13.04-.13.13v3.55c0,.09.02.17.07.23.02.02.05.05.07.09.03.04.05.07.06.09.04.07.09.07.15.02.8-.74,1.4-1.76,1.81-3.05.08-.27.23-.48.46-.63.18-.11.36-.17.55-.17.07,0,.13,0,.2.02l.05.02c.25.04.45.18.6.4.09.14.13.29.13.45,0,.09-.01.18-.03.27-.08.25-.17.51-.27.76-.02.08,0,.14.07.18.9.7,1.54,1.2,1.93,1.51ZM2.71,5.11c.09-.25.25-.46.48-.61.17-.11.34-.17.53-.17.07,0,.14.01.22.03h.03c.27.06.46.19.6.42.09.14.13.29.13.43,0,.09-.02.18-.05.28-.09.27-.18.53-.28.78-.02.08,0,.14.05.2.35.3.64.54.85.73.21.19.32.42.32.7s-.09.49-.28.68c-.18.19-.39.28-.65.28h-.02c-.27-.01-.49-.11-.68-.3-.11-.11-.24-.24-.38-.38-.07-.06-.12-.04-.17.03-.37.59-.76,1.1-1.18,1.54-.19.19-.41.28-.66.28h-.03c-.27,0-.51-.09-.73-.28-.02-.01-.04-.03-.07-.05-.19-.17-.28-.37-.28-.61s.08-.45.25-.61c.88-.87,1.55-2,2.01-3.37Z" style="fill: #fff;"/>
      <path d="M34.04,5.4c.16.16.24.34.24.56s-.08.41-.24.56-.35.23-.56.23h-8.25c-.08,0-.14.04-.18.12-.04.08-.13.24-.27.48-.01.02-.01.04,0,.07.01.02.03.03.07.03h6.84c.28,0,.51.1.7.29.19.19.28.42.28.69v6.49c0,.28-.09.51-.28.7-.19.19-.42.28-.7.28h-.51c-.14,0-.27-.05-.37-.16-.11-.1-.16-.23-.16-.39,0-.04-.03-.07-.08-.07h-6.01s-.07.02-.07.07c0,.16-.05.29-.16.39-.11.11-.24.16-.39.16h-.43c-.27,0-.49-.09-.68-.28-.19-.19-.28-.42-.28-.68v-4.5s-.01-.04-.03-.05c-.02-.01-.04,0-.05.02-.54.53-1.11,1-1.71,1.41-.17.11-.34.17-.53.17-.07,0-.13,0-.2-.02-.27-.06-.49-.19-.66-.42-.02-.03-.04-.06-.07-.08-.12-.17-.18-.34-.18-.53,0-.04,0-.09.02-.15.03-.24.15-.44.37-.58,1.25-.83,2.33-1.94,3.24-3.34.02-.02.02-.05,0-.07-.02-.03-.04-.04-.06-.04h-2.71c-.21,0-.4-.08-.56-.23s-.24-.34-.24-.56.08-.41.24-.56.35-.23.56-.23h3.55c.09,0,.15-.04.18-.12.04-.09.12-.25.22-.5.01-.03,0-.06,0-.08s-.04-.03-.06-.03h-2.72c-.21,0-.39-.08-.54-.22-.15-.15-.22-.33-.22-.54s.07-.39.22-.54c.15-.15.33-.22.54-.22h3.25c.09,0,.14-.04.17-.12.05-.2.1-.37.13-.5,0-.03,0-.06-.03-.08s-.04-.03-.07-.03c-1.02.03-2.03.05-3.02.05h-.23c-.21,0-.4-.07-.56-.22s-.28-.33-.35-.55c-.01-.07-.02-.12-.02-.17,0-.13.04-.25.12-.35.11-.16.26-.23.45-.23,4.23-.03,7.63-.22,10.21-.55.08-.01.15-.02.23-.02.2,0,.4.04.6.12.28.1.5.26.68.48.09.11.13.22.13.33,0,.07-.01.13-.03.2-.08.2-.22.31-.42.33-1.44.2-3.21.35-5.31.46-.09.01-.14.06-.17.13-.03.14-.09.34-.17.58-.01.02,0,.05.02.07.02.03.04.04.07.04h5.78c.21,0,.39.08.54.22.15.15.22.33.22.54s-.08.39-.22.54c-.15.15-.33.22-.54.22h-6.31c-.09,0-.14.04-.17.12-.07.16-.13.32-.2.5-.01.03,0,.06,0,.08s.04.03.06.03h7.5c.21,0,.4.08.56.23ZM30.52,9.71c.09,0,.13-.04.13-.12v-.48c0-.09-.04-.13-.13-.13h-5.91c-.08,0-.12.04-.12.13v.48c0,.08.04.12.12.12h5.91ZM30.52,11.72c.09,0,.13-.04.13-.12v-.5c0-.09-.04-.13-.13-.13h-5.91c-.08,0-.12.04-.12.13v.5c0,.08.04.12.12.12h5.91ZM24.49,13.65c0,.08.04.12.12.12h5.91c.09,0,.13-.04.13-.12v-.53c0-.09-.04-.13-.13-.13h-5.91c-.08,0-.12.04-.12.13v.53Z" style="fill: #fff;"/>
      <path d="M53.25,5.4c.16.16.24.34.24.56s-.08.41-.24.56-.35.23-.56.23h-8.25c-.08,0-.14.04-.18.12-.04.08-.13.24-.27.48-.01.02-.01.04,0,.07.01.02.03.03.07.03h6.84c.28,0,.51.1.7.29.19.19.28.42.28.69v6.49c0,.28-.09.51-.28.7-.19.19-.42.28-.7.28h-.51c-.14,0-.27-.05-.37-.16-.11-.1-.16-.23-.16-.39,0-.04-.03-.07-.08-.07h-6.01s-.07.02-.07.07c0,.16-.05.29-.16.39-.11.11-.24.16-.39.16h-.43c-.27,0-.49-.09-.68-.28-.19-.19-.28-.42-.28-.68v-4.5s-.01-.04-.03-.05c-.02-.01-.04,0-.05.02-.54.53-1.11,1-1.71,1.41-.17.11-.34.17-.53.17-.07,0-.13,0-.2-.02-.27-.06-.49-.19-.66-.42-.02-.03-.04-.06-.07-.08-.12-.17-.18-.34-.18-.53,0-.04,0-.09.02-.15.03-.24.15-.44.37-.58,1.25-.83,2.33-1.94,3.24-3.34.02-.02.02-.05,0-.07-.02-.03-.04-.04-.06-.04h-2.71c-.21,0-.4-.08-.56-.23s-.24-.34-.24-.56.08-.41.24-.56.35-.23.56-.23h3.55c.09,0,.15-.04.18-.12.04-.09.12-.25.22-.5.01-.03,0-.06,0-.08s-.04-.03-.06-.03h-2.72c-.21,0-.39-.08-.54-.22-.15-.15-.22-.33-.22-.54s.07-.39.22-.54c.15-.15.33-.22.54-.22h3.25c.09,0,.14-.04.17-.12.05-.2.1-.37.13-.5,0-.03,0-.06-.03-.08s-.04-.03-.07-.03c-1.02.03-2.03.05-3.02.05h-.23c-.21,0-.4-.07-.56-.22s-.28-.33-.35-.55c-.01-.07-.02-.12-.02-.17,0-.13.04-.25.12-.35.11-.16.26-.23.45-.23,4.23-.03,7.63-.22,10.21-.55.08-.01.15-.02.23-.02.2,0,.4.04.6.12.28.1.5.26.68.48.09.11.13.22.13.33,0,.07-.01.13-.03.2-.08.2-.22.31-.42.33-1.44.2-3.21.35-5.31.46-.09.01-.14.06-.17.13-.03.14-.09.34-.17.58-.01.02,0,.05.02.07.02.03.04.04.07.04h5.78c.21,0,.39.08.54.22.15.15.22.33.22.54s-.08.39-.22.54c-.15.15-.33.22-.54.22h-6.31c-.09,0-.14.04-.17.12-.07.16-.13.32-.2.5-.01.03,0,.06,0,.08s.04.03.06.03h7.5c.21,0,.4.08.56.23ZM49.73,9.71c.09,0,.13-.04.13-.12v-.48c0-.09-.04-.13-.13-.13h-5.91c-.08,0-.12.04-.12.13v.48c0,.08.04.12.12.12h5.91ZM49.73,11.72c.09,0,.13-.04.13-.12v-.5c0-.09-.04-.13-.13-.13h-5.91c-.08,0-.12.04-.12.13v.5c0,.08.04.12.12.12h5.91ZM43.7,13.65c0,.08.04.12.12.12h5.91c.09,0,.13-.04.13-.12v-.53c0-.09-.04-.13-.13-.13h-5.91c-.08,0-.12.04-.12.13v.53Z" style="fill: #fff;"/>
      <path d="M60.45.95c.1-.25.27-.44.51-.56.14-.07.29-.1.45-.1.1,0,.2.02.32.05.25.09.44.25.55.48.07.13.1.26.1.38s-.03.24-.08.35c-.34.82-.73,1.62-1.15,2.41-.04.07-.07.14-.07.23v10.66c0,.27-.09.5-.28.69-.19.19-.42.29-.7.29h-.05c-.27,0-.5-.1-.69-.29-.19-.19-.29-.42-.29-.69v-7.55s0-.02-.03-.03-.03,0-.04.02c-.12.16-.24.3-.35.43-.12.16-.28.23-.46.23-.03,0-.07,0-.1-.02-.23-.03-.4-.16-.5-.37-.06-.1-.11-.21-.17-.32-.12-.2-.18-.42-.18-.65,0-.06,0-.11.02-.15.03-.29.14-.54.32-.76,1.16-1.36,2.12-2.94,2.87-4.73ZM66.58,13.78h3.45c.41,0,.7-.09.86-.27.17-.18.29-.55.37-1.09.03-.22.15-.39.35-.5.11-.06.22-.08.33-.08.09,0,.18.02.28.07.01,0,.03,0,.05.02.27.11.48.29.63.53.11.18.17.36.17.55,0,.07,0,.13-.02.2-.17.9-.46,1.52-.87,1.88s-1.08.53-2,.53h-3.75c-1.21,0-2.03-.21-2.47-.62-.44-.41-.66-1.2-.66-2.37v-4.53s-.01-.04-.03-.06c-.02-.02-.05-.02-.08,0l-.25.08c-.12.06-.24.08-.37.08-.13,0-.26-.03-.38-.08-.25-.11-.44-.29-.55-.53-.06-.12-.08-.25-.08-.38,0-.11.03-.23.08-.35.1-.24.27-.42.51-.51l1.03-.4c.08-.03.12-.09.12-.18v-2.91c0-.27.1-.5.29-.69.19-.19.42-.29.69-.29h.05c.28,0,.51.1.7.29.19.19.28.42.28.69v2.11s.01.06.04.07c.03.02.05.02.08,0l1.43-.53c.08-.03.12-.09.12-.18V1c0-.27.09-.49.27-.67.18-.18.4-.27.66-.27s.48.09.66.27c.18.18.27.41.27.67v2.57s.01.06.04.08c.03.02.05.02.08,0l1.53-.56c.05-.02.1-.05.15-.08.21-.18.44-.27.7-.27.17,0,.33.03.5.1l.48.18c.17.07.23.19.2.37-.01.03-.02.06-.02.08-.01,3.19-.06,5.09-.15,5.71-.08.77-.39,1.28-.95,1.53-.24.11-.56.18-.96.22h-.08c-.23,0-.44-.08-.61-.23-.21-.19-.34-.42-.4-.7-.01-.06-.02-.12-.02-.18,0-.14.04-.28.13-.42.13-.18.3-.27.51-.27h.1c.12,0,.22-.03.28-.08s.12-.16.15-.32c.05-.28.09-1.46.12-3.54,0-.02-.01-.04-.04-.06-.03-.02-.05-.02-.07,0l-1.54.6c-.08.03-.12.09-.12.17v5c0,.25-.09.47-.27.66-.18.18-.4.27-.66.27s-.48-.09-.66-.27c-.18-.18-.27-.4-.27-.66v-4.25s-.01-.04-.04-.06c-.03-.02-.05-.02-.07,0l-1.43.55c-.08.03-.12.09-.12.17v5.33c0,.51.07.83.22.96s.5.2,1.04.2Z" style="fill: #fff;"/>
      <path d="M85.02.88c.28,0,.51.1.7.29.19.19.28.42.28.69v4.52c0,.28-.09.51-.28.7-.19.19-.42.28-.7.28h-1.81c-.09,0-.13.04-.13.13v7.39c0,.25-.09.47-.27.66-.18.18-.4.27-.66.27s-.47-.09-.66-.27c-.18-.18-.27-.4-.27-.66V1.03s0-.02-.03-.02-.02,0-.02.02c-.34.97-.7,1.88-1.08,2.71-.03.08-.05.16-.05.25v10.89c0,.27-.09.49-.28.68-.19.19-.42.28-.68.28s-.49-.09-.68-.28c-.19-.19-.28-.42-.28-.68v-7.4s0-.04-.03-.04c-.02,0-.03,0-.04,0-.12.19-.24.37-.37.53-.11.14-.25.22-.42.22-.03,0-.07,0-.1-.02-.22-.03-.38-.15-.46-.35-.06-.13-.11-.26-.17-.38-.1-.22-.15-.45-.15-.68,0-.06,0-.11.02-.17.02-.3.12-.56.3-.8.97-1.35,1.79-2.97,2.46-4.86.09-.27.25-.46.5-.58.14-.08.29-.12.45-.12.1,0,.19.02.28.05l.65.18c.09.02.15.07.19.15s.04.16,0,.23c0,.02.01.03.03.03h3.75ZM84.48,2.54c0-.09-.04-.13-.12-.13h-1.15c-.09,0-.13.04-.13.13v.71c0,.08.04.12.13.12h1.15c.08,0,.12-.04.12-.12v-.71ZM83.08,5.69c0,.09.04.13.13.13h1.15c.08,0,.12-.04.12-.13v-.75c0-.08-.04-.12-.12-.12h-1.15c-.09,0-.13.04-.13.12v.75ZM90.85.88c.27,0,.5.1.69.29.19.19.29.42.29.69v11.64c0,.56-.07,1-.21,1.29s-.38.52-.72.66c-.46.21-1.26.33-2.39.35h-.02c-.27,0-.5-.08-.71-.25-.22-.18-.38-.4-.48-.68-.01-.03-.02-.07-.03-.1-.02-.08-.03-.16-.03-.23,0-.13.04-.25.12-.37.12-.18.29-.27.51-.27h.78c.31,0,.58,0,.8-.02.17,0,.28-.03.35-.09.07-.06.1-.17.1-.32v-5.99c0-.09-.04-.13-.13-.13h-2.01c-.27,0-.5-.09-.69-.28s-.29-.42-.29-.7V1.86c0-.27.1-.5.29-.69.19-.19.42-.29.69-.29h3.1ZM89.89,2.54c0-.09-.04-.13-.13-.13h-1.26c-.08,0-.12.04-.12.13v.71c0,.08.04.12.12.12h1.26c.09,0,.13-.04.13-.12v-.71ZM88.38,5.69c0,.09.04.13.12.13h1.26c.09,0,.13-.04.13-.13v-.75c0-.08-.04-.12-.13-.12h-1.26c-.08,0-.12.04-.12.12v.75Z" style="fill: #fff;"/>
      <path d="M97.93,14.56c-.19.22-.43.34-.71.37-.03.01-.07.02-.12.02-.24,0-.47-.07-.68-.22l-.05-.05c-.22-.14-.33-.36-.33-.65,0-.21.07-.4.22-.56.51-.6.92-1.33,1.25-2.21.09-.24.25-.43.48-.55.13-.08.27-.12.42-.12.1,0,.2.02.3.05.25.09.44.25.56.48.08.14.12.29.12.45,0,.09-.02.18-.05.28-.37,1.12-.83,2.02-1.39,2.71ZM101.96,3.65c0-.08-.04-.12-.13-.12h-1.38c-.09,0-.15.03-.18.1-.63,1.05-1.34,1.97-2.12,2.76-.19.2-.42.3-.7.3s-.52-.09-.73-.28c-.08-.07-.16-.14-.25-.22-.19-.16-.28-.36-.28-.61s.09-.46.27-.62c1.2-1.08,2.14-2.45,2.84-4.1.11-.25.29-.45.53-.58.15-.09.32-.13.5-.13.09,0,.18,0,.27.02l.22.07c.25.06.44.2.56.43.07.12.1.25.1.38,0,.11-.02.22-.07.32-.03.1-.07.2-.12.3-.01.03,0,.06,0,.08s.04.03.06.03h8.68c.23,0,.43.09.61.26.17.17.26.38.26.62s-.09.45-.26.62c-.17.17-.37.26-.61.26h-5.91c-.08,0-.12.04-.12.12v.61c0,.09.04.13.12.13h5.01c.22,0,.41.08.56.23.15.16.23.34.23.56s-.08.4-.23.56c-.16.16-.34.23-.56.23h-5.01c-.08,0-.12.04-.12.13v.71c0,.09.04.13.12.13h5.45c.23,0,.43.08.59.24.16.16.24.35.24.58s-.08.42-.24.58c-.16.16-.36.24-.59.24h-5.45c-.08,0-.12.04-.12.12v.6c0,.08.03.14.1.18.48.32.89.63,1.25.93.19.17.28.37.28.61,0,.29-.11.53-.33.71h-.02c-.18.16-.38.23-.61.23-.03,0-.06,0-.08-.02-.27-.01-.5-.12-.7-.32-.42-.4-.91-.79-1.48-1.16-.14-.11-.22-.25-.23-.43-.01-.18.05-.32.18-.43l.03-.03s.01,0,0-.02-.01-.02-.02-.02c-.11,0-.21-.04-.29-.12-.08-.08-.12-.18-.12-.29V3.65ZM103.06,13.8h2.27c.23,0,.4-.04.51-.12s.18-.24.22-.5c.04-.22.16-.38.35-.48.11-.07.23-.1.35-.1.09,0,.18.02.27.05.27.1.48.27.63.5.11.17.17.34.17.53,0,.07,0,.14-.02.22-.14.65-.38,1.1-.72,1.34s-.86.37-1.57.37h-2.69c-1.07,0-1.79-.16-2.15-.49-.36-.33-.54-.94-.54-1.85v-1.71c0-.28.1-.51.29-.7s.42-.28.69-.28h.05c.27,0,.5.09.69.28s.29.42.29.7v1.69c0,.24.05.4.17.46.11.06.36.09.75.09ZM107.6,11.69c-.11-.14-.17-.3-.17-.48,0-.04,0-.09.02-.15.04-.24.18-.42.4-.51.18-.09.36-.13.55-.13.09,0,.17,0,.25.02.29.06.52.19.7.4.75.86,1.34,1.69,1.78,2.47.07.14.1.28.1.42,0,.11-.02.22-.05.33-.1.25-.28.44-.53.56l-.1.05c-.13.07-.26.1-.38.1s-.24-.02-.35-.07c-.23-.1-.41-.27-.53-.5-.42-.82-.98-1.65-1.68-2.51Z" style="fill: #fff;"/>
      <path d="M120.41,3.1c0-.08-.04-.12-.13-.12h-2.34c-.08,0-.12.04-.12.12v3.34c0,3.69-.39,6.55-1.16,8.58-.08.22-.24.35-.48.4-.06.02-.11.03-.17.03-.18,0-.33-.06-.46-.17-.22-.17-.38-.38-.46-.63-.04-.13-.07-.26-.07-.38,0-.13.02-.27.07-.4.59-1.69.88-4.17.88-7.44V2.29c0-.28.1-.51.29-.7s.42-.28.69-.28h5.2c.08,0,.12-.04.12-.13v-.2c0-.28.1-.51.29-.7s.42-.28.69-.28h.15c.28,0,.51.09.7.28.19.19.28.42.28.7v.2c0,.09.04.13.13.13h5.16c.23,0,.43.08.6.24.17.16.25.36.25.59s-.08.43-.25.6-.37.25-.6.25h-1.89c-.08,0-.12.04-.12.12v.7c0,.08.04.12.12.12h1.71c.2,0,.37.07.5.21.13.14.2.3.2.5s-.07.36-.2.49-.3.2-.5.2h-1.71c-.08,0-.12.04-.12.13v2.89c0,.21-.08.39-.22.54-.15.15-.33.22-.53.22s-.38-.07-.52-.22c-.14-.15-.22-.33-.22-.54v-2.89c0-.09-.04-.13-.13-.13h-1.05c-.19,0-.35-.07-.49-.2s-.21-.3-.21-.49.07-.36.21-.5c.14-.14.3-.21.49-.21h1.05c.09,0,.13-.04.13-.12v-.7c0-.08-.04-.12-.13-.12h-4c-.08,0-.12.04-.12.12v.7c0,.08.04.12.12.12h1.06c.2,0,.37.07.5.21.13.14.2.3.2.5s-.07.36-.2.49-.3.2-.5.2h-1.06c-.08,0-.12.04-.12.13v2.77c0,.21-.08.39-.22.53s-.33.22-.53.22-.38-.07-.52-.22c-.14-.14-.22-.32-.22-.53v-2.77c0-.09-.04-.13-.13-.13h-1.05c-.19,0-.35-.07-.49-.2s-.21-.3-.21-.49.07-.36.21-.5c.14-.14.3-.21.49-.21h1.05c.09,0,.13-.04.13-.12v-.7ZM126.53,13.03c-.12-.13-.18-.28-.18-.43,0-.04,0-.08.02-.12.03-.21.14-.37.33-.46.18-.09.37-.13.56-.13.05,0,.12,0,.18.02.27.04.49.16.68.33.74.71,1.37,1.38,1.88,2.01.11.14.17.3.17.46,0,.07-.01.13-.03.2-.07.24-.21.43-.43.55l-.22.1c-.11.06-.22.08-.33.08-.08,0-.16-.01-.23-.03-.19-.06-.34-.17-.46-.33-.03-.06-.08-.08-.15-.08-2.44.09-5.51.18-9.21.28h-.03c-.22,0-.42-.07-.58-.22-.2-.18-.3-.4-.3-.66,0-.19.07-.36.22-.51.14-.17.33-.25.56-.25.76-.01,1.27-.02,1.51-.02.09,0,.17-.02.23-.07.22-.14.52-.35.9-.61.08-.04.08-.09.02-.15-.56-.45-1.25-.92-2.04-1.41-.21-.13-.32-.32-.32-.56,0-.18.07-.33.22-.46.19-.18.41-.28.66-.3.05-.01.1-.02.15-.02.21,0,.4.05.58.15.01.01.02.02.03.02.08.03.14.03.2-.02.35-.35.7-.72,1.05-1.1.18-.21.39-.34.65-.38.08-.02.15-.03.23-.03.18,0,.35.04.51.13.2.1.32.27.35.5v.08c0,.19-.07.35-.22.48-.48.42-.91.79-1.31,1.11-.07.06-.06.11.02.15.22.14.47.32.75.53.07.06.13.06.2,0,.72-.58,1.36-1.12,1.93-1.63.21-.2.45-.32.73-.37h.2c.21,0,.42.05.61.15.23.12.35.32.35.58,0,.2-.08.37-.25.5-1.18.97-2.35,1.84-3.49,2.61-.01.01-.01.02,0,.04,0,.02.01.02.03.02,1.58-.02,2.79-.04,3.62-.07.02,0,.04-.01.05-.03.01-.02,0-.04-.02-.05-.19-.21-.37-.4-.55-.58ZM118.93,5.85c.11-.1.24-.16.39-.16s.28.05.39.16c.11.11.17.24.17.39v.15c0,1.01-.17,1.8-.51,2.39-.08.13-.2.21-.37.22s-.31-.03-.43-.13c-.12-.1-.19-.23-.22-.39-.02-.16,0-.31.08-.46.22-.43.33-.99.33-1.66v-.12c0-.16.05-.29.17-.39ZM123.56,7.67c0,.16-.06.29-.17.39-.11.1-.24.16-.4.16s-.29-.05-.39-.16c-.11-.11-.16-.24-.16-.39v-1.39c0-.16.05-.29.16-.4s.24-.17.39-.17.29.06.4.17c.11.11.17.24.17.4v1.39ZM124.66,5.84c.11-.11.24-.16.39-.16s.28.05.39.16c.11.1.17.23.17.39v.15c0,.96-.17,1.73-.5,2.29-.09.13-.22.21-.39.22s-.32-.04-.46-.15c-.12-.1-.19-.23-.22-.38-.02-.16.01-.3.1-.43.23-.41.35-.95.35-1.61v-.08c0-.16.05-.29.17-.39ZM129.54,8.05h.15s.07,0,.1-.02.05-.02.07-.03c.01-.01.04-.07.08-.18.02-.07.03-.17.03-.3.01-.11.06-.19.16-.24.09-.05.19-.05.29,0,.28.14.42.34.42.6,0,.03,0,.06-.02.08-.03.29-.07.48-.12.56-.1.18-.23.3-.4.38-.12.07-.3.1-.53.1h-.53c-.34,0-.6-.09-.76-.28-.1-.1-.17-.23-.2-.39-.03-.16-.05-.43-.05-.82v-1.26c0-.17.05-.3.17-.42.11-.11.25-.17.42-.17s.3.06.42.17c.11.11.17.25.17.42v1.64c0,.08.02.12.07.13.01.01.04.02.08.02Z" style="fill: #fff;"/>
      <path d="M149.48,8.65c0,.28-.1.51-.29.7-.19.19-.42.28-.69.28h-3.05c-.08,0-.12.04-.13.13-.14,1.03-.43,1.94-.86,2.72-.04.08-.03.13.05.17,1.32.61,2.89,1.03,4.73,1.26.21.03.35.14.43.33.03.08.05.16.05.23,0,.11-.04.22-.12.32-.03.06-.07.12-.12.18-.17.25-.38.45-.63.58-.2.1-.4.15-.6.15-.08,0-.16-.01-.23-.03-1.83-.31-3.4-.84-4.73-1.58-.07-.03-.13-.02-.2.03-.65.56-1.47,1.04-2.46,1.41-.14.06-.28.08-.42.08s-.27-.03-.4-.08c-.27-.09-.49-.25-.66-.5-.03-.04-.06-.08-.08-.12-.09-.12-.13-.25-.13-.38,0-.07.01-.13.03-.2.07-.21.21-.35.42-.43.82-.25,1.5-.58,2.04-.98.07-.04.07-.09.02-.15-.55-.48-1.06-1.05-1.53-1.73-.08-.11-.12-.23-.12-.35,0-.08.01-.16.03-.23.08-.2.22-.33.43-.4.11-.03.22-.05.33-.05.13,0,.26.02.38.07.24.09.45.23.61.43.28.33.6.65.98.96.07.06.12.04.17-.03.25-.5.44-1.06.55-1.69.01-.09-.03-.13-.12-.13h-2.69c-.27,0-.5-.09-.69-.28-.19-.19-.29-.42-.29-.7v-3c0-.27.1-.5.29-.69s.42-.29.69-.29h2.82c.08,0,.12-.04.12-.12v-.95c0-.08-.04-.12-.12-.12h-3.17c-.27,0-.5-.1-.69-.29-.19-.19-.29-.42-.29-.69v-.46s0-.02-.02-.02c-.02,0-.03,0-.03,0-.3.63-.6,1.21-.91,1.74-.03.07-.05.14-.05.23v10.92c0,.27-.09.49-.28.68s-.42.28-.68.28-.49-.09-.68-.28-.28-.42-.28-.68V6.89s-.01-.04-.03-.04c-.02,0-.04,0-.05,0-.23.3-.45.56-.65.78-.12.14-.27.22-.45.22-.04,0-.08,0-.12-.02-.23-.03-.4-.16-.5-.37-.07-.11-.13-.22-.18-.33-.1-.21-.15-.42-.15-.63v-.18c.03-.29.15-.54.35-.75,1.23-1.36,2.25-2.94,3.05-4.73.11-.25.29-.44.53-.55.14-.07.29-.1.45-.1.1,0,.21.02.32.05h.02c.24.09.42.25.53.48.06.12.08.25.08.38,0,.11-.02.23-.07.35-.01.02-.02.04-.03.07-.01.03,0,.06,0,.08s.04.03.07.03h3.9c.08,0,.12-.04.12-.12v-.45c0-.28.1-.51.29-.7.19-.19.42-.28.69-.28h.05c.27,0,.5.09.69.28.19.19.29.42.29.7v.45c0,.08.04.12.12.12h3.47c.25,0,.47.09.65.27s.27.39.27.65-.09.47-.27.66c-.18.18-.39.27-.65.27h-3.47c-.08,0-.12.04-.12.12v.95c0,.08.04.12.12.12h2.96c.27,0,.5.1.69.29.19.19.29.42.29.69v3ZM141.33,7.87c0,.09.04.13.13.13h1.84c.08,0,.12-.04.12-.13v-1.43c0-.08-.04-.12-.12-.12h-1.84c-.09,0-.13.04-.13.12v1.43ZM147.54,6.44c0-.08-.04-.12-.13-.12h-1.86c-.08,0-.12.04-.12.12v1.43c0,.09.04.13.12.13h1.86c.09,0,.13-.04.13-.13v-1.43Z" style="fill: #fff;"/>
      <path d="M167.01.73c.27,0,.5.1.69.29s.29.42.29.69v11.37c0,.55-.07.98-.21,1.27-.14.29-.38.51-.72.66-.43.21-1.19.33-2.27.37h-.03c-.27,0-.5-.09-.71-.27-.22-.18-.38-.4-.46-.68-.01-.03-.02-.06-.03-.08-.03-.09-.05-.17-.05-.25,0-.12.04-.24.12-.37.12-.18.29-.27.51-.27h1.41c.3,0,.45-.13.45-.4v-2.44c0-.08-.04-.12-.13-.12h-3.32c-.09,0-.13.04-.13.12v3.65c0,.27-.1.5-.29.69-.19.19-.42.29-.69.29h-.08c-.27,0-.5-.1-.69-.29s-.29-.42-.29-.69v-3.65c0-.08-.04-.12-.12-.12h-3.22c-.09,0-.14.04-.15.12-.29,1.7-.79,3.09-1.51,4.17-.14.21-.35.32-.63.33h-.03c-.25,0-.47-.08-.65-.25-.02-.01-.04-.02-.05-.03s-.03-.02-.05-.03c-.2-.17-.32-.38-.35-.63-.01-.06-.02-.11-.02-.17,0-.19.06-.37.17-.53.19-.29.35-.59.48-.9.29-.61.49-1.27.61-1.98s.2-1.34.24-1.88c.04-.55.06-1.19.06-1.92V1.71c0-.27.1-.5.29-.69.19-.19.42-.29.69-.29h10.89ZM157.1,8.47c0,.09.04.13.12.13h3.02c.08,0,.12-.04.12-.13v-1.83c0-.09-.04-.13-.12-.13h-2.96c-.09,0-.13.04-.13.13v.18c0,.52-.02,1.07-.05,1.64ZM160.35,2.79c0-.09-.04-.13-.12-.13h-2.96c-.09,0-.13.04-.13.13v1.73c0,.08.04.12.13.12h2.96c.08,0,.12-.04.12-.12v-1.73ZM165.85,4.63c.09,0,.13-.04.13-.12v-1.73c0-.09-.04-.13-.13-.13h-3.32c-.09,0-.13.04-.13.13v1.73c0,.08.04.12.13.12h3.32ZM162.4,8.47c0,.09.04.13.13.13h3.32c.09,0,.13-.04.13-.13v-1.83c0-.09-.04-.13-.13-.13h-3.32c-.09,0-.13.04-.13.13v1.83Z" style="fill: #fff;"/>
      <path d="M185.59,12.83c-1.04,1.18-2.39,1.78-4.08,1.78s-3.04-.59-4.08-1.78-1.55-2.78-1.55-4.8.51-3.6,1.54-4.75,2.39-1.73,4.08-1.73,3.05.58,4.08,1.73,1.54,2.73,1.54,4.75-.52,3.61-1.55,4.8ZM179.29,11.24c.55.8,1.3,1.2,2.23,1.2s1.68-.4,2.23-1.2c.55-.8.83-1.87.83-3.2s-.28-2.39-.83-3.16c-.55-.77-1.3-1.15-2.24-1.15s-1.69.38-2.23,1.15c-.55.77-.82,1.82-.82,3.16s.28,2.41.83,3.2Z" style="fill: #fff;"/>
      <path d="M200.88,12.83c-1.04,1.18-2.39,1.78-4.08,1.78s-3.04-.59-4.08-1.78-1.55-2.78-1.55-4.8.51-3.6,1.54-4.75,2.39-1.73,4.08-1.73,3.05.58,4.08,1.73,1.54,2.73,1.54,4.75-.52,3.61-1.55,4.8ZM194.58,11.24c.55.8,1.3,1.2,2.23,1.2s1.68-.4,2.23-1.2c.55-.8.83-1.87.83-3.2s-.28-2.39-.83-3.16c-.55-.77-1.3-1.15-2.24-1.15s-1.69.38-2.23,1.15c-.55.77-.82,1.82-.82,3.16s.28,2.41.83,3.2Z" style="fill: #fff;"/>
      <path d="M208.08,14.38c-.27,0-.5-.1-.69-.29-.19-.19-.29-.42-.29-.69V2.77c0-.27.1-.5.29-.69.19-.19.42-.29.69-.29h.56c.27,0,.5.1.69.29.19.19.29.42.29.69v9.38c0,.08.04.12.12.12h4c.27,0,.5.1.69.29.19.19.29.42.29.69v.15c0,.27-.1.5-.29.69-.19.19-.42.29-.69.29h-5.66Z" style="fill: #fff;"/>
      <path d="M226.77,14.38c-.29,0-.55-.09-.78-.27s-.39-.4-.46-.68l-.58-2.16c-.02-.09-.08-.13-.17-.13h-3.83c-.08,0-.13.04-.15.13l-.6,2.16c-.08.28-.23.5-.46.68s-.48.27-.77.27h-.6c-.24,0-.44-.1-.58-.3-.09-.12-.13-.25-.13-.4,0-.08.01-.16.03-.23l3.44-10.72c.09-.28.25-.5.48-.67.23-.17.5-.26.8-.26h1c.29,0,.55.09.79.26.24.17.4.4.49.67l3.45,10.72c.02.08.03.16.03.23,0,.14-.05.28-.15.4-.14.2-.33.3-.56.3h-.68ZM221.41,9.06s0,.06,0,.09c.02.03.04.04.08.04h2.74s.06-.01.08-.04c.02-.03.03-.06.02-.09l-.35-1.25c-.14-.5-.34-1.24-.6-2.22-.25-.98-.42-1.6-.5-1.87,0-.02-.01-.03-.03-.03s-.04.01-.05.03c-.32,1.35-.68,2.71-1.06,4.08l-.33,1.25Z" style="fill: #fff;"/>
      <path d="M233.08,14.38c-.27,0-.5-.1-.69-.29-.19-.19-.29-.42-.29-.69V2.77c0-.27.1-.5.29-.69.19-.19.42-.29.69-.29h3.19c3.03,0,4.55,1.04,4.55,3.1,0,.59-.15,1.13-.46,1.64s-.71.86-1.2,1.06c-.03,0-.05.02-.05.05s.01.05.03.05c.71.18,1.27.51,1.69,1.01.42.5.63,1.15.63,1.96,0,1.22-.45,2.14-1.34,2.76-.9.62-2.07.94-3.52.94h-3.52ZM234.63,6.79c0,.08.04.12.12.12h1.34c.77,0,1.35-.14,1.73-.43.38-.29.56-.69.56-1.21s-.19-.94-.56-1.18-.94-.37-1.7-.37h-1.38c-.08,0-.12.04-.12.12v2.96ZM234.63,12.32c0,.08.04.12.12.12h1.63c1.77,0,2.66-.64,2.66-1.91,0-.61-.22-1.05-.66-1.33-.44-.28-1.11-.42-1.99-.42h-1.63c-.08,0-.12.04-.12.13v3.4Z" style="fill: #fff;"/>
      <path d="M254.1,14.06c-.33.31-.75.46-1.26.46s-.93-.16-1.26-.46-.5-.71-.5-1.2.17-.89.51-1.21.76-.48,1.25-.48.92.16,1.25.48.51.72.51,1.21-.17.89-.5,1.2ZM253.5,9.76c-.18.17-.4.25-.65.25s-.46-.08-.65-.25-.29-.38-.32-.63l-.51-4.93-.05-1.56c0-.27.09-.5.28-.69.19-.19.42-.29.68-.29h1.15c.27,0,.49.1.68.29.19.19.28.42.27.69l-.05,1.56-.5,4.93c-.03.25-.14.46-.32.63Z" style="fill: #fff;"/>
      <path d="M94.03,35.45c.18.18.27.39.27.64s-.09.46-.27.64c-.18.18-.39.27-.63.27h-1.48c-.08,0-.12.04-.13.12-.07,1-.11,1.53-.12,1.59-.01.08.03.12.12.12h.9c.24,0,.45.09.62.27s.26.39.26.63-.09.45-.26.62c-.17.17-.38.26-.62.26h-1.1c-.09,0-.14.04-.15.12-.11.63-.25,1.06-.42,1.29-.19.25-.39.44-.61.56-.22.12-.49.2-.8.24-.31.04-.7.07-1.18.07h-.3c-.22,0-.42-.08-.59-.24-.17-.16-.3-.36-.37-.59-.06-.18-.03-.34.07-.49.11-.15.25-.22.42-.21.24.01.46.02.66.02h.3c.15,0,.27-.02.36-.05s.16-.11.24-.22c.05-.1.11-.23.17-.38.01-.03,0-.06,0-.08s-.04-.03-.07-.03h-6.87c-.06,0-.09.02-.1.07-.02.18-.1.32-.23.42-.13.11-.29.15-.46.14l-.46-.03c-.25-.01-.46-.12-.63-.33-.12-.16-.18-.33-.18-.51,0-.06,0-.11.02-.17.19-1.03.35-2.05.5-3.07.01-.08-.02-.12-.1-.12h-1.33c-.24,0-.45-.09-.63-.27-.18-.18-.27-.39-.27-.64s.09-.46.27-.64c.18-.18.39-.27.63-.27h1.58c.09,0,.14-.04.15-.12.14-1.16.24-2,.28-2.52,0-.02,0-.04-.03-.04-.02,0-.03,0-.04,0-.11.14-.23.29-.35.43-.18.21-.4.33-.68.35-.04.01-.08.02-.12.02-.24,0-.46-.07-.65-.2-.09-.07-.18-.13-.28-.18-.2-.13-.31-.32-.33-.56v-.08c0-.2.07-.38.22-.53,1.06-1.1,1.97-2.42,2.72-3.97.12-.25.31-.44.56-.55.15-.08.32-.12.48-.12.1,0,.2.01.3.03l.23.07c.25.08.44.23.55.46.05.11.08.22.08.33,0,.12-.03.24-.1.37-.04.09-.09.18-.13.28-.01.02-.01.04,0,.07.01.02.03.03.07.03h8.77c.24,0,.45.09.63.27.18.18.27.39.27.64s-.09.46-.27.64c-.18.18-.39.27-.63.27h-9.83c-.08,0-.14.03-.18.1-.12.2-.32.49-.58.86-.01.02-.01.04,0,.07.01.02.03.03.05.03h8.82c.27,0,.49.1.68.3.19.18.28.39.28.65,0,.18-.03,1.01-.1,2.49,0,.08.04.12.12.12h1.41c.24,0,.45.09.63.27ZM84.93,36.99s.01-.03,0-.04c-.01-.02-.02-.03-.03-.03h-1.84c-.09,0-.14.04-.15.12-.01.08-.05.32-.11.73s-.11.72-.14.93c-.01.08.02.12.1.12h3.47s.04,0,.04-.03c0-.02,0-.03,0-.04-.37-.28-.76-.54-1.2-.8-.18-.1-.28-.25-.32-.45v-.1c0-.16.06-.29.18-.42ZM85.16,33.47s.01-.03,0-.04c0-.02-.02-.03-.04-.03h-1.63c-.08,0-.12.04-.13.12-.03.19-.07.46-.12.82-.04.36-.08.62-.1.79-.01.08.03.12.12.12h3.14s.02,0,.03-.02c.01-.02,0-.03-.02-.04-.37-.27-.74-.51-1.13-.73-.18-.1-.28-.25-.32-.45v-.12c0-.16.06-.29.18-.42ZM87.77,38.77s-.01.02,0,.03.01.02.03.02h1.78c.09,0,.13-.04.13-.12.05-.89.09-1.44.1-1.66.01-.08-.03-.12-.12-.12h-3.27s-.02,0-.03.03c0,.02,0,.02,0,.02.49.27.93.55,1.33.85.15.11.23.27.23.48,0,.18-.06.33-.18.46ZM87.92,35.18s-.01.04,0,.05.02.02.04.02h1.79c.09,0,.13-.04.13-.12.02-.37.04-.9.07-1.61,0-.08-.04-.12-.13-.12h-3.19s-.04,0-.04.03c0,.02,0,.02.03.02.45.24.87.5,1.26.78.17.11.25.28.25.5,0,.18-.07.33-.2.45Z" style="fill: #fff;"/>
      <path d="M97.81,34.25c0-.27.1-.5.29-.69.19-.19.42-.29.69-.29h13.68c.27,0,.5.1.69.29.19.19.29.42.29.69v.23c0,.27-.1.5-.29.69-.19.19-.42.29-.69.29h-13.68c-.27,0-.5-.1-.69-.29-.19-.19-.29-.42-.29-.69v-.23Z" style="fill: #fff;"/>
      <path d="M120.03,27.95c.11-.25.29-.44.53-.56.14-.07.29-.1.45-.1.1,0,.2.02.32.05l.05.02c.25.08.44.24.56.48.05.12.08.25.08.38,0,.11-.03.22-.08.33-.34.83-.74,1.66-1.2,2.49-.04.08-.07.16-.07.23v10.59c0,.27-.09.49-.28.68-.19.19-.42.28-.68.28s-.49-.09-.68-.28c-.19-.19-.28-.42-.28-.68v-7.6s0-.04-.03-.04c-.02,0-.03,0-.04.03-.14.18-.29.35-.43.53-.12.14-.27.22-.45.22-.03,0-.07,0-.12-.02-.22-.03-.38-.16-.48-.37-.07-.12-.13-.24-.18-.35-.11-.21-.17-.43-.17-.66,0-.04,0-.09.02-.15.03-.29.14-.54.32-.76,1.14-1.34,2.09-2.92,2.84-4.73ZM125,28.97c-.17-.17-.26-.38-.26-.62s.08-.45.26-.63.38-.27.62-.27h3.14c.28,0,.53.09.75.27.22.18.37.41.45.69.48,1.86,1.25,3.31,2.32,4.35.2.19.3.42.3.7,0,.23-.08.44-.23.61-.09.11-.18.22-.28.33-.14.19-.33.29-.55.32h-.1c-.19,0-.35-.07-.5-.2-.01-.01-.03-.01-.05,0-.02,0-.03.02-.03.04v.07c-.06,2.51-.13,4.29-.22,5.33s-.26,1.72-.49,2.03c-.29.39-.69.64-1.21.75-.23.04-.56.07-1,.07h-.02c-.27,0-.5-.09-.7-.27-.21-.19-.35-.42-.43-.7-.01-.04-.02-.08-.03-.12-.02-.08-.03-.15-.03-.22,0-.13.04-.26.13-.38.12-.18.29-.27.5-.27h.48c.24,0,.43-.08.55-.24.12-.16.22-.6.28-1.33.07-.73.12-1.91.17-3.56.01-.08-.03-.12-.12-.12h-1.86c-.08,0-.12.04-.13.12-.17,1.47-.49,2.75-.98,3.82-.49,1.07-1.23,1.99-2.22,2.76-.17.11-.34.17-.51.17-.07,0-.13,0-.2-.02-.25-.06-.46-.19-.63-.42-.12-.16-.18-.33-.18-.53v-.12c.03-.24.15-.44.35-.58.77-.59,1.34-1.29,1.69-2.12.35-.83.59-1.81.71-2.96.01-.08-.03-.12-.12-.12h-.7c-.27,0-.5-.1-.69-.29-.19-.19-.29-.42-.29-.69v-.23s0-.02-.03-.03-.03,0-.04.02c-.03.03-.06.07-.08.12-.17.19-.38.28-.63.28s-.48-.09-.66-.27c-.19-.18-.28-.41-.28-.69,0-.25.08-.48.23-.66.71-.87,1.29-1.93,1.76-3.15.1-.27.27-.46.51-.6.15-.09.32-.13.48-.13.09,0,.18.02.27.05h.05c.25.07.44.22.56.45.05.13.08.26.08.38,0,.11-.02.22-.07.33-.51,1.22-1.08,2.29-1.71,3.2-.01.02-.01.04,0,.07.01.02.03.03.05.03h6.72s.05-.01.07-.03c.01-.02,0-.04-.02-.07-.9-1.21-1.57-2.65-2.01-4.33-.02-.08-.08-.12-.17-.12h-2.41c-.24,0-.45-.09-.62-.26Z" style="fill: #fff;"/>
      <path d="M136.78,28.51c0-.27.09-.5.28-.69.19-.19.42-.29.7-.29h12.57c.28,0,.51.1.7.29.19.19.28.42.28.69v13.35c0,.28-.09.51-.28.7-.19.19-.42.28-.7.28h-.43c-.22,0-.41-.08-.56-.23-.16-.16-.23-.34-.23-.56,0-.07-.03-.1-.1-.1h-10.01c-.07,0-.1.03-.1.1,0,.22-.08.41-.23.56-.16.16-.34.23-.56.23h-.33c-.28,0-.51-.09-.7-.28-.19-.19-.28-.42-.28-.7v-13.35ZM138.89,39.93c0,.08.04.12.12.12h9.98c.08,0,.12-.04.12-.12v-10.19c0-.09-.04-.13-.12-.13h-9.98c-.08,0-.12.04-.12.13v10.19ZM140.52,32.59c0-.27.1-.5.29-.69.19-.19.42-.29.69-.29h4.98c.27,0,.5.1.69.29.19.19.29.42.29.69v4.5c0,.28-.1.51-.29.7s-.42.28-.69.28h-4.98c-.27,0-.5-.09-.69-.28s-.29-.42-.29-.7v-4.5ZM145.28,36.33c.09,0,.13-.04.13-.13v-2.69c0-.08-.04-.12-.13-.12h-2.74c-.08,0-.12.04-.12.12v2.69c0,.09.04.13.12.13h2.74Z" style="fill: #fff;"/>
      <path d="M170.45,39.09c0,.28-.09.51-.28.7-.19.19-.42.28-.7.28h-.76s-.03,0-.03.02c0,.02,0,.03.02.04.74.45,1.42.9,2.04,1.34.17.12.25.28.25.48,0,.24-.11.43-.32.55-.2.11-.41.17-.63.17h-.13c-.27-.02-.5-.12-.71-.3-.41-.33-.85-.67-1.33-1.01-.2-.14-.3-.34-.3-.6,0-.22.09-.4.27-.55l.1-.07s.01-.03,0-.05-.02-.03-.04-.03h-3.05s-.02,0-.03.02,0,.02,0,.03l.43.13c.22.08.35.23.4.45.02.04.03.09.03.13,0,.16-.07.29-.2.42-.59.49-1.26.93-2.01,1.33-.18.08-.35.12-.53.12-.09,0-.18-.01-.27-.03-.28-.06-.51-.19-.71-.4-.12-.13-.24-.25-.35-.35-.07-.08-.09-.17-.07-.27.02-.1.08-.17.18-.22,0-.01,0-.02-.02-.02h-3.7c-.09,0-.13.04-.13.13v.43c0,.23-.08.43-.24.59-.16.16-.35.24-.58.24s-.42-.08-.58-.24c-.16-.16-.24-.36-.24-.59v-9.83c0-.08-.03-.15-.08-.22-.11-.13-.24-.27-.38-.42-.19-.19-.28-.42-.28-.68,0-.23.08-.43.23-.6.67-.7,1.26-1.49,1.74-2.39.13-.25.32-.46.56-.61.24-.16.5-.23.78-.23.65,0,1.2.22,1.63.65.62.6,1.12,1.15,1.51,1.64.15.19.23.4.23.63,0,.29-.1.54-.3.76-.14.16-.32.23-.51.23h-.05c-.23-.02-.41-.13-.53-.32-.01-.01-.02-.03-.03-.05-.01-.01-.03-.01-.04,0-.02,0-.02.01-.02.02,0,.21-.07.39-.22.54-.14.15-.32.22-.53.22h-1.78c-.16,0-.29-.06-.41-.17-.12-.12-.17-.26-.17-.42-.02-.01-.04-.02-.05-.02-.37.45-.73.85-1.08,1.2-.02.01-.03.03-.02.05.01.02.03.03.05.03h4.18c.27,0,.5.09.69.28s.29.42.29.7v3.1c0,.27-.1.5-.29.69-.19.19-.42.29-.69.29h-2.66c-.09,0-.13.04-.13.12v.42c0,.09.04.13.13.13h2.87c.2,0,.37.07.51.22.14.14.22.32.22.51s-.07.37-.22.51c-.14.14-.32.22-.51.22h-2.87c-.09,0-.13.04-.13.12v.45c0,.09.04.13.13.13h2.79c.27,0,.5.09.69.28s.29.42.29.7v.43s.01.04.03.06c.02.02.05.02.08,0,.98-.37,1.75-.77,2.31-1.21.01-.01.01-.03,0-.05s-.02-.03-.04-.03h-.4c-.27,0-.5-.09-.69-.28s-.29-.42-.29-.7v-4.47c0-.27.1-.5.29-.69.19-.19.42-.29.69-.29h5.69c.28,0,.51.1.7.29.19.19.28.42.28.69v4.47ZM160.01,33.39c0-.08-.04-.12-.12-.12h-1.88c-.09,0-.13.04-.13.12v.4c0,.08.04.12.13.12h1.88c.08,0,.12-.04.12-.12v-.4ZM157.88,35.65c0,.08.04.12.13.12h1.88c.08,0,.12-.04.12-.12v-.42c0-.09-.04-.13-.12-.13h-1.88c-.09,0-.13.04-.13.13v.42ZM158.18,29.87s-.01.04,0,.07c.01.02.03.03.05.03h1.96s.05-.01.07-.03c.01-.02,0-.04-.02-.07-.39-.5-.75-.92-1.1-1.28-.06-.06-.11-.05-.15.02-.22.4-.49.82-.81,1.26ZM165.54,31.71c.08,0,.12-.04.12-.12v-.37c0-.08-.04-.12-.12-.12h-1.83c-.27,0-.5-.1-.69-.29-.19-.19-.29-.42-.29-.69v-1.11c0-.27.1-.5.29-.69.19-.19.42-.29.69-.29h1.83c.08,0,.12-.04.12-.12v-.05c0-.25.09-.47.27-.64.18-.17.39-.26.64-.26s.46.09.64.26c.18.17.27.38.27.64v.05c0,.08.04.12.12.12h2.01c.28,0,.51.1.7.29.19.19.28.42.28.69v1.11c0,.27-.09.5-.28.69-.19.19-.42.29-.7.29h-2.01c-.08,0-.12.04-.12.12v.37c0,.08.04.12.12.12h2.92c.18,0,.33.07.46.2s.2.29.2.48-.07.35-.2.47c-.13.13-.29.19-.46.19h-7.8c-.19,0-.35-.06-.48-.19-.13-.13-.2-.29-.2-.47s.07-.35.2-.48.29-.2.48-.2h2.84ZM164.41,29.82c0,.09.04.13.12.13h1.01c.08,0,.12-.04.12-.13v-.5c0-.08-.04-.12-.12-.12h-1.01c-.08,0-.12.04-.12.12v.5ZM164.72,34.79c-.08,0-.12.04-.12.12v.38c0,.09.04.13.12.13h3.72c.09,0,.13-.04.13-.13v-.38c0-.08-.04-.12-.13-.12h-3.72ZM164.72,36.51c-.08,0-.12.04-.12.13v.4c0,.08.04.12.12.12h3.72c.09,0,.13-.04.13-.12v-.4c0-.09-.04-.13-.13-.13h-3.72ZM164.72,38.26c-.08,0-.12.04-.12.12v.43c0,.09.04.13.12.13h3.72c.09,0,.13-.04.13-.13v-.43c0-.08-.04-.12-.13-.12h-3.72ZM168.82,29.32c0-.08-.04-.12-.13-.12h-1.11c-.08,0-.12.04-.12.12v.5c0,.09.04.13.12.13h1.11c.09,0,.13-.04.13-.13v-.5Z" style="fill: #fff;"/>
      <path d="M176.23,37.28c1.33-.42,2.09-1.16,2.19-2.06-.05.02-.12.02-.19.02-.85,0-1.62-.54-1.62-1.51s.76-1.53,1.67-1.53c1.21,0,1.84.9,1.84,2.33,0,1.92-1.24,3.5-3.35,4.11l-.54-1.36Z" style="fill: #fff;"/>
      <path d="M15.88,54.91c.18-.04.34-.02.5.08l.5.32c.22.13.37.32.45.55.03.11.05.22.05.33,0,.13-.02.26-.07.38-.65,1.7-1.22,3.08-1.69,4.13-.04.07-.03.13.03.2,1.1,1.18,1.64,2.47,1.64,3.85,0,1.28-.32,2.13-.95,2.54-.3.24-.7.4-1.2.46-.14.02-.31.03-.5.03h-.03c-.25,0-.48-.09-.68-.27-.21-.19-.35-.43-.42-.71,0-.02,0-.05-.02-.08-.02-.07-.03-.13-.03-.18,0-.14.04-.28.13-.4.13-.19.31-.28.53-.28.03,0,.07,0,.1-.02.28,0,.5-.05.68-.15.29-.17.43-.55.43-1.15,0-.94-.37-1.87-1.1-2.77-.28-.34-.42-.7-.42-1.06,0-.19.04-.38.12-.56.32-.87.69-1.95,1.1-3.22.01-.03,0-.06,0-.08s-.04-.03-.07-.03h-1.91c-.08,0-.12.04-.12.12v11.92c0,.28-.1.51-.29.7s-.42.28-.69.28h-.03c-.27,0-.5-.09-.69-.28s-.29-.42-.29-.7v-13.45s0-.02-.02-.02c-.01,0-.02,0-.03.02-.51,1.28-1.08,2.41-1.71,3.39-.01.02-.01.05,0,.08.01.03.03.04.07.04h.25c.24,0,.45.09.62.26.17.17.26.38.26.62s-.09.45-.26.62c-.17.17-.38.26-.62.26h-1.53c-.08,0-.14.03-.2.1-.22.28-.53.62-.93,1.05-.01.02-.01.04,0,.07s.03.03.06.03h1.94c.28,0,.51.09.7.28.19.19.28.42.28.7v5.73c0,.27-.09.49-.28.68-.19.19-.41.28-.66.28h-.4c-.16,0-.29-.06-.4-.17-.11-.12-.17-.25-.17-.41,0-.04-.03-.07-.08-.07h-2.56c-.07,0-.1.03-.1.1,0,.21-.08.39-.22.54-.15.15-.33.22-.56.22h-.15c-.24,0-.46-.09-.64-.27s-.27-.39-.27-.65v-4.13s-.01-.04-.03-.05c-.02-.01-.04-.01-.07,0-.13.09-.28.13-.43.13-.07,0-.14-.01-.22-.03-.23-.06-.42-.19-.56-.4-.03-.04-.07-.09-.1-.15-.11-.16-.17-.32-.17-.48,0-.07,0-.13.02-.2.05-.24.19-.43.42-.55,1.14-.64,2.17-1.4,3.1-2.27.01-.01.01-.03,0-.05s-.02-.03-.04-.03h-2.62c-.24,0-.45-.09-.62-.26-.17-.17-.26-.38-.26-.62s.08-.45.26-.62c.17-.17.38-.26.62-.26h1.96c.08,0,.12-.04.12-.13v-1.15c0-.08-.04-.12-.12-.12h-1.25c-.23,0-.43-.09-.61-.26-.17-.17-.26-.38-.26-.61s.08-.44.26-.62c.17-.17.37-.26.61-.26h1.25c.08,0,.12-.04.12-.12v-.6c0-.25.09-.47.27-.66.18-.18.4-.27.66-.27s.48.09.66.27c.18.18.27.4.27.66v.6c0,.08.04.12.12.12h.86c.21,0,.39.08.54.22.15.15.22.33.22.56.03.01.05.01.05,0,.14-.27.29-.56.43-.9.1-.27.28-.46.53-.58.15-.08.32-.12.48-.12.09,0,.18.01.28.03l.81.23s.03-.01.03-.03c0-.08.03-.14.08-.2.05-.06.12-.08.2-.08h4.65ZM7.77,64.61c.09,0,.13-.04.13-.13v-.83c0-.09-.04-.13-.13-.13h-2.49c-.08,0-.12.04-.12.13v.83c0,.09.04.13.12.13h2.49ZM5.17,67.2c0,.09.04.13.12.13h2.49c.09,0,.13-.04.13-.13v-.96c0-.08-.04-.12-.13-.12h-2.49c-.08,0-.12.04-.12.12v.96ZM6.58,58.78c0,.09.04.13.12.13h.1c.08,0,.14-.03.2-.1.25-.37.52-.76.8-1.2.01-.02.01-.04,0-.07-.01-.02-.03-.03-.07-.03h-1.03c-.08,0-.12.04-.12.12v1.15Z" style="fill: #fff;"/>
      <path d="M30.1,66.02c-.08,0-.12.04-.12.12v1.39c0,.09.04.14.12.15.41.02.82.03,1.25.03,1.97,0,3.45,0,4.43-.02h.02c.21,0,.38.09.5.27.08.11.12.23.12.37,0,.08-.02.16-.05.23-.01.03-.02.07-.03.1-.09.28-.24.5-.46.68-.22.18-.48.27-.76.27h-3.87c-1.65,0-2.99-.16-4.02-.49-1.03-.33-1.88-.94-2.54-1.83-.02-.02-.05-.03-.08-.03-.03,0-.05.02-.07.04-.43.77-.95,1.43-1.54,1.98-.19.17-.4.25-.63.25-.03,0-.07,0-.1-.02-.27-.02-.5-.13-.71-.33-.03-.02-.06-.05-.08-.08-.18-.16-.27-.35-.27-.58s.09-.45.28-.61c1.03-.89,1.75-2.09,2.16-3.62.08-.27.23-.48.45-.63.18-.12.37-.18.58-.18.04,0,.09,0,.15.02h.1c.25.04.46.18.61.4.1.14.15.3.15.48,0,.07-.01.14-.03.23-.03.13-.08.29-.13.46-.02.09-.01.17.03.23.46.96,1.22,1.62,2.27,1.98.02.01.05,0,.07,0,.03-.02.04-.04.04-.07v-4.07c0-.09-.04-.13-.13-.13h-5.61c-.24,0-.45-.09-.63-.26-.18-.17-.27-.38-.27-.63s.09-.46.27-.63c.18-.17.39-.26.63-.26h13.21c.24,0,.45.09.63.26.18.17.27.38.27.63s-.09.46-.27.63c-.18.17-.39.26-.63.26h-5.3c-.08,0-.12.04-.12.13v1.03c0,.08.04.12.12.12h4.23c.24,0,.45.09.62.26.17.17.26.38.26.62s-.09.45-.26.62c-.17.17-.38.26-.62.26h-4.23ZM33.69,54.55c.28,0,.51.1.7.29.19.19.28.42.28.69v3.95c0,.27-.09.5-.28.69-.19.19-.42.29-.7.29h-9.84c-.28,0-.51-.1-.7-.29-.19-.19-.28-.42-.28-.69v-3.95c0-.27.09-.5.28-.69.19-.19.42-.29.7-.29h9.84ZM32.5,56.84c.08,0,.12-.04.12-.13v-.61c0-.09-.04-.13-.12-.13h-7.54c-.09,0-.13.04-.13.13v.61c0,.09.04.13.13.13h7.54ZM32.5,59.05c.08,0,.12-.04.12-.13v-.63c0-.08-.04-.12-.12-.12h-7.54c-.09,0-.13.04-.13.12v.63c0,.09.04.13.13.13h7.54Z" style="fill: #fff;"/>
      <path d="M52.8,62.1c.15-.23.37-.39.63-.48.11-.03.23-.05.35-.05.14,0,.28.03.42.08.24.1.4.27.48.51.03.1.05.19.05.27,0,.16-.04.3-.13.43-.63,1.01-1.38,1.94-2.24,2.81-.06.06-.07.12-.03.2.48,1.32.96,1.98,1.44,1.98.29,0,.49-.61.6-1.84.01-.19.1-.32.28-.4.08-.03.15-.05.22-.05.1,0,.2.04.3.12.02.01.04.03.07.05.25.17.45.38.58.63.11.2.17.4.17.6,0,.07,0,.13-.02.2-.18,1.06-.44,1.79-.8,2.17-.35.39-.88.58-1.58.58-1.14,0-2.1-.86-2.87-2.57-.03-.08-.08-.09-.15-.03-.69.56-1.42,1.07-2.19,1.53-.17.09-.34.13-.51.13-.08,0-.16-.01-.25-.03-.27-.07-.49-.21-.66-.43-.03-.03-.07-.07-.1-.12-.12-.14-.18-.3-.18-.48,0-.04,0-.09.02-.15.03-.23.15-.4.37-.51.98-.52,1.93-1.15,2.82-1.89.07-.04.09-.11.07-.2-.34-1.26-.62-2.7-.83-4.3,0-.09-.04-.13-.13-.13h-3.2c-.08,0-.12.04-.12.13v1.68c0,.09.04.13.12.12.17-.03.7-.13,1.59-.3.05-.01.11-.02.17-.02.18,0,.34.06.48.18.2.14.31.34.33.6v.08c0,.22-.07.43-.2.61-.17.21-.38.34-.63.4l-1.74.35c-.08.02-.12.07-.12.15v2.79c0,.55-.07.98-.21,1.28s-.38.53-.72.7c-.45.21-1.15.34-2.08.38h-.05c-.25,0-.49-.09-.7-.27-.22-.18-.38-.4-.48-.68-.02-.07-.05-.13-.08-.2-.02-.08-.03-.16-.03-.23,0-.12.04-.24.12-.35.12-.19.29-.28.5-.28h.46c.33,0,.6,0,.81-.02.15,0,.26-.03.32-.07.06-.05.09-.14.09-.27v-2.34c0-.09-.04-.12-.12-.1-.08.01-.37.07-.86.17s-.87.18-1.11.23c-.07.01-.13.02-.2.02-.19,0-.37-.06-.55-.17-.23-.14-.38-.35-.43-.61l-.03-.13c-.02-.08-.03-.16-.03-.23,0-.18.05-.34.15-.48.15-.22.36-.35.61-.4.95-.16,1.76-.29,2.44-.4.09-.02.13-.07.13-.15v-2.03c0-.09-.04-.13-.13-.13h-2.12c-.27,0-.49-.09-.68-.28-.19-.19-.28-.42-.28-.68s.09-.49.28-.68c.19-.19.42-.28.68-.28h2.12c.09,0,.13-.04.13-.12v-1.69c0-.08-.04-.11-.13-.1-.5.08-1.06.16-1.69.25h-.13c-.2,0-.39-.06-.56-.18-.21-.14-.35-.34-.43-.58-.03-.09-.05-.17-.05-.25,0-.13.03-.25.1-.37.11-.2.28-.32.5-.35,1.84-.29,3.47-.62,4.91-1.01.13-.04.27-.07.4-.07.15,0,.3.02.45.07.29.09.52.25.7.48l.15.18c.1.12.15.25.15.4,0,.07-.01.14-.03.22-.08.22-.23.36-.45.42-.51.13-1.08.27-1.71.4-.08.01-.12.06-.12.15v2.04c0,.08.04.12.12.12h3.02c.08,0,.12-.04.12-.12-.12-1.38-.18-2.58-.18-3.59,0-.25.09-.48.28-.66.19-.19.42-.28.68-.28h.17c.27,0,.49.09.68.28.19.19.29.42.3.7,0,1.16.05,2.35.17,3.55,0,.08.04.12.13.12h3.54c.27,0,.49.09.68.28.19.19.28.42.28.68s-.09.49-.28.68c-.19.19-.42.28-.68.28h-3.34c-.08,0-.11.04-.1.13.12.93.27,1.8.45,2.62,0,.02.01.04.04.04.03,0,.05,0,.06-.02.4-.48.74-.94,1.03-1.38ZM54.89,56.37c.14.17.22.35.22.55,0,.06,0,.11-.02.17-.04.27-.18.48-.42.63l-.02.02c-.17.11-.34.17-.53.17-.07,0-.13,0-.2-.02-.25-.06-.46-.19-.63-.4-.34-.45-.74-.91-1.2-1.36-.14-.14-.22-.32-.22-.53,0-.27.1-.47.32-.61.2-.14.42-.22.66-.22h.08c.27.02.5.13.7.32.49.45.9.89,1.25,1.29Z" style="fill: #fff;"/>
      <path d="M67.86,54.88c.28,0,.51.1.7.29.19.19.28.42.28.69v4.52c0,.28-.09.51-.28.7-.19.19-.42.28-.7.28h-1.81c-.09,0-.13.04-.13.13v7.39c0,.25-.09.47-.27.66-.18.18-.4.27-.66.27s-.47-.09-.66-.27c-.18-.18-.27-.4-.27-.66v-13.85s0-.02-.03-.02-.02,0-.02.02c-.34.97-.7,1.88-1.08,2.71-.03.08-.05.16-.05.25v10.89c0,.27-.09.49-.28.68-.19.19-.42.28-.68.28s-.49-.09-.68-.28c-.19-.19-.28-.42-.28-.68v-7.4s0-.04-.03-.04c-.02,0-.03,0-.04,0-.12.19-.24.37-.37.53-.11.14-.25.22-.42.22-.03,0-.07,0-.1-.02-.22-.03-.38-.15-.46-.35-.06-.13-.11-.26-.17-.38-.1-.22-.15-.45-.15-.68,0-.06,0-.11.02-.17.02-.3.12-.56.3-.8.97-1.35,1.79-2.97,2.46-4.86.09-.27.25-.46.5-.58.14-.08.29-.12.45-.12.1,0,.19.02.28.05l.65.18c.09.02.15.07.19.15s.04.16,0,.23c0,.02.01.03.03.03h3.75ZM67.31,56.54c0-.09-.04-.13-.12-.13h-1.15c-.09,0-.13.04-.13.13v.71c0,.08.04.12.13.12h1.15c.08,0,.12-.04.12-.12v-.71ZM65.92,59.69c0,.09.04.13.13.13h1.15c.08,0,.12-.04.12-.13v-.75c0-.08-.04-.12-.12-.12h-1.15c-.09,0-.13.04-.13.12v.75ZM73.69,54.88c.27,0,.5.1.69.29.19.19.29.42.29.69v11.64c0,.56-.07,1-.21,1.29s-.38.52-.72.66c-.46.21-1.26.33-2.39.35h-.02c-.27,0-.5-.08-.71-.25-.22-.18-.38-.4-.48-.68-.01-.03-.02-.07-.03-.1-.02-.08-.03-.16-.03-.23,0-.13.04-.25.12-.37.12-.18.29-.27.51-.27h.78c.31,0,.58,0,.8-.02.17,0,.28-.03.35-.09.07-.06.1-.17.1-.32v-5.99c0-.09-.04-.13-.13-.13h-2.01c-.27,0-.5-.09-.69-.28s-.29-.42-.29-.7v-4.52c0-.27.1-.5.29-.69.19-.19.42-.29.69-.29h3.1ZM72.72,56.54c0-.09-.04-.13-.13-.13h-1.26c-.08,0-.12.04-.12.13v.71c0,.08.04.12.12.12h1.26c.09,0,.13-.04.13-.12v-.71ZM71.21,59.69c0,.09.04.13.12.13h1.26c.09,0,.13-.04.13-.13v-.75c0-.08-.04-.12-.13-.12h-1.26c-.08,0-.12.04-.12.12v.75Z" style="fill: #fff;"/>
      <path d="M82.92,54.7c.17-.04.33-.02.48.07l.45.27c.2.11.34.28.43.5.04.12.07.24.07.37,0,.09-.01.18-.03.28-.51,1.69-.92,2.97-1.25,3.82-.03.08-.02.15.03.22.79,1.02,1.18,2.14,1.18,3.37,0,1.12-.26,1.85-.78,2.21-.24.2-.57.33-.98.38-.06.01-.12.02-.18.02-.03.01-.07.02-.1.02-.22,0-.42-.08-.58-.25-.2-.18-.33-.4-.4-.66-.01-.07-.02-.13-.02-.18,0-.13.04-.27.13-.4.12-.17.29-.27.5-.3.12-.02.22-.07.3-.13.18-.14.27-.46.27-.96,0-.74-.21-1.47-.61-2.19-.24-.41-.37-.81-.37-1.2,0-.19.03-.37.08-.55.21-.75.44-1.67.68-2.74.02-.09,0-.13-.08-.13h-1.1c-.09,0-.13.04-.13.13v12.33c0,.24-.09.45-.26.62-.17.17-.38.26-.61.26s-.44-.09-.61-.26c-.17-.17-.26-.38-.26-.62v-13.28c0-.28.09-.51.28-.7.19-.19.42-.28.7-.28h2.71s.04,0,.07-.02ZM91.85,60.31s-.01.05,0,.07c.01.03.03.04.07.04h1.53c.25,0,.47.09.65.27.18.18.27.39.27.64s-.09.46-.27.64c-.18.18-.39.27-.65.27h-8.4c-.25,0-.47-.09-.65-.27-.18-.18-.27-.39-.27-.64s.09-.46.27-.64c.18-.18.39-.27.65-.27h1.23c.09,0,.13-.04.12-.13-.07-.43-.18-.91-.33-1.43-.02-.09-.03-.18-.03-.27,0-.16.04-.3.12-.45.13-.23.33-.38.58-.43l.23-.05v-.02s0,0-.02,0h-1.43c-.24,0-.45-.09-.63-.26-.18-.17-.27-.38-.27-.62s.09-.45.27-.63c.18-.18.39-.27.63-.27h2.59c.09,0,.13-.04.13-.12v-.78c0-.28.09-.51.28-.7.19-.19.42-.28.7-.28s.51.09.7.28c.19.19.28.42.28.7v.78c0,.08.04.12.13.12h2.76c.24,0,.45.09.63.27.18.18.27.39.27.63s-.09.45-.27.62c-.18.17-.39.26-.63.26h-1.38s-.02,0-.02,0c0,0,0,.01.02.02l.08.02c.25.06.45.2.58.43.07.13.1.27.1.42,0,.1-.02.2-.05.3-.24.66-.43,1.16-.56,1.48ZM86.22,69.85c-.27,0-.49-.09-.68-.28-.19-.19-.28-.41-.28-.66v-4.48c0-.27.1-.5.29-.69.19-.19.42-.29.69-.29h6.06c.27,0,.5.1.69.29.19.19.29.42.29.69v4.38c0,.27-.1.5-.29.69-.19.19-.42.29-.69.29h-.51c-.14,0-.26-.05-.36-.15s-.14-.22-.14-.35c0-.04-.02-.07-.07-.07h-3.98s-.07.02-.07.07c0,.16-.06.29-.17.4-.11.11-.24.17-.4.17h-.38ZM91.29,65.34c0-.08-.04-.12-.13-.12h-3.85c-.09,0-.13.04-.13.12v1.99c0,.09.04.13.13.13h3.85c.09,0,.13-.04.13-.13v-1.99ZM90.79,57.75c.01-.08-.02-.12-.1-.12h-3.02s-.06.01-.08.03-.02.05,0,.08c.18.43.33.91.46,1.43.02.08.03.16.03.25,0,.17-.05.33-.15.5-.14.23-.35.38-.63.45l-.08.02s-.01.01,0,.03h3.79s.02-.01.02-.03c-.25-.07-.44-.21-.56-.43-.07-.14-.1-.29-.1-.43,0-.1.01-.19.03-.28.15-.51.29-1.01.4-1.49Z" style="fill: #fff;"/>
      <path d="M101.1,54.91c.11-.25.29-.44.53-.55.14-.07.29-.1.45-.1.1,0,.2.02.32.05h.02c.25.09.43.25.53.48.05.12.08.24.08.37s-.02.24-.07.37c-.37.81-.75,1.57-1.15,2.27-.03.07-.05.14-.05.23v10.81c0,.27-.09.49-.28.68-.19.19-.42.28-.68.28s-.49-.09-.68-.28c-.19-.19-.28-.42-.28-.68v-7.89s-.01-.04-.03-.04c-.02,0-.04,0-.05,0-.21.27-.43.53-.66.8-.12.13-.27.2-.45.2h-.12c-.23-.04-.4-.17-.5-.38-.06-.11-.11-.22-.17-.32-.1-.2-.15-.41-.15-.63v-.18c.03-.29.14-.54.33-.75,1.22-1.35,2.24-2.93,3.05-4.75ZM112.66,63.48c.25,0,.47.09.66.27.18.18.27.4.27.66s-.09.48-.27.66c-.18.18-.4.27-.66.27h-3.49c-.08,0-.12.04-.12.12v3.4c0,.28-.1.51-.29.7s-.42.28-.69.28h-.08c-.27,0-.5-.09-.69-.28s-.29-.42-.29-.7v-3.4c0-.08-.04-.12-.13-.12h-3.4c-.25,0-.47-.09-.66-.27-.18-.18-.27-.4-.27-.66s.09-.48.27-.66c.18-.18.4-.27.66-.27h3.4c.09,0,.13-.04.13-.12v-2.06c0-.08-.04-.12-.13-.12h-2.72c-.25,0-.47-.09-.66-.27-.18-.18-.27-.4-.27-.66s.09-.48.27-.66c.18-.18.4-.27.66-.27h2.72c.09,0,.13-.04.13-.12v-4.02c0-.27.1-.5.29-.69.19-.19.42-.29.69-.29h.08c.27,0,.5.1.69.29.19.19.29.42.29.69v4.02c0,.08.04.12.12.12h2.81c.25,0,.47.09.66.27.18.18.27.4.27.66s-.09.48-.27.66c-.18.18-.4.27-.66.27h-2.81c-.08,0-.12.04-.12.12v2.06c0,.08.04.12.12.12h3.49ZM106.01,57.4c.03.11.05.22.05.33,0,.14-.04.29-.12.45-.12.24-.32.42-.58.53-.1.04-.21.07-.32.07-.12,0-.25-.03-.38-.1-.22-.12-.37-.3-.45-.55-.18-.6-.4-1.22-.68-1.86-.06-.11-.08-.23-.08-.35,0-.1.02-.21.07-.32.09-.23.25-.39.48-.46.12-.04.24-.07.37-.07s.24.02.37.07c.24.09.42.25.53.48.3.61.55,1.2.75,1.78ZM110.9,55.63c.08-.25.24-.44.48-.56.13-.07.27-.1.42-.1.1,0,.2.02.32.05l.2.07c.24.09.42.25.51.5.05.11.08.22.08.33,0,.13-.03.26-.1.38-.35.74-.68,1.39-.96,1.94-.12.22-.3.38-.55.46-.11.03-.22.05-.33.05-.12,0-.24-.02-.37-.07-.23-.09-.39-.25-.46-.48-.04-.1-.07-.21-.07-.32s.03-.23.08-.35c.28-.64.53-1.28.75-1.91Z" style="fill: #fff;"/>
      <path d="M130.34,60.49c.08-.01.15-.02.22-.02.13,0,.26.02.38.07l.33.13c.18.07.32.18.42.35.05.11.08.22.08.33,0,.07-.01.13-.03.2-.5,1.89-1.29,3.5-2.39,4.81-.06.06-.05.11.02.17.71.52,1.52.95,2.42,1.28.21.08.34.22.4.43.02.08.03.14.03.2,0,.14-.04.28-.13.4-.04.06-.09.11-.13.17-.17.23-.38.4-.63.5-.12.04-.25.07-.38.07s-.27-.03-.42-.08c-.94-.41-1.8-.93-2.57-1.56-.07-.06-.13-.06-.2,0-.73.59-1.56,1.09-2.47,1.51-.14.07-.28.1-.42.1-.12,0-.24-.02-.37-.07-.25-.1-.46-.27-.61-.5-.18-.25-.34-.48-.5-.66-.06-.06-.1-.04-.13.03-.11.22-.23.44-.35.66-.13.21-.33.33-.6.35-.03.01-.06.02-.08.02-.23,0-.43-.08-.6-.23-.23-.2-.44-.36-.61-.48-.02-.01-.05-.01-.08,0s-.04.03-.04.07v.13c0,.28-.09.51-.28.7-.19.19-.42.28-.69.28s-.5-.09-.69-.28c-.19-.19-.28-.42-.28-.7v-5.73s-.01-.04-.03-.05c-.02-.01-.04,0-.07.02-.14.14-.28.28-.41.4s-.27.18-.44.18c-.06,0-.11,0-.17-.02-.23-.06-.4-.19-.5-.4-.04-.11-.09-.22-.15-.33-.08-.18-.12-.35-.12-.53,0-.09,0-.18.02-.27.05-.28.19-.5.4-.68,1.01-.9,1.86-1.88,2.57-2.94.15-.23.36-.39.61-.48.12-.04.24-.07.37-.07.13,0,.27.03.42.08.23.1.39.27.48.51.03.09.05.18.05.27,0,.14-.04.28-.13.42-.27.44-.56.89-.88,1.33-.06.07-.08.14-.08.23v7.47s.01.02.03.03c.02,0,.04,0,.05,0,.37-.51.67-1.08.91-1.73.24-.64.42-1.31.52-2.01s.17-1.32.21-1.87c.03-.55.05-1.17.05-1.85v-3.6c0-.28.1-.51.29-.7s.42-.28.69-.28h2.66c.08,0,.12-.04.12-.13v-1.16c0-.28.1-.51.29-.7s.42-.28.69-.28h.02c.27,0,.5.09.69.28s.29.42.29.7v1.16c0,.09.04.13.13.13h2.21c.18-.03.35-.03.51,0l.5.1c.21.03.37.14.48.32.08.12.12.25.12.38,0,.06-.01.12-.03.18-.2.79-.4,1.48-.61,2.09-.08.24-.23.43-.46.55-.17.09-.33.13-.5.13-.08,0-.16,0-.23-.02-.24-.06-.43-.19-.55-.4-.08-.14-.12-.29-.12-.43,0-.08.01-.16.03-.25.05-.21.12-.43.18-.66,0-.03,0-.06-.03-.08s-.04-.03-.07-.03h-1.43c-.09,0-.13.04-.13.12v2.12c0,.09.04.13.13.13h1.73s.06,0,.08-.02ZM119.58,54.81c.18-.23.39-.39.65-.48.13-.04.26-.07.38-.07.14,0,.28.03.42.08l.12.05c.23.09.39.25.46.48.02.08.03.16.03.23,0,.16-.05.3-.15.43-.82,1.07-1.75,2.04-2.79,2.91-.16.12-.32.18-.5.18-.06,0-.12,0-.18-.02-.24-.06-.43-.2-.56-.43-.01-.01-.02-.03-.03-.05-.1-.18-.15-.36-.15-.55,0-.07,0-.13.02-.2.04-.27.17-.48.38-.65.74-.6,1.38-1.24,1.91-1.93ZM123.38,68.06s0,.04,0,.06c.02.02.04.02.06,0,1.13-.39,2.12-.92,2.97-1.59.05-.06.06-.12.02-.18-.73-.91-1.36-2.01-1.88-3.3,0-.01,0-.02-.03-.02s-.02.01-.02.03c-.08.91-.21,1.79-.39,2.64s-.43,1.64-.74,2.36ZM126.42,58.25c0-.08-.04-.12-.12-.12h-1.59c-.08,0-.12.04-.12.12v2.12c0,.09.04.13.12.13h1.59c.08,0,.12-.04.12-.13v-2.12ZM129.46,62.38s0-.05,0-.08c-.02-.03-.04-.04-.07-.04h-3.14s-.04.01-.06.04c-.02.03-.02.05,0,.08.42,1.03.95,1.92,1.59,2.67.05.07.11.07.17,0,.64-.79,1.15-1.68,1.53-2.67Z" style="fill: #fff;"/>
      <path d="M142.71,66.45c0,.08.04.11.13.1l.75-.13c.06-.01.11-.02.17-.02.19,0,.37.07.53.2.2.16.31.37.33.63v.03c.02.28-.05.53-.22.75-.17.22-.4.36-.67.42-.79.14-1.89.35-3.32.61s-2.41.45-2.96.55c-.06.01-.12.02-.18.02-.19,0-.37-.06-.53-.18-.22-.14-.35-.35-.38-.61l-.03-.22c-.01-.06-.02-.11-.02-.15,0-.21.07-.4.2-.56.16-.22.37-.35.63-.4.07-.01.12-.02.15-.02.09-.01.13-.06.13-.15v-8.83c0-.28.09-.51.28-.7s.42-.28.7-.28.51.09.7.28.28.42.28.7v8.53c0,.08.04.11.13.1l1-.17c.08-.01.12-.06.12-.15v-11.82c0-.28.1-.51.29-.7.19-.19.42-.28.69-.28h.13c.28,0,.51.09.7.28s.28.42.28.7v3.9c0,.09.04.13.13.13h.83c.28,0,.51.09.7.28s.28.42.28.68-.09.5-.28.69c-.19.19-.42.29-.7.29h-.83c-.09,0-.13.04-.13.12v5.38ZM148,67.55h1.53c.22,0,.38-.13.47-.38.09-.25.16-.74.21-1.44.01-.22.12-.38.32-.48.1-.06.2-.08.3-.08.09,0,.18.02.28.07.03.02.07.04.12.07.27.12.48.3.65.55.12.19.18.39.18.61v.15c-.13,1.05-.37,1.8-.72,2.25-.35.45-.89.67-1.62.67h-2.06c-.93,0-1.56-.22-1.89-.65s-.5-1.25-.5-2.44v-11.46c0-.28.09-.51.28-.7s.42-.28.7-.28h.15c.27,0,.5.09.69.28.19.19.29.42.29.7v4.58s.01.06.03.07.04.01.07,0c.69-.45,1.32-.91,1.91-1.36.2-.16.43-.23.68-.23h.07c.28.02.51.13.7.32l.25.27c.16.16.23.34.23.55,0,.03,0,.07-.02.1-.02.25-.14.45-.37.58-1.06.66-2.21,1.29-3.45,1.88-.07.03-.1.09-.1.17v4.58c0,.46.04.76.11.89.07.13.25.19.52.19Z" style="fill: #fff;"/>
      <path d="M164.34,66.88c0,.09.04.13.13.13h5.48c.27,0,.5.1.69.29s.29.42.29.69v.02c0,.27-.1.5-.29.69-.19.19-.42.29-.69.29h-13.33c-.27,0-.5-.1-.69-.29s-.29-.42-.29-.69v-.02c0-.27.1-.5.29-.69.19-.19.42-.29.69-.29h5.46c.09,0,.13-.04.13-.13v-3.15c0-.09-.04-.13-.13-.13h-3.5c-.27,0-.5-.1-.69-.29-.19-.19-.29-.42-.29-.69s.1-.5.29-.69c.19-.19.42-.29.69-.29h3.5c.09,0,.13-.04.13-.13v-2.72c0-.09-.04-.13-.13-.13h-3.25c-.09,0-.16.04-.2.12-.32.6-.63,1.12-.93,1.56-.16.22-.37.35-.65.38-.06.01-.11.02-.15.02-.22,0-.42-.06-.6-.18-.06-.04-.11-.09-.17-.13-.21-.13-.34-.33-.38-.58-.01-.06-.02-.11-.02-.17,0-.18.06-.35.17-.51.41-.55.79-1.2,1.15-1.93.39-.8.71-1.62.98-2.46.08-.27.24-.47.48-.61.16-.1.33-.15.51-.15.08,0,.16.01.23.03l.17.03c.27.06.46.2.6.43.09.14.13.29.13.43,0,.1-.02.19-.05.28-.13.4-.29.85-.46,1.34-.01.03,0,.06,0,.08s.04.03.07.03h2.37c.08,0,.12-.04.12-.12v-1.96c0-.27.1-.5.29-.69s.42-.29.69-.29h.17c.27,0,.5.1.69.29.19.19.29.42.29.69v1.96c0,.08.04.12.13.12h4.62c.27,0,.5.1.69.29.19.19.29.42.29.69v.02c0,.27-.1.5-.29.69s-.42.29-.69.29h-4.62c-.09,0-.13.04-.13.13v2.72c0,.09.04.13.13.13h3.97c.27,0,.5.1.69.29s.29.42.29.69-.1.5-.29.69-.42.29-.69.29h-3.97c-.09,0-.13.04-.13.13v3.15Z" style="fill: #fff;"/>
      <path d="M178.02,60.01c.24.12.39.32.45.58.02.07.03.14.03.22,0,.18-.06.34-.17.5l-.03.05c-.14.22-.35.36-.61.42-.08.02-.16.03-.23.03-.18,0-.35-.05-.51-.15-.4-.24-.91-.54-1.53-.88-.22-.11-.35-.29-.4-.53-.02-.07-.03-.13-.03-.18,0-.17.06-.32.17-.46.16-.22.36-.37.61-.43.1-.02.19-.03.28-.03.17,0,.33.04.48.12.62.31,1.12.56,1.49.76ZM177.06,68.84c-.14.22-.34.35-.6.4h-.15c-.2,0-.38-.06-.53-.18l-.18-.15c-.21-.18-.34-.4-.38-.66-.01-.06-.02-.11-.02-.17,0-.21.06-.41.18-.6.79-1.17,1.53-2.4,2.22-3.69.12-.21.3-.34.55-.38.04-.01.09-.02.13-.02.19,0,.35.07.5.2l.03.03c.22.2.35.44.4.73.02.08.03.16.03.23,0,.2-.05.39-.15.58-.69,1.31-1.37,2.53-2.04,3.67ZM178.85,55.39c.23.13.38.33.43.58.01.07.02.13.02.2,0,.18-.06.35-.18.51l-.05.05c-.16.22-.37.35-.63.4-.07.01-.13.02-.2.02-.2,0-.39-.06-.56-.17-.35-.22-.84-.51-1.46-.86-.22-.12-.35-.3-.4-.55-.01-.06-.02-.11-.02-.17,0-.18.06-.34.17-.48.17-.21.38-.35.65-.42.09-.01.17-.02.25-.02.18,0,.35.04.51.12.59.31,1.08.57,1.48.78ZM190.06,59.2c.19.19.28.42.28.68s-.09.49-.28.68-.42.28-.68.28h-3.22c-.09,0-.13.04-.13.13v1.89c0,.08.04.12.13.12h2.36c.27,0,.5.1.69.29.19.19.29.42.29.69v4.85c0,.27-.09.49-.28.68s-.42.28-.68.28h-.42c-.16,0-.29-.05-.39-.16-.11-.1-.16-.23-.16-.39,0-.04-.02-.07-.07-.07h-4.96c-.06,0-.08.03-.08.08,0,.17-.06.31-.18.43s-.27.18-.43.18h-.3c-.24,0-.46-.09-.64-.27s-.27-.39-.27-.65v-4.98c0-.27.1-.5.29-.69s.42-.29.69-.29h2.37c.08,0,.12-.04.12-.12v-1.89c0-.09-.04-.13-.12-.13h-3.44c-.27,0-.49-.09-.68-.28s-.28-.42-.28-.68.09-.49.28-.68.42-.28.68-.28h3.44c.08,0,.12-.04.12-.13v-1.74c0-.08-.04-.11-.12-.1-.67.1-1.44.19-2.29.28h-.1c-.21,0-.4-.06-.58-.18-.21-.16-.36-.36-.45-.61-.02-.08-.03-.16-.03-.25,0-.12.03-.24.1-.37.11-.2.28-.31.51-.33,2.48-.29,4.51-.68,6.09-1.18.17-.06.33-.08.5-.08.12,0,.24.02.37.05.3.07.55.21.75.42l.2.2c.12.12.18.26.18.42,0,.06,0,.11-.02.17-.06.22-.19.37-.4.43-.79.25-1.68.48-2.67.66-.08.01-.12.06-.12.15v2.08c0,.09.04.13.13.13h3.22c.27,0,.49.09.68.28ZM187.45,67.33c.08,0,.12-.04.12-.13v-2.26c0-.08-.04-.12-.12-.12h-4.86c-.09,0-.13.04-.13.12v2.26c0,.09.04.13.13.13h4.86Z" style="fill: #fff;"/>
      <path d="M204.42,56.47s0,.06.02.08.04.03.07.03h3.7c.27,0,.49.1.68.3.19.18.28.39.28.65,0,2.73-.13,5.48-.4,8.23-.14,1.53-.38,2.51-.71,2.94-.22.3-.46.51-.71.65s-.56.23-.92.3c-.32.04-.76.07-1.33.07-.11,0-.23,0-.37-.02-.28,0-.52-.09-.73-.28s-.36-.42-.45-.7c-.01-.04-.03-.09-.05-.13-.02-.08-.03-.15-.03-.22,0-.12.03-.24.1-.35.11-.17.27-.25.46-.25h.03c.45.02.97.03,1.56.03.3,0,.55-.09.75-.28.23-.27.42-1.07.55-2.42s.25-3.54.35-6.56c0-.08-.04-.12-.13-.12h-3.39c-.08,0-.13.04-.17.12-.28.62-.58,1.21-.91,1.76-.13.22-.33.35-.6.38-.06.01-.11.02-.17.02-.2,0-.38-.06-.55-.18-.12-.09-.27-.18-.43-.28-.02-.02-.04-.03-.07,0-.02.02-.03.04-.03.06v6.84c0,.27-.1.5-.29.69s-.42.29-.69.29h-3.44c-.09,0-.13.04-.13.12v.2c0,.25-.09.47-.27.65s-.39.27-.65.27-.47-.09-.65-.27-.27-.39-.27-.65v-10.72c0-.28.09-.51.28-.7s.42-.28.7-.28h.81c.09,0,.14-.04.15-.13.14-.53.26-1.08.35-1.64.04-.27.17-.48.38-.65.17-.13.35-.2.56-.2.04,0,.09,0,.15.02l.27.03c.25.03.45.16.58.38.08.13.12.27.12.4,0,.09-.02.18-.05.28-.18.51-.35.97-.51,1.39-.01.02,0,.05,0,.08.02.03.04.04.07.04h1.53c.27,0,.5.09.69.28.19.19.29.42.29.7v1.64s0,.04.03.04c.02,0,.03,0,.04-.02.79-1.16,1.44-2.63,1.98-4.42.08-.27.23-.47.46-.61.16-.1.32-.15.5-.15.08,0,.16.01.25.03.27.07.47.21.61.43.09.16.13.31.13.46,0,.09-.02.18-.05.27-.09.32-.21.69-.37,1.1ZM198.88,61.24c.08,0,.12-.04.12-.13v-2.49c0-.09-.04-.13-.12-.13h-2.46c-.09,0-.13.04-.13.13v2.49c0,.09.04.13.13.13h2.46ZM196.29,66.2c0,.08.04.12.13.12h2.46c.08,0,.12-.04.12-.12v-3.09c0-.09-.04-.13-.12-.13h-2.46c-.09,0-.13.04-.13.13v3.09ZM205.87,63.5c.1.17.15.33.15.5,0,.09-.01.17-.03.25-.07.27-.22.47-.46.61l-.05.03c-.14.09-.29.13-.45.13-.09,0-.18-.01-.27-.03-.24-.08-.43-.23-.56-.46-.37-.64-.84-1.41-1.41-2.29-.09-.14-.13-.3-.13-.46,0-.07,0-.13.02-.2.06-.24.19-.43.4-.55.17-.09.33-.13.5-.13.08,0,.16,0,.23.02.24.06.44.19.6.4.61.86,1.1,1.59,1.48,2.19Z" style="fill: #fff;"/>
      <path d="M218.15,56.79c.22,0,.41.08.56.23s.23.34.23.56-.08.41-.23.56-.34.23-.56.23h-4.42c-.22,0-.41-.08-.56-.23s-.23-.34-.23-.56.08-.41.23-.56.34-.23.56-.23h4.42ZM217.46,63.83c.27,0,.5.09.69.28.19.19.29.42.29.7v3.15c0,.27-.1.5-.29.69s-.42.29-.69.29h-2.09c-.06,0-.08.02-.08.07,0,.17-.06.31-.17.43s-.26.18-.42.18h-.23c-.22,0-.41-.08-.57-.24-.16-.16-.24-.36-.24-.59v-3.98c0-.28.09-.51.28-.7s.42-.28.7-.28h2.84ZM227.48,60.96s-.03,0-.03.02v3.09c0,.28-.09.51-.28.7s-.42.28-.7.28h-.8s-.02,0-.02.02,0,.02.02.02l.28.07c.25.06.44.19.55.42.07.13.1.26.1.38,0,.11-.02.22-.07.32-.19.46-.37.86-.53,1.2-.01.02,0,.05,0,.07.02.03.04.04.07.04h1.58c.23,0,.43.08.61.25.17.17.26.37.26.61s-.09.45-.26.61c-.17.17-.37.25-.61.25h-7.77c-.24,0-.45-.08-.62-.25-.17-.17-.26-.37-.26-.61s.09-.45.26-.61c.17-.17.38-.25.62-.25h1.33c.09,0,.12-.04.1-.13-.07-.35-.18-.74-.33-1.15-.03-.1-.05-.21-.05-.32,0-.13.03-.27.08-.4.11-.23.29-.38.55-.45l.18-.05s.02,0,.02-.02,0-.02-.02-.02h-.78c-.28,0-.51-.09-.7-.28s-.28-.42-.28-.7v-2.97s0-.02-.02-.03-.04-.01-.06,0c-.11.08-.23.12-.37.12-.06,0-.11,0-.17-.02-.2-.04-.36-.16-.48-.33-.16-.22-.31-.43-.46-.61-.01-.01-.02-.01-.03,0-.01,0-.02.01-.02.02,0,.13-.04.24-.13.33s-.2.13-.33.13h-3.47c-.21,0-.39-.08-.54-.22-.15-.15-.22-.33-.22-.55s.08-.4.22-.55c.15-.15.33-.22.54-.22h3.32c.18,0,.32.06.44.18s.17.27.17.43c0,.02,0,.04.03.04.02,0,.04,0,.06,0,.55-.33,1.07-.76,1.54-1.29.06-.07.06-.13,0-.18-.13-.12-.27-.24-.42-.37-.18-.16-.27-.35-.27-.58,0-.18.06-.33.18-.46.16-.18.34-.28.56-.3.04-.01.08-.02.12-.02.19,0,.35.06.5.17.09.07.17.13.25.18.07.06.12.04.17-.03.13-.25.25-.5.35-.75.01-.03,0-.06,0-.08s-.04-.03-.08-.03h-1.31c-.21,0-.39-.08-.54-.23s-.22-.34-.22-.55.08-.39.22-.55.33-.23.54-.23h2.19l.13-.02c.08-.02.16-.02.25.02h.03s.02,0,.02.02l.1.05c.24.09.43.24.56.46.08.14.12.29.12.45,0,.09-.02.18-.05.27-.29.99-.67,1.89-1.15,2.71-.01.02-.01.04,0,.07s.03.03.05.03h2.81s.04-.01.06-.03.01-.04,0-.07c-.53-.92-.97-2.01-1.33-3.29-.02-.08-.03-.15-.03-.22,0-.14.04-.28.13-.42.12-.21.3-.34.55-.38.06-.01.11-.02.17-.02.18,0,.34.05.5.15.21.13.35.32.42.56.03.09.06.18.08.27.03.09.08.11.15.05.13-.11.27-.22.4-.33.16-.13.33-.2.51-.2h.03c.2,0,.37.08.51.23.11.11.17.24.17.4,0,.03,0,.07-.02.1-.02.19-.12.33-.28.43-.39.23-.67.4-.86.5-.08.04-.09.11-.05.18.11.24.22.44.32.6.04.07.1.07.17.02.16-.13.3-.26.45-.38.17-.14.35-.22.55-.22h.03c.22.01.4.09.55.25.12.12.18.27.18.43,0,.03,0,.07-.02.1-.02.2-.12.35-.3.46-.1.06-.23.13-.39.22-.16.09-.26.16-.31.19-.08.04-.09.09-.03.15.27.29.54.54.81.76.19.14.3.34.33.58v.12c0,.2-.06.38-.18.53-.16.19-.29.37-.42.55-.06.08-.13.13-.22.15s-.18.01-.27-.03ZM217.64,61.47c.21,0,.39.07.53.22.14.15.22.33.22.54s-.07.39-.22.53-.32.22-.53.22h-3.2c-.2,0-.37-.07-.52-.22s-.22-.32-.22-.53.08-.39.22-.54c.15-.15.32-.22.52-.22h3.2ZM217.59,54.5c.21,0,.39.07.54.22.15.15.22.33.22.55s-.07.4-.22.55c-.15.15-.33.22-.54.22h-3.04c-.21,0-.39-.08-.54-.22-.15-.15-.22-.33-.22-.55s.08-.4.22-.55c.15-.15.33-.22.54-.22h3.04ZM216.78,65.52c0-.08-.04-.12-.12-.12h-1.25c-.09,0-.13.04-.13.12v1.71c0,.09.04.13.13.13h1.25c.08,0,.12-.04.12-.13v-1.71ZM222.1,60.11c-.16,0-.29-.05-.4-.16-.11-.1-.17-.23-.17-.39,0-.01,0-.02-.02-.02-.01,0-.02,0-.03,0-.37.45-.77.86-1.21,1.23-.02.01-.03.03-.02.04.01.02.03.03.05.03h6.91s.02,0,.03-.03c.01-.02,0-.03-.02-.04-.56-.42-1.05-.9-1.46-1.44,0-.01,0-.01-.02,0-.02,0-.03.01-.03.03,0,.21-.07.39-.22.54-.15.15-.33.22-.54.22h-2.86ZM221.94,62.4c-.09,0-.13.04-.13.12v.88c0,.08.04.12.13.12h3.44c.09,0,.13-.04.13-.12v-.88c0-.08-.04-.12-.13-.12h-3.44ZM225.11,67.56s.02,0,.02-.02,0-.02-.02-.02c-.23-.06-.4-.19-.51-.4-.07-.12-.1-.25-.1-.38,0-.09.02-.18.05-.28.18-.51.32-.94.42-1.29.01-.03,0-.06-.02-.09-.02-.03-.05-.04-.08-.04h-2.34s-.06.01-.07.04c-.02.03-.02.05,0,.07.2.4.37.82.51,1.28.02.09.03.18.03.27,0,.13-.04.27-.12.42-.12.21-.3.35-.55.42,0,.02,0,.03.02.03h2.77Z" style="fill: #fff;"/>
      <path d="M238.72,64.31c0,.27-.09.5-.28.69-.19.19-.42.29-.7.29h-2.96c-.09,0-.13.04-.13.12v.4c0,.27-.09.49-.27.67-.18.18-.4.27-.66.27s-.47-.09-.66-.27c-.18-.18-.27-.41-.27-.67v-9.93c0-.27.09-.5.28-.69.19-.19.42-.29.7-.29h3.97c.28,0,.51.1.7.29.19.19.28.42.28.69v8.43ZM236.85,56.86c0-.08-.04-.12-.12-.12h-1.94c-.09,0-.13.04-.13.12v2.14c0,.09.04.13.13.13h1.94c.08,0,.12-.04.12-.13v-2.14ZM234.66,63.33c0,.08.04.12.13.12h1.94c.08,0,.12-.04.12-.12v-2.27c0-.09-.04-.13-.12-.13h-1.94c-.09,0-.13.04-.13.13v2.27ZM246.58,54.66c.27,0,.5.09.69.28.19.19.29.42.29.7v11.89c0,.54-.07.96-.2,1.25-.13.29-.37.52-.7.69-.44.2-1.13.32-2.08.35h-.05c-.25,0-.49-.08-.7-.25-.23-.18-.4-.4-.5-.68-.01-.03-.02-.07-.03-.12-.03-.08-.05-.16-.05-.25,0-.11.03-.22.1-.33.12-.19.29-.28.5-.28h.48c.33,0,.6,0,.8-.02.16,0,.26-.03.32-.08.06-.06.09-.16.09-.3v-2.87c0-.08-.04-.12-.13-.12h-3.74c-.09,0-.14.04-.17.12-.43,1.98-1.25,3.55-2.46,4.7-.19.17-.4.25-.65.25h-.07c-.28-.02-.52-.13-.73-.32l-.05-.05c-.19-.17-.28-.38-.28-.63,0-.23.08-.43.25-.6.52-.49.95-1.03,1.28-1.64.33-.6.57-1.24.72-1.91.15-.67.25-1.28.3-1.82s.07-1.16.07-1.86v-5.13c0-.28.09-.51.28-.7s.42-.28.7-.28h5.69ZM241.81,62.58c-.01.08.03.12.12.12h3.49c.09,0,.13-.04.13-.13v-1.93c0-.08-.04-.12-.13-.12h-3.4c-.08,0-.12.04-.12.12v.13c0,.69-.03,1.29-.08,1.81ZM245.55,56.66c0-.09-.04-.13-.13-.13h-3.4c-.08,0-.12.04-.12.13v1.93c0,.08.04.12.12.12h3.4c.09,0,.13-.04.13-.12v-1.93Z" style="fill: #fff;"/>
      <path d="M255.1,59.18c1.53,0,2.75,1.24,2.75,2.75s-1.22,2.75-2.75,2.75-2.75-1.24-2.75-2.75,1.24-2.75,2.75-2.75ZM255.1,63.46c.85,0,1.53-.68,1.53-1.53s-.68-1.53-1.53-1.53-1.53.68-1.53,1.53.7,1.53,1.53,1.53Z" style="fill: #fff;"/>
    </g>
  </g>
</svg>