<?xml version="1.0" encoding="UTF-8"?>
<svg id="_圖層_2" data-name="圖層 2" xmlns="http://www.w3.org/2000/svg" width="437.56" height="282.65" viewBox="0 0 437.56 282.65">
  <g id="_設計" data-name="設計">
    <g>
      <g>
        <path d="M20.38,198.25c-.67-.74-1.9-1.8-3.1-2.78-.48.79-1.01,1.49-1.61,2.06-.41-.34-1.2-.86-1.87-1.22,2.14,2.83,5.57,5.38,9.17,6.7-.7.6-1.63,1.82-2.11,2.62-2.9-1.34-5.62-3.5-7.78-6.07v6.98h-3v-6.84c-2.16,2.52-4.85,4.61-7.71,5.93-.46-.7-1.39-1.85-2.02-2.45,3.89-1.51,7.63-4.49,9.72-7.73v-5.54H1.34v-2.81h8.74v-2.95h3v2.95h9.05v2.81h-9.05v5.38c.12.19.24.36.36.55,1.54-1.37,2.54-3.5,3.02-5.78l2.78.5c-.22.89-.48,1.75-.79,2.57,1.37,1.06,3.02,2.33,3.91,3.14l-1.99,1.99ZM8.02,190.56c-.24.89-.53,1.75-.86,2.59.86.74,1.78,1.54,2.33,2.11l-1.92,1.99c-.36-.46-.96-1.06-1.61-1.68-.79,1.3-1.7,2.42-2.76,3.29-.46-.5-1.58-1.44-2.21-1.87,2.11-1.51,3.58-4.03,4.25-6.96l2.78.53Z" style="fill: #fff;"/>
        <path d="M40.58,193.68c-.17.34-.36.65-.55.98h11.23v11.93h-2.88v-.86h-8.69v.86h-2.74v-7.9c-1.08,1.08-2.3,2.06-3.7,2.88-.41-.67-1.25-1.73-1.8-2.3,2.5-1.34,4.42-3.34,5.86-5.59h-5.11v-2.26h6.31c.17-.34.31-.7.46-1.03h-5.09v-2.16h5.86c.1-.34.19-.67.26-1.03-1.99.07-3.98.1-5.86.07-.02-.62-.29-1.56-.53-2.14,5.86,0,12.79-.29,16.83-.96l1.68,2.04c-2.54.43-5.69.7-8.98.86-.1.38-.22.77-.34,1.15h9.41v2.16h-10.18c-.12.34-.26.7-.41,1.03h11.88v2.26h-12.94ZM48.39,196.83h-8.69v1.03h8.69v-1.03ZM48.39,199.64h-8.69v1.06h8.69v-1.06ZM48.39,203.57v-1.1h-8.69v1.1h8.69Z" style="fill: #fff;"/>
        <path d="M71.78,193.68c-.17.34-.36.65-.55.98h11.23v11.93h-2.88v-.86h-8.69v.86h-2.74v-7.9c-1.08,1.08-2.3,2.06-3.7,2.88-.41-.67-1.25-1.73-1.8-2.3,2.5-1.34,4.42-3.34,5.86-5.59h-5.11v-2.26h6.31c.17-.34.31-.7.46-1.03h-5.09v-2.16h5.86c.1-.34.19-.67.26-1.03-1.99.07-3.98.1-5.86.07-.02-.62-.29-1.56-.53-2.14,5.86,0,12.79-.29,16.83-.96l1.68,2.04c-2.54.43-5.69.7-8.98.86-.1.38-.21.77-.34,1.15h9.41v2.16h-10.18c-.12.34-.26.7-.41,1.03h11.88v2.26h-12.94ZM79.58,196.83h-8.69v1.03h8.69v-1.03ZM79.58,199.64h-8.69v1.06h8.69v-1.06ZM79.58,203.57v-1.1h-8.69v1.1h8.69Z" style="fill: #fff;"/>
        <path d="M101.81,185.04c-.65,1.7-1.46,3.43-2.38,5.11v16.32h-2.74v-12.1c-.5.65-1.01,1.22-1.49,1.75-.26-.7-1.06-2.28-1.56-2.98,2.18-2.16,4.27-5.54,5.47-8.98l2.69.86ZM112.2,203.74c1.42,0,1.68-.6,1.85-3.29.65.43,1.78.89,2.52,1.06-.36,3.58-1.2,4.78-4.15,4.78h-5.45c-3.34,0-4.3-.86-4.3-4.2v-6.72l-1.82.72-1.08-2.52,2.9-1.13v-5.67h2.69v4.58l2.4-.94v-6.22h2.57v5.21l3.22-1.25.24-.17,2.14.65-.1.46c-.12,3.43-.43,7.94-.96,10.92l-2.35-.67c.26-2.02.43-5.18.53-8.11l-2.71,1.1v8.5h-2.57v-7.51l-2.4.98v7.78c0,1.42.24,1.66,1.82,1.66h5.02Z" style="fill: #fff;"/>
        <path d="M138.79,194.52h-4.13v11.93h-2.64v-21.03c-.48,1.37-1.03,2.78-1.66,4.15v16.92h-2.71v-12c-.48.72-.98,1.39-1.49,1.97-.22-.67-.91-2.33-1.37-3.07,1.94-2.23,3.7-5.74,4.75-9.26l2.64.79-.14.46h6.75v9.14ZM134.67,187.54v1.37h1.97v-1.37h-1.97ZM136.63,192.36v-1.42h-1.97v1.42h1.97ZM147,203.19c0,1.58-.34,2.35-1.3,2.76-.98.46-2.5.53-4.75.53-.1-.79-.55-2.04-.91-2.76,1.46.1,3.12.07,3.6.05.46,0,.62-.14.62-.6v-8.64h-4.39v-9.14h7.13v17.81ZM142.13,187.54v1.37h2.14v-1.37h-2.14ZM144.27,192.36v-1.42h-2.14v1.42h2.14Z" style="fill: #fff;"/>
        <path d="M156.7,204.41c.82-1.56,1.66-3.82,2.11-5.66l2.52,1.01c-.5,1.8-1.22,4.25-1.95,5.88l-2.69-1.22ZM162.89,188.93c-1.06,2.02-2.35,3.79-3.72,5.09-.48-.53-1.66-1.54-2.35-1.99,2.21-1.82,4.01-4.8,4.92-7.97l2.9.67c-.19.58-.41,1.18-.62,1.75h13.99v2.45h-10.25v1.37h8.88v2.23h-8.88v1.44h9.53v2.33h-9.53v1.13c1.2.91,2.79,2.09,3.58,2.86l-1.87,1.99c-.82-.89-2.62-2.35-3.89-3.38l.84-.82h-1.54v-9.14h-1.99ZM176.09,205.57c-.26-.82-.7-1.97-1.18-3.14-.36,2.98-1.25,3.75-3.86,3.75h-4.75c-3.43,0-4.3-.82-4.3-3.34v-3.77h2.83v3.72c0,.72.26.84,1.7.84h4.3c1.15,0,1.37-.31,1.49-2.26.6.43,1.78.84,2.57,1.01-.46-1.08-.94-2.18-1.34-3.14l2.69-.74c.96,1.97,2.21,4.54,2.79,6.17l-2.93.91Z" style="fill: #fff;"/>
        <path d="M192.05,188.36v4.13c0,3.91-.34,10.08-2.11,13.97-.48-.5-1.7-1.42-2.28-1.68,1.56-3.58,1.68-8.71,1.68-12.29v-6.6h9c-.12-.5-.26-1.03-.38-1.44l2.88-.53c.24.6.48,1.34.65,1.97h8.18v2.47h-17.62ZM194.76,193.85c0,1.22-.17,2.69-1.25,3.72-.29-.34-.96-.89-1.37-1.1.91-.67,1.06-1.87,1.06-2.69v-.94h1.56v1.01ZM205.71,200.45c1.25,1.42,2.98,3.43,3.89,4.66l-2.18,1.15c-.24-.36-.55-.79-.89-1.25-11.31.82-12.62.84-13.51,1.13-.1-.46-.43-1.63-.67-2.28.82-.12,1.63-.43,2.86-1.06.53-.22,1.54-.7,2.71-1.37-3.07.19-3.65.31-4.06.46-.1-.43-.41-1.51-.65-2.11.46-.05.98-.29,1.56-.6.62-.31,2.57-1.39,4.03-2.69-.53-.22-.65-.7-.65-1.54v-2.02h1.51v2.04c0,.36.02.48.26.48.19,0,.55,0,.77-.07.02.24.02.48.05.74.82-.67.96-1.68.96-2.42v-.91h1.56v.98c0,1.15-.17,2.54-1.27,3.53-.26-.34-.84-.79-1.25-1.03l.02.24c-.19.07-.53.1-.84.1h-.46l1.46.94c-1.18.86-2.5,1.7-3.79,2.38l3.58-.17c1.1-.7,2.21-1.44,3.19-2.26l2.11,1.42c-2.5,1.8-5.14,3.36-7.73,4.58l6.75-.46c-.48-.55-.96-1.13-1.37-1.63l2.04-.96ZM195.41,197.12v-5.02h-2.62v-2.14h2.62v-1.1h2.14v1.1h2.9v2.14h-2.9v5.02h-2.14ZM203.95,197.17v-5.06h-2.88v-2.14h2.88v-1.1h2.14v1.1h3.41v2.14h-3.41v5.06h-2.14ZM208.97,195.77c.24,0,.7-.02.94-.1.02.36.05.82.1,1.2-.22.07-.62.1-.98.1h-.84c-1.25,0-1.46-.55-1.46-1.75v-2.4h1.61v2.42c0,.38.02.53.31.53h.34Z" style="fill: #fff;"/>
        <path d="M234.77,197.74c-.19,1.49-.6,2.9-1.32,4.18,2.21,1.06,4.97,1.73,8.21,2.02-.6.62-1.34,1.8-1.7,2.54-3.24-.41-5.98-1.25-8.21-2.52-1.15,1.06-2.78,1.94-4.92,2.57-.36-.62-1.2-1.78-1.78-2.38,1.92-.43,3.34-1.06,4.37-1.85-1.18-.98-2.14-2.21-2.95-3.58l2.33-.72c.58.94,1.34,1.75,2.23,2.47.48-.86.74-1.75.89-2.74h-5.35v-7.01h5.52v-1.68h-6.02v-2.21c-.43.91-.91,1.85-1.44,2.76v16.97h-2.71v-12.89c-.65.82-1.3,1.58-1.97,2.26-.26-.7-1.03-2.23-1.51-2.93,2.28-2.16,4.51-5.54,5.81-8.95l2.64.86c-.21.5-.43,1.01-.65,1.54h5.86v-2.18h2.83v2.18h6.36v2.59h-6.36v1.68h5.71v7.01h-5.86ZM232.08,195.44v-2.38h-2.95v2.38h2.95ZM234.91,193.06v2.38h2.98v-2.38h-2.98Z" style="fill: #fff;"/>
        <path d="M270.84,203.14c0,1.54-.34,2.3-1.3,2.74-.98.48-2.45.53-4.61.5-.1-.77-.55-1.99-.91-2.74,1.34.07,2.93.05,3.36.05.46,0,.62-.14.62-.58v-3.6h-5.06v6.7h-2.88v-6.7h-4.9c-.43,2.62-1.3,5.26-3.02,7.13-.46-.53-1.61-1.51-2.26-1.85,2.62-2.88,2.83-7.15,2.83-10.51v-8.57h18.12v17.43ZM260.07,196.83v-2.95h-4.51v.43c0,.77-.02,1.63-.07,2.52h4.58ZM255.55,188.43v2.78h4.51v-2.78h-4.51ZM268.01,188.43h-5.06v2.78h5.06v-2.78ZM268.01,196.83v-2.95h-5.06v2.95h5.06Z" style="fill: #fff;"/>
        <path d="M281.76,195.48c0-5.78,3.24-9.14,7.94-9.14s7.95,3.38,7.95,9.14-3.24,9.29-7.95,9.29-7.94-3.53-7.94-9.29ZM294.02,195.48c0-3.82-1.68-6.1-4.32-6.1s-4.32,2.28-4.32,6.1,1.68,6.22,4.32,6.22,4.32-2.42,4.32-6.22Z" style="fill: #fff;"/>
        <path d="M302.4,197.74c0-4.49,3.1-7.08,6.46-7.08s6.46,2.59,6.46,7.08-3.1,7.03-6.46,7.03-6.46-2.59-6.46-7.03ZM311.71,197.74c0-2.54-1.03-4.2-2.86-4.2s-2.86,1.66-2.86,4.2,1.03,4.15,2.86,4.15,2.86-1.63,2.86-4.15Z" style="fill: #fff;"/>
        <path d="M320.66,200.67v-15.38h3.5v15.55c0,.79.38,1.06.72,1.06.14,0,.24,0,.48-.05l.43,2.62c-.41.17-1.01.31-1.82.31-2.45,0-3.31-1.61-3.31-4.1Z" style="fill: #fff;"/>
        <path d="M329.95,200.79c0-2.88,2.33-4.39,7.73-4.97-.05-1.32-.62-2.33-2.28-2.33-1.25,0-2.45.55-3.7,1.27l-1.27-2.33c1.58-.98,3.5-1.78,5.62-1.78,3.41,0,5.16,2.04,5.16,5.93v7.85h-2.88l-.26-1.44h-.07c-1.18,1.01-2.52,1.78-4.06,1.78-2.4,0-3.98-1.7-3.98-3.98ZM337.68,200.69v-2.71c-3.26.43-4.37,1.32-4.37,2.52,0,1.06.74,1.51,1.78,1.51s1.75-.48,2.59-1.32Z" style="fill: #fff;"/>
        <path d="M350.35,203.02h-.07l-.31,1.42h-2.76v-19.15h3.5v4.82l-.07,2.16c1.06-.96,2.4-1.61,3.72-1.61,3.31,0,5.3,2.71,5.3,6.82,0,4.63-2.76,7.3-5.71,7.3-1.2,0-2.5-.62-3.6-1.75ZM356.04,197.55c0-2.57-.82-3.98-2.66-3.98-.91,0-1.73.46-2.66,1.39v5.9c.84.74,1.73,1.01,2.45,1.01,1.63,0,2.88-1.39,2.88-4.32Z" style="fill: #fff;"/>
        <path d="M366.67,202.3c0-1.37,1.08-2.38,2.5-2.38s2.5,1.01,2.5,2.38-1.08,2.35-2.5,2.35-2.5-.96-2.5-2.35ZM367.08,190.06l-.1-3.58h4.39l-.12,3.58-.84,8.21h-2.47l-.86-8.21Z" style="fill: #fff;"/>
        <path d="M19.27,236.25c-.07,1.01-.12,1.85-.19,2.62h2.69v2.5h-2.98c-.17,1.01-.36,1.61-.62,1.97-.53.77-1.18,1.01-1.99,1.13-.77.12-1.99.12-3.19.05-.02-.62-.34-1.56-.7-2.18,1.08.1,2.02.12,2.52.1.41,0,.62-.05.84-.38.1-.14.19-.34.29-.67H3.02c.29-1.42.58-3.22.86-5.11H.58v-2.54h3.67c.19-1.44.36-2.93.5-4.25-.6.72-1.18,1.42-1.78,2.02-.6-.46-1.85-1.3-2.57-1.66,2.21-1.85,4.3-4.87,5.52-7.83l2.83.82c-.22.48-.46.98-.7,1.49h13.85v2.54H6.58c-.41.65-.82,1.25-1.25,1.85h14.21s-.02.91-.02,1.25c-.05,1.39-.1,2.62-.14,3.77h3.46v2.54h-3.55ZM6.75,236.15c-.14.96-.26,1.85-.41,2.71h5.26c-.84-.65-1.9-1.32-2.86-1.78l.96-.94h-2.95ZM7.39,231.18c-.1.86-.22,1.73-.34,2.62h4.78c-.84-.62-1.85-1.25-2.78-1.66l.98-.96h-2.64ZM16.3,238.86c.05-.77.12-1.63.17-2.71h-4.99c1.1.6,2.16,1.32,2.81,1.9l-.82.82h2.83ZM16.56,233.8c.05-.82.07-1.66.1-2.62h-4.87c1.06.55,2.09,1.25,2.74,1.8l-.82.82h2.86Z" style="fill: #fff;"/>
        <path d="M53.93,231.54v3.1h-22.08v-3.1h22.08Z" style="fill: #fff;"/>
        <path d="M70.54,223.04c-.65,1.66-1.42,3.36-2.3,4.99v16.44h-2.81v-12.1c-.5.65-1.01,1.22-1.51,1.78-.26-.72-1.03-2.28-1.54-2.98,2.16-2.16,4.27-5.57,5.47-9l2.69.86ZM81.1,222.8c.67,2.88,2.26,5.74,4.34,7.3-.53.67-1.37,2.11-1.75,3.05-.34-.31-.65-.62-.94-.96-.02.26-.02.6-.02.79-.29,6.75-.55,9.36-1.25,10.22-.48.67-1.01.89-1.73,1.01-.62.12-1.61.14-2.69.1-.07-.79-.34-1.9-.74-2.59.82.1,1.56.1,1.97.1.34,0,.53-.07.74-.34.38-.5.62-2.33.84-7.01h-3.03c-.62,4.82-2.28,7.97-5.78,9.94-.34-.55-1.32-1.63-1.9-2.11,3.05-1.44,4.44-4.03,4.9-7.83h-2.21v-2.47c-.31.36-.65.7-.98,1.01-.34-.65-1.25-2.02-1.75-2.64,1.95-1.66,3.46-4.3,4.27-7.18l2.81.72c-.89,2.98-2.35,5.83-4.2,7.92h10.44c-1.49-1.8-2.71-4.08-3.5-6.29h-2.14v-2.74h4.3Z" style="fill: #fff;"/>
        <path d="M115.54,222.9v21.6h-3.12v-1.27h-14.42v1.27h-2.98v-21.6h20.52ZM112.42,240.57v-14.74h-14.42v14.74h14.42ZM110.09,228.66v9.12h-9.79v-9.12h9.79ZM107.21,231.16h-4.22v4.15h4.22v-4.15Z" style="fill: #fff;"/>
        <path d="M128.59,227.12c-.79.72-1.58,1.39-2.42,1.94-.17-.55-.77-1.94-1.1-2.57,1.82-1.08,3.74-2.83,4.78-4.7l2.23.82c-.12.24-.26.43-.38.67,1.13.53,2.47,1.18,3.19,1.61l-1.15,2.21c-.77-.5-2.18-1.27-3.41-1.87-.38.46-.79.94-1.22,1.39h3.72v1.87h-4.22v-1.37ZM144.17,240.42c1.37.91,2.83,1.92,3.7,2.67l-2.14,1.42c-.91-.84-2.59-2.18-3.98-3.1l1.15-.98h-4.66l2.4.77c-.98,1.32-2.62,2.62-4.1,3.36-.41-.48-1.27-1.34-1.82-1.82l.05.1-2.06,1.03c-.17-.48-.41-1.06-.67-1.7-4.27,1.58-5.02,1.92-5.52,2.33-.12-.65-.53-1.8-.91-2.35.46-.19.96-.55.96-1.44v-11.33h7.39v8.59h-4.97v2.95l2.14-.72c-.19-.43-.41-.82-.6-1.2l1.94-.84c.74,1.44,1.73,3.31,2.23,4.49,1.27-.55,2.59-1.32,3.36-2.21h-2.42v-9.1h10.9v9.1h-2.35ZM128.98,231.42v1.22h2.47v-1.22h-2.47ZM131.45,235.91v-1.3h-2.47v1.3h2.47ZM139.85,227.77h-4.32v-4.32h4.32v-1.34h2.59v1.34h4.3v4.32h-4.3v.79h5.23v2.02h-13.08v-2.02h5.26v-.79ZM139.85,226.14v-1.08h-1.99v1.08h1.99ZM138.17,233.84h5.69v-.91h-5.69v.91ZM138.17,236.32h5.69v-.94h-5.69v.94ZM138.17,238.81h5.69v-.98h-5.69v.98ZM142.44,225.06v1.08h1.85v-1.08h-1.85Z" style="fill: #fff;"/>
        <path d="M158.88,236.65c1.87-.6,2.95-1.63,3.1-2.9-.07.02-.17.02-.26.02-1.2,0-2.28-.77-2.28-2.14s1.08-2.16,2.35-2.16c1.7,0,2.59,1.27,2.59,3.29,0,2.71-1.75,4.94-4.73,5.81l-.77-1.92Z" style="fill: #fff;"/>
        <path d="M23.02,262.63c-.87,2.3-1.92,5.02-2.9,7.13,2.04,2.14,2.45,4.03,2.45,5.57,0,1.8-.38,2.98-1.34,3.6-.43.34-1.03.55-1.68.65-.55.07-1.34.07-2.09.02-.02-.77-.29-1.99-.72-2.76.58.05,1.08.07,1.51.05.36,0,.72-.07.96-.22.46-.26.62-.84.62-1.63,0-1.32-.55-3.07-2.47-4.92.7-1.73,1.51-4.15,2.11-6h-3.05v18.39h-2.81v-20.55c-.72,1.82-1.56,3.55-2.57,5.11h1.78v2.5h-3.58c-.5.62-1.01,1.18-1.54,1.75h4.32v10.83h-2.71v-.91h-3.87v1.22h-2.59v-7.27c-.41.26-.82.5-1.2.72-.31-.6-1.13-1.8-1.66-2.38,2.14-1.03,4.06-2.35,5.74-3.96H.62v-2.5h4.18v-1.97H1.66v-2.45h3.14v-2.33h2.64v2.33h2.47v1.22c.46-.84.82-1.75,1.18-2.69l2.52.7v-.46h6.91l.43-.1,2.06,1.3ZM9.31,273.57h-3.87v1.54h3.87v-1.54ZM9.31,278.95v-1.7h-3.87v1.7h3.87ZM7.92,267.07c.46-.62.89-1.27,1.32-1.97h-1.8v1.97h.48Z" style="fill: #fff;"/>
        <path d="M44.57,279.43c.62.05,1.27.07,1.92.07,1.34,0,5.95,0,7.66-.07-.38.65-.82,1.9-.96,2.74h-6.84c-4.39,0-7.37-.62-9.38-3.41-.86,1.58-1.97,2.86-3.36,3.82-.41-.53-1.51-1.58-2.16-1.99,2.45-1.51,3.91-4.06,4.46-7.27l2.86.43c-.17.77-.36,1.49-.55,2.18.74,1.63,1.92,2.52,3.46,3v-6.1h-9.36v-2.52h21.17v2.52h-8.9v1.8h7.39v2.47h-7.39v2.33ZM51.19,269.25h-16.68v-8.33h16.68v8.33ZM48.29,262.92h-10.99v1.22h10.99v-1.22ZM48.29,266.01h-10.99v1.25h10.99v-1.25Z" style="fill: #fff;"/>
        <path d="M84.1,271.48c-1.08,1.94-2.42,3.7-3.98,5.26.65,1.85,1.39,2.95,2.11,2.95.5,0,.79-1.15.91-3.98.62.67,1.58,1.32,2.35,1.63-.46,4.2-1.34,5.26-3.53,5.26-1.75,0-3.1-1.44-4.13-3.79-1.39,1.15-2.9,2.14-4.44,2.93-.41-.67-1.2-1.66-1.9-2.3,1.85-.84,3.7-2.02,5.35-3.38-.53-1.9-.94-4.08-1.22-6.43h-4.87v2.74c1.22-.22,2.47-.46,3.7-.67l.22,2.59-3.91.79v4.1c0,1.56-.34,2.33-1.3,2.78-.94.46-2.38.58-4.32.55-.12-.79-.6-2.09-1.01-2.88,1.34.07,2.74.05,3.17.02.43,0,.58-.12.58-.5v-3.48c-1.54.31-3.02.62-4.3.86l-.7-2.88c1.37-.22,3.1-.48,4.99-.82v-3.22h-4.54v-2.71h4.54v-2.74c-1.3.22-2.62.38-3.84.53-.12-.7-.5-1.75-.82-2.4,3.36-.46,7.08-1.22,9.53-2.02l1.92,2.42c-1.2.36-2.52.67-3.91.96v3.24h4.61c-.19-2.16-.26-4.39-.29-6.58h3c-.05,2.23.05,4.46.24,6.58h6.53v2.71h-6.24c.19,1.44.43,2.83.7,4.06.86-1.03,1.66-2.11,2.28-3.26l2.52,1.08ZM82.35,266.2c-.62-1.1-2.11-2.81-3.41-3.96l2.16-1.46c1.27,1.1,2.86,2.69,3.55,3.82l-2.3,1.61Z" style="fill: #fff;"/>
        <path d="M107.59,270.52h-4.13v11.93h-2.64v-21.03c-.48,1.37-1.03,2.78-1.66,4.15v16.92h-2.71v-12c-.48.72-.98,1.39-1.49,1.97-.21-.67-.91-2.33-1.37-3.07,1.94-2.23,3.7-5.74,4.75-9.26l2.64.79-.14.46h6.74v9.14ZM103.46,263.54v1.37h1.97v-1.37h-1.97ZM105.43,268.36v-1.42h-1.97v1.42h1.97ZM115.8,279.19c0,1.58-.34,2.35-1.3,2.76-.98.46-2.5.53-4.75.53-.1-.79-.55-2.04-.91-2.76,1.46.1,3.12.07,3.6.05.46,0,.62-.14.62-.6v-8.64h-4.39v-9.14h7.13v17.81ZM110.93,263.54v1.37h2.14v-1.37h-2.14ZM113.07,268.36v-1.42h-2.14v1.42h2.14Z" style="fill: #fff;"/>
        <path d="M133.94,262.05c-.65,2.02-1.44,4.44-2.11,6.24,1.46,1.9,1.75,3.6,1.75,4.95,0,1.61-.34,2.64-1.1,3.24-.36.29-.84.43-1.39.53-.43.07-1.01.07-1.56.05-.02-.72-.24-1.8-.67-2.52.46.02.77.02,1.03.02.26-.02.5-.07.67-.22.29-.19.43-.72.43-1.39,0-1.13-.31-2.69-1.66-4.37.48-1.44.96-3.41,1.34-4.97h-1.99v18.94h-2.62v-21.48h5.5l.43-.1,1.94,1.08ZM147.6,268.96v2.5h-14.07v-2.5h2.69c-.07-.98-.43-2.42-.89-3.48l2.3-.48h-3.55v-2.47h5.16c-.19-.7-.41-1.42-.65-2.04l2.76-.48c.36.79.72,1.73.94,2.52h4.73v2.47h-2.95l2.16.48c-.53,1.18-1.08,2.45-1.56,3.48h2.93ZM134.81,273.07h11.57v9.36h-2.86v-1.08h-5.95v1.18h-2.76v-9.46ZM137.91,265c.5,1.1.89,2.59,1.03,3.55l-1.82.41h4.73c.53-1.15,1.08-2.76,1.42-3.96h-5.35ZM137.57,275.57v3.24h5.95v-3.24h-5.95Z" style="fill: #fff;"/>
        <path d="M163.39,260.92c-.5,1.54-1.1,3.17-1.8,4.7v16.87h-2.71v-11.86c-.46.67-.91,1.27-1.34,1.82-.24-.67-.94-2.33-1.39-3.1,1.87-2.26,3.6-5.71,4.61-9.24l2.64.79ZM178.54,275.92h-6.38v6.58h-2.86v-6.58h-6.36v-2.64h6.36v-2.78h-5.35v-2.67h5.35v-7.75h2.86v7.75h5.42v2.67h-5.42v2.78h6.38v2.64ZM166.42,267.52c-.62-1.34-1.99-3.53-3.12-5.16l2.23-1.08c1.18,1.54,2.54,3.58,3.19,4.92l-2.3,1.32ZM177.7,262.05c-.72,1.82-1.75,4.06-2.47,5.45-.58-.38-1.75-.86-2.4-1.1.77-1.34,1.71-3.36,2.3-5.06l2.57.72Z" style="fill: #fff;"/>
        <path d="M208.85,269.88c-.72,3.24-1.99,5.83-3.72,7.85,1.37,1.06,3,1.82,4.87,2.33-.6.58-1.42,1.68-1.8,2.45-1.97-.67-3.62-1.61-5.06-2.81-1.44,1.18-3.1,2.09-4.92,2.78-.31-.67-.96-1.68-1.51-2.26-.36.82-.82,1.56-1.37,2.23-.43-.48-1.39-1.32-2.02-1.7v1.75h-2.76v-9.65c-.6.6-1.18,1.15-1.73,1.63-.22-.65-.96-2.26-1.39-2.95,1.97-1.49,4.13-3.87,5.4-6.19l2.52,1.03c-.58,1.06-1.27,2.14-2.04,3.19v10.9c2.28-3.07,2.5-7.44,2.5-10.66v-6.48h5.3v-3.22h2.78v3.22h3.26l.41-.07,2.14.41c-.46,1.85-1.06,3.91-1.58,5.21l-2.52-.55c.21-.62.46-1.46.67-2.35h-2.38v3.36h2.69l.48-.1,1.78.65ZM194.95,261.19c-1.46,2.23-3.75,4.58-5.83,6.07-.34-.65-1.01-1.85-1.46-2.45,1.73-1.13,3.67-3.07,4.56-4.68l2.74,1.06ZM201.24,277.73c-1.15-1.42-2.06-3.07-2.81-4.97-.19,2.4-.65,5.11-1.68,7.39,1.66-.55,3.17-1.34,4.49-2.42ZM198.53,265.96v3.36h2.59v-3.36h-2.59ZM200.69,271.82c.6,1.51,1.42,2.9,2.45,4.06.98-1.15,1.78-2.52,2.33-4.06h-4.78Z" style="fill: #fff;"/>
        <path d="M230.79,277.44l.19,2.81c-4.03.77-8.43,1.56-11.57,2.16l-.46-3.02c.55-.07,1.13-.17,1.75-.26v-14.04h2.83v13.61l1.71-.29v-18.27h3.02v7.08h2.66v2.74h-2.66v7.95l2.52-.46ZM237.84,279.19c.77,0,.91-.84,1.03-3.96.72.5,1.9,1.06,2.74,1.27-.31,3.98-1.06,5.5-3.48,5.5h-2.93c-2.64,0-3.41-.98-3.41-4.37v-17.5h3.02v7.08h5.42v2.74h-5.42v7.73c0,1.32.1,1.51.86,1.51h2.16Z" style="fill: #fff;"/>
        <path d="M272.11,279.04v2.81h-21.58v-2.81h9.27v-4.82h-6.51v-2.76h6.51v-4.22h-4.97c-.7,1.32-1.44,2.54-2.23,3.48-.58-.46-1.85-1.32-2.57-1.7,1.87-2.02,3.43-5.33,4.25-8.59l2.95.65c-.34,1.15-.72,2.28-1.13,3.38h3.7v-4.32h3v4.32h8.09v2.78h-8.09v4.22h7.18v2.76h-7.18v4.82h9.31Z" style="fill: #fff;"/>
        <path d="M285.84,271.68c-.98-.7-3.05-1.82-4.46-2.59l1.54-2.11c1.32.65,3.46,1.68,4.51,2.33l-1.58,2.38ZM281.71,280.32c1.27-1.8,3.12-4.78,4.56-7.56l2.09,1.92c-1.27,2.52-2.78,5.26-4.25,7.58l-2.4-1.94ZM286.87,265.12c-.94-.72-2.98-1.85-4.37-2.64l1.61-2.06c1.34.67,3.43,1.73,4.46,2.4l-1.71,2.3ZM297.5,269.8v3.02h4.9v9.58h-2.71v-.86h-7.22v.98h-2.57v-9.7h4.9v-3.02h-6.38v-2.74h6.38v-2.81c-1.58.24-3.17.41-4.68.55-.1-.7-.48-1.8-.79-2.45,4.08-.41,8.57-1.2,11.21-2.26l2.21,2.26c-1.56.6-3.34,1.06-5.23,1.42v3.29h6.1v2.74h-6.1ZM299.69,275.42h-7.22v3.53h7.22v-3.53Z" style="fill: #fff;"/>
        <path d="M334.27,263.8s0,.96-.02,1.3c-.31,10.73-.58,14.54-1.56,15.82-.67.89-1.34,1.15-2.3,1.32-.91.12-2.35.1-3.77.05-.05-.79-.43-1.99-.94-2.79,1.54.14,2.95.14,3.58.14.48,0,.74-.1,1.06-.41.7-.77,1.01-4.37,1.27-12.84h-5.14c-.62,1.44-1.37,2.76-2.11,3.79-.38-.36-1.2-.91-1.85-1.34v11.21h-6.41v1.75h-2.59v-17.83h2.71c.31-1.2.6-2.74.7-3.86l3.12.43c-.41,1.2-.84,2.4-1.25,3.43h3.72v3.89c1.39-2.02,2.54-4.92,3.24-7.73l2.71.62c-.24,1.03-.58,2.04-.94,3.05h6.77ZM319.9,266.47h-3.82v3.89h3.82v-3.89ZM319.9,277.53v-4.7h-3.82v4.7h3.82ZM327.87,276.24c-.67-1.44-2.16-3.79-3.34-5.54l2.23-1.27c1.2,1.66,2.79,3.94,3.53,5.33l-2.42,1.49Z" style="fill: #fff;"/>
        <path d="M363.6,276.57c-.55,1.1-1.13,2.26-1.63,3.14h3.82v2.28h-13.63v-2.28h3.62c-.17-.86-.62-2.06-1.15-3l2.23-.6h-2.83v-5.66c-.24.19-.48.38-.74.58-.36-.55-1.13-1.46-1.66-1.9.84-.55,1.63-1.34,2.3-2.28-.55-.46-1.27-.96-1.92-1.32v.79h-8.33v-2.26h3.82c-.41-.91-1.06-2.11-1.61-3.02l1.94-1.18c.67.98,1.46,2.3,1.85,3.17l-1.46,1.03h3.79v1.32l1.42-1.71c.55.29,1.18.65,1.73,1.01.22-.5.43-1.03.6-1.58h-2.88v-2.23h3.79l.46-.1,1.66.53c-.38,2.02-1.01,3.82-1.82,5.38h4.08c-.96-1.78-1.66-3.84-2.16-6.07l2.35-.43c.12.53.26,1.06.43,1.56.48-.43.94-.89,1.27-1.25l1.68,1.56c-.7.6-1.51,1.22-2.18,1.7.12.31.26.62.43.91.58-.43,1.2-.91,1.58-1.3l1.61,1.56c-.7.53-1.44,1.01-2.14,1.42.72.96,1.54,1.73,2.5,2.3-.62.48-1.49,1.44-1.87,2.09-.26-.19-.53-.38-.77-.58v5.95h-2.21l2.04.46ZM351.36,281.18h-4.63v1.01h-2.16v-8.26h6.79v7.25ZM351.24,269.56h-6.62v-2.16h6.62v2.16ZM344.62,270.62h6.62v2.16h-6.62v-2.16ZM346.73,276.21v2.69h2.42v-2.69h-2.42ZM356.04,268.15c-.48.7-.98,1.32-1.56,1.87h9.14c-.67-.58-1.22-1.25-1.75-2.02v.94h-5.83v-.79ZM356.42,273.98h4.83v-1.8h-4.83v1.8ZM357.05,276.12c.6.98,1.15,2.3,1.3,3.14l-1.58.46h2.69c.43-1.03,1.01-2.5,1.29-3.6h-3.7Z" style="fill: #fff;"/>
        <path d="M378.41,276.07v2.06h-2.64v-16.73h7.99v14.67h-5.35ZM378.41,264v3.41h2.71v-3.41h-2.71ZM381.12,273.48v-3.53h-2.71v3.53h2.71ZM396.39,279.24c0,1.51-.31,2.26-1.25,2.74-.94.46-2.33.53-4.34.53-.12-.79-.58-2.04-.98-2.76,1.3.07,2.74.05,3.14.02.46,0,.6-.14.6-.55v-4.22h-5.16c-.55,2.83-1.71,5.69-4.13,7.66-.43-.55-1.56-1.51-2.18-1.85,3.62-2.98,3.94-7.46,3.94-11.07v-8.67h10.37v18.17ZM393.55,272.42v-3.07h-4.73v.38c0,.84-.02,1.75-.1,2.69h4.82ZM388.83,263.71v3.07h4.73v-3.07h-4.73Z" style="fill: #fff;"/>
        <path d="M411.34,267.45c2.16,0,3.89,1.75,3.89,3.89s-1.73,3.89-3.89,3.89-3.89-1.75-3.89-3.89,1.75-3.89,3.89-3.89ZM411.34,273.5c1.2,0,2.16-.96,2.16-2.16s-.96-2.16-2.16-2.16-2.16.96-2.16,2.16.98,2.16,2.16,2.16Z" style="fill: #fff;"/>
      </g>
      <g>
        <path d="M40.03,33.35c-.46,3.6-1.45,7.02-3.19,10.09,5.34,2.55,12.01,4.18,19.84,4.87-1.45,1.51-3.25,4.35-4.12,6.15-7.83-.98-14.44-3.02-19.84-6.09-2.78,2.55-6.73,4.7-11.89,6.21-.87-1.51-2.9-4.29-4.29-5.74,4.64-1.04,8.06-2.55,10.56-4.47-2.84-2.38-5.16-5.34-7.13-8.64l5.63-1.74c1.39,2.26,3.25,4.23,5.39,5.97,1.16-2.09,1.8-4.23,2.15-6.61h-12.93v-16.94h13.34v-4.06h-14.56v-5.34c-1.04,2.2-2.21,4.46-3.48,6.67v41h-6.55v-31.14c-1.57,1.97-3.13,3.83-4.76,5.45-.64-1.68-2.49-5.39-3.65-7.08C6.05,16.71,11.44,8.53,14.57.29l6.38,2.09c-.52,1.22-1.04,2.44-1.57,3.71h14.15V.81h6.84v5.28h15.37v6.27h-15.37v4.06h13.8v16.94h-14.15ZM33.54,27.78v-5.74h-7.13v5.74h7.13ZM40.38,22.04v5.74h7.19v-5.74h-7.19Z" style="fill: #fff;"/>
        <path d="M115.61,46.4c0,3.71-.81,5.57-3.13,6.61-2.38,1.16-5.92,1.28-11.13,1.22-.23-1.86-1.33-4.81-2.21-6.61,3.25.17,7.08.12,8.12.12,1.1,0,1.51-.35,1.51-1.39v-8.7h-12.24v16.18h-6.96v-16.18h-11.83c-1.04,6.32-3.13,12.7-7.31,17.22-1.1-1.28-3.89-3.65-5.45-4.46,6.32-6.96,6.84-17.29,6.84-25.4V4.29h43.79v42.11ZM89.57,31.15v-7.13h-10.9v1.04c0,1.86-.06,3.94-.17,6.09h11.08ZM78.66,10.85v6.73h10.9v-6.73h-10.9ZM108.76,10.85h-12.24v6.73h12.24v-6.73ZM108.76,31.15v-7.13h-12.24v7.13h12.24Z" style="fill: #fff;"/>
        <path d="M161.37,24.01c-2.26,1.62-4.46,3.13-6.84,4.64h21.05v25.75h-7.19v-1.51h-19.95v1.74h-6.9v-18.96c-2.9,1.28-5.92,2.55-8.87,3.65-.87-1.51-2.9-4.29-4.23-5.68,7.6-2.38,14.91-5.68,21.58-9.63h-19.72v-6.09h18.62v-5.28h-13.63v-5.97h13.63V.41h6.84v6.26h12.59v2.84c2.2-2.38,4.18-4.81,5.97-7.37l5.92,3.02c-3.3,4.58-7.19,8.88-11.43,12.76h13.46v6.09h-20.88ZM168.39,34.28h-19.95v3.71h19.95v-3.71ZM168.39,47.15v-3.95h-19.95v3.95h19.95ZM155.74,17.92h3.19c2.2-1.68,4.29-3.42,6.26-5.28h-9.45v5.28Z" style="fill: #fff;"/>
        <path d="M216.93,12.64c-.87,10.21-2.73,18.44-5.68,25,2.67,2.38,4.87,4.64,6.38,6.61l-4.52,5.92c-1.28-1.86-3.19-4-5.34-6.15-3.07,4.41-6.84,7.83-11.37,10.5-.99-1.68-2.84-4.18-4.29-5.45,4.29-2.15,7.83-5.39,10.67-9.74-3.02-2.61-6.15-5.22-9.05-7.37,1.22-3.77,2.44-8.58,3.48-13.75h-4.12v-6.32h5.34c.7-3.94,1.22-7.83,1.57-11.37l6.84.52c-.46,3.42-1.04,7.08-1.74,10.85h6.44l1.16-.17,4.23.93ZM203.83,18.21c-.75,3.94-1.68,7.83-2.61,11.25,1.57,1.22,3.13,2.49,4.7,3.71,1.86-4.35,3.13-9.34,3.89-14.96h-5.97ZM247.15,30.8h-11.6v16.3c0,3.54-.75,5.28-3.19,6.38-2.32.98-5.63,1.16-10.15,1.1-.35-1.91-1.39-4.76-2.38-6.55,2.96.06,6.32.06,7.25.06.99,0,1.28-.23,1.28-1.1v-16.18h-12.24v-6.55h12.24v-5.51c2.49-2.2,5.05-5.45,7.08-8.53h-16.99V3.95h21.52l1.62-.35,4.64,3.36c-2.73,4.23-6.55,9.11-10.67,12.93v4.35h11.6v6.55Z" style="fill: #fff;"/>
        <path d="M278.88,15.43h-21.69v-5.45h9.22c-.75-2.2-2.2-5.1-3.42-7.31l4.99-2.49c1.39,2.38,3.07,5.57,3.94,7.71l-3.6,2.09h10.56v5.45ZM259.51,23.26v-5.22h16.94v5.22h-16.94ZM276.5,31.03h-16.99v-5.22h16.99v5.22ZM276.56,51.39h-11.6v2.44h-5.39v-20.01h16.99v17.57ZM264.96,39.32v6.5h6.15v-6.5h-6.15ZM311.01,34.86h-12.76v19.72h-6.79v-19.72h-12.76v-6.55h12.76V9.69h-10.85V3.25h29.35v6.44h-11.71v18.62h12.76v6.55ZM286.65,12.12c1.33,4.23,2.44,9.69,2.67,13.28l-5.8,1.39c-.12-3.65-1.16-9.22-2.32-13.51l5.45-1.16ZM299.99,25.4c1.22-3.77,2.55-9.63,3.13-13.8l6.55,1.33c-1.45,4.87-3.07,10.27-4.41,13.74l-5.28-1.28Z" style="fill: #fff;"/>
        <path d="M358.51,1.1c3.48,7.31,10.44,15.89,16.41,20.82-1.74,1.33-4.29,4-5.57,5.86-1.04-1.04-2.15-2.15-3.25-3.31v.17c-.58,17.11-1.28,23.95-3.31,26.33-1.45,1.86-3.02,2.49-5.22,2.72-2.09.29-5.34.29-8.82.17-.12-2.09-.99-4.99-2.2-6.96,3.13.29,6.21.29,7.6.29,1.04,0,1.68-.17,2.32-.75,1.22-1.33,1.8-6.26,2.32-18.04h-12.12c-1.51,10.96-5.34,20.82-20.24,26.33-.81-1.86-2.78-4.64-4.35-6.15,12.93-4.18,16.01-11.83,17.23-20.18h-9.34v-3.42c-1.1,1.22-2.26,2.32-3.48,3.31-1.28-1.45-4.18-4.23-5.86-5.45,6.79-4.87,12.64-12.99,15.89-21.63l7.42,2.03c-2.61,6.73-6.5,13.11-10.85,18.33h30.57c-4.35-5.39-8.64-11.83-11.66-18.04l6.5-2.44Z" style="fill: #fff;"/>
        <path d="M437.56,44.08h-22.5v4.12c0,3.42-1.04,4.81-3.77,5.68-2.72.75-6.55.7-11.6.7-.46-1.74-1.45-4.06-2.38-5.63,3.36.12,7.89.12,8.87.12,1.16-.06,1.51-.29,1.51-1.16v-3.83h-22.33v-5.86h22.33v-2.44h.06l-.06-.06c2.44-.52,4.93-1.28,7.31-2.15h-23.95v-5.39h35.03l1.45-.29,4.41,3.83c-4.7,2.49-10.32,4.76-16.18,6.5h21.81v5.86ZM436.64,10.5h-50.4v-5.8h21.34c-.35-1.22-.75-2.49-1.22-3.48l7.13-1.22c.7,1.39,1.39,3.07,1.86,4.7h21.29v5.8ZM392.91,25.87v-12.7h37.53v12.7h-37.53ZM399.81,21.11h23.31v-3.25h-23.31v3.25Z" style="fill: #fff;"/>
      </g>
      <g>
        <path d="M16.65,92.6l4.48,1.42c-.69,2.5-1.83,4.36-3.43,5.57-1.6,1.21-3.63,1.82-6.09,1.82-3.04,0-5.54-1.04-7.5-3.12-1.96-2.08-2.94-4.92-2.94-8.52,0-3.81.98-6.77,2.95-8.88s4.56-3.16,7.77-3.16c2.8,0,5.08.83,6.83,2.48,1.04.98,1.82,2.39,2.34,4.22l-4.58,1.09c-.27-1.19-.84-2.12-1.7-2.81s-1.9-1.03-3.13-1.03c-1.7,0-3.08.61-4.13,1.83-1.06,1.22-1.59,3.19-1.59,5.92,0,2.9.52,4.96,1.56,6.19,1.04,1.23,2.4,1.84,4.06,1.84,1.23,0,2.29-.39,3.17-1.17.89-.78,1.52-2.01,1.91-3.69Z" style="fill: #fff;"/>
        <path d="M26.67,78.12h4.62v12.41c0,1.97.06,3.25.17,3.83.2.94.67,1.69,1.41,2.26.75.57,1.76.85,3.05.85s2.3-.27,2.97-.8c.67-.54,1.07-1.2,1.2-1.98s.2-2.08.2-3.89v-12.67h4.62v12.03c0,2.75-.12,4.69-.38,5.83-.25,1.14-.71,2.09-1.38,2.88s-1.57,1.4-2.7,1.87-2.59.7-4.41.7c-2.19,0-3.85-.25-4.98-.76s-2.02-1.16-2.68-1.97c-.66-.81-1.09-1.65-1.3-2.54-.3-1.31-.45-3.25-.45-5.81v-12.22Z" style="fill: #fff;"/>
        <path d="M50.24,93.57l4.5-.44c.27,1.51.82,2.62,1.65,3.33.83.71,1.95,1.06,3.35,1.06,1.49,0,2.61-.31,3.37-.95.75-.63,1.13-1.37,1.13-2.21,0-.54-.16-1-.48-1.38-.32-.38-.87-.71-1.66-.99-.54-.19-1.78-.52-3.7-1-2.48-.61-4.22-1.37-5.22-2.27-1.41-1.26-2.11-2.8-2.11-4.61,0-1.17.33-2.26.99-3.27.66-1.02,1.61-1.79,2.86-2.32,1.24-.53,2.75-.8,4.51-.8,2.88,0,5.04.63,6.49,1.89,1.45,1.26,2.21,2.94,2.29,5.05l-4.62.2c-.2-1.18-.62-2.02-1.27-2.54-.65-.52-1.63-.77-2.93-.77s-2.4.28-3.16.83c-.49.35-.73.83-.73,1.42,0,.54.23,1.01.69,1.39.58.49,2,1,4.25,1.53s3.91,1.08,4.99,1.65c1.08.57,1.92,1.34,2.53,2.33s.91,2.2.91,3.65c0,1.31-.37,2.54-1.09,3.69-.73,1.15-1.76,2-3.09,2.55-1.33.56-3,.84-4.98.84-2.9,0-5.12-.67-6.67-2.01-1.55-1.34-2.48-3.29-2.78-5.85Z" style="fill: #fff;"/>
        <path d="M79.51,101.02v-19.03h-6.8v-3.88h18.2v3.88h-6.78v19.03h-4.62Z" style="fill: #fff;"/>
        <path d="M93.99,89.71c0-2.33.35-4.29,1.05-5.88.52-1.17,1.23-2.21,2.13-3.14.9-.93,1.89-1.61,2.96-2.06,1.43-.6,3.07-.91,4.94-.91,3.38,0,6.08,1.05,8.1,3.14,2.03,2.09,3.04,5.01,3.04,8.73s-1.01,6.59-3.02,8.68c-2.01,2.09-4.7,3.13-8.06,3.13s-6.12-1.04-8.12-3.12c-2.01-2.08-3.02-4.94-3.02-8.59ZM98.75,89.55c0,2.59.6,4.56,1.8,5.9,1.2,1.34,2.72,2.01,4.56,2.01s3.36-.66,4.54-1.99c1.18-1.33,1.77-3.32,1.77-5.98s-.58-4.58-1.73-5.88c-1.15-1.29-2.68-1.94-4.59-1.94s-3.44.65-4.61,1.96c-1.17,1.31-1.75,3.28-1.75,5.91Z" style="fill: #fff;"/>
        <path d="M121.35,101.02v-22.91h6.92l4.16,15.62,4.11-15.62h6.94v22.91h-4.3v-18.03l-4.55,18.03h-4.45l-4.53-18.03v18.03h-4.3Z" style="fill: #fff;"/>
        <path d="M149.67,101.02v-22.91h16.98v3.88h-12.36v5.08h11.5v3.86h-11.5v6.23h12.8v3.86h-17.42Z" style="fill: #fff;"/>
        <path d="M172.63,101.02v-22.91h9.73c2.45,0,4.23.21,5.34.62,1.11.41,2,1.14,2.66,2.2.67,1.05,1,2.26,1,3.61,0,1.72-.51,3.14-1.52,4.26-1.01,1.12-2.52,1.83-4.53,2.12,1,.58,1.82,1.22,2.48,1.92.65.7,1.53,1.94,2.63,3.72l2.8,4.47h-5.53l-3.34-4.98c-1.19-1.78-2-2.9-2.44-3.37-.44-.46-.9-.78-1.39-.95-.49-.17-1.27-.26-2.33-.26h-.94v9.56h-4.62ZM177.25,87.8h3.42c2.22,0,3.6-.09,4.16-.28.55-.19.98-.51,1.3-.97.31-.46.47-1.03.47-1.72,0-.77-.21-1.39-.62-1.87-.41-.47-.99-.77-1.74-.9-.38-.05-1.5-.08-3.38-.08h-3.61v5.81Z" style="fill: #fff;"/>
        <path d="M207.83,101.02v-22.91h9.73c2.45,0,4.23.21,5.34.62,1.11.41,2,1.14,2.66,2.2.67,1.05,1,2.26,1,3.61,0,1.72-.51,3.14-1.52,4.26-1.01,1.12-2.52,1.83-4.53,2.12,1,.58,1.83,1.22,2.48,1.92.65.7,1.53,1.94,2.63,3.72l2.8,4.47h-5.53l-3.34-4.98c-1.19-1.78-2-2.9-2.44-3.37-.44-.46-.9-.78-1.39-.95-.49-.17-1.27-.26-2.33-.26h-.94v9.56h-4.62ZM212.45,87.8h3.42c2.22,0,3.6-.09,4.16-.28.55-.19.98-.51,1.3-.97.31-.46.47-1.03.47-1.72,0-.77-.21-1.39-.62-1.87-.41-.47-.99-.77-1.74-.9-.38-.05-1.5-.08-3.38-.08h-3.61v5.81Z" style="fill: #fff;"/>
        <path d="M232.52,101.02v-22.91h16.98v3.88h-12.36v5.08h11.5v3.86h-11.5v6.23h12.8v3.86h-17.42Z" style="fill: #fff;"/>
        <path d="M261.31,101.02l-8.19-22.91h5.02l5.8,16.95,5.61-16.95h4.91l-8.2,22.91h-4.94Z" style="fill: #fff;"/>
        <path d="M278.27,101.02v-22.91h4.62v22.91h-4.62Z" style="fill: #fff;"/>
        <path d="M288.9,101.02v-22.91h16.98v3.88h-12.36v5.08h11.5v3.86h-11.5v6.23h12.8v3.86h-17.42Z" style="fill: #fff;"/>
        <path d="M315.09,101.02l-5.47-22.91h4.73l3.45,15.73,4.19-15.73h5.5l4.02,16,3.52-16h4.66l-5.56,22.91h-4.91l-4.56-17.12-4.55,17.12h-5.02Z" style="fill: #fff;"/>
        <path d="M342.48,93.57l4.5-.44c.27,1.51.82,2.62,1.65,3.33.83.71,1.95,1.06,3.35,1.06,1.49,0,2.61-.31,3.37-.95.76-.63,1.13-1.37,1.13-2.21,0-.54-.16-1-.48-1.38-.32-.38-.87-.71-1.66-.99-.54-.19-1.78-.52-3.7-1-2.48-.61-4.22-1.37-5.22-2.27-1.41-1.26-2.11-2.8-2.11-4.61,0-1.17.33-2.26.99-3.27.66-1.02,1.62-1.79,2.86-2.32,1.25-.53,2.75-.8,4.51-.8,2.88,0,5.04.63,6.49,1.89,1.45,1.26,2.22,2.94,2.29,5.05l-4.62.2c-.2-1.18-.62-2.02-1.27-2.54-.65-.52-1.63-.77-2.93-.77s-2.4.28-3.16.83c-.49.35-.73.83-.73,1.42,0,.54.23,1.01.69,1.39.58.49,2,1,4.25,1.53s3.91,1.08,4.99,1.65c1.08.57,1.92,1.34,2.53,2.33s.91,2.2.91,3.65c0,1.31-.36,2.54-1.09,3.69-.73,1.15-1.76,2-3.09,2.55-1.33.56-2.99.84-4.98.84-2.9,0-5.12-.67-6.67-2.01-1.55-1.34-2.48-3.29-2.78-5.85Z" style="fill: #fff;"/>
      </g>
    </g>
  </g>
</svg>