<?xml version="1.0" encoding="UTF-8"?>
<svg id="_圖層_2" data-name="圖層 2" xmlns="http://www.w3.org/2000/svg" width="151.63" height="151.64" viewBox="0 0 151.63 151.64">
  <g id="_設計" data-name="設計">
    <g>
      <path d="M95.2,9.12l.47-1.62,4.19,1.21-1.11,3.83c-.52.28-1.21.45-2.07.53-.86.08-1.69,0-2.48-.23-1.01-.29-1.82-.76-2.45-1.4s-1.01-1.41-1.16-2.3c-.15-.89-.09-1.8.18-2.73.29-1,.76-1.83,1.41-2.49.65-.66,1.43-1.08,2.36-1.26.71-.14,1.52-.08,2.44.19,1.2.35,2.06.87,2.58,1.56.53.7.76,1.51.69,2.45l-2.04-.2c0-.51-.15-.96-.44-1.34s-.72-.65-1.28-.82c-.85-.25-1.6-.17-2.26.22-.66.39-1.14,1.12-1.45,2.18-.33,1.14-.33,2.07.02,2.79.34.72.92,1.2,1.75,1.44.41.12.84.16,1.29.12.46-.04.86-.13,1.22-.28l.35-1.22-2.23-.65Z" style="fill: #d6a18e;"/>
      <path d="M102.84,10.3c.46-.91.97-1.61,1.56-2.1.43-.35.92-.63,1.45-.81.53-.19,1.05-.26,1.56-.23.68.04,1.38.25,2.11.61,1.32.66,2.17,1.6,2.56,2.81.38,1.22.21,2.55-.52,4.01-.72,1.45-1.68,2.38-2.88,2.81s-2.45.31-3.77-.35c-1.33-.67-2.19-1.6-2.57-2.81-.38-1.21-.22-2.52.5-3.95ZM104.73,11.17c-.51,1.01-.66,1.9-.45,2.66.21.76.67,1.32,1.39,1.68s1.44.4,2.17.11c.72-.29,1.34-.95,1.86-1.99.51-1.03.67-1.91.47-2.64s-.67-1.28-1.42-1.65c-.75-.37-1.48-.42-2.19-.13-.71.28-1.33.94-1.84,1.97Z" style="fill: #d6a18e;"/>
      <path d="M121.62,23.72l1.11-1.27,3.28,2.88-2.63,3c-.59.03-1.29-.1-2.1-.4-.81-.29-1.53-.71-2.15-1.26-.79-.69-1.33-1.46-1.63-2.3s-.32-1.7-.08-2.58c.24-.87.68-1.67,1.32-2.39.69-.79,1.46-1.34,2.33-1.66.86-.32,1.75-.37,2.67-.14.7.17,1.41.58,2.13,1.21.94.82,1.49,1.66,1.68,2.51.18.85.04,1.69-.41,2.52l-1.76-1.04c.22-.46.28-.93.17-1.4s-.38-.9-.82-1.28c-.67-.58-1.38-.84-2.14-.76-.76.08-1.51.53-2.23,1.36-.78.89-1.17,1.74-1.17,2.54,0,.8.33,1.48.97,2.04.32.28.69.5,1.12.65.43.16.84.25,1.22.27l.84-.96-1.74-1.53Z" style="fill: #d6a18e;"/>
      <path d="M128.04,28.03c.8-.64,1.56-1.05,2.3-1.24.54-.14,1.09-.18,1.66-.12.56.06,1.07.21,1.51.45.6.32,1.15.8,1.66,1.44.92,1.15,1.3,2.36,1.13,3.63-.16,1.26-.88,2.4-2.16,3.42-1.27,1.01-2.53,1.45-3.79,1.33s-2.35-.75-3.27-1.91c-.93-1.17-1.31-2.38-1.15-3.63.16-1.25.87-2.38,2.12-3.37ZM129.4,29.62c-.89.71-1.4,1.45-1.53,2.22-.13.77.05,1.48.56,2.11.5.63,1.14.97,1.92,1.01.78.04,1.62-.3,2.53-1.02.9-.71,1.41-1.45,1.54-2.19.13-.75-.07-1.45-.59-2.1s-1.16-1-1.93-1.04c-.77-.04-1.6.29-2.5,1.01Z" style="fill: #d6a18e;"/>
      <path d="M134.14,45.44l9.03-4.16.85,1.84-7.49,3.46,2.11,4.57-1.53.71-2.96-6.41Z" style="fill: #d6a18e;"/>
      <path d="M137.87,54.24l9.51-3.15.64,1.92-9.51,3.15-.64-1.92Z" style="fill: #d6a18e;"/>
      <path d="M139.42,59.08l9.81-2.07,1.42,6.72-1.66.35-1-4.74-2.32.49.86,4.09-1.66.35-.87-4.09-4.17.88-.42-1.98Z" style="fill: #d6a18e;"/>
      <path d="M141.2,68.52l10.01-.57.42,7.42-1.69.1-.31-5.4-2.22.13.28,5.02-1.69.1-.28-5.02-2.72.15.32,5.59-1.69.1-.43-7.61Z" style="fill: #d6a18e;"/>
      <path d="M143.94,89.21l1.66.31-.81,4.29-3.92-.74c-.32-.49-.57-1.16-.72-2.01-.16-.85-.16-1.68,0-2.49.19-1.03.58-1.89,1.16-2.57.58-.68,1.3-1.14,2.18-1.38.88-.23,1.79-.26,2.73-.08,1.03.19,1.9.58,2.61,1.16.72.58,1.21,1.33,1.48,2.23.21.69.22,1.51.04,2.45-.23,1.22-.67,2.13-1.31,2.72-.64.59-1.44.9-2.38.92v-2.04c.51-.05.95-.24,1.3-.57.35-.33.58-.78.69-1.35.17-.87.02-1.61-.43-2.23-.45-.62-1.22-1.03-2.31-1.23-1.17-.22-2.09-.13-2.78.28-.68.41-1.1,1.03-1.26,1.88-.08.42-.08.85,0,1.3.08.45.21.85.39,1.19l1.25.24.43-2.28Z" style="fill: #d6a18e;"/>
      <path d="M143.47,96.96c.95.37,1.7.82,2.23,1.35.39.4.71.85.95,1.37s.36,1.03.38,1.53c.02.68-.11,1.4-.41,2.16-.53,1.38-1.38,2.32-2.56,2.81-1.17.5-2.52.45-4.04-.14-1.51-.58-2.53-1.45-3.07-2.6-.54-1.15-.54-2.41,0-3.78.54-1.39,1.39-2.33,2.55-2.83s2.49-.45,3.98.12ZM142.78,98.93c-1.06-.41-1.96-.47-2.69-.2-.73.28-1.25.79-1.54,1.55-.29.75-.26,1.47.1,2.17.36.69,1.08,1.25,2.16,1.67,1.07.41,1.96.49,2.67.22.71-.27,1.21-.79,1.51-1.57.3-.78.28-1.51-.07-2.19-.35-.68-1.06-1.23-2.14-1.65Z" style="fill: #d6a18e;"/>
      <path d="M131.9,116.89l1.37.99-2.55,3.54-3.24-2.34c-.08-.58-.02-1.29.2-2.13.22-.83.57-1.59,1.05-2.25.61-.85,1.33-1.46,2.14-1.84.81-.37,1.67-.48,2.56-.32.89.16,1.73.52,2.51,1.09.85.61,1.47,1.33,1.87,2.16.4.83.53,1.71.39,2.65-.11.72-.44,1.46-1,2.24-.73,1.01-1.51,1.64-2.34,1.91-.83.26-1.68.2-2.54-.17l.87-1.85c.48.17.95.19,1.41.04.46-.15.86-.46,1.2-.93.52-.72.7-1.45.55-2.2s-.67-1.45-1.56-2.1c-.96-.7-1.84-1-2.63-.92-.79.08-1.44.47-1.94,1.16-.25.34-.43.74-.54,1.18-.11.44-.17.86-.15,1.24l1.03.74,1.36-1.88Z" style="fill: #d6a18e;"/>
      <path d="M128.19,123.71c.71.74,1.19,1.46,1.45,2.17.19.53.28,1.07.28,1.64,0,.57-.11,1.08-.31,1.55-.27.62-.69,1.22-1.28,1.78-1.06,1.02-2.23,1.51-3.51,1.47-1.27-.05-2.48-.66-3.61-1.83-1.12-1.17-1.68-2.38-1.68-3.65,0-1.27.53-2.41,1.59-3.43,1.07-1.03,2.24-1.53,3.51-1.48,1.26.04,2.45.64,3.56,1.79ZM126.74,125.21c-.79-.82-1.57-1.26-2.36-1.31-.78-.06-1.47.19-2.05.75-.58.56-.86,1.23-.83,2s.45,1.58,1.25,2.42c.8.83,1.57,1.27,2.33,1.33.75.06,1.43-.2,2.03-.78.6-.58.89-1.25.86-2.02-.03-.77-.44-1.56-1.24-2.4Z" style="fill: #d6a18e;"/>
      <path d="M111.43,131.41l5,8.59-1.75,1.02-4.15-7.13-4.35,2.53-.85-1.46,6.1-3.55Z" style="fill: #d6a18e;"/>
      <path d="M103.01,135.96l4.04,9.17-1.85.82-4.04-9.17,1.85-.82Z" style="fill: #d6a18e;"/>
      <path d="M98.34,137.96l2.99,9.57-6.56,2.05-.5-1.62,4.63-1.45-.71-2.26-3.99,1.25-.51-1.62,3.99-1.25-1.27-4.07,1.93-.6Z" style="fill: #d6a18e;"/>
      <path d="M89.13,140.62l1.5,9.91-7.35,1.11-.25-1.68,5.35-.81-.33-2.2-4.97.75-.25-1.67,4.97-.75-.41-2.7-5.54.84-.25-1.67,7.54-1.14Z" style="fill: #d6a18e;"/>
      <path d="M63.42,144.55l-.29,1.66-4.3-.74.68-3.93c.49-.33,1.15-.58,2-.76.85-.17,1.67-.19,2.49-.05,1.03.18,1.9.55,2.59,1.12.69.57,1.16,1.29,1.41,2.16.25.87.29,1.78.13,2.73-.18,1.03-.55,1.91-1.12,2.63-.57.73-1.31,1.23-2.21,1.51-.69.22-1.51.25-2.45.08-1.23-.21-2.14-.63-2.74-1.27s-.92-1.42-.96-2.36l2.04-.03c.06.51.25.94.59,1.28.34.35.79.57,1.37.67.87.15,1.61,0,2.22-.47s1.01-1.24,1.19-2.33c.2-1.17.09-2.1-.33-2.77s-1.05-1.09-1.9-1.23c-.42-.07-.85-.06-1.3.03-.45.09-.84.23-1.18.41l-.21,1.25,2.28.39Z" style="fill: #d6a18e;"/>
      <path d="M55.71,144.23c-.35.96-.79,1.71-1.31,2.26-.39.4-.84.72-1.35.97s-1.02.38-1.53.4c-.68.03-1.4-.09-2.17-.37-1.39-.51-2.34-1.34-2.86-2.51s-.5-2.51.07-4.04c.56-1.52,1.4-2.56,2.54-3.11,1.14-.56,2.4-.58,3.78-.07,1.4.51,2.36,1.35,2.87,2.5.51,1.16.5,2.48-.05,3.98ZM53.73,143.57c.39-1.07.44-1.96.15-2.69-.29-.73-.81-1.23-1.57-1.51s-1.48-.23-2.16.14-1.23,1.1-1.63,2.19c-.39,1.08-.45,1.97-.17,2.67.28.7.81,1.2,1.59,1.49s1.51.25,2.19-.11c.68-.36,1.21-1.08,1.61-2.17Z" style="fill: #d6a18e;"/>
      <path d="M35.55,132.98l-.97,1.38-3.58-2.5,2.28-3.27c.58-.09,1.29-.04,2.13.17.84.2,1.6.54,2.27,1.01.86.6,1.48,1.3,1.87,2.11s.51,1.66.36,2.55-.5,1.74-1.04,2.53c-.6.86-1.31,1.49-2.13,1.91-.82.42-1.7.56-2.64.43-.72-.09-1.47-.42-2.25-.96-1.02-.71-1.67-1.48-1.94-2.31-.27-.83-.23-1.68.13-2.55l1.86.84c-.17.48-.17.96-.01,1.41.16.46.47.85.95,1.19.72.51,1.46.68,2.21.52.75-.16,1.44-.69,2.07-1.6.68-.98.97-1.86.88-2.65-.09-.79-.49-1.43-1.19-1.92-.35-.24-.74-.42-1.19-.53-.44-.11-.86-.15-1.25-.13l-.73,1.04,1.9,1.33Z" style="fill: #d6a18e;"/>
      <path d="M28.69,129.39c-.72.72-1.44,1.22-2.15,1.49-.52.2-1.07.3-1.63.31-.57,0-1.08-.09-1.55-.28-.63-.26-1.23-.67-1.8-1.25-1.04-1.05-1.55-2.21-1.53-3.48s.61-2.49,1.77-3.64c1.15-1.14,2.35-1.72,3.62-1.74,1.27-.02,2.42.49,3.46,1.53,1.05,1.06,1.56,2.22,1.54,3.48s-.6,2.46-1.73,3.58ZM27.17,127.96c.8-.8,1.23-1.59,1.28-2.38s-.22-1.46-.79-2.04c-.57-.57-1.24-.84-2.02-.79-.78.04-1.58.47-2.4,1.29-.81.81-1.24,1.59-1.29,2.35-.04.76.23,1.43.81,2.02.59.59,1.26.87,2.03.82.77-.04,1.56-.47,2.37-1.28Z" style="fill: #d6a18e;"/>
      <path d="M20.72,112.77l-8.51,5.14-1.05-1.73,7.06-4.27-2.6-4.31,1.45-.87,3.65,6.04Z" style="fill: #d6a18e;"/>
      <path d="M16.02,104.43l-9.1,4.19-.85-1.84,9.1-4.2.85,1.84Z" style="fill: #d6a18e;"/>
      <path d="M13.94,99.78l-9.51,3.15-2.16-6.52,1.61-.53,1.52,4.6,2.25-.75-1.31-3.97,1.61-.53,1.32,3.97,4.04-1.34.64,1.92Z" style="fill: #d6a18e;"/>
      <path d="M11.12,90.62l-9.88,1.67-1.24-7.33,1.67-.28.9,5.33,2.19-.37-.84-4.96,1.67-.28.84,4.96,2.69-.45-.93-5.52,1.67-.28,1.27,7.52Z" style="fill: #d6a18e;"/>
      <path d="M7.81,59.71l-1.64-.39,1-4.25,3.89.92c.3.51.51,1.19.63,2.04.12.85.08,1.68-.1,2.49-.24,1.02-.66,1.86-1.27,2.52-.61.66-1.35,1.08-2.24,1.28-.89.19-1.8.18-2.73-.04-1.02-.24-1.87-.67-2.56-1.28-.69-.61-1.15-1.38-1.38-2.3-.18-.7-.16-1.52.06-2.45.29-1.21.76-2.1,1.43-2.66.67-.56,1.47-.83,2.42-.82l-.09,2.04c-.51.03-.95.19-1.32.51-.37.31-.62.75-.75,1.32-.2.86-.09,1.61.34,2.25.43.64,1.18,1.08,2.25,1.33,1.16.27,2.09.22,2.79-.16.7-.38,1.15-.98,1.34-1.82.1-.41.11-.85.05-1.3-.06-.45-.18-.85-.34-1.21l-1.24-.29-.53,2.26Z" style="fill: #d6a18e;"/>
      <path d="M8.62,51.99c-.94-.41-1.66-.89-2.17-1.45-.38-.41-.67-.88-.88-1.41-.21-.52-.32-1.04-.31-1.55,0-.68.18-1.39.5-2.14.59-1.35,1.48-2.25,2.68-2.7,1.2-.45,2.54-.34,4.03.31,1.48.65,2.47,1.56,2.95,2.73s.43,2.43-.16,3.78c-.6,1.37-1.49,2.27-2.67,2.71s-2.51.34-3.97-.3ZM9.39,50.05c1.04.46,1.93.56,2.68.31.75-.25,1.28-.74,1.6-1.48.32-.74.32-1.46,0-2.17-.33-.71-1.02-1.29-2.08-1.76-1.05-.46-1.94-.57-2.66-.34-.72.24-1.25.73-1.58,1.5-.33.76-.34,1.49-.02,2.19.32.7,1.01,1.28,2.06,1.74Z" style="fill: #d6a18e;"/>
      <path d="M21.05,32.58l-1.32-1.05,2.71-3.42,3.13,2.48c.06.59-.04,1.29-.29,2.12-.25.82-.64,1.56-1.15,2.21-.65.82-1.39,1.4-2.22,1.74-.83.34-1.68.41-2.57.21s-1.7-.6-2.46-1.2c-.82-.65-1.41-1.39-1.78-2.24-.36-.85-.46-1.73-.27-2.67.14-.71.5-1.44,1.1-2.19.77-.98,1.58-1.58,2.42-1.8.84-.23,1.69-.13,2.54.28l-.95,1.81c-.47-.19-.94-.23-1.41-.1-.46.13-.88.42-1.24.88-.55.69-.76,1.42-.65,2.18.12.76.61,1.48,1.47,2.16.93.74,1.8,1.08,2.59,1.04.79-.05,1.46-.4,1.99-1.08.26-.33.46-.72.6-1.15s.2-.85.21-1.24l-1-.79-1.44,1.82Z" style="fill: #d6a18e;"/>
      <path d="M25.04,25.95c-.68-.77-1.13-1.51-1.36-2.23-.17-.53-.24-1.08-.21-1.65.03-.57.15-1.08.38-1.53.29-.61.75-1.19,1.36-1.73,1.11-.98,2.3-1.42,3.57-1.31s2.45.76,3.52,1.99c1.07,1.21,1.58,2.45,1.52,3.72-.05,1.27-.63,2.39-1.74,3.36-1.12.99-2.31,1.43-3.57,1.33-1.26-.1-2.42-.75-3.47-1.94ZM26.55,24.52c.75.85,1.52,1.32,2.3,1.42.78.09,1.47-.13,2.08-.66.61-.53.91-1.19.91-1.97,0-.78-.38-1.6-1.15-2.47-.76-.86-1.51-1.34-2.27-1.43-.75-.09-1.44.14-2.07.69-.62.55-.94,1.21-.94,1.98,0,.77.38,1.58,1.14,2.45Z" style="fill: #d6a18e;"/>
      <path d="M42.11,18.99l-4.62-8.8,1.79-.94,3.83,7.31,4.46-2.34.78,1.5-6.25,3.28Z" style="fill: #d6a18e;"/>
      <path d="M50.72,14.81l-3.63-9.34,1.89-.73,3.63,9.34-1.89.73Z" style="fill: #d6a18e;"/>
      <path d="M55.49,13.01l-2.57-9.69,6.64-1.76.43,1.64-4.69,1.24.61,2.29,4.04-1.07.43,1.64-4.04,1.07,1.09,4.12-1.96.52Z" style="fill: #d6a18e;"/>
      <path d="M64.81,10.76l-1.07-9.96,7.39-.79.18,1.69-5.38.58.24,2.21,5-.54.18,1.68-5,.54.29,2.71,5.57-.6.18,1.68-7.58.81Z" style="fill: #d6a18e;"/>
    </g>
  </g>
</svg>