<?xml version="1.0" encoding="UTF-8"?>
<svg id="_圖層_2" data-name="圖層 2" xmlns="http://www.w3.org/2000/svg" width="302.98" height="90.23" viewBox="0 0 302.98 90.23">
  <g id="_設計" data-name="設計">
    <g>
      <path d="M128.93,72.93h151.86c11.78,0,21.33-9.55,21.33-21.33v-29.41c0-11.78-9.55-21.33-21.33-21.33H22.19C10.41.86.86,10.41.86,22.19v29.41c0,11.78,9.55,21.33,21.33,21.33h59.5l38.08,16.22c2.08.89,4.22-1.15,3.43-3.27l-4.8-12.95h10.53Z" style="fill: #fff; stroke: #1d7068; stroke-miterlimit: 10; stroke-width: 1.73px;"/>
      <g>
        <path d="M53.61,36.89c0,.46-.16.84-.48,1.15-.32.31-.7.46-1.13.46h-5.03c-.13,0-.2.07-.22.22-.24,1.7-.71,3.19-1.42,4.48-.07.13-.05.22.08.27,2.17,1,4.77,1.7,7.79,2.08.35.05.58.24.71.55.05.13.08.26.08.38,0,.18-.06.36-.19.52-.05.09-.12.19-.19.3-.27.42-.62.74-1.04.96-.33.16-.66.25-.98.25-.13,0-.26-.02-.38-.05-3.01-.51-5.61-1.38-7.79-2.6-.11-.05-.22-.04-.33.05-1.08.93-2.42,1.71-4.05,2.32-.24.09-.46.14-.68.14s-.44-.04-.66-.14c-.44-.15-.8-.42-1.09-.82-.05-.07-.1-.14-.14-.19-.15-.2-.22-.41-.22-.63,0-.11.02-.22.05-.33.11-.35.34-.58.68-.71,1.35-.42,2.47-.96,3.36-1.61.11-.07.12-.15.03-.25-.91-.78-1.75-1.73-2.52-2.84-.13-.18-.19-.37-.19-.57,0-.13.02-.25.05-.38.13-.33.36-.55.71-.66.18-.05.36-.08.55-.08.22,0,.43.04.63.11.4.15.74.38,1.01.71.46.55.99,1.08,1.61,1.59.11.09.2.07.27-.05.42-.82.72-1.75.9-2.79.02-.14-.05-.22-.19-.22h-4.43c-.44,0-.82-.15-1.13-.46-.32-.31-.48-.69-.48-1.15v-4.95c0-.44.16-.81.48-1.13.32-.32.7-.48,1.13-.48h4.65c.13,0,.19-.06.19-.19v-1.56c0-.13-.06-.19-.19-.19h-5.22c-.44,0-.82-.16-1.13-.48-.32-.32-.48-.7-.48-1.13v-.77s-.01-.03-.04-.04c-.03,0-.04,0-.04.01-.49,1.04-.99,2-1.5,2.87-.05.11-.08.24-.08.38v17.99c0,.44-.16.81-.46,1.12-.31.31-.68.46-1.12.46s-.81-.15-1.12-.46c-.31-.31-.46-.68-.46-1.12v-13.23s-.02-.06-.05-.07c-.04,0-.06,0-.08.01-.38.49-.74.92-1.07,1.29-.2.24-.45.36-.74.36-.07,0-.14,0-.19-.03-.38-.05-.66-.25-.82-.6-.11-.18-.21-.36-.3-.55-.16-.35-.25-.69-.25-1.04v-.3c.05-.47.25-.88.57-1.23,2.02-2.24,3.7-4.84,5.03-7.79.18-.42.47-.72.88-.9.24-.11.48-.16.74-.16.16,0,.34.03.52.08h.03c.4.15.69.41.88.79.09.2.14.41.14.63,0,.18-.04.38-.11.57-.02.04-.04.07-.05.11-.02.05-.01.1.01.14.03.04.07.05.12.05h6.43c.13,0,.19-.06.19-.19v-.74c0-.46.16-.84.48-1.15.32-.31.7-.46,1.13-.46h.08c.44,0,.82.16,1.13.46.32.31.48.69.48,1.15v.74c0,.13.06.19.19.19h5.71c.42,0,.77.15,1.07.44.29.29.44.65.44,1.07s-.15.78-.44,1.08c-.29.3-.65.45-1.07.45h-5.71c-.13,0-.19.06-.19.19v1.56c0,.13.06.19.19.19h4.87c.44,0,.82.16,1.13.48.32.32.48.7.48,1.13v4.95ZM40.18,35.61c0,.15.07.22.22.22h3.04c.13,0,.19-.07.19-.22v-2.35c0-.13-.06-.19-.19-.19h-3.04c-.15,0-.22.06-.22.19v2.35ZM50.41,33.26c0-.13-.07-.19-.22-.19h-3.06c-.13,0-.19.06-.19.19v2.35c0,.15.06.22.19.22h3.06c.15,0,.22-.07.22-.22v-2.35Z" style="fill: #1d7068;"/>
        <path d="M81.64,23.85c.44,0,.82.16,1.13.48.32.32.48.7.48,1.13v18.73c0,.91-.11,1.61-.34,2.09-.23.48-.62.84-1.19,1.08-.71.35-1.96.55-3.75.6h-.05c-.44,0-.83-.15-1.18-.44-.36-.29-.62-.67-.77-1.12-.02-.05-.04-.1-.05-.14-.05-.14-.08-.28-.08-.41,0-.2.06-.4.19-.6.2-.29.48-.44.85-.44h2.32c.49,0,.74-.22.74-.66v-4.02c0-.13-.07-.19-.22-.19h-5.47c-.15,0-.22.06-.22.19v6.02c0,.44-.16.82-.48,1.13-.32.32-.7.48-1.13.48h-.14c-.44,0-.82-.16-1.13-.48-.32-.32-.48-.7-.48-1.13v-6.02c0-.13-.06-.19-.19-.19h-5.3c-.15,0-.23.06-.25.19-.47,2.81-1.3,5.1-2.49,6.86-.24.35-.58.53-1.04.55h-.05c-.42,0-.77-.14-1.07-.41-.04-.02-.06-.04-.08-.05-.02-.02-.05-.04-.08-.05-.33-.27-.52-.62-.57-1.04-.02-.09-.03-.18-.03-.27,0-.31.09-.6.27-.88.31-.47.57-.96.79-1.48.47-1,.81-2.09,1.01-3.25.2-1.17.33-2.2.4-3.1.06-.9.1-1.96.1-3.16v-8.39c0-.44.16-.81.48-1.13.32-.32.7-.48,1.13-.48h17.94ZM65.32,36.59c0,.15.06.22.19.22h4.98c.13,0,.19-.07.19-.22v-3.01c0-.14-.06-.22-.19-.22h-4.87c-.15,0-.22.07-.22.22v.3c0,.86-.03,1.76-.08,2.71ZM70.68,27.24c0-.14-.06-.22-.19-.22h-4.87c-.15,0-.22.07-.22.22v2.84c0,.13.07.19.22.19h4.87c.13,0,.19-.06.19-.19v-2.84ZM79.73,30.28c.15,0,.22-.06.22-.19v-2.84c0-.14-.07-.22-.22-.22h-5.47c-.15,0-.22.07-.22.22v2.84c0,.13.07.19.22.19h5.47ZM74.04,36.59c0,.15.07.22.22.22h5.47c.15,0,.22-.07.22-.22v-3.01c0-.14-.07-.22-.22-.22h-5.47c-.15,0-.22.07-.22.22v3.01Z" style="fill: #1d7068;"/>
        <path d="M114.99,31.49c.29.28.44.63.44,1.04s-.15.76-.44,1.04c-.29.28-.64.42-1.04.42h-8.39c-.15,0-.27.05-.38.14-1.02.73-2.01,1.39-2.95,2-.04.02-.05.04-.04.07,0,.03.03.04.07.04h8.34c.44,0,.82.16,1.13.48.32.32.48.7.48,1.13v9.21c0,.44-.16.82-.48,1.13-.32.32-.7.48-1.13.48h-1.2c-.18,0-.34-.06-.46-.19-.13-.13-.19-.28-.19-.46,0-.05-.03-.08-.08-.08h-9.46c-.05,0-.08.04-.08.11,0,.2-.07.37-.22.52-.15.15-.32.22-.52.22h-.98c-.46,0-.84-.15-1.15-.46-.31-.31-.46-.69-.46-1.15v-7.33c0-.05-.02-.1-.07-.12-.05-.03-.09-.03-.12-.01-.97.42-1.83.79-2.6,1.09-.24.09-.47.14-.71.14-.2,0-.4-.03-.6-.08-.44-.14-.8-.41-1.09-.79-.04-.05-.07-.11-.11-.16-.16-.22-.25-.45-.25-.68,0-.11.02-.22.05-.33.11-.36.35-.61.71-.74,3.01-1.06,5.91-2.41,8.7-4.05.02-.02.02-.04.01-.07,0-.03-.02-.04-.04-.04h-7.85c-.4,0-.75-.14-1.04-.42-.29-.28-.44-.63-.44-1.04s.15-.76.44-1.04c.29-.28.64-.42,1.04-.42h7.3c.15,0,.22-.07.22-.22v-2.13c0-.13-.07-.19-.22-.19h-4.92c-.4,0-.74-.14-1.03-.42-.28-.28-.42-.62-.42-1.03s.14-.74.42-1.03c.28-.28.62-.42,1.03-.42h4.92c.15,0,.22-.06.22-.19v-1.2c0-.46.16-.84.48-1.15.32-.31.7-.46,1.13-.46h.08c.44,0,.82.16,1.13.46.32.31.48.69.48,1.15v1.2c0,.13.06.19.19.19h4.65c.35,0,.64.12.88.36.24.24.36.53.36.88,0,.02.01.03.04.04.03,0,.05,0,.07-.01.64-.69,1.25-1.4,1.83-2.13.27-.38.64-.62,1.09-.71.15-.04.29-.05.44-.05.29,0,.57.06.85.19.36.2.6.5.71.9.02.11.03.22.03.33,0,.27-.09.53-.27.77-1.31,1.66-2.78,3.25-4.4,4.76-.04.02-.05.05-.03.08.02.04.05.05.08.05h4.81c.4,0,.75.14,1.04.42ZM108.53,40.75c.13,0,.19-.06.19-.19v-1.39c0-.13-.06-.19-.19-.19h-9.24c-.13,0-.19.06-.19.19v1.39c0,.13.06.19.19.19h9.24ZM99.1,44.99c0,.13.06.19.19.19h9.24c.13,0,.19-.06.19-.19v-1.5c0-.14-.06-.22-.19-.22h-9.24c-.13,0-.19.07-.19.22v1.5ZM102.82,28.53c-.13,0-.19.06-.19.19v2.13c0,.15.06.22.19.22h1.15c.13,0,.25-.04.36-.14.98-.77,1.89-1.52,2.71-2.27.04-.04.05-.07.03-.1-.02-.03-.05-.04-.08-.04h-4.16Z" style="fill: #1d7068;"/>
        <path d="M128.75,28.17c1.04,0,1.71.03,2.02.08.27.04.5.17.68.4.18.23.26.49.25.78-.35,4.52-1.08,8.24-2.21,11.16-.05.13-.03.24.08.33.69.57,1.29,1.09,1.78,1.59.36.35.55.78.55,1.29,0,.46-.14.86-.41,1.2l-.08.11c-.24.31-.56.47-.96.49h-.05c-.38,0-.71-.14-.98-.44-.36-.38-.79-.81-1.29-1.29-.11-.09-.2-.08-.27.03-1.02,1.59-2.24,2.94-3.66,4.05-.26.18-.53.27-.82.27-.11,0-.22,0-.33-.03-.44-.09-.78-.32-1.04-.68-.02-.04-.04-.06-.05-.08-.2-.26-.3-.54-.3-.85,0-.09,0-.17.03-.25.05-.4.25-.73.57-.98,1.18-.89,2.21-2.08,3.09-3.55.07-.11.05-.21-.05-.3-.29-.24-.71-.55-1.26-.96-.05-.04-.09-.02-.11.05-.05.18-.17.31-.36.4-.18.08-.36.08-.55-.01l-.66-.33c-.4-.22-.69-.53-.88-.93-.11-.25-.16-.52-.16-.79,0-.16.02-.33.05-.49.47-1.88.99-4.21,1.56-7,.04-.13-.02-.19-.16-.19h-.44c-.42,0-.78-.15-1.08-.45s-.45-.66-.45-1.08.15-.78.45-1.08.66-.45,1.08-.45h1.04c.13,0,.21-.06.25-.19.25-1.42.47-2.69.66-3.8.07-.42.28-.77.63-1.04.31-.24.66-.36,1.04-.36h.14c.44.04.78.22,1.04.55.2.27.3.57.3.88,0,.07,0,.16-.03.27-.2,1.09-.43,2.26-.68,3.5-.02.13.05.19.19.19h1.86ZM128.42,31.45c.02-.14-.05-.22-.19-.22h-2c-.15,0-.23.06-.25.19-.31,1.55-.73,3.46-1.26,5.74-.04.13,0,.23.14.3.89.6,1.47.99,1.72,1.18.11.09.19.06.25-.08.71-1.95,1.24-4.32,1.59-7.11ZM145.21,33.69c.44,0,.81.16,1.11.46.3.31.45.68.45,1.11s-.15.8-.45,1.11c-.3.31-.67.46-1.11.46h-4.4c-.13,0-.19.06-.19.19v8.01c0,.88-.1,1.54-.3,2.01-.2.46-.57.82-1.09,1.08-.73.33-1.75.52-3.06.57-.04.02-.06.03-.08.03-.44,0-.83-.14-1.18-.41-.38-.29-.66-.67-.82-1.15-.04-.07-.06-.15-.08-.25-.05-.13-.08-.26-.08-.41,0-.18.05-.37.16-.57.2-.29.48-.44.85-.44h.03c.47.02.87.03,1.18.03.25,0,.45,0,.57-.03.24,0,.4-.03.48-.1.08-.06.12-.2.12-.4v-7.98c0-.13-.06-.19-.19-.19h-4.16c-.42,0-.78-.15-1.09-.46-.31-.31-.46-.68-.46-1.11s.15-.8.46-1.11c.31-.31.67-.46,1.09-.46h4.16c.13,0,.19-.06.19-.19v-2.13c0-.25.09-.47.27-.66.18-.18.4-.27.66-.27.07,0,.14-.03.19-.08.88-.91,1.7-1.94,2.49-3.09.02-.04.02-.07,0-.11-.02-.04-.05-.05-.08-.05h-6.97c-.42,0-.78-.15-1.08-.45s-.45-.66-.45-1.09.15-.79.45-1.09.66-.45,1.08-.45h9.32c.05,0,.11,0,.16-.03.13-.04.25-.05.36-.05.27,0,.52.08.74.25l.6.46c.31.24.49.54.55.9.02.09.03.17.03.25,0,.29-.09.56-.27.79-1.55,2.15-3.08,3.95-4.59,5.39-.09.09-.14.2-.14.33v1.2c0,.13.06.19.19.19h4.4Z" style="fill: #1d7068;"/>
        <path d="M161.03,27.24c.36,0,.67.13.93.38.25.26.38.57.38.93s-.13.68-.38.93c-.26.26-.57.38-.93.38h-8.31c-.37,0-.67-.13-.93-.38-.26-.25-.38-.56-.38-.93s.13-.67.38-.93c.26-.25.56-.38.93-.38h8.31ZM159.69,38.83c.46,0,.84.16,1.15.46.31.31.46.69.46,1.15v5.22c0,.44-.16.82-.46,1.13-.31.32-.69.48-1.15.48h-4.1c-.09,0-.14.04-.14.11,0,.27-.09.51-.27.7-.18.19-.41.29-.68.29h-.44c-.4,0-.74-.14-1.01-.42s-.41-.62-.41-1v-6.51c0-.46.15-.84.46-1.15.31-.31.69-.46,1.15-.46h5.44ZM154,33.67c-.37,0-.67-.12-.92-.37s-.37-.55-.37-.9.12-.66.37-.9.55-.37.92-.37h6.07c.35,0,.64.12.89.37s.37.55.37.9-.12.66-.37.9-.54.37-.89.37h-6.07ZM153.95,37.44c-.33,0-.62-.12-.86-.36-.25-.24-.37-.53-.37-.88s.12-.64.37-.89.53-.37.86-.37h6.15c.35,0,.64.12.88.37.24.25.36.54.36.89s-.12.64-.36.88c-.24.24-.53.36-.88.36h-6.15ZM160.02,23.47c.35,0,.64.12.89.37s.37.55.37.9-.12.66-.37.9-.54.37-.89.37h-5.93c-.35,0-.64-.12-.89-.37s-.37-.55-.37-.9.12-.66.37-.9.54-.37.89-.37h5.93ZM158.43,41.65c0-.13-.07-.19-.22-.19h-2.54c-.15,0-.22.06-.22.19v2.82c0,.15.07.22.22.22h2.54c.15,0,.22-.07.22-.22v-2.82ZM175.96,36.07c.44,0,.81.16,1.12.46.31.31.46.68.46,1.12s-.16.81-.46,1.12c-.31.31-.68.46-1.12.46h-4.4c-.13,0-.19.06-.19.19v7.68c0,.46-.16.84-.48,1.15-.32.31-.7.46-1.13.46h-.05c-.44,0-.82-.15-1.13-.46-.32-.31-.48-.69-.48-1.15v-7.68c0-.13-.06-.19-.19-.19h-4.4c-.44,0-.81-.15-1.12-.46-.31-.31-.46-.68-.46-1.12s.15-.81.46-1.12c.31-.31.68-.46,1.12-.46h4.4c.13,0,.19-.06.19-.19v-8.59c0-.13-.06-.19-.19-.19h-3.47c-.42,0-.78-.15-1.08-.46-.3-.31-.45-.68-.45-1.11s.15-.79.45-1.09.66-.45,1.08-.45h11.07c.42,0,.78.15,1.09.45.31.3.46.67.46,1.09s-.16.8-.46,1.11c-.31.31-.67.46-1.09.46h-3.94c-.13,0-.19.06-.19.19v8.59c0,.13.06.19.19.19h4.4ZM163.44,30.14c-.02-.11-.03-.22-.03-.33,0-.25.06-.49.19-.71.2-.31.48-.5.85-.57.11-.02.22-.03.33-.03.25,0,.5.06.74.19.33.2.54.49.63.88.33,1.29.58,2.53.77,3.69v.22c0,.33-.09.62-.27.88-.26.35-.58.57-.98.66-.11.04-.21.05-.3.05-.26,0-.49-.08-.71-.25-.29-.22-.46-.52-.52-.9-.15-1.22-.37-2.48-.68-3.77ZM175.22,34.08c-.13.35-.36.6-.68.77-.22.13-.45.19-.68.19-.13,0-.26-.02-.38-.05-.35-.09-.6-.29-.77-.6-.11-.2-.16-.4-.16-.6,0-.13.02-.25.05-.38.35-1.2.64-2.47.88-3.8.09-.42.32-.76.68-1.01.25-.2.54-.3.85-.3.11,0,.22.02.33.05.42.07.74.29.96.66.15.24.22.49.22.77,0,.13-.02.27-.05.41-.51,1.73-.92,3.04-1.23,3.91Z" style="fill: #1d7068;"/>
        <path d="M198.01,25.65c-.13-.22-.19-.45-.19-.68,0-.16.03-.33.08-.49.15-.4.42-.68.82-.85l.3-.11c.22-.09.44-.14.66-.14.2,0,.4.04.6.11.44.16.77.45,1.01.85.78,1.31,1.74,2.63,2.86,3.96,1.12,1.33,2.26,2.52,3.43,3.55.33.27.49.63.49,1.07,0,.4-.15.75-.44,1.04-.22.22-.43.44-.63.66-.29.33-.65.51-1.07.55h-.11c-.38,0-.71-.14-.98-.41-.13-.13-.29-.3-.49-.52-.04-.04-.07-.04-.1-.03-.03.02-.04.05-.04.08-.16,4.36-.36,7.46-.59,9.3-.23,1.84-.58,3.05-1.05,3.64-.33.42-.69.72-1.08.92-.39.19-.88.32-1.46.4-.55.07-1.33.11-2.35.11h-.27c-.44,0-.83-.15-1.18-.46-.35-.31-.59-.69-.74-1.15-.04-.11-.07-.21-.11-.3-.04-.13-.05-.26-.05-.38,0-.2.06-.39.19-.57.18-.29.44-.44.77-.44h.05c.77.04,1.46.05,2.08.05.51,0,.88-.13,1.12-.38.27-.29.49-1.11.66-2.45s.31-3.43.44-6.28c.02-.14-.05-.22-.19-.22h-5.11c-.13,0-.2.07-.22.22-.15,1.06-.33,2.02-.55,2.87-.22.86-.53,1.75-.94,2.67-.41.92-.91,1.76-1.49,2.5-.58.75-1.32,1.47-2.21,2.16-.89.69-1.91,1.31-3.06,1.86-.24.09-.46.14-.68.14-.2,0-.39-.04-.57-.11-.42-.15-.77-.42-1.04-.82-.11-.16-.22-.32-.33-.46-.16-.22-.25-.46-.25-.71,0-.09,0-.19.03-.3.09-.36.31-.62.66-.77,1.2-.49,2.23-1.07,3.08-1.74.85-.66,1.52-1.4,2.01-2.21.49-.81.87-1.61,1.12-2.39.25-.78.46-1.68.6-2.68.02-.14-.05-.22-.19-.22h-2.9c-.46,0-.84-.15-1.15-.46-.31-.31-.46-.69-.46-1.15v-.14s-.02-.06-.05-.08c-.04-.02-.06,0-.08.03-.29.29-.58.57-.88.82-.31.27-.66.41-1.04.41h-.14c-.44-.04-.83-.22-1.18-.55-.16-.14-.33-.3-.49-.46-.29-.25-.44-.57-.44-.96,0-.44.16-.78.49-1.04,2.66-2.13,4.77-4.81,6.32-8.04.2-.42.5-.73.9-.93.25-.11.52-.16.79-.16.16,0,.33.02.49.05l.49.14c.4.13.69.38.88.77.09.2.14.39.14.57,0,.2-.05.4-.14.6-1.28,2.62-2.85,5.02-4.73,7.19-.04.02-.05.05-.03.08.02.04.04.05.08.05h14.71s.06-.02.08-.05c.02-.04.02-.06,0-.08-1.86-2.19-3.51-4.53-4.95-7.03Z" style="fill: #1d7068;"/>
        <path d="M237.23,40.86c.38,0,.71.14,1,.42.28.28.42.62.42,1s-.14.72-.42,1c-.28.28-.62.42-1,.42h-9.24c-.15,0-.22.06-.22.19v1.83c0,.84-.13,1.45-.4,1.85-.26.39-.73.69-1.41.89-.8.22-2.16.34-4.07.36h-.03c-.42,0-.81-.13-1.18-.38-.35-.26-.61-.59-.79-1.01-.05-.13-.08-.26-.08-.38,0-.18.05-.35.16-.49.16-.27.41-.41.74-.41h.03c.82.02,1.75.03,2.79.03.27-.02.46-.06.56-.14.1-.07.15-.22.15-.44v-1.7c0-.13-.06-.19-.19-.19h-9.13c-.38,0-.72-.14-1-.42-.28-.28-.42-.62-.42-1s.14-.71.42-1c.28-.28.62-.42,1-.42h9.21c.07,0,.11-.04.11-.14,0-.27.1-.51.31-.72.21-.21.46-.31.75-.31h.33c.13,0,.25-.02.36-.05.86-.29,1.65-.6,2.38-.93.02,0,.03-.01.03-.04s0-.04-.03-.04h-10.83c-.37,0-.67-.12-.92-.37s-.37-.55-.37-.92.12-.67.37-.93c.25-.25.55-.38.92-.38h15.61c.09-.02.18-.03.27-.03.35,0,.65.12.9.36l.55.44c.22.2.33.45.33.74,0,.4-.16.69-.49.88-1.68.91-3.43,1.71-5.25,2.41-.02,0-.03,0-.03.03,0,.02,0,.03.03.03h7.77ZM236.82,24.67c.38,0,.71.14.98.41s.41.61.41,1-.14.72-.41,1-.6.41-.98.41h-21.52c-.38,0-.71-.14-.98-.41s-.41-.61-.41-1,.14-.72.41-1,.6-.41.98-.41h8.72c.13,0,.19-.06.19-.19v-.25c0-.46.16-.84.48-1.15.32-.31.7-.46,1.13-.46h.25c.46,0,.84.16,1.15.46.31.31.46.69.46,1.15v.25c0,.13.07.19.22.19h8.91ZM235.23,33.28c0,.46-.16.84-.48,1.15-.32.31-.7.46-1.13.46h-14.9c-.44,0-.82-.15-1.13-.46-.32-.31-.48-.69-.48-1.15v-2.93c0-.46.16-.84.48-1.15.32-.31.7-.46,1.13-.46h14.9c.44,0,.82.16,1.13.46.32.31.48.69.48,1.15v2.93ZM220.66,31.01c-.15,0-.22.06-.22.19v1.2c0,.13.07.19.22.19h10.83c.15,0,.22-.06.22-.19v-1.2c0-.13-.07-.19-.22-.19h-10.83Z" style="fill: #1d7068;"/>
        <path d="M247.41,46.71c-.73,0-1.34-.26-1.82-.77-.48-.51-.72-1.15-.72-1.91s.24-1.4.72-1.91c.48-.51,1.09-.77,1.82-.77s1.34.26,1.83.77c.49.51.74,1.15.74,1.91s-.25,1.4-.74,1.91-1.1.77-1.83.77Z" style="fill: #1d7068;"/>
        <path d="M259.29,46.71c-.73,0-1.34-.26-1.82-.77-.48-.51-.72-1.15-.72-1.91s.24-1.4.72-1.91c.48-.51,1.09-.77,1.82-.77s1.34.26,1.83.77c.49.51.74,1.15.74,1.91s-.25,1.4-.74,1.91-1.1.77-1.83.77Z" style="fill: #1d7068;"/>
        <path d="M271.17,46.71c-.73,0-1.34-.26-1.82-.77-.48-.51-.72-1.15-.72-1.91s.24-1.4.72-1.91c.48-.51,1.09-.77,1.82-.77s1.34.26,1.83.77c.49.51.74,1.15.74,1.91s-.25,1.4-.74,1.91-1.1.77-1.83.77Z" style="fill: #1d7068;"/>
      </g>
    </g>
  </g>
</svg>