<?xml version="1.0" encoding="UTF-8"?>
<svg id="_喇뒨쏛_2" data-name="喇뒨쏛 2" xmlns="http://www.w3.org/2000/svg" width="371.08" height="356.33" viewBox="0 0 371.08 356.33">
  <g id="_傍쇋뺃" data-name="傍쇋뺃">
    <g>
      <path d="M169.35,240.91c-11.88-6.26-24.16-12.73-36.12-19.04,16.52-41.49,16.51-46.66-.74-84.66,14-7.01,28.15-14.09,41.93-20.98-19.97-9.82-37.38-26.88-37.1-52.61.16-14.69,6.18-31.75,15.18-43.42,21.35-27.69,61.45-26.49,88.08.9-16.05,24.81-17.89,50.65,2.54,79.49-14.87,7.76-28.39,14.82-42.53,22.2,20.14,11.89,35.44,28.06,36.08,54.8.64,26.31-13.06,43.28-33.3,56.74,12.86,6.94,25.08,13.54,39.12,21.11-17.8,27.32-20.08,53.16-2.19,78.22-20.52,27.14-58.78,30.25-83.87,7.43-31.16-28.33-26.43-62.78,12.93-100.2Z" style="fill: #004d47;"/>
      <path d="M36.46,240.72c-11.85-6.61-23.03-12.85-35.53-19.82,17.07-27.54,19.36-54-.93-82.98,14.55-7.52,28.02-14.49,41.31-21.36C16,104.74.05,84.61,2.64,54.22,4.63,30.9,16.67,12.67,39.16,4.5,63.34-4.28,86.05-.77,106.55,20.06c-16.86,25.52-18.66,52.09,1.97,80.29-14.17,7.73-26.46,14.42-39.98,21.79,20.75,12.06,36.74,28.02,37.52,54.41.8,26.91-12.18,45.22-35.03,58.2,11.81,6.67,23.25,13.13,37.03,20.91-18.4,27.25-20.03,53.77-1.96,79.03-25.44,27.69-65.25,28.23-88.59,2.32-26.44-29.36-19.4-65.45,18.94-96.29Z" style="fill: #1d7068;"/>
      <path d="M262.58,137.77c15.94-7.95,28.56-14.25,41.52-20.71-26.87-14.27-43.29-36.54-37.4-69.3,4.14-23.01,18.49-38.87,41.59-45.25,23.62-6.52,43.4-.25,60.92,19.17-16.74,24.87-16.37,50.65,1.88,78.98-13.73,7.48-26.58,14.47-39.09,21.28,50,34.05,51.16,77.8,2.75,113.22,11.48,6.44,23.12,12.96,36.05,20.21-17.17,27.88-19.42,54.31-1.16,79.74-27.49,27.68-67.44,27.53-90.23.56-24.53-29.02-16.43-66.87,20.65-94.67-11.3-6.34-22.52-12.63-36.3-20.36,18.11-26.98,20.14-53.52-1.18-82.87Z" style="fill: #1d7068;"/>
    </g>
  </g>
</svg>