<?xml version="1.0" encoding="UTF-8"?>
<svg id="_喇뒨쏛_2" data-name="喇뒨쏛 2" xmlns="http://www.w3.org/2000/svg" width="32.52" height="32.55" viewBox="0 0 32.52 32.55">
  <g id="_傍쇋뺃" data-name="傍쇋뺃">
    <path d="M32.27,13.12c-.08-.6-.18-1.2-.32-1.79-1.24-5.3-4.42-8.89-9.68-10.46-3.81-1.13-7.69-1.14-11.52-.13C5.89,2.02,2.59,5.08,1.03,9.86c-1.35,4.13-1.36,8.33-.11,12.48,1.45,4.81,4.64,7.97,9.47,9.37,3.9,1.13,7.85,1.12,11.75.02,4.18-1.18,7.2-3.76,8.94-7.77.71-1.65,1.12-3.35,1.3-5.1,0-.04,0-.07.01-.11.08-.81.11-1.63.11-2.45,0,0,.01,0,.02,0-.03-1.36-.18-2.63-.26-3.16Z" style="fill: #1d7068;"/>
    <polyline points="14.03 21.27 19.34 15.9 13.18 11.28" style="fill: none; stroke: #fff; stroke-linecap: round; stroke-miterlimit: 10; stroke-width: 3px;"/>
  </g>
</svg>