<?xml version="1.0" encoding="UTF-8"?>
<svg id="_圖層_2" data-name="圖層 2" xmlns="http://www.w3.org/2000/svg" width="251.49" height="80.03" viewBox="0 0 251.49 80.03">
  <g id="_設計" data-name="設計">
    <g>
      <path d="M168.09,65.81H21.35c-11.24,0-20.35-9.11-20.35-20.35v-24.11c0-11.24,9.11-20.35,20.35-20.35h208.78c11.24,0,20.35,9.11,20.35,20.35v24.11c0,11.24-9.11,20.35-20.35,20.35h-24.05s-30.62,13.05-30.62,13.05c-1.68.71-3.39-.92-2.76-2.63l3.86-10.41h-8.47Z" style="fill: #fff; stroke: #4a6d69; stroke-linecap: round; stroke-linejoin: round; stroke-width: 2px;"/>
      <g>
        <path d="M34.8,20.84h2.26v23.82h-2.26v-8.89h-2.29v.7c0,2.16-.36,5.67-2.39,7.96-.44-.36-1.33-.88-1.85-1.14,1.79-2,2.05-5.04,2.05-6.86v-.65h-1.82v-2.18h6.29v-3.33h-5.3v-8.29h2.18v6.19h3.12v-7.31ZM49.98,29.26c-.57,3.72-1.48,6.68-2.96,9.05,1.98,1.43,3.69,2.89,4.78,4.08l-1.77,1.82c-.99-1.17-2.57-2.6-4.39-4-1.69,1.92-3.93,3.35-6.84,4.45-.23-.57-.91-1.64-1.33-2.13,2.68-.88,4.71-2.11,6.24-3.74-1.51-1.09-3.12-2.18-4.6-3.04.7-1.64,1.35-3.95,1.92-6.47h-2.99v-2.24h3.46c.36-2.05.7-4.19.94-6.06l2.47.23c-.29,1.82-.68,3.85-1.07,5.82h8.27v2.24h-2.13ZM43.36,29.26c-.49,2.03-.99,3.95-1.56,5.59,1.07.65,2.21,1.38,3.3,2.11,1.25-2.03,2-4.58,2.44-7.7h-4.19Z" style="fill: #1d7068;"/>
        <path d="M56.77,43.82c.99-1.07,1.51-2.91,1.74-4.63l1.66.44c-.29,1.9-.73,3.87-1.82,5.04l-1.59-.86ZM57.24,36.26c1.33-.05,2.96-.1,4.76-.18v-1.69h-4.16v-1.87h4.16v-1.48h-4.06v-9.36h10.45v9.36h-4.24v1.48h4.32v1.87h-4.32v1.59c1.56-.08,3.17-.16,4.76-.23l-.08,1.92c-4.13.29-8.45.49-11.49.68l-.1-2.08ZM59.76,29.34h2.52v-5.98h-2.52v5.98ZM61.06,24.27c.42,1.2.78,2.81.83,3.8l-1.17.36c-.05-1.04-.34-2.65-.75-3.87l1.09-.29ZM62.23,39.12c.39,1.4.65,3.25.65,4.47l-1.61.21c0-1.22-.23-3.07-.55-4.52l1.51-.16ZM64.7,38.88c.57,1.3,1.09,3.02,1.27,4.16l-1.56.36c-.13-1.14-.65-2.89-1.2-4.24l1.48-.29ZM66.49,23.36h-2.65v5.98h2.65v-5.98ZM64.05,28.17c.39-1.07.86-2.83,1.07-3.98l1.33.49c-.49,1.3-.99,2.89-1.43,3.85l-.96-.36ZM67.17,38.31c.91,1.2,1.79,2.83,2.16,3.93l-1.59.68c-.34-1.12-1.2-2.81-2.03-4.03l1.46-.57ZM75.57,28.56v4.45h4.32v11.54h-2.29v-1.01h-5.77v1.12h-2.21v-11.65h3.61v-12.17h2.34v5.49h5.3v2.24h-5.3ZM77.6,35.22h-5.77v6.11h5.77v-6.11Z" style="fill: #1d7068;"/>
        <path d="M91.69,25.49c-1.25,1.98-2.65,3.8-4,5.17-.47-.42-1.53-1.12-2.16-1.43,2.39-2.03,4.6-5.33,5.96-8.55l2.42.7c-.29.62-.6,1.27-.96,1.92h15.55v2.18h-16.8ZM105.65,35.61c-.08,1.4-.16,2.57-.26,3.56h3.02v2.11h-3.28c-.18,1.2-.42,1.9-.73,2.31-.49.73-1.12.96-1.95,1.07-.81.08-2.11.08-3.38,0-.03-.57-.26-1.38-.57-1.92,1.25.1,2.34.13,2.86.13.44,0,.68-.08.94-.39.16-.21.31-.57.44-1.2h-14.43c.34-1.56.65-3.56.96-5.67h-3.61v-2.18h3.95c.26-1.95.49-3.9.65-5.59h15.65s-.03.78-.03,1.09c-.05,1.69-.1,3.17-.16,4.5h3.67v2.18h-3.74ZM91.71,35.53c-.18,1.3-.36,2.52-.52,3.64h6.99c-1.04-.88-2.63-1.92-4-2.6l1.07-1.04h-3.54ZM92.47,29.94c-.16,1.14-.31,2.37-.47,3.56h6.66c-1.04-.86-2.57-1.82-3.93-2.47l1.14-1.09h-3.41ZM103.02,39.17c.1-.96.18-2.16.26-3.64h-7.2c1.53.75,3.17,1.85,4.08,2.7l-.91.94h3.77ZM103.36,33.5c.03-1.07.08-2.26.1-3.56h-6.94c1.48.7,3.15,1.69,4,2.55l-.99,1.01h3.82Z" style="fill: #1d7068;"/>
        <path d="M137.99,31.16v2.65h-23.66v-2.65h23.66Z" style="fill: #1d7068;"/>
        <path d="M155.65,28.22c-2.42,4.65-6.4,8.45-10.79,10.82-.31-.49-1.04-1.53-1.51-1.98,2.57-1.22,4.97-2.91,6.92-5.02-4.52.29-5.3.42-5.82.62-.13-.47-.49-1.59-.75-2.21.49-.08.96-.49,1.56-1.07.42-.42,1.56-1.74,2.63-3.25h-4.76v-2.21h6.42c-.26-.86-.78-1.87-1.3-2.7l2.29-.55c.68.96,1.35,2.31,1.61,3.25h5.2v2.21h-6.71c-1.04,1.43-2.21,2.86-3.41,4.06l4.73-.21c.57-.78,1.07-1.61,1.48-2.47l2.21.7ZM157.34,33.21c-1.04,1.82-2.31,3.48-3.77,5.02,1.48,1.25,3.25,2.81,4.16,3.82l-1.74,1.59c-.83-1.01-2.5-2.6-3.95-3.9-2.24,2-4.78,3.67-7.41,4.94-.29-.52-1.01-1.59-1.48-2.05,4.97-2.11,9.46-5.72,11.99-10.24l2.21.83ZM161.16,38.13h-2.29v-14.4h2.29v14.4ZM165.81,21.12v20.59c0,1.43-.34,2.11-1.2,2.47-.88.36-2.29.44-4.47.42-.1-.62-.47-1.66-.78-2.29,1.48.05,2.99.05,3.46.03.42-.03.6-.16.6-.62v-20.59h2.39Z" style="fill: #1d7068;"/>
        <path d="M176.06,30.28c-.39,3.2-1.14,7.59-2.13,10.43l-2.42-1.01c1.01-2.68,1.85-6.63,2.18-9.85l2.37.44ZM180.53,28.09v12.4c0,1.22.29,1.43,1.66,1.43h4.39c1.48,0,1.72-.86,1.9-5.15.57.44,1.64.88,2.26,1.04-.29,4.89-.99,6.37-4,6.37h-4.81c-3.04,0-3.9-.83-3.9-3.69v-12.4h2.5ZM180.74,21.51c2.39,1.59,5.56,3.93,7.1,5.56l-1.79,1.85c-1.43-1.61-4.52-4.13-6.94-5.8l1.64-1.61ZM192,29.08c1.51,3.09,2.89,7.02,3.43,9.67l-2.42,1.01c-.47-2.65-1.85-6.73-3.25-9.8l2.24-.88Z" style="fill: #1d7068;"/>
        <path d="M199.67,32.51c.55-1.74.96-4.63,1.12-6.68l1.74.23c-.08,2.05-.49,5.1-1.04,7.05l-1.82-.6ZM206.4,28.92c-.26-.91-.81-2.44-1.33-3.64v19.37h-2.21v-23.84h2.21v4.26l1.51-.6c.55,1.17,1.22,2.7,1.46,3.67l-1.64.78ZM223.79,29.08v1.79h-16.87v-1.79h7.12v-1.51h-5.69v-1.69h5.69v-1.35h-6.32v-1.79h6.32v-1.92h2.39v1.92h6.58v1.79h-6.58v1.35h5.9v1.69h-5.9v1.51h7.36ZM221.87,42.18c0,1.09-.23,1.72-1.01,2.05-.81.34-2.03.36-3.82.36-.1-.6-.42-1.51-.7-2.08,1.2.08,2.44.05,2.78.05.36-.03.47-.13.47-.44v-1.4h-8.61v3.93h-2.24v-12.51h13.13v10.04ZM210.98,33.97v1.61h8.61v-1.61h-8.61ZM219.58,38.99v-1.61h-8.61v1.61h8.61Z" style="fill: #1d7068;"/>
      </g>
    </g>
  </g>
</svg>