<?xml version="1.0" encoding="UTF-8"?>
<svg id="_圖層_2" data-name="圖層 2" xmlns="http://www.w3.org/2000/svg" width="271.34" height="80.03" viewBox="0 0 271.34 80.03">
  <g id="_設計" data-name="設計">
    <g>
      <path d="M187.94,65.81H21.35c-11.24,0-20.35-9.11-20.35-20.35v-24.11c0-11.24,9.11-20.35,20.35-20.35h228.63c11.24,0,20.35,9.11,20.35,20.35v24.11c0,11.24-9.11,20.35-20.35,20.35h-24.05s-30.62,13.05-30.62,13.05c-1.68.71-3.39-.92-2.76-2.63l3.86-10.41h-8.47Z" style="fill: #fff; stroke: #4a6d69; stroke-linecap: round; stroke-linejoin: round; stroke-width: 2px;"/>
      <g>
        <path d="M36.65,27.1h-8.27v-1.95h8.27v1.95ZM35.97,43.22h-4.97v1.14h-1.74v-8.74h6.71v7.59ZM35.89,30.53h-6.47v-1.9h6.47v1.9ZM29.42,32.09h6.47v1.9h-6.47v-1.9ZM32.23,25.1c-.21-.91-.81-2.42-1.4-3.51l1.74-.62c.62,1.07,1.25,2.52,1.48,3.43l-1.82.7ZM31,37.53v3.8h3.17v-3.8h-3.17ZM51.83,39.53c-.86.6-1.92,1.17-2.86,1.61.99.78,2.21,1.38,3.61,1.72-.44.42-1.01,1.2-1.27,1.74-3.41-1.07-5.62-3.35-6.86-6.5h-.36c-.57.57-1.3,1.07-2.05,1.56v2.39l3.48-.65c-.03.57.03,1.35.08,1.82-4.34.91-5.07,1.17-5.54,1.43-.18-.42-.68-1.12-1.01-1.46.44-.31,1.12-1.04,1.12-2.26v-.29c-.88.42-1.85.75-2.73,1.07-.21-.39-.81-1.2-1.17-1.56,1.82-.47,3.69-1.17,5.15-2.05h-4.65v-1.72h3.82v-1.14h-2.63v-1.56h2.63v-1.12h-3.04v-1.53h3.04v-1.3h-2.57v-4.42h5.93v4.42h-1.2v1.3h3.41v-1.3h-1.01v-4.42h6.03v4.42h-2.86v1.3h3.35v1.53h-3.35v1.12h2.94v1.56h-2.94v1.14h3.93v1.72h-5.75c.34.68.78,1.33,1.27,1.92.96-.55,2.11-1.25,2.81-1.72l1.27,1.22ZM51.94,24.42h-14.87v-1.79h6.4c-.21-.52-.47-1.04-.7-1.51l2-.6c.42.62.81,1.46,1.07,2.11h6.11v1.79ZM39.79,28.38h2.24v-1.69h-2.24v1.69ZM42.73,33.68h3.41v-1.12h-3.41v1.12ZM42.73,36.39h3.41v-1.14h-3.41v1.14ZM46.92,28.38h2.34v-1.69h-2.34v1.69Z" style="fill: #1d7068;"/>
        <path d="M80.61,35.29v1.87h-23.4v-1.87h6.27c-.21-.52-.47-1.09-.75-1.53l1.04-.29h-2.76v-4.86h15.96v4.86h-2.11l.44.08c-.39.62-.78,1.22-1.12,1.74h6.42ZM67.61,24.27h-9.57v-1.74h9.57v-1.77h2.44v1.77h9.78v1.74h-9.78v1.48h8.16v1.74h-18.38v-1.74h7.77v-1.48ZM60.54,38.39h16.93v6.27h-2.47v-.73h-12.06v.75h-2.39v-6.29ZM62.93,40.05v2.16h12.06v-2.16h-12.06ZM63.32,31.91h11.21v-1.74h-11.21v1.74ZM65.12,33.47c.39.6.7,1.27.86,1.82h5.75c.29-.57.6-1.25.83-1.82h-7.44Z" style="fill: #1d7068;"/>
        <path d="M85.24,32.51c.62-1.74,1.12-4.6,1.3-6.68l1.79.26c-.13,2.13-.6,5.15-1.25,7.07l-1.85-.65ZM106.64,42.11c.55,0,.65-.42.7-3.25.52.39,1.51.81,2.13.96-.21,3.54-.81,4.45-2.63,4.45h-2.31c-2.18,0-2.68-.7-2.68-2.91v-5.82h-1.82c-.42,4.03-1.51,7.23-5.69,9.13-.29-.6-.99-1.46-1.48-1.9,3.59-1.46,4.45-4.06,4.78-7.23h-2.05v-7.05c-.23.21-.44.42-.68.6-.34-.36-1.14-1.04-1.69-1.43.21.81.39,1.56.47,2.16l-1.48.6c-.16-1.22-.62-3.12-1.17-4.68v18.95h-2.31v-23.87h2.31v4.45l1.27-.42c.31.81.62,1.74.86,2.63,2-1.59,3.85-4,4.97-6.45l2.24.68c-.94,2.03-2.29,4-3.72,5.64h9.65c-1.17-1.72-2.83-3.72-4.34-5.28l1.66-1.12c2.05,2,4.45,4.84,5.54,6.71l-1.85,1.3c-.21-.34-.44-.78-.73-1.2v7.77h-2.34v5.8c0,.68.1.78.65.78h1.74ZM97.88,33.4h6.32v-3.9h-6.32v3.9Z" style="fill: #1d7068;"/>
        <path d="M126.84,33.11c-.44,2.31-1.12,4.89-2,6.84.49.29.99.73,1.74,1.22,1.4.91,3.02,1.2,5.25,1.2,1.79,0,4.55-.13,6.42-.39-.23.62-.55,1.72-.57,2.29-1.3.1-4.13.21-5.88.21-2.44,0-4.11-.42-5.59-1.4-.94-.62-1.74-1.38-2.26-1.38-.62,0-1.53,1.56-2.34,3.12l-1.51-2.05c.96-1.22,1.92-2.24,2.78-2.73.68-1.43,1.27-3.46,1.64-5.28h-2.37v.23c0,1.4-.31,2.55-1.01,3.04-.36.29-.81.44-1.33.52-.47.05-1.09.05-1.61.03-.03-.52-.21-1.3-.52-1.85.55.03.96.05,1.33.03.29-.03.57-.08.75-.23.36-.26.49-.96.49-1.74,0-1.38-.42-3.15-2.08-5.2.6-1.72,1.25-3.82,1.72-5.54h-2.83v20.59h-1.92v-22.78h5.59l.31-.08,1.38.78c-.7,2.13-1.56,4.76-2.39,6.84,1.56,1.9,2.03,3.61,2.13,5.1.55-1.51,1.17-3.61,1.72-5.54h-2.21v-1.98h4.45c.86-.75,1.59-1.72,2.18-2.78h-2.11v-1.61h2.86c.23-.6.42-1.2.57-1.85l1.95.39c-.13.49-.29.96-.44,1.46h6.68v1.61h-7.33c-.23.49-.49.96-.78,1.43h7.33v1.43h-2.99v1.48h3.59v1.43h-9.62v-1.43h3.95v-1.48h-2.26v-1.43c-.86,1.46-1.92,2.68-3.15,3.61-.13-.21-.39-.6-.68-.94-.42,1.48-.91,3.15-1.38,4.55h1.07l.31-.08.96.34ZM123.49,25.75c-.26-1.12-.75-2.89-1.12-4.21l1.87-.42c.39,1.3.88,3.02,1.17,4.11l-1.92.52ZM136.9,39.17c0,.94-.21,1.33-.83,1.61-.65.26-1.61.26-2.99.26-.1-.49-.36-1.12-.6-1.56.88.05,1.77.03,1.98.03.29-.03.36-.08.36-.34v-1.74c-1.59.36-3.12.75-4.47,1.09l-.62-1.74c-.1,1.48-.36,3.07-.96,4.24-.39-.34-1.27-.94-1.69-1.14.73-1.56.78-3.56.78-5.07v-3.67h9.05v8.03ZM134.82,35.94v-3.35h-5.02v2.24c0,.55-.03,1.2-.05,1.85,1.07-.13,2.37-.34,3.77-.52-.75-.57-2.11-1.43-3.22-1.98l.88-1.2c1.2.57,2.52,1.25,3.25,1.77l-.91,1.4,1.3-.21Z" style="fill: #1d7068;"/>
        <path d="M151.33,39.64h-5.41v2.21h-2.24v-19.4h7.64v17.19ZM145.92,24.63v5.23h3.15v-5.23h-3.15ZM149.07,37.48v-5.49h-3.15v5.49h3.15ZM160.36,25.91v2.96h5.43v2.11h-2.11v2.5h2.78v2.13h-2.78v6.4c0,1.25-.29,1.9-1.14,2.24-.91.39-2.26.42-4.26.42-.1-.65-.47-1.61-.81-2.26,1.46.05,2.89.05,3.3.05.42-.03.55-.13.55-.49v-6.34h-9.44v-2.13h9.44v-2.5h-8.5v-2.11h5.15v-2.96h-6.16v-2.16h6.16v-2.96h2.39v2.96h6.21v2.16h-6.21ZM155.21,36.25c1.14,1.3,2.57,3.09,3.25,4.29l-2.13,1.27c-.6-1.17-1.98-3.09-3.12-4.47l2-1.09Z" style="fill: #1d7068;"/>
        <path d="M178.01,30.51c.91.94,3.22,3.67,3.74,4.34l-1.46,1.95c-.44-.86-1.4-2.29-2.29-3.54v11.39h-2.31v-11.47c-.94,2.68-2.13,5.23-3.38,6.84-.26-.68-.83-1.66-1.2-2.21,1.74-2.13,3.43-5.95,4.26-9.28h-3.67v-2.29h3.98v-5.43h2.31v5.43h3.48v2.29h-3.48v1.98ZM194.36,22.27v22.07h-2.42v-1.4h-7.07v1.53h-2.31v-22.2h11.8ZM184.87,24.55v3.82h7.07v-3.82h-7.07ZM184.87,34.54h7.07v-3.95h-7.07v3.95ZM191.95,40.73v-3.98h-7.07v3.98h7.07Z" style="fill: #1d7068;"/>
        <path d="M207.05,21.56c-.55,1.72-1.22,3.43-1.95,5.12v17.97h-2.31v-13.55c-.6.99-1.22,1.85-1.87,2.63-.18-.57-.81-1.92-1.2-2.55,2.08-2.5,3.95-6.37,5.07-10.24l2.26.62ZM223.51,37.35h-7.33v7.31h-2.42v-7.31h-7.2v-2.26h7.2v-3.48h-6.14v-2.26h6.14v-8.5h2.42v8.5h6.29v2.26h-6.29v3.48h7.33v2.26ZM210.79,28.77c-.65-1.46-2.13-3.85-3.35-5.59l1.95-.91c1.25,1.69,2.7,3.95,3.43,5.38l-2.03,1.12ZM222.05,22.89c-.78,1.98-1.95,4.37-2.81,5.85-.49-.29-1.48-.73-2.05-.96.94-1.48,2-3.67,2.68-5.51l2.18.62Z" style="fill: #1d7068;"/>
        <path d="M231.65,40.55c0-1.35,1.07-2.29,2.37-2.29s2.37.94,2.37,2.29-1.07,2.26-2.37,2.26-2.37-.91-2.37-2.26ZM232.19,26.61l-.08-3.43h3.82l-.08,3.43-.78,9.57h-2.13l-.75-9.57Z" style="fill: #1d7068;"/>
      </g>
    </g>
  </g>
</svg>