<?xml version="1.0" encoding="UTF-8"?>
<svg id="_圖層_2" data-name="圖層 2" xmlns="http://www.w3.org/2000/svg" width="469.01" height="240.06" viewBox="0 0 469.01 240.06">
  <g id="_設計" data-name="設計">
    <g>
      <path d="M75.44,31.98v10.58H0v-10.58h75.44Z" style="fill: #fff;"/>
      <path d="M120.21,63.14c4.35,1.48,9.84,1.8,16.4,1.8,6.23.08,27.96.08,35.34-.33-1.48,2.3-3.12,6.72-3.69,9.68h-31.65c-15.17,0-24.93-2.05-31.41-11.23-.82,5.58-2.05,10.41-3.77,14.43-1.8-1.15-6.15-3.28-8.2-4.18,4.02-8.28,4.84-21.98,5-36l8.94.66c-.08,3.61-.25,7.22-.41,10.58,1.15,3.61,2.71,6.48,4.51,8.69v-24.68h-15.91v-8.53h13.86v-7.63h-11.56V7.95h11.56V0h9.18v7.95h10.91v8.45h-10.91v7.63h12.88v8.53h-11.07v8.86h10.41v8.45h-10.41v13.28ZM146.86,61.17c-9.18,0-12.14-2.79-12.14-13.2V2.95h31.65v31.16h-22.22v13.86c0,3.77.49,4.43,3.94,4.43h10.58c3.12,0,3.69-1.89,4.18-10.58,2.05,1.56,5.9,3.12,8.53,3.77-1.07,11.64-3.69,15.58-11.89,15.58h-12.63ZM144.16,11.48v14.19h12.88v-14.19h-12.88Z" style="fill: #fff;"/>
      <path d="M75.11,146.81v9.51H.41v-9.51h17.63v-15.74H3.28v-9.43h14.76v-15.17h10.17v15.17h18.86v-15.17h10.17v15.17h15.33v9.43h-15.33v15.74h17.88ZM31.98,163.46c-6.15,7.05-15.17,14.43-23.04,19.11-2.13-2.13-5.74-5.25-8.04-6.81,7.71-4.1,16.4-10.82,20.75-16.32l10.33,4.02ZM28.21,146.81h18.86v-15.74h-18.86v15.74ZM52.23,159.2c6.97,5,17.14,12.63,22.3,17.63l-9.68,5.74c-4.51-5-14.27-12.96-21.57-18.53l8.94-4.84Z" style="fill: #fff;"/>
      <path d="M125.62,130.99c-.25,8.45-1.39,18.61-5.66,28.37,3.94,3.69,7.54,7.05,9.92,9.92l-6.4,8.12c-2.05-2.62-5-5.82-8.36-9.18-3.44,5.17-7.87,10-13.94,14.43-1.48-2.05-4.67-5.25-6.89-6.81,6.15-4.35,10.66-9.18,13.86-14.35-4.18-3.85-8.53-7.79-12.22-11.07,1.31-4.92,2.71-11.15,3.85-17.88l-4.59.33-.9-9.27c2.13-.08,4.51-.16,6.97-.25.82-5.9,1.48-11.81,1.8-17.22l9.68.41c-.49,5.17-1.15,10.74-2.05,16.4l5.9-.33v-5.17h9.1v4.67l4.26-.25v8.77l-4.35.33ZM109.22,132.05c-.98,5.41-1.97,10.74-3.03,15.42,2.05,1.72,4.18,3.53,6.31,5.33,2.79-7.38,3.77-14.84,4.02-21.24l-7.3.49ZM171.05,148.86h-16.4v23.04c0,5-1.07,7.46-4.51,9.02-3.28,1.39-7.95,1.64-14.35,1.56-.49-2.71-1.89-6.72-3.28-9.27,4.1.08,8.86.08,10.17.08,1.39,0,1.8-.33,1.8-1.56v-22.88h-17.22v-9.27h17.22v-7.87c3.53-3.12,7.13-7.71,10-11.97h-24.03v-8.86h30.42l2.3-.49,6.56,4.76c-3.85,5.99-9.27,12.87-15.09,18.29v6.15h16.4v9.27Z" style="fill: #fff;"/>
      <path d="M264.94,170.59v9.59h-73.72v-9.59h31.65v-16.48h-22.22v-9.43h22.22v-14.43h-16.97c-2.38,4.51-4.92,8.69-7.63,11.89-1.97-1.56-6.31-4.51-8.77-5.82,6.4-6.89,11.73-18.2,14.51-29.36l10.09,2.21c-1.15,3.94-2.46,7.79-3.85,11.56h12.63v-14.76h10.25v14.76h27.63v9.51h-27.63v14.43h24.52v9.43h-24.52v16.48h31.82Z" style="fill: #fff;"/>
      <path d="M300.37,145.42c-3.36-2.38-10.41-6.23-15.25-8.86l5.25-7.22c4.51,2.21,11.81,5.74,15.42,7.95l-5.41,8.12ZM286.26,174.94c4.35-6.15,10.66-16.32,15.58-25.83l7.13,6.56c-4.35,8.61-9.51,17.96-14.51,25.91l-8.2-6.64ZM303.89,123.03c-3.2-2.46-10.17-6.31-14.92-9.02l5.49-7.05c4.59,2.3,11.73,5.9,15.25,8.2l-5.82,7.87ZM340.22,139.02v10.33h16.73v32.72h-9.27v-2.95h-24.68v3.36h-8.77v-33.13h16.73v-10.33h-21.81v-9.35h21.81v-9.59c-5.41.82-10.82,1.39-15.99,1.89-.33-2.38-1.64-6.15-2.71-8.36,13.94-1.39,29.28-4.1,38.29-7.71l7.54,7.71c-5.33,2.05-11.4,3.61-17.88,4.84v11.23h20.83v9.35h-20.83ZM347.68,158.21h-24.68v12.05h24.68v-12.05Z" style="fill: #fff;"/>
    </g>
    <g>
      <path d="M24.06,231.34c-.08,1.05-.12,1.92-.2,2.72h2.8v2.6h-3.1c-.18,1.05-.38,1.67-.65,2.05-.55.8-1.22,1.05-2.07,1.17-.8.12-2.07.12-3.32.05-.03-.65-.35-1.62-.72-2.27,1.12.1,2.1.12,2.62.1.42,0,.65-.05.88-.4.1-.15.2-.35.3-.7H7.14c.3-1.47.6-3.35.9-5.32h-3.45v-2.65h3.82c.2-1.5.38-3.05.53-4.42-.62.75-1.22,1.47-1.85,2.1-.62-.47-1.93-1.35-2.67-1.72,2.3-1.92,4.47-5.07,5.75-8.15l2.95.85c-.23.5-.47,1.02-.72,1.55h14.42v2.65h-15.97c-.42.67-.85,1.3-1.3,1.92h14.8s-.02.95-.02,1.3c-.05,1.45-.1,2.72-.15,3.92h3.6v2.65h-3.7ZM11.01,231.24c-.15,1-.28,1.92-.43,2.82h5.47c-.88-.67-1.97-1.37-2.97-1.85l1-.97h-3.07ZM11.69,226.06c-.1.9-.22,1.8-.35,2.72h4.97c-.88-.65-1.92-1.3-2.9-1.72l1.03-1h-2.75ZM20.96,234.06c.05-.8.12-1.7.17-2.82h-5.2c1.15.62,2.25,1.37,2.92,1.97l-.85.85h2.95ZM21.23,228.79c.05-.85.07-1.72.1-2.72h-5.07c1.1.57,2.17,1.3,2.85,1.87l-.85.85h2.97Z" style="fill: #fff;"/>
      <path d="M55.16,226.44v3.22h-22.99v-3.22h22.99Z" style="fill: #fff;"/>
      <path d="M66.94,232.09c-.3-.72-.82-1.85-1.37-2.92v10.77h-2.7v-9.35c-.65,1.92-1.42,3.67-2.27,4.92-.28-.82-.88-1.95-1.3-2.62,1.4-1.95,2.72-5.42,3.35-8.37h-2.77v-2.75h3v-5.15h2.7v5.15h2.5v2.75h-2.5v1.1c.67.92,2.47,3.67,2.9,4.35l-1.53,2.12ZM73.73,233.11c-.9,3.07-2.82,5.25-5.17,6.45-.32-.55-1.05-1.42-1.52-1.9,1.37-.62,2.65-1.75,3.47-3.12h-2.72v-2h3.9l.42-.07,1.62.65ZM82.66,231.91c-1.22.9-2.55,1.82-3.67,2.52,1.15,1.17,2.57,2.12,4.15,2.7-.58.5-1.35,1.52-1.75,2.17-1.8-.87-3.38-2.27-4.6-4v1.95c0,1.25-.22,1.9-1.07,2.3-.82.4-1.92.42-3.45.42-.07-.75-.42-1.77-.75-2.42.88.02,1.82.02,2.1,0,.3,0,.4-.07.4-.35v-5.52h-4.1v-2.02h6c-1.15-.47-2.42-.95-3.52-1.27l.72-.8h-5.1v-2.17h5.95v-.97h-4.35v-2.02h4.35v-.92h-5.25v-2.1h2.65c-.3-.65-.72-1.37-1.12-1.97l2.17-.8c.57.75,1.22,1.82,1.52,2.5l-.65.27h4.02l-.5-.18c.45-.75,1-1.87,1.3-2.6l2.62.75c-.55.75-1.05,1.42-1.5,2.02h3.08v2.1h-5.5v.92h4.9v2.02h-4.9v.97h5.92v2.17h-6.22c1.17.42,2.35.9,3.12,1.35l-1.57,1.77c-.35-.2-.78-.42-1.28-.65v1.25c.25.55.55,1.05.9,1.55,1-.8,2.1-1.8,2.8-2.57l2.17,1.62Z" style="fill: #fff;"/>
      <path d="M96.76,230.26c-.9.25-1.77.55-2.7.82v8.9h-2.72v-8.07c-1.35.4-2.6.8-3.75,1.1l-.72-2.82c1.25-.27,2.77-.67,4.47-1.15v-4.77h-1.67c-.28,1.22-.57,2.3-.92,3.2-.45-.37-1.55-1.05-2.1-1.37.77-1.97,1.2-5.1,1.42-8.05l2.47.42c-.1,1-.22,1.97-.38,2.97h1.17v-4.8h2.72v4.8h2.08v2.82h-2.08v4.02l2.3-.65.4,2.62ZM110.21,220.49s-.03,1-.05,1.35c-.47,11.15-.92,15.22-1.87,16.47-.58.85-1.12,1.12-1.95,1.3-.7.12-1.75.12-2.83.07-.08-.85-.37-2.07-.83-2.9.93.1,1.75.1,2.22.1.38,0,.62-.1.93-.47.62-.8,1.07-4.2,1.47-13.17h-.12c-1.22,6.3-3.8,12.8-7.82,16.12-.57-.57-1.6-1.3-2.42-1.72,4-2.87,6.5-8.55,7.75-14.4h-1.17c-1.1,4.07-3.2,8.55-5.72,10.95-.55-.57-1.5-1.25-2.27-1.67,2.47-1.95,4.42-5.65,5.52-9.27h-1.28c-.72,1.72-1.6,3.27-2.57,4.47-.47-.47-1.65-1.3-2.25-1.67,1.97-2.17,3.35-5.75,4.1-9.42l2.7.5c-.25,1.15-.57,2.27-.92,3.37h9.4Z" style="fill: #fff;"/>
      <path d="M122.56,217.62c-.67,1.77-1.5,3.6-2.45,5.32v17h-2.82v-12.57c-.5.62-1,1.25-1.5,1.8-.27-.75-1.1-2.35-1.6-3.1,2.2-2.25,4.32-5.8,5.55-9.35l2.82.9ZM137.71,231.56h-6.4v8.4h-3v-8.4h-6.75v-2.9h6.75v-4.3h-3.05c-.45,1.22-1,2.35-1.55,3.22-.55-.4-1.85-1.1-2.57-1.42,1.35-1.95,2.37-5.12,2.95-8.17l2.87.6c-.2.97-.45,1.92-.73,2.87h2.08v-4.52h3v4.52h5.22v2.9h-5.22v4.3h6.4v2.9Z" style="fill: #fff;"/>
      <path d="M144.49,231.76c1.95-.62,3.07-1.7,3.22-3.02-.08.03-.17.03-.27.03-1.25,0-2.38-.8-2.38-2.22s1.12-2.25,2.45-2.25c1.78,0,2.7,1.32,2.7,3.42,0,2.82-1.82,5.15-4.92,6.05l-.8-2Z" style="fill: #fff;"/>
      <path d="M180.46,219.24c-.9,2.4-2,5.22-3.02,7.42,2.12,2.22,2.55,4.2,2.55,5.8,0,1.87-.4,3.1-1.4,3.75-.45.35-1.07.57-1.75.67-.58.08-1.4.08-2.17.03-.02-.8-.3-2.07-.75-2.87.6.05,1.12.07,1.58.05.38,0,.75-.07,1-.22.47-.27.65-.87.65-1.7,0-1.37-.57-3.2-2.57-5.12.72-1.8,1.57-4.32,2.2-6.25h-3.17v19.15h-2.92v-21.39c-.75,1.9-1.62,3.7-2.67,5.32h1.85v2.6h-3.72c-.53.65-1.05,1.22-1.6,1.82h4.5v11.27h-2.82v-.95h-4.02v1.27h-2.7v-7.57c-.43.27-.85.52-1.25.75-.33-.62-1.17-1.87-1.72-2.47,2.22-1.07,4.22-2.45,5.97-4.12h-5.32v-2.6h4.35v-2.05h-3.27v-2.55h3.27v-2.42h2.75v2.42h2.57v1.27c.47-.87.85-1.82,1.22-2.8l2.62.72v-.47h7.2l.45-.1,2.15,1.35ZM166.19,230.64h-4.02v1.6h4.02v-1.6ZM166.19,236.24v-1.77h-4.02v1.77h4.02ZM164.74,223.86c.47-.65.92-1.32,1.38-2.05h-1.88v2.05h.5Z" style="fill: #fff;"/>
      <path d="M197.91,236.74c.65.05,1.32.07,2,.07,1.4,0,6.2,0,7.97-.07-.4.67-.85,1.97-1,2.85h-7.12c-4.57,0-7.67-.65-9.77-3.55-.9,1.65-2.05,2.97-3.5,3.97-.42-.55-1.57-1.65-2.25-2.07,2.55-1.57,4.07-4.22,4.65-7.57l2.97.45c-.18.8-.38,1.55-.58,2.27.77,1.7,2,2.62,3.6,3.12v-6.35h-9.75v-2.62h22.04v2.62h-9.27v1.87h7.7v2.57h-7.7v2.42ZM204.81,226.14h-17.37v-8.67h17.37v8.67ZM201.78,219.54h-11.45v1.27h11.45v-1.27ZM201.78,222.76h-11.45v1.3h11.45v-1.3Z" style="fill: #fff;"/>
      <path d="M235.16,226.44v3.22h-22.99v-3.22h22.99Z" style="fill: #fff;"/>
      <path d="M252.86,229.14c-.2.4-.45.8-.7,1.2h10.15s-.03.67-.05,1.02c-.35,4.87-.75,6.87-1.43,7.6-.47.57-1.02.77-1.65.85-.58.08-1.53.1-2.53.05-.05-.7-.3-1.7-.67-2.32.8.07,1.45.07,1.77.07.35,0,.55-.05.75-.27.35-.37.65-1.65.93-4.67h-.97c-1.03,2.8-2.97,5.82-5,7.4-.5-.57-1.35-1.25-2.1-1.65,1.9-1.2,3.57-3.42,4.65-5.75h-1.47c-1.35,2.4-3.67,4.9-5.85,6.27-.47-.57-1.25-1.32-1.95-1.75,1.85-.92,3.77-2.67,5.1-4.52h-1.5c-.9.95-1.88,1.8-2.9,2.45-.38-.47-1.32-1.35-1.95-1.75-1.8.9-3.6,1.8-5.12,2.55l-1.1-3c.85-.32,1.9-.75,3.07-1.22v-7.05h-2.5v-2.8h2.5v-4.92h2.75v4.92h2.35v2.8h-2.35v5.9l2-.87.53,2.12c.9-.77,1.67-1.67,2.3-2.65h-2.82v-2.5h15.72v2.5h-9.95ZM261.11,225.69h-11.82v-8.45h11.82v8.45ZM258.36,219.29h-6.45v1.2h6.45v-1.2ZM258.36,222.44h-6.45v1.2h6.45v-1.2Z" style="fill: #fff;"/>
      <path d="M274.94,217.59c-.65,1.72-1.45,3.47-2.37,5.12v17.2h-2.85v-12.77c-.55.75-1.12,1.42-1.68,2.02-.27-.75-1.1-2.37-1.6-3.1,2.25-2.25,4.42-5.8,5.67-9.35l2.82.87ZM283.78,223.84v12.8c0,1.42-.25,2.25-1.15,2.75-.88.47-2.08.6-3.67.6-.12-.87-.58-2.2-1.02-3,1.05.02,2.1.02,2.45.02.32,0,.45-.1.45-.42v-12.75h-2.9c-.7,1.45-1.53,2.77-2.35,3.82-.53-.52-1.72-1.5-2.4-1.95,1.9-2.12,3.4-5.57,4.25-9l2.9.65c-.32,1.27-.72,2.5-1.17,3.72h8.6l.47-.1,2.1.4c-.3,2.02-.72,4.35-1.07,5.8l-2.53-.42c.12-.77.28-1.82.4-2.92h-3.35ZM279.63,228.34c-.72,3.17-2,6.32-3.4,8.35-.58-.48-1.83-1.22-2.55-1.6,1.42-1.75,2.47-4.57,3.05-7.35l2.9.6ZM287.33,227.49c1.3,2.57,2.37,5.9,2.72,8.15l-2.85.97c-.27-2.22-1.33-5.65-2.52-8.22l2.65-.9Z" style="fill: #fff;"/>
      <path d="M317.63,234.24h-7.05c2.35,1.1,4.85,2.4,6.37,3.35l-1.97,2.27c-1.6-1.1-4.35-2.7-6.82-3.9l1.32-1.72h-7.42l2.1,1.72c-2.15,1.42-5.27,3-7.72,3.97-.38-.62-1.1-1.6-1.65-2.22,2.2-.82,5.07-2.25,6.75-3.47h-6.82v-2.75h2.25l-.43-12.9c1.58-.5,3.5-1.25,4.77-1.85l1.27,2.42c-1.05.37-2.22.67-3.35.97l.08,2.25h2.85v2.42h-2.77l.08,2.15h2.77v2.42h-2.7l.07,2.1h13.05c.05-.65.08-1.3.12-2.02h-2.52v-2.45h2.62c.03-.7.05-1.42.08-2.15h-2.53v-2.45h2.6c0-.72,0-1.42.03-2.15h-2.88v-2.55h5.6c0,4.45-.12,10.02-.33,13.77h2.17v2.75ZM305.71,226.11c-.18,1.62-.58,3.27-1.28,4.32-.38-.32-1.35-.9-1.88-1.17.62-.92.83-2.2.93-3.52l2.22.38ZM306.91,225.14h-3.77v-8.3h2.52v1.7h3.92v2.45h-3.92v1.82h2.77v.05h.95v6.32c0,1.02-.2,1.45-.88,1.77-.65.3-1.62.3-2.85.3-.1-.57-.4-1.3-.65-1.82.65.05,1.38.05,1.6.02.23,0,.3-.05.3-.27v-4.05Z" style="fill: #fff;"/>
      <path d="M344.93,236.34v2.92h-22.47v-2.92h9.65v-5.02h-6.77v-2.87h6.77v-4.4h-5.17c-.73,1.37-1.5,2.65-2.33,3.62-.6-.47-1.92-1.37-2.67-1.77,1.95-2.1,3.57-5.55,4.42-8.95l3.07.67c-.35,1.2-.75,2.37-1.17,3.52h3.85v-4.5h3.12v4.5h8.42v2.9h-8.42v4.4h7.47v2.87h-7.47v5.02h9.7Z" style="fill: #fff;"/>
      <path d="M354.24,228.66c-1.02-.72-3.17-1.9-4.65-2.7l1.6-2.2c1.38.67,3.6,1.75,4.7,2.42l-1.65,2.47ZM349.94,237.66c1.33-1.87,3.25-4.97,4.75-7.87l2.17,2c-1.32,2.62-2.9,5.47-4.42,7.9l-2.5-2.02ZM355.31,221.84c-.97-.75-3.1-1.92-4.55-2.75l1.67-2.15c1.4.7,3.57,1.8,4.65,2.5l-1.77,2.4ZM366.38,226.71v3.15h5.1v9.97h-2.82v-.9h-7.52v1.02h-2.67v-10.1h5.1v-3.15h-6.65v-2.85h6.65v-2.92c-1.65.25-3.3.43-4.87.57-.1-.72-.5-1.87-.82-2.55,4.25-.43,8.92-1.25,11.67-2.35l2.3,2.35c-1.62.62-3.47,1.1-5.45,1.47v3.42h6.35v2.85h-6.35ZM368.66,232.56h-7.52v3.67h7.52v-3.67Z" style="fill: #fff;"/>
      <path d="M399.68,220.46s0,1-.03,1.35c-.33,11.17-.6,15.15-1.62,16.47-.7.92-1.4,1.2-2.4,1.37-.95.12-2.45.1-3.92.05-.05-.82-.45-2.07-.97-2.9,1.6.15,3.07.15,3.72.15.5,0,.77-.1,1.1-.43.72-.8,1.05-4.55,1.32-13.37h-5.35c-.65,1.5-1.43,2.87-2.2,3.95-.4-.38-1.25-.95-1.92-1.4v11.67h-6.67v1.82h-2.7v-18.57h2.82c.33-1.25.62-2.85.73-4.02l3.25.45c-.42,1.25-.88,2.5-1.3,3.57h3.87v4.05c1.45-2.1,2.65-5.12,3.38-8.05l2.82.65c-.25,1.07-.6,2.12-.97,3.17h7.05ZM384.71,223.24h-3.97v4.05h3.97v-4.05ZM384.71,234.76v-4.9h-3.97v4.9h3.97ZM393.01,233.41c-.7-1.5-2.25-3.95-3.47-5.77l2.32-1.32c1.25,1.72,2.9,4.1,3.67,5.55l-2.52,1.55Z" style="fill: #fff;"/>
      <path d="M412.44,235.54c1.58-.17,3.2-.35,4.8-.52l.05,2.57c-4.3.55-8.95,1.05-12.25,1.4l-.37-2.7c1.4-.12,3.15-.28,5.02-.48v-1.87h-3.75v-2.4h3.75v-1.67h-4.22v-2.4h2.7c-.38-.75-1.03-1.67-1.6-2.37l1.28-.7h-3.12v-2.45h3.4v-1.17l-1.27.9c-.35-.85-1.25-2.1-2.05-3l1.8-1.17c.5.52,1.07,1.2,1.52,1.82v-2.67h2.32v5.3h1.15v-5.3h2.38v2.9c.52-.67,1.05-1.37,1.35-1.95l2.32,1.27c-1,1.07-2.05,2.15-2.85,2.87l-.82-.52v.72h3.25v2.45h-3.25l1.7.6c-.42.85-.9,1.7-1.35,2.47h2.2v2.4h-4.07v1.67h3.75v2.4h-3.75v1.6ZM408.99,224.39c.6.72,1.2,1.57,1.45,2.22l-1.47.85h2.67c.47-.87,1.05-2.1,1.37-3.07h-4.02ZM427.46,225.69h-1.9v10.9c0,1.52-.3,2.27-1.22,2.75-.87.5-2.2.6-4.15.57-.15-.77-.6-2.05-1-2.82,1.27.05,2.52.05,2.92.05.42,0,.57-.12.57-.55v-10.9h-5.37v-2.77h5.37v-6.25h2.87v6.25h1.9v2.77ZM419.38,233.56c-.15-1.47-.93-3.82-1.8-5.65l2.45-.82c.92,1.75,1.77,4.02,1.97,5.55l-2.62.92Z" style="fill: #fff;"/>
      <path d="M437.14,220.74h4.47v2.35h-9.65v-2.35h4.3c-.38-.95-1.02-2.2-1.6-3.15l2.3-1.07c.7,1.02,1.45,2.4,1.85,3.32l-1.67.9ZM440.89,238.59h-5.37v1.05h-2.5v-8.62h7.87v7.57ZM440.71,226.46h-7.65v-2.25h7.65v2.25ZM433.06,227.56h7.65v2.25h-7.65v-2.25ZM435.51,233.39v2.8h2.8v-2.8h-2.8ZM449.76,226.91v3.45h4.3v9.52h-2.85v-.8h-5.62v.9h-2.72v-9.62h4.17v-3.45h-5.3v-2.8h5.3v-3.52c-1.37.18-2.75.32-4.02.42-.1-.65-.45-1.75-.75-2.4,3.65-.37,7.72-1.02,10.27-1.9l1.8,2.4c-1.37.42-2.92.8-4.57,1.07v3.92h5.55v2.8h-5.55ZM451.21,233.06h-5.62v3.32h5.62v-3.32Z" style="fill: #fff;"/>
      <path d="M464.96,224.26c2.25,0,4.05,1.82,4.05,4.05s-1.8,4.05-4.05,4.05-4.05-1.82-4.05-4.05,1.83-4.05,4.05-4.05ZM464.96,230.56c1.25,0,2.25-1,2.25-2.25s-1-2.25-2.25-2.25-2.25,1-2.25,2.25,1.02,2.25,2.25,2.25Z" style="fill: #fff;"/>
    </g>
  </g>
</svg>