<?xml version="1.0" encoding="UTF-8"?>
<svg id="_圖層_2" data-name="圖層 2" xmlns="http://www.w3.org/2000/svg" width="442.93" height="204.68" viewBox="0 0 442.93 204.68">
  <g id="_設計" data-name="設計">
    <g>
      <path d="M228.37,171.97h171.8c22.78,0,41.25-18.47,41.25-41.25v-54.34c0-22.78-18.47-41.25-41.25-41.25H75.09c-22.78,0-41.25,18.47-41.25,41.25v54.34c0,22.78,18.47,41.25,41.25,41.25h63.58l72.3,30.8c3.96,1.69,8.01-2.18,6.52-6.21l-9.11-24.59h19.99Z" style="fill: #fff; stroke: #1d7068; stroke-linecap: round; stroke-linejoin: round; stroke-width: 3px;"/>
      <g>
        <path d="M14.56,106H.36v-2.89h11.79v-7.19h2.41v10.08Z" style="fill: #d6a18e;"/>
        <path d="M7.49,92.62c-1.46,0-2.68-.22-3.67-.65-.73-.33-1.38-.77-1.96-1.33-.58-.56-1.01-1.18-1.29-1.85-.38-.89-.57-1.92-.57-3.09,0-2.11.65-3.8,1.96-5.06s3.13-1.9,5.46-1.9,4.12.63,5.42,1.88c1.3,1.26,1.96,2.94,1.96,5.04s-.65,3.82-1.95,5.08-3.09,1.88-5.37,1.88ZM7.39,89.65c1.62,0,2.85-.37,3.69-1.12.84-.75,1.25-1.7,1.25-2.85s-.42-2.1-1.25-2.84-2.08-1.11-3.74-1.11-2.87.36-3.67,1.08c-.81.72-1.21,1.67-1.21,2.87s.41,2.15,1.23,2.88c.82.73,2.05,1.09,3.7,1.09Z" style="fill: #d6a18e;"/>
        <path d="M9.35,65.48l.93-2.79c1.56.46,2.7,1.19,3.45,2.2s1.1,2.29,1.08,3.82c-.03,1.9-.71,3.45-2.02,4.66-1.32,1.2-3.1,1.79-5.36,1.75-2.38-.04-4.22-.68-5.52-1.93-1.3-1.25-1.93-2.88-1.9-4.89.03-1.75.57-3.17,1.62-4.24.62-.64,1.51-1.12,2.66-1.42l.64,2.87c-.75.16-1.34.5-1.78,1.03s-.66,1.18-.68,1.95c-.02,1.06.35,1.93,1.1,2.6s1.98,1.02,3.68,1.05c1.81.03,3.1-.28,3.88-.91.78-.64,1.18-1.48,1.19-2.52.01-.77-.22-1.43-.7-1.99-.48-.56-1.24-.97-2.29-1.23Z" style="fill: #d6a18e;"/>
        <path d="M18.81,47.03l-.89,3.02-3.47.28-1.62,5.49,2.78,2.05-.87,2.94-12.15-9.4.87-2.93,15.35-1.45ZM11.88,50.53l-5.65.39,4.55,3.36,1.11-3.75Z" style="fill: #d6a18e;"/>
        <path d="M21.14,43.32l-10.31-5.94-2.12,3.68-2.1-1.21,5.68-9.86,2.1,1.21-2.12,3.67,10.31,5.94-1.44,2.5Z" style="fill: #d6a18e;"/>
        <path d="M26.73,34.94l-10.9-9.28,1.88-2.2,10.9,9.28-1.88,2.2Z" style="fill: #d6a18e;"/>
        <path d="M26.27,24.47c-.89-1.16-1.46-2.26-1.72-3.31-.19-.78-.23-1.57-.14-2.37.09-.8.32-1.52.68-2.15.48-.84,1.18-1.62,2.1-2.33,1.67-1.28,3.41-1.79,5.21-1.53,1.8.27,3.41,1.33,4.83,3.17,1.41,1.83,2.01,3.65,1.81,5.45-.2,1.8-1.14,3.34-2.81,4.62-1.69,1.3-3.43,1.81-5.21,1.55-1.79-.27-3.38-1.3-4.76-3.11ZM28.57,22.58c.99,1.29,2.03,2.03,3.14,2.24s2.11-.04,3.03-.74,1.41-1.61,1.49-2.71-.38-2.32-1.39-3.64c-1-1.3-2.03-2.05-3.09-2.26-1.06-.2-2.07.06-3.01.78-.94.73-1.46,1.63-1.54,2.73-.08,1.09.38,2.29,1.38,3.6Z" style="fill: #d6a18e;"/>
        <path d="M44.46,20.22l-5.12-13.37,2.63-1.01,8.89,6.83-3.42-8.93,2.51-.96,5.12,13.37-2.71,1.04-8.73-6.66,3.34,8.72-2.51.96Z" style="fill: #d6a18e;"/>
        <path d="M57.8,10.74l2.77-.54c.26.92.67,1.58,1.22,1.97s1.27.55,2.15.46c.93-.09,1.61-.35,2.04-.79.43-.44.62-.92.57-1.44-.03-.34-.16-.61-.38-.83-.22-.22-.58-.39-1.09-.52-.35-.08-1.14-.22-2.36-.4-1.58-.24-2.71-.6-3.38-1.1-.95-.7-1.48-1.62-1.58-2.74-.07-.73.07-1.42.42-2.09.35-.67.9-1.21,1.64-1.61s1.66-.66,2.76-.76c1.79-.17,3.17.09,4.15.79.98.7,1.55,1.7,1.72,3l-2.87.4c-.19-.72-.51-1.22-.94-1.5s-1.06-.38-1.87-.31c-.84.08-1.47.31-1.91.7-.28.25-.41.56-.37.93.03.34.2.61.51.82.39.27,1.3.5,2.74.7s2.5.44,3.2.73c.7.29,1.28.72,1.71,1.3.44.58.7,1.32.79,2.22.08.82-.08,1.6-.46,2.36-.39.76-.98,1.35-1.77,1.77-.8.43-1.81.7-3.05.82-1.8.17-3.23-.11-4.27-.85s-1.74-1.9-2.08-3.48Z" style="fill: #d6a18e;"/>
        <path d="M81.02,14.56V.24h2.89v14.32h-2.89Z" style="fill: #d6a18e;"/>
        <path d="M88.49,14.56V.24h2.81l5.86,9.56V.24h2.69v14.32h-2.9l-5.77-9.34v9.34h-2.69Z" style="fill: #d6a18e;"/>
        <path d="M112.08,14.56V.24h10.62v2.42h-7.72v3.17h7.19v2.41h-7.19v3.9h8v2.41h-10.89Z" style="fill: #d6a18e;"/>
        <path d="M140.13,14.56h-3.14l-1.25-3.25h-5.72l-1.18,3.25h-3.07L131.34.24h3.06l5.73,14.32ZM134.81,8.9l-1.97-5.31-1.93,5.31h3.91Z" style="fill: #d6a18e;"/>
        <path d="M152.62,9.3l2.8.89c-.43,1.56-1.14,2.72-2.14,3.48-1,.76-2.27,1.14-3.8,1.14-1.9,0-3.46-.65-4.69-1.95-1.22-1.3-1.84-3.07-1.84-5.33,0-2.38.62-4.23,1.85-5.55s2.85-1.98,4.85-1.98c1.75,0,3.17.52,4.27,1.55.65.61,1.14,1.49,1.46,2.64l-2.86.68c-.17-.74-.52-1.33-1.06-1.76s-1.19-.64-1.96-.64c-1.06,0-1.92.38-2.58,1.14-.66.76-.99,2-.99,3.7,0,1.81.33,3.1.98,3.87.65.77,1.5,1.15,2.54,1.15.77,0,1.43-.24,1.98-.73.55-.49.95-1.26,1.19-2.3Z" style="fill: #d6a18e;"/>
        <path d="M159.71,14.56V.24h2.89v5.63h5.66V.24h2.89v14.32h-2.89v-6.26h-5.66v6.26h-2.89Z" style="fill: #d6a18e;"/>
        <path d="M195.47,14.56h-3.14l-1.25-3.25h-5.72l-1.18,3.25h-3.07L186.68.24h3.06l5.73,14.32ZM190.15,8.9l-1.97-5.31-1.93,5.31h3.91Z" style="fill: #d6a18e;"/>
        <path d="M198.82,14.56V.24h6.08c1.53,0,2.64.13,3.33.39s1.25.71,1.67,1.37c.42.66.62,1.41.62,2.26,0,1.07-.32,1.96-.95,2.66-.63.7-1.58,1.14-2.83,1.32.62.36,1.14.76,1.55,1.2.41.44.96,1.21,1.65,2.32l1.75,2.79h-3.46l-2.09-3.12c-.74-1.11-1.25-1.81-1.52-2.1s-.56-.49-.87-.6c-.31-.11-.79-.16-1.46-.16h-.59v5.98h-2.89ZM201.71,6.3h2.14c1.39,0,2.25-.06,2.6-.18.35-.12.62-.32.81-.61s.29-.64.29-1.07c0-.48-.13-.87-.39-1.17-.26-.3-.62-.48-1.09-.56-.23-.03-.94-.05-2.11-.05h-2.26v3.63Z" style="fill: #d6a18e;"/>
        <path d="M215.08,14.56V.24h10.62v2.42h-7.72v3.17h7.19v2.41h-7.19v3.9h8v2.41h-10.89Z" style="fill: #d6a18e;"/>
        <path d="M243.11,14.56h-3.14l-1.25-3.25h-5.72l-1.18,3.25h-3.07L234.33.24h3.06l5.73,14.32ZM237.79,8.9l-1.97-5.31-1.93,5.31h3.91Z" style="fill: #d6a18e;"/>
      </g>
      <g>
        <path d="M122.18,79.74c.26-.08.51-.11.74-.11.42,0,.81.13,1.19.4l1.64,1.02c.68.45,1.09,1.08,1.25,1.87.08.19.11.38.11.57,0,.57-.19,1.1-.57,1.59-2.91,3.96-6.7,7.55-11.38,10.76-.08.08-.1.16-.08.25.02.09.07.16.14.2,5.17,2.27,10.78,3.98,16.82,5.15.72.15,1.21.57,1.47,1.25.11.26.17.51.17.74,0,.42-.13.81-.4,1.19-.23.34-.45.66-.68.96-.57.87-1.3,1.49-2.21,1.87-.57.26-1.15.4-1.76.4-.34,0-.68-.04-1.02-.11-.34-.08-.91-.23-1.7-.45-.11-.04-.22-.02-.31.06-.09.08-.14.17-.14.28v17.33c0,.91-.32,1.69-.96,2.35-.64.66-1.44.99-2.38.99h-2.38c-.45,0-.85-.17-1.19-.51s-.51-.74-.51-1.19c0-.15-.06-.23-.17-.23h-20.56c-.15,0-.23.09-.23.28,0,.49-.19.92-.57,1.3-.38.38-.83.57-1.36.57h-1.76c-.94,0-1.74-.32-2.38-.96s-.96-1.44-.96-2.38v-17.62c0-.11-.05-.2-.14-.25-.09-.06-.2-.08-.31-.08-1.02.3-1.98.59-2.89.85-.34.08-.66.11-.96.11-.6,0-1.19-.15-1.76-.45-.83-.45-1.49-1.11-1.98-1.98-.04-.11-.09-.23-.17-.34-.23-.38-.34-.77-.34-1.19,0-.3.08-.62.23-.96.3-.72.83-1.15,1.59-1.3,6.31-1.4,12.21-3.32,17.73-5.78.08-.04.11-.1.11-.2s-.04-.18-.11-.25c-2.23-1.7-4.32-3.53-6.29-5.49-.19-.23-.4-.25-.62-.06-1.55,1.4-3.23,2.74-5.04,4.02-.64.42-1.32.62-2.04.62h-.57c-.91-.15-1.7-.57-2.38-1.25-.15-.15-.3-.28-.45-.4-.49-.53-.74-1.11-.74-1.76,0-.11.02-.23.06-.34.08-.79.45-1.42,1.13-1.87,5.66-3.47,10.25-7.72,13.76-12.74.57-.79,1.3-1.36,2.21-1.7.49-.15.96-.23,1.42-.23s.91.08,1.36.23l.23.06c.79.3,1.34.85,1.64,1.64.08.3.11.59.11.85,0,.49-.13.96-.4,1.42-.19.26-.36.51-.51.74-.08.08-.08.15-.03.23.06.08.12.11.2.11h17.84c.08,0,.15-.02.23-.06ZM91.71,106.64c0,.08.02.11.06.11h31.72s.07-.02.08-.06c.02-.04,0-.06-.03-.06-5.74-1.7-10.82-3.79-15.24-6.29-.26-.15-.51-.15-.74,0-4.57,2.42-9.86,4.51-15.86,6.29ZM97.09,119.84c0,.3.13.45.4.45h20.16c.26,0,.4-.15.4-.45v-6.4c0-.26-.13-.4-.4-.4h-20.16c-.26,0-.4.13-.4.4v6.4ZM116.52,86.02c.04-.08.04-.15,0-.23-.04-.08-.09-.11-.17-.11h-16.88c-.08,0-.13.04-.17.11-.04.08-.02.15.06.23,2.08,2.08,4.81,4.17,8.21,6.29.23.15.47.15.74,0,3.4-2.08,6.14-4.17,8.21-6.29Z" style="fill: #1d7068;"/>
        <path d="M194.88,119.89c.87,0,1.6.3,2.21.91.6.6.91,1.33.91,2.18s-.3,1.58-.91,2.18c-.6.6-1.34.91-2.21.91h-40.72c-.15,0-.23.09-.23.28,0,.57-.2,1.05-.59,1.44s-.9.59-1.5.59h-1.3c-.91,0-1.69-.32-2.35-.96-.66-.64-.99-1.44-.99-2.38v-45.54c0-.91.33-1.69.99-2.35s1.44-.99,2.35-.99h42.93c.83,0,1.54.3,2.12.91.58.6.88,1.33.88,2.18s-.29,1.57-.88,2.15-1.29.88-2.12.88h-39.14c-.26,0-.4.15-.4.45v36.7c0,.3.13.45.4.45h40.55ZM160.72,116.95c-.91,0-1.69-.32-2.35-.96-.66-.64-.99-1.43-.99-2.38v-8.89c0-.94.33-1.74.99-2.38.66-.64,1.44-.96,2.35-.96h9.35c.91,0,1.69.32,2.35.96.66.64.99,1.44.99,2.38v8.89c0,.94-.33,1.74-.99,2.38-.66.64-1.44.96-2.35.96h-9.35ZM163.38,106.02c-.26,0-.4.13-.4.4v5.49c0,.26.13.4.4.4h3.68c.26,0,.4-.13.4-.4v-5.49c0-.26-.13-.4-.4-.4h-3.68ZM182.7,85c.94,0,1.74.33,2.38.99.64.66.96,1.44.96,2.35v7.14c0,.91-.32,1.69-.96,2.35-.64.66-1.44.99-2.38.99h-16.03c-.94,0-1.74-.33-2.38-.99-.64-.66-.96-1.44-.96-2.35v-7.14c0-.91.32-1.69.96-2.35.64-.66,1.43-.99,2.38-.99h16.03ZM178.85,94.29c.26,0,.4-.15.4-.45v-3.85c0-.3-.13-.45-.4-.45h-8.67c-.3,0-.45.15-.45.45v3.85c0,.3.15.45.45.45h8.67ZM188.99,101.37c.91,0,1.69.32,2.35.96.66.64.99,1.44.99,2.38v8.89c0,.94-.33,1.74-.99,2.38-.66.64-1.44.96-2.35.96h-9.69c-.94,0-1.74-.32-2.38-.96-.64-.64-.96-1.43-.96-2.38v-8.89c0-.94.32-1.74.96-2.38s1.43-.96,2.38-.96h9.69ZM185.93,112.3c.26,0,.4-.13.4-.4v-5.49c0-.26-.13-.4-.4-.4h-3.85c-.3,0-.45.13-.45.4v5.49c0,.26.15.4.45.4h3.85Z" style="fill: #1d7068;"/>
        <path d="M221.86,99.22c.26-.08.53-.11.79-.11.53,0,1.02.17,1.47.51.68.45,1.08,1.08,1.19,1.87.04.19.06.38.06.57,0,.68-.19,1.32-.57,1.93-.49.76-1.17,1.28-2.04,1.59-.76.23-1.38.42-1.87.57-.26.08-.4.25-.4.51v14.56c0,1.66-.17,2.94-.51,3.82-.34.89-.94,1.59-1.81,2.12-1.02.68-2.57,1.08-4.64,1.19h-.23c-.83,0-1.57-.26-2.21-.79-.72-.6-1.21-1.38-1.47-2.32-.08-.23-.11-.45-.11-.68,0-.49.15-.94.45-1.36.45-.64,1.06-.96,1.81-.96h.06c.45.04.96.06,1.53.06.34,0,.58-.08.74-.23s.23-.43.23-.85v-12.69c0-.11-.04-.2-.11-.25-.08-.06-.17-.07-.28-.03-.49.11-1.1.28-1.81.51-.3.08-.6.11-.91.11-.53,0-1.06-.15-1.59-.45-.79-.49-1.28-1.17-1.47-2.04v-.11c-.08-.26-.11-.53-.11-.79,0-.6.17-1.17.51-1.7.49-.79,1.19-1.3,2.1-1.53.26-.08.77-.21,1.53-.4.75-.19,1.34-.32,1.76-.4.26-.08.4-.26.4-.57v-8.95c0-.26-.13-.4-.4-.4h-2.32c-.87,0-1.61-.31-2.24-.93s-.93-1.37-.93-2.24.31-1.61.93-2.24,1.37-.93,2.24-.93h2.32c.26,0,.4-.13.4-.4v-7.42c0-.87.3-1.59.91-2.18.6-.58,1.33-.88,2.18-.88s1.58.29,2.18.88c.6.59.91,1.31.91,2.18v7.42c0,.26.13.4.4.4h.91c.87,0,1.61.31,2.24.93s.93,1.37.93,2.24-.31,1.61-.93,2.24-1.37.93-2.24.93h-.91c-.26,0-.4.13-.4.4v7.31c0,.11.04.2.11.25.08.06.17.07.28.03l.96-.28ZM232.68,89.19c-.26,0-.4.13-.4.4v11.95c0,10.5-1.45,18.56-4.36,24.19-.34.68-.93,1.09-1.76,1.25-.19.04-.38.06-.57.06-.6,0-1.17-.19-1.7-.57-.68-.45-1.11-1.08-1.3-1.87-.08-.3-.11-.59-.11-.85,0-.49.11-.98.34-1.47,1.43-2.83,2.38-5.97,2.83-9.4.45-3.44.68-7.21.68-11.33v-13.88c0-.94.33-1.74.99-2.38.66-.64,1.44-.96,2.35-.96h8.84c.3,0,.45-.15.45-.45v-6.17c0-.91.32-1.68.96-2.32s1.42-.96,2.32-.96h.79c.68,0,1.26.25,1.76.74.49.49.74,1.08.74,1.76,0,.23.11.34.34.34h10.54c.64,0,1.2.24,1.67.71.47.47.71,1.03.71,1.67s-.24,1.2-.71,1.67-1.03.71-1.67.71h-10.42c-.3,0-.45.13-.45.4v1.47c0,.3.15.45.45.45h9.29c1.85,0,3.29.09,4.3.28.57.11,1.01.42,1.33.91.32.49.41,1.02.25,1.59-.42,1.74-.89,3.36-1.42,4.87-.23.72-.68,1.25-1.36,1.59-.45.26-.93.4-1.42.4-.23,0-.45-.04-.68-.11-.68-.15-1.19-.53-1.53-1.13-.23-.38-.34-.77-.34-1.19,0-.23.02-.45.06-.68.11-.42.23-.83.34-1.25.04-.26-.08-.4-.34-.4h-9.52c-.26,0-.4.13-.4.4v1.3c0,.3.13.43.4.4l5.44-.45c.49-.04.93.1,1.33.42.4.32.62.74.68,1.25s-.08.96-.4,1.36c-.32.4-.73.61-1.22.65l-5.83.57c-.26,0-.4.15-.4.45,0,.57.14.93.42,1.08.28.15.9.23,1.84.23h6.23c.75,0,1.25-.15,1.47-.45.53-.83,1.11-1.25,1.76-1.25.15,0,.3.04.45.11.11.04.25.08.4.11.68.19,1.21.57,1.59,1.13.38.57.43,1.13.17,1.7-.38.91-.96,1.54-1.76,1.9-.79.36-1.91.54-3.34.54h-7.7c-2.72,0-4.57-.32-5.55-.96-.98-.64-1.51-1.85-1.59-3.62-.04-.26-.19-.4-.45-.4l-3.23.34c-.53.04-1-.11-1.42-.45-.42-.34-.65-.77-.71-1.3-.06-.53.08-1,.42-1.42.34-.42.77-.64,1.3-.68l3.62-.28c.3-.04.45-.21.45-.51v-1.76c0-.26-.15-.4-.45-.4h-5.83ZM256.13,109.13c.53-.45,1.13-.68,1.81-.68h.06c.64,0,1.23.21,1.76.62.45.38.69.87.71,1.47.02.6-.22,1.1-.71,1.47-1.13.87-2.38,1.74-3.74,2.61-.26.19-.32.4-.17.62,1.36,2.12,2.89,3.79,4.59,5.04.57.45.91,1.04,1.02,1.76.04.15.06.28.06.4,0,.57-.19,1.09-.57,1.59-.53.64-1.17,1.06-1.93,1.25-.19.04-.38.06-.57.06-.57,0-1.1-.19-1.59-.57-4.15-3.55-7.16-9.48-9.01-17.79-.04-.08-.1-.13-.2-.17-.09-.04-.18-.02-.25.06-.83.68-1.72,1.28-2.66,1.81-.23.15-.23.32,0,.51,1.62,1.4,2.9,2.99,3.82,4.79.92,1.79,1.44,3.5,1.56,5.13.04.42.06.83.06,1.25,0,1.13-.13,2.19-.4,3.17-.38,1.36-.96,2.4-1.76,3.12-1.17,1.21-2.72,1.83-4.64,1.87h-.51c-.68,0-1.28-.24-1.81-.71-.53-.47-.89-1.07-1.08-1.78-.15-.57-.07-1.07.25-1.5.32-.43.75-.65,1.27-.65h.79c.94,0,1.62-.28,2.04-.85.53-.57.79-1.51.79-2.83,0-.23-.05-.36-.14-.4-.09-.04-.18-.04-.25,0-3.1,2.34-6.57,4.3-10.42,5.89-.57.23-1.13.24-1.7.03-.57-.21-1.02-.58-1.36-1.1-.19-.26-.28-.55-.28-.85,0-.15.02-.32.06-.51.15-.45.45-.77.91-.96,5.1-1.74,9.04-3.83,11.84-6.29.23-.19.28-.42.17-.68-.08-.11-.17-.26-.28-.45-.11-.26-.3-.3-.57-.11-2.08,1.4-4.46,2.68-7.14,3.85-.57.23-1.11.25-1.64.06-.53-.19-.96-.53-1.3-1.02-.26-.38-.33-.79-.2-1.25.13-.45.42-.75.88-.91,2.91-.91,5.36-2,7.36-3.29.26-.15.28-.32.06-.51,0-.04-.13-.17-.4-.4-.23-.19-.47-.23-.74-.11-1.28.57-2.47,1.04-3.57,1.42-.53.15-1.06.12-1.59-.08-.53-.21-.94-.58-1.25-1.1-.23-.38-.25-.79-.08-1.25s.48-.74.93-.85c2.53-.72,4.83-1.62,6.91-2.72.04,0,.06-.03.06-.08s-.04-.08-.11-.08h-5.72c-.6,0-1.12-.22-1.56-.65-.43-.43-.65-.95-.65-1.56s.22-1.12.65-1.56.95-.65,1.56-.65h23.79c.6,0,1.12.22,1.56.65.43.43.65.95.65,1.56s-.22,1.12-.65,1.56-.95.65-1.56.65h-6.63c-.11,0-.21.04-.28.11s-.09.17-.06.28c.34,1.28.75,2.57,1.25,3.85.11.26.28.3.51.11.68-.53,1.34-1.08,1.98-1.64Z" style="fill: #1d7068;"/>
        <path d="M277.22,126.35c-.34.6-.89,1-1.64,1.19-.23.04-.43.06-.62.06-.49,0-.96-.11-1.42-.34-.57-.3-.93-.77-1.08-1.42-.04-.23-.06-.43-.06-.62,0-.42.11-.83.34-1.25.87-1.62,1.57-3.55,2.1-5.78.11-.64.44-1.13.99-1.47.55-.34,1.12-.42,1.73-.23.68.19,1.19.59,1.53,1.19.26.42.4.87.4,1.36,0,.19-.02.36-.06.51-.57,2.87-1.3,5.13-2.21,6.8ZM275.63,114.34h-.11c-.76,0-1.4-.25-1.93-.74-.6-.57-.91-1.28-.91-2.15,0-.75.26-1.4.79-1.93.53-.6,1.19-.91,1.98-.91.6-.04,2.95-.11,7.02-.23.26,0,.4-.15.4-.45v-1.93c0-.26-.13-.4-.4-.4h-5.89c-.72,0-1.33-.25-1.84-.76s-.76-1.13-.76-1.87.25-1.36.76-1.87,1.12-.76,1.84-.76h5.89c.26,0,.4-.13.4-.4v-1.7c0-.3-.13-.45-.4-.45h-5.27c-.94,0-1.74-.32-2.38-.96-.64-.64-.96-1.43-.96-2.38v-15.18c0-.91.32-1.69.96-2.35.64-.66,1.43-.99,2.38-.99h17.84c.91,0,1.69.33,2.35.99.66.66.99,1.44.99,2.35v15.18c0,.94-.33,1.74-.99,2.38-.66.64-1.44.96-2.35.96h-5.66c-.26,0-.4.15-.4.45v1.7c0,.26.13.4.4.4h6.29c.72,0,1.33.25,1.84.76s.76,1.13.76,1.87-.25,1.36-.76,1.87-1.12.76-1.84.76h-6.29c-.26,0-.4.13-.4.4v1.7c0,.3.13.43.4.4.72,0,1.47-.02,2.27-.06.79-.04,1.67-.08,2.63-.11.96-.04,1.71-.08,2.24-.11h.11c.68,0,1.26.25,1.76.74.49.49.74,1.1.74,1.81,0,.76-.26,1.42-.79,1.98-.53.53-1.17.83-1.93.91-7.55.45-14.48.81-20.79,1.08ZM279.15,83.87s-.02-.06-.06-.06-.06.02-.06.06v8.89c0,.3.13.45.4.45h4.02c.3,0,.45-.15.45-.45v-11.72c0-.3-.15-.45-.45-.45h-4.02c-.26,0-.4.15-.4.45v1.7c0,.19.09.26.28.23.26-.08.53-.11.79-.11.38,0,.77.09,1.19.28.6.34,1,.85,1.19,1.53.42,1.51.72,2.95.91,4.3.08.45-.02.88-.28,1.27-.26.4-.6.67-1.02.82-.42.11-.79.05-1.13-.2-.34-.25-.53-.56-.57-.93-.26-2.08-.68-4.1-1.25-6.06ZM280.67,118.25c-.04-.11-.06-.23-.06-.34,0-.45.13-.85.4-1.19.38-.49.85-.77,1.42-.85.6-.08,1.14.07,1.61.42.47.36.76.84.88,1.44.34,1.93.58,3.85.74,5.78.04.64-.15,1.21-.57,1.7-.42.49-.94.77-1.59.85-.57.04-1.08-.14-1.53-.54s-.7-.88-.74-1.44c-.08-1.81-.26-3.76-.57-5.83ZM286.74,117.91c-.04-.19-.06-.38-.06-.57,0-.34.08-.66.23-.96.3-.45.72-.74,1.25-.85.6-.11,1.16-.02,1.67.28.51.3.86.74,1.05,1.3.6,1.93,1.09,3.76,1.47,5.49.11.6,0,1.15-.34,1.64-.34.49-.81.79-1.42.91-.57.11-1.09,0-1.56-.31-.47-.32-.76-.78-.88-1.39-.34-1.77-.81-3.62-1.42-5.55ZM292.74,83.02c.23.08.34,0,.34-.23v-1.76c0-.3-.15-.45-.45-.45h-4.13c-.26,0-.4.15-.4.45v8.72s.02.06.06.06.06-.02.06-.06c.57-1.7,1.06-3.38,1.47-5.04.19-.68.58-1.19,1.19-1.53.34-.19.7-.28,1.08-.28.26,0,.53.04.79.11ZM288.09,92.76c0,.3.13.45.4.45h4.13c.3,0,.45-.15.45-.45v-7.36c0-.08-.03-.11-.08-.11s-.08.02-.08.06c-.79,2.08-1.32,3.46-1.59,4.13-.23.6-.63,1.03-1.22,1.27-.59.25-1.18.25-1.78.03-.15-.08-.23,0-.23.23v1.76ZM292.8,117.29c-.15-.3-.23-.6-.23-.91,0-.19.04-.4.11-.62.19-.53.55-.91,1.08-1.13.34-.11.66-.17.96-.17s.6.06.91.17c.6.19,1.06.57,1.36,1.13.98,1.66,1.81,3.3,2.49,4.93.15.26.23.55.23.85,0,.34-.08.66-.23.96-.26.6-.72,1.04-1.36,1.3-.57.23-1.13.21-1.7-.06-.57-.26-.96-.7-1.19-1.3-.68-1.7-1.49-3.42-2.44-5.15ZM325,87.13c.62.62.93,1.37.93,2.24s-.31,1.61-.93,2.24-1.37.93-2.24.93h-7.59c-.26,0-.4.15-.4.45v8.04c0,.3.13.45.4.45h5.49c.94,0,1.74.33,2.38.99.64.66.96,1.44.96,2.35v19.99c0,.91-.32,1.68-.96,2.32-.64.64-1.42.96-2.32.96h-1.53c-.49,0-.91-.18-1.25-.54-.34-.36-.51-.78-.51-1.27,0-.15-.08-.23-.23-.23h-10.25c-.19,0-.28.09-.28.28,0,.53-.2.99-.59,1.39s-.86.59-1.39.59h-1.13c-.87,0-1.61-.3-2.21-.91s-.91-1.34-.91-2.21v-20.39c0-.91.32-1.69.96-2.35.64-.66,1.43-.99,2.38-.99h3.79c.3,0,.45-.15.45-.45v-23.39c0-.94.32-1.74.96-2.38s1.43-.96,2.38-.96h.06c.91,0,1.69.32,2.35.96.66.64.99,1.44.99,2.38v8.1c0,.3.13.45.4.45h7.59c.87,0,1.61.31,2.24.93ZM316.98,119.89c.3,0,.45-.15.45-.45v-11.27c0-.26-.15-.4-.45-.4h-9.86c-.3,0-.45.13-.45.4v11.27c0,.3.15.45.45.45h9.86Z" style="fill: #1d7068;"/>
        <path d="M343.12,124.14c-1.51,0-2.77-.53-3.77-1.59-1-1.06-1.5-2.38-1.5-3.96s.5-2.91,1.5-3.96c1-1.06,2.26-1.59,3.77-1.59s2.78.53,3.79,1.59c1.02,1.06,1.53,2.38,1.53,3.96s-.51,2.91-1.53,3.96-2.29,1.59-3.79,1.59Z" style="fill: #1d7068;"/>
        <path d="M367.72,124.14c-1.51,0-2.77-.53-3.77-1.59-1-1.06-1.5-2.38-1.5-3.96s.5-2.91,1.5-3.96c1-1.06,2.26-1.59,3.77-1.59s2.78.53,3.79,1.59c1.02,1.06,1.53,2.38,1.53,3.96s-.51,2.91-1.53,3.96-2.29,1.59-3.79,1.59Z" style="fill: #1d7068;"/>
        <path d="M392.33,124.14c-1.51,0-2.77-.53-3.77-1.59-1-1.06-1.5-2.38-1.5-3.96s.5-2.91,1.5-3.96c1-1.06,2.26-1.59,3.77-1.59s2.78.53,3.79,1.59c1.02,1.06,1.53,2.38,1.53,3.96s-.51,2.91-1.53,3.96-2.29,1.59-3.79,1.59Z" style="fill: #1d7068;"/>
      </g>
    </g>
  </g>
</svg>