<?xml version="1.0" encoding="UTF-8"?>
<svg id="_圖層_2" data-name="圖層 2" xmlns="http://www.w3.org/2000/svg" width="598.44" height="186.47" viewBox="0 0 598.44 186.47">
  <g id="_設計" data-name="設計">
    <path d="M205.68,152.21h340.83c27.85,0,50.43-22.58,50.43-50.43v-49.85c0-27.85-22.58-50.43-50.43-50.43H51.93c-27.85,0-50.43,22.58-50.43,50.43v49.85c0,27.85,22.58,50.43,50.43,50.43h59.6s75.89,32.33,75.89,32.33c4.15,1.77,8.41-2.29,6.84-6.52l-9.56-25.81h20.99Z" style="fill: #fff; stroke: #1d7068; stroke-linecap: round; stroke-linejoin: round; stroke-width: 3px;"/>
    <g>
      <path d="M97.26,56.39c-.08.08-.1.17-.06.25.04.08.12.12.25.12h5.06c1,0,1.86.35,2.59,1.06.73.71,1.09,1.58,1.09,2.62v7.12c0,1.04-.37,1.92-1.09,2.62-.73.71-1.59,1.06-2.59,1.06h-.19c-1.04,0-1.92-.35-2.62-1.06-.71-.71-1.06-1.58-1.06-2.62v-3.88c0-.33-.17-.5-.5-.5h-40c-.33,0-.5.17-.5.5v4c0,1-.34,1.84-1.03,2.53s-1.53,1.03-2.53,1.03-1.84-.34-2.53-1.03-1.03-1.53-1.03-2.53v-7.25c0-1.04.35-1.92,1.06-2.62s1.58-1.06,2.62-1.06h4.25c.12,0,.21-.04.25-.12.04-.08.04-.19,0-.31-.38-.67-.79-1.35-1.25-2.06-.33-.5-.5-1.02-.5-1.56,0-.33.06-.65.19-.94.25-.88.81-1.5,1.69-1.88.58-.21,1.19-.31,1.81-.31.42,0,.83.04,1.25.12,1.08.29,1.92.88,2.5,1.75.96,1.33,1.75,2.6,2.38,3.81.12.25.13.52.03.81-.1.29-.28.5-.53.62-.04,0-.04.02,0,.06h7.31c.33,0,.5-.17.5-.5v-4.5c0-1.04.35-1.92,1.06-2.62s1.58-1.06,2.62-1.06h.19c1.04,0,1.92.35,2.62,1.06.71.71,1.06,1.58,1.06,2.62v4.5c0,.33.17.5.5.5h7.06c-.25-.08-.31-.23-.19-.44.92-1.33,1.83-2.85,2.75-4.56.5-.96,1.23-1.65,2.19-2.06.58-.25,1.17-.38,1.75-.38.42,0,.81.04,1.19.12l1,.31c.88.25,1.46.81,1.75,1.69.08.29.12.58.12.88,0,.5-.17.98-.5,1.44-.71.96-1.38,1.83-2,2.62ZM58.76,107.95c-1,0-1.85-.35-2.56-1.06s-1.06-1.56-1.06-2.56v-17c0-1,.36-1.86,1.09-2.59s1.59-1.09,2.59-1.09h39.25c1,0,1.86.37,2.59,1.09.73.73,1.09,1.59,1.09,2.59v16.88c0,1.04-.37,1.92-1.09,2.62-.73.71-1.59,1.06-2.59,1.06h-2.62c-.38,0-.69-.12-.94-.38s-.38-.56-.38-.94c0-.08-.06-.12-.19-.12h-31.38c-.12,0-.19.04-.19.12,0,.38-.14.7-.41.97-.27.27-.59.41-.97.41h-2.25ZM61.26,70.01c0-1.04.35-1.92,1.06-2.62s1.58-1.06,2.62-1.06h26.44c1.04,0,1.92.35,2.62,1.06.71.71,1.06,1.58,1.06,2.62v7.25c0,1-.35,1.87-1.06,2.59-.71.73-1.58,1.09-2.62,1.09h-26.44c-1.04,0-1.92-.36-2.62-1.09-.71-.73-1.06-1.59-1.06-2.59v-7.25ZM74.32,89.64c0-.33-.17-.5-.5-.5h-10.94c-.33,0-.5.17-.5.5v2.38c0,.29.17.44.5.44h10.94c.33,0,.5-.15.5-.44v-2.38ZM62.38,100.45c0,.29.17.44.5.44h10.94c.33,0,.5-.15.5-.44v-2.38c0-.33-.17-.5-.5-.5h-10.94c-.33,0-.5.17-.5.5v2.38ZM87.07,75.51c.33,0,.5-.17.5-.5v-2.81c0-.29-.17-.44-.5-.44h-18.25c-.33,0-.5.15-.5.44v2.81c0,.33.17.5.5.5h18.25ZM93.69,92.45c.29,0,.44-.15.44-.44v-2.38c0-.33-.15-.5-.44-.5h-11.56c-.33,0-.5.17-.5.5v2.38c0,.29.17.44.5.44h11.56ZM81.63,100.45c0,.29.17.44.5.44h11.56c.29,0,.44-.15.44-.44v-2.38c0-.33-.15-.5-.44-.5h-11.56c-.33,0-.5.17-.5.5v2.38Z" style="fill: #1d7068;"/>
      <path d="M166.41,49.64c1,0,1.86.37,2.59,1.09.73.73,1.09,1.59,1.09,2.59v43.31c0,2.33-.3,4.1-.91,5.31-.6,1.21-1.64,2.12-3.09,2.75-1.79.83-5.29,1.31-10.5,1.44h-.12c-1,0-1.92-.31-2.75-.94-.83-.67-1.46-1.52-1.88-2.56-.12-.38-.29-.75-.5-1.12-.12-.33-.19-.65-.19-.94,0-.42.12-.83.38-1.25.42-.67,1.02-1,1.81-1h.06c2.04.04,4.56.06,7.56.06.79,0,1.33-.13,1.62-.41.29-.27.44-.76.44-1.47v-8.75c0-.33-.17-.5-.5-.5h-26.38c-.33,0-.54.15-.62.44-1.62,6.67-4.29,12.04-8,16.12-.67.67-1.44,1-2.31,1h-.25c-.96-.08-1.83-.48-2.62-1.19l-.19-.19c-.08-.08-.19-.17-.31-.25-.75-.71-1.12-1.58-1.12-2.62,0-.83.29-1.58.88-2.25,1.17-1.29,2.19-2.67,3.06-4.12,1.5-2.5,2.58-5.17,3.25-8,.67-2.83,1.1-5.38,1.31-7.66.21-2.27.31-4.88.31-7.84v-17.38c0-1,.36-1.86,1.09-2.59s1.59-1.09,2.59-1.09h34.19ZM135.97,79.45c-.04.29.1.44.44.44h25.12c.33,0,.5-.17.5-.5v-6.88c0-.29-.17-.44-.5-.44h-24.75c-.29,0-.44.17-.44.5-.08,2.5-.21,4.79-.38,6.88ZM162.03,57.51c0-.29-.17-.44-.5-.44h-24.75c-.29,0-.44.15-.44.44v6.88c0,.33.15.5.44.5h24.75c.33,0,.5-.17.5-.5v-6.88Z" style="fill: #1d7068;"/>
      <path d="M212.74,49.2c1,0,1.86.37,2.59,1.09.73.73,1.09,1.59,1.09,2.59v17.25c0,1-.37,1.87-1.09,2.59s-1.59,1.09-2.59,1.09h-12.69c-.29,0-.44.15-.44.44v28.44c0,1-.37,1.86-1.09,2.59-.73.73-1.59,1.09-2.59,1.09h-.19c-1,0-1.87-.37-2.59-1.09s-1.09-1.59-1.09-2.59v-49.81c0-1,.36-1.86,1.09-2.59s1.59-1.09,2.59-1.09h17ZM209.31,55.76c0-.29-.17-.44-.5-.44h-8.75c-.29,0-.44.15-.44.44v2.38c0,.33.15.5.44.5h8.75c.33,0,.5-.17.5-.5v-2.38ZM199.62,67.26c0,.33.15.5.44.5h8.75c.33,0,.5-.17.5-.5v-2.75c0-.29-.17-.44-.5-.44h-8.75c-.29,0-.44.15-.44.44v2.75ZM242.24,49.2c1,0,1.86.37,2.59,1.09.73.73,1.09,1.59,1.09,2.59v44.31c0,2.25-.27,3.97-.81,5.16-.54,1.19-1.5,2.05-2.88,2.59-1.62.75-4.79,1.19-9.5,1.31h-.12c-1,0-1.88-.31-2.62-.94-.83-.67-1.42-1.52-1.75-2.56-.12-.29-.23-.58-.31-.88-.12-.33-.19-.65-.19-.94,0-.46.12-.9.38-1.31.46-.67,1.08-1,1.88-1h.06c1.75.04,3.9.06,6.44.06.67,0,1.12-.11,1.38-.34.25-.23.38-.66.38-1.28v-22.56c0-.33-.15-.5-.44-.5h-13.19c-1,0-1.87-.36-2.59-1.09-.73-.73-1.09-1.59-1.09-2.59v-17.44c0-1,.36-1.86,1.09-2.59s1.59-1.09,2.59-1.09h17.62ZM238.24,55.76c0-.29-.15-.44-.44-.44h-9.12c-.33,0-.5.15-.5.44v2.38c0,.33.17.5.5.5h9.12c.29,0,.44-.17.44-.5v-2.38ZM228.18,67.39c0,.33.17.5.5.5h9.12c.29,0,.44-.17.44-.5v-2.88c0-.29-.15-.44-.44-.44h-9.12c-.33,0-.5.15-.5.44v2.88Z" style="fill: #1d7068;"/>
      <path d="M318.52,59.83c0,1.04-.37,1.92-1.09,2.62-.73.71-1.59,1.06-2.59,1.06h-21.38c-.33,0-.5.17-.5.5v5.75c0,.33.17.5.5.5h16c1,0,1.86.37,2.59,1.09.73.73,1.09,1.59,1.09,2.59v17.94c0,1.92-.25,3.42-.75,4.5-.5,1.08-1.38,1.92-2.62,2.5-1.71.71-4.27,1.12-7.69,1.25h-.12c-.96,0-1.85-.33-2.69-1-.83-.67-1.42-1.52-1.75-2.56-.08-.17-.15-.33-.19-.5-.12-.33-.19-.65-.19-.94,0-.46.15-.92.44-1.38.46-.67,1.1-1,1.94-1h4.31c.92,0,1.38-.33,1.38-1v-13.62c0-.29-.15-.44-.44-.44h-11.31c-.33,0-.5.15-.5.44v26.06c0,1.04-.35,1.92-1.06,2.62-.71.71-1.58,1.06-2.62,1.06h-.56c-1,0-1.87-.35-2.59-1.06-.73-.71-1.09-1.58-1.09-2.62v-26.06c0-.29-.15-.44-.44-.44h-10.25c-.33,0-.5.15-.5.44v18.31c0,1.04-.35,1.92-1.06,2.62s-1.58,1.06-2.62,1.06h-.31c-1,0-1.87-.35-2.59-1.06-.73-.71-1.09-1.58-1.09-2.62v-22.5c0-1,.36-1.86,1.09-2.59s1.59-1.09,2.59-1.09h14.75c.29,0,.44-.17.44-.5v-5.75c0-.33-.15-.5-.44-.5h-20.75c-1,0-1.87-.35-2.59-1.06-.73-.71-1.09-1.58-1.09-2.62s.36-1.92,1.09-2.62c.73-.71,1.59-1.06,2.59-1.06h20.69c.29,0,.44-.17.44-.5v-4.12c0-1.04.36-1.92,1.09-2.62.73-.71,1.59-1.06,2.59-1.06h.75c1.04,0,1.92.35,2.62,1.06.71.71,1.06,1.58,1.06,2.62v4.12c0,.33.17.5.5.5h21.25c1,0,1.86.35,2.59,1.06.73.71,1.09,1.58,1.09,2.62Z" style="fill: #1d7068;"/>
      <path d="M342.92,70.76c.92.46,1.48,1.19,1.69,2.19.08.25.12.52.12.81,0,.67-.21,1.29-.62,1.88l-.12.19c-.54.83-1.31,1.35-2.31,1.56-.29.08-.58.12-.88.12-.67,0-1.31-.19-1.94-.56-1.5-.92-3.42-2.02-5.75-3.31-.83-.42-1.33-1.08-1.5-2-.08-.25-.12-.48-.12-.69,0-.62.21-1.21.62-1.75.58-.83,1.35-1.38,2.31-1.62.38-.08.73-.12,1.06-.12.62,0,1.23.15,1.81.44,2.33,1.17,4.21,2.12,5.62,2.88ZM339.29,104.01c-.54.83-1.29,1.33-2.25,1.5h-.56c-.75,0-1.42-.23-2-.69l-.69-.56c-.79-.67-1.27-1.5-1.44-2.5-.04-.21-.06-.42-.06-.62,0-.79.23-1.54.69-2.25,2.96-4.42,5.75-9.04,8.38-13.88.46-.79,1.15-1.27,2.06-1.44.17-.04.33-.06.5-.06.71,0,1.33.25,1.88.75l.12.12c.83.75,1.33,1.67,1.5,2.75.08.29.12.58.12.88,0,.75-.19,1.48-.56,2.19-2.58,4.92-5.15,9.52-7.69,13.81ZM346.04,53.39c.88.5,1.42,1.23,1.62,2.19.04.25.06.5.06.75,0,.67-.23,1.31-.69,1.94l-.19.19c-.58.83-1.38,1.33-2.38,1.5-.25.04-.5.06-.75.06-.75,0-1.46-.21-2.12-.62-1.33-.83-3.17-1.92-5.5-3.25-.83-.46-1.33-1.15-1.5-2.06-.04-.21-.06-.42-.06-.62,0-.67.21-1.27.62-1.81.62-.79,1.44-1.31,2.44-1.56.33-.04.65-.06.94-.06.67,0,1.31.15,1.94.44,2.21,1.17,4.06,2.15,5.56,2.94ZM388.23,67.7c.71.71,1.06,1.56,1.06,2.56s-.35,1.85-1.06,2.56-1.56,1.06-2.56,1.06h-12.12c-.33,0-.5.17-.5.5v7.12c0,.29.17.44.5.44h8.88c1,0,1.86.37,2.59,1.09.73.73,1.09,1.59,1.09,2.59v18.25c0,1-.35,1.85-1.06,2.56-.71.71-1.56,1.06-2.56,1.06h-1.56c-.58,0-1.07-.2-1.47-.59s-.59-.89-.59-1.47c0-.17-.08-.25-.25-.25h-18.69c-.21,0-.31.1-.31.31,0,.62-.23,1.17-.69,1.62-.46.46-1,.69-1.62.69h-1.12c-.92,0-1.72-.33-2.41-1-.69-.67-1.03-1.48-1.03-2.44v-18.75c0-1,.36-1.86,1.09-2.59s1.59-1.09,2.59-1.09h8.94c.29,0,.44-.15.44-.44v-7.12c0-.33-.15-.5-.44-.5h-12.94c-1,0-1.85-.35-2.56-1.06-.71-.71-1.06-1.56-1.06-2.56s.35-1.85,1.06-2.56,1.56-1.06,2.56-1.06h12.94c.29,0,.44-.17.44-.5v-6.56c0-.29-.15-.42-.44-.38-2.54.38-5.42.73-8.62,1.06h-.38c-.79,0-1.52-.23-2.19-.69-.79-.58-1.35-1.35-1.69-2.31-.08-.29-.12-.6-.12-.94,0-.46.12-.92.38-1.38.42-.75,1.06-1.17,1.94-1.25,9.33-1.08,16.98-2.56,22.94-4.44.62-.21,1.25-.31,1.88-.31.46,0,.92.06,1.38.19,1.12.25,2.06.77,2.81,1.56l.75.75c.46.46.69.98.69,1.56,0,.21-.02.42-.06.62-.21.83-.71,1.38-1.5,1.62-2.96.96-6.31,1.79-10.06,2.5-.29.04-.44.23-.44.56v7.81c0,.33.17.5.5.5h12.12c1,0,1.85.35,2.56,1.06ZM378.42,98.33c.29,0,.44-.17.44-.5v-8.5c0-.29-.15-.44-.44-.44h-18.31c-.33,0-.5.15-.5.44v8.5c0,.33.17.5.5.5h18.31Z" style="fill: #1d7068;"/>
      <path d="M445.57,62.01c0,.29.15.44.44.44h8.88c1,0,1.85.35,2.56,1.06.71.71,1.06,1.56,1.06,2.56,0,9.71-.35,19.12-1.06,28.25-.42,5.21-1.1,8.52-2.06,9.94-.71,1-1.45,1.72-2.22,2.16-.77.44-1.72.78-2.84,1.03-1.04.21-2.48.31-4.31.31-1,0-1.9-.35-2.69-1.06-.79-.71-1.33-1.58-1.62-2.62-.04-.08-.08-.19-.12-.31-.08-.25-.12-.52-.12-.81,0-.46.15-.92.44-1.38.46-.62,1.06-.94,1.81-.94h.12c1.04.04,1.96.06,2.75.06.96,0,1.69-.35,2.19-1.06.67-.88,1.18-3.52,1.53-7.94.35-4.42.63-11.69.84-21.81,0-.29-.17-.44-.5-.44h-4.81c-.29,0-.46.15-.5.44-.42,8.42-1.49,15.52-3.22,21.31-1.73,5.79-4.57,10.67-8.53,14.62-.62.58-1.33.88-2.12.88h-.38c-.96-.12-1.79-.56-2.5-1.31-.62-.71-1.25-1.33-1.88-1.88-.21-.21-.48-.29-.81-.25-10.17,1.08-17.38,1.81-21.62,2.19h-.38c-.75,0-1.44-.25-2.06-.75-.71-.54-1.12-1.27-1.25-2.19-.04-.17-.06-.31-.06-.44,0-.71.23-1.33.69-1.88.54-.67,1.25-1.04,2.12-1.12,3.5-.25,6.6-.46,9.31-.62.33,0,.5-.17.5-.5v-2.88c0-.33-.17-.5-.5-.5h-8.12c-.71,0-1.33-.26-1.88-.78-.54-.52-.81-1.16-.81-1.91s.27-1.38.81-1.91c.54-.52,1.17-.78,1.88-.78h8.12c.33,0,.5-.15.5-.44v-1.56c0-.33-.17-.5-.5-.5h-6.81c-1.04,0-1.92-.35-2.62-1.06-.71-.71-1.06-1.58-1.06-2.62v-12.38c0-1.04.35-1.92,1.06-2.62s1.58-1.06,2.62-1.06h6.81c.33,0,.5-.17.5-.5v-1.56c0-.29-.17-.44-.5-.44h-9.38c-.75,0-1.4-.27-1.94-.81-.54-.54-.81-1.19-.81-1.94s.27-1.4.81-1.94,1.19-.81,1.94-.81h9.38c.33,0,.5-.17.5-.5v-1.62c0-.29-.17-.44-.5-.44-2.75.21-5.25.35-7.5.44h-.12c-.75,0-1.44-.25-2.06-.75s-1.06-1.15-1.31-1.94c-.21-.67-.12-1.29.25-1.88.38-.58.9-.9,1.56-.94,8.54-.54,15.73-1.31,21.56-2.31.25-.04.52-.06.81-.06.67,0,1.33.12,2,.38.88.42,1.56,1.04,2.06,1.88.21.42.31.81.31,1.19,0,.33-.06.67-.19,1-.33.71-.9,1.15-1.69,1.31-2.38.38-4.98.73-7.81,1.06-.33.04-.5.21-.5.5v2.19c0,.33.17.5.5.5h8.69c.88,0,1.61.3,2.22.91.6.6.91,1.34.91,2.22,0,.25.12.38.38.38h5.19c.29,0,.44-.15.44-.44.04-2.42.06-5.52.06-9.31,0-1,.35-1.85,1.06-2.56s1.57-1.06,2.59-1.06,1.88.35,2.59,1.06c.71.71,1.06,1.56,1.06,2.56,0,3.67-.04,6.77-.12,9.31ZM408.57,71.76c-.29,0-.44.15-.44.44v1.88c0,.33.15.5.44.5h4.06c.33,0,.5-.17.5-.5v-1.88c0-.29-.17-.44-.5-.44h-4.06ZM408.13,81.51c0,.29.15.44.44.44h4.06c.33,0,.5-.15.5-.44v-1.94c0-.33-.17-.5-.5-.5h-4.06c-.29,0-.44.17-.44.5v1.94ZM420.51,94.58c-.33,0-.5.17-.5.5v2.31c0,.29.17.44.5.44,2.5-.17,5.9-.44,10.19-.81.33-.04.58-.19.75-.44,2.21-3.21,3.81-6.96,4.81-11.25,1-4.29,1.62-9.44,1.88-15.44,0-.29-.15-.44-.44-.44h-1.69c-1.04,0-1.92-.36-2.62-1.09-.71-.73-1.06-1.59-1.06-2.59v-.88c0-.29-.17-.44-.5-.44h-11.31c-.33,0-.5.15-.5.44v1.56c0,.33.17.5.5.5h7.19c1,0,1.86.35,2.59,1.06.73.71,1.09,1.58,1.09,2.62v12.38c0,1.04-.37,1.92-1.09,2.62-.73.71-1.59,1.06-2.59,1.06h-7.19c-.33,0-.5.17-.5.5v1.56c0,.29.17.44.5.44h8.44c.71,0,1.33.26,1.88.78.54.52.81,1.16.81,1.91s-.27,1.39-.81,1.91c-.54.52-1.17.78-1.88.78h-8.44ZM420.01,74.08c0,.33.17.5.5.5h4.06c.29,0,.44-.17.44-.5v-1.88c0-.29-.15-.44-.44-.44h-4.06c-.33,0-.5.15-.5.44v1.88ZM425.01,79.58c0-.33-.15-.5-.44-.5h-4.06c-.33,0-.5.17-.5.5v1.94c0,.29.17.44.5.44h4.06c.29,0,.44-.15.44-.44v-1.94Z" style="fill: #1d7068;"/>
      <path d="M478.78,103.14c-1.67,0-3.05-.58-4.16-1.75-1.1-1.17-1.66-2.62-1.66-4.38s.55-3.21,1.66-4.38c1.1-1.17,2.49-1.75,4.16-1.75s3.06.58,4.19,1.75c1.12,1.17,1.69,2.62,1.69,4.38s-.56,3.21-1.69,4.38-2.52,1.75-4.19,1.75Z" style="fill: #1d7068;"/>
      <path d="M505.93,103.14c-1.67,0-3.05-.58-4.16-1.75-1.1-1.17-1.66-2.62-1.66-4.38s.55-3.21,1.66-4.38c1.1-1.17,2.49-1.75,4.16-1.75s3.06.58,4.19,1.75c1.12,1.17,1.69,2.62,1.69,4.38s-.56,3.21-1.69,4.38-2.52,1.75-4.19,1.75Z" style="fill: #1d7068;"/>
      <path d="M533.08,103.14c-1.67,0-3.05-.58-4.16-1.75-1.1-1.17-1.66-2.62-1.66-4.38s.55-3.21,1.66-4.38c1.1-1.17,2.49-1.75,4.16-1.75s3.06.58,4.19,1.75c1.12,1.17,1.69,2.62,1.69,4.38s-.56,3.21-1.69,4.38-2.52,1.75-4.19,1.75Z" style="fill: #1d7068;"/>
    </g>
  </g>
</svg>