<?xml version="1.0" encoding="UTF-8"?>
<svg id="_圖層_2" data-name="圖層 2" xmlns="http://www.w3.org/2000/svg" width="452.93" height="186.47" viewBox="0 0 452.93 186.47">
  <g id="_設計" data-name="設計">
    <path d="M205.68,152.21h195.32c27.85,0,50.43-22.58,50.43-50.43v-49.85c0-27.85-22.58-50.43-50.43-50.43H51.93c-27.85,0-50.43,22.58-50.43,50.43v49.85c0,27.85,22.58,50.43,50.43,50.43h59.6s75.89,32.33,75.89,32.33c4.15,1.77,8.41-2.29,6.84-6.52l-9.56-25.81h20.99Z" style="fill: #fff; stroke: #1d7068; stroke-linecap: round; stroke-linejoin: round; stroke-width: 3px;"/>
    <g>
      <path d="M71.94,49.2c1,0,1.86.37,2.59,1.09.73.73,1.09,1.59,1.09,2.59v17.25c0,1-.37,1.87-1.09,2.59s-1.59,1.09-2.59,1.09h-12.69c-.29,0-.44.15-.44.44v28.44c0,1-.37,1.86-1.09,2.59-.73.73-1.59,1.09-2.59,1.09h-.19c-1,0-1.87-.37-2.59-1.09s-1.09-1.59-1.09-2.59v-49.81c0-1,.36-1.86,1.09-2.59s1.59-1.09,2.59-1.09h17ZM68.51,55.76c0-.29-.17-.44-.5-.44h-8.75c-.29,0-.44.15-.44.44v2.38c0,.33.15.5.44.5h8.75c.33,0,.5-.17.5-.5v-2.38ZM58.82,67.26c0,.33.15.5.44.5h8.75c.33,0,.5-.17.5-.5v-2.75c0-.29-.17-.44-.5-.44h-8.75c-.29,0-.44.15-.44.44v2.75ZM101.44,49.2c1,0,1.86.37,2.59,1.09.73.73,1.09,1.59,1.09,2.59v44.31c0,2.25-.27,3.97-.81,5.16-.54,1.19-1.5,2.05-2.88,2.59-1.62.75-4.79,1.19-9.5,1.31h-.12c-1,0-1.88-.31-2.62-.94-.83-.67-1.42-1.52-1.75-2.56-.12-.29-.23-.58-.31-.88-.12-.33-.19-.65-.19-.94,0-.46.12-.9.38-1.31.46-.67,1.08-1,1.88-1h.06c1.75.04,3.9.06,6.44.06.67,0,1.12-.11,1.38-.34.25-.23.38-.66.38-1.28v-22.56c0-.33-.15-.5-.44-.5h-13.19c-1,0-1.87-.36-2.59-1.09-.73-.73-1.09-1.59-1.09-2.59v-17.44c0-1,.36-1.86,1.09-2.59s1.59-1.09,2.59-1.09h17.62ZM97.44,55.76c0-.29-.15-.44-.44-.44h-9.12c-.33,0-.5.15-.5.44v2.38c0,.33.17.5.5.5h9.12c.29,0,.44-.17.44-.5v-2.38ZM87.38,67.39c0,.33.17.5.5.5h9.12c.29,0,.44-.17.44-.5v-2.88c0-.29-.15-.44-.44-.44h-9.12c-.33,0-.5.15-.5.44v2.88Z" style="fill: #1d7068;"/>
      <path d="M177.72,59.82c0,1.04-.37,1.92-1.09,2.62-.73.71-1.59,1.06-2.59,1.06h-21.38c-.33,0-.5.17-.5.5v5.75c0,.33.17.5.5.5h16c1,0,1.86.37,2.59,1.09.73.73,1.09,1.59,1.09,2.59v17.94c0,1.92-.25,3.42-.75,4.5-.5,1.08-1.38,1.92-2.62,2.5-1.71.71-4.27,1.12-7.69,1.25h-.12c-.96,0-1.85-.33-2.69-1-.83-.67-1.42-1.52-1.75-2.56-.08-.17-.15-.33-.19-.5-.12-.33-.19-.65-.19-.94,0-.46.15-.92.44-1.38.46-.67,1.1-1,1.94-1h4.31c.92,0,1.38-.33,1.38-1v-13.62c0-.29-.15-.44-.44-.44h-11.31c-.33,0-.5.15-.5.44v26.06c0,1.04-.35,1.92-1.06,2.62-.71.71-1.58,1.06-2.62,1.06h-.56c-1,0-1.87-.35-2.59-1.06-.73-.71-1.09-1.58-1.09-2.62v-26.06c0-.29-.15-.44-.44-.44h-10.25c-.33,0-.5.15-.5.44v18.31c0,1.04-.35,1.92-1.06,2.62s-1.58,1.06-2.62,1.06h-.31c-1,0-1.87-.35-2.59-1.06-.73-.71-1.09-1.58-1.09-2.62v-22.5c0-1,.36-1.86,1.09-2.59s1.59-1.09,2.59-1.09h14.75c.29,0,.44-.17.44-.5v-5.75c0-.33-.15-.5-.44-.5h-20.75c-1,0-1.87-.35-2.59-1.06-.73-.71-1.09-1.58-1.09-2.62s.36-1.92,1.09-2.62c.73-.71,1.59-1.06,2.59-1.06h20.69c.29,0,.44-.17.44-.5v-4.12c0-1.04.36-1.92,1.09-2.62.73-.71,1.59-1.06,2.59-1.06h.75c1.04,0,1.92.35,2.62,1.06.71.71,1.06,1.58,1.06,2.62v4.12c0,.33.17.5.5.5h21.25c1,0,1.86.35,2.59,1.06.73.71,1.09,1.58,1.09,2.62Z" style="fill: #1d7068;"/>
      <path d="M204.18,75.64c.29-.08.58-.12.88-.12.58,0,1.12.19,1.62.56.75.5,1.19,1.19,1.31,2.06.04.21.06.42.06.62,0,.75-.21,1.46-.62,2.12-.54.83-1.29,1.42-2.25,1.75-.83.25-1.52.46-2.06.62-.29.08-.44.27-.44.56v16.06c0,1.83-.19,3.24-.56,4.22-.38.98-1.04,1.76-2,2.34-1.12.75-2.83,1.19-5.12,1.31h-.25c-.92,0-1.73-.29-2.44-.88-.79-.67-1.33-1.52-1.62-2.56-.08-.25-.12-.5-.12-.75,0-.54.17-1.04.5-1.5.5-.71,1.17-1.06,2-1.06h.06c.5.04,1.06.06,1.69.06.38,0,.65-.08.81-.25s.25-.48.25-.94v-14c0-.12-.04-.22-.12-.28-.08-.06-.19-.07-.31-.03-.54.12-1.21.31-2,.56-.33.08-.67.12-1,.12-.58,0-1.17-.17-1.75-.5-.88-.54-1.42-1.29-1.62-2.25v-.12c-.08-.29-.12-.58-.12-.88,0-.67.19-1.29.56-1.88.54-.88,1.31-1.44,2.31-1.69.29-.08.85-.23,1.69-.44.83-.21,1.48-.35,1.94-.44.29-.08.44-.29.44-.62v-9.88c0-.29-.15-.44-.44-.44h-2.56c-.96,0-1.78-.34-2.47-1.03s-1.03-1.51-1.03-2.47.34-1.78,1.03-2.47,1.51-1.03,2.47-1.03h2.56c.29,0,.44-.15.44-.44v-8.19c0-.96.33-1.76,1-2.41.67-.65,1.47-.97,2.41-.97s1.74.32,2.41.97c.67.65,1,1.45,1,2.41v8.19c0,.29.15.44.44.44h1c.96,0,1.78.34,2.47,1.03s1.03,1.51,1.03,2.47-.34,1.78-1.03,2.47-1.51,1.03-2.47,1.03h-1c-.29,0-.44.15-.44.44v8.06c0,.12.04.22.12.28.08.06.19.07.31.03l1.06-.31ZM216.12,64.57c-.29,0-.44.15-.44.44v13.19c0,11.58-1.6,20.48-4.81,26.69-.38.75-1.02,1.21-1.94,1.38-.21.04-.42.06-.62.06-.67,0-1.29-.21-1.88-.62-.75-.5-1.23-1.19-1.44-2.06-.08-.33-.12-.65-.12-.94,0-.54.12-1.08.38-1.62,1.58-3.12,2.62-6.58,3.12-10.38.5-3.79.75-7.96.75-12.5v-15.31c0-1.04.36-1.92,1.09-2.62.73-.71,1.59-1.06,2.59-1.06h9.75c.33,0,.5-.17.5-.5v-6.81c0-1,.35-1.85,1.06-2.56s1.56-1.06,2.56-1.06h.88c.75,0,1.4.27,1.94.81.54.54.81,1.19.81,1.94,0,.25.12.38.38.38h11.62c.71,0,1.32.26,1.84.78.52.52.78,1.14.78,1.84s-.26,1.32-.78,1.84-1.14.78-1.84.78h-11.5c-.33,0-.5.15-.5.44v1.62c0,.33.17.5.5.5h10.25c2.04,0,3.62.1,4.75.31.62.12,1.11.46,1.47,1,.35.54.45,1.12.28,1.75-.46,1.92-.98,3.71-1.56,5.38-.25.79-.75,1.38-1.5,1.75-.5.29-1.02.44-1.56.44-.25,0-.5-.04-.75-.12-.75-.17-1.31-.58-1.69-1.25-.25-.42-.38-.85-.38-1.31,0-.25.02-.5.06-.75.12-.46.25-.92.38-1.38.04-.29-.08-.44-.38-.44h-10.5c-.29,0-.44.15-.44.44v1.44c0,.33.15.48.44.44l6-.5c.54-.04,1.03.12,1.47.47.44.35.69.81.75,1.38s-.08,1.06-.44,1.5c-.35.44-.8.68-1.34.72l-6.44.62c-.29,0-.44.17-.44.5,0,.62.16,1.02.47,1.19.31.17.99.25,2.03.25h6.88c.83,0,1.38-.17,1.62-.5.58-.92,1.23-1.38,1.94-1.38.17,0,.33.04.5.12.12.04.27.08.44.12.75.21,1.33.62,1.75,1.25.42.62.48,1.25.19,1.88-.42,1-1.06,1.7-1.94,2.09-.88.4-2.1.59-3.69.59h-8.5c-3,0-5.04-.35-6.12-1.06-1.08-.71-1.67-2.04-1.75-4-.04-.29-.21-.44-.5-.44l-3.56.38c-.58.04-1.1-.12-1.56-.5-.46-.38-.72-.85-.78-1.44-.06-.58.09-1.1.47-1.56.38-.46.85-.71,1.44-.75l4-.31c.33-.04.5-.23.5-.56v-1.94c0-.29-.17-.44-.5-.44h-6.44ZM241.99,86.57c.58-.5,1.25-.75,2-.75h.06c.71,0,1.35.23,1.94.69.5.42.76.96.78,1.62.02.67-.24,1.21-.78,1.62-1.25.96-2.62,1.92-4.12,2.88-.29.21-.35.44-.19.69,1.5,2.33,3.19,4.19,5.06,5.56.62.5,1,1.15,1.12,1.94.04.17.06.31.06.44,0,.62-.21,1.21-.62,1.75-.58.71-1.29,1.17-2.12,1.38-.21.04-.42.06-.62.06-.62,0-1.21-.21-1.75-.62-4.58-3.92-7.9-10.46-9.94-19.62-.04-.08-.12-.15-.22-.19-.1-.04-.2-.02-.28.06-.92.75-1.9,1.42-2.94,2-.25.17-.25.35,0,.56,1.79,1.54,3.2,3.3,4.22,5.28,1.02,1.98,1.59,3.87,1.72,5.66.04.46.06.92.06,1.38,0,1.25-.15,2.42-.44,3.5-.42,1.5-1.06,2.65-1.94,3.44-1.29,1.33-3,2.02-5.12,2.06h-.56c-.75,0-1.42-.26-2-.78-.58-.52-.98-1.18-1.19-1.97-.17-.62-.07-1.18.28-1.66.35-.48.82-.72,1.41-.72h.88c1.04,0,1.79-.31,2.25-.94.58-.62.88-1.67.88-3.12,0-.25-.05-.4-.16-.44-.1-.04-.2-.04-.28,0-3.42,2.58-7.25,4.75-11.5,6.5-.62.25-1.25.26-1.88.03-.62-.23-1.12-.64-1.5-1.22-.21-.29-.31-.6-.31-.94,0-.17.02-.35.06-.56.17-.5.5-.85,1-1.06,5.62-1.92,9.98-4.23,13.06-6.94.25-.21.31-.46.19-.75-.08-.12-.19-.29-.31-.5-.12-.29-.33-.33-.62-.12-2.29,1.54-4.92,2.96-7.88,4.25-.62.25-1.23.27-1.81.06-.58-.21-1.06-.58-1.44-1.12-.29-.42-.37-.88-.22-1.38.15-.5.47-.83.97-1,3.21-1,5.92-2.21,8.12-3.62.29-.17.31-.35.06-.56,0-.04-.15-.19-.44-.44-.25-.21-.52-.25-.81-.12-1.42.62-2.73,1.15-3.94,1.56-.58.17-1.17.14-1.75-.09-.58-.23-1.04-.63-1.38-1.22-.25-.42-.28-.88-.09-1.38s.53-.81,1.03-.94c2.79-.79,5.33-1.79,7.62-3,.04,0,.06-.03.06-.09s-.04-.09-.12-.09h-6.31c-.67,0-1.24-.24-1.72-.72-.48-.48-.72-1.05-.72-1.72s.24-1.24.72-1.72,1.05-.72,1.72-.72h26.25c.67,0,1.24.24,1.72.72.48.48.72,1.05.72,1.72s-.24,1.24-.72,1.72-1.05.72-1.72.72h-7.31c-.12,0-.23.04-.31.12s-.1.19-.06.31c.38,1.42.83,2.83,1.38,4.25.12.29.31.33.56.12.75-.58,1.48-1.19,2.19-1.81Z" style="fill: #1d7068;"/>
      <path d="M265.27,105.57c-.38.67-.98,1.1-1.81,1.31-.25.04-.48.06-.69.06-.54,0-1.06-.12-1.56-.38-.62-.33-1.02-.85-1.19-1.56-.04-.25-.06-.48-.06-.69,0-.46.12-.92.38-1.38.96-1.79,1.73-3.92,2.31-6.38.12-.71.49-1.25,1.09-1.62.6-.38,1.24-.46,1.91-.25.75.21,1.31.65,1.69,1.31.29.46.44.96.44,1.5,0,.21-.02.4-.06.56-.62,3.17-1.44,5.67-2.44,7.5ZM263.52,92.32h-.12c-.83,0-1.54-.27-2.12-.81-.67-.62-1-1.42-1-2.38,0-.83.29-1.54.88-2.12.58-.67,1.31-1,2.19-1,.67-.04,3.25-.12,7.75-.25.29,0,.44-.17.44-.5v-2.12c0-.29-.15-.44-.44-.44h-6.5c-.79,0-1.47-.28-2.03-.84s-.84-1.25-.84-2.06.28-1.5.84-2.06,1.24-.84,2.03-.84h6.5c.29,0,.44-.15.44-.44v-1.88c0-.33-.15-.5-.44-.5h-5.81c-1.04,0-1.92-.35-2.62-1.06-.71-.71-1.06-1.58-1.06-2.62v-16.75c0-1,.35-1.86,1.06-2.59.71-.73,1.58-1.09,2.62-1.09h19.69c1,0,1.86.37,2.59,1.09.73.73,1.09,1.59,1.09,2.59v16.75c0,1.04-.37,1.92-1.09,2.62-.73.71-1.59,1.06-2.59,1.06h-6.25c-.29,0-.44.17-.44.5v1.88c0,.29.15.44.44.44h6.94c.79,0,1.47.28,2.03.84s.84,1.25.84,2.06-.28,1.5-.84,2.06-1.24.84-2.03.84h-6.94c-.29,0-.44.15-.44.44v1.88c0,.33.15.48.44.44.79,0,1.62-.02,2.5-.06.88-.04,1.84-.08,2.91-.12,1.06-.04,1.88-.08,2.47-.12h.12c.75,0,1.4.27,1.94.81.54.54.81,1.21.81,2,0,.83-.29,1.56-.88,2.19-.58.58-1.29.92-2.12,1-8.33.5-15.98.9-22.94,1.19ZM267.39,58.7s-.02-.06-.06-.06-.06.02-.06.06v9.81c0,.33.15.5.44.5h4.44c.33,0,.5-.17.5-.5v-12.94c0-.33-.17-.5-.5-.5h-4.44c-.29,0-.44.17-.44.5v1.88c0,.21.1.29.31.25.29-.08.58-.12.88-.12.42,0,.85.1,1.31.31.67.38,1.1.94,1.31,1.69.46,1.67.79,3.25,1,4.75.08.5-.02.97-.31,1.41-.29.44-.67.74-1.12.91-.46.12-.88.05-1.25-.22-.38-.27-.58-.61-.62-1.03-.29-2.29-.75-4.52-1.38-6.69ZM269.08,96.64c-.04-.12-.06-.25-.06-.38,0-.5.15-.94.44-1.31.42-.54.94-.85,1.56-.94.67-.08,1.26.07,1.78.47.52.4.84.93.97,1.59.38,2.12.65,4.25.81,6.38.04.71-.17,1.33-.62,1.88-.46.54-1.04.85-1.75.94-.62.04-1.19-.16-1.69-.59s-.77-.97-.81-1.59c-.08-2-.29-4.15-.62-6.44ZM275.77,96.26c-.04-.21-.06-.42-.06-.62,0-.38.08-.73.25-1.06.33-.5.79-.81,1.38-.94.67-.12,1.28-.02,1.84.31.56.33.95.81,1.16,1.44.67,2.12,1.21,4.15,1.62,6.06.12.67,0,1.27-.38,1.81-.38.54-.9.88-1.56,1-.62.12-1.2,0-1.72-.34-.52-.35-.84-.87-.97-1.53-.38-1.96-.9-4-1.56-6.12ZM282.39,57.76c.25.08.38,0,.38-.25v-1.94c0-.33-.17-.5-.5-.5h-4.56c-.29,0-.44.17-.44.5v9.62s.02.06.06.06.06-.02.06-.06c.62-1.88,1.17-3.73,1.62-5.56.21-.75.65-1.31,1.31-1.69.38-.21.77-.31,1.19-.31.29,0,.58.04.88.12ZM277.27,68.51c0,.33.15.5.44.5h4.56c.33,0,.5-.17.5-.5v-8.12c0-.08-.03-.12-.09-.12s-.09.02-.09.06c-.88,2.29-1.46,3.81-1.75,4.56-.25.67-.7,1.14-1.34,1.41-.65.27-1.3.28-1.97.03-.17-.08-.25,0-.25.25v1.94ZM282.46,95.57c-.17-.33-.25-.67-.25-1,0-.21.04-.44.12-.69.21-.58.6-1,1.19-1.25.38-.12.73-.19,1.06-.19s.67.06,1,.19c.67.21,1.17.62,1.5,1.25,1.08,1.83,2,3.65,2.75,5.44.17.29.25.6.25.94,0,.38-.08.73-.25,1.06-.29.67-.79,1.15-1.5,1.44-.62.25-1.25.23-1.88-.06-.62-.29-1.06-.77-1.31-1.44-.75-1.88-1.65-3.77-2.69-5.69ZM317.99,62.29c.69.69,1.03,1.51,1.03,2.47s-.34,1.78-1.03,2.47-1.51,1.03-2.47,1.03h-8.38c-.29,0-.44.17-.44.5v8.88c0,.33.15.5.44.5h6.06c1.04,0,1.92.37,2.62,1.09.71.73,1.06,1.59,1.06,2.59v22.06c0,1-.35,1.85-1.06,2.56-.71.71-1.56,1.06-2.56,1.06h-1.69c-.54,0-1-.2-1.38-.59-.38-.4-.56-.87-.56-1.41,0-.17-.08-.25-.25-.25h-11.31c-.21,0-.31.1-.31.31,0,.58-.22,1.09-.66,1.53s-.95.66-1.53.66h-1.25c-.96,0-1.77-.33-2.44-1s-1-1.48-1-2.44v-22.5c0-1,.35-1.86,1.06-2.59.71-.73,1.58-1.09,2.62-1.09h4.19c.33,0,.5-.17.5-.5v-25.81c0-1.04.35-1.92,1.06-2.62s1.58-1.06,2.62-1.06h.06c1,0,1.86.35,2.59,1.06.73.71,1.09,1.58,1.09,2.62v8.94c0,.33.15.5.44.5h8.38c.96,0,1.78.34,2.47,1.03ZM309.14,98.45c.33,0,.5-.17.5-.5v-12.44c0-.29-.17-.44-.5-.44h-10.88c-.33,0-.5.15-.5.44v12.44c0,.33.17.5.5.5h10.88Z" style="fill: #1d7068;"/>
      <path d="M337.98,103.14c-1.67,0-3.05-.58-4.16-1.75-1.1-1.17-1.66-2.62-1.66-4.38s.55-3.21,1.66-4.38c1.1-1.17,2.49-1.75,4.16-1.75s3.06.58,4.19,1.75c1.12,1.17,1.69,2.62,1.69,4.38s-.56,3.21-1.69,4.38-2.52,1.75-4.19,1.75Z" style="fill: #1d7068;"/>
      <path d="M365.13,103.14c-1.67,0-3.05-.58-4.16-1.75-1.1-1.17-1.66-2.62-1.66-4.38s.55-3.21,1.66-4.38c1.1-1.17,2.49-1.75,4.16-1.75s3.06.58,4.19,1.75c1.12,1.17,1.69,2.62,1.69,4.38s-.56,3.21-1.69,4.38-2.52,1.75-4.19,1.75Z" style="fill: #1d7068;"/>
      <path d="M392.28,103.14c-1.67,0-3.05-.58-4.16-1.75-1.1-1.17-1.66-2.62-1.66-4.38s.55-3.21,1.66-4.38c1.1-1.17,2.49-1.75,4.16-1.75s3.06.58,4.19,1.75c1.12,1.17,1.69,2.62,1.69,4.38s-.56,3.21-1.69,4.38-2.52,1.75-4.19,1.75Z" style="fill: #1d7068;"/>
    </g>
  </g>
</svg>