<?xml version="1.0" encoding="UTF-8"?>
<svg id="_圖層_2" data-name="圖層 2" xmlns="http://www.w3.org/2000/svg" width="187.67" height="78.26" viewBox="0 0 187.67 78.26">
  <g id="_設計" data-name="設計">
    <g>
      <path d="M89.61,63.26h78.82c10.22,0,18.5-8.28,18.5-18.5v-25.51c0-10.22-8.28-18.5-18.5-18.5H19.25C9.03.75.75,9.03.75,19.25v25.51c0,10.22,8.28,18.5,18.5,18.5h29.38l33.02,14.07c1.81.77,3.66-1,2.98-2.84l-4.16-11.23h9.13Z" style="fill: #fff; stroke: #1d7068; stroke-linecap: round; stroke-linejoin: round; stroke-width: 1.5px;"/>
      <g>
        <path d="M39.54,21.19c.12-.03.23-.05.33-.05.19,0,.37.06.54.18l.75.46c.31.21.5.49.57.85.03.09.05.17.05.26,0,.26-.09.5-.26.72-1.32,1.8-3.05,3.44-5.18,4.9-.04.03-.05.07-.04.12s.03.07.06.09c2.36,1.03,4.91,1.81,7.66,2.35.33.07.55.26.67.57.05.12.08.23.08.33,0,.19-.06.37-.18.54-.1.15-.21.3-.31.44-.26.4-.59.68-1.01.85-.26.12-.52.18-.8.18-.15,0-.31-.02-.46-.05-.15-.03-.41-.1-.77-.21-.05-.02-.1,0-.14.03-.04.04-.06.08-.06.13v7.89c0,.41-.15.77-.44,1.07-.29.3-.65.45-1.08.45h-1.08c-.21,0-.39-.08-.54-.23-.15-.16-.23-.34-.23-.54,0-.07-.03-.1-.08-.1h-9.36c-.07,0-.1.04-.1.13,0,.22-.09.42-.26.59s-.38.26-.62.26h-.8c-.43,0-.79-.15-1.08-.44s-.44-.65-.44-1.08v-8.02c0-.05-.02-.09-.06-.12s-.09-.04-.14-.04c-.46.14-.9.27-1.32.39-.15.04-.3.05-.44.05-.28,0-.54-.07-.8-.21-.38-.21-.68-.51-.9-.9-.02-.05-.04-.1-.08-.16-.1-.17-.15-.35-.15-.54,0-.14.03-.28.1-.44.14-.33.38-.52.72-.59,2.87-.64,5.56-1.51,8.07-2.63.03-.02.05-.05.05-.09s-.02-.08-.05-.12c-1.01-.77-1.97-1.61-2.86-2.5-.09-.1-.18-.11-.28-.03-.71.64-1.47,1.25-2.29,1.83-.29.19-.6.28-.93.28h-.26c-.41-.07-.77-.26-1.08-.57-.07-.07-.14-.13-.21-.18-.22-.24-.33-.51-.33-.8,0-.05,0-.1.03-.15.03-.36.21-.64.52-.85,2.58-1.58,4.67-3.51,6.27-5.8.26-.36.59-.62,1.01-.77.22-.07.44-.1.64-.1s.41.04.62.1l.1.03c.36.14.61.39.75.75.03.14.05.27.05.39,0,.22-.06.44-.18.64-.09.12-.16.23-.23.34-.03.03-.04.07-.01.1.03.04.06.05.09.05h8.12s.07,0,.1-.03ZM25.67,33.44s0,.05.03.05h14.44s.03,0,.04-.03c0-.02,0-.03-.01-.03-2.61-.77-4.93-1.73-6.94-2.86-.12-.07-.23-.07-.34,0-2.08,1.1-4.49,2.05-7.22,2.86ZM28.12,39.45c0,.14.06.21.18.21h9.18c.12,0,.18-.07.18-.21v-2.91c0-.12-.06-.18-.18-.18h-9.18c-.12,0-.18.06-.18.18v2.91ZM36.96,24.06s.02-.07,0-.1c-.02-.03-.04-.05-.08-.05h-7.68s-.06.02-.08.05c-.02.04,0,.07.03.1.94.95,2.19,1.9,3.74,2.86.1.07.21.07.34,0,1.55-.95,2.79-1.9,3.74-2.86Z" style="fill: #1d7068;"/>
        <path d="M72.64,39.48c.4,0,.73.14,1.01.41.27.28.41.61.41.99s-.14.72-.41.99c-.28.27-.61.41-1.01.41h-18.54c-.07,0-.1.04-.1.13,0,.26-.09.48-.27.66-.18.18-.41.27-.68.27h-.59c-.41,0-.77-.15-1.07-.44s-.45-.65-.45-1.08v-20.73c0-.41.15-.77.45-1.07s.66-.45,1.07-.45h19.55c.38,0,.7.14.97.41.27.27.4.61.4.99s-.13.71-.4.98-.59.4-.97.4h-17.82c-.12,0-.18.07-.18.21v16.71c0,.14.06.21.18.21h18.46ZM57.09,38.14c-.41,0-.77-.15-1.07-.44-.3-.29-.45-.65-.45-1.08v-4.05c0-.43.15-.79.45-1.08.3-.29.66-.44,1.07-.44h4.25c.41,0,.77.15,1.07.44.3.29.45.65.45,1.08v4.05c0,.43-.15.79-.45,1.08-.3.29-.66.44-1.07.44h-4.25ZM58.3,33.16c-.12,0-.18.06-.18.18v2.5c0,.12.06.18.18.18h1.68c.12,0,.18-.06.18-.18v-2.5c0-.12-.06-.18-.18-.18h-1.68ZM67.09,23.59c.43,0,.79.15,1.08.45.29.3.44.66.44,1.07v3.25c0,.41-.15.77-.44,1.07-.29.3-.65.45-1.08.45h-7.3c-.43,0-.79-.15-1.08-.45s-.44-.66-.44-1.07v-3.25c0-.41.15-.77.44-1.07.29-.3.65-.45,1.08-.45h7.3ZM65.34,27.82c.12,0,.18-.07.18-.21v-1.75c0-.14-.06-.21-.18-.21h-3.95c-.14,0-.21.07-.21.21v1.75c0,.14.07.21.21.21h3.95ZM69.95,31.04c.41,0,.77.15,1.07.44.3.29.45.65.45,1.08v4.05c0,.43-.15.79-.45,1.08-.3.29-.66.44-1.07.44h-4.41c-.43,0-.79-.15-1.08-.44-.29-.29-.44-.65-.44-1.08v-4.05c0-.43.15-.79.44-1.08s.65-.44,1.08-.44h4.41ZM68.56,36.02c.12,0,.18-.06.18-.18v-2.5c0-.12-.06-.18-.18-.18h-1.75c-.14,0-.21.06-.21.18v2.5c0,.12.07.18.21.18h1.75Z" style="fill: #1d7068;"/>
        <path d="M84.92,30.06c.12-.03.24-.05.36-.05.24,0,.46.08.67.23.31.21.49.49.54.85.02.09.03.17.03.26,0,.31-.09.6-.26.88-.22.34-.53.58-.93.72-.34.1-.63.19-.85.26-.12.03-.18.11-.18.23v6.63c0,.76-.08,1.34-.23,1.74-.15.4-.43.73-.83.97-.46.31-1.17.49-2.11.54h-.1c-.38,0-.71-.12-1.01-.36-.33-.28-.55-.63-.67-1.06-.04-.1-.05-.21-.05-.31,0-.22.07-.43.21-.62.21-.29.48-.44.83-.44h.03c.21.02.44.03.7.03.15,0,.27-.03.33-.1.07-.07.1-.2.1-.39v-5.78c0-.05-.02-.09-.05-.12-.04-.03-.08-.03-.13-.01-.22.05-.5.13-.83.23-.14.04-.28.05-.41.05-.24,0-.48-.07-.72-.21-.36-.22-.58-.53-.67-.93v-.05c-.03-.12-.05-.24-.05-.36,0-.28.08-.53.23-.77.22-.36.54-.59.95-.7.12-.03.35-.09.7-.18s.61-.15.8-.18c.12-.03.18-.12.18-.26v-4.07c0-.12-.06-.18-.18-.18h-1.06c-.4,0-.73-.14-1.02-.43s-.43-.62-.43-1.02.14-.73.43-1.02c.28-.28.62-.42,1.02-.42h1.06c.12,0,.18-.06.18-.18v-3.38c0-.4.14-.73.41-.99.27-.27.61-.4.99-.4s.72.13.99.4c.28.27.41.6.41.99v3.38c0,.12.06.18.18.18h.41c.4,0,.74.14,1.02.42s.43.62.43,1.02-.14.74-.43,1.02c-.28.28-.62.43-1.02.43h-.41c-.12,0-.18.06-.18.18v3.33c0,.05.02.09.05.12.03.03.08.03.13.01l.44-.13ZM89.85,25.5c-.12,0-.18.06-.18.18v5.44c0,4.78-.66,8.45-1.99,11.01-.16.31-.42.5-.8.57-.09.02-.17.03-.26.03-.27,0-.53-.09-.77-.26-.31-.21-.51-.49-.59-.85-.04-.14-.05-.27-.05-.39,0-.22.05-.45.15-.67.65-1.29,1.08-2.72,1.29-4.28.21-1.56.31-3.28.31-5.16v-6.32c0-.43.15-.79.45-1.08.3-.29.66-.44,1.07-.44h4.02c.14,0,.21-.07.21-.21v-2.81c0-.41.15-.76.44-1.06s.64-.44,1.06-.44h.36c.31,0,.58.11.8.33.22.22.33.49.33.8,0,.1.05.16.16.16h4.8c.29,0,.55.11.76.32s.32.47.32.76-.11.55-.32.76-.47.32-.76.32h-4.75c-.14,0-.21.06-.21.18v.67c0,.14.07.21.21.21h4.23c.84,0,1.5.04,1.96.13.26.05.46.19.61.41s.18.46.12.72c-.19.79-.4,1.53-.64,2.22-.1.33-.31.57-.62.72-.21.12-.42.18-.64.18-.1,0-.21-.02-.31-.05-.31-.07-.54-.24-.7-.52-.1-.17-.15-.35-.15-.54,0-.1,0-.21.03-.31.05-.19.1-.38.16-.57.02-.12-.04-.18-.16-.18h-4.33c-.12,0-.18.06-.18.18v.59c0,.14.06.2.18.18l2.48-.21c.22-.02.43.05.61.19.18.15.28.33.31.57.03.23-.03.44-.18.62-.15.18-.33.28-.55.3l-2.66.26c-.12,0-.18.07-.18.21,0,.26.06.42.19.49.13.07.41.1.84.1h2.84c.34,0,.57-.07.67-.21.24-.38.51-.57.8-.57.07,0,.14.02.21.05.05.02.11.03.18.05.31.09.55.26.72.52.17.26.2.52.08.77-.17.41-.44.7-.8.86-.36.16-.87.25-1.52.25h-3.51c-1.24,0-2.08-.15-2.53-.44-.45-.29-.69-.84-.72-1.65-.02-.12-.09-.18-.21-.18l-1.47.15c-.24.02-.46-.05-.64-.21-.19-.16-.3-.35-.32-.59-.03-.24.04-.46.19-.64.15-.19.35-.29.59-.31l1.65-.13c.14-.02.21-.09.21-.23v-.8c0-.12-.07-.18-.21-.18h-2.66ZM100.52,34.58c.24-.21.52-.31.83-.31h.03c.29,0,.56.09.8.28.21.17.31.4.32.67,0,.28-.1.5-.32.67-.52.4-1.08.79-1.7,1.19-.12.09-.15.18-.08.28.62.96,1.32,1.73,2.09,2.29.26.21.41.47.46.8.02.07.03.13.03.18,0,.26-.09.5-.26.72-.24.29-.53.48-.88.57-.09.02-.17.03-.26.03-.26,0-.5-.09-.72-.26-1.89-1.62-3.26-4.31-4.1-8.1-.02-.03-.05-.06-.09-.08-.04-.02-.08,0-.12.03-.38.31-.78.58-1.21.83-.1.07-.1.15,0,.23.74.64,1.32,1.36,1.74,2.18.42.82.66,1.59.71,2.33.02.19.03.38.03.57,0,.52-.06,1-.18,1.44-.17.62-.44,1.09-.8,1.42-.53.55-1.24.83-2.11.85h-.23c-.31,0-.58-.11-.83-.32-.24-.21-.4-.49-.49-.81-.07-.26-.03-.49.12-.68s.34-.3.58-.3h.36c.43,0,.74-.13.93-.39.24-.26.36-.69.36-1.29,0-.1-.02-.16-.06-.18-.04-.02-.08-.02-.12,0-1.41,1.07-2.99,1.96-4.74,2.68-.26.1-.52.11-.77.01-.26-.09-.46-.26-.62-.5-.09-.12-.13-.25-.13-.39,0-.07,0-.15.03-.23.07-.21.21-.35.41-.44,2.32-.79,4.12-1.74,5.39-2.86.1-.09.13-.19.08-.31-.04-.05-.08-.12-.13-.21-.05-.12-.14-.14-.26-.05-.95.64-2.03,1.22-3.25,1.75-.26.1-.51.11-.75.03-.24-.09-.44-.24-.59-.46-.12-.17-.15-.36-.09-.57.06-.21.19-.34.4-.41,1.32-.41,2.44-.91,3.35-1.5.12-.07.13-.15.03-.23,0-.02-.06-.08-.18-.18-.1-.09-.22-.1-.34-.05-.58.26-1.13.47-1.62.64-.24.07-.48.06-.72-.04-.24-.09-.43-.26-.57-.5-.1-.17-.12-.36-.04-.57.08-.21.22-.33.43-.39,1.15-.33,2.2-.74,3.15-1.24.02,0,.03-.01.03-.04s-.02-.04-.05-.04h-2.6c-.28,0-.51-.1-.71-.3-.2-.2-.3-.43-.3-.71s.1-.51.3-.71c.2-.2.43-.3.71-.3h10.83c.27,0,.51.1.71.3s.3.43.3.71-.1.51-.3.71c-.2.2-.43.3-.71.3h-3.02c-.05,0-.09.02-.13.05-.04.03-.04.08-.03.13.16.58.34,1.17.57,1.75.05.12.13.14.23.05.31-.24.61-.49.9-.75Z" style="fill: #1d7068;"/>
        <path d="M110.13,42.42c-.16.27-.4.46-.75.54-.1.02-.2.03-.28.03-.22,0-.44-.05-.64-.15-.26-.14-.42-.35-.49-.64-.02-.1-.03-.2-.03-.28,0-.19.05-.38.16-.57.39-.74.71-1.62.95-2.63.05-.29.2-.52.45-.67.25-.16.51-.19.79-.1.31.09.54.27.7.54.12.19.18.4.18.62,0,.09,0,.16-.03.23-.26,1.31-.59,2.34-1,3.09ZM109.4,36.95h-.05c-.34,0-.64-.11-.88-.33-.28-.26-.41-.58-.41-.98,0-.34.12-.64.36-.88.24-.27.54-.41.9-.41.27-.02,1.34-.05,3.2-.1.12,0,.18-.07.18-.21v-.88c0-.12-.06-.18-.18-.18h-2.68c-.33,0-.61-.12-.84-.35-.23-.23-.35-.52-.35-.85s.12-.62.35-.85c.23-.23.51-.35.84-.35h2.68c.12,0,.18-.06.18-.18v-.77c0-.14-.06-.21-.18-.21h-2.4c-.43,0-.79-.15-1.08-.44-.29-.29-.44-.65-.44-1.08v-6.91c0-.41.15-.77.44-1.07.29-.3.65-.45,1.08-.45h8.12c.41,0,.77.15,1.07.45s.45.66.45,1.07v6.91c0,.43-.15.79-.45,1.08-.3.29-.66.44-1.07.44h-2.58c-.12,0-.18.07-.18.21v.77c0,.12.06.18.18.18h2.86c.33,0,.61.12.84.35.23.23.35.52.35.85s-.12.62-.35.85c-.23.23-.51.35-.84.35h-2.86c-.12,0-.18.06-.18.18v.77c0,.14.06.2.18.18.33,0,.67,0,1.03-.03.36-.02.76-.03,1.2-.05.44-.02.78-.03,1.02-.05h.05c.31,0,.58.11.8.33.22.22.34.5.34.83,0,.34-.12.64-.36.9-.24.24-.53.38-.88.41-3.44.21-6.59.37-9.46.49ZM111,23.08s0-.03-.03-.03c-.02,0-.03,0-.03.03v4.05c0,.14.06.21.18.21h1.83c.14,0,.21-.07.21-.21v-5.34c0-.14-.07-.21-.21-.21h-1.83c-.12,0-.18.07-.18.21v.77c0,.09.04.12.13.1.12-.03.24-.05.36-.05.17,0,.35.04.54.13.27.15.46.39.54.7.19.69.33,1.34.41,1.96.03.21,0,.4-.13.58-.12.18-.28.31-.46.37-.19.05-.36.02-.52-.09-.15-.11-.24-.25-.26-.42-.12-.95-.31-1.87-.57-2.76ZM111.7,38.73c-.02-.05-.03-.1-.03-.15,0-.21.06-.39.18-.54.17-.22.39-.35.64-.39.27-.03.52.03.73.19.21.16.35.38.4.66.15.88.27,1.75.33,2.63.02.29-.07.55-.26.77-.19.22-.43.35-.72.39-.26.02-.49-.06-.7-.24-.21-.18-.32-.4-.34-.66-.03-.83-.12-1.71-.26-2.66ZM114.46,38.57c-.02-.09-.03-.17-.03-.26,0-.15.03-.3.1-.44.14-.21.33-.33.57-.39.27-.05.53,0,.76.13.23.14.39.33.48.59.28.88.5,1.71.67,2.5.05.28,0,.52-.16.75-.15.22-.37.36-.64.41-.26.05-.49,0-.71-.14-.21-.15-.35-.36-.4-.63-.16-.81-.37-1.65-.64-2.53ZM117.19,22.69c.1.04.15,0,.15-.1v-.8c0-.14-.07-.21-.21-.21h-1.88c-.12,0-.18.07-.18.21v3.97s0,.03.03.03c.02,0,.03,0,.03-.03.26-.77.48-1.54.67-2.29.09-.31.27-.54.54-.7.16-.09.32-.13.49-.13.12,0,.24.02.36.05ZM115.08,27.12c0,.14.06.21.18.21h1.88c.14,0,.21-.07.21-.21v-3.35s-.01-.05-.04-.05-.04,0-.04.03c-.36.95-.6,1.57-.72,1.88-.1.28-.29.47-.55.58-.27.11-.54.12-.81.01-.07-.03-.1,0-.1.1v.8ZM117.22,38.29c-.07-.14-.1-.28-.1-.41,0-.09.02-.18.05-.28.09-.24.25-.41.49-.52.15-.05.3-.08.44-.08s.27.03.41.08c.28.09.48.26.62.52.45.76.83,1.5,1.13,2.24.07.12.1.25.1.39,0,.15-.04.3-.1.44-.12.28-.33.47-.62.59-.26.1-.52.09-.77-.03-.26-.12-.44-.32-.54-.59-.31-.77-.68-1.56-1.11-2.35ZM131.88,24.56c.28.28.42.62.42,1.02s-.14.73-.42,1.02c-.28.28-.62.42-1.02.42h-3.46c-.12,0-.18.07-.18.21v3.66c0,.14.06.21.18.21h2.5c.43,0,.79.15,1.08.45.29.3.44.66.44,1.07v9.1c0,.41-.15.76-.44,1.06-.29.29-.64.44-1.06.44h-.7c-.22,0-.41-.08-.57-.25-.15-.16-.23-.36-.23-.58,0-.07-.04-.1-.1-.1h-4.67c-.09,0-.13.04-.13.13,0,.24-.09.45-.27.63-.18.18-.39.27-.63.27h-.52c-.4,0-.73-.14-1.01-.41-.27-.28-.41-.61-.41-1.01v-9.28c0-.41.15-.77.44-1.07.29-.3.65-.45,1.08-.45h1.73c.14,0,.21-.07.21-.21v-10.65c0-.43.15-.79.44-1.08.29-.29.65-.44,1.08-.44h.03c.41,0,.77.15,1.07.44.3.29.45.65.45,1.08v3.69c0,.14.06.21.18.21h3.46c.39,0,.73.14,1.02.43ZM128.23,39.48c.14,0,.21-.07.21-.21v-5.13c0-.12-.07-.18-.21-.18h-4.49c-.14,0-.21.06-.21.18v5.13c0,.14.07.21.21.21h4.49Z" style="fill: #1d7068;"/>
        <path d="M140.13,41.41c-.69,0-1.26-.24-1.71-.72-.46-.48-.68-1.08-.68-1.8s.23-1.32.68-1.8c.46-.48,1.03-.72,1.71-.72s1.26.24,1.73.72c.46.48.7,1.08.7,1.8s-.23,1.32-.7,1.8c-.46.48-1.04.72-1.73.72Z" style="fill: #1d7068;"/>
        <path d="M151.33,41.41c-.69,0-1.26-.24-1.71-.72-.46-.48-.68-1.08-.68-1.8s.23-1.32.68-1.8c.46-.48,1.03-.72,1.71-.72s1.26.24,1.73.72c.46.48.7,1.08.7,1.8s-.23,1.32-.7,1.8c-.46.48-1.04.72-1.73.72Z" style="fill: #1d7068;"/>
        <path d="M162.53,41.41c-.69,0-1.26-.24-1.71-.72-.46-.48-.68-1.08-.68-1.8s.23-1.32.68-1.8c.46-.48,1.03-.72,1.71-.72s1.26.24,1.73.72c.46.48.7,1.08.7,1.8s-.23,1.32-.7,1.8c-.46.48-1.04.72-1.73.72Z" style="fill: #1d7068;"/>
      </g>
    </g>
  </g>
</svg>